<?xml version="1.0" encoding="us-ascii" standalone="no"?><svg xmlns="http://www.w3.org/2000/svg" xmlns:xlink="http://www.w3.org/1999/xlink" contentStyleType="text/css" height="889px" preserveAspectRatio="none" style="width:1680px;height:889px;background:#FFFFFF;" version="1.1" viewBox="0 0 1680 889" width="1680px" zoomAndPan="magnify"><defs/><g><!--cluster org.vorpal.blade.test.b2bua--><g id="cluster_org.vorpal.blade.test.b2bua"><path d="M426.5,359.83 L619.5,359.83 A3.75,3.75 0 0 1 622,362.33 L629,382.3183 L1163.5,382.3183 A2.5,2.5 0 0 1 1166,384.8183 L1166,861.12 A2.5,2.5 0 0 1 1163.5,863.62 L426.5,863.62 A2.5,2.5 0 0 1 424,861.12 L424,362.33 A2.5,2.5 0 0 1 426.5,359.83 " fill="none" style="stroke:#000000;stroke-width:1.5;"/><line style="stroke:#000000;stroke-width:1.5;" x1="424" x2="629" y1="382.3183" y2="382.3183"/><text fill="#000000" font-family="sans-serif" font-size="14" font-weight="bold" lengthAdjust="spacing" textLength="192" x="428" y="375.3652">org.vorpal.blade.test.b2bua</text></g><!--cluster java.io--><g id="cluster_java.io"><path d="M8.5,121.41 L55.5,121.41 A3.75,3.75 0 0 1 58,123.91 L65,143.8983 L147.5,143.8983 A2.5,2.5 0 0 1 150,146.3983 L150,217.91 A2.5,2.5 0 0 1 147.5,220.41 L8.5,220.41 A2.5,2.5 0 0 1 6,217.91 L6,123.91 A2.5,2.5 0 0 1 8.5,121.41 " fill="none" style="stroke:#000000;stroke-width:1.5;"/><line style="stroke:#000000;stroke-width:1.5;" x1="6" x2="65" y1="143.8983" y2="143.8983"/><text fill="#000000" font-family="sans-serif" font-size="14" font-weight="bold" lengthAdjust="spacing" textLength="46" x="10" y="136.9452">java.io</text></g><!--cluster org.vorpal.blade.framework.b2bua--><g id="cluster_org.vorpal.blade.framework.b2bua"><path d="M176.5,63.7 L419.5,63.7 A3.75,3.75 0 0 1 422,66.2 L429,86.1883 L501.5,86.1883 A2.5,2.5 0 0 1 504,88.6883 L504,275.62 A2.5,2.5 0 0 1 501.5,278.12 L176.5,278.12 A2.5,2.5 0 0 1 174,275.62 L174,66.2 A2.5,2.5 0 0 1 176.5,63.7 " fill="none" style="stroke:#000000;stroke-width:1.5;"/><line style="stroke:#000000;stroke-width:1.5;" x1="174" x2="429" y1="86.1883" y2="86.1883"/><text fill="#000000" font-family="sans-serif" font-size="14" font-weight="bold" lengthAdjust="spacing" textLength="242" x="178" y="79.2352">org.vorpal.blade.framework.b2bua</text></g><!--cluster javax.servlet.sip--><g id="cluster_javax.servlet.sip"><path d="M530.5,88.44 L645.5,88.44 A3.75,3.75 0 0 1 648,90.94 L655,110.9283 L1387.5,110.9283 A2.5,2.5 0 0 1 1390,113.4283 L1390,250.89 A2.5,2.5 0 0 1 1387.5,253.39 L530.5,253.39 A2.5,2.5 0 0 1 528,250.89 L528,90.94 A2.5,2.5 0 0 1 530.5,88.44 " fill="none" style="stroke:#000000;stroke-width:1.5;"/><line style="stroke:#000000;stroke-width:1.5;" x1="528" x2="655" y1="110.9283" y2="110.9283"/><text fill="#000000" font-family="sans-serif" font-size="14" font-weight="bold" lengthAdjust="spacing" textLength="114" x="532" y="103.9752">javax.servlet.sip</text></g><!--cluster org.vorpal.blade.framework.config--><g id="cluster_org.vorpal.blade.framework.config"><path d="M1416.5,6 L1660.5,6 A3.75,3.75 0 0 1 1663,8.5 L1670,28.4883 L1670.5,28.4883 A2.5,2.5 0 0 1 1673,30.9883 L1673,333.33 A2.5,2.5 0 0 1 1670.5,335.83 L1416.5,335.83 A2.5,2.5 0 0 1 1414,333.33 L1414,8.5 A2.5,2.5 0 0 1 1416.5,6 " fill="none" style="stroke:#000000;stroke-width:1.5;"/><line style="stroke:#000000;stroke-width:1.5;" x1="1414" x2="1670" y1="28.4883" y2="28.4883"/><text fill="#000000" font-family="sans-serif" font-size="14" font-weight="bold" lengthAdjust="spacing" textLength="243" x="1418" y="21.5352">org.vorpal.blade.framework.config</text></g><!--class ConfigSample--><a href="ConfigSample.html" target="_top" title="ConfigSample.html" xlink:actuate="onRequest" xlink:href="ConfigSample.html" xlink:show="new" xlink:title="ConfigSample.html" xlink:type="simple"><g id="elem_ConfigSample"><rect codeLine="5" fill="#F1F1F1" height="48" id="ConfigSample" rx="2.5" ry="2.5" style="stroke:#181818;stroke-width:0.5;" width="128" x="703" y="799.62"/><ellipse cx="718" cy="815.62" fill="#ADD1B2" rx="11" ry="11" style="stroke:#181818;stroke-width:1.0;"/><path d="M720.4731,821.7631 Q719.8921,822.0619 719.2529,822.2113 Q718.6138,822.3607 717.9082,822.3607 Q715.4014,822.3607 714.0815,820.7089 Q712.7617,819.057 712.7617,815.9359 Q712.7617,812.8065 714.0815,811.1547 Q715.4014,809.5028 717.9082,809.5028 Q718.6138,809.5028 719.2612,809.6522 Q719.9087,809.8016 720.4731,810.1005 L720.4731,812.8231 Q719.8423,812.2421 719.2488,811.9723 Q718.6553,811.7025 718.0244,811.7025 Q716.6797,811.7025 715.9949,812.7692 Q715.3101,813.8358 715.3101,815.9359 Q715.3101,818.0277 715.9949,819.0944 Q716.6797,820.161 718.0244,820.161 Q718.6553,820.161 719.2488,819.8912 Q719.8423,819.6215 720.4731,819.0404 Z " fill="#000000"/><text fill="#000000" font-family="sans-serif" font-size="14" lengthAdjust="spacing" textLength="96" x="732" y="820.911">ConfigSample</text><line style="stroke:#181818;stroke-width:0.5;" x1="704" x2="830" y1="831.62" y2="831.62"/><line style="stroke:#181818;stroke-width:0.5;" x1="704" x2="830" y1="839.62" y2="839.62"/></g></a><!--class SampleB2buaServlet--><a href="SampleB2buaServlet.html" target="_top" title="SampleB2buaServlet.html" xlink:actuate="onRequest" xlink:href="SampleB2buaServlet.html" xlink:show="new" xlink:title="SampleB2buaServlet.html" xlink:type="simple"><g id="elem_SampleB2buaServlet"><rect codeLine="7" fill="#F1F1F1" height="344.7891" id="SampleB2buaServlet" rx="2.5" ry="2.5" style="stroke:#181818;stroke-width:0.5;" width="437" x="439.5" y="394.83"/><ellipse cx="584.25" cy="410.83" fill="#ADD1B2" rx="11" ry="11" style="stroke:#181818;stroke-width:1.0;"/><path d="M586.7231,416.9731 Q586.1421,417.2719 585.5029,417.4213 Q584.8638,417.5707 584.1582,417.5707 Q581.6514,417.5707 580.3315,415.9189 Q579.0117,414.267 579.0117,411.1459 Q579.0117,408.0165 580.3315,406.3647 Q581.6514,404.7128 584.1582,404.7128 Q584.8638,404.7128 585.5112,404.8622 Q586.1587,405.0116 586.7231,405.3105 L586.7231,408.0331 Q586.0923,407.4521 585.4988,407.1823 Q584.9053,406.9125 584.2744,406.9125 Q582.9297,406.9125 582.2449,407.9792 Q581.5601,409.0458 581.5601,411.1459 Q581.5601,413.2377 582.2449,414.3044 Q582.9297,415.371 584.2744,415.371 Q584.9053,415.371 585.4988,415.1012 Q586.0923,414.8315 586.7231,414.2504 Z " fill="#000000"/><text fill="#000000" font-family="sans-serif" font-size="14" lengthAdjust="spacing" textLength="139" x="604.75" y="416.121">SampleB2buaServlet</text><line style="stroke:#181818;stroke-width:0.5;" x1="440.5" x2="875.5" y1="426.83" y2="426.83"/><rect fill="none" height="6" style="stroke:#C82930;stroke-width:1.0;" width="6" x="447.5" y="437.5741"/><text fill="#000000" font-family="sans-serif" font-size="14" lengthAdjust="spacing" text-decoration="underline" textLength="152" x="459.5" y="444.3652">serialVersionUID: long</text><ellipse cx="450.5" cy="457.0624" fill="none" rx="3" ry="3" style="stroke:#038048;stroke-width:1.0;"/><text fill="#000000" font-family="sans-serif" font-size="14" lengthAdjust="spacing" text-decoration="underline" textLength="398" x="459.5" y="460.8534">settingsManager: SettingsManager&lt;SampleB2buaConfig&gt;</text><rect fill="none" height="6" style="stroke:#C82930;stroke-width:1.0;" width="6" x="447.5" y="470.5507"/><text fill="#000000" font-family="sans-serif" font-size="14" lengthAdjust="spacing" textLength="149" x="459.5" y="477.3417">sipFactory: SipFactory</text><line style="stroke:#181818;stroke-width:0.5;" x1="440.5" x2="875.5" y1="484.2948" y2="484.2948"/><ellipse cx="450.5" cy="498.039" fill="#84BE84" rx="3" ry="3" style="stroke:#038048;stroke-width:1.0;"/><text fill="#000000" font-family="sans-serif" font-size="14" lengthAdjust="spacing" textLength="305" x="459.5" y="501.83">servletCreated(SipServletContextEvent): void</text><ellipse cx="450.5" cy="514.5273" fill="#84BE84" rx="3" ry="3" style="stroke:#038048;stroke-width:1.0;"/><text fill="#000000" font-family="sans-serif" font-size="14" lengthAdjust="spacing" textLength="320" x="459.5" y="518.3183">servletDestroyed(SipServletContextEvent): void</text><ellipse cx="450.5" cy="531.0155" fill="#84BE84" rx="3" ry="3" style="stroke:#038048;stroke-width:1.0;"/><text fill="#000000" font-family="sans-serif" font-size="14" lengthAdjust="spacing" textLength="241" x="459.5" y="534.8066">callStarted(SipServletRequest): void</text><ellipse cx="450.5" cy="547.5038" fill="#84BE84" rx="3" ry="3" style="stroke:#038048;stroke-width:1.0;"/><text fill="#000000" font-family="sans-serif" font-size="14" lengthAdjust="spacing" textLength="271" x="459.5" y="551.2948">callAnswered(SipServletResponse): void</text><ellipse cx="450.5" cy="563.9921" fill="#84BE84" rx="3" ry="3" style="stroke:#038048;stroke-width:1.0;"/><text fill="#000000" font-family="sans-serif" font-size="14" lengthAdjust="spacing" textLength="266" x="459.5" y="567.7831">callConnected(SipServletRequest): void</text><ellipse cx="450.5" cy="580.4804" fill="#84BE84" rx="3" ry="3" style="stroke:#038048;stroke-width:1.0;"/><text fill="#000000" font-family="sans-serif" font-size="14" lengthAdjust="spacing" textLength="267" x="459.5" y="584.2714">callCompleted(SipServletRequest): void</text><ellipse cx="450.5" cy="596.9687" fill="#84BE84" rx="3" ry="3" style="stroke:#038048;stroke-width:1.0;"/><text fill="#000000" font-family="sans-serif" font-size="14" lengthAdjust="spacing" textLength="262" x="459.5" y="600.7597">callDeclined(SipServletResponse): void</text><ellipse cx="450.5" cy="613.457" fill="#84BE84" rx="3" ry="3" style="stroke:#038048;stroke-width:1.0;"/><text fill="#000000" font-family="sans-serif" font-size="14" lengthAdjust="spacing" textLength="272" x="459.5" y="617.248">callAbandoned(SipServletRequest): void</text><ellipse cx="450.5" cy="629.9452" fill="#84BE84" rx="3" ry="3" style="stroke:#038048;stroke-width:1.0;"/><text fill="#000000" font-family="sans-serif" font-size="14" lengthAdjust="spacing" textLength="340" x="459.5" y="633.7362">sessionCreated(SipApplicationSessionEvent): void</text><ellipse cx="450.5" cy="646.4335" fill="#84BE84" rx="3" ry="3" style="stroke:#038048;stroke-width:1.0;"/><text fill="#000000" font-family="sans-serif" font-size="14" lengthAdjust="spacing" textLength="355" x="459.5" y="650.2245">sessionDestroyed(SipApplicationSessionEvent): void</text><ellipse cx="450.5" cy="662.9218" fill="#84BE84" rx="3" ry="3" style="stroke:#038048;stroke-width:1.0;"/><text fill="#000000" font-family="sans-serif" font-size="14" lengthAdjust="spacing" textLength="339" x="459.5" y="666.7128">sessionExpired(SipApplicationSessionEvent): void</text><ellipse cx="450.5" cy="679.4101" fill="#84BE84" rx="3" ry="3" style="stroke:#038048;stroke-width:1.0;"/><text fill="#000000" font-family="sans-serif" font-size="14" lengthAdjust="spacing" textLength="411" x="459.5" y="683.2011">sessionReadyToInvalidate(SipApplicationSessionEvent): void</text><ellipse cx="450.5" cy="695.8984" fill="#84BE84" rx="3" ry="3" style="stroke:#038048;stroke-width:1.0;"/><text fill="#000000" font-family="sans-serif" font-size="14" lengthAdjust="spacing" textLength="262" x="459.5" y="699.6894">sessionCreated(SipSessionEvent): void</text><ellipse cx="450.5" cy="712.3866" fill="#84BE84" rx="3" ry="3" style="stroke:#038048;stroke-width:1.0;"/><text fill="#000000" font-family="sans-serif" font-size="14" lengthAdjust="spacing" textLength="277" x="459.5" y="716.1777">sessionDestroyed(SipSessionEvent): void</text><ellipse cx="450.5" cy="728.8749" fill="#84BE84" rx="3" ry="3" style="stroke:#038048;stroke-width:1.0;"/><text fill="#000000" font-family="sans-serif" font-size="14" lengthAdjust="spacing" textLength="333" x="459.5" y="732.6659">sessionReadyToInvalidate(SipSessionEvent): void</text></g></a><!--class SampleB2buaConfig--><a href="SampleB2buaConfig.html" target="_top" title="SampleB2buaConfig.html" xlink:actuate="onRequest" xlink:href="SampleB2buaConfig.html" xlink:show="new" xlink:title="SampleB2buaConfig.html" xlink:type="simple"><g id="elem_SampleB2buaConfig"><rect codeLine="28" fill="#F1F1F1" height="146.9297" id="SampleB2buaConfig" rx="2.5" ry="2.5" style="stroke:#181818;stroke-width:0.5;" width="239" x="911.5" y="493.76"/><ellipse cx="957.25" cy="509.76" fill="#ADD1B2" rx="11" ry="11" style="stroke:#181818;stroke-width:1.0;"/><path d="M959.7231,515.9031 Q959.1421,516.2019 958.5029,516.3513 Q957.8638,516.5007 957.1582,516.5007 Q954.6514,516.5007 953.3315,514.8489 Q952.0117,513.197 952.0117,510.0759 Q952.0117,506.9465 953.3315,505.2947 Q954.6514,503.6428 957.1582,503.6428 Q957.8638,503.6428 958.5112,503.7922 Q959.1587,503.9416 959.7231,504.2405 L959.7231,506.9631 Q959.0923,506.3821 958.4988,506.1123 Q957.9053,505.8425 957.2744,505.8425 Q955.9297,505.8425 955.2449,506.9092 Q954.5601,507.9758 954.5601,510.0759 Q954.5601,512.1677 955.2449,513.2344 Q955.9297,514.301 957.2744,514.301 Q957.9053,514.301 958.4988,514.0312 Q959.0923,513.7615 959.7231,513.1804 Z " fill="#000000"/><text fill="#000000" font-family="sans-serif" font-size="14" lengthAdjust="spacing" textLength="139" x="977.75" y="515.051">SampleB2buaConfig</text><line style="stroke:#181818;stroke-width:0.5;" x1="912.5" x2="1149.5" y1="525.76" y2="525.76"/><ellipse cx="922.5" cy="539.5041" fill="none" rx="3" ry="3" style="stroke:#038048;stroke-width:1.0;"/><text fill="#000000" font-family="sans-serif" font-size="14" lengthAdjust="spacing" text-decoration="underline" textLength="99" x="931.5" y="543.2952">version: String</text><ellipse cx="922.5" cy="555.9924" fill="none" rx="3" ry="3" style="stroke:#038048;stroke-width:1.0;"/><text fill="#000000" font-family="sans-serif" font-size="14" lengthAdjust="spacing" textLength="118" x="931.5" y="559.7834">address: Address</text><ellipse cx="922.5" cy="572.4807" fill="none" rx="3" ry="3" style="stroke:#038048;stroke-width:1.0;"/><text fill="#000000" font-family="sans-serif" font-size="14" lengthAdjust="spacing" textLength="50" x="931.5" y="576.2717">uri: URI</text><ellipse cx="922.5" cy="588.969" fill="none" rx="3" ry="3" style="stroke:#038048;stroke-width:1.0;"/><text fill="#000000" font-family="sans-serif" font-size="14" lengthAdjust="spacing" textLength="94" x="931.5" y="592.76">value1: String</text><ellipse cx="922.5" cy="605.4573" fill="none" rx="3" ry="3" style="stroke:#038048;stroke-width:1.0;"/><text fill="#000000" font-family="sans-serif" font-size="14" lengthAdjust="spacing" textLength="94" x="931.5" y="609.2483">value2: String</text><ellipse cx="922.5" cy="621.9455" fill="none" rx="3" ry="3" style="stroke:#038048;stroke-width:1.0;"/><text fill="#000000" font-family="sans-serif" font-size="14" lengthAdjust="spacing" textLength="213" x="931.5" y="625.7366">map: HashMap&lt;String, String&gt;</text><line style="stroke:#181818;stroke-width:0.5;" x1="912.5" x2="1149.5" y1="632.6897" y2="632.6897"/></g></a><!--class Serializable--><a href="https://docs.oracle.com/en/java/javase/11/docs/api/java.base/java/io/Serializable.html?is-external=true" target="_top" title="https://docs.oracle.com/en/java/javase/11/docs/api/java.base/java/io/Serializable.html?is-external=true" xlink:actuate="onRequest" xlink:href="https://docs.oracle.com/en/java/javase/11/docs/api/java.base/java/io/Serializable.html?is-external=true" xlink:show="new" xlink:title="https://docs.oracle.com/en/java/javase/11/docs/api/java.base/java/io/Serializable.html?is-external=true" xlink:type="simple"><g id="elem_Serializable"><rect codeLine="40" fill="#F1F1F1" height="48" id="Serializable" rx="2.5" ry="2.5" style="stroke:#181818;stroke-width:0.5;" width="111" x="22.5" y="156.41"/><ellipse cx="37.5" cy="172.41" fill="#B4A7E5" rx="11" ry="11" style="stroke:#181818;stroke-width:1.0;"/><path d="M33.9277,168.6751 L33.9277,166.5169 L41.3071,166.5169 L41.3071,168.6751 L38.8418,168.6751 L38.8418,176.7518 L41.3071,176.7518 L41.3071,178.91 L33.9277,178.91 L33.9277,176.7518 L36.3931,176.7518 L36.3931,168.6751 Z " fill="#000000"/><text fill="#000000" font-family="sans-serif" font-size="14" font-style="italic" lengthAdjust="spacing" textLength="79" x="51.5" y="177.701">Serializable</text><line style="stroke:#181818;stroke-width:0.5;" x1="23.5" x2="132.5" y1="188.41" y2="188.41"/><line style="stroke:#181818;stroke-width:0.5;" x1="23.5" x2="132.5" y1="196.41" y2="196.41"/></g></a><!--class B2buaServlet--><g id="elem_B2buaServlet"><rect codeLine="44" fill="#F1F1F1" height="163.418" id="B2buaServlet" rx="2.5" ry="2.5" style="stroke:#181818;stroke-width:0.5;" width="298" x="190" y="98.7"/><ellipse cx="290.25" cy="114.7" fill="#A9DCDF" rx="11" ry="11" style="stroke:#181818;stroke-width:1.0;"/><path d="M290.1133,110.0481 L288.9595,115.1199 L291.2754,115.1199 Z M288.6191,107.8069 L291.6157,107.8069 L294.9609,120.2 L292.5122,120.2 L291.7485,117.137 L288.4697,117.137 L287.7227,120.2 L285.2739,120.2 Z " fill="#000000"/><text fill="#000000" font-family="sans-serif" font-size="14" font-style="italic" lengthAdjust="spacing" textLength="89" x="310.75" y="119.991">B2buaServlet</text><line style="stroke:#181818;stroke-width:0.5;" x1="191" x2="487" y1="130.7" y2="130.7"/><rect fill="none" height="6" style="stroke:#C82930;stroke-width:1.0;" width="6" x="198" y="141.4441"/><text fill="#000000" font-family="sans-serif" font-size="14" lengthAdjust="spacing" text-decoration="underline" textLength="152" x="210" y="148.2352">serialVersionUID: long</text><line style="stroke:#181818;stroke-width:0.5;" x1="191" x2="487" y1="155.1883" y2="155.1883"/><ellipse cx="201" cy="168.9324" fill="#84BE84" rx="3" ry="3" style="stroke:#038048;stroke-width:1.0;"/><text fill="#000000" font-family="sans-serif" font-size="14" font-style="italic" lengthAdjust="spacing" textLength="241" x="210" y="172.7234">callStarted(SipServletRequest): void</text><ellipse cx="201" cy="185.4207" fill="#84BE84" rx="3" ry="3" style="stroke:#038048;stroke-width:1.0;"/><text fill="#000000" font-family="sans-serif" font-size="14" font-style="italic" lengthAdjust="spacing" textLength="271" x="210" y="189.2117">callAnswered(SipServletResponse): void</text><ellipse cx="201" cy="201.909" fill="#84BE84" rx="3" ry="3" style="stroke:#038048;stroke-width:1.0;"/><text fill="#000000" font-family="sans-serif" font-size="14" font-style="italic" lengthAdjust="spacing" textLength="266" x="210" y="205.7">callConnected(SipServletRequest): void</text><ellipse cx="201" cy="218.3973" fill="#84BE84" rx="3" ry="3" style="stroke:#038048;stroke-width:1.0;"/><text fill="#000000" font-family="sans-serif" font-size="14" font-style="italic" lengthAdjust="spacing" textLength="267" x="210" y="222.1883">callCompleted(SipServletRequest): void</text><ellipse cx="201" cy="234.8855" fill="#84BE84" rx="3" ry="3" style="stroke:#038048;stroke-width:1.0;"/><text fill="#000000" font-family="sans-serif" font-size="14" font-style="italic" lengthAdjust="spacing" textLength="262" x="210" y="238.6766">callDeclined(SipServletResponse): void</text><ellipse cx="201" cy="251.3738" fill="#84BE84" rx="3" ry="3" style="stroke:#038048;stroke-width:1.0;"/><text fill="#000000" font-family="sans-serif" font-size="14" font-style="italic" lengthAdjust="spacing" textLength="272" x="210" y="255.1648">callAbandoned(SipServletRequest): void</text></g><!--class SipApplicationSessionListener--><a href="https://vorpalnet.github.io/jsr359/javax/servlet/sip/SipApplicationSessionListener.html?is-external=true" target="_top" title="https://vorpalnet.github.io/jsr359/javax/servlet/sip/SipApplicationSessionListener.html?is-external=true" xlink:actuate="onRequest" xlink:href="https://vorpalnet.github.io/jsr359/javax/servlet/sip/SipApplicationSessionListener.html?is-external=true" xlink:show="new" xlink:title="https://vorpalnet.github.io/jsr359/javax/servlet/sip/SipApplicationSessionListener.html?is-external=true" xlink:type="simple"><g id="elem_SipApplicationSessionListener"><rect codeLine="56" fill="#F1F1F1" height="113.9531" id="SipApplicationSessionListener" rx="2.5" ry="2.5" style="stroke:#181818;stroke-width:0.5;" width="437" x="543.5" y="123.44"/><ellipse cx="655.25" cy="139.44" fill="#B4A7E5" rx="11" ry="11" style="stroke:#181818;stroke-width:1.0;"/><path d="M651.6777,135.7051 L651.6777,133.5469 L659.0571,133.5469 L659.0571,135.7051 L656.5918,135.7051 L656.5918,143.7818 L659.0571,143.7818 L659.0571,145.94 L651.6777,145.94 L651.6777,143.7818 L654.1431,143.7818 L654.1431,135.7051 Z " fill="#000000"/><text fill="#000000" font-family="sans-serif" font-size="14" font-style="italic" lengthAdjust="spacing" textLength="205" x="675.75" y="144.731">SipApplicationSessionListener</text><line style="stroke:#181818;stroke-width:0.5;" x1="544.5" x2="979.5" y1="155.44" y2="155.44"/><line style="stroke:#181818;stroke-width:0.5;" x1="544.5" x2="979.5" y1="163.44" y2="163.44"/><ellipse cx="554.5" cy="177.1841" fill="#84BE84" rx="3" ry="3" style="stroke:#038048;stroke-width:1.0;"/><text fill="#000000" font-family="sans-serif" font-size="14" font-style="italic" lengthAdjust="spacing" textLength="340" x="563.5" y="180.9752">sessionCreated(SipApplicationSessionEvent): void</text><ellipse cx="554.5" cy="193.6724" fill="#84BE84" rx="3" ry="3" style="stroke:#038048;stroke-width:1.0;"/><text fill="#000000" font-family="sans-serif" font-size="14" font-style="italic" lengthAdjust="spacing" textLength="355" x="563.5" y="197.4634">sessionDestroyed(SipApplicationSessionEvent): void</text><ellipse cx="554.5" cy="210.1607" fill="#84BE84" rx="3" ry="3" style="stroke:#038048;stroke-width:1.0;"/><text fill="#000000" font-family="sans-serif" font-size="14" font-style="italic" lengthAdjust="spacing" textLength="339" x="563.5" y="213.9517">sessionExpired(SipApplicationSessionEvent): void</text><ellipse cx="554.5" cy="226.649" fill="#84BE84" rx="3" ry="3" style="stroke:#038048;stroke-width:1.0;"/><text fill="#000000" font-family="sans-serif" font-size="14" font-style="italic" lengthAdjust="spacing" textLength="411" x="563.5" y="230.44">sessionReadyToInvalidate(SipApplicationSessionEvent): void</text></g></a><!--class SipSessionListener--><a href="https://vorpalnet.github.io/jsr359/javax/servlet/sip/SipSessionListener.html?is-external=true" target="_top" title="https://vorpalnet.github.io/jsr359/javax/servlet/sip/SipSessionListener.html?is-external=true" xlink:actuate="onRequest" xlink:href="https://vorpalnet.github.io/jsr359/javax/servlet/sip/SipSessionListener.html?is-external=true" xlink:show="new" xlink:title="https://vorpalnet.github.io/jsr359/javax/servlet/sip/SipSessionListener.html?is-external=true" xlink:type="simple"><g id="elem_SipSessionListener"><rect codeLine="62" fill="#F1F1F1" height="97.4648" id="SipSessionListener" rx="2.5" ry="2.5" style="stroke:#181818;stroke-width:0.5;" width="359" x="1015.5" y="131.68"/><ellipse cx="1127.25" cy="147.68" fill="#B4A7E5" rx="11" ry="11" style="stroke:#181818;stroke-width:1.0;"/><path d="M1123.6777,143.9451 L1123.6777,141.7869 L1131.0571,141.7869 L1131.0571,143.9451 L1128.5918,143.9451 L1128.5918,152.0218 L1131.0571,152.0218 L1131.0571,154.18 L1123.6777,154.18 L1123.6777,152.0218 L1126.1431,152.0218 L1126.1431,143.9451 Z " fill="#000000"/><text fill="#000000" font-family="sans-serif" font-size="14" font-style="italic" lengthAdjust="spacing" textLength="127" x="1147.75" y="152.971">SipSessionListener</text><line style="stroke:#181818;stroke-width:0.5;" x1="1016.5" x2="1373.5" y1="163.68" y2="163.68"/><line style="stroke:#181818;stroke-width:0.5;" x1="1016.5" x2="1373.5" y1="171.68" y2="171.68"/><ellipse cx="1026.5" cy="185.4241" fill="#84BE84" rx="3" ry="3" style="stroke:#038048;stroke-width:1.0;"/><text fill="#000000" font-family="sans-serif" font-size="14" font-style="italic" lengthAdjust="spacing" textLength="262" x="1035.5" y="189.2152">sessionCreated(SipSessionEvent): void</text><ellipse cx="1026.5" cy="201.9124" fill="#84BE84" rx="3" ry="3" style="stroke:#038048;stroke-width:1.0;"/><text fill="#000000" font-family="sans-serif" font-size="14" font-style="italic" lengthAdjust="spacing" textLength="277" x="1035.5" y="205.7034">sessionDestroyed(SipSessionEvent): void</text><ellipse cx="1026.5" cy="218.4007" fill="#84BE84" rx="3" ry="3" style="stroke:#038048;stroke-width:1.0;"/><text fill="#000000" font-family="sans-serif" font-size="14" font-style="italic" lengthAdjust="spacing" textLength="333" x="1035.5" y="222.1917">sessionReadyToInvalidate(SipSessionEvent): void</text></g></a><!--class Configuration--><a href="https://vorpalnet.github.io/blade/vorpal-blade-library-framework/org/vorpal/blade/framework/config/Configuration.html?is-external=true" target="_top" title="https://vorpalnet.github.io/blade/vorpal-blade-library-framework/org/vorpal/blade/framework/config/Configuration.html?is-external=true" xlink:actuate="onRequest" xlink:href="https://vorpalnet.github.io/blade/vorpal-blade-library-framework/org/vorpal/blade/framework/config/Configuration.html?is-external=true" xlink:show="new" xlink:title="https://vorpalnet.github.io/blade/vorpal-blade-library-framework/org/vorpal/blade/framework/config/Configuration.html?is-external=true" xlink:type="simple"><g id="elem_Configuration"><rect codeLine="70" fill="#F1F1F1" height="278.8359" id="Configuration" rx="2.5" ry="2.5" style="stroke:#181818;stroke-width:0.5;" width="214" x="1430" y="41"/><ellipse cx="1484.75" cy="57" fill="#ADD1B2" rx="11" ry="11" style="stroke:#181818;stroke-width:1.0;"/><path d="M1487.2231,63.1431 Q1486.6421,63.4419 1486.0029,63.5913 Q1485.3638,63.7407 1484.6582,63.7407 Q1482.1514,63.7407 1480.8315,62.0889 Q1479.5117,60.437 1479.5117,57.3159 Q1479.5117,54.1865 1480.8315,52.5347 Q1482.1514,50.8828 1484.6582,50.8828 Q1485.3638,50.8828 1486.0112,51.0322 Q1486.6587,51.1816 1487.2231,51.4805 L1487.2231,54.2031 Q1486.5923,53.6221 1485.9988,53.3523 Q1485.4053,53.0825 1484.7744,53.0825 Q1483.4297,53.0825 1482.7449,54.1492 Q1482.0601,55.2158 1482.0601,57.3159 Q1482.0601,59.4077 1482.7449,60.4744 Q1483.4297,61.541 1484.7744,61.541 Q1485.4053,61.541 1485.9988,61.2712 Q1486.5923,61.0015 1487.2231,60.4204 Z " fill="#000000"/><text fill="#000000" font-family="sans-serif" font-size="14" lengthAdjust="spacing" textLength="96" x="1505.25" y="62.291">Configuration</text><line style="stroke:#181818;stroke-width:0.5;" x1="1431" x2="1643" y1="73" y2="73"/><rect fill="none" height="6" style="stroke:#C82930;stroke-width:1.0;" width="6" x="1438" y="83.7441"/><text fill="#000000" font-family="sans-serif" font-size="14" lengthAdjust="spacing" text-decoration="underline" textLength="152" x="1450" y="90.5352">serialVersionUID: long</text><ellipse cx="1441" cy="103.2324" fill="none" rx="3" ry="3" style="stroke:#038048;stroke-width:1.0;"/><text fill="#000000" font-family="sans-serif" font-size="14" lengthAdjust="spacing" textLength="99" x="1450" y="107.0234">version: String</text><polygon fill="none" points="1441,114.7207,1445,118.7207,1441,122.7207,1437,118.7207" style="stroke:#B38D22;stroke-width:1.0;"/><text fill="#000000" font-family="sans-serif" font-size="14" lengthAdjust="spacing" textLength="163" x="1450" y="123.5117">logging: LogParameters</text><polygon fill="none" points="1441,131.209,1445,135.209,1441,139.209,1437,135.209" style="stroke:#B38D22;stroke-width:1.0;"/><text fill="#000000" font-family="sans-serif" font-size="14" lengthAdjust="spacing" textLength="188" x="1450" y="140">session: SessionParameters</text><rect fill="none" height="6" style="stroke:#C82930;stroke-width:1.0;" width="6" x="1438" y="149.6973"/><text fill="#000000" font-family="sans-serif" font-size="14" lengthAdjust="spacing" text-decoration="underline" textLength="168" x="1450" y="156.4883">SECONDS_FACTOR: long</text><rect fill="none" height="6" style="stroke:#C82930;stroke-width:1.0;" width="6" x="1438" y="166.1855"/><text fill="#000000" font-family="sans-serif" font-size="14" lengthAdjust="spacing" text-decoration="underline" textLength="164" x="1450" y="172.9766">MINUTES_FACTOR: long</text><rect fill="none" height="6" style="stroke:#C82930;stroke-width:1.0;" width="6" x="1438" y="182.6738"/><text fill="#000000" font-family="sans-serif" font-size="14" lengthAdjust="spacing" text-decoration="underline" textLength="151" x="1450" y="189.4648">HOURS_FACTOR: long</text><rect fill="none" height="6" style="stroke:#C82930;stroke-width:1.0;" width="6" x="1438" y="199.1621"/><text fill="#000000" font-family="sans-serif" font-size="14" lengthAdjust="spacing" text-decoration="underline" textLength="140" x="1450" y="205.9531">DAYS_FACTOR: long</text><rect fill="none" height="6" style="stroke:#C82930;stroke-width:1.0;" width="6" x="1438" y="215.6504"/><text fill="#000000" font-family="sans-serif" font-size="14" lengthAdjust="spacing" text-decoration="underline" textLength="120" x="1450" y="222.4414">KB_FACTOR: long</text><rect fill="none" height="6" style="stroke:#C82930;stroke-width:1.0;" width="6" x="1438" y="232.1387"/><text fill="#000000" font-family="sans-serif" font-size="14" lengthAdjust="spacing" text-decoration="underline" textLength="124" x="1450" y="238.9297">KIB_FACTOR: long</text><rect fill="none" height="6" style="stroke:#C82930;stroke-width:1.0;" width="6" x="1438" y="248.627"/><text fill="#000000" font-family="sans-serif" font-size="14" lengthAdjust="spacing" text-decoration="underline" textLength="123" x="1450" y="255.418">MB_FACTOR: long</text><rect fill="none" height="6" style="stroke:#C82930;stroke-width:1.0;" width="6" x="1438" y="265.1152"/><text fill="#000000" font-family="sans-serif" font-size="14" lengthAdjust="spacing" text-decoration="underline" textLength="127" x="1450" y="271.9063">MIB_FACTOR: long</text><rect fill="none" height="6" style="stroke:#C82930;stroke-width:1.0;" width="6" x="1438" y="281.6035"/><text fill="#000000" font-family="sans-serif" font-size="14" lengthAdjust="spacing" text-decoration="underline" textLength="121" x="1450" y="288.3945">GB_FACTOR: long</text><rect fill="none" height="6" style="stroke:#C82930;stroke-width:1.0;" width="6" x="1438" y="298.0918"/><text fill="#000000" font-family="sans-serif" font-size="14" lengthAdjust="spacing" text-decoration="underline" textLength="125" x="1450" y="304.8828">GIB_FACTOR: long</text><line style="stroke:#181818;stroke-width:0.5;" x1="1431" x2="1643" y1="311.8359" y2="311.8359"/></g></a><!--reverse link SampleB2buaConfig to ConfigSample--><g id="link_SampleB2buaConfig_ConfigSample"><path codeLine="88" d="M970.1829,655.3796 C946.0329,687.6396 926.14,710.41 894,739.62 C868.46,762.83 835.81,784.02 810,799.18 " fill="none" id="SampleB2buaConfig-backto-ConfigSample" style="stroke:#181818;stroke-width:1.0;"/><polygon fill="none" points="980.97,640.97,965.3797,651.7839,974.9861,658.9754,980.97,640.97" style="stroke:#181818;stroke-width:1.0;"/></g><!--reverse link Serializable to ConfigSample--><g id="link_Serializable_ConfigSample"><path codeLine="89" d="M90.5265,221.9362 C117.9365,308.2762 220.31,594.54 422,739.62 C506.02,800.06 628.34,816.91 702.51,821.36 " fill="none" id="Serializable-backto-ConfigSample" style="stroke:#181818;stroke-width:1.0;stroke-dasharray:7.0,7.0;"/><polygon fill="none" points="85.08,204.78,84.8078,223.7517,96.2452,220.1207,85.08,204.78" style="stroke:#181818;stroke-width:1.0;"/></g><!--reverse link B2buaServlet to SampleB2buaServlet--><g id="link_B2buaServlet_SampleB2buaServlet"><path codeLine="90" d="M417.7479,276.4075 C449.6479,314.8875 477.56,348.55 515.63,394.49 " fill="none" id="B2buaServlet-backto-SampleB2buaServlet" style="stroke:#181818;stroke-width:1.0;"/><polygon fill="none" points="406.26,262.55,413.1287,280.2367,422.367,272.5782,406.26,262.55" style="stroke:#181818;stroke-width:1.0;"/></g><!--reverse link SipApplicationSessionListener to SampleB2buaServlet--><g id="link_SipApplicationSessionListener_SampleB2buaServlet"><path codeLine="91" d="M742.0725,255.1562 C730.8425,296.6962 719.63,338.19 704.37,394.64 " fill="none" id="SipApplicationSessionListener-backto-SampleB2buaServlet" style="stroke:#181818;stroke-width:1.0;stroke-dasharray:7.0,7.0;"/><polygon fill="none" points="746.77,237.78,736.2804,253.5904,747.8646,256.7221,746.77,237.78" style="stroke:#181818;stroke-width:1.0;"/></g><!--reverse link SipSessionListener to SampleB2buaServlet--><g id="link_SipSessionListener_SampleB2buaServlet"><path codeLine="92" d="M1140.5568,242.4964 C1103.8768,280.8364 1059.46,319.06 998,343.83 C955,361.16 936.57,333.47 894,351.83 C868.58,362.79 844.09,377.65 821.14,394.46 " fill="none" id="SipSessionListener-backto-SampleB2buaServlet" style="stroke:#181818;stroke-width:1.0;stroke-dasharray:7.0,7.0;"/><polygon fill="none" points="1153,229.49,1136.2213,238.3486,1144.8922,246.6441,1153,229.49" style="stroke:#181818;stroke-width:1.0;"/></g><!--reverse link Configuration to SampleB2buaConfig--><g id="link_Configuration_SampleB2buaConfig"><path codeLine="93" d="M1416.9172,320.0831 C1404.0472,332.9231 1403.44,332.63 1390,343.83 C1315.95,405.56 1223.24,462.56 1150.59,503.39 " fill="none" id="Configuration-backto-SampleB2buaConfig" style="stroke:#181818;stroke-width:1.0;"/><polygon fill="none" points="1429.66,307.37,1412.6795,315.8355,1421.1549,324.3307,1429.66,307.37" style="stroke:#181818;stroke-width:1.0;"/></g><!--reverse link Serializable to SampleB2buaConfig--><g id="link_Serializable_SampleB2buaConfig"><path codeLine="94" d="M88.8676,221.9494 C99.6276,259.0994 121.39,313.43 174,343.83 C208.63,363.85 859.02,332.42 894,351.83 C948.36,382 984.36,443.8 1005.75,493.34 " fill="none" id="Serializable-backto-SampleB2buaConfig" style="stroke:#181818;stroke-width:1.0;stroke-dasharray:7.0,7.0;"/><polygon fill="none" points="83.86,204.66,83.1045,223.6186,94.6308,220.2802,83.86,204.66" style="stroke:#181818;stroke-width:1.0;"/></g><text fill="#888888" font-family="sans-serif" font-size="10" lengthAdjust="spacing" textLength="176" x="745" y="879.288">UMLDoclet 2.1.2, PlantUML 1.2024.3</text><!--SRC=[jLTjJzim4Fw-Ns49JG914i6q3uiOKsdPg4O1jNJIXD1qIKmmS-tCTWiC-jztUG6IDasJbbM2flRTSwzvpYQ444qD_aMWm4X5NFVTErma4VY_8QH4gj2UI1K1jpqE0RKDrSRszhmnaCTKDFxu7BGcRIckMJY0KSGfkRpC_xHlp8XVNSrgf9k7CTo0gWb7NoulvnSpRRH8Sfz7RS0mVqeiJHK3_eCgpQGOTZikuLA4vSBR6B1X8jGz41YXSicWkB2Viv-6S510iZIBleAFsNf0tPVdWWmQIHnlAmg61fiebeM2Y8RUcwC95MRB9HF9WbBD3kPPoOTckZvmFZ2WYYRxzCyOqHPgj8I-esf6HKTIQBfG1rqHr6zcfotZl3RJwL2VCz7CjvO78f2YjXrDTTmtkLgreeWp7_j5Ya6wMLMlHA1GhnNqZ-uZfbRMxbC87YvaLqo0im33M16dqAyh1BwMlrNAqmhcI5_I8d6aQqjuOtkICWQ-naQn6SBOXY1Gw95BMkb3SNUic4k6_Mvn5SCPqzrol6Hlhtnl195BZa7Vz23QJmLsCi63sHnCYmnz2nEmcSp5o90br3Nu59ajvaNs5xo4a6-CYRJhE87qjIqL-CZBlXmvL3WnIl9FKsTtDv5m86B9akt5gua4aquUCydl5wOjP2Mg1F3FHeqfqdo9dtEJv5h1YDv9zVjbd3m701ws5B9gLkh2U5Xd13pZJbTWobdbXgGvgzwGF-VL6r7fh7f3LfsBlJx1JXUrxBsT3JeRnsbvyvOns0dJXWggSjsSDfL0f92Pcx67BuDpgzM7Zv-IdhrtCaCE6d8gGHUryspJvTAnrkme0LfrZ9H0hJPHIe3M6IxJyiA-NJN_HmdNhTjRvNXvOkjph9yEoSVI8_jO9OLSKeO4CjknaXyMPvu2zM2zs77GXKmaat_TIbrm2YRhrgi9prUEzGqkmn0NNN8YmtE8dKF3nU6-aHKblXea3mlaNhqQ7BNFJZk3NrzRxOkpVjNrm-frJuSNHxL4Zy-6_Lg2dTRFMdBV3sj9TMk9zUf9rGFxLazg4LZXRQYuixhk_Bbn_ycogdNo5zd4GdRcGhJy0Ml_oROR0Yqx5BbkuV2ptDNvk_EBmuM9YvALutLvB8qilHdyKePxJl8pfJLAMQgwLedBqNmQJpzoBMNyDUoTTAGV5tJFthNtTiWv1s5mbRpFg6jpwny0]--></g></svg>