<?xml version="1.0" encoding="us-ascii" standalone="no"?><svg xmlns="http://www.w3.org/2000/svg" xmlns:xlink="http://www.w3.org/1999/xlink" contentStyleType="text/css" height="523px" preserveAspectRatio="none" style="width:739px;height:523px;background:#FFFFFF;" version="1.1" viewBox="0 0 739 523" width="739px" zoomAndPan="magnify"><defs/><g><!--class org.vorpal.blade.services.crud2.b2bua.InitialInvite--><a href="InitialInvite.html" target="_top" title="InitialInvite.html" xlink:actuate="onRequest" xlink:href="InitialInvite.html" xlink:show="new" xlink:title="InitialInvite.html" xlink:type="simple"><g id="elem_org.vorpal.blade.services.crud2.b2bua.InitialInvite"><rect codeLine="5" fill="#F1F1F1" height="367.543" id="org.vorpal.blade.services.crud2.b2bua.InitialInvite" rx="2.5" ry="2.5" style="stroke:#181818;stroke-width:0.5;" width="442" x="100" y="129.76"/><ellipse cx="224.75" cy="148.8928" fill="#ADD1B2" rx="11" ry="11" style="stroke:#181818;stroke-width:1.0;"/><path d="M227.2231,155.0359 Q226.6421,155.3347 226.0029,155.4841 Q225.3638,155.6335 224.6582,155.6335 Q222.1514,155.6335 220.8315,153.9817 Q219.5117,152.3298 219.5117,149.2087 Q219.5117,146.0793 220.8315,144.4275 Q222.1514,142.7756 224.6582,142.7756 Q225.3638,142.7756 226.0112,142.925 Q226.6587,143.0745 227.2231,143.3733 L227.2231,146.0959 Q226.5923,145.5149 225.9988,145.2451 Q225.4053,144.9753 224.7744,144.9753 Q223.4297,144.9753 222.7449,146.042 Q222.0601,147.1086 222.0601,149.2087 Q222.0601,151.3005 222.7449,152.3672 Q223.4297,153.4338 224.7744,153.4338 Q225.4053,153.4338 225.9988,153.1641 Q226.5923,152.8943 227.2231,152.3132 Z " fill="#000000"/><text fill="#000000" font-family="sans-serif" font-size="14" lengthAdjust="spacing" textLength="75" x="299.75" y="148.2952">InitialInvite</text><text fill="#000000" font-family="sans-serif" font-size="10" lengthAdjust="spacing" textLength="184" x="245.25" y="160.9163">org.vorpal.blade.services.crud2.b2bua</text><line style="stroke:#181818;stroke-width:0.5;" x1="101" x2="541" y1="168.0256" y2="168.0256"/><polygon fill="none" points="111,177.7698,107,183.7698,115,183.7698" style="stroke:#1963A0;stroke-width:1.0;"/><text fill="#000000" font-family="sans-serif" font-size="14" lengthAdjust="spacing" text-decoration="underline" textLength="152" x="120" y="185.5608">serialVersionUID: long</text><rect fill="none" height="6" style="stroke:#C82930;stroke-width:1.0;" width="6" x="108" y="195.258"/><text fill="#000000" font-family="sans-serif" font-size="14" lengthAdjust="spacing" textLength="216" x="120" y="202.0491">aliceRequest: SipServletRequest</text><rect fill="none" height="6" style="stroke:#C82930;stroke-width:1.0;" width="6" x="108" y="211.7463"/><text fill="#000000" font-family="sans-serif" font-size="14" lengthAdjust="spacing" textLength="212" x="120" y="218.5373">bobRequest: SipServletRequest</text><rect fill="none" height="6" style="stroke:#C82930;stroke-width:1.0;" width="6" x="108" y="228.2346"/><text fill="#000000" font-family="sans-serif" font-size="14" lengthAdjust="spacing" textLength="203" x="120" y="235.0256">b2buaListener: B2buaListener</text><rect fill="none" height="6" style="stroke:#C82930;stroke-width:1.0;" width="6" x="108" y="244.7229"/><text fill="#000000" font-family="sans-serif" font-size="14" lengthAdjust="spacing" textLength="158" x="120" y="251.5139">doNotProcess: boolean</text><line style="stroke:#181818;stroke-width:0.5;" x1="101" x2="541" y1="258.467" y2="258.467"/><ellipse cx="111" cy="272.2112" fill="#84BE84" rx="3" ry="3" style="stroke:#038048;stroke-width:1.0;"/><text fill="#000000" font-family="sans-serif" font-size="14" lengthAdjust="spacing" textLength="85" x="120" y="276.0022">InitialInvite()</text><ellipse cx="111" cy="288.6995" fill="#84BE84" rx="3" ry="3" style="stroke:#038048;stroke-width:1.0;"/><text fill="#000000" font-family="sans-serif" font-size="14" lengthAdjust="spacing" textLength="182" x="120" y="292.4905">InitialInvite(B2buaListener)</text><ellipse cx="111" cy="305.1877" fill="#84BE84" rx="3" ry="3" style="stroke:#038048;stroke-width:1.0;"/><text fill="#000000" font-family="sans-serif" font-size="14" lengthAdjust="spacing" text-decoration="underline" textLength="316" x="120" y="308.9788">setSessionExpiration(SipServletMessage): void</text><ellipse cx="111" cy="321.676" fill="#84BE84" rx="3" ry="3" style="stroke:#038048;stroke-width:1.0;"/><text fill="#000000" font-family="sans-serif" font-size="14" lengthAdjust="spacing" textLength="163" x="120" y="325.467">processContinue(): void</text><ellipse cx="111" cy="338.1643" fill="#84BE84" rx="3" ry="3" style="stroke:#038048;stroke-width:1.0;"/><text fill="#000000" font-family="sans-serif" font-size="14" lengthAdjust="spacing" textLength="222" x="120" y="341.9553">process(SipServletRequest): void</text><ellipse cx="111" cy="354.6526" fill="#84BE84" rx="3" ry="3" style="stroke:#038048;stroke-width:1.0;"/><text fill="#000000" font-family="sans-serif" font-size="14" lengthAdjust="spacing" textLength="275" x="120" y="358.4436">getInboundRequest(): SipServletRequest</text><ellipse cx="111" cy="371.1409" fill="#84BE84" rx="3" ry="3" style="stroke:#038048;stroke-width:1.0;"/><text fill="#000000" font-family="sans-serif" font-size="14" lengthAdjust="spacing" textLength="348" x="120" y="374.9319">setInboundRequest(SipServletRequest): InitialInvite</text><ellipse cx="111" cy="387.6291" fill="#84BE84" rx="3" ry="3" style="stroke:#038048;stroke-width:1.0;"/><text fill="#000000" font-family="sans-serif" font-size="14" lengthAdjust="spacing" textLength="287" x="120" y="391.4202">getOutboundRequest(): SipServletRequest</text><ellipse cx="111" cy="404.1174" fill="#84BE84" rx="3" ry="3" style="stroke:#038048;stroke-width:1.0;"/><text fill="#000000" font-family="sans-serif" font-size="14" lengthAdjust="spacing" textLength="360" x="120" y="407.9084">setOutboundRequest(SipServletRequest): InitialInvite</text><ellipse cx="111" cy="420.6057" fill="#84BE84" rx="3" ry="3" style="stroke:#038048;stroke-width:1.0;"/><text fill="#000000" font-family="sans-serif" font-size="14" lengthAdjust="spacing" textLength="234" x="120" y="424.3967">getB2buaListener(): B2buaListener</text><ellipse cx="111" cy="437.094" fill="#84BE84" rx="3" ry="3" style="stroke:#038048;stroke-width:1.0;"/><text fill="#000000" font-family="sans-serif" font-size="14" lengthAdjust="spacing" textLength="261" x="120" y="440.885">setB2buaListener(B2buaListener): void</text><ellipse cx="111" cy="453.5823" fill="#84BE84" rx="3" ry="3" style="stroke:#038048;stroke-width:1.0;"/><text fill="#000000" font-family="sans-serif" font-size="14" lengthAdjust="spacing" textLength="180" x="120" y="457.3733">isDoNotProcess(): boolean</text><ellipse cx="111" cy="470.0705" fill="#84BE84" rx="3" ry="3" style="stroke:#038048;stroke-width:1.0;"/><text fill="#000000" font-family="sans-serif" font-size="14" lengthAdjust="spacing" textLength="218" x="120" y="473.8616">setDoNotProcess(boolean): void</text><ellipse cx="111" cy="486.5588" fill="#84BE84" rx="3" ry="3" style="stroke:#038048;stroke-width:1.0;"/><text fill="#000000" font-family="sans-serif" font-size="14" lengthAdjust="spacing" textLength="416" x="120" y="490.3498">zzCreateInitialRequest(SipServletRequest): SipServletRequest</text></g></a><!--class org.vorpal.blade.framework.callflow.Callflow--><a href="https://vorpalnet.github.io/blade/vorpal-blade-library-framework/org/vorpal/blade/framework/callflow/Callflow.html?is-external=true" target="_top" title="https://vorpalnet.github.io/blade/vorpal-blade-library-framework/org/vorpal/blade/framework/callflow/Callflow.html?is-external=true" xlink:actuate="onRequest" xlink:href="https://vorpalnet.github.io/blade/vorpal-blade-library-framework/org/vorpal/blade/framework/callflow/Callflow.html?is-external=true" xlink:show="new" xlink:title="https://vorpalnet.github.io/blade/vorpal-blade-library-framework/org/vorpal/blade/framework/callflow/Callflow.html?is-external=true" xlink:type="simple"><g id="elem_org.vorpal.blade.framework.callflow.Callflow"><rect codeLine="27" fill="#F1F1F1" height="62.7539" id="org.vorpal.blade.framework.callflow.Callflow" rx="2.5" ry="2.5" style="stroke:#181818;stroke-width:0.5;" width="248" x="7" y="7"/><ellipse cx="40" cy="26.1328" fill="#A9DCDF" rx="11" ry="11" style="stroke:#181818;stroke-width:1.0;"/><path d="M39.8633,21.481 L38.7095,26.5527 L41.0254,26.5527 Z M38.3691,19.2397 L41.3657,19.2397 L44.7109,31.6328 L42.2622,31.6328 L41.4985,28.5698 L38.2197,28.5698 L37.4727,31.6328 L35.0239,31.6328 Z " fill="#000000"/><text fill="#000000" font-family="sans-serif" font-size="14" font-style="italic" lengthAdjust="spacing" textLength="55" x="118.5" y="25.5352">Callflow</text><text fill="#000000" font-family="sans-serif" font-size="10" font-style="italic" lengthAdjust="spacing" textLength="176" x="58" y="38.1563">org.vorpal.blade.framework.callflow</text><line style="stroke:#181818;stroke-width:0.5;" x1="8" x2="254" y1="45.2656" y2="45.2656"/><ellipse cx="18" cy="59.0098" fill="#84BE84" rx="3" ry="3" style="stroke:#038048;stroke-width:1.0;"/><text fill="#000000" font-family="sans-serif" font-size="14" font-style="italic" lengthAdjust="spacing" textLength="222" x="27" y="62.8008">process(SipServletRequest): void</text></g></a><!--class org.vorpal.blade.services.crud2.b2bua.CallflowListener--><a href="CallflowListener.html" target="_top" title="CallflowListener.html" xlink:actuate="onRequest" xlink:href="CallflowListener.html" xlink:show="new" xlink:title="CallflowListener.html" xlink:type="simple"><g id="elem_org.vorpal.blade.services.crud2.b2bua.CallflowListener"><rect codeLine="30" fill="#F1F1F1" height="62.7539" id="org.vorpal.blade.services.crud2.b2bua.CallflowListener" rx="2.5" ry="2.5" style="stroke:#181818;stroke-width:0.5;" width="442" x="290" y="7"/><ellipse cx="414.75" cy="26.1328" fill="#B4A7E5" rx="11" ry="11" style="stroke:#181818;stroke-width:1.0;"/><path d="M411.1777,22.3979 L411.1777,20.2397 L418.5571,20.2397 L418.5571,22.3979 L416.0918,22.3979 L416.0918,30.4746 L418.5571,30.4746 L418.5571,32.6328 L411.1777,32.6328 L411.1777,30.4746 L413.6431,30.4746 L413.6431,22.3979 Z " fill="#000000"/><text fill="#000000" font-family="sans-serif" font-size="14" font-style="italic" lengthAdjust="spacing" textLength="109" x="472.75" y="25.5352">CallflowListener</text><text fill="#000000" font-family="sans-serif" font-size="10" font-style="italic" lengthAdjust="spacing" textLength="184" x="435.25" y="38.1563">org.vorpal.blade.services.crud2.b2bua</text><line style="stroke:#181818;stroke-width:0.5;" x1="291" x2="731" y1="45.2656" y2="45.2656"/><ellipse cx="301" cy="59.0098" fill="#84BE84" rx="3" ry="3" style="stroke:#038048;stroke-width:1.0;"/><text fill="#000000" font-family="sans-serif" font-size="14" font-style="italic" lengthAdjust="spacing" textLength="416" x="310" y="62.8008">zzCreateInitialRequest(SipServletRequest): SipServletRequest</text></g></a><!--reverse link org.vorpal.blade.framework.callflow.Callflow to org.vorpal.blade.services.crud2.b2bua.InitialInvite--><g id="link_org.vorpal.blade.framework.callflow.Callflow_org.vorpal.blade.services.crud2.b2bua.InitialInvite"><path codeLine="34" d="M162.7034,84.9603 C173.7134,100.8003 177.86,106.74 193.62,129.41 " fill="none" id="org.vorpal.blade.framework.callflow.Callflow-backto-org.vorpal.blade.services.crud2.b2bua.InitialInvite" style="stroke:#181818;stroke-width:1.0;"/><polygon fill="none" points="152.43,70.18,157.7767,88.3848,167.6302,81.5358,152.43,70.18" style="stroke:#181818;stroke-width:1.0;"/></g><!--reverse link org.vorpal.blade.services.crud2.b2bua.CallflowListener to org.vorpal.blade.services.crud2.b2bua.InitialInvite--><g id="link_org.vorpal.blade.services.crud2.b2bua.CallflowListener_org.vorpal.blade.services.crud2.b2bua.InitialInvite"><path codeLine="35" d="M479.2966,84.9603 C468.2866,100.8003 464.14,106.74 448.38,129.41 " fill="none" id="org.vorpal.blade.services.crud2.b2bua.CallflowListener-backto-org.vorpal.blade.services.crud2.b2bua.InitialInvite" style="stroke:#181818;stroke-width:1.0;stroke-dasharray:7.0,7.0;"/><polygon fill="none" points="489.57,70.18,474.3698,81.5358,484.2233,88.3848,489.57,70.18" style="stroke:#181818;stroke-width:1.0;"/></g><text fill="#888888" font-family="sans-serif" font-size="10" lengthAdjust="spacing" textLength="176" x="274.5" y="512.9709">UMLDoclet 2.1.2, PlantUML 1.2024.3</text><!--SRC=[jLLDRzim3BtlLn051YJehAp1JaRM0Kjs2D1knOBkqlKWsqmYJ94yYKxRjDbl7-qu7uwT8Yqs7-A8VE8Z7oKQ0C0ZWP4pzAcCSOIfT9Ai0sCDlc4tJ5M2WBEK7c2iK2T-tpf3cbes5_POI-_XfEVL0iEp3-T3eqX9FJHpHVZJbFRtvzPDnDowL6eHQPcWyEZcAaOlOfSbNH5reqoUWFHm559KUE3cfh8MKvhfsrjuB5BCdqTFabIyX3ySZN4_q7bbpVLm48AsPh811b8prtVydQ6d44Og7J6zHYfDMs1aewDWUReNoXCQT25ytbrkKOdzQkdAMIxJXn1Pgr6QZVkqKbshVSXH2Twk5t_AlHyn0rV-vJvLt7Z-rzecVya-ES5s27EhaYrBkagiRmqfat421m2jcWurv0HfQ2ARcQH4vC4EovTdl8TlugZ8K27xbj7BsFOtl8okqe6ShBdVEL4LMctTlchA3tOEI1wtTaGuOWLJ0cgX5ek-GqbOrl1ScSr2BLSNNqQUd8ofDW7wKkknjdVFNVwnum5qPzql4PVevgjVnubrUBxpKwBKXvtEQej14XD5qomIodQA_QKdA1Q1Lf6JxY7O1EqmNmafyLlNcg-pvYjcoYVb0xmdT4RgZ-Goh0wPjIRB8s_4ilXLXWEEUHWtYBW-4VznakvJiR3xfePvkbFglpfHB-f-xoa8NlEfQ6OwJfZUan2lvemnRpEChSrVrvSN0nkp3j0LPwBx3gwqDCHMU3jVVPfQxRy0]--></g></svg>