<?xml version="1.0" encoding="us-ascii" standalone="no"?><svg xmlns="http://www.w3.org/2000/svg" xmlns:xlink="http://www.w3.org/1999/xlink" contentStyleType="text/css" height="834px" preserveAspectRatio="none" style="width:3015px;height:834px;background:#FFFFFF;" version="1.1" viewBox="0 0 3015 834" width="3015px" zoomAndPan="magnify"><defs/><g><!--cluster org.vorpal.blade.services.crud2.rules--><g id="cluster_org.vorpal.blade.services.crud2.rules"><path d="M8.5,212.19 L266.5,212.19 A3.75,3.75 0 0 1 269,214.69 L276,234.6783 L2703.5,234.6783 A2.5,2.5 0 0 1 2706,237.1783 L2706,806.68 A2.5,2.5 0 0 1 2703.5,809.18 L8.5,809.18 A2.5,2.5 0 0 1 6,806.68 L6,214.69 A2.5,2.5 0 0 1 8.5,212.19 " fill="none" style="stroke:#000000;stroke-width:1.5;"/><line style="stroke:#000000;stroke-width:1.5;" x1="6" x2="276" y1="234.6783" y2="234.6783"/><text fill="#000000" font-family="sans-serif" font-size="14" font-weight="bold" lengthAdjust="spacing" textLength="257" x="10" y="227.7252">org.vorpal.blade.services.crud2.rules</text></g><!--cluster java.io--><g id="cluster_java.io"><path d="M1155.5,6 L1202.5,6 A3.75,3.75 0 0 1 1205,8.5 L1212,28.4883 L1294.5,28.4883 A2.5,2.5 0 0 1 1297,30.9883 L1297,102.5 A2.5,2.5 0 0 1 1294.5,105 L1155.5,105 A2.5,2.5 0 0 1 1153,102.5 L1153,8.5 A2.5,2.5 0 0 1 1155.5,6 " fill="none" style="stroke:#000000;stroke-width:1.5;"/><line style="stroke:#000000;stroke-width:1.5;" x1="1153" x2="1212" y1="28.4883" y2="28.4883"/><text fill="#000000" font-family="sans-serif" font-size="14" font-weight="bold" lengthAdjust="spacing" textLength="46" x="1157" y="21.5352">java.io</text></g><!--cluster java.util--><g id="cluster_java.util"><path d="M2732.5,138 L2790.5,138 A3.75,3.75 0 0 1 2793,140.5 L2800,160.4883 L3005.5,160.4883 A2.5,2.5 0 0 1 3008,162.9883 L3008,448.84 A2.5,2.5 0 0 1 3005.5,451.34 L2732.5,451.34 A2.5,2.5 0 0 1 2730,448.84 L2730,140.5 A2.5,2.5 0 0 1 2732.5,138 " fill="none" style="stroke:#000000;stroke-width:1.5;"/><line style="stroke:#000000;stroke-width:1.5;" x1="2730" x2="2800" y1="160.4883" y2="160.4883"/><text fill="#000000" font-family="sans-serif" font-size="14" font-weight="bold" lengthAdjust="spacing" textLength="57" x="2734" y="153.5352">java.util</text></g><!--class Update--><a href="Update.html" target="_top" title="Update.html" xlink:actuate="onRequest" xlink:href="Update.html" xlink:show="new" xlink:title="Update.html" xlink:type="simple"><g id="elem_Update"><rect codeLine="5" fill="#F1F1F1" height="196.3945" id="Update" rx="2.5" ry="2.5" style="stroke:#181818;stroke-width:0.5;" width="401" x="21.5" y="555.56"/><ellipse cx="193.25" cy="571.56" fill="#ADD1B2" rx="11" ry="11" style="stroke:#181818;stroke-width:1.0;"/><path d="M195.7231,577.7031 Q195.1421,578.0019 194.5029,578.1513 Q193.8638,578.3007 193.1582,578.3007 Q190.6514,578.3007 189.3315,576.6489 Q188.0117,574.997 188.0117,571.8759 Q188.0117,568.7465 189.3315,567.0947 Q190.6514,565.4428 193.1582,565.4428 Q193.8638,565.4428 194.5112,565.5922 Q195.1587,565.7416 195.7231,566.0405 L195.7231,568.7631 Q195.0923,568.1821 194.4988,567.9123 Q193.9053,567.6425 193.2744,567.6425 Q191.9297,567.6425 191.2449,568.7092 Q190.5601,569.7758 190.5601,571.8759 Q190.5601,573.9677 191.2449,575.0344 Q191.9297,576.101 193.2744,576.101 Q193.9053,576.101 194.4988,575.8312 Q195.0923,575.5615 195.7231,574.9804 Z " fill="#000000"/><text fill="#000000" font-family="sans-serif" font-size="14" lengthAdjust="spacing" textLength="49" x="213.75" y="576.851">Update</text><line style="stroke:#181818;stroke-width:0.5;" x1="22.5" x2="421.5" y1="587.56" y2="587.56"/><rect fill="none" height="6" style="stroke:#C82930;stroke-width:1.0;" width="6" x="29.5" y="598.3041"/><text fill="#000000" font-family="sans-serif" font-size="14" lengthAdjust="spacing" textLength="114" x="41.5" y="605.0952">_pattern: Pattern</text><rect fill="none" height="6" style="stroke:#C82930;stroke-width:1.0;" width="6" x="29.5" y="614.7924"/><text fill="#000000" font-family="sans-serif" font-size="14" lengthAdjust="spacing" textLength="73" x="41.5" y="621.5834">_p: Pattern</text><ellipse cx="32.5" cy="634.2807" fill="none" rx="3" ry="3" style="stroke:#038048;stroke-width:1.0;"/><text fill="#000000" font-family="sans-serif" font-size="14" lengthAdjust="spacing" textLength="62" x="41.5" y="638.0717">id: String</text><ellipse cx="32.5" cy="650.769" fill="none" rx="3" ry="3" style="stroke:#038048;stroke-width:1.0;"/><text fill="#000000" font-family="sans-serif" font-size="14" lengthAdjust="spacing" textLength="108" x="41.5" y="654.56">attribute: String</text><ellipse cx="32.5" cy="667.2573" fill="none" rx="3" ry="3" style="stroke:#038048;stroke-width:1.0;"/><text fill="#000000" font-family="sans-serif" font-size="14" lengthAdjust="spacing" textLength="134" x="41.5" y="671.0483">replacement: String</text><ellipse cx="32.5" cy="683.7455" fill="none" rx="3" ry="3" style="stroke:#038048;stroke-width:1.0;"/><text fill="#000000" font-family="sans-serif" font-size="14" lengthAdjust="spacing" textLength="99" x="41.5" y="687.5366">pattern: String</text><line style="stroke:#181818;stroke-width:0.5;" x1="22.5" x2="421.5" y1="694.4897" y2="694.4897"/><ellipse cx="32.5" cy="708.2338" fill="#84BE84" rx="3" ry="3" style="stroke:#038048;stroke-width:1.0;"/><text fill="#000000" font-family="sans-serif" font-size="14" lengthAdjust="spacing" textLength="59" x="41.5" y="712.0248">Update()</text><ellipse cx="32.5" cy="724.7221" fill="#84BE84" rx="3" ry="3" style="stroke:#038048;stroke-width:1.0;"/><text fill="#000000" font-family="sans-serif" font-size="14" lengthAdjust="spacing" textLength="198" x="41.5" y="728.5131">Update(String, String, String)</text><ellipse cx="32.5" cy="741.2104" fill="#84BE84" rx="3" ry="3" style="stroke:#038048;stroke-width:1.0;"/><text fill="#000000" font-family="sans-serif" font-size="14" lengthAdjust="spacing" textLength="375" x="41.5" y="745.0014">process(Map&lt;String, String&gt;, SipServletMessage): void</text></g></a><!--class Delete--><a href="Delete.html" target="_top" title="Delete.html" xlink:actuate="onRequest" xlink:href="Delete.html" xlink:show="new" xlink:title="Delete.html" xlink:type="simple"><g id="elem_Delete"><rect codeLine="17" fill="#F1F1F1" height="163.418" id="Delete" rx="2.5" ry="2.5" style="stroke:#181818;stroke-width:0.5;" width="401" x="457.5" y="572.05"/><ellipse cx="632.25" cy="588.05" fill="#ADD1B2" rx="11" ry="11" style="stroke:#181818;stroke-width:1.0;"/><path d="M634.7231,594.1931 Q634.1421,594.4919 633.5029,594.6413 Q632.8638,594.7907 632.1582,594.7907 Q629.6514,594.7907 628.3315,593.1389 Q627.0117,591.487 627.0117,588.3659 Q627.0117,585.2365 628.3315,583.5847 Q629.6514,581.9328 632.1582,581.9328 Q632.8638,581.9328 633.5112,582.0822 Q634.1587,582.2316 634.7231,582.5305 L634.7231,585.2531 Q634.0923,584.6721 633.4988,584.4023 Q632.9053,584.1325 632.2744,584.1325 Q630.9297,584.1325 630.2449,585.1992 Q629.5601,586.2658 629.5601,588.3659 Q629.5601,590.4577 630.2449,591.5244 Q630.9297,592.591 632.2744,592.591 Q632.9053,592.591 633.4988,592.3212 Q634.0923,592.0515 634.7231,591.4704 Z " fill="#000000"/><text fill="#000000" font-family="sans-serif" font-size="14" lengthAdjust="spacing" textLength="43" x="652.75" y="593.341">Delete</text><line style="stroke:#181818;stroke-width:0.5;" x1="458.5" x2="857.5" y1="604.05" y2="604.05"/><ellipse cx="468.5" cy="617.7941" fill="none" rx="3" ry="3" style="stroke:#038048;stroke-width:1.0;"/><text fill="#000000" font-family="sans-serif" font-size="14" lengthAdjust="spacing" textLength="62" x="477.5" y="621.5852">id: String</text><rect fill="none" height="6" style="stroke:#C82930;stroke-width:1.0;" width="6" x="465.5" y="631.2824"/><text fill="#000000" font-family="sans-serif" font-size="14" lengthAdjust="spacing" textLength="107" x="477.5" y="638.0734">pattern: Pattern</text><ellipse cx="468.5" cy="650.7707" fill="none" rx="3" ry="3" style="stroke:#038048;stroke-width:1.0;"/><text fill="#000000" font-family="sans-serif" font-size="14" lengthAdjust="spacing" textLength="108" x="477.5" y="654.5617">attribute: String</text><ellipse cx="468.5" cy="667.259" fill="none" rx="3" ry="3" style="stroke:#038048;stroke-width:1.0;"/><text fill="#000000" font-family="sans-serif" font-size="14" lengthAdjust="spacing" textLength="125" x="477.5" y="671.05">expression: String</text><line style="stroke:#181818;stroke-width:0.5;" x1="458.5" x2="857.5" y1="678.0031" y2="678.0031"/><ellipse cx="468.5" cy="691.7473" fill="#84BE84" rx="3" ry="3" style="stroke:#038048;stroke-width:1.0;"/><text fill="#000000" font-family="sans-serif" font-size="14" lengthAdjust="spacing" textLength="53" x="477.5" y="695.5383">Delete()</text><ellipse cx="468.5" cy="708.2355" fill="#84BE84" rx="3" ry="3" style="stroke:#038048;stroke-width:1.0;"/><text fill="#000000" font-family="sans-serif" font-size="14" lengthAdjust="spacing" textLength="143" x="477.5" y="712.0266">Delete(String, String)</text><ellipse cx="468.5" cy="724.7238" fill="#84BE84" rx="3" ry="3" style="stroke:#038048;stroke-width:1.0;"/><text fill="#000000" font-family="sans-serif" font-size="14" lengthAdjust="spacing" textLength="375" x="477.5" y="728.5148">process(Map&lt;String, String&gt;, SipServletMessage): void</text></g></a><!--class Read--><a href="Read.html" target="_top" title="Read.html" xlink:actuate="onRequest" xlink:href="Read.html" xlink:show="new" xlink:title="Read.html" xlink:type="simple"><g id="elem_Read"><rect codeLine="27" fill="#F1F1F1" height="278.8359" id="Read" rx="2.5" ry="2.5" style="stroke:#181818;stroke-width:0.5;" width="401" x="1471.5" y="514.34"/><ellipse cx="1650.75" cy="530.34" fill="#ADD1B2" rx="11" ry="11" style="stroke:#181818;stroke-width:1.0;"/><path d="M1653.2231,536.4831 Q1652.6421,536.7819 1652.0029,536.9313 Q1651.3638,537.0807 1650.6582,537.0807 Q1648.1514,537.0807 1646.8315,535.4289 Q1645.5117,533.777 1645.5117,530.6559 Q1645.5117,527.5265 1646.8315,525.8747 Q1648.1514,524.2228 1650.6582,524.2228 Q1651.3638,524.2228 1652.0112,524.3722 Q1652.6587,524.5216 1653.2231,524.8205 L1653.2231,527.5431 Q1652.5923,526.9621 1651.9988,526.6923 Q1651.4053,526.4225 1650.7744,526.4225 Q1649.4297,526.4225 1648.7449,527.4892 Q1648.0601,528.5558 1648.0601,530.6559 Q1648.0601,532.7477 1648.7449,533.8144 Q1649.4297,534.881 1650.7744,534.881 Q1651.4053,534.881 1651.9988,534.6112 Q1652.5923,534.3415 1653.2231,533.7604 Z " fill="#000000"/><text fill="#000000" font-family="sans-serif" font-size="14" lengthAdjust="spacing" textLength="34" x="1671.25" y="535.631">Read</text><line style="stroke:#181818;stroke-width:0.5;" x1="1472.5" x2="1871.5" y1="546.34" y2="546.34"/><ellipse cx="1482.5" cy="560.0841" fill="none" rx="3" ry="3" style="stroke:#038048;stroke-width:1.0;"/><text fill="#000000" font-family="sans-serif" font-size="14" lengthAdjust="spacing" textLength="62" x="1491.5" y="563.8752">id: String</text><rect fill="none" height="6" style="stroke:#C82930;stroke-width:1.0;" width="6" x="1479.5" y="573.5724"/><text fill="#000000" font-family="sans-serif" font-size="14" lengthAdjust="spacing" textLength="107" x="1491.5" y="580.3634">pattern: Pattern</text><ellipse cx="1482.5" cy="593.0607" fill="none" rx="3" ry="3" style="stroke:#038048;stroke-width:1.0;"/><text fill="#000000" font-family="sans-serif" font-size="14" lengthAdjust="spacing" textLength="108" x="1491.5" y="596.8517">attribute: String</text><rect fill="none" height="6" style="stroke:#C82930;stroke-width:1.0;" width="6" x="1479.5" y="606.549"/><text fill="#000000" font-family="sans-serif" font-size="14" lengthAdjust="spacing" textLength="125" x="1491.5" y="613.34">expression: String</text><line style="stroke:#181818;stroke-width:0.5;" x1="1472.5" x2="1871.5" y1="620.2931" y2="620.2931"/><ellipse cx="1482.5" cy="634.0373" fill="#84BE84" rx="3" ry="3" style="stroke:#038048;stroke-width:1.0;"/><text fill="#000000" font-family="sans-serif" font-size="14" lengthAdjust="spacing" textLength="44" x="1491.5" y="637.8283">Read()</text><ellipse cx="1482.5" cy="650.5255" fill="#84BE84" rx="3" ry="3" style="stroke:#038048;stroke-width:1.0;"/><text fill="#000000" font-family="sans-serif" font-size="14" lengthAdjust="spacing" textLength="134" x="1491.5" y="654.3166">Read(String, String)</text><ellipse cx="1482.5" cy="667.0138" fill="#84BE84" rx="3" ry="3" style="stroke:#038048;stroke-width:1.0;"/><text fill="#000000" font-family="sans-serif" font-size="14" lengthAdjust="spacing" textLength="94" x="1491.5" y="670.8048">getId(): String</text><ellipse cx="1482.5" cy="683.5021" fill="#84BE84" rx="3" ry="3" style="stroke:#038048;stroke-width:1.0;"/><text fill="#000000" font-family="sans-serif" font-size="14" lengthAdjust="spacing" textLength="126" x="1491.5" y="687.2931">setId(String): Read</text><ellipse cx="1482.5" cy="699.9904" fill="#84BE84" rx="3" ry="3" style="stroke:#038048;stroke-width:1.0;"/><text fill="#000000" font-family="sans-serif" font-size="14" lengthAdjust="spacing" textLength="142" x="1491.5" y="703.7814">getAttribute(): String</text><ellipse cx="1482.5" cy="716.4787" fill="#84BE84" rx="3" ry="3" style="stroke:#038048;stroke-width:1.0;"/><text fill="#000000" font-family="sans-serif" font-size="14" lengthAdjust="spacing" textLength="174" x="1491.5" y="720.2697">setAttribute(String): Read</text><ellipse cx="1482.5" cy="732.967" fill="#84BE84" rx="3" ry="3" style="stroke:#038048;stroke-width:1.0;"/><text fill="#000000" font-family="sans-serif" font-size="14" lengthAdjust="spacing" textLength="157" x="1491.5" y="736.758">getExpression(): String</text><ellipse cx="1482.5" cy="749.4552" fill="#84BE84" rx="3" ry="3" style="stroke:#038048;stroke-width:1.0;"/><text fill="#000000" font-family="sans-serif" font-size="14" lengthAdjust="spacing" textLength="189" x="1491.5" y="753.2463">setExpression(String): Read</text><ellipse cx="1482.5" cy="765.9435" fill="#84BE84" rx="3" ry="3" style="stroke:#038048;stroke-width:1.0;"/><text fill="#000000" font-family="sans-serif" font-size="14" lengthAdjust="spacing" textLength="375" x="1491.5" y="769.7345">process(Map&lt;String, String&gt;, SipServletMessage): void</text><ellipse cx="1482.5" cy="782.4318" fill="#84BE84" rx="3" ry="3" style="stroke:#038048;stroke-width:1.0;"/><text fill="#000000" font-family="sans-serif" font-size="14" lengthAdjust="spacing" text-decoration="underline" textLength="132" x="1491.5" y="786.2228">main(String[]): void</text></g></a><!--class Rule--><a href="Rule.html" target="_top" title="Rule.html" xlink:actuate="onRequest" xlink:href="Rule.html" xlink:show="new" xlink:title="Rule.html" xlink:type="simple"><g id="elem_Rule"><rect codeLine="44" fill="#F1F1F1" height="113.9531" id="Rule" rx="2.5" ry="2.5" style="stroke:#181818;stroke-width:0.5;" width="401" x="1024.5" y="247.19"/><ellipse cx="1205.75" cy="263.19" fill="#A9DCDF" rx="11" ry="11" style="stroke:#181818;stroke-width:1.0;"/><path d="M1205.6133,258.5381 L1204.4595,263.6099 L1206.7754,263.6099 Z M1204.1191,256.2969 L1207.1157,256.2969 L1210.4609,268.69 L1208.0122,268.69 L1207.2485,265.627 L1203.9697,265.627 L1203.2227,268.69 L1200.7739,268.69 Z " fill="#000000"/><text fill="#000000" font-family="sans-serif" font-size="14" font-style="italic" lengthAdjust="spacing" textLength="30" x="1226.25" y="268.481">Rule</text><line style="stroke:#181818;stroke-width:0.5;" x1="1025.5" x2="1424.5" y1="279.19" y2="279.19"/><ellipse cx="1035.5" cy="292.9341" fill="none" rx="3" ry="3" style="stroke:#038048;stroke-width:1.0;"/><text fill="#000000" font-family="sans-serif" font-size="14" lengthAdjust="spacing" textLength="62" x="1044.5" y="296.7252">id: String</text><ellipse cx="1035.5" cy="309.4224" fill="none" rx="3" ry="3" style="stroke:#038048;stroke-width:1.0;"/><text fill="#000000" font-family="sans-serif" font-size="14" lengthAdjust="spacing" textLength="126" x="1044.5" y="313.2134">description: String</text><line style="stroke:#181818;stroke-width:0.5;" x1="1025.5" x2="1424.5" y1="320.1666" y2="320.1666"/><ellipse cx="1035.5" cy="333.9107" fill="#84BE84" rx="3" ry="3" style="stroke:#038048;stroke-width:1.0;"/><text fill="#000000" font-family="sans-serif" font-size="14" font-style="italic" lengthAdjust="spacing" textLength="375" x="1044.5" y="337.7017">process(Map&lt;String, String&gt;, SipServletMessage): void</text><ellipse cx="1035.5" cy="350.399" fill="#84BE84" rx="3" ry="3" style="stroke:#038048;stroke-width:1.0;"/><text fill="#000000" font-family="sans-serif" font-size="14" lengthAdjust="spacing" text-decoration="underline" textLength="361" x="1044.5" y="354.19">resolveVariables(Map&lt;String, String&gt;, String): String</text></g></a><!--class Rule.MessageType--><a href="Rule.MessageType.html" target="_top" title="Rule.MessageType.html" xlink:actuate="onRequest" xlink:href="Rule.MessageType.html" xlink:show="new" xlink:title="Rule.MessageType.html" xlink:type="simple"><g id="elem_Rule.MessageType"><rect codeLine="51" fill="#F1F1F1" height="80.9766" id="Rule.MessageType" rx="2.5" ry="2.5" style="stroke:#181818;stroke-width:0.5;" width="158" x="893" y="613.27"/><ellipse cx="908" cy="629.27" fill="#EB937F" rx="11" ry="11" style="stroke:#181818;stroke-width:1.0;"/><path d="M911.6143,635.77 L903.8945,635.77 L903.8945,623.3769 L911.6143,623.3769 L911.6143,625.5351 L906.3433,625.5351 L906.3433,628.208 L911.1162,628.208 L911.1162,630.3662 L906.3433,630.3662 L906.3433,633.6118 L911.6143,633.6118 Z " fill="#000000"/><text fill="#000000" font-family="sans-serif" font-size="14" lengthAdjust="spacing" textLength="126" x="922" y="634.561">Rule.MessageType</text><line style="stroke:#181818;stroke-width:0.5;" x1="894" x2="1050" y1="645.27" y2="645.27"/><ellipse cx="904" cy="659.0141" fill="none" rx="3" ry="3" style="stroke:#038048;stroke-width:1.0;"/><text fill="#000000" font-family="sans-serif" font-size="14" lengthAdjust="spacing" text-decoration="underline" textLength="52" x="913" y="662.8052">request</text><ellipse cx="904" cy="675.5024" fill="none" rx="3" ry="3" style="stroke:#038048;stroke-width:1.0;"/><text fill="#000000" font-family="sans-serif" font-size="14" lengthAdjust="spacing" text-decoration="underline" textLength="63" x="913" y="679.2934">response</text><line style="stroke:#181818;stroke-width:0.5;" x1="894" x2="1050" y1="686.2466" y2="686.2466"/></g></a><!--class Rule.MethodType--><a href="Rule.MethodType.html" target="_top" title="Rule.MethodType.html" xlink:actuate="onRequest" xlink:href="Rule.MethodType.html" xlink:show="new" xlink:title="Rule.MethodType.html" xlink:type="simple"><g id="elem_Rule.MethodType"><rect codeLine="56" fill="#F1F1F1" height="278.8359" id="Rule.MethodType" rx="2.5" ry="2.5" style="stroke:#181818;stroke-width:0.5;" width="151" x="1085.5" y="514.34"/><ellipse cx="1100.5" cy="530.34" fill="#EB937F" rx="11" ry="11" style="stroke:#181818;stroke-width:1.0;"/><path d="M1104.1143,536.84 L1096.3945,536.84 L1096.3945,524.4469 L1104.1143,524.4469 L1104.1143,526.6051 L1098.8433,526.6051 L1098.8433,529.278 L1103.6162,529.278 L1103.6162,531.4362 L1098.8433,531.4362 L1098.8433,534.6818 L1104.1143,534.6818 Z " fill="#000000"/><text fill="#000000" font-family="sans-serif" font-size="14" lengthAdjust="spacing" textLength="119" x="1114.5" y="535.631">Rule.MethodType</text><line style="stroke:#181818;stroke-width:0.5;" x1="1086.5" x2="1235.5" y1="546.34" y2="546.34"/><ellipse cx="1096.5" cy="560.0841" fill="none" rx="3" ry="3" style="stroke:#038048;stroke-width:1.0;"/><text fill="#000000" font-family="sans-serif" font-size="14" lengthAdjust="spacing" text-decoration="underline" textLength="53" x="1105.5" y="563.8752">register</text><ellipse cx="1096.5" cy="576.5724" fill="none" rx="3" ry="3" style="stroke:#038048;stroke-width:1.0;"/><text fill="#000000" font-family="sans-serif" font-size="14" lengthAdjust="spacing" text-decoration="underline" textLength="37" x="1105.5" y="580.3634">invite</text><ellipse cx="1096.5" cy="593.0607" fill="none" rx="3" ry="3" style="stroke:#038048;stroke-width:1.0;"/><text fill="#000000" font-family="sans-serif" font-size="14" lengthAdjust="spacing" text-decoration="underline" textLength="23" x="1105.5" y="596.8517">ack</text><ellipse cx="1096.5" cy="609.549" fill="none" rx="3" ry="3" style="stroke:#038048;stroke-width:1.0;"/><text fill="#000000" font-family="sans-serif" font-size="14" lengthAdjust="spacing" text-decoration="underline" textLength="24" x="1105.5" y="613.34">bye</text><ellipse cx="1096.5" cy="626.0373" fill="none" rx="3" ry="3" style="stroke:#038048;stroke-width:1.0;"/><text fill="#000000" font-family="sans-serif" font-size="14" lengthAdjust="spacing" text-decoration="underline" textLength="43" x="1105.5" y="629.8283">cancel</text><ellipse cx="1096.5" cy="642.5255" fill="none" rx="3" ry="3" style="stroke:#038048;stroke-width:1.0;"/><text fill="#000000" font-family="sans-serif" font-size="14" lengthAdjust="spacing" text-decoration="underline" textLength="48" x="1105.5" y="646.3166">update</text><ellipse cx="1096.5" cy="659.0138" fill="none" rx="3" ry="3" style="stroke:#038048;stroke-width:1.0;"/><text fill="#000000" font-family="sans-serif" font-size="14" lengthAdjust="spacing" text-decoration="underline" textLength="33" x="1105.5" y="662.8048">refer</text><ellipse cx="1096.5" cy="675.5021" fill="none" rx="3" ry="3" style="stroke:#038048;stroke-width:1.0;"/><text fill="#000000" font-family="sans-serif" font-size="14" lengthAdjust="spacing" text-decoration="underline" textLength="38" x="1105.5" y="679.2931">prack</text><ellipse cx="1096.5" cy="691.9904" fill="none" rx="3" ry="3" style="stroke:#038048;stroke-width:1.0;"/><text fill="#000000" font-family="sans-serif" font-size="14" lengthAdjust="spacing" text-decoration="underline" textLength="66" x="1105.5" y="695.7814">subscribe</text><ellipse cx="1096.5" cy="708.4787" fill="none" rx="3" ry="3" style="stroke:#038048;stroke-width:1.0;"/><text fill="#000000" font-family="sans-serif" font-size="14" lengthAdjust="spacing" text-decoration="underline" textLength="39" x="1105.5" y="712.2697">notify</text><ellipse cx="1096.5" cy="724.967" fill="none" rx="3" ry="3" style="stroke:#038048;stroke-width:1.0;"/><text fill="#000000" font-family="sans-serif" font-size="14" lengthAdjust="spacing" text-decoration="underline" textLength="51" x="1105.5" y="728.758">publish</text><ellipse cx="1096.5" cy="741.4552" fill="none" rx="3" ry="3" style="stroke:#038048;stroke-width:1.0;"/><text fill="#000000" font-family="sans-serif" font-size="14" lengthAdjust="spacing" text-decoration="underline" textLength="60" x="1105.5" y="745.2463">message</text><ellipse cx="1096.5" cy="757.9435" fill="none" rx="3" ry="3" style="stroke:#038048;stroke-width:1.0;"/><text fill="#000000" font-family="sans-serif" font-size="14" lengthAdjust="spacing" text-decoration="underline" textLength="27" x="1105.5" y="761.7345">info</text><ellipse cx="1096.5" cy="774.4318" fill="none" rx="3" ry="3" style="stroke:#038048;stroke-width:1.0;"/><text fill="#000000" font-family="sans-serif" font-size="14" lengthAdjust="spacing" text-decoration="underline" textLength="52" x="1105.5" y="778.2228">options</text><line style="stroke:#181818;stroke-width:0.5;" x1="1086.5" x2="1235.5" y1="785.1759" y2="785.1759"/></g></a><!--class Rule.ResponseType--><a href="Rule.ResponseType.html" target="_top" title="Rule.ResponseType.html" xlink:actuate="onRequest" xlink:href="Rule.ResponseType.html" xlink:show="new" xlink:title="Rule.ResponseType.html" xlink:type="simple"><g id="elem_Rule.ResponseType"><rect codeLine="73" fill="#F1F1F1" height="113.9531" id="Rule.ResponseType" rx="2.5" ry="2.5" style="stroke:#181818;stroke-width:0.5;" width="165" x="1271.5" y="596.79"/><ellipse cx="1286.5" cy="612.79" fill="#EB937F" rx="11" ry="11" style="stroke:#181818;stroke-width:1.0;"/><path d="M1290.1143,619.29 L1282.3945,619.29 L1282.3945,606.8969 L1290.1143,606.8969 L1290.1143,609.0551 L1284.8433,609.0551 L1284.8433,611.728 L1289.6162,611.728 L1289.6162,613.8862 L1284.8433,613.8862 L1284.8433,617.1318 L1290.1143,617.1318 Z " fill="#000000"/><text fill="#000000" font-family="sans-serif" font-size="14" lengthAdjust="spacing" textLength="133" x="1300.5" y="618.081">Rule.ResponseType</text><line style="stroke:#181818;stroke-width:0.5;" x1="1272.5" x2="1435.5" y1="628.79" y2="628.79"/><ellipse cx="1282.5" cy="642.5341" fill="none" rx="3" ry="3" style="stroke:#038048;stroke-width:1.0;"/><text fill="#000000" font-family="sans-serif" font-size="14" lengthAdjust="spacing" text-decoration="underline" textLength="76" x="1291.5" y="646.3252">provisional</text><ellipse cx="1282.5" cy="659.0224" fill="none" rx="3" ry="3" style="stroke:#038048;stroke-width:1.0;"/><text fill="#000000" font-family="sans-serif" font-size="14" lengthAdjust="spacing" text-decoration="underline" textLength="70" x="1291.5" y="662.8134">successful</text><ellipse cx="1282.5" cy="675.5107" fill="none" rx="3" ry="3" style="stroke:#038048;stroke-width:1.0;"/><text fill="#000000" font-family="sans-serif" font-size="14" lengthAdjust="spacing" text-decoration="underline" textLength="75" x="1291.5" y="679.3017">redirection</text><ellipse cx="1282.5" cy="691.999" fill="none" rx="3" ry="3" style="stroke:#038048;stroke-width:1.0;"/><text fill="#000000" font-family="sans-serif" font-size="14" lengthAdjust="spacing" text-decoration="underline" textLength="44" x="1291.5" y="695.79">failure</text><line style="stroke:#181818;stroke-width:0.5;" x1="1272.5" x2="1435.5" y1="702.7431" y2="702.7431"/></g></a><!--class Rule.AttributeValuePairs--><a href="Rule.AttributeValuePairs.html" target="_top" title="Rule.AttributeValuePairs.html" xlink:actuate="onRequest" xlink:href="Rule.AttributeValuePairs.html" xlink:show="new" xlink:title="Rule.AttributeValuePairs.html" xlink:type="simple"><g id="elem_Rule.AttributeValuePairs"><rect codeLine="80" fill="#F1F1F1" height="48" id="Rule.AttributeValuePairs" rx="2.5" ry="2.5" style="stroke:#181818;stroke-width:0.5;" width="198" x="1907" y="629.76"/><ellipse cx="1922" cy="645.76" fill="#ADD1B2" rx="11" ry="11" style="stroke:#181818;stroke-width:1.0;"/><path d="M1924.4731,651.9031 Q1923.8921,652.2019 1923.2529,652.3513 Q1922.6138,652.5007 1921.9082,652.5007 Q1919.4014,652.5007 1918.0815,650.8489 Q1916.7617,649.197 1916.7617,646.0759 Q1916.7617,642.9465 1918.0815,641.2947 Q1919.4014,639.6428 1921.9082,639.6428 Q1922.6138,639.6428 1923.2612,639.7922 Q1923.9087,639.9416 1924.4731,640.2405 L1924.4731,642.9631 Q1923.8423,642.3821 1923.2488,642.1123 Q1922.6553,641.8425 1922.0244,641.8425 Q1920.6797,641.8425 1919.9949,642.9092 Q1919.3101,643.9758 1919.3101,646.0759 Q1919.3101,648.1677 1919.9949,649.2344 Q1920.6797,650.301 1922.0244,650.301 Q1922.6553,650.301 1923.2488,650.0312 Q1923.8423,649.7615 1924.4731,649.1804 Z " fill="#000000"/><text fill="#000000" font-family="sans-serif" font-size="14" lengthAdjust="spacing" textLength="166" x="1936" y="651.051">Rule.AttributeValuePairs</text><line style="stroke:#181818;stroke-width:0.5;" x1="1908" x2="2104" y1="661.76" y2="661.76"/><line style="stroke:#181818;stroke-width:0.5;" x1="1908" x2="2104" y1="669.76" y2="669.76"/></g></a><!--class Create--><a href="Create.html" target="_top" title="Create.html" xlink:actuate="onRequest" xlink:href="Create.html" xlink:show="new" xlink:title="Create.html" xlink:type="simple"><g id="elem_Create"><rect codeLine="82" fill="#F1F1F1" height="163.418" id="Create" rx="2.5" ry="2.5" style="stroke:#181818;stroke-width:0.5;" width="550" x="2140" y="572.05"/><ellipse cx="2388.25" cy="588.05" fill="#ADD1B2" rx="11" ry="11" style="stroke:#181818;stroke-width:1.0;"/><path d="M2390.7231,594.1931 Q2390.1421,594.4919 2389.5029,594.6413 Q2388.8638,594.7907 2388.1582,594.7907 Q2385.6514,594.7907 2384.3315,593.1389 Q2383.0117,591.487 2383.0117,588.3659 Q2383.0117,585.2365 2384.3315,583.5847 Q2385.6514,581.9328 2388.1582,581.9328 Q2388.8638,581.9328 2389.5112,582.0822 Q2390.1587,582.2316 2390.7231,582.5305 L2390.7231,585.2531 Q2390.0923,584.6721 2389.4988,584.4023 Q2388.9053,584.1325 2388.2744,584.1325 Q2386.9297,584.1325 2386.2449,585.1992 Q2385.5601,586.2658 2385.5601,588.3659 Q2385.5601,590.4577 2386.2449,591.5244 Q2386.9297,592.591 2388.2744,592.591 Q2388.9053,592.591 2389.4988,592.3212 Q2390.0923,592.0515 2390.7231,591.4704 Z " fill="#000000"/><text fill="#000000" font-family="sans-serif" font-size="14" lengthAdjust="spacing" textLength="45" x="2408.75" y="593.341">Create</text><line style="stroke:#181818;stroke-width:0.5;" x1="2141" x2="2689" y1="604.05" y2="604.05"/><ellipse cx="2151" cy="617.7941" fill="none" rx="3" ry="3" style="stroke:#038048;stroke-width:1.0;"/><text fill="#000000" font-family="sans-serif" font-size="14" lengthAdjust="spacing" textLength="108" x="2160" y="621.5852">attribute: String</text><ellipse cx="2151" cy="634.2824" fill="none" rx="3" ry="3" style="stroke:#038048;stroke-width:1.0;"/><text fill="#000000" font-family="sans-serif" font-size="14" lengthAdjust="spacing" textLength="85" x="2160" y="638.0734">value: String</text><line style="stroke:#181818;stroke-width:0.5;" x1="2141" x2="2689" y1="645.0266" y2="645.0266"/><ellipse cx="2151" cy="658.7707" fill="#84BE84" rx="3" ry="3" style="stroke:#038048;stroke-width:1.0;"/><text fill="#000000" font-family="sans-serif" font-size="14" lengthAdjust="spacing" textLength="55" x="2160" y="662.5617">Create()</text><ellipse cx="2151" cy="675.259" fill="#84BE84" rx="3" ry="3" style="stroke:#038048;stroke-width:1.0;"/><text fill="#000000" font-family="sans-serif" font-size="14" lengthAdjust="spacing" textLength="145" x="2160" y="679.05">Create(String, String)</text><ellipse cx="2151" cy="691.7473" fill="#84BE84" rx="3" ry="3" style="stroke:#038048;stroke-width:1.0;"/><text fill="#000000" font-family="sans-serif" font-size="14" lengthAdjust="spacing" textLength="524" x="2160" y="695.5383">process(Map&lt;String, String&gt;, SipServletMessage, Map&lt;String, String&gt;): void</text><ellipse cx="2151" cy="708.2355" fill="#84BE84" rx="3" ry="3" style="stroke:#038048;stroke-width:1.0;"/><text fill="#000000" font-family="sans-serif" font-size="14" lengthAdjust="spacing" text-decoration="underline" textLength="132" x="2160" y="712.0266">main(String[]): void</text><ellipse cx="2151" cy="724.7238" fill="#84BE84" rx="3" ry="3" style="stroke:#038048;stroke-width:1.0;"/><text fill="#000000" font-family="sans-serif" font-size="14" lengthAdjust="spacing" textLength="375" x="2160" y="728.5148">process(Map&lt;String, String&gt;, SipServletMessage): void</text></g></a><!--class Serializable--><a href="https://docs.oracle.com/en/java/javase/11/docs/api/java.base/java/io/Serializable.html?is-external=true" target="_top" title="https://docs.oracle.com/en/java/javase/11/docs/api/java.base/java/io/Serializable.html?is-external=true" xlink:actuate="onRequest" xlink:href="https://docs.oracle.com/en/java/javase/11/docs/api/java.base/java/io/Serializable.html?is-external=true" xlink:show="new" xlink:title="https://docs.oracle.com/en/java/javase/11/docs/api/java.base/java/io/Serializable.html?is-external=true" xlink:type="simple"><g id="elem_Serializable"><rect codeLine="95" fill="#F1F1F1" height="48" id="Serializable" rx="2.5" ry="2.5" style="stroke:#181818;stroke-width:0.5;" width="111" x="1169.5" y="41"/><ellipse cx="1184.5" cy="57" fill="#B4A7E5" rx="11" ry="11" style="stroke:#181818;stroke-width:1.0;"/><path d="M1180.9277,53.2651 L1180.9277,51.1069 L1188.3071,51.1069 L1188.3071,53.2651 L1185.8418,53.2651 L1185.8418,61.3418 L1188.3071,61.3418 L1188.3071,63.5 L1180.9277,63.5 L1180.9277,61.3418 L1183.3931,61.3418 L1183.3931,53.2651 Z " fill="#000000"/><text fill="#000000" font-family="sans-serif" font-size="14" font-style="italic" lengthAdjust="spacing" textLength="79" x="1198.5" y="62.291">Serializable</text><line style="stroke:#181818;stroke-width:0.5;" x1="1170.5" x2="1279.5" y1="73" y2="73"/><line style="stroke:#181818;stroke-width:0.5;" x1="1170.5" x2="1279.5" y1="81" y2="81"/></g></a><!--class HashMap--><a href="https://docs.oracle.com/en/java/javase/11/docs/api/java.base/java/util/HashMap.html?is-external=true" target="_top" title="https://docs.oracle.com/en/java/javase/11/docs/api/java.base/java/util/HashMap.html?is-external=true" xlink:actuate="onRequest" xlink:href="https://docs.oracle.com/en/java/javase/11/docs/api/java.base/java/util/HashMap.html?is-external=true" xlink:show="new" xlink:title="https://docs.oracle.com/en/java/javase/11/docs/api/java.base/java/util/HashMap.html?is-external=true" xlink:type="simple"><g id="elem_HashMap"><rect codeLine="99" fill="#F1F1F1" height="262.3477" id="HashMap" rx="2.5" ry="2.5" style="stroke:#181818;stroke-width:0.5;" width="246" x="2746" y="173"/><ellipse cx="2819.25" cy="189" fill="#ADD1B2" rx="11" ry="11" style="stroke:#181818;stroke-width:1.0;"/><path d="M2821.7231,195.1431 Q2821.1421,195.4419 2820.5029,195.5913 Q2819.8638,195.7407 2819.1582,195.7407 Q2816.6514,195.7407 2815.3315,194.0889 Q2814.0117,192.437 2814.0117,189.3159 Q2814.0117,186.1865 2815.3315,184.5347 Q2816.6514,182.8828 2819.1582,182.8828 Q2819.8638,182.8828 2820.5112,183.0322 Q2821.1587,183.1816 2821.7231,183.4805 L2821.7231,186.2031 Q2821.0923,185.6221 2820.4988,185.3523 Q2819.9053,185.0825 2819.2744,185.0825 Q2817.9297,185.0825 2817.2449,186.1492 Q2816.5601,187.2158 2816.5601,189.3159 Q2816.5601,191.4077 2817.2449,192.4744 Q2817.9297,193.541 2819.2744,193.541 Q2819.9053,193.541 2820.4988,193.2712 Q2821.0923,193.0015 2821.7231,192.4204 Z " fill="#000000"/><text fill="#000000" font-family="sans-serif" font-size="14" lengthAdjust="spacing" textLength="63" x="2839.75" y="194.291">HashMap</text><rect fill="#FFFFFF" height="16.1328" style="stroke:#181818;stroke-width:1.0;stroke-dasharray:2.0,2.0;" width="26" x="2969" y="170"/><text fill="#000000" font-family="sans-serif" font-size="12" font-style="italic" lengthAdjust="spacing" textLength="24" x="2970" y="182.6016">K, V</text><line style="stroke:#181818;stroke-width:0.5;" x1="2747" x2="2991" y1="205" y2="205"/><rect fill="none" height="6" style="stroke:#C82930;stroke-width:1.0;" width="6" x="2754" y="215.7441"/><text fill="#000000" font-family="sans-serif" font-size="14" lengthAdjust="spacing" text-decoration="underline" textLength="152" x="2766" y="222.5352">serialVersionUID: long</text><polygon fill="none" points="2757,231.2324,2753,237.2324,2761,237.2324" style="stroke:#1963A0;stroke-width:1.0;"/><text fill="#000000" font-family="sans-serif" font-size="14" lengthAdjust="spacing" text-decoration="underline" textLength="220" x="2766" y="239.0234">DEFAULT_INITIAL_CAPACITY: int</text><polygon fill="none" points="2757,247.7207,2753,253.7207,2761,253.7207" style="stroke:#1963A0;stroke-width:1.0;"/><text fill="#000000" font-family="sans-serif" font-size="14" lengthAdjust="spacing" text-decoration="underline" textLength="172" x="2766" y="255.5117">MAXIMUM_CAPACITY: int</text><polygon fill="none" points="2757,264.209,2753,270.209,2761,270.209" style="stroke:#1963A0;stroke-width:1.0;"/><text fill="#000000" font-family="sans-serif" font-size="14" lengthAdjust="spacing" text-decoration="underline" textLength="210" x="2766" y="272">DEFAULT_LOAD_FACTOR: float</text><polygon fill="none" points="2757,280.6973,2753,286.6973,2761,286.6973" style="stroke:#1963A0;stroke-width:1.0;"/><text fill="#000000" font-family="sans-serif" font-size="14" lengthAdjust="spacing" text-decoration="underline" textLength="170" x="2766" y="288.4883">TREEIFY_THRESHOLD: int</text><polygon fill="none" points="2757,297.1855,2753,303.1855,2761,303.1855" style="stroke:#1963A0;stroke-width:1.0;"/><text fill="#000000" font-family="sans-serif" font-size="14" lengthAdjust="spacing" text-decoration="underline" textLength="190" x="2766" y="304.9766">UNTREEIFY_THRESHOLD: int</text><polygon fill="none" points="2757,313.6738,2753,319.6738,2761,319.6738" style="stroke:#1963A0;stroke-width:1.0;"/><text fill="#000000" font-family="sans-serif" font-size="14" lengthAdjust="spacing" text-decoration="underline" textLength="191" x="2766" y="321.4648">MIN_TREEIFY_CAPACITY: int</text><polygon fill="none" points="2757,330.1621,2753,336.1621,2761,336.1621" style="stroke:#1963A0;stroke-width:1.0;"/><text fill="#000000" font-family="sans-serif" font-size="14" lengthAdjust="spacing" textLength="136" x="2766" y="337.9531">table: Node&lt;K, V&gt;[]</text><polygon fill="none" points="2757,346.6504,2753,352.6504,2761,352.6504" style="stroke:#1963A0;stroke-width:1.0;"/><text fill="#000000" font-family="sans-serif" font-size="14" lengthAdjust="spacing" textLength="190" x="2766" y="354.4414">entrySet: Set&lt;Entry&lt;K, V&gt;&gt;</text><polygon fill="none" points="2757,363.1387,2753,369.1387,2761,369.1387" style="stroke:#1963A0;stroke-width:1.0;"/><text fill="#000000" font-family="sans-serif" font-size="14" lengthAdjust="spacing" textLength="53" x="2766" y="370.9297">size: int</text><polygon fill="none" points="2757,379.627,2753,385.627,2761,385.627" style="stroke:#1963A0;stroke-width:1.0;"/><text fill="#000000" font-family="sans-serif" font-size="14" lengthAdjust="spacing" textLength="99" x="2766" y="387.418">modCount: int</text><polygon fill="none" points="2757,396.1152,2753,402.1152,2761,402.1152" style="stroke:#1963A0;stroke-width:1.0;"/><text fill="#000000" font-family="sans-serif" font-size="14" lengthAdjust="spacing" textLength="92" x="2766" y="403.9063">threshold: int</text><polygon fill="none" points="2757,412.6035,2753,418.6035,2761,418.6035" style="stroke:#1963A0;stroke-width:1.0;"/><text fill="#000000" font-family="sans-serif" font-size="14" lengthAdjust="spacing" textLength="112" x="2766" y="420.3945">loadFactor: float</text><line style="stroke:#181818;stroke-width:0.5;" x1="2747" x2="2991" y1="427.3477" y2="427.3477"/></g></a><!--reverse link Rule to Update--><g id="link_Rule_Update"><path codeLine="116" d="M1006.5436,344.6397 C844.4736,377.7197 630.54,430.84 440,514.34 C413.82,525.82 387.17,540.16 361.89,555.23 " fill="none" id="Rule-backto-Update" style="stroke:#181818;stroke-width:1.0;"/><polygon fill="none" points="1024.18,341.04,1005.3437,338.761,1007.7435,350.5185,1024.18,341.04" style="stroke:#181818;stroke-width:1.0;"/></g><!--reverse link Serializable to Update--><g id="link_Serializable_Update"><path codeLine="117" d="M1151.2188,69.8075 C1039.9488,76.1075 812.74,92.85 738,130 C540.02,228.41 373.53,433.29 286.69,555.3 " fill="none" id="Serializable-backto-Update" style="stroke:#181818;stroke-width:1.0;stroke-dasharray:7.0,7.0;"/><polygon fill="none" points="1169.19,68.79,1150.8796,63.8171,1151.558,75.7979,1169.19,68.79" style="stroke:#181818;stroke-width:1.0;"/></g><!--reverse link Rule to Delete--><g id="link_Rule_Delete"><path codeLine="118" d="M1113.9476,370.7312 C1043.5776,412.4612 961.22,461.77 876,514.34 C846.24,532.71 814.38,552.73 784.46,571.7 " fill="none" id="Rule-backto-Delete" style="stroke:#181818;stroke-width:1.0;"/><polygon fill="none" points="1129.43,361.55,1110.8872,365.5704,1117.008,375.892,1129.43,361.55" style="stroke:#181818;stroke-width:1.0;"/></g><!--reverse link Serializable to Delete--><g id="link_Serializable_Delete"><path codeLine="119" d="M1151.483,74.3558 C1104.413,81.4858 1054.99,94.72 1007,130 C849.17,246.01 741.09,456.34 690.59,571.69 " fill="none" id="Serializable-backto-Delete" style="stroke:#181818;stroke-width:1.0;stroke-dasharray:7.0,7.0;"/><polygon fill="none" points="1169.28,71.66,1150.5844,68.4235,1152.3816,80.2882,1169.28,71.66" style="stroke:#181818;stroke-width:1.0;"/></g><!--reverse link Rule to Read--><g id="link_Rule_Read"><path codeLine="120" d="M1311.5291,372.45 C1364.6491,413.76 1425.02,460.71 1493.66,514.09 " fill="none" id="Rule-backto-Read" style="stroke:#181818;stroke-width:1.0;"/><polygon fill="none" points="1297.32,361.4,1307.8457,377.1864,1315.2124,367.7137,1297.32,361.4" style="stroke:#181818;stroke-width:1.0;"/></g><!--reverse link Serializable to Read--><g id="link_Serializable_Read"><path codeLine="121" d="M1298.732,72.4238 C1346.542,78.5938 1396.9,91.67 1443,130 C1559.57,226.91 1618.6,394.71 1647.23,514.05 " fill="none" id="Serializable-backto-Read" style="stroke:#181818;stroke-width:1.0;stroke-dasharray:7.0,7.0;"/><polygon fill="none" points="1280.88,70.12,1297.964,78.3745,1299.4999,66.4732,1280.88,70.12" style="stroke:#181818;stroke-width:1.0;"/></g><!--reverse link Serializable to Rule--><g id="link_Serializable_Rule"><path codeLine="122" d="M1225,107.17 C1225,143.42 1225,196.59 1225,246.88 " fill="none" id="Serializable-backto-Rule" style="stroke:#181818;stroke-width:1.0;stroke-dasharray:7.0,7.0;"/><polygon fill="none" points="1225,89.17,1219,107.17,1231,107.17,1225,89.17" style="stroke:#181818;stroke-width:1.0;"/></g><!--link Rule to Rule.AttributeValuePairs--><g id="link_Rule_Rule.AttributeValuePairs"><path codeLine="123" d="M1312.11,361.58 C1380.66,402.99 1480.15,456.65 1575,484.34 C1710,523.76 1765.53,448.89 1890,514.34 C1939.4,540.32 1973.2728,591.8414 1991.1028,624.0314 " fill="none" id="Rule-to-Rule.AttributeValuePairs" style="stroke:#181818;stroke-width:1.0;"/><polygon fill="#181818" points="1994.01,629.28,1993.1483,619.4689,1991.5873,624.9061,1986.1501,623.3452,1994.01,629.28" style="stroke:#181818;stroke-width:1.0;"/><text fill="#000000" font-family="sans-serif" font-size="13" lengthAdjust="spacing" textLength="29" x="1576" y="480.9084">avps</text></g><!--reverse link Rule to Rule.AttributeValuePairs--><g id="link_Rule_Rule.AttributeValuePairs"><path codeLine="131" d="M1416.0613,367.3394 C1484.5713,393.7194 1546.71,423.38 1610,467.34 C1618.52,473.26 1616.72,479.7 1626,484.34 C1731.58,537.24 1785.99,458.43 1890,514.34 C1939.16,540.77 1976.04,597.37 1993.95,629.4 " fill="none" id="Rule-backto-Rule.AttributeValuePairs" style="stroke:#181818;stroke-width:1.0;"/><ellipse cx="1408.5957" cy="364.4647" fill="#FFFFFF" rx="8" ry="8" style="stroke:#181818;stroke-width:1.0;"/><line style="stroke:#181818;stroke-width:1.0;" x1="1416.0613" x2="1401.13" y1="367.3394" y2="361.59"/><line style="stroke:#181818;stroke-width:1.0;" x1="1405.721" x2="1411.4703" y1="371.9303" y2="356.999"/></g><!--link Rule to Rule.MessageType--><g id="link_Rule_Rule.MessageType"><path codeLine="124" d="M1128.93,361.51 C1089.88,388.88 1047.56,425.04 1020,467.34 C990.96,511.92 980.1504,567.2487 975.6204,606.9387 " fill="none" id="Rule-to-Rule.MessageType" style="stroke:#181818;stroke-width:1.0;"/><polygon fill="#181818" points="974.94,612.9,979.9348,604.4116,975.507,607.9323,971.9864,603.5045,974.94,612.9" style="stroke:#181818;stroke-width:1.0;"/><text fill="#000000" font-family="sans-serif" font-size="13" lengthAdjust="spacing" textLength="55" x="1021" y="480.9084">message</text></g><!--reverse link Rule to Rule.MessageType--><g id="link_Rule_Rule.MessageType"><path codeLine="127" d="M1172.0797,374.2918 C1140.2197,416.1518 1105.73,462.06 1068,514.34 C1044.3,547.19 1018.14,585.01 999.13,612.81 " fill="none" id="Rule-backto-Rule.MessageType" style="stroke:#181818;stroke-width:1.0;"/><ellipse cx="1176.9249" cy="367.9259" fill="#FFFFFF" rx="8" ry="8" style="stroke:#181818;stroke-width:1.0;"/><line style="stroke:#181818;stroke-width:1.0;" x1="1172.0797" x2="1181.77" y1="374.2918" y2="361.56"/><line style="stroke:#181818;stroke-width:1.0;" x1="1170.559" x2="1183.2908" y1="363.0808" y2="372.771"/></g><!--link Rule to Rule.MethodType--><g id="link_Rule_Rule.MethodType"><path codeLine="125" d="M1199.5,361.32 C1186.89,391.97 1172.91,430.99 1166,467.34 C1163.14,482.37 1161.6648,492.2204 1160.3548,508.0504 " fill="none" id="Rule-to-Rule.MethodType" style="stroke:#181818;stroke-width:1.0;"/><polygon fill="#181818" points="1159.86,514.03,1164.5886,505.3905,1160.2724,509.047,1156.6159,504.7308,1159.86,514.03" style="stroke:#181818;stroke-width:1.0;"/><text fill="#000000" font-family="sans-serif" font-size="13" lengthAdjust="spacing" textLength="48" x="1167" y="480.9084">method</text></g><!--reverse link Rule to Rule.MethodType--><g id="link_Rule_Rule.MethodType"><path codeLine="128" d="M1228.1695,377.3168 C1228.8795,412.8668 1227.51,443.64 1220,484.34 C1218.2,494.09 1215.93,504.04 1213.33,513.97 " fill="none" id="Rule-backto-Rule.MethodType" style="stroke:#181818;stroke-width:1.0;"/><ellipse cx="1228.0097" cy="369.3184" fill="#FFFFFF" rx="8" ry="8" style="stroke:#181818;stroke-width:1.0;"/><line style="stroke:#181818;stroke-width:1.0;" x1="1228.1695" x2="1227.85" y1="377.3168" y2="361.32"/><line style="stroke:#181818;stroke-width:1.0;" x1="1220.0113" x2="1236.0081" y1="369.4781" y2="369.1587"/></g><!--link Rule to Rule.ResponseType--><g id="link_Rule_Rule.ResponseType"><path codeLine="126" d="M1243.3,361.54 C1255.02,396.97 1270.83,443.53 1286,484.34 C1300.01,522.03 1314.6396,558.4044 1328.0996,590.9944 " fill="none" id="Rule-to-Rule.ResponseType" style="stroke:#181818;stroke-width:1.0;"/><polygon fill="#181818" points="1330.39,596.54,1330.6515,586.6946,1328.4813,591.9186,1323.2573,589.7485,1330.39,596.54" style="stroke:#181818;stroke-width:1.0;"/><text fill="#000000" font-family="sans-serif" font-size="13" lengthAdjust="spacing" textLength="57" x="1287" y="480.9084">response</text></g><!--reverse link Rule to Rule.ResponseType--><g id="link_Rule_Rule.ResponseType"><path codeLine="129" d="M1292.668,373.3832 C1318.188,402.3932 1335.06,427.91 1349,467.34 C1363.65,508.79 1364.1,558.75 1361.33,596.36 " fill="none" id="Rule-backto-Rule.ResponseType" style="stroke:#181818;stroke-width:1.0;"/><ellipse cx="1287.384" cy="367.3766" fill="#FFFFFF" rx="8" ry="8" style="stroke:#181818;stroke-width:1.0;"/><line style="stroke:#181818;stroke-width:1.0;" x1="1292.668" x2="1282.1" y1="373.3832" y2="361.37"/><line style="stroke:#181818;stroke-width:1.0;" x1="1281.3774" x2="1293.3906" y1="372.6606" y2="362.0926"/></g><!--reverse link HashMap to Rule.AttributeValuePairs--><g id="link_HashMap_Rule.AttributeValuePairs"><path codeLine="130" d="M2731.7901,446.1897 C2718.8601,455.2897 2720.01,452.99 2706,459.34 C2468.57,567.01 2352.81,393.13 2122,514.34 C2072.59,540.29 2035.81,597.08 2017.98,629.27 " fill="none" id="HashMap-backto-Rule.AttributeValuePairs" style="stroke:#181818;stroke-width:1.0;"/><polygon fill="none" points="2746.51,435.83,2728.3368,441.2831,2735.2433,451.0964,2746.51,435.83" style="stroke:#181818;stroke-width:1.0;"/></g><!--reverse link Rule to Create--><g id="link_Rule_Create"><path codeLine="132" d="M1443.6877,342.5149 C1627.9977,376.7249 1889.3,432.79 2123,514.34 C2168.42,530.19 2216.18,550.96 2259.6,571.56 " fill="none" id="Rule-backto-Create" style="stroke:#181818;stroke-width:1.0;"/><polygon fill="none" points="1425.99,339.23,1442.5928,348.4141,1444.7827,336.6157,1425.99,339.23" style="stroke:#181818;stroke-width:1.0;"/></g><!--reverse link Serializable to Create--><g id="link_Serializable_Create"><path codeLine="133" d="M1298.7541,72.0863 C1367.1941,78.7963 1467.88,93.24 1563,130 C1854.38,242.59 2157.22,455.29 2311.35,571.67 " fill="none" id="Serializable-backto-Create" style="stroke:#181818;stroke-width:1.0;stroke-dasharray:7.0,7.0;"/><polygon fill="none" points="1280.84,70.33,1298.1687,78.0577,1299.3396,66.115,1280.84,70.33" style="stroke:#181818;stroke-width:1.0;"/></g><text fill="#888888" font-family="sans-serif" font-size="10" lengthAdjust="spacing" textLength="176" x="1412.5" y="824.848">UMLDoclet 2.1.2, PlantUML 1.2024.3</text><!--SRC=[lLTjJ-Cu4Fw-ly9VLW91Ky57Y-LKjKLKrm8gBReLGfMJJ5lVkN7MTg9bsUvlNpil9Sd6AJrQ8fMOcV7CusSyzWGXX2Ge_Gk988eBXF6dJrg8GkBzHnQ0k5WuCHSXOOxBY0-E115J3wJZYSW_TqJ4GAANT99vF4QaHDFG9mhGusCwS9PgnPwUj1qgFArPI9G24M1qbmwgwdh52VKnkbU21ekoNDiAwaOAwjK2GaOyM46WwWqsSEgKwKgEZckbwOHJL7vNR4F1DN7oQ4J2YxBXfHxGy5vJoq2Dj8sc_XYZc5D_us9TvRW7sjXmd0xgERPnrMgaVXkJy3qK6YNb5gvIH5MkCkb7SZG6uck6pEi3-MbjuyVWgRAJo1gvMO0Qw6drBcMYpERXPE5_pExag1kSlDeq- -flbjZWh63KuErzEJVFYrH4KM-DJbQ4vh4Udngs1t6b4iHJ-JxHnvZP9_grspuvyK5wWeRAbkkNFD9wlmlLl78MmmCHbBZw3BOupLcl82im0K6qIjRlP74dp-66YuAedfSYe6yHI6M76_90mZO4QidzCe1SiZt-WafTgHOr3MAgmABKbvr5upxRvdWay81Pb55oBLYHpgqmGs778YFNx3NNvZVWYiwVROuZbr6vj9LDccShTtDkKV5avylcj8wpv1SJMvHjIwskcvYQKuGmApMUgQnvnAoS-rI0Py1QBEQ4iaX0mrrYO6-EnmV28hWZLCXyHJMgR65LJrq1QNUK3YmdpfOxE3PHwbMfs-e5aqdtUFsUeXgxTvpF- -i0rkKkzbyI4uVo0iCqq4V5N7U3IFkZXD4VvXJLALag5KhSRllSamxNrQWpw_5L6uAsyPByaT0-EqiisYIaYSXnZJIneBnTz9bazoygTLDW-WZ2lYWHWTuKDfoHego0DDqorqGk3ID_dwA7oxt0D67QcLiRHbj5jcIom0SGfYgdWnv6Z5SlljpuLwz_rPaE9xF1pM0ow0ndtSvTfpkOVCKc2vOveyu_Wz5qz2RRtF_mjjERNNMwazinHdF6YMt2PDpl3ww-pYRNu_xzzUsmr-HzUhEJ-MXmCyidsC7_KcPhO7J3VKXp-lXKDj0VAUBv7ioN2gYBllalDRmisqdw0shyhxZVvP7vqFapz59VnalE_1gT9is_qiqA5rK6ryNz-gQlGeoJhkhYPwlrrWdJrsipArcCI_LvyTDn_eUpG-5DlsZsXBVWx51uDxtt-z7kqvL-xRpiLkjo5_kwsnaZ4eVou94BFJH6nKRhi47pljd4DEE3XonsT1YL6lvTmfxii9qhz7v0h9pLWuSgilbQP-RInZYxjNShVKiH77mX-uYvoqBJDdTFHrF1cGUcPKHppirhEXhsk6ww53ftpfppKtJ7IA2q57sEqwxewFWt]--></g></svg>