<?xml version="1.0" encoding="us-ascii" standalone="no"?><svg xmlns="http://www.w3.org/2000/svg" xmlns:xlink="http://www.w3.org/1999/xlink" contentStyleType="text/css" height="440px" preserveAspectRatio="none" style="width:561px;height:440px;background:#FFFFFF;" version="1.1" viewBox="0 0 561 440" width="561px" zoomAndPan="magnify"><defs/><g><!--class org.vorpal.blade.services.crud2.rules.Read--><a href="Read.html" target="_top" title="Read.html" xlink:actuate="onRequest" xlink:href="Read.html" xlink:show="new" xlink:title="Read.html" xlink:type="simple"><g id="elem_org.vorpal.blade.services.crud2.rules.Read"><rect codeLine="5" fill="#F1F1F1" height="285.1016" id="org.vorpal.blade.services.crud2.rules.Read" rx="2.5" ry="2.5" style="stroke:#181818;stroke-width:0.5;" width="401" x="152" y="129.76"/><ellipse cx="259.25" cy="148.8928" fill="#ADD1B2" rx="11" ry="11" style="stroke:#181818;stroke-width:1.0;"/><path d="M261.7231,155.0359 Q261.1421,155.3347 260.5029,155.4841 Q259.8638,155.6335 259.1582,155.6335 Q256.6514,155.6335 255.3315,153.9817 Q254.0117,152.3298 254.0117,149.2087 Q254.0117,146.0793 255.3315,144.4275 Q256.6514,142.7756 259.1582,142.7756 Q259.8638,142.7756 260.5112,142.925 Q261.1587,143.0745 261.7231,143.3733 L261.7231,146.0959 Q261.0923,145.5149 260.4988,145.2451 Q259.9053,144.9753 259.2744,144.9753 Q257.9297,144.9753 257.2449,146.042 Q256.5601,147.1086 256.5601,149.2087 Q256.5601,151.3005 257.2449,152.3672 Q257.9297,153.4338 259.2744,153.4338 Q259.9053,153.4338 260.4988,153.1641 Q261.0923,152.8943 261.7231,152.3132 Z " fill="#000000"/><text fill="#000000" font-family="sans-serif" font-size="14" lengthAdjust="spacing" textLength="34" x="351.75" y="148.2952">Read</text><text fill="#000000" font-family="sans-serif" font-size="10" lengthAdjust="spacing" textLength="178" x="279.75" y="160.9163">org.vorpal.blade.services.crud2.rules</text><line style="stroke:#181818;stroke-width:0.5;" x1="153" x2="552" y1="168.0256" y2="168.0256"/><ellipse cx="163" cy="181.7698" fill="none" rx="3" ry="3" style="stroke:#038048;stroke-width:1.0;"/><text fill="#000000" font-family="sans-serif" font-size="14" lengthAdjust="spacing" textLength="62" x="172" y="185.5608">id: String</text><rect fill="none" height="6" style="stroke:#C82930;stroke-width:1.0;" width="6" x="160" y="195.258"/><text fill="#000000" font-family="sans-serif" font-size="14" lengthAdjust="spacing" textLength="107" x="172" y="202.0491">pattern: Pattern</text><ellipse cx="163" cy="214.7463" fill="none" rx="3" ry="3" style="stroke:#038048;stroke-width:1.0;"/><text fill="#000000" font-family="sans-serif" font-size="14" lengthAdjust="spacing" textLength="108" x="172" y="218.5373">attribute: String</text><rect fill="none" height="6" style="stroke:#C82930;stroke-width:1.0;" width="6" x="160" y="228.2346"/><text fill="#000000" font-family="sans-serif" font-size="14" lengthAdjust="spacing" textLength="125" x="172" y="235.0256">expression: String</text><line style="stroke:#181818;stroke-width:0.5;" x1="153" x2="552" y1="241.9788" y2="241.9788"/><ellipse cx="163" cy="255.7229" fill="#84BE84" rx="3" ry="3" style="stroke:#038048;stroke-width:1.0;"/><text fill="#000000" font-family="sans-serif" font-size="14" lengthAdjust="spacing" textLength="44" x="172" y="259.5139">Read()</text><ellipse cx="163" cy="272.2112" fill="#84BE84" rx="3" ry="3" style="stroke:#038048;stroke-width:1.0;"/><text fill="#000000" font-family="sans-serif" font-size="14" lengthAdjust="spacing" textLength="134" x="172" y="276.0022">Read(String, String)</text><ellipse cx="163" cy="288.6995" fill="#84BE84" rx="3" ry="3" style="stroke:#038048;stroke-width:1.0;"/><text fill="#000000" font-family="sans-serif" font-size="14" lengthAdjust="spacing" textLength="94" x="172" y="292.4905">getId(): String</text><ellipse cx="163" cy="305.1877" fill="#84BE84" rx="3" ry="3" style="stroke:#038048;stroke-width:1.0;"/><text fill="#000000" font-family="sans-serif" font-size="14" lengthAdjust="spacing" textLength="126" x="172" y="308.9788">setId(String): Read</text><ellipse cx="163" cy="321.676" fill="#84BE84" rx="3" ry="3" style="stroke:#038048;stroke-width:1.0;"/><text fill="#000000" font-family="sans-serif" font-size="14" lengthAdjust="spacing" textLength="142" x="172" y="325.467">getAttribute(): String</text><ellipse cx="163" cy="338.1643" fill="#84BE84" rx="3" ry="3" style="stroke:#038048;stroke-width:1.0;"/><text fill="#000000" font-family="sans-serif" font-size="14" lengthAdjust="spacing" textLength="174" x="172" y="341.9553">setAttribute(String): Read</text><ellipse cx="163" cy="354.6526" fill="#84BE84" rx="3" ry="3" style="stroke:#038048;stroke-width:1.0;"/><text fill="#000000" font-family="sans-serif" font-size="14" lengthAdjust="spacing" textLength="157" x="172" y="358.4436">getExpression(): String</text><ellipse cx="163" cy="371.1409" fill="#84BE84" rx="3" ry="3" style="stroke:#038048;stroke-width:1.0;"/><text fill="#000000" font-family="sans-serif" font-size="14" lengthAdjust="spacing" textLength="189" x="172" y="374.9319">setExpression(String): Read</text><ellipse cx="163" cy="387.6291" fill="#84BE84" rx="3" ry="3" style="stroke:#038048;stroke-width:1.0;"/><text fill="#000000" font-family="sans-serif" font-size="14" lengthAdjust="spacing" textLength="375" x="172" y="391.4202">process(Map&lt;String, String&gt;, SipServletMessage): void</text><ellipse cx="163" cy="404.1174" fill="#84BE84" rx="3" ry="3" style="stroke:#038048;stroke-width:1.0;"/><text fill="#000000" font-family="sans-serif" font-size="14" lengthAdjust="spacing" text-decoration="underline" textLength="132" x="172" y="407.9084">main(String[]): void</text></g></a><!--class org.vorpal.blade.services.crud2.rules.Rule--><a href="Rule.html" target="_top" title="Rule.html" xlink:actuate="onRequest" xlink:href="Rule.html" xlink:show="new" xlink:title="Rule.html" xlink:type="simple"><g id="elem_org.vorpal.blade.services.crud2.rules.Rule"><rect codeLine="22" fill="#F1F1F1" height="62.7539" id="org.vorpal.blade.services.crud2.rules.Rule" rx="2.5" ry="2.5" style="stroke:#181818;stroke-width:0.5;" width="401" x="7" y="7"/><ellipse cx="114.25" cy="26.1328" fill="#A9DCDF" rx="11" ry="11" style="stroke:#181818;stroke-width:1.0;"/><path d="M114.1133,21.481 L112.9595,26.5527 L115.2754,26.5527 Z M112.6191,19.2397 L115.6157,19.2397 L118.9609,31.6328 L116.5122,31.6328 L115.7485,28.5698 L112.4697,28.5698 L111.7227,31.6328 L109.2739,31.6328 Z " fill="#000000"/><text fill="#000000" font-family="sans-serif" font-size="14" font-style="italic" lengthAdjust="spacing" textLength="30" x="208.75" y="25.5352">Rule</text><text fill="#000000" font-family="sans-serif" font-size="10" font-style="italic" lengthAdjust="spacing" textLength="178" x="134.75" y="38.1563">org.vorpal.blade.services.crud2.rules</text><line style="stroke:#181818;stroke-width:0.5;" x1="8" x2="407" y1="45.2656" y2="45.2656"/><ellipse cx="18" cy="59.0098" fill="#84BE84" rx="3" ry="3" style="stroke:#038048;stroke-width:1.0;"/><text fill="#000000" font-family="sans-serif" font-size="14" font-style="italic" lengthAdjust="spacing" textLength="375" x="27" y="62.8008">process(Map&lt;String, String&gt;, SipServletMessage): void</text></g></a><!--class java.io.Serializable--><a href="https://docs.oracle.com/en/java/javase/11/docs/api/java.base/java/io/Serializable.html?is-external=true" target="_top" title="https://docs.oracle.com/en/java/javase/11/docs/api/java.base/java/io/Serializable.html?is-external=true" xlink:actuate="onRequest" xlink:href="https://docs.oracle.com/en/java/javase/11/docs/api/java.base/java/io/Serializable.html?is-external=true" xlink:show="new" xlink:title="https://docs.oracle.com/en/java/javase/11/docs/api/java.base/java/io/Serializable.html?is-external=true" xlink:type="simple"><g id="elem_java.io.Serializable"><rect codeLine="25" fill="#F1F1F1" height="38.2656" id="java.io.Serializable" rx="2.5" ry="2.5" style="stroke:#181818;stroke-width:0.5;" width="111" x="443" y="19.25"/><ellipse cx="458" cy="38.3828" fill="#B4A7E5" rx="11" ry="11" style="stroke:#181818;stroke-width:1.0;"/><path d="M454.4277,34.6479 L454.4277,32.4897 L461.8071,32.4897 L461.8071,34.6479 L459.3418,34.6479 L459.3418,42.7246 L461.8071,42.7246 L461.8071,44.8828 L454.4277,44.8828 L454.4277,42.7246 L456.8931,42.7246 L456.8931,34.6479 Z " fill="#000000"/><text fill="#000000" font-family="sans-serif" font-size="14" font-style="italic" lengthAdjust="spacing" textLength="79" x="472" y="37.7852">Serializable</text><text fill="#000000" font-family="sans-serif" font-size="10" font-style="italic" lengthAdjust="spacing" textLength="32" x="495.5" y="50.4063">java.io</text></g></a><!--reverse link org.vorpal.blade.services.crud2.rules.Rule to org.vorpal.blade.services.crud2.rules.Read--><g id="link_org.vorpal.blade.services.crud2.rules.Rule_org.vorpal.blade.services.crud2.rules.Read"><path codeLine="27" d="M236.2968,85.4397 C246.3568,101.5197 249.91,107.21 263.84,129.5 " fill="none" id="org.vorpal.blade.services.crud2.rules.Rule-backto-org.vorpal.blade.services.crud2.rules.Read" style="stroke:#181818;stroke-width:1.0;"/><polygon fill="none" points="226.75,70.18,231.2102,88.622,241.3834,82.2574,226.75,70.18" style="stroke:#181818;stroke-width:1.0;"/></g><!--reverse link java.io.Serializable to org.vorpal.blade.services.crud2.rules.Read--><g id="link_java.io.Serializable_org.vorpal.blade.services.crud2.rules.Read"><path codeLine="28" d="M477.2101,73.2026 C466.6901,89.9126 459.76,100.92 441.86,129.36 " fill="none" id="java.io.Serializable-backto-org.vorpal.blade.services.crud2.rules.Read" style="stroke:#181818;stroke-width:1.0;stroke-dasharray:7.0,7.0;"/><polygon fill="none" points="486.8,57.97,472.1325,70.006,482.2876,76.3993,486.8,57.97" style="stroke:#181818;stroke-width:1.0;"/></g><text fill="#888888" font-family="sans-serif" font-size="10" lengthAdjust="spacing" textLength="176" x="185.5" y="430.5295">UMLDoclet 2.1.2, PlantUML 1.2024.3</text><!--SRC=[jLDBYzim4BxtLmmBXItPo4teoQGfXVPGQ61fw2dhmzYU92go92J5j9lDV-z8JZREfe66KXtqcFdcqpm103m5qDYGjrZHd2mw3CQ1DffUiHhMiYQWnePVi9IaQlzIsb1O6nOdUQNGUxYPUFb8-UZTz1jX_Q3tpxTJurQYDSwY4gN2ceGdrygAlAZSfXuBjr7aRm0z_1LIH7fOBE8Xrg5HHG7Rv4TS0rddC0zEwjMpR6Wn178wX_lkSaJpsybo4-ZSY7vQHzvBeyzqW_ZtxPiNxmvqjmVtj2iANnX-JkEJOe_F8RASM7qyU7V1-AY_pF7vEOmB93t01HRh3DV0tyxGJaw3dF95sZbNIL6OCGPNnEQjaKVphGyOPBM3GOFoyCUYwCDsNHzXwOF3Afmt5DVzVpOKxx6X-3XlgEt1gzs_96ANTgcv-vOyShtOs4QYaezOdiJu0riKqgGezdVHXxA_wn2ipxEiDfKNXbrazolJPAIpQ94sJzbeb10PMfb4eepIX90cwtEcu3z8pwqVfmJL- -0sL1HTTQx8vUHfEBnYc1Fz7uESF0bnBL55CSkmD2OUtsTVFndEJ82n68dn7Tmhr86byBebrut5Rm00]--></g></svg>