<?xml version="1.0" encoding="us-ascii" standalone="no"?><svg xmlns="http://www.w3.org/2000/svg" xmlns:xlink="http://www.w3.org/1999/xlink" contentStyleType="text/css" height="414px" preserveAspectRatio="none" style="width:959px;height:414px;background:#FFFFFF;" version="1.1" viewBox="0 0 959 414" width="959px" zoomAndPan="magnify"><defs/><g><!--class org.vorpal.blade.services.crud2.rules.Rule--><a href="Rule.html" target="_top" title="Rule.html" xlink:actuate="onRequest" xlink:href="Rule.html" xlink:show="new" xlink:title="Rule.html" xlink:type="simple"><g id="elem_org.vorpal.blade.services.crud2.rules.Rule"><rect codeLine="5" fill="#F1F1F1" height="186.1719" id="org.vorpal.blade.services.crud2.rules.Rule" rx="2.5" ry="2.5" style="stroke:#181818;stroke-width:0.5;" width="401" x="278.5" y="105.26"/><ellipse cx="385.75" cy="124.3928" fill="#A9DCDF" rx="11" ry="11" style="stroke:#181818;stroke-width:1.0;"/><path d="M385.6133,119.741 L384.4595,124.8127 L386.7754,124.8127 Z M384.1191,117.4997 L387.1157,117.4997 L390.4609,129.8928 L388.0122,129.8928 L387.2485,126.8298 L383.9697,126.8298 L383.2227,129.8928 L380.7739,129.8928 Z " fill="#000000"/><text fill="#000000" font-family="sans-serif" font-size="14" font-style="italic" lengthAdjust="spacing" textLength="30" x="480.25" y="123.7952">Rule</text><text fill="#000000" font-family="sans-serif" font-size="10" font-style="italic" lengthAdjust="spacing" textLength="178" x="406.25" y="136.4163">org.vorpal.blade.services.crud2.rules</text><line style="stroke:#181818;stroke-width:0.5;" x1="279.5" x2="678.5" y1="143.5256" y2="143.5256"/><rect fill="none" height="6" style="stroke:#C82930;stroke-width:1.0;" width="6" x="286.5" y="154.2698"/><text fill="#000000" font-family="sans-serif" font-size="14" lengthAdjust="spacing" textLength="171" x="298.5" y="161.0608">avps: AttributeValuePairs</text><ellipse cx="289.5" cy="173.758" fill="none" rx="3" ry="3" style="stroke:#038048;stroke-width:1.0;"/><text fill="#000000" font-family="sans-serif" font-size="14" lengthAdjust="spacing" textLength="62" x="298.5" y="177.5491">id: String</text><ellipse cx="289.5" cy="190.2463" fill="none" rx="3" ry="3" style="stroke:#038048;stroke-width:1.0;"/><text fill="#000000" font-family="sans-serif" font-size="14" lengthAdjust="spacing" textLength="126" x="298.5" y="194.0373">description: String</text><ellipse cx="289.5" cy="206.7346" fill="none" rx="3" ry="3" style="stroke:#038048;stroke-width:1.0;"/><text fill="#000000" font-family="sans-serif" font-size="14" lengthAdjust="spacing" textLength="160" x="298.5" y="210.5256">message: MessageType</text><ellipse cx="289.5" cy="223.2229" fill="none" rx="3" ry="3" style="stroke:#038048;stroke-width:1.0;"/><text fill="#000000" font-family="sans-serif" font-size="14" lengthAdjust="spacing" textLength="146" x="298.5" y="227.0139">method: MethodType</text><ellipse cx="289.5" cy="239.7112" fill="none" rx="3" ry="3" style="stroke:#038048;stroke-width:1.0;"/><text fill="#000000" font-family="sans-serif" font-size="14" lengthAdjust="spacing" textLength="170" x="298.5" y="243.5022">response: ResponseType</text><line style="stroke:#181818;stroke-width:0.5;" x1="279.5" x2="678.5" y1="250.4553" y2="250.4553"/><ellipse cx="289.5" cy="264.1995" fill="#84BE84" rx="3" ry="3" style="stroke:#038048;stroke-width:1.0;"/><text fill="#000000" font-family="sans-serif" font-size="14" font-style="italic" lengthAdjust="spacing" textLength="375" x="298.5" y="267.9905">process(Map&lt;String, String&gt;, SipServletMessage): void</text><ellipse cx="289.5" cy="280.6877" fill="#84BE84" rx="3" ry="3" style="stroke:#038048;stroke-width:1.0;"/><text fill="#000000" font-family="sans-serif" font-size="14" lengthAdjust="spacing" text-decoration="underline" textLength="361" x="298.5" y="284.4788">resolveVariables(Map&lt;String, String&gt;, String): String</text></g></a><!--class java.io.Serializable--><a href="https://docs.oracle.com/en/java/javase/11/docs/api/java.base/java/io/Serializable.html?is-external=true" target="_top" title="https://docs.oracle.com/en/java/javase/11/docs/api/java.base/java/io/Serializable.html?is-external=true" xlink:actuate="onRequest" xlink:href="https://docs.oracle.com/en/java/javase/11/docs/api/java.base/java/io/Serializable.html?is-external=true" xlink:show="new" xlink:title="https://docs.oracle.com/en/java/javase/11/docs/api/java.base/java/io/Serializable.html?is-external=true" xlink:type="simple"><g id="elem_java.io.Serializable"><rect codeLine="16" fill="#F1F1F1" height="38.2656" id="java.io.Serializable" rx="2.5" ry="2.5" style="stroke:#181818;stroke-width:0.5;" width="111" x="423.5" y="7"/><ellipse cx="438.5" cy="26.1328" fill="#B4A7E5" rx="11" ry="11" style="stroke:#181818;stroke-width:1.0;"/><path d="M434.9277,22.3979 L434.9277,20.2397 L442.3071,20.2397 L442.3071,22.3979 L439.8418,22.3979 L439.8418,30.4746 L442.3071,30.4746 L442.3071,32.6328 L434.9277,32.6328 L434.9277,30.4746 L437.3931,30.4746 L437.3931,22.3979 Z " fill="#000000"/><text fill="#000000" font-family="sans-serif" font-size="14" font-style="italic" lengthAdjust="spacing" textLength="79" x="452.5" y="25.5352">Serializable</text><text fill="#000000" font-family="sans-serif" font-size="10" font-style="italic" lengthAdjust="spacing" textLength="32" x="476" y="38.1563">java.io</text></g></a><!--class org.vorpal.blade.services.crud2.rules.Rule.MessageType--><a href="Rule.MessageType.html" target="_top" title="Rule.MessageType.html" xlink:actuate="onRequest" xlink:href="Rule.MessageType.html" xlink:show="new" xlink:title="Rule.MessageType.html" xlink:type="simple"><g id="elem_org.vorpal.blade.services.crud2.rules.Rule.MessageType"><rect codeLine="17" fill="#F1F1F1" height="38.2656" id="org.vorpal.blade.services.crud2.rules.Rule.MessageType" rx="2.5" ry="2.5" style="stroke:#181818;stroke-width:0.5;" width="210" x="7" y="351.43"/><ellipse cx="22" cy="370.5628" fill="#EB937F" rx="11" ry="11" style="stroke:#181818;stroke-width:1.0;"/><path d="M25.6143,377.0628 L17.8945,377.0628 L17.8945,364.6697 L25.6143,364.6697 L25.6143,366.8279 L20.3433,366.8279 L20.3433,369.5008 L25.1162,369.5008 L25.1162,371.659 L20.3433,371.659 L20.3433,374.9046 L25.6143,374.9046 Z " fill="#000000"/><text fill="#000000" font-family="sans-serif" font-size="14" lengthAdjust="spacing" textLength="126" x="62" y="369.9652">Rule.MessageType</text><text fill="#000000" font-family="sans-serif" font-size="10" lengthAdjust="spacing" textLength="178" x="36" y="382.5863">org.vorpal.blade.services.crud2.rules</text></g></a><!--class org.vorpal.blade.services.crud2.rules.Rule.MethodType--><a href="Rule.MethodType.html" target="_top" title="Rule.MethodType.html" xlink:actuate="onRequest" xlink:href="Rule.MethodType.html" xlink:show="new" xlink:title="Rule.MethodType.html" xlink:type="simple"><g id="elem_org.vorpal.blade.services.crud2.rules.Rule.MethodType"><rect codeLine="18" fill="#F1F1F1" height="38.2656" id="org.vorpal.blade.services.crud2.rules.Rule.MethodType" rx="2.5" ry="2.5" style="stroke:#181818;stroke-width:0.5;" width="210" x="252" y="351.43"/><ellipse cx="267" cy="370.5628" fill="#EB937F" rx="11" ry="11" style="stroke:#181818;stroke-width:1.0;"/><path d="M270.6143,377.0628 L262.8945,377.0628 L262.8945,364.6697 L270.6143,364.6697 L270.6143,366.8279 L265.3433,366.8279 L265.3433,369.5008 L270.1162,369.5008 L270.1162,371.659 L265.3433,371.659 L265.3433,374.9046 L270.6143,374.9046 Z " fill="#000000"/><text fill="#000000" font-family="sans-serif" font-size="14" lengthAdjust="spacing" textLength="119" x="310.5" y="369.9652">Rule.MethodType</text><text fill="#000000" font-family="sans-serif" font-size="10" lengthAdjust="spacing" textLength="178" x="281" y="382.5863">org.vorpal.blade.services.crud2.rules</text></g></a><!--class org.vorpal.blade.services.crud2.rules.Rule.ResponseType--><a href="Rule.ResponseType.html" target="_top" title="Rule.ResponseType.html" xlink:actuate="onRequest" xlink:href="Rule.ResponseType.html" xlink:show="new" xlink:title="Rule.ResponseType.html" xlink:type="simple"><g id="elem_org.vorpal.blade.services.crud2.rules.Rule.ResponseType"><rect codeLine="19" fill="#F1F1F1" height="38.2656" id="org.vorpal.blade.services.crud2.rules.Rule.ResponseType" rx="2.5" ry="2.5" style="stroke:#181818;stroke-width:0.5;" width="210" x="497" y="351.43"/><ellipse cx="512" cy="370.5628" fill="#EB937F" rx="11" ry="11" style="stroke:#181818;stroke-width:1.0;"/><path d="M515.6143,377.0628 L507.8945,377.0628 L507.8945,364.6697 L515.6143,364.6697 L515.6143,366.8279 L510.3433,366.8279 L510.3433,369.5008 L515.1162,369.5008 L515.1162,371.659 L510.3433,371.659 L510.3433,374.9046 L515.6143,374.9046 Z " fill="#000000"/><text fill="#000000" font-family="sans-serif" font-size="14" lengthAdjust="spacing" textLength="133" x="548.5" y="369.9652">Rule.ResponseType</text><text fill="#000000" font-family="sans-serif" font-size="10" lengthAdjust="spacing" textLength="178" x="526" y="382.5863">org.vorpal.blade.services.crud2.rules</text></g></a><!--class org.vorpal.blade.services.crud2.rules.Rule.AttributeValuePairs--><a href="Rule.AttributeValuePairs.html" target="_top" title="Rule.AttributeValuePairs.html" xlink:actuate="onRequest" xlink:href="Rule.AttributeValuePairs.html" xlink:show="new" xlink:title="Rule.AttributeValuePairs.html" xlink:type="simple"><g id="elem_org.vorpal.blade.services.crud2.rules.Rule.AttributeValuePairs"><rect codeLine="20" fill="#F1F1F1" height="38.2656" id="org.vorpal.blade.services.crud2.rules.Rule.AttributeValuePairs" rx="2.5" ry="2.5" style="stroke:#181818;stroke-width:0.5;" width="210" x="742" y="351.43"/><ellipse cx="757" cy="370.5628" fill="#ADD1B2" rx="11" ry="11" style="stroke:#181818;stroke-width:1.0;"/><path d="M759.4731,376.7059 Q758.8921,377.0047 758.2529,377.1541 Q757.6138,377.3035 756.9082,377.3035 Q754.4014,377.3035 753.0815,375.6517 Q751.7617,373.9998 751.7617,370.8787 Q751.7617,367.7493 753.0815,366.0975 Q754.4014,364.4456 756.9082,364.4456 Q757.6138,364.4456 758.2612,364.595 Q758.9087,364.7445 759.4731,365.0433 L759.4731,367.7659 Q758.8423,367.1849 758.2488,366.9151 Q757.6553,366.6453 757.0244,366.6453 Q755.6797,366.6453 754.9949,367.712 Q754.3101,368.7786 754.3101,370.8787 Q754.3101,372.9705 754.9949,374.0372 Q755.6797,375.1038 757.0244,375.1038 Q757.6553,375.1038 758.2488,374.8341 Q758.8423,374.5643 759.4731,373.9832 Z " fill="#000000"/><text fill="#000000" font-family="sans-serif" font-size="14" lengthAdjust="spacing" textLength="166" x="777" y="369.9652">Rule.AttributeValuePairs</text><text fill="#000000" font-family="sans-serif" font-size="10" lengthAdjust="spacing" textLength="178" x="771" y="382.5863">org.vorpal.blade.services.crud2.rules</text></g></a><!--reverse link java.io.Serializable to org.vorpal.blade.services.crud2.rules.Rule--><g id="link_java.io.Serializable_org.vorpal.blade.services.crud2.rules.Rule"><path codeLine="22" d="M479,63.67 C479,78.49 479,82.47 479,105.13 " fill="none" id="java.io.Serializable-backto-org.vorpal.blade.services.crud2.rules.Rule" style="stroke:#181818;stroke-width:1.0;stroke-dasharray:7.0,7.0;"/><polygon fill="none" points="479,45.67,473,63.67,485,63.67,479,45.67" style="stroke:#181818;stroke-width:1.0;"/></g><!--reverse link org.vorpal.blade.services.crud2.rules.Rule to org.vorpal.blade.services.crud2.rules.Rule.MessageType--><g id="link_org.vorpal.blade.services.crud2.rules.Rule_org.vorpal.blade.services.crud2.rules.Rule.MessageType"><path codeLine="23" d="M264.8745,298.6605 C216.2845,321.1905 183.74,336.3 151.95,351.04 " fill="none" id="org.vorpal.blade.services.crud2.rules.Rule-backto-org.vorpal.blade.services.crud2.rules.Rule.MessageType" style="stroke:#181818;stroke-width:1.0;"/><ellipse cx="272.1322" cy="295.2952" fill="#FFFFFF" rx="8" ry="8" style="stroke:#181818;stroke-width:1.0;"/><line style="stroke:#181818;stroke-width:1.0;" x1="264.8745" x2="279.39" y1="298.6605" y2="291.93"/><line style="stroke:#181818;stroke-width:1.0;" x1="268.767" x2="275.4975" y1="288.0375" y2="302.553"/></g><!--reverse link org.vorpal.blade.services.crud2.rules.Rule to org.vorpal.blade.services.crud2.rules.Rule.MethodType--><g id="link_org.vorpal.blade.services.crud2.rules.Rule_org.vorpal.blade.services.crud2.rules.Rule.MethodType"><path codeLine="24" d="M403.3212,304.9361 C387.1212,327.5461 380.74,336.45 370.17,351.19 " fill="none" id="org.vorpal.blade.services.crud2.rules.Rule-backto-org.vorpal.blade.services.crud2.rules.Rule.MethodType" style="stroke:#181818;stroke-width:1.0;"/><ellipse cx="407.9806" cy="298.4331" fill="#FFFFFF" rx="8" ry="8" style="stroke:#181818;stroke-width:1.0;"/><line style="stroke:#181818;stroke-width:1.0;" x1="403.3212" x2="412.64" y1="304.9361" y2="291.93"/><line style="stroke:#181818;stroke-width:1.0;" x1="401.4775" x2="414.4836" y1="293.7736" y2="303.0925"/></g><!--reverse link org.vorpal.blade.services.crud2.rules.Rule to org.vorpal.blade.services.crud2.rules.Rule.ResponseType--><g id="link_org.vorpal.blade.services.crud2.rules.Rule_org.vorpal.blade.services.crud2.rules.Rule.ResponseType"><path codeLine="25" d="M555.2718,304.898 C571.6118,327.508 578.07,336.45 588.72,351.19 " fill="none" id="org.vorpal.blade.services.crud2.rules.Rule-backto-org.vorpal.blade.services.crud2.rules.Rule.ResponseType" style="stroke:#181818;stroke-width:1.0;"/><ellipse cx="550.5859" cy="298.414" fill="#FFFFFF" rx="8" ry="8" style="stroke:#181818;stroke-width:1.0;"/><line style="stroke:#181818;stroke-width:1.0;" x1="555.2718" x2="545.9" y1="304.898" y2="291.93"/><line style="stroke:#181818;stroke-width:1.0;" x1="544.1019" x2="557.0699" y1="303.0999" y2="293.7281"/></g><!--reverse link org.vorpal.blade.services.crud2.rules.Rule to org.vorpal.blade.services.crud2.rules.Rule.AttributeValuePairs--><g id="link_org.vorpal.blade.services.crud2.rules.Rule_org.vorpal.blade.services.crud2.rules.Rule.AttributeValuePairs"><path codeLine="26" d="M693.6724,298.6457 C742.3924,321.1757 775.07,336.3 806.94,351.04 " fill="none" id="org.vorpal.blade.services.crud2.rules.Rule-backto-org.vorpal.blade.services.crud2.rules.Rule.AttributeValuePairs" style="stroke:#181818;stroke-width:1.0;"/><ellipse cx="686.4112" cy="295.2879" fill="#FFFFFF" rx="8" ry="8" style="stroke:#181818;stroke-width:1.0;"/><line style="stroke:#181818;stroke-width:1.0;" x1="693.6724" x2="679.15" y1="298.6457" y2="291.93"/><line style="stroke:#181818;stroke-width:1.0;" x1="683.0533" x2="689.769" y1="302.549" y2="288.0267"/></g><text fill="#888888" font-family="sans-serif" font-size="10" lengthAdjust="spacing" textLength="176" x="384.5" y="404.3636">UMLDoclet 2.1.2, PlantUML 1.2024.3</text><!--SRC=[jLLDRnen4BttLumYLGeYU0lg2L6gIZqMAGfjBoc7ONS0LrxRihsh9Yd_lRDcjvY4j4sbvO3DczbvRpwO1G3m541ZITvYJakow30O1zfeUiLcsCc2W4eRxc0ZIHN-CLfIs1c68uvh7npc0NA5tiF5pCjxcexVpcygHTzq-_FDtBYjg8spgCHQOK72awjbJbxahYecmh6xlm3qy4-UeWaFjxVD8NQXLAiLF4H1pMU4jVLJ-122a-igq5TK5LsZTFwtor0MKrYoNM-FM44-Tz86QVHJ8rVCuvQci3XSFjzPIgrDKHfZSvxQ7DVQQC-FthIt4_j3LyCz3AqpdAc_NA2T7GHSjKBcV95soRLG55e9WodKHXR7I3vWaFa-KXfLS-9EufhhzKp0U1cSvBe_z5NgG6x34vAqbCabAddVH4nQ-nrh5DB4vhLtaRfoctOXS4Eoh32v5uPpvQxbfin8PyqJySjJDXv7ZmojZ91ODsZqa2PBOyQUlvT-H3zOfqRrBhYALgkedNHLFff4aJIjvwbCgRe9JQ1sMlyWj1kW_dLsJ4UP7V8tbUaWzwqpvUgKfbYgzTmM4cVsGD-Qpr1sqi-OkWnY2cV_GhEVGho0FmPwmI8TZaR_EU6zCvsiq_w8dcpc_gYUUotbrEnSs1ZJ75yMdpuQtfC19c8i9bTmhL07Hk5rJSxpA-foy0i0]--></g></svg>