<?xml version="1.0" encoding="us-ascii" standalone="no"?><svg xmlns="http://www.w3.org/2000/svg" xmlns:xlink="http://www.w3.org/1999/xlink" contentStyleType="text/css" height="490px" preserveAspectRatio="none" style="width:2692px;height:490px;" version="1.1" viewBox="0 0 2692 490" width="2692px" zoomAndPan="magnify"><defs/><g><!--class org.vorpal.blade.framework--><a href="org/vorpal/blade/framework/package-summary.html" target="_top" title="org/vorpal/blade/framework/package-summary.html" xlink:actuate="onRequest" xlink:href="org/vorpal/blade/framework/package-summary.html" xlink:show="new" xlink:title="org/vorpal/blade/framework/package-summary.html" xlink:type="simple"><g id="elem_org.vorpal.blade.framework"><rect codeLine="35" fill="#F1F1F1" height="26.4883" id="org.vorpal.blade.framework" rx="2.5" ry="2.5" style="stroke:#181818;stroke-width:0.5;" width="197" x="786.5" y="179.98"/><text fill="#000000" font-family="sans-serif" font-size="14" lengthAdjust="spacing" textLength="191" x="789.5" y="198.5152">org.vorpal.blade.framework</text></g></a><!--class org.vorpal.blade.framework.logging--><a href="org/vorpal/blade/framework/logging/package-summary.html" target="_top" title="org/vorpal/blade/framework/logging/package-summary.html" xlink:actuate="onRequest" xlink:href="org/vorpal/blade/framework/logging/package-summary.html" xlink:show="new" xlink:title="org/vorpal/blade/framework/logging/package-summary.html" xlink:type="simple"><g id="elem_org.vorpal.blade.framework.logging"><rect codeLine="37" fill="#F1F1F1" height="26.4883" id="org.vorpal.blade.framework.logging" rx="2.5" ry="2.5" style="stroke:#181818;stroke-width:0.5;" width="254" x="7" y="439.44"/><text fill="#000000" font-family="sans-serif" font-size="14" lengthAdjust="spacing" textLength="248" x="10" y="457.9752">org.vorpal.blade.framework.logging</text></g></a><!--class org.vorpal.blade.framework.config--><a href="org/vorpal/blade/framework/config/package-summary.html" target="_top" title="org/vorpal/blade/framework/config/package-summary.html" xlink:actuate="onRequest" xlink:href="org/vorpal/blade/framework/config/package-summary.html" xlink:show="new" xlink:title="org/vorpal/blade/framework/config/package-summary.html" xlink:type="simple"><g id="elem_org.vorpal.blade.framework.config"><rect codeLine="39" fill="#F1F1F1" height="26.4883" id="org.vorpal.blade.framework.config" rx="2.5" ry="2.5" style="stroke:#181818;stroke-width:0.5;" width="244" x="1251" y="352.95"/><text fill="#000000" font-family="sans-serif" font-size="14" lengthAdjust="spacing" textLength="238" x="1254" y="371.4852">org.vorpal.blade.framework.config</text></g></a><!--class org.vorpal.blade.framework.callflow--><a href="org/vorpal/blade/framework/callflow/package-summary.html" target="_top" title="org/vorpal/blade/framework/callflow/package-summary.html" xlink:actuate="onRequest" xlink:href="org/vorpal/blade/framework/callflow/package-summary.html" xlink:show="new" xlink:title="org/vorpal/blade/framework/callflow/package-summary.html" xlink:type="simple"><g id="elem_org.vorpal.blade.framework.callflow"><rect codeLine="41" fill="#F1F1F1" height="26.4883" id="org.vorpal.blade.framework.callflow" rx="2.5" ry="2.5" style="stroke:#181818;stroke-width:0.5;" width="253" x="514.5" y="266.47"/><text fill="#000000" font-family="sans-serif" font-size="14" lengthAdjust="spacing" textLength="247" x="517.5" y="285.0052">org.vorpal.blade.framework.callflow</text></g></a><!--class org.vorpal.blade.framework.b2bua--><a href="org/vorpal/blade/framework/b2bua/package-summary.html" target="_top" title="org/vorpal/blade/framework/b2bua/package-summary.html" xlink:actuate="onRequest" xlink:href="org/vorpal/blade/framework/b2bua/package-summary.html" xlink:show="new" xlink:title="org/vorpal/blade/framework/b2bua/package-summary.html" xlink:type="simple"><g id="elem_org.vorpal.blade.framework.b2bua"><rect codeLine="43" fill="#F1F1F1" height="26.4883" id="org.vorpal.blade.framework.b2bua" rx="2.5" ry="2.5" style="stroke:#181818;stroke-width:0.5;" width="245" x="837.5" y="93.49"/><text fill="#000000" font-family="sans-serif" font-size="14" lengthAdjust="spacing" textLength="239" x="840.5" y="112.0252">org.vorpal.blade.framework.b2bua</text></g></a><!--class org.vorpal.blade.framework.proxy--><a href="org/vorpal/blade/framework/proxy/package-summary.html" target="_top" title="org/vorpal/blade/framework/proxy/package-summary.html" xlink:actuate="onRequest" xlink:href="org/vorpal/blade/framework/proxy/package-summary.html" xlink:show="new" xlink:title="org/vorpal/blade/framework/proxy/package-summary.html" xlink:type="simple"><g id="elem_org.vorpal.blade.framework.proxy"><rect codeLine="45" fill="#F1F1F1" height="26.4883" id="org.vorpal.blade.framework.proxy" rx="2.5" ry="2.5" style="stroke:#181818;stroke-width:0.5;" width="241" x="520.5" y="352.95"/><text fill="#000000" font-family="sans-serif" font-size="14" lengthAdjust="spacing" textLength="235" x="523.5" y="371.4852">org.vorpal.blade.framework.proxy</text></g></a><!--class com.fasterxml.jackson.databind--><g id="elem_com.fasterxml.jackson.databind"><rect fill="#F1F1F1" height="26.4883" id="com.fasterxml.jackson.databind" rx="2.5" ry="2.5" style="stroke:#181818;stroke-width:0.5;" width="225" x="2460.5" y="439.44"/><text fill="#000000" font-family="sans-serif" font-size="14" lengthAdjust="spacing" textLength="219" x="2463.5" y="457.9752">com.fasterxml.jackson.databind</text></g><!--class com.fasterxml.jackson.core--><g id="elem_com.fasterxml.jackson.core"><rect fill="#F1F1F1" height="26.4883" id="com.fasterxml.jackson.core" rx="2.5" ry="2.5" style="stroke:#181818;stroke-width:0.5;" width="194" x="296" y="439.44"/><text fill="#000000" font-family="sans-serif" font-size="14" lengthAdjust="spacing" textLength="188" x="299" y="457.9752">com.fasterxml.jackson.core</text></g><!--class com.fasterxml.jackson.databind.ser.std--><g id="elem_com.fasterxml.jackson.databind.ser.std"><rect fill="#F1F1F1" height="26.4883" id="com.fasterxml.jackson.databind.ser.std" rx="2.5" ry="2.5" style="stroke:#181818;stroke-width:0.5;" width="275" x="524.5" y="439.44"/><text fill="#000000" font-family="sans-serif" font-size="14" lengthAdjust="spacing" textLength="269" x="527.5" y="457.9752">com.fasterxml.jackson.databind.ser.std</text></g><!--class com.fasterxml.jackson.databind.jsonFormatVisitors--><g id="elem_com.fasterxml.jackson.databind.jsonFormatVisitors"><rect fill="#F1F1F1" height="26.4883" id="com.fasterxml.jackson.databind.jsonFormatVisitors" rx="2.5" ry="2.5" style="stroke:#181818;stroke-width:0.5;" width="358" x="834" y="439.44"/><text fill="#000000" font-family="sans-serif" font-size="14" lengthAdjust="spacing" textLength="352" x="837" y="457.9752">com.fasterxml.jackson.databind.jsonFormatVisitors</text></g><!--class com.fasterxml.jackson.databind.deser.std--><g id="elem_com.fasterxml.jackson.databind.deser.std"><rect fill="#F1F1F1" height="26.4883" id="com.fasterxml.jackson.databind.deser.std" rx="2.5" ry="2.5" style="stroke:#181818;stroke-width:0.5;" width="292" x="1227" y="439.44"/><text fill="#000000" font-family="sans-serif" font-size="14" lengthAdjust="spacing" textLength="286" x="1230" y="457.9752">com.fasterxml.jackson.databind.deser.std</text></g><!--class inet.ipaddr.ipv6--><g id="elem_inet.ipaddr.ipv6"><rect fill="#F1F1F1" height="26.4883" id="inet.ipaddr.ipv6" rx="2.5" ry="2.5" style="stroke:#181818;stroke-width:0.5;" width="114" x="1554" y="439.44"/><text fill="#000000" font-family="sans-serif" font-size="14" lengthAdjust="spacing" textLength="108" x="1557" y="457.9752">inet.ipaddr.ipv6</text></g><!--class inet.ipaddr--><g id="elem_inet.ipaddr"><rect fill="#F1F1F1" height="26.4883" id="inet.ipaddr" rx="2.5" ry="2.5" style="stroke:#181818;stroke-width:0.5;" width="81" x="1702.5" y="439.44"/><text fill="#000000" font-family="sans-serif" font-size="14" lengthAdjust="spacing" textLength="75" x="1705.5" y="457.9752">inet.ipaddr</text></g><!--class inet.ipaddr.ipv4--><g id="elem_inet.ipaddr.ipv4"><rect fill="#F1F1F1" height="26.4883" id="inet.ipaddr.ipv4" rx="2.5" ry="2.5" style="stroke:#181818;stroke-width:0.5;" width="114" x="1818" y="439.44"/><text fill="#000000" font-family="sans-serif" font-size="14" lengthAdjust="spacing" textLength="108" x="1821" y="457.9752">inet.ipaddr.ipv4</text></g><!--class org.apache.commons.collections4.trie--><g id="elem_org.apache.commons.collections4.trie"><rect fill="#F1F1F1" height="26.4883" id="org.apache.commons.collections4.trie" rx="2.5" ry="2.5" style="stroke:#181818;stroke-width:0.5;" width="267" x="1966.5" y="439.44"/><text fill="#000000" font-family="sans-serif" font-size="14" lengthAdjust="spacing" textLength="261" x="1969.5" y="457.9752">org.apache.commons.collections4.trie</text></g><!--class inet.ipaddr.format.util--><g id="elem_inet.ipaddr.format.util"><rect fill="#F1F1F1" height="26.4883" id="inet.ipaddr.format.util" rx="2.5" ry="2.5" style="stroke:#181818;stroke-width:0.5;" width="157" x="2268.5" y="439.44"/><text fill="#000000" font-family="sans-serif" font-size="14" lengthAdjust="spacing" textLength="151" x="2271.5" y="457.9752">inet.ipaddr.format.util</text></g><!--class org.vorpal.blade.framework.deprecated.proxy--><a href="org/vorpal/blade/framework/deprecated/proxy/package-summary.html" target="_top" title="org/vorpal/blade/framework/deprecated/proxy/package-summary.html" xlink:actuate="onRequest" xlink:href="org/vorpal/blade/framework/deprecated/proxy/package-summary.html" xlink:show="new" xlink:title="org/vorpal/blade/framework/deprecated/proxy/package-summary.html" xlink:type="simple"><g id="elem_org.vorpal.blade.framework.deprecated.proxy"><rect codeLine="47" fill="#F1F1F1" height="26.4883" id="org.vorpal.blade.framework.deprecated.proxy" rx="2.5" ry="2.5" style="stroke:#181818;stroke-width:0.5;" width="322" x="480" y="93.49"/><text fill="#000000" font-family="sans-serif" font-size="14" lengthAdjust="spacing" textLength="316" x="483" y="112.0252">org.vorpal.blade.framework.deprecated.proxy</text></g></a><!--class org.vorpal.blade.framework.deprecated.proxy.callflows--><a href="org/vorpal/blade/framework/deprecated/proxy/callflows/package-summary.html" target="_top" title="org/vorpal/blade/framework/deprecated/proxy/callflows/package-summary.html" xlink:actuate="onRequest" xlink:href="org/vorpal/blade/framework/deprecated/proxy/callflows/package-summary.html" xlink:show="new" xlink:title="org/vorpal/blade/framework/deprecated/proxy/callflows/package-summary.html" xlink:type="simple"><g id="elem_org.vorpal.blade.framework.deprecated.proxy.callflows"><rect codeLine="49" fill="#F1F1F1" height="26.4883" id="org.vorpal.blade.framework.deprecated.proxy.callflows" rx="2.5" ry="2.5" style="stroke:#181818;stroke-width:0.5;" width="385" x="341.5" y="7"/><text fill="#000000" font-family="sans-serif" font-size="14" lengthAdjust="spacing" textLength="379" x="344.5" y="25.5352">org.vorpal.blade.framework.deprecated.proxy.callflows</text></g></a><!--class org.vorpal.blade.framework.v3.config--><a href="org/vorpal/blade/framework/v3/config/package-summary.html" target="_top" title="org/vorpal/blade/framework/v3/config/package-summary.html" xlink:actuate="onRequest" xlink:href="org/vorpal/blade/framework/v3/config/package-summary.html" xlink:show="new" xlink:title="org/vorpal/blade/framework/v3/config/package-summary.html" xlink:type="simple"><g id="elem_org.vorpal.blade.framework.v3.config"><rect codeLine="51" fill="#F1F1F1" height="26.4883" id="org.vorpal.blade.framework.v3.config" rx="2.5" ry="2.5" style="stroke:#181818;stroke-width:0.5;" width="264" x="1056" y="266.47"/><text fill="#000000" font-family="sans-serif" font-size="14" lengthAdjust="spacing" textLength="258" x="1059" y="285.0052">org.vorpal.blade.framework.v3.config</text></g></a><!--link org.vorpal.blade.framework to org.vorpal.blade.framework.logging--><g id="link_org.vorpal.blade.framework_org.vorpal.blade.framework.logging"><path codeLine="7" d="M882.01,206.85 C873.13,241.3 843.41,337.13 779,379.44 C757.66,393.46 449.1953,423.2961 267.3853,439.8461 " fill="none" id="org.vorpal.blade.framework-to-org.vorpal.blade.framework.logging" style="stroke:#181818;stroke-width:1.0;"/><polygon fill="#181818" points="261.41,440.39,270.7356,443.5576,266.3894,439.9367,270.0103,435.5906,261.41,440.39" style="stroke:#181818;stroke-width:1.0;"/></g><!--link org.vorpal.blade.framework to org.vorpal.blade.framework.config--><g id="link_org.vorpal.blade.framework_org.vorpal.blade.framework.config"><path codeLine="8" d="M983.84,198.39 C1100.59,205.25 1285.59,222.84 1338,266.47 C1364.28,288.34 1370.3822,325.3475 1372.0122,346.6475 " fill="none" id="org.vorpal.blade.framework-to-org.vorpal.blade.framework.config" style="stroke:#181818;stroke-width:1.0;"/><polygon fill="#181818" points="1372.47,352.63,1375.7716,343.351,1372.0885,347.6446,1367.7949,343.9614,1372.47,352.63" style="stroke:#181818;stroke-width:1.0;"/></g><!--link org.vorpal.blade.framework to org.vorpal.blade.framework.callflow--><g id="link_org.vorpal.blade.framework_org.vorpal.blade.framework.callflow"><path codeLine="9" d="M848.21,206.96 C802.14,222.91 729.3799,248.1073 683.3599,264.0373 " fill="none" id="org.vorpal.blade.framework-to-org.vorpal.blade.framework.callflow" style="stroke:#181818;stroke-width:1.0;"/><polygon fill="#181818" points="677.69,266,687.5033,266.8359,682.4149,264.3644,684.8864,259.2761,677.69,266" style="stroke:#181818;stroke-width:1.0;"/></g><!--link org.vorpal.blade.framework.b2bua to org.vorpal.blade.framework.callflow--><g id="link_org.vorpal.blade.framework.b2bua_org.vorpal.blade.framework.callflow"><path codeLine="10" d="M915.51,120.44 C875.72,132.75 816.51,153.44 769,179.98 C723.67,205.29 681.4452,241.539 659.0552,261.939 " fill="none" id="org.vorpal.blade.framework.b2bua-to-org.vorpal.blade.framework.callflow" style="stroke:#181818;stroke-width:1.0;"/><polygon fill="#181818" points="654.62,265.98,663.9667,262.8753,658.316,262.6125,658.5788,256.9618,654.62,265.98" style="stroke:#181818;stroke-width:1.0;"/></g><!--link org.vorpal.blade.framework.b2bua to org.vorpal.blade.framework--><g id="link_org.vorpal.blade.framework.b2bua_org.vorpal.blade.framework"><path codeLine="11" d="M948.93,120.2 C934.75,136.17 914.2927,159.2125 900.0927,175.2125 " fill="none" id="org.vorpal.blade.framework.b2bua-to-org.vorpal.blade.framework" style="stroke:#181818;stroke-width:1.0;"/><polygon fill="#181818" points="896.11,179.7,905.0757,175.6238,899.4289,175.9604,899.0924,170.3135,896.11,179.7" style="stroke:#181818;stroke-width:1.0;"/></g><!--link org.vorpal.blade.framework.callflow to org.vorpal.blade.framework.logging--><g id="link_org.vorpal.blade.framework.callflow_org.vorpal.blade.framework.logging"><path codeLine="12" d="M603.31,293.42 C509.33,325.11 271.1553,405.4325 177.2853,437.0925 " fill="none" id="org.vorpal.blade.framework.callflow-to-org.vorpal.blade.framework.logging" style="stroke:#181818;stroke-width:1.0;"/><polygon fill="#181818" points="171.6,439.01,181.4064,439.9239,176.3378,437.4121,178.8497,432.3435,171.6,439.01" style="stroke:#181818;stroke-width:1.0;"/></g><!--link org.vorpal.blade.framework.callflow to org.vorpal.blade.framework.config--><g id="link_org.vorpal.blade.framework.callflow_org.vorpal.blade.framework.config"><path codeLine="13" d="M751.38,293.45 C889.47,309.39 1118.5696,335.832 1256.6596,351.772 " fill="none" id="org.vorpal.blade.framework.callflow-to-org.vorpal.blade.framework.config" style="stroke:#181818;stroke-width:1.0;"/><polygon fill="#181818" points="1262.62,352.46,1254.138,347.4544,1257.653,351.8866,1253.2207,355.4016,1262.62,352.46" style="stroke:#181818;stroke-width:1.0;"/></g><!--link org.vorpal.blade.framework.callflow to org.vorpal.blade.framework.proxy--><g id="link_org.vorpal.blade.framework.callflow_org.vorpal.blade.framework.proxy"><path codeLine="14" d="M631.64,293.18 C627.12,309.15 625.4922,330.905 630.0022,346.905 " fill="none" id="org.vorpal.blade.framework.callflow-to-org.vorpal.blade.framework.proxy" style="stroke:#181818;stroke-width:1.0;"/><polygon fill="#181818" points="631.63,352.68,633.0382,342.9323,630.2735,347.8675,625.3383,345.1028,631.63,352.68" style="stroke:#181818;stroke-width:1.0;"/></g><!--link org.vorpal.blade.framework.proxy to org.vorpal.blade.framework.callflow--><g id="link_org.vorpal.blade.framework.proxy_org.vorpal.blade.framework.callflow"><path codeLine="31" d="M650.93,352.68 C655.7,336.68 657.4105,314.898 652.6305,298.928 " fill="none" id="org.vorpal.blade.framework.proxy-to-org.vorpal.blade.framework.callflow" style="stroke:#181818;stroke-width:1.0;"/><polygon fill="#181818" points="650.91,293.18,649.6587,302.949,652.3437,297.97,657.3227,300.6551,650.91,293.18" style="stroke:#181818;stroke-width:1.0;"/></g><!--link org.vorpal.blade.framework.config to com.fasterxml.jackson.databind--><g id="link_org.vorpal.blade.framework.config_com.fasterxml.jackson.databind"><path codeLine="15" d="M1495.44,374.41 C1694.32,386.35 2099.91,411.71 2443,439.44 C2448.65,439.9 2448.4518,439.869 2454.3018,440.369 " fill="none" id="org.vorpal.blade.framework.config-to-com.fasterxml.jackson.databind" style="stroke:#181818;stroke-width:1.0;"/><polygon fill="#181818" points="2460.28,440.88,2451.6533,436.1281,2455.2982,440.4542,2450.9721,444.099,2460.28,440.88" style="stroke:#181818;stroke-width:1.0;"/></g><!--link org.vorpal.blade.framework.config to org.vorpal.blade.framework.logging--><g id="link_org.vorpal.blade.framework.config_org.vorpal.blade.framework.logging"><path codeLine="16" d="M1250.72,374.54 C1048.46,386.85 631.57,412.92 279,439.44 C273.21,439.88 273.2616,439.8599 267.2816,440.3299 " fill="none" id="org.vorpal.blade.framework.config-to-org.vorpal.blade.framework.logging" style="stroke:#181818;stroke-width:1.0;"/><polygon fill="#181818" points="261.3,440.8,270.5857,444.0825,266.2846,440.4082,269.9589,436.1071,261.3,440.8" style="stroke:#181818;stroke-width:1.0;"/></g><!--link org.vorpal.blade.framework.config to com.fasterxml.jackson.core--><g id="link_org.vorpal.blade.framework.config_com.fasterxml.jackson.core"><path codeLine="17" d="M1250.66,376.48 C1082.85,389.43 771.89,414.17 507,439.44 C501.55,439.96 501.9297,439.9077 496.2797,440.4777 " fill="none" id="org.vorpal.blade.framework.config-to-com.fasterxml.jackson.core" style="stroke:#181818;stroke-width:1.0;"/><polygon fill="#181818" points="490.31,441.08,499.666,444.1564,495.2847,440.5781,498.863,436.1968,490.31,441.08" style="stroke:#181818;stroke-width:1.0;"/></g><!--link org.vorpal.blade.framework.config to com.fasterxml.jackson.databind.ser.std--><g id="link_org.vorpal.blade.framework.config_com.fasterxml.jackson.databind.ser.std"><path codeLine="18" d="M1265.79,379.94 C1131.66,395.88 909.2981,422.3019 775.1681,438.2419 " fill="none" id="org.vorpal.blade.framework.config-to-com.fasterxml.jackson.databind.ser.std" style="stroke:#181818;stroke-width:1.0;"/><polygon fill="#181818" points="769.21,438.95,778.6192,441.86,774.1751,438.36,777.6751,433.9159,769.21,438.95" style="stroke:#181818;stroke-width:1.0;"/></g><!--link org.vorpal.blade.framework.config to com.fasterxml.jackson.databind.jsonFormatVisitors--><g id="link_org.vorpal.blade.framework.config_com.fasterxml.jackson.databind.jsonFormatVisitors"><path codeLine="19" d="M1318.71,379.94 C1250.75,395.89 1140.8713,421.6794 1072.9813,437.6094 " fill="none" id="org.vorpal.blade.framework.config-to-com.fasterxml.jackson.databind.jsonFormatVisitors" style="stroke:#181818;stroke-width:1.0;"/><polygon fill="#181818" points="1067.14,438.98,1076.8158,440.8183,1072.0078,437.8378,1074.9883,433.0298,1067.14,438.98" style="stroke:#181818;stroke-width:1.0;"/></g><!--link org.vorpal.blade.framework.config to com.fasterxml.jackson.databind.deser.std--><g id="link_org.vorpal.blade.framework.config_com.fasterxml.jackson.databind.deser.std"><path codeLine="20" d="M1373,379.66 C1373,395.64 1373,417.17 1373,433.17 " fill="none" id="org.vorpal.blade.framework.config-to-com.fasterxml.jackson.databind.deser.std" style="stroke:#181818;stroke-width:1.0;"/><polygon fill="#181818" points="1373,439.17,1377,430.17,1373,434.17,1369,430.17,1373,439.17" style="stroke:#181818;stroke-width:1.0;"/></g><!--link org.vorpal.blade.framework.config to inet.ipaddr.ipv6--><g id="link_org.vorpal.blade.framework.config_inet.ipaddr.ipv6"><path codeLine="21" d="M1408.89,379.94 C1453.82,395.89 1524.6655,421.0434 1569.5555,436.9734 " fill="none" id="org.vorpal.blade.framework.config-to-inet.ipaddr.ipv6" style="stroke:#181818;stroke-width:1.0;"/><polygon fill="#181818" points="1575.21,438.98,1568.066,432.2004,1570.4979,437.3078,1565.3905,439.7398,1575.21,438.98" style="stroke:#181818;stroke-width:1.0;"/></g><!--link org.vorpal.blade.framework.config to inet.ipaddr--><g id="link_org.vorpal.blade.framework.config_inet.ipaddr"><path codeLine="22" d="M1428.79,379.94 C1503.89,397.09 1629.8806,425.8543 1696.3606,441.0343 " fill="none" id="org.vorpal.blade.framework.config-to-inet.ipaddr" style="stroke:#181818;stroke-width:1.0;"/><polygon fill="#181818" points="1702.21,442.37,1694.3263,436.4669,1697.3355,441.257,1692.5454,444.2661,1702.21,442.37" style="stroke:#181818;stroke-width:1.0;"/></g><!--link org.vorpal.blade.framework.config to inet.ipaddr.ipv4--><g id="link_org.vorpal.blade.framework.config_inet.ipaddr.ipv4"><path codeLine="23" d="M1448.7,379.94 C1549.91,396.97 1721.1431,425.7946 1811.9131,441.0646 " fill="none" id="org.vorpal.blade.framework.config-to-inet.ipaddr.ipv4" style="stroke:#181818;stroke-width:1.0;"/><polygon fill="#181818" points="1817.83,442.06,1809.6183,436.6224,1812.8993,441.2305,1808.2911,444.5115,1817.83,442.06" style="stroke:#181818;stroke-width:1.0;"/></g><!--link org.vorpal.blade.framework.config to org.apache.commons.collections4.trie--><g id="link_org.vorpal.blade.framework.config_org.apache.commons.collections4.trie"><path codeLine="24" d="M1482.63,379.94 C1619.77,395.88 1847.2701,422.3173 1984.4101,438.2573 " fill="none" id="org.vorpal.blade.framework.config-to-org.apache.commons.collections4.trie" style="stroke:#181818;stroke-width:1.0;"/><polygon fill="#181818" points="1990.37,438.95,1981.892,433.9377,1985.4034,438.3727,1980.9684,441.8842,1990.37,438.95" style="stroke:#181818;stroke-width:1.0;"/></g><!--link org.vorpal.blade.framework.config to inet.ipaddr.format.util--><g id="link_org.vorpal.blade.framework.config_inet.ipaddr.format.util"><path codeLine="25" d="M1495.31,375.53 C1665.11,387.48 1981.76,411.21 2251,439.44 C2256.6,440.03 2256.4105,439.9737 2262.2305,440.6537 " fill="none" id="org.vorpal.blade.framework.config-to-inet.ipaddr.format.util" style="stroke:#181818;stroke-width:1.0;"/><polygon fill="#181818" points="2268.19,441.35,2259.715,436.3326,2263.2238,440.7698,2258.7866,444.2785,2268.19,441.35" style="stroke:#181818;stroke-width:1.0;"/></g><!--link org.vorpal.blade.framework.deprecated.proxy to org.vorpal.blade.framework--><g id="link_org.vorpal.blade.framework.deprecated.proxy_org.vorpal.blade.framework"><path codeLine="26" d="M677.79,120.47 C723.86,136.42 796.6205,161.6162 842.6405,177.5562 " fill="none" id="org.vorpal.blade.framework.deprecated.proxy-to-org.vorpal.blade.framework" style="stroke:#181818;stroke-width:1.0;"/><polygon fill="#181818" points="848.31,179.52,841.1149,172.7947,843.5854,177.8835,838.4965,180.354,848.31,179.52" style="stroke:#181818;stroke-width:1.0;"/></g><!--link org.vorpal.blade.framework.deprecated.proxy to org.vorpal.blade.framework.callflow--><g id="link_org.vorpal.blade.framework.deprecated.proxy_org.vorpal.blade.framework.callflow"><path codeLine="27" d="M641,120.3 C641,151.92 641,228.48 641,260.12 " fill="none" id="org.vorpal.blade.framework.deprecated.proxy-to-org.vorpal.blade.framework.callflow" style="stroke:#181818;stroke-width:1.0;"/><polygon fill="#181818" points="641,266.12,645,257.12,641,261.12,637,257.12,641,266.12" style="stroke:#181818;stroke-width:1.0;"/></g><!--link org.vorpal.blade.framework.deprecated.proxy.callflows to org.vorpal.blade.framework.callflow--><g id="link_org.vorpal.blade.framework.deprecated.proxy.callflows_org.vorpal.blade.framework.callflow"><path codeLine="28" d="M513.52,33.91 C487.51,51.73 447.72,85.87 463,119.98 C494.83,191.01 570.6706,240.3961 611.4906,263.1761 " fill="none" id="org.vorpal.blade.framework.deprecated.proxy.callflows-to-org.vorpal.blade.framework.callflow" style="stroke:#181818;stroke-width:1.0;"/><polygon fill="#181818" points="616.73,266.1,610.8202,258.2213,612.3639,263.6634,606.9217,265.2071,616.73,266.1" style="stroke:#181818;stroke-width:1.0;"/></g><!--link org.vorpal.blade.framework.deprecated.proxy.callflows to org.vorpal.blade.framework.deprecated.proxy--><g id="link_org.vorpal.blade.framework.deprecated.proxy.callflows_org.vorpal.blade.framework.deprecated.proxy"><path codeLine="29" d="M549.79,33.71 C570.02,49.68 600.1802,73.5028 620.4402,89.4928 " fill="none" id="org.vorpal.blade.framework.deprecated.proxy.callflows-to-org.vorpal.blade.framework.deprecated.proxy" style="stroke:#181818;stroke-width:1.0;"/><polygon fill="#181818" points="625.15,93.21,620.5634,84.4943,621.2251,90.1123,615.6071,90.7741,625.15,93.21" style="stroke:#181818;stroke-width:1.0;"/></g><!--link org.vorpal.blade.framework.proxy to org.vorpal.blade.framework--><g id="link_org.vorpal.blade.framework.proxy_org.vorpal.blade.framework"><path codeLine="30" d="M673.23,352.5 C703.53,339.78 749.43,318.46 785,292.95 C821.68,266.65 853.6812,231.3692 870.7712,211.2892 " fill="none" id="org.vorpal.blade.framework.proxy-to-org.vorpal.blade.framework" style="stroke:#181818;stroke-width:1.0;"/><polygon fill="#181818" points="874.66,206.72,865.7807,210.9812,871.4193,210.5276,871.8729,216.1663,874.66,206.72" style="stroke:#181818;stroke-width:1.0;"/></g><!--link org.vorpal.blade.framework.v3.config to org.vorpal.blade.framework.config--><g id="link_org.vorpal.blade.framework.v3.config_org.vorpal.blade.framework.config"><path codeLine="32" d="M1215.7,293.36 C1250.57,309.29 1304.6925,333.997 1339.6525,349.967 " fill="none" id="org.vorpal.blade.framework.v3.config-to-org.vorpal.blade.framework.config" style="stroke:#181818;stroke-width:1.0;"/><polygon fill="#181818" points="1345.11,352.46,1338.5857,345.0821,1340.5621,350.3825,1335.2617,352.3588,1345.11,352.46" style="stroke:#181818;stroke-width:1.0;"/></g><text fill="#888888" font-family="sans-serif" font-size="10" lengthAdjust="spacing" textLength="176" x="1251.25" y="480.5963">UMLDoclet 2.1.2, PlantUML 1.2024.3</text><!--SRC=[nPTHRzCm4CVV-HIdIGYGg2kwYKUU44yWJKBmCktXObzIhxOlijrk5UAxupfTXoeD9ws19oTtvz__SZbV6m20iDAkHuyM6fIhplFQASc6FKIFBYGNkVW2Tf4KmQ6bP9FqbNQROWfpx2ZxbreHIEsb-UsUR1-tq6eoAXnRBSKb9tEsi-_4XdsFHZG65OasvKJtx5SmcttuWriOxZhjkZCfabshpuQWCQtX-m96D8jcZVyILc8yQjMfzMZSgAAFflMU7xP5M9RCACbMj1WY-GThn5rg_y1EA8pOQAScW2eKh9ILP4_L7aq4yY94LGzub-u-iRSOl-kWqrW8zTYAfgUh7KMXUrJAfsNp_hIjfmjUJUmUJ3DrISbgBRkGLcD8HfskhqJqcaxCfCslHAoZDYM2ejwJn4XgE4Td3fI9kD73xfXxs1Z-lyBnpf9IZJfNBUxcSkHKsy_jp7i5r-d4OaTWj5iDvruQ304kdYTSmCrDyiu7xpnxvmVll1-8ix2s5lrMBACrjxVm8yD_ZfDu7Bq5gNrK7ScXBWN58QYIuFxDbYJtONL4yn-EWcAEgIENMxpKCBkOEdB7fxYW_1J-DvDu6a9Jqpbih9FOOKGKyjXSJkdpz8b17bhctVBjo-UFd3uY8Yp4Ex5u2zS6NKnMUBaX7zAFukitlm00]--></g></svg>