<?xml version="1.0" encoding="us-ascii" standalone="no"?><svg xmlns="http://www.w3.org/2000/svg" xmlns:xlink="http://www.w3.org/1999/xlink" contentStyleType="text/css" height="295px" preserveAspectRatio="none" style="width:503px;height:295px;background:#FFFFFF;" version="1.1" viewBox="0 0 503 295" width="503px" zoomAndPan="magnify"><defs/><g><!--class org.vorpal.blade.framework.config.JsonUriSerializer--><a href="JsonUriSerializer.html" target="_top" title="JsonUriSerializer.html" xlink:actuate="onRequest" xlink:href="JsonUriSerializer.html" xlink:show="new" xlink:title="JsonUriSerializer.html" xlink:type="simple"><g id="elem_org.vorpal.blade.framework.config.JsonUriSerializer"><rect codeLine="5" fill="#F1F1F1" height="136.707" id="org.vorpal.blade.framework.config.JsonUriSerializer" rx="2.5" ry="2.5" style="stroke:#181818;stroke-width:0.5;" width="487" x="9" y="132.75"/><ellipse cx="164.25" cy="151.8828" fill="#ADD1B2" rx="11" ry="11" style="stroke:#181818;stroke-width:1.0;"/><path d="M166.7231,158.0259 Q166.1421,158.3247 165.5029,158.4741 Q164.8638,158.6235 164.1582,158.6235 Q161.6514,158.6235 160.3315,156.9717 Q159.0117,155.3198 159.0117,152.1987 Q159.0117,149.0693 160.3315,147.4175 Q161.6514,145.7656 164.1582,145.7656 Q164.8638,145.7656 165.5112,145.915 Q166.1587,146.0645 166.7231,146.3633 L166.7231,149.0859 Q166.0923,148.5049 165.4988,148.2351 Q164.9053,147.9653 164.2744,147.9653 Q162.9297,147.9653 162.2449,149.032 Q161.5601,150.0986 161.5601,152.1987 Q161.5601,154.2905 162.2449,155.3572 Q162.9297,156.4238 164.2744,156.4238 Q164.9053,156.4238 165.4988,156.1541 Q166.0923,155.8843 166.7231,155.3032 Z " fill="#000000"/><text fill="#000000" font-family="sans-serif" font-size="14" lengthAdjust="spacing" textLength="113" x="212.25" y="151.2852">JsonUriSerializer</text><text fill="#000000" font-family="sans-serif" font-size="10" lengthAdjust="spacing" textLength="168" x="184.75" y="163.9062">org.vorpal.blade.framework.config</text><line style="stroke:#181818;stroke-width:0.5;" x1="10" x2="495" y1="171.0156" y2="171.0156"/><rect fill="none" height="6" style="stroke:#C82930;stroke-width:1.0;" width="6" x="17" y="181.7598"/><text fill="#000000" font-family="sans-serif" font-size="14" lengthAdjust="spacing" text-decoration="underline" textLength="152" x="29" y="188.5508">serialVersionUID: long</text><line style="stroke:#181818;stroke-width:0.5;" x1="10" x2="495" y1="195.5039" y2="195.5039"/><ellipse cx="20" cy="209.248" fill="#84BE84" rx="3" ry="3" style="stroke:#038048;stroke-width:1.0;"/><text fill="#000000" font-family="sans-serif" font-size="14" lengthAdjust="spacing" textLength="123" x="29" y="213.0391">JsonUriSerializer()</text><polygon fill="#FFFF44" points="20,220.7363,24,224.7363,20,228.7363,16,224.7363" style="stroke:#B38D22;stroke-width:1.0;"/><text fill="#000000" font-family="sans-serif" font-size="14" lengthAdjust="spacing" textLength="204" x="29" y="229.5273">JsonUriSerializer(Class&lt;URI&gt;)</text><ellipse cx="20" cy="242.2246" fill="#84BE84" rx="3" ry="3" style="stroke:#038048;stroke-width:1.0;"/><text fill="#000000" font-family="sans-serif" font-size="14" lengthAdjust="spacing" textLength="362" x="29" y="246.0156">serialize(URI, JsonGenerator, SerializerProvider): void</text><ellipse cx="20" cy="258.7129" fill="#84BE84" rx="3" ry="3" style="stroke:#038048;stroke-width:1.0;"/><text fill="#000000" font-family="sans-serif" font-size="14" lengthAdjust="spacing" textLength="461" x="29" y="262.5039">acceptJsonFormatVisitor(JsonFormatVisitorWrapper, JavaType): void</text></g></a><!--class com.fasterxml.jackson.databind.ser.std.StdSerializer--><g id="elem_com.fasterxml.jackson.databind.ser.std.StdSerializer"><rect codeLine="13" fill="#F1F1F1" height="62.7539" id="com.fasterxml.jackson.databind.ser.std.StdSerializer" rx="2.5" ry="2.5" style="stroke:#181818;stroke-width:0.5;" width="388" x="58.5" y="10"/><ellipse cx="140.75" cy="29.1328" fill="#A9DCDF" rx="11" ry="11" style="stroke:#181818;stroke-width:1.0;"/><path d="M140.6133,24.481 L139.4595,29.5527 L141.7754,29.5527 Z M139.1191,22.2397 L142.1157,22.2397 L145.4609,34.6328 L143.0122,34.6328 L142.2485,31.5698 L138.9697,31.5698 L138.2227,34.6328 L135.7739,34.6328 Z " fill="#000000"/><text fill="#000000" font-family="sans-serif" font-size="14" font-style="italic" lengthAdjust="spacing" textLength="86" x="214.25" y="28.5352">StdSerializer</text><text fill="#000000" font-family="sans-serif" font-size="10" font-style="italic" lengthAdjust="spacing" textLength="192" x="161.25" y="41.1563">com.fasterxml.jackson.databind.ser.std</text><rect fill="#FFFFFF" height="16.1328" style="stroke:#181818;stroke-width:1.0;stroke-dasharray:2.0,2.0;" width="21" x="428.5" y="7"/><text fill="#000000" font-family="sans-serif" font-size="12" font-style="italic" lengthAdjust="spacing" textLength="19" x="429.5" y="19.6016">URI</text><line style="stroke:#181818;stroke-width:0.5;" x1="59.5" x2="445.5" y1="48.2656" y2="48.2656"/><ellipse cx="69.5" cy="62.0098" fill="#84BE84" rx="3" ry="3" style="stroke:#038048;stroke-width:1.0;"/><text fill="#000000" font-family="sans-serif" font-size="14" font-style="italic" lengthAdjust="spacing" textLength="362" x="78.5" y="65.8008">serialize(URI, JsonGenerator, SerializerProvider): void</text></g><!--reverse link com.fasterxml.jackson.databind.ser.std.StdSerializer to org.vorpal.blade.framework.config.JsonUriSerializer--><g id="link_com.fasterxml.jackson.databind.ser.std.StdSerializer_org.vorpal.blade.framework.config.JsonUriSerializer"><path codeLine="17" d="M252.5,91.16 C252.5,108.11 252.5,111.84 252.5,132.52 " fill="none" id="com.fasterxml.jackson.databind.ser.std.StdSerializer-backto-org.vorpal.blade.framework.config.JsonUriSerializer" style="stroke:#181818;stroke-width:1.0;"/><polygon fill="none" points="252.5,73.16,246.5,91.16,258.5,91.16,252.5,73.16" style="stroke:#181818;stroke-width:1.0;"/></g><text fill="#888888" font-family="sans-serif" font-size="10" lengthAdjust="spacing" textLength="176" x="156.5" y="285.125">UMLDoclet 2.1.2, PlantUML 1.2024.3</text><!--SRC=[fLDDJm8n4BtxAoOOaoL08yGJ8Lma6eWcH0GFo67epaAbssxQPXMH_svt-TGrqU1UchptPjvqNXS0m983XJ7P13aDA463JXjGMj6Pfs4kGWAA4xU4I90CxNSq9ZVN7ivnBj5QABMiUATc_QhTireDZHYG4IWzPfxLbhjiQpDZgJO9IZQL61ABZ9_ZLPi5urf5ObO2jF2hYXKyO3mkO6pkOZcPm2eVC_jMrg4JV0qrcwj6PApmLTrE4wHMixsmKcWMbFVaUP6ypdRG6ZvqsmTPnUxum1DLoAfkIL6-x2eSglj6ftwtfjo4L8lmq00vfyHbTJVQnEX6mWfV6nIG9uD9Ghvf3rDyN2Pqt6gzYGcdrXdahf3Nm8K_PiLrp2AqZinRBDaByeMtPI4wd0eLCdyxPbsO1_OtAVlYb6_hE9lTWEl_RMvxtLD6WjP7hNRAwziual9k46cT7SFxkuxcqlzf3LPdZIhq9IhdKRX8DwykA7y2]--></g></svg>