<?xml version="1.0" encoding="us-ascii" standalone="no"?><svg xmlns="http://www.w3.org/2000/svg" xmlns:xlink="http://www.w3.org/1999/xlink" contentStyleType="text/css" height="295px" preserveAspectRatio="none" style="width:503px;height:295px;background:#FFFFFF;" version="1.1" viewBox="0 0 503 295" width="503px" zoomAndPan="magnify"><defs/><g><!--class org.vorpal.blade.framework.config.JsonIPv6AddressSerializer--><a href="JsonIPv6AddressSerializer.html" target="_top" title="JsonIPv6AddressSerializer.html" xlink:actuate="onRequest" xlink:href="JsonIPv6AddressSerializer.html" xlink:show="new" xlink:title="JsonIPv6AddressSerializer.html" xlink:type="simple"><g id="elem_org.vorpal.blade.framework.config.JsonIPv6AddressSerializer"><rect codeLine="5" fill="#F1F1F1" height="136.707" id="org.vorpal.blade.framework.config.JsonIPv6AddressSerializer" rx="2.5" ry="2.5" style="stroke:#181818;stroke-width:0.5;" width="487" x="9" y="132.75"/><ellipse cx="159.75" cy="151.8828" fill="#ADD1B2" rx="11" ry="11" style="stroke:#181818;stroke-width:1.0;"/><path d="M162.2231,158.0259 Q161.6421,158.3247 161.0029,158.4741 Q160.3638,158.6235 159.6582,158.6235 Q157.1514,158.6235 155.8315,156.9717 Q154.5117,155.3198 154.5117,152.1987 Q154.5117,149.0693 155.8315,147.4175 Q157.1514,145.7656 159.6582,145.7656 Q160.3638,145.7656 161.0112,145.915 Q161.6587,146.0645 162.2231,146.3633 L162.2231,149.0859 Q161.5923,148.5049 160.9988,148.2351 Q160.4053,147.9653 159.7744,147.9653 Q158.4297,147.9653 157.7449,149.032 Q157.0601,150.0986 157.0601,152.1987 Q157.0601,154.2905 157.7449,155.3572 Q158.4297,156.4238 159.7744,156.4238 Q160.4053,156.4238 160.9988,156.1541 Q161.5923,155.8843 162.2231,155.3032 Z " fill="#000000"/><text fill="#000000" font-family="sans-serif" font-size="14" lengthAdjust="spacing" textLength="177" x="180.25" y="151.2852">JsonIPv6AddressSerializer</text><text fill="#000000" font-family="sans-serif" font-size="10" lengthAdjust="spacing" textLength="168" x="184.75" y="163.9062">org.vorpal.blade.framework.config</text><line style="stroke:#181818;stroke-width:0.5;" x1="10" x2="495" y1="171.0156" y2="171.0156"/><rect fill="none" height="6" style="stroke:#C82930;stroke-width:1.0;" width="6" x="17" y="181.7598"/><text fill="#000000" font-family="sans-serif" font-size="14" lengthAdjust="spacing" text-decoration="underline" textLength="152" x="29" y="188.5508">serialVersionUID: long</text><line style="stroke:#181818;stroke-width:0.5;" x1="10" x2="495" y1="195.5039" y2="195.5039"/><ellipse cx="20" cy="209.248" fill="#84BE84" rx="3" ry="3" style="stroke:#038048;stroke-width:1.0;"/><text fill="#000000" font-family="sans-serif" font-size="14" lengthAdjust="spacing" textLength="187" x="29" y="213.0391">JsonIPv6AddressSerializer()</text><polygon fill="#FFFF44" points="20,220.7363,24,224.7363,20,228.7363,16,224.7363" style="stroke:#B38D22;stroke-width:1.0;"/><text fill="#000000" font-family="sans-serif" font-size="14" lengthAdjust="spacing" textLength="329" x="29" y="229.5273">JsonIPv6AddressSerializer(Class&lt;IPv6Address&gt;)</text><ellipse cx="20" cy="242.2246" fill="#84BE84" rx="3" ry="3" style="stroke:#038048;stroke-width:1.0;"/><text fill="#000000" font-family="sans-serif" font-size="14" lengthAdjust="spacing" textLength="423" x="29" y="246.0156">serialize(IPv6Address, JsonGenerator, SerializerProvider): void</text><ellipse cx="20" cy="258.7129" fill="#84BE84" rx="3" ry="3" style="stroke:#038048;stroke-width:1.0;"/><text fill="#000000" font-family="sans-serif" font-size="14" lengthAdjust="spacing" textLength="461" x="29" y="262.5039">acceptJsonFormatVisitor(JsonFormatVisitorWrapper, JavaType): void</text></g></a><!--class com.fasterxml.jackson.databind.ser.std.StdSerializer--><g id="elem_com.fasterxml.jackson.databind.ser.std.StdSerializer"><rect codeLine="13" fill="#F1F1F1" height="62.7539" id="com.fasterxml.jackson.databind.ser.std.StdSerializer" rx="2.5" ry="2.5" style="stroke:#181818;stroke-width:0.5;" width="449" x="28" y="10"/><ellipse cx="114.25" cy="29.1328" fill="#A9DCDF" rx="11" ry="11" style="stroke:#181818;stroke-width:1.0;"/><path d="M114.1133,24.481 L112.9595,29.5527 L115.2754,29.5527 Z M112.6191,22.2397 L115.6157,22.2397 L118.9609,34.6328 L116.5122,34.6328 L115.7485,31.5698 L112.4697,31.5698 L111.7227,34.6328 L109.2739,34.6328 Z " fill="#000000"/><text fill="#000000" font-family="sans-serif" font-size="14" font-style="italic" lengthAdjust="spacing" textLength="86" x="187.75" y="28.5352">StdSerializer</text><text fill="#000000" font-family="sans-serif" font-size="10" font-style="italic" lengthAdjust="spacing" textLength="192" x="134.75" y="41.1563">com.fasterxml.jackson.databind.ser.std</text><rect fill="#FFFFFF" height="16.1328" style="stroke:#181818;stroke-width:1.0;stroke-dasharray:2.0,2.0;" width="74" x="406" y="7"/><text fill="#000000" font-family="sans-serif" font-size="12" font-style="italic" lengthAdjust="spacing" textLength="72" x="407" y="19.6016">IPv6Address</text><line style="stroke:#181818;stroke-width:0.5;" x1="29" x2="476" y1="48.2656" y2="48.2656"/><ellipse cx="39" cy="62.0098" fill="#84BE84" rx="3" ry="3" style="stroke:#038048;stroke-width:1.0;"/><text fill="#000000" font-family="sans-serif" font-size="14" font-style="italic" lengthAdjust="spacing" textLength="423" x="48" y="65.8008">serialize(IPv6Address, JsonGenerator, SerializerProvider): void</text></g><!--reverse link com.fasterxml.jackson.databind.ser.std.StdSerializer to org.vorpal.blade.framework.config.JsonIPv6AddressSerializer--><g id="link_com.fasterxml.jackson.databind.ser.std.StdSerializer_org.vorpal.blade.framework.config.JsonIPv6AddressSerializer"><path codeLine="17" d="M252.5,91.16 C252.5,108.11 252.5,111.84 252.5,132.52 " fill="none" id="com.fasterxml.jackson.databind.ser.std.StdSerializer-backto-org.vorpal.blade.framework.config.JsonIPv6AddressSerializer" style="stroke:#181818;stroke-width:1.0;"/><polygon fill="none" points="252.5,73.16,246.5,91.16,258.5,91.16,252.5,73.16" style="stroke:#181818;stroke-width:1.0;"/></g><text fill="#888888" font-family="sans-serif" font-size="10" lengthAdjust="spacing" textLength="176" x="156.5" y="285.125">UMLDoclet 2.1.2, PlantUML 1.2024.3</text><!--SRC=[hLDDIoD14BtxAmgNXGIJHaKyX12GbLqKXK2C7ZI7IdTDqcjFrz3LZ9_vx_PCD8aVmKLtBWslNhrNNQy7040eWiUSf41D0oemOEG0dZrjf39ChI6Wl8Xta5boHjwYESKf9xZ6jKCHsEoAlQVEpbxlMDWVzSlz0sC2YGmeM7If5gxyCsUxns6YIWu5EZLsQ4Xb8Srpm-5QQVQPdMm22dpAKckzuF9oRKrDO-v68tYenw- -1uaOhPv1MshMEGMnx8T7Xnrmx2SBujPQqKPpGVgndlIhsbLtfTPRjct92w-nGcX1fVQ7FDKXjM2frWzSfan2imCbMxCKGgsfY5NVRmuvndChDlKstY4N0Ok2akWnbdXsLz2gr6mUBuub1jJnNSw3Q3xCLdEkCfH8uJPtwY_gwsIh34OSMszKkgMIQEg0_usgNZczsjvgXY-3plxF9f-l_vKHeVlORd_dzSwToITNo9YhOtXwSiZQfJztL-setHRq7VgOKFXPpbzhe_a4]--></g></svg>