<?xml version="1.0" encoding="us-ascii" standalone="no"?><svg xmlns="http://www.w3.org/2000/svg" xmlns:xlink="http://www.w3.org/1999/xlink" contentStyleType="text/css" height="341px" preserveAspectRatio="none" style="width:410px;height:341px;background:#FFFFFF;" version="1.1" viewBox="0 0 410 341" width="410px" zoomAndPan="magnify"><defs/><g><!--class org.vorpal.blade.services.options.OptionsSipServlet--><a href="OptionsSipServlet.html" target="_top" title="OptionsSipServlet.html" xlink:actuate="onRequest" xlink:href="OptionsSipServlet.html" xlink:show="new" xlink:title="OptionsSipServlet.html" xlink:type="simple"><g id="elem_org.vorpal.blade.services.options.OptionsSipServlet"><rect codeLine="5" fill="#F1F1F1" height="153.1953" id="org.vorpal.blade.services.options.OptionsSipServlet" rx="2.5" ry="2.5" style="stroke:#181818;stroke-width:0.5;" width="394" x="9" y="162.73"/><ellipse cx="121.75" cy="181.8628" fill="#ADD1B2" rx="11" ry="11" style="stroke:#181818;stroke-width:1.0;"/><path d="M124.2231,188.0059 Q123.6421,188.3047 123.0029,188.4541 Q122.3638,188.6035 121.6582,188.6035 Q119.1514,188.6035 117.8315,186.9517 Q116.5117,185.2998 116.5117,182.1787 Q116.5117,179.0493 117.8315,177.3975 Q119.1514,175.7456 121.6582,175.7456 Q122.3638,175.7456 123.0112,175.895 Q123.6587,176.0445 124.2231,176.3433 L124.2231,179.0659 Q123.5923,178.4849 122.9988,178.2151 Q122.4053,177.9453 121.7744,177.9453 Q120.4297,177.9453 119.7449,179.012 Q119.0601,180.0786 119.0601,182.1787 Q119.0601,184.2705 119.7449,185.3372 Q120.4297,186.4038 121.7744,186.4038 Q122.4053,186.4038 122.9988,186.1341 Q123.5923,185.8643 124.2231,185.2832 Z " fill="#000000"/><text fill="#000000" font-family="sans-serif" font-size="14" lengthAdjust="spacing" textLength="121" x="161.75" y="181.2652">OptionsSipServlet</text><text fill="#000000" font-family="sans-serif" font-size="10" lengthAdjust="spacing" textLength="160" x="142.25" y="193.8863">org.vorpal.blade.services.options</text><line style="stroke:#181818;stroke-width:0.5;" x1="10" x2="402" y1="200.9956" y2="200.9956"/><rect fill="none" height="6" style="stroke:#C82930;stroke-width:1.0;" width="6" x="17" y="211.7398"/><text fill="#000000" font-family="sans-serif" font-size="14" lengthAdjust="spacing" text-decoration="underline" textLength="152" x="29" y="218.5308">serialVersionUID: long</text><ellipse cx="20" cy="231.228" fill="none" rx="3" ry="3" style="stroke:#038048;stroke-width:1.0;"/><text fill="#000000" font-family="sans-serif" font-size="14" lengthAdjust="spacing" text-decoration="underline" textLength="368" x="29" y="235.0191">settingsManager: SettingsManager&lt;OptionsSettings&gt;</text><line style="stroke:#181818;stroke-width:0.5;" x1="10" x2="402" y1="241.9722" y2="241.9722"/><ellipse cx="20" cy="255.7163" fill="#84BE84" rx="3" ry="3" style="stroke:#038048;stroke-width:1.0;"/><text fill="#000000" font-family="sans-serif" font-size="14" lengthAdjust="spacing" text-decoration="underline" textLength="256" x="29" y="259.5073">sessionKey(SipServletRequest): String</text><polygon fill="#FFFF44" points="20,267.2046,24,271.2046,20,275.2046,16,271.2046" style="stroke:#B38D22;stroke-width:1.0;"/><text fill="#000000" font-family="sans-serif" font-size="14" lengthAdjust="spacing" textLength="305" x="29" y="275.9956">servletCreated(SipServletContextEvent): void</text><polygon fill="#FFFF44" points="20,283.6929,24,287.6929,20,291.6929,16,287.6929" style="stroke:#B38D22;stroke-width:1.0;"/><text fill="#000000" font-family="sans-serif" font-size="14" lengthAdjust="spacing" textLength="320" x="29" y="292.4839">servletDestroyed(SipServletContextEvent): void</text><polygon fill="#FFFF44" points="20,300.1812,24,304.1812,20,308.1812,16,304.1812" style="stroke:#B38D22;stroke-width:1.0;"/><text fill="#000000" font-family="sans-serif" font-size="14" lengthAdjust="spacing" textLength="299" x="29" y="308.9722">chooseCallflow(SipServletRequest): Callflow</text></g></a><!--class org.vorpal.blade.framework.AsyncSipServlet--><a href="https://vorpalnet.github.io/blade/vorpal-blade-library-framework/org/vorpal/blade/framework/AsyncSipServlet.html?is-external=true" target="_top" title="https://vorpalnet.github.io/blade/vorpal-blade-library-framework/org/vorpal/blade/framework/AsyncSipServlet.html?is-external=true" xlink:actuate="onRequest" xlink:href="https://vorpalnet.github.io/blade/vorpal-blade-library-framework/org/vorpal/blade/framework/AsyncSipServlet.html?is-external=true" xlink:show="new" xlink:title="https://vorpalnet.github.io/blade/vorpal-blade-library-framework/org/vorpal/blade/framework/AsyncSipServlet.html?is-external=true" xlink:type="simple"><g id="elem_org.vorpal.blade.framework.AsyncSipServlet"><rect codeLine="14" fill="#F1F1F1" height="95.7305" id="org.vorpal.blade.framework.AsyncSipServlet" rx="2.5" ry="2.5" style="stroke:#181818;stroke-width:0.5;" width="346" x="33" y="7"/><ellipse cx="134.25" cy="26.1328" fill="#A9DCDF" rx="11" ry="11" style="stroke:#181818;stroke-width:1.0;"/><path d="M134.1133,21.481 L132.9595,26.5527 L135.2754,26.5527 Z M132.6191,19.2397 L135.6157,19.2397 L138.9609,31.6328 L136.5122,31.6328 L135.7485,28.5698 L132.4697,28.5698 L131.7227,31.6328 L129.2739,31.6328 Z " fill="#000000"/><text fill="#000000" font-family="sans-serif" font-size="14" font-style="italic" lengthAdjust="spacing" textLength="107" x="168.75" y="25.5352">AsyncSipServlet</text><text fill="#000000" font-family="sans-serif" font-size="10" font-style="italic" lengthAdjust="spacing" textLength="135" x="154.75" y="38.1563">org.vorpal.blade.framework</text><line style="stroke:#181818;stroke-width:0.5;" x1="34" x2="378" y1="45.2656" y2="45.2656"/><polygon fill="#FFFF44" points="44,54.0098,48,58.0098,44,62.0098,40,58.0098" style="stroke:#B38D22;stroke-width:1.0;"/><text fill="#000000" font-family="sans-serif" font-size="14" font-style="italic" lengthAdjust="spacing" textLength="305" x="53" y="62.8008">servletCreated(SipServletContextEvent): void</text><polygon fill="#FFFF44" points="44,70.498,48,74.498,44,78.498,40,74.498" style="stroke:#B38D22;stroke-width:1.0;"/><text fill="#000000" font-family="sans-serif" font-size="14" font-style="italic" lengthAdjust="spacing" textLength="320" x="53" y="79.2891">servletDestroyed(SipServletContextEvent): void</text><polygon fill="#FFFF44" points="44,86.9863,48,90.9863,44,94.9863,40,90.9863" style="stroke:#B38D22;stroke-width:1.0;"/><text fill="#000000" font-family="sans-serif" font-size="14" font-style="italic" lengthAdjust="spacing" textLength="299" x="53" y="95.7773">chooseCallflow(SipServletRequest): Callflow</text></g></a><!--reverse link org.vorpal.blade.framework.AsyncSipServlet to org.vorpal.blade.services.options.OptionsSipServlet--><g id="link_org.vorpal.blade.framework.AsyncSipServlet_org.vorpal.blade.services.options.OptionsSipServlet"><path codeLine="20" d="M206,120.86 C206,139.02 206,142.27 206,162.48 " fill="none" id="org.vorpal.blade.framework.AsyncSipServlet-backto-org.vorpal.blade.services.options.OptionsSipServlet" style="stroke:#181818;stroke-width:1.0;"/><polygon fill="none" points="206,102.86,200,120.86,212,120.86,206,102.86" style="stroke:#181818;stroke-width:1.0;"/></g><text fill="#888888" font-family="sans-serif" font-size="10" lengthAdjust="spacing" textLength="176" x="110" y="331.5933">UMLDoclet 2.1.2, PlantUML 1.2024.3</text><!--SRC=[dLHDRzD04BtpAqP5IAt03gquHMaGIZWWg414vTBsCB4dzehDZjcPk9YI_yxw8sqQHwADBvRVp7jlD6_N00122WwN90KcDAC2FIfxSEpeHIX3Rb82MXPQmSAGJMKNNPBc7E06JooAmD58p1yQdhuRVotKi9EPAMRaIqjwxRhQsp7xB2xP5sZZkSMKOWaj9Y69kMKT0GhyjolkUS3LLG-BSrtQcnkuQyQidpjHL9Ei8GgA1kqFyX8ubv-cGx3iidxZwx0hDIwJ2tIOaH_2x34msjXsy7YlXjGsdwawVfZkE_rQaUX9K5HljhnVIjimyOHAwHPbmaxfjtuioTMyaatQOqs3fkVgwRmaPnQQeBKBoxTx1zmK6zAwJHtdmGSJxSN_GIgNF2tyXG-7y9Rzp_sftvVZ7SqGTgvQo70mQ0akX9qPpLVpsF2WONULgFc8h9bxz5LqBpa8RbrBr_zGsd5hZj5x8r5O8Nc7zbpzYXwVgyqsrWUcjqVWkK5kInoOwJCI6FsDeaFkQVl72EEJXmLp_Rgy-3Bbf1OzYq_ZipVmpQBJWCAhihsVnoV_0000]--></g></svg>