<?xml version="1.0" encoding="us-ascii" standalone="no"?><svg xmlns="http://www.w3.org/2000/svg" xmlns:xlink="http://www.w3.org/1999/xlink" contentStyleType="text/css" height="416px" preserveAspectRatio="none" style="width:331px;height:416px;background:#FFFFFF;" version="1.1" viewBox="0 0 331 416" width="331px" zoomAndPan="magnify"><defs/><g><!--class org.vorpal.blade.applications.console.config.ConfigurationMonitor--><a href="ConfigurationMonitor.html" target="_top" title="ConfigurationMonitor.html" xlink:actuate="onRequest" xlink:href="ConfigurationMonitor.html" xlink:show="new" xlink:title="ConfigurationMonitor.html" xlink:type="simple"><g id="elem_org.vorpal.blade.applications.console.config.ConfigurationMonitor"><rect codeLine="5" fill="#F1F1F1" height="285.1016" id="org.vorpal.blade.applications.console.config.ConfigurationMonitor" rx="2.5" ry="2.5" style="stroke:#181818;stroke-width:0.5;" width="315" x="9" y="105.27"/><ellipse cx="55.25" cy="124.4028" fill="#ADD1B2" rx="11" ry="11" style="stroke:#181818;stroke-width:1.0;"/><path d="M57.7231,130.5459 Q57.1421,130.8447 56.5029,130.9941 Q55.8638,131.1435 55.1582,131.1435 Q52.6514,131.1435 51.3315,129.4917 Q50.0117,127.8398 50.0117,124.7187 Q50.0117,121.5893 51.3315,119.9375 Q52.6514,118.2856 55.1582,118.2856 Q55.8638,118.2856 56.5112,118.435 Q57.1587,118.5845 57.7231,118.8833 L57.7231,121.6059 Q57.0923,121.0249 56.4988,120.7551 Q55.9053,120.4853 55.2744,120.4853 Q53.9297,120.4853 53.2449,121.552 Q52.5601,122.6186 52.5601,124.7187 Q52.5601,126.8105 53.2449,127.8772 Q53.9297,128.9438 55.2744,128.9438 Q55.9053,128.9438 56.4988,128.6741 Q57.0923,128.4043 57.7231,127.8232 Z " fill="#000000"/><text fill="#000000" font-family="sans-serif" font-size="14" lengthAdjust="spacing" textLength="150" x="107.75" y="123.8052">ConfigurationMonitor</text><text fill="#000000" font-family="sans-serif" font-size="10" lengthAdjust="spacing" textLength="214" x="75.75" y="136.4262">org.vorpal.blade.applications.console.config</text><line style="stroke:#181818;stroke-width:0.5;" x1="10" x2="323" y1="143.5356" y2="143.5356"/><rect fill="none" height="6" style="stroke:#C82930;stroke-width:1.0;" width="6" x="17" y="154.2798"/><text fill="#000000" font-family="sans-serif" font-size="14" lengthAdjust="spacing" textLength="151" x="29" y="161.0708">watcher: WatchService</text><rect fill="none" height="6" style="stroke:#C82930;stroke-width:1.0;" width="6" x="17" y="170.768"/><text fill="#000000" font-family="sans-serif" font-size="14" lengthAdjust="spacing" textLength="192" x="29" y="177.5591">keys: Map&lt;WatchKey, Path&gt;</text><rect fill="none" height="6" style="stroke:#C82930;stroke-width:1.0;" width="6" x="17" y="187.2563"/><text fill="#000000" font-family="sans-serif" font-size="14" lengthAdjust="spacing" textLength="126" x="29" y="194.0473">recursive: boolean</text><rect fill="none" height="6" style="stroke:#C82930;stroke-width:1.0;" width="6" x="17" y="203.7446"/><text fill="#000000" font-family="sans-serif" font-size="14" lengthAdjust="spacing" textLength="98" x="29" y="210.5356">trace: boolean</text><line style="stroke:#181818;stroke-width:0.5;" x1="10" x2="323" y1="217.4887" y2="217.4887"/><polygon fill="#4177AF" points="20,227.2329,16,233.2329,24,233.2329" style="stroke:#1963A0;stroke-width:1.0;"/><text fill="#000000" font-family="sans-serif" font-size="14" lengthAdjust="spacing" text-decoration="underline" textLength="260" x="29" y="235.0239">cast(WatchEvent&lt;?&gt;): WatchEvent&lt;T&gt;</text><rect fill="#F24D5C" height="6" style="stroke:#C82930;stroke-width:1.0;" width="6" x="17" y="244.7212"/><text fill="#000000" font-family="sans-serif" font-size="14" lengthAdjust="spacing" textLength="130" x="29" y="251.5122">register(Path): void</text><rect fill="#F24D5C" height="6" style="stroke:#C82930;stroke-width:1.0;" width="6" x="17" y="261.2095"/><text fill="#000000" font-family="sans-serif" font-size="14" lengthAdjust="spacing" textLength="148" x="29" y="268.0005">registerAll(Path): void</text><ellipse cx="20" cy="280.6977" fill="#84BE84" rx="3" ry="3" style="stroke:#038048;stroke-width:1.0;"/><text fill="#000000" font-family="sans-serif" font-size="14" lengthAdjust="spacing" textLength="199" x="29" y="284.4888">initialize(Path, boolean): void</text><polygon fill="#4177AF" points="20,293.186,16,299.186,24,299.186" style="stroke:#1963A0;stroke-width:1.0;"/><text fill="#000000" font-family="sans-serif" font-size="14" lengthAdjust="spacing" textLength="144" x="29" y="300.977">processEvents(): void</text><ellipse cx="20" cy="313.6743" fill="#84BE84" rx="3" ry="3" style="stroke:#038048;stroke-width:1.0;"/><text fill="#000000" font-family="sans-serif" font-size="14" lengthAdjust="spacing" textLength="204" x="29" y="317.4653">isSharedFilesystem(): boolean</text><ellipse cx="20" cy="330.1626" fill="#84BE84" rx="3" ry="3" style="stroke:#038048;stroke-width:1.0;"/><text fill="#000000" font-family="sans-serif" font-size="14" lengthAdjust="spacing" textLength="283" x="29" y="333.9536">isSharedFilesystem(String, Path): boolean</text><ellipse cx="20" cy="346.6509" fill="#84BE84" rx="3" ry="3" style="stroke:#038048;stroke-width:1.0;"/><text fill="#000000" font-family="sans-serif" font-size="14" lengthAdjust="spacing" textLength="289" x="29" y="350.4419">updateManagedMBeans(Path, String): void</text><ellipse cx="20" cy="363.1391" fill="#84BE84" rx="3" ry="3" style="stroke:#038048;stroke-width:1.0;"/><text fill="#000000" font-family="sans-serif" font-size="14" lengthAdjust="spacing" text-decoration="underline" textLength="176" x="29" y="366.9302">queryApps(): Set&lt;String&gt;</text><ellipse cx="20" cy="379.6274" fill="#84BE84" rx="3" ry="3" style="stroke:#038048;stroke-width:1.0;"/><text fill="#000000" font-family="sans-serif" font-size="14" lengthAdjust="spacing" textLength="71" x="29" y="383.4184">run(): void</text></g></a><!--class java.lang.Thread--><a href="https://docs.oracle.com/en/java/javase/11/docs/api/java.base/java/lang/Thread.html?is-external=true" target="_top" title="https://docs.oracle.com/en/java/javase/11/docs/api/java.base/java/lang/Thread.html?is-external=true" xlink:actuate="onRequest" xlink:href="https://docs.oracle.com/en/java/javase/11/docs/api/java.base/java/lang/Thread.html?is-external=true" xlink:show="new" xlink:title="https://docs.oracle.com/en/java/javase/11/docs/api/java.base/java/lang/Thread.html?is-external=true" xlink:type="simple"><g id="elem_java.lang.Thread"><rect codeLine="22" fill="#F1F1F1" height="38.2656" id="java.lang.Thread" rx="2.5" ry="2.5" style="stroke:#181818;stroke-width:0.5;" width="81" x="126" y="7"/><ellipse cx="141" cy="26.1328" fill="#ADD1B2" rx="11" ry="11" style="stroke:#181818;stroke-width:1.0;"/><path d="M143.4731,32.2759 Q142.8921,32.5747 142.2529,32.7241 Q141.6138,32.8735 140.9082,32.8735 Q138.4014,32.8735 137.0815,31.2217 Q135.7617,29.5698 135.7617,26.4487 Q135.7617,23.3193 137.0815,21.6675 Q138.4014,20.0156 140.9082,20.0156 Q141.6138,20.0156 142.2612,20.165 Q142.9087,20.3145 143.4731,20.6133 L143.4731,23.3359 Q142.8423,22.7549 142.2488,22.4851 Q141.6553,22.2153 141.0244,22.2153 Q139.6797,22.2153 138.9949,23.282 Q138.3101,24.3486 138.3101,26.4487 Q138.3101,28.5405 138.9949,29.6072 Q139.6797,30.6738 141.0244,30.6738 Q141.6553,30.6738 142.2488,30.4041 Q142.8423,30.1343 143.4731,29.5532 Z " fill="#000000"/><text fill="#000000" font-family="sans-serif" font-size="14" lengthAdjust="spacing" textLength="49" x="155" y="25.5352">Thread</text><text fill="#000000" font-family="sans-serif" font-size="10" lengthAdjust="spacing" textLength="44" x="157.5" y="38.1563">java.lang</text></g></a><!--reverse link java.lang.Thread to org.vorpal.blade.applications.console.config.ConfigurationMonitor--><g id="link_java.lang.Thread_org.vorpal.blade.applications.console.config.ConfigurationMonitor"><path codeLine="24" d="M166.5,63.49 C166.5,77.82 166.5,81.21 166.5,104.77 " fill="none" id="java.lang.Thread-backto-org.vorpal.blade.applications.console.config.ConfigurationMonitor" style="stroke:#181818;stroke-width:1.0;"/><polygon fill="none" points="166.5,45.49,160.5,63.49,172.5,63.49,166.5,45.49" style="stroke:#181818;stroke-width:1.0;"/></g><text fill="#888888" font-family="sans-serif" font-size="10" lengthAdjust="spacing" textLength="176" x="70.5" y="406.0395">UMLDoclet 2.1.2, PlantUML 1.2024.3</text><!--SRC=[fLDBRzD04BxpAqQLa8BIh4d5AKfJbTS58Y6bY4F9OM9FueNrxhApDeG-VZlZTThGn1U43sllVD_CVFCm001J18iLiSUS5kGnO7G1hBFqJ60eTK50bOzRM6io1HzQAugb4tEovmQPuMJA-ZTDngzcRvnTwqqjCRMpSsUrnFvgT_3BcGiRrRZWqQYLmO8KUczqdjYiSZcSeVOjGKu06Vx5GVKbX-lhFhCgOsMMIxX9LRJFw2V6lAGmWI_jnu92etFQmzzfonEOevyc_0DjJ-4JndAsfmJAwy2weGcidEX2kyTYa7OVssyuYgpy3kvpv3X8eTyrPEFqOlPY9wMxNpr9jD4SAGnQ0K9hd2wEqKjZUWb3BItGQ6Gc2JzzK7L8lFV1vSIS1F3WE0ulIWnKlDU6U2ifgvPpM68VRH63jfkkWNqkjIymqXmjRgYOlnQCTr8xpqCfZsqS_gWfR2-zJt8N5AUTmxvvmr3R9wNSzM_oLHa8Yxzsznisg0pQRZ4VRweZofwLCNgUP5dXSbPEvfqsiyh8PYqx7KpPU9mO6NgTJ6hLMXEZZPTryTA2NcWUqIyPfKLp7aDDosKdzYZxz7Oq-l-VfMk439i2h9rhNv_d7zywgIJ2cHghCncPf8rYXUSDoR8xQUOV]--></g></svg>