<?xml version="1.0" encoding="us-ascii" standalone="no"?><svg xmlns="http://www.w3.org/2000/svg" xmlns:xlink="http://www.w3.org/1999/xlink" contentStyleType="text/css" height="1280px" preserveAspectRatio="none" style="width:1952px;height:1280px;background:#FFFFFF;" version="1.1" viewBox="0 0 1952 1280" width="1952px" zoomAndPan="magnify"><defs/><g><!--cluster org.vorpal.blade.applications.console.config--><g id="cluster_org.vorpal.blade.applications.console.config"><path d="M522.5,533.72 L834.5,533.72 A3.75,3.75 0 0 1 837,536.22 L844,556.2083 L1942.5,556.2083 A2.5,2.5 0 0 1 1945,558.7083 L1945,1251.87 A2.5,2.5 0 0 1 1942.5,1254.37 L522.5,1254.37 A2.5,2.5 0 0 1 520,1251.87 L520,536.22 A2.5,2.5 0 0 1 522.5,533.72 " fill="none" style="stroke:#000000;stroke-width:1.5;"/><line style="stroke:#000000;stroke-width:1.5;" x1="520" x2="844" y1="556.2083" y2="556.2083"/><text fill="#000000" font-family="sans-serif" font-size="14" font-weight="bold" lengthAdjust="spacing" textLength="311" x="524" y="549.2552">org.vorpal.blade.applications.console.config</text></g><!--cluster javax.servlet--><g id="cluster_javax.servlet"><path d="M522.5,80.2 L612.5,80.2 A3.75,3.75 0 0 1 615,82.7 L622,102.6883 L881.5,102.6883 A2.5,2.5 0 0 1 884,105.1883 L884,209.68 A2.5,2.5 0 0 1 881.5,212.18 L522.5,212.18 A2.5,2.5 0 0 1 520,209.68 L520,82.7 A2.5,2.5 0 0 1 522.5,80.2 " fill="none" style="stroke:#000000;stroke-width:1.5;"/><line style="stroke:#000000;stroke-width:1.5;" x1="520" x2="622" y1="102.6883" y2="102.6883"/><text fill="#000000" font-family="sans-serif" font-size="14" font-weight="bold" lengthAdjust="spacing" textLength="89" x="524" y="95.7352">javax.servlet</text></g><!--cluster javax.servlet.http--><g id="cluster_javax.servlet.http"><path d="M978.5,6 L1101.5,6 A3.75,3.75 0 0 1 1104,8.5 L1111,28.4883 L1227.5,28.4883 A2.5,2.5 0 0 1 1230,30.9883 L1230,283.87 A2.5,2.5 0 0 1 1227.5,286.37 L978.5,286.37 A2.5,2.5 0 0 1 976,283.87 L976,8.5 A2.5,2.5 0 0 1 978.5,6 " fill="none" style="stroke:#000000;stroke-width:1.5;"/><line style="stroke:#000000;stroke-width:1.5;" x1="976" x2="1111" y1="28.4883" y2="28.4883"/><text fill="#000000" font-family="sans-serif" font-size="14" font-weight="bold" lengthAdjust="spacing" textLength="122" x="980" y="21.5352">javax.servlet.http</text></g><!--cluster java.lang--><g id="cluster_java.lang"><path d="M8.5,319.37 L72.5,319.37 A3.75,3.75 0 0 1 75,321.87 L82,341.8583 L493.5,341.8583 A2.5,2.5 0 0 1 496,344.3583 L496,894.03 A2.5,2.5 0 0 1 493.5,896.53 L8.5,896.53 A2.5,2.5 0 0 1 6,894.03 L6,321.87 A2.5,2.5 0 0 1 8.5,319.37 " fill="none" style="stroke:#000000;stroke-width:1.5;"/><line style="stroke:#000000;stroke-width:1.5;" x1="6" x2="82" y1="341.8583" y2="341.8583"/><text fill="#000000" font-family="sans-serif" font-size="14" font-weight="bold" lengthAdjust="spacing" textLength="63" x="10" y="334.9052">java.lang</text></g><!--class ConfigurationMonitorStartup--><a href="ConfigurationMonitorStartup.html" target="_top" title="ConfigurationMonitorStartup.html" xlink:actuate="onRequest" xlink:href="ConfigurationMonitorStartup.html" xlink:show="new" xlink:title="ConfigurationMonitorStartup.html" xlink:type="simple"><g id="elem_ConfigurationMonitorStartup"><rect codeLine="5" fill="#F1F1F1" height="80.9766" id="ConfigurationMonitorStartup" rx="2.5" ry="2.5" style="stroke:#181818;stroke-width:0.5;" width="332" x="536" y="576.97"/><ellipse cx="597.75" cy="592.97" fill="#ADD1B2" rx="11" ry="11" style="stroke:#181818;stroke-width:1.0;"/><path d="M600.2231,599.1131 Q599.6421,599.4119 599.0029,599.5613 Q598.3638,599.7107 597.6582,599.7107 Q595.1514,599.7107 593.8315,598.0589 Q592.5117,596.407 592.5117,593.2859 Q592.5117,590.1565 593.8315,588.5047 Q595.1514,586.8528 597.6582,586.8528 Q598.3638,586.8528 599.0112,587.0022 Q599.6587,587.1516 600.2231,587.4505 L600.2231,590.1731 Q599.5923,589.5921 598.9988,589.3223 Q598.4053,589.0525 597.7744,589.0525 Q596.4297,589.0525 595.7449,590.1192 Q595.0601,591.1858 595.0601,593.2859 Q595.0601,595.3777 595.7449,596.4444 Q596.4297,597.511 597.7744,597.511 Q598.4053,597.511 598.9988,597.2412 Q599.5923,596.9715 600.2231,596.3904 Z " fill="#000000"/><text fill="#000000" font-family="sans-serif" font-size="14" lengthAdjust="spacing" textLength="200" x="618.25" y="598.261">ConfigurationMonitorStartup</text><line style="stroke:#181818;stroke-width:0.5;" x1="537" x2="867" y1="608.97" y2="608.97"/><line style="stroke:#181818;stroke-width:0.5;" x1="537" x2="867" y1="616.97" y2="616.97"/><ellipse cx="547" cy="630.7141" fill="#84BE84" rx="3" ry="3" style="stroke:#038048;stroke-width:1.0;"/><text fill="#000000" font-family="sans-serif" font-size="14" lengthAdjust="spacing" textLength="304" x="556" y="634.5052">contextInitialized(ServletContextEvent): void</text><ellipse cx="547" cy="647.2024" fill="#84BE84" rx="3" ry="3" style="stroke:#038048;stroke-width:1.0;"/><text fill="#000000" font-family="sans-serif" font-size="14" lengthAdjust="spacing" textLength="306" x="556" y="650.9934">contextDestroyed(ServletContextEvent): void</text></g></a><!--class SaveDataServlet--><a href="SaveDataServlet.html" target="_top" title="SaveDataServlet.html" xlink:actuate="onRequest" xlink:href="SaveDataServlet.html" xlink:show="new" xlink:title="SaveDataServlet.html" xlink:type="simple"><g id="elem_SaveDataServlet"><rect codeLine="10" fill="#F1F1F1" height="64.4883" id="SaveDataServlet" rx="2.5" ry="2.5" style="stroke:#181818;stroke-width:0.5;" width="399" x="903.5" y="585.21"/><ellipse cx="1044.75" cy="601.21" fill="#ADD1B2" rx="11" ry="11" style="stroke:#181818;stroke-width:1.0;"/><path d="M1047.2231,607.3531 Q1046.6421,607.6519 1046.0029,607.8013 Q1045.3638,607.9507 1044.6582,607.9507 Q1042.1514,607.9507 1040.8315,606.2989 Q1039.5117,604.647 1039.5117,601.5259 Q1039.5117,598.3965 1040.8315,596.7447 Q1042.1514,595.0928 1044.6582,595.0928 Q1045.3638,595.0928 1046.0112,595.2422 Q1046.6587,595.3916 1047.2231,595.6905 L1047.2231,598.4131 Q1046.5923,597.8321 1045.9988,597.5623 Q1045.4053,597.2925 1044.7744,597.2925 Q1043.4297,597.2925 1042.7449,598.3592 Q1042.0601,599.4258 1042.0601,601.5259 Q1042.0601,603.6177 1042.7449,604.6844 Q1043.4297,605.751 1044.7744,605.751 Q1045.4053,605.751 1045.9988,605.4812 Q1046.5923,605.2115 1047.2231,604.6304 Z " fill="#000000"/><text fill="#000000" font-family="sans-serif" font-size="14" lengthAdjust="spacing" textLength="108" x="1065.25" y="606.501">SaveDataServlet</text><line style="stroke:#181818;stroke-width:0.5;" x1="904.5" x2="1301.5" y1="617.21" y2="617.21"/><line style="stroke:#181818;stroke-width:0.5;" x1="904.5" x2="1301.5" y1="625.21" y2="625.21"/><ellipse cx="914.5" cy="638.9541" fill="#84BE84" rx="3" ry="3" style="stroke:#038048;stroke-width:1.0;"/><text fill="#000000" font-family="sans-serif" font-size="14" lengthAdjust="spacing" textLength="373" x="923.5" y="642.7452">doPost(HttpServletRequest, HttpServletResponse): void</text></g></a><!--class FileManagement--><a href="FileManagement.html" target="_top" title="FileManagement.html" xlink:actuate="onRequest" xlink:href="FileManagement.html" xlink:show="new" xlink:title="FileManagement.html" xlink:type="simple"><g id="elem_FileManagement"><rect codeLine="14" fill="#F1F1F1" height="97.4648" id="FileManagement" rx="2.5" ry="2.5" style="stroke:#181818;stroke-width:0.5;" width="217" x="1337.5" y="568.72"/><ellipse cx="1385.25" cy="584.72" fill="#ADD1B2" rx="11" ry="11" style="stroke:#181818;stroke-width:1.0;"/><path d="M1387.7231,590.8631 Q1387.1421,591.1619 1386.5029,591.3113 Q1385.8638,591.4607 1385.1582,591.4607 Q1382.6514,591.4607 1381.3315,589.8089 Q1380.0117,588.157 1380.0117,585.0359 Q1380.0117,581.9065 1381.3315,580.2547 Q1382.6514,578.6028 1385.1582,578.6028 Q1385.8638,578.6028 1386.5112,578.7522 Q1387.1587,578.9016 1387.7231,579.2005 L1387.7231,581.9231 Q1387.0923,581.3421 1386.4988,581.0723 Q1385.9053,580.8025 1385.2744,580.8025 Q1383.9297,580.8025 1383.2449,581.8692 Q1382.5601,582.9358 1382.5601,585.0359 Q1382.5601,587.1277 1383.2449,588.1944 Q1383.9297,589.261 1385.2744,589.261 Q1385.9053,589.261 1386.4988,588.9912 Q1387.0923,588.7215 1387.7231,588.1404 Z " fill="#000000"/><text fill="#000000" font-family="sans-serif" font-size="14" lengthAdjust="spacing" textLength="113" x="1405.75" y="590.011">FileManagement</text><line style="stroke:#181818;stroke-width:0.5;" x1="1338.5" x2="1553.5" y1="600.72" y2="600.72"/><line style="stroke:#181818;stroke-width:0.5;" x1="1338.5" x2="1553.5" y1="608.72" y2="608.72"/><ellipse cx="1348.5" cy="622.4641" fill="#84BE84" rx="3" ry="3" style="stroke:#038048;stroke-width:1.0;"/><text fill="#000000" font-family="sans-serif" font-size="14" lengthAdjust="spacing" textLength="110" x="1357.5" y="626.2552">listFiles(): String</text><ellipse cx="1348.5" cy="638.9524" fill="#84BE84" rx="3" ry="3" style="stroke:#038048;stroke-width:1.0;"/><text fill="#000000" font-family="sans-serif" font-size="14" lengthAdjust="spacing" textLength="191" x="1357.5" y="642.7434">saveFile(String, String): void</text><ellipse cx="1348.5" cy="655.4407" fill="#84BE84" rx="3" ry="3" style="stroke:#038048;stroke-width:1.0;"/><text fill="#000000" font-family="sans-serif" font-size="14" lengthAdjust="spacing" textLength="159" x="1357.5" y="659.2317">openFile(String): String</text></g></a><!--class ConfigurationMonitor--><a href="ConfigurationMonitor.html" target="_top" title="ConfigurationMonitor.html" xlink:actuate="onRequest" xlink:href="ConfigurationMonitor.html" xlink:show="new" xlink:title="ConfigurationMonitor.html" xlink:type="simple"><g id="elem_ConfigurationMonitor"><rect codeLine="20" fill="#F1F1F1" height="278.8359" id="ConfigurationMonitor" rx="2.5" ry="2.5" style="stroke:#181818;stroke-width:0.5;" width="315" x="540.5" y="959.53"/><ellipse cx="618.75" cy="975.53" fill="#ADD1B2" rx="11" ry="11" style="stroke:#181818;stroke-width:1.0;"/><path d="M621.2231,981.6731 Q620.6421,981.9719 620.0029,982.1213 Q619.3638,982.2707 618.6582,982.2707 Q616.1514,982.2707 614.8315,980.6189 Q613.5117,978.967 613.5117,975.8459 Q613.5117,972.7165 614.8315,971.0647 Q616.1514,969.4128 618.6582,969.4128 Q619.3638,969.4128 620.0112,969.5622 Q620.6587,969.7116 621.2231,970.0105 L621.2231,972.7331 Q620.5923,972.1521 619.9988,971.8823 Q619.4053,971.6125 618.7744,971.6125 Q617.4297,971.6125 616.7449,972.6792 Q616.0601,973.7458 616.0601,975.8459 Q616.0601,977.9377 616.7449,979.0044 Q617.4297,980.071 618.7744,980.071 Q619.4053,980.071 619.9988,979.8012 Q620.5923,979.5315 621.2231,978.9504 Z " fill="#000000"/><text fill="#000000" font-family="sans-serif" font-size="14" lengthAdjust="spacing" textLength="150" x="639.25" y="980.821">ConfigurationMonitor</text><line style="stroke:#181818;stroke-width:0.5;" x1="541.5" x2="854.5" y1="991.53" y2="991.53"/><rect fill="none" height="6" style="stroke:#C82930;stroke-width:1.0;" width="6" x="548.5" y="1002.2741"/><text fill="#000000" font-family="sans-serif" font-size="14" lengthAdjust="spacing" textLength="151" x="560.5" y="1009.0652">watcher: WatchService</text><rect fill="none" height="6" style="stroke:#C82930;stroke-width:1.0;" width="6" x="548.5" y="1018.7624"/><text fill="#000000" font-family="sans-serif" font-size="14" lengthAdjust="spacing" textLength="192" x="560.5" y="1025.5534">keys: Map&lt;WatchKey, Path&gt;</text><rect fill="none" height="6" style="stroke:#C82930;stroke-width:1.0;" width="6" x="548.5" y="1035.2507"/><text fill="#000000" font-family="sans-serif" font-size="14" lengthAdjust="spacing" textLength="126" x="560.5" y="1042.0417">recursive: boolean</text><rect fill="none" height="6" style="stroke:#C82930;stroke-width:1.0;" width="6" x="548.5" y="1051.739"/><text fill="#000000" font-family="sans-serif" font-size="14" lengthAdjust="spacing" textLength="98" x="560.5" y="1058.53">trace: boolean</text><line style="stroke:#181818;stroke-width:0.5;" x1="541.5" x2="854.5" y1="1065.4831" y2="1065.4831"/><polygon fill="#4177AF" points="551.5,1075.2273,547.5,1081.2273,555.5,1081.2273" style="stroke:#1963A0;stroke-width:1.0;"/><text fill="#000000" font-family="sans-serif" font-size="14" lengthAdjust="spacing" text-decoration="underline" textLength="260" x="560.5" y="1083.0183">cast(WatchEvent&lt;?&gt;): WatchEvent&lt;T&gt;</text><rect fill="#F24D5C" height="6" style="stroke:#C82930;stroke-width:1.0;" width="6" x="548.5" y="1092.7155"/><text fill="#000000" font-family="sans-serif" font-size="14" lengthAdjust="spacing" textLength="130" x="560.5" y="1099.5066">register(Path): void</text><rect fill="#F24D5C" height="6" style="stroke:#C82930;stroke-width:1.0;" width="6" x="548.5" y="1109.2038"/><text fill="#000000" font-family="sans-serif" font-size="14" lengthAdjust="spacing" textLength="148" x="560.5" y="1115.9948">registerAll(Path): void</text><ellipse cx="551.5" cy="1128.6921" fill="#84BE84" rx="3" ry="3" style="stroke:#038048;stroke-width:1.0;"/><text fill="#000000" font-family="sans-serif" font-size="14" lengthAdjust="spacing" textLength="199" x="560.5" y="1132.4831">initialize(Path, boolean): void</text><polygon fill="#4177AF" points="551.5,1141.1804,547.5,1147.1804,555.5,1147.1804" style="stroke:#1963A0;stroke-width:1.0;"/><text fill="#000000" font-family="sans-serif" font-size="14" lengthAdjust="spacing" textLength="144" x="560.5" y="1148.9714">processEvents(): void</text><ellipse cx="551.5" cy="1161.6687" fill="#84BE84" rx="3" ry="3" style="stroke:#038048;stroke-width:1.0;"/><text fill="#000000" font-family="sans-serif" font-size="14" lengthAdjust="spacing" textLength="204" x="560.5" y="1165.4597">isSharedFilesystem(): boolean</text><ellipse cx="551.5" cy="1178.157" fill="#84BE84" rx="3" ry="3" style="stroke:#038048;stroke-width:1.0;"/><text fill="#000000" font-family="sans-serif" font-size="14" lengthAdjust="spacing" textLength="283" x="560.5" y="1181.948">isSharedFilesystem(String, Path): boolean</text><ellipse cx="551.5" cy="1194.6452" fill="#84BE84" rx="3" ry="3" style="stroke:#038048;stroke-width:1.0;"/><text fill="#000000" font-family="sans-serif" font-size="14" lengthAdjust="spacing" textLength="289" x="560.5" y="1198.4363">updateManagedMBeans(Path, String): void</text><ellipse cx="551.5" cy="1211.1335" fill="#84BE84" rx="3" ry="3" style="stroke:#038048;stroke-width:1.0;"/><text fill="#000000" font-family="sans-serif" font-size="14" lengthAdjust="spacing" text-decoration="underline" textLength="176" x="560.5" y="1214.9245">queryApps(): Set&lt;String&gt;</text><ellipse cx="551.5" cy="1227.6218" fill="#84BE84" rx="3" ry="3" style="stroke:#038048;stroke-width:1.0;"/><text fill="#000000" font-family="sans-serif" font-size="14" lengthAdjust="spacing" textLength="71" x="560.5" y="1231.4128">run(): void</text></g></a><!--class RestAPI--><a href="RestAPI.html" target="_top" title="RestAPI.html" xlink:actuate="onRequest" xlink:href="RestAPI.html" xlink:show="new" xlink:title="RestAPI.html" xlink:type="simple"><g id="elem_RestAPI"><rect codeLine="37" fill="#F1F1F1" height="64.4883" id="RestAPI" rx="2.5" ry="2.5" style="stroke:#181818;stroke-width:0.5;" width="340" x="1589" y="585.21"/><ellipse cx="1729.25" cy="601.21" fill="#ADD1B2" rx="11" ry="11" style="stroke:#181818;stroke-width:1.0;"/><path d="M1731.7231,607.3531 Q1731.1421,607.6519 1730.5029,607.8013 Q1729.8638,607.9507 1729.1582,607.9507 Q1726.6514,607.9507 1725.3315,606.2989 Q1724.0117,604.647 1724.0117,601.5259 Q1724.0117,598.3965 1725.3315,596.7447 Q1726.6514,595.0928 1729.1582,595.0928 Q1729.8638,595.0928 1730.5112,595.2422 Q1731.1587,595.3916 1731.7231,595.6905 L1731.7231,598.4131 Q1731.0923,597.8321 1730.4988,597.5623 Q1729.9053,597.2925 1729.2744,597.2925 Q1727.9297,597.2925 1727.2449,598.3592 Q1726.5601,599.4258 1726.5601,601.5259 Q1726.5601,603.6177 1727.2449,604.6844 Q1727.9297,605.751 1729.2744,605.751 Q1729.9053,605.751 1730.4988,605.4812 Q1731.0923,605.2115 1731.7231,604.6304 Z " fill="#000000"/><text fill="#000000" font-family="sans-serif" font-size="14" lengthAdjust="spacing" textLength="51" x="1749.75" y="606.501">RestAPI</text><line style="stroke:#181818;stroke-width:0.5;" x1="1590" x2="1928" y1="617.21" y2="617.21"/><line style="stroke:#181818;stroke-width:0.5;" x1="1590" x2="1928" y1="625.21" y2="625.21"/><ellipse cx="1600" cy="638.9541" fill="#84BE84" rx="3" ry="3" style="stroke:#038048;stroke-width:1.0;"/><text fill="#000000" font-family="sans-serif" font-size="14" lengthAdjust="spacing" textLength="314" x="1609" y="642.7452">examineApplicationSession(String): Response</text></g></a><!--class ServletContextListener--><a href="https://javaee.github.io/javaee-spec/javadocs/javax/servlet/ServletContextListener.html?is-external=true" target="_top" title="https://javaee.github.io/javaee-spec/javadocs/javax/servlet/ServletContextListener.html?is-external=true" xlink:actuate="onRequest" xlink:href="https://javaee.github.io/javaee-spec/javadocs/javax/servlet/ServletContextListener.html?is-external=true" xlink:show="new" xlink:title="https://javaee.github.io/javaee-spec/javadocs/javax/servlet/ServletContextListener.html?is-external=true" xlink:type="simple"><g id="elem_ServletContextListener"><rect codeLine="44" fill="#F1F1F1" height="80.9766" id="ServletContextListener" rx="2.5" ry="2.5" style="stroke:#181818;stroke-width:0.5;" width="332" x="536" y="115.2"/><ellipse cx="620.25" cy="131.2" fill="#B4A7E5" rx="11" ry="11" style="stroke:#181818;stroke-width:1.0;"/><path d="M616.6777,127.4651 L616.6777,125.3069 L624.0571,125.3069 L624.0571,127.4651 L621.5918,127.4651 L621.5918,135.5418 L624.0571,135.5418 L624.0571,137.7 L616.6777,137.7 L616.6777,135.5418 L619.1431,135.5418 L619.1431,127.4651 Z " fill="#000000"/><text fill="#000000" font-family="sans-serif" font-size="14" font-style="italic" lengthAdjust="spacing" textLength="155" x="640.75" y="136.491">ServletContextListener</text><line style="stroke:#181818;stroke-width:0.5;" x1="537" x2="867" y1="147.2" y2="147.2"/><line style="stroke:#181818;stroke-width:0.5;" x1="537" x2="867" y1="155.2" y2="155.2"/><ellipse cx="547" cy="168.9441" fill="#84BE84" rx="3" ry="3" style="stroke:#038048;stroke-width:1.0;"/><text fill="#000000" font-family="sans-serif" font-size="14" lengthAdjust="spacing" textLength="304" x="556" y="172.7352">contextInitialized(ServletContextEvent): void</text><ellipse cx="547" cy="185.4324" fill="#84BE84" rx="3" ry="3" style="stroke:#038048;stroke-width:1.0;"/><text fill="#000000" font-family="sans-serif" font-size="14" lengthAdjust="spacing" textLength="306" x="556" y="189.2234">contextDestroyed(ServletContextEvent): void</text></g></a><!--class HttpServlet--><a href="https://javaee.github.io/javaee-spec/javadocs/javax/servlet/http/HttpServlet.html?is-external=true" target="_top" title="https://javaee.github.io/javaee-spec/javadocs/javax/servlet/http/HttpServlet.html?is-external=true" xlink:actuate="onRequest" xlink:href="https://javaee.github.io/javaee-spec/javadocs/javax/servlet/http/HttpServlet.html?is-external=true" xlink:show="new" xlink:title="https://javaee.github.io/javaee-spec/javadocs/javax/servlet/http/HttpServlet.html?is-external=true" xlink:type="simple"><g id="elem_HttpServlet"><rect codeLine="51" fill="#F1F1F1" height="229.3711" id="HttpServlet" rx="2.5" ry="2.5" style="stroke:#181818;stroke-width:0.5;" width="222" x="992" y="41"/><ellipse cx="1061.25" cy="57" fill="#A9DCDF" rx="11" ry="11" style="stroke:#181818;stroke-width:1.0;"/><path d="M1061.1133,52.3481 L1059.9595,57.4199 L1062.2754,57.4199 Z M1059.6191,50.1069 L1062.6157,50.1069 L1065.9609,62.5 L1063.5122,62.5 L1062.7485,59.437 L1059.4697,59.437 L1058.7227,62.5 L1056.2739,62.5 Z " fill="#000000"/><text fill="#000000" font-family="sans-serif" font-size="14" font-style="italic" lengthAdjust="spacing" textLength="75" x="1081.75" y="62.291">HttpServlet</text><line style="stroke:#181818;stroke-width:0.5;" x1="993" x2="1213" y1="73" y2="73"/><rect fill="none" height="6" style="stroke:#C82930;stroke-width:1.0;" width="6" x="1000" y="83.7441"/><text fill="#000000" font-family="sans-serif" font-size="14" lengthAdjust="spacing" text-decoration="underline" textLength="166" x="1012" y="90.5352">METHOD_DELETE: String</text><rect fill="none" height="6" style="stroke:#C82930;stroke-width:1.0;" width="6" x="1000" y="100.2324"/><text fill="#000000" font-family="sans-serif" font-size="14" lengthAdjust="spacing" text-decoration="underline" textLength="154" x="1012" y="107.0234">METHOD_HEAD: String</text><rect fill="none" height="6" style="stroke:#C82930;stroke-width:1.0;" width="6" x="1000" y="116.7207"/><text fill="#000000" font-family="sans-serif" font-size="14" lengthAdjust="spacing" text-decoration="underline" textLength="143" x="1012" y="123.5117">METHOD_GET: String</text><rect fill="none" height="6" style="stroke:#C82930;stroke-width:1.0;" width="6" x="1000" y="133.209"/><text fill="#000000" font-family="sans-serif" font-size="14" lengthAdjust="spacing" text-decoration="underline" textLength="177" x="1012" y="140">METHOD_OPTIONS: String</text><rect fill="none" height="6" style="stroke:#C82930;stroke-width:1.0;" width="6" x="1000" y="149.6973"/><text fill="#000000" font-family="sans-serif" font-size="14" lengthAdjust="spacing" text-decoration="underline" textLength="152" x="1012" y="156.4883">METHOD_POST: String</text><rect fill="none" height="6" style="stroke:#C82930;stroke-width:1.0;" width="6" x="1000" y="166.1855"/><text fill="#000000" font-family="sans-serif" font-size="14" lengthAdjust="spacing" text-decoration="underline" textLength="143" x="1012" y="172.9766">METHOD_PUT: String</text><rect fill="none" height="6" style="stroke:#C82930;stroke-width:1.0;" width="6" x="1000" y="182.6738"/><text fill="#000000" font-family="sans-serif" font-size="14" lengthAdjust="spacing" text-decoration="underline" textLength="162" x="1012" y="189.4648">METHOD_TRACE: String</text><rect fill="none" height="6" style="stroke:#C82930;stroke-width:1.0;" width="6" x="1000" y="199.1621"/><text fill="#000000" font-family="sans-serif" font-size="14" lengthAdjust="spacing" text-decoration="underline" textLength="196" x="1012" y="205.9531">HEADER_IFMODSINCE: String</text><rect fill="none" height="6" style="stroke:#C82930;stroke-width:1.0;" width="6" x="1000" y="215.6504"/><text fill="#000000" font-family="sans-serif" font-size="14" lengthAdjust="spacing" text-decoration="underline" textLength="178" x="1012" y="222.4414">HEADER_LASTMOD: String</text><rect fill="none" height="6" style="stroke:#C82930;stroke-width:1.0;" width="6" x="1000" y="232.1387"/><text fill="#000000" font-family="sans-serif" font-size="14" lengthAdjust="spacing" text-decoration="underline" textLength="140" x="1012" y="238.9297">LSTRING_FILE: String</text><rect fill="none" height="6" style="stroke:#C82930;stroke-width:1.0;" width="6" x="1000" y="248.627"/><text fill="#000000" font-family="sans-serif" font-size="14" lengthAdjust="spacing" text-decoration="underline" textLength="170" x="1012" y="255.418">lStrings: ResourceBundle</text><line style="stroke:#181818;stroke-width:0.5;" x1="993" x2="1213" y1="262.3711" y2="262.3711"/></g></a><!--class Thread--><a href="https://docs.oracle.com/en/java/javase/11/docs/api/java.base/java/lang/Thread.html?is-external=true" target="_top" title="https://docs.oracle.com/en/java/javase/11/docs/api/java.base/java/lang/Thread.html?is-external=true" xlink:actuate="onRequest" xlink:href="https://docs.oracle.com/en/java/javase/11/docs/api/java.base/java/lang/Thread.html?is-external=true" xlink:show="new" xlink:title="https://docs.oracle.com/en/java/javase/11/docs/api/java.base/java/lang/Thread.html?is-external=true" xlink:type="simple"><g id="elem_Thread"><rect codeLine="67" fill="#F1F1F1" height="526.1602" id="Thread" rx="2.5" ry="2.5" style="stroke:#181818;stroke-width:0.5;" width="458" x="22" y="354.37"/><ellipse cx="222.25" cy="370.37" fill="#ADD1B2" rx="11" ry="11" style="stroke:#181818;stroke-width:1.0;"/><path d="M224.7231,376.5131 Q224.1421,376.8119 223.5029,376.9613 Q222.8638,377.1107 222.1582,377.1107 Q219.6514,377.1107 218.3315,375.4589 Q217.0117,373.807 217.0117,370.6859 Q217.0117,367.5565 218.3315,365.9047 Q219.6514,364.2528 222.1582,364.2528 Q222.8638,364.2528 223.5112,364.4022 Q224.1587,364.5516 224.7231,364.8505 L224.7231,367.5731 Q224.0923,366.9921 223.4988,366.7223 Q222.9053,366.4525 222.2744,366.4525 Q220.9297,366.4525 220.2449,367.5192 Q219.5601,368.5858 219.5601,370.6859 Q219.5601,372.7777 220.2449,373.8444 Q220.9297,374.911 222.2744,374.911 Q222.9053,374.911 223.4988,374.6412 Q224.0923,374.3715 224.7231,373.7904 Z " fill="#000000"/><text fill="#000000" font-family="sans-serif" font-size="14" lengthAdjust="spacing" textLength="49" x="242.75" y="375.661">Thread</text><line style="stroke:#181818;stroke-width:0.5;" x1="23" x2="479" y1="386.37" y2="386.37"/><rect fill="none" height="6" style="stroke:#C82930;stroke-width:1.0;" width="6" x="30" y="397.1141"/><text fill="#000000" font-family="sans-serif" font-size="14" lengthAdjust="spacing" textLength="87" x="42" y="403.9052">name: String</text><rect fill="none" height="6" style="stroke:#C82930;stroke-width:1.0;" width="6" x="30" y="413.6024"/><text fill="#000000" font-family="sans-serif" font-size="14" lengthAdjust="spacing" textLength="76" x="42" y="420.3934">priority: int</text><rect fill="none" height="6" style="stroke:#C82930;stroke-width:1.0;" width="6" x="30" y="430.0907"/><text fill="#000000" font-family="sans-serif" font-size="14" lengthAdjust="spacing" textLength="120" x="42" y="436.8817">daemon: boolean</text><rect fill="none" height="6" style="stroke:#C82930;stroke-width:1.0;" width="6" x="30" y="446.579"/><text fill="#000000" font-family="sans-serif" font-size="14" lengthAdjust="spacing" textLength="121" x="42" y="453.37">stillborn: boolean</text><rect fill="none" height="6" style="stroke:#C82930;stroke-width:1.0;" width="6" x="30" y="463.0673"/><text fill="#000000" font-family="sans-serif" font-size="14" lengthAdjust="spacing" textLength="78" x="42" y="469.8583">eetop: long</text><rect fill="none" height="6" style="stroke:#C82930;stroke-width:1.0;" width="6" x="30" y="479.5555"/><text fill="#000000" font-family="sans-serif" font-size="14" lengthAdjust="spacing" textLength="114" x="42" y="486.3466">target: Runnable</text><rect fill="none" height="6" style="stroke:#C82930;stroke-width:1.0;" width="6" x="30" y="496.0438"/><text fill="#000000" font-family="sans-serif" font-size="14" lengthAdjust="spacing" textLength="142" x="42" y="502.8348">group: ThreadGroup</text><rect fill="none" height="6" style="stroke:#C82930;stroke-width:1.0;" width="6" x="30" y="512.5321"/><text fill="#000000" font-family="sans-serif" font-size="14" lengthAdjust="spacing" textLength="226" x="42" y="519.3231">contextClassLoader: ClassLoader</text><rect fill="none" height="6" style="stroke:#C82930;stroke-width:1.0;" width="6" x="30" y="529.0204"/><text fill="#000000" font-family="sans-serif" font-size="14" lengthAdjust="spacing" textLength="376" x="42" y="535.8114">inheritedAccessControlContext: AccessControlContext</text><rect fill="none" height="6" style="stroke:#C82930;stroke-width:1.0;" width="6" x="30" y="545.5087"/><text fill="#000000" font-family="sans-serif" font-size="14" lengthAdjust="spacing" text-decoration="underline" textLength="148" x="42" y="552.2997">threadInitNumber: int</text><polygon fill="none" points="33,560.997,29,566.997,37,566.997" style="stroke:#1963A0;stroke-width:1.0;"/><text fill="#000000" font-family="sans-serif" font-size="14" lengthAdjust="spacing" textLength="208" x="42" y="568.788">threadLocals: ThreadLocalMap</text><polygon fill="none" points="33,577.4852,29,583.4852,37,583.4852" style="stroke:#1963A0;stroke-width:1.0;"/><text fill="#000000" font-family="sans-serif" font-size="14" lengthAdjust="spacing" textLength="286" x="42" y="585.2762">inheritableThreadLocals: ThreadLocalMap</text><rect fill="none" height="6" style="stroke:#C82930;stroke-width:1.0;" width="6" x="30" y="594.9735"/><text fill="#000000" font-family="sans-serif" font-size="14" lengthAdjust="spacing" textLength="102" x="42" y="601.7645">stackSize: long</text><rect fill="none" height="6" style="stroke:#C82930;stroke-width:1.0;" width="6" x="30" y="611.4618"/><text fill="#000000" font-family="sans-serif" font-size="14" lengthAdjust="spacing" textLength="196" x="42" y="618.2528">nativeParkEventPointer: long</text><rect fill="none" height="6" style="stroke:#C82930;stroke-width:1.0;" width="6" x="30" y="627.9501"/><text fill="#000000" font-family="sans-serif" font-size="14" lengthAdjust="spacing" textLength="57" x="42" y="634.7411">tid: long</text><rect fill="none" height="6" style="stroke:#C82930;stroke-width:1.0;" width="6" x="30" y="644.4384"/><text fill="#000000" font-family="sans-serif" font-size="14" lengthAdjust="spacing" text-decoration="underline" textLength="164" x="42" y="651.2294">threadSeqNumber: long</text><rect fill="none" height="6" style="stroke:#C82930;stroke-width:1.0;" width="6" x="30" y="660.9266"/><text fill="#000000" font-family="sans-serif" font-size="14" lengthAdjust="spacing" textLength="113" x="42" y="667.7177">threadStatus: int</text><polygon fill="none" points="33,676.4149,29,682.4149,37,682.4149" style="stroke:#1963A0;stroke-width:1.0;"/><text fill="#000000" font-family="sans-serif" font-size="14" lengthAdjust="spacing" textLength="133" x="42" y="684.2059">parkBlocker: Object</text><rect fill="none" height="6" style="stroke:#C82930;stroke-width:1.0;" width="6" x="30" y="693.9032"/><text fill="#000000" font-family="sans-serif" font-size="14" lengthAdjust="spacing" textLength="145" x="42" y="700.6942">blocker: Interruptible</text><rect fill="none" height="6" style="stroke:#C82930;stroke-width:1.0;" width="6" x="30" y="710.3915"/><text fill="#000000" font-family="sans-serif" font-size="14" lengthAdjust="spacing" textLength="134" x="42" y="717.1825">blockerLock: Object</text><ellipse cx="33" cy="729.8798" fill="none" rx="3" ry="3" style="stroke:#038048;stroke-width:1.0;"/><text fill="#000000" font-family="sans-serif" font-size="14" lengthAdjust="spacing" text-decoration="underline" textLength="122" x="42" y="733.6708">MIN_PRIORITY: int</text><ellipse cx="33" cy="746.368" fill="none" rx="3" ry="3" style="stroke:#038048;stroke-width:1.0;"/><text fill="#000000" font-family="sans-serif" font-size="14" lengthAdjust="spacing" text-decoration="underline" textLength="138" x="42" y="750.1591">NORM_PRIORITY: int</text><ellipse cx="33" cy="762.8563" fill="none" rx="3" ry="3" style="stroke:#038048;stroke-width:1.0;"/><text fill="#000000" font-family="sans-serif" font-size="14" lengthAdjust="spacing" text-decoration="underline" textLength="127" x="42" y="766.6473">MAX_PRIORITY: int</text><rect fill="none" height="6" style="stroke:#C82930;stroke-width:1.0;" width="6" x="30" y="776.3446"/><text fill="#000000" font-family="sans-serif" font-size="14" lengthAdjust="spacing" text-decoration="underline" textLength="299" x="42" y="783.1356">EMPTY_STACK_TRACE: StackTraceElement[]</text><rect fill="none" height="6" style="stroke:#C82930;stroke-width:1.0;" width="6" x="30" y="792.8329"/><text fill="#000000" font-family="sans-serif" font-size="14" lengthAdjust="spacing" textLength="383" x="42" y="799.6239">uncaughtExceptionHandler: UncaughtExceptionHandler</text><rect fill="none" height="6" style="stroke:#C82930;stroke-width:1.0;" width="6" x="30" y="809.3212"/><text fill="#000000" font-family="sans-serif" font-size="14" lengthAdjust="spacing" text-decoration="underline" textLength="432" x="42" y="816.1122">defaultUncaughtExceptionHandler: UncaughtExceptionHandler</text><polygon fill="none" points="33,824.8095,29,830.8095,37,830.8095" style="stroke:#1963A0;stroke-width:1.0;"/><text fill="#000000" font-family="sans-serif" font-size="14" lengthAdjust="spacing" textLength="209" x="42" y="832.6005">threadLocalRandomSeed: long</text><polygon fill="none" points="33,841.2977,29,847.2977,37,847.2977" style="stroke:#1963A0;stroke-width:1.0;"/><text fill="#000000" font-family="sans-serif" font-size="14" lengthAdjust="spacing" textLength="203" x="42" y="849.0887">threadLocalRandomProbe: int</text><polygon fill="none" points="33,857.786,29,863.786,37,863.786" style="stroke:#1963A0;stroke-width:1.0;"/><text fill="#000000" font-family="sans-serif" font-size="14" lengthAdjust="spacing" textLength="267" x="42" y="865.577">threadLocalRandomSecondarySeed: int</text><line style="stroke:#181818;stroke-width:0.5;" x1="23" x2="479" y1="872.5302" y2="872.5302"/></g></a><!--reverse link ServletContextListener to ConfigurationMonitorStartup--><g id="link_ServletContextListener_ConfigurationMonitorStartup"><path codeLine="100" d="M702,214.29 C702,301.19 702,489.82 702,576.79 " fill="none" id="ServletContextListener-backto-ConfigurationMonitorStartup" style="stroke:#181818;stroke-width:1.0;stroke-dasharray:7.0,7.0;"/><polygon fill="none" points="702,196.29,696,214.29,708,214.29,702,196.29" style="stroke:#181818;stroke-width:1.0;"/></g><!--link ConfigurationMonitorStartup to ConfigurationMonitor--><g id="link_ConfigurationMonitorStartup_ConfigurationMonitor"><path codeLine="101" d="M701.67,658.1 C701.13,723.34 700.0702,850.3302 699.2102,953.0802 " fill="none" id="ConfigurationMonitorStartup-to-ConfigurationMonitor" style="stroke:#181818;stroke-width:1.0;"/><polygon fill="#181818" points="699.16,959.08,703.2352,950.1138,699.2018,954.0802,695.2355,950.0468,699.16,959.08" style="stroke:#181818;stroke-width:1.0;"/><text fill="#000000" font-family="sans-serif" font-size="13" lengthAdjust="spacing" textLength="134" x="700.52" y="926.0984">configurationMonitor</text></g><!--reverse link HttpServlet to SaveDataServlet--><g id="link_HttpServlet_SaveDataServlet"><path codeLine="102" d="M1103,288.63 C1103,392.61 1103,521.46 1103,585.06 " fill="none" id="HttpServlet-backto-SaveDataServlet" style="stroke:#181818;stroke-width:1.0;"/><polygon fill="none" points="1103,270.63,1097,288.63,1109,288.63,1103,270.63" style="stroke:#181818;stroke-width:1.0;"/></g><!--reverse link Thread to ConfigurationMonitor--><g id="link_Thread_ConfigurationMonitor"><path codeLine="103" d="M492.6629,877.6872 C522.9929,910.2272 540.91,929.44 568.72,959.27 " fill="none" id="Thread-backto-ConfigurationMonitor" style="stroke:#181818;stroke-width:1.0;"/><polygon fill="none" points="480.39,864.52,488.2739,881.7782,497.052,873.5962,480.39,864.52" style="stroke:#181818;stroke-width:1.0;"/></g><text fill="#888888" font-family="sans-serif" font-size="10" lengthAdjust="spacing" textLength="176" x="881" y="1270.038">UMLDoclet 2.1.2, PlantUML 1.2024.3</text><!--SRC=[pLTjRzf84FxUNx5VJY9AC4e_MhbK14Y3oek57TrLKHGjzWIsB5vtTqt3jSbllzcr2HZiu5xxuP00U-RPUVEpisD2256WyPjGIRMGn7NVlKCXIMYue3CWGiwSbP09vSwKqmWScYISXLGp4Iidn1_1mVm_iXdvdgqrdv1JfKZ7obDfuKCHCtJXQofrcf2xkpUqpbml-VqzMYGxdrFqe-59zn7AA6V_GDJmGQuuw4wcwQqWrYSkMGaMbIxjWj9IhEijVDxFnwShw59DyxMOmvwa8kv8U4BfnetMIGwSmDSKGpaZ1PbAiA1mD8nhnc58Otm-IumQeoWAAeBWJ6a3L0rqu6l9ubaHe30N0sXaohCSL5fEaK2yWpsq-5o72nKaA4-W-OtgS0xI9N-P2rCq5a8Hie2rSicG9XSMymdMPyIZUdvPX4a8KwdO2bmo5KXW6XVrMjAmGlTTQGmrV2Ol8SL7QjrOybnyk3p9GylkWmEdCtm281iceBAYlYBQd5U2Jjah-ItcR1Db6VWbaI84fMn0zhcNs5F-d4g8B3NMw7vfS6Mfbq4tLCd3BLsM9X7LEJ-ZuHNgLHvwDS5UotoA-qIksqcIqHRqHRQeMDnJcSQDe_i6DvXkUtraNNvLiLFWYIvP3Erjg_EnYFYtPVjch-uxUowspozqHPySbRUBhHk6JKS-8ib8iGqDpFEFmMoCEJO6vRPQnWI0CsDwdauT9d91KoKGskj8XCfUFBLoHwroepRR3qmrKGOoflnFBLFu7tJPOuLpJ2rsegHJPNQepX_hJWlznRgPjQqTSpKhzahMvh0Nt8ox3ztUe1VqIhli0VQcr-xMGtxi1VM0Oo_eZqT-FR0tzckQzMvh0eD9ktCiUvDsR_BGlnwEktv_L1S_QFi1hZW27lZ1f3_w-73T7nopopEjibjQf3A4gpIEE1odfyDfFDjXGaR6O2w1HZiyD3Hp1DBLpadB5iIMTFP7GUlyt29QD65Mv4oDr2AC_LPchoOHcp5TGcd2pKGo8PbUkwRt55KHXQM8Auv2fHddKo6hz01Q92xXOjyX3d8pq5ZMD8xfbEyTr3CfKboMPVVHt1JrUIFfc9eE10wUUEplt1J1BCQnW6c8sg4vxKopaOBdFSSbPT8ADcWRZ-byetGvDKxtg_MIGGOYf5nj4h1tE7KKaNbO9lcWxYAiDrBCnwPRLjCOmro1H-N2Tb9Fs7EajFeiAX7l9-h3rqsU9IOo2Av8LKaTy8rXSSL5k32hnzCl4ExHQhfHzasGCaqqEw11Zi5IB4gDRCU0ON_qu4twuqa_-7mOpHOt6a-6jO33zjzrSCtUq0i-F_X1k_DfszZm6GLcHknnEt7VtHVJIkEGfhEvxZs5a9ZvuOQQdeArkAtGL3YFu96cND_-chrTpavGBvO-G1a_3e6U55DuUnTiBEAMZQXSPwPt5nGwQE5WTzsAyUVYX-FyrBkdwxxnDcaT_pPhfDcy_0tMN1AMI0zhP8SVrzqTSYv-D9i_6S7UU-gh6tk8kMv-Qlq7mvsg948msvuy2c7-ReU3hWXDyE-TS-SzlZ2WOurIyiSAf9sjJ_u5]--></g></svg>