<?xml version="1.0" encoding="us-ascii" standalone="no"?><svg xmlns="http://www.w3.org/2000/svg" xmlns:xlink="http://www.w3.org/1999/xlink" contentStyleType="text/css" height="1065px" preserveAspectRatio="none" style="width:1518px;height:1065px;background:#FFFFFF;" version="1.1" viewBox="0 0 1518 1065" width="1518px" zoomAndPan="magnify"><defs/><g><!--cluster org.vorpal.blade.applications.console.config--><g id="cluster_org.vorpal.blade.applications.console.config"><path d="M522.5,368.84 L834.5,368.84 A3.75,3.75 0 0 1 837,371.34 L844,391.3283 L1508.5,391.3283 A2.5,2.5 0 0 1 1511,393.8283 L1511,1037.52 A2.5,2.5 0 0 1 1508.5,1040.02 L522.5,1040.02 A2.5,2.5 0 0 1 520,1037.52 L520,371.34 A2.5,2.5 0 0 1 522.5,368.84 " fill="none" style="stroke:#000000;stroke-width:1.5;"/><line style="stroke:#000000;stroke-width:1.5;" x1="520" x2="844" y1="391.3283" y2="391.3283"/><text fill="#000000" font-family="sans-serif" font-size="14" font-weight="bold" lengthAdjust="spacing" textLength="311" x="524" y="384.3752">org.vorpal.blade.applications.console.config</text></g><!--cluster javax.servlet--><g id="cluster_javax.servlet"><path d="M522.5,6 L612.5,6 A3.75,3.75 0 0 1 615,8.5 L622,28.4883 L881.5,28.4883 A2.5,2.5 0 0 1 884,30.9883 L884,135.48 A2.5,2.5 0 0 1 881.5,137.98 L522.5,137.98 A2.5,2.5 0 0 1 520,135.48 L520,8.5 A2.5,2.5 0 0 1 522.5,6 " fill="none" style="stroke:#000000;stroke-width:1.5;"/><line style="stroke:#000000;stroke-width:1.5;" x1="520" x2="622" y1="28.4883" y2="28.4883"/><text fill="#000000" font-family="sans-serif" font-size="14" font-weight="bold" lengthAdjust="spacing" textLength="89" x="524" y="21.5352">javax.servlet</text></g><!--cluster java.lang--><g id="cluster_java.lang"><path d="M8.5,170.98 L72.5,170.98 A3.75,3.75 0 0 1 75,173.48 L82,193.4683 L493.5,193.4683 A2.5,2.5 0 0 1 496,195.9683 L496,712.66 A2.5,2.5 0 0 1 493.5,715.16 L8.5,715.16 A2.5,2.5 0 0 1 6,712.66 L6,173.48 A2.5,2.5 0 0 1 8.5,170.98 " fill="none" style="stroke:#000000;stroke-width:1.5;"/><line style="stroke:#000000;stroke-width:1.5;" x1="6" x2="82" y1="193.4683" y2="193.4683"/><text fill="#000000" font-family="sans-serif" font-size="14" font-weight="bold" lengthAdjust="spacing" textLength="63" x="10" y="186.5152">java.lang</text></g><!--class ConfigurationMonitorStartup--><a href="ConfigurationMonitorStartup.html" target="_top" title="ConfigurationMonitorStartup.html" xlink:actuate="onRequest" xlink:href="ConfigurationMonitorStartup.html" xlink:show="new" xlink:title="ConfigurationMonitorStartup.html" xlink:type="simple"><g id="elem_ConfigurationMonitorStartup"><rect codeLine="5" fill="#F1F1F1" height="80.9766" id="ConfigurationMonitorStartup" rx="2.5" ry="2.5" style="stroke:#181818;stroke-width:0.5;" width="332" x="536" y="412.08"/><ellipse cx="597.75" cy="428.08" fill="#ADD1B2" rx="11" ry="11" style="stroke:#181818;stroke-width:1.0;"/><path d="M600.2231,434.2231 Q599.6421,434.5219 599.0029,434.6713 Q598.3638,434.8207 597.6582,434.8207 Q595.1514,434.8207 593.8315,433.1689 Q592.5117,431.517 592.5117,428.3959 Q592.5117,425.2665 593.8315,423.6147 Q595.1514,421.9628 597.6582,421.9628 Q598.3638,421.9628 599.0112,422.1122 Q599.6587,422.2616 600.2231,422.5605 L600.2231,425.2831 Q599.5923,424.7021 598.9988,424.4323 Q598.4053,424.1625 597.7744,424.1625 Q596.4297,424.1625 595.7449,425.2292 Q595.0601,426.2958 595.0601,428.3959 Q595.0601,430.4877 595.7449,431.5544 Q596.4297,432.621 597.7744,432.621 Q598.4053,432.621 598.9988,432.3512 Q599.5923,432.0815 600.2231,431.5004 Z " fill="#000000"/><text fill="#000000" font-family="sans-serif" font-size="14" lengthAdjust="spacing" textLength="200" x="618.25" y="433.371">ConfigurationMonitorStartup</text><line style="stroke:#181818;stroke-width:0.5;" x1="537" x2="867" y1="444.08" y2="444.08"/><line style="stroke:#181818;stroke-width:0.5;" x1="537" x2="867" y1="452.08" y2="452.08"/><ellipse cx="547" cy="465.8241" fill="#84BE84" rx="3" ry="3" style="stroke:#038048;stroke-width:1.0;"/><text fill="#000000" font-family="sans-serif" font-size="14" lengthAdjust="spacing" textLength="304" x="556" y="469.6152">contextInitialized(ServletContextEvent): void</text><ellipse cx="547" cy="482.3124" fill="#84BE84" rx="3" ry="3" style="stroke:#038048;stroke-width:1.0;"/><text fill="#000000" font-family="sans-serif" font-size="14" lengthAdjust="spacing" textLength="306" x="556" y="486.1034">contextDestroyed(ServletContextEvent): void</text></g></a><!--class FileManagement--><a href="FileManagement.html" target="_top" title="FileManagement.html" xlink:actuate="onRequest" xlink:href="FileManagement.html" xlink:show="new" xlink:title="FileManagement.html" xlink:type="simple"><g id="elem_FileManagement"><rect codeLine="10" fill="#F1F1F1" height="97.4648" id="FileManagement" rx="2.5" ry="2.5" style="stroke:#181818;stroke-width:0.5;" width="217" x="903.5" y="403.84"/><ellipse cx="951.25" cy="419.84" fill="#ADD1B2" rx="11" ry="11" style="stroke:#181818;stroke-width:1.0;"/><path d="M953.7231,425.9831 Q953.1421,426.2819 952.5029,426.4313 Q951.8638,426.5807 951.1582,426.5807 Q948.6514,426.5807 947.3315,424.9289 Q946.0117,423.277 946.0117,420.1559 Q946.0117,417.0265 947.3315,415.3747 Q948.6514,413.7228 951.1582,413.7228 Q951.8638,413.7228 952.5112,413.8722 Q953.1587,414.0216 953.7231,414.3205 L953.7231,417.0431 Q953.0923,416.4621 952.4988,416.1923 Q951.9053,415.9225 951.2744,415.9225 Q949.9297,415.9225 949.2449,416.9892 Q948.5601,418.0558 948.5601,420.1559 Q948.5601,422.2477 949.2449,423.3144 Q949.9297,424.381 951.2744,424.381 Q951.9053,424.381 952.4988,424.1112 Q953.0923,423.8415 953.7231,423.2604 Z " fill="#000000"/><text fill="#000000" font-family="sans-serif" font-size="14" lengthAdjust="spacing" textLength="113" x="971.75" y="425.131">FileManagement</text><line style="stroke:#181818;stroke-width:0.5;" x1="904.5" x2="1119.5" y1="435.84" y2="435.84"/><line style="stroke:#181818;stroke-width:0.5;" x1="904.5" x2="1119.5" y1="443.84" y2="443.84"/><ellipse cx="914.5" cy="457.5841" fill="#84BE84" rx="3" ry="3" style="stroke:#038048;stroke-width:1.0;"/><text fill="#000000" font-family="sans-serif" font-size="14" lengthAdjust="spacing" textLength="110" x="923.5" y="461.3752">listFiles(): String</text><ellipse cx="914.5" cy="474.0724" fill="#84BE84" rx="3" ry="3" style="stroke:#038048;stroke-width:1.0;"/><text fill="#000000" font-family="sans-serif" font-size="14" lengthAdjust="spacing" textLength="191" x="923.5" y="477.8634">saveFile(String, String): void</text><ellipse cx="914.5" cy="490.5607" fill="#84BE84" rx="3" ry="3" style="stroke:#038048;stroke-width:1.0;"/><text fill="#000000" font-family="sans-serif" font-size="14" lengthAdjust="spacing" textLength="159" x="923.5" y="494.3517">openFile(String): String</text></g></a><!--class ConfigurationMonitor--><a href="ConfigurationMonitor.html" target="_top" title="ConfigurationMonitor.html" xlink:actuate="onRequest" xlink:href="ConfigurationMonitor.html" xlink:show="new" xlink:title="ConfigurationMonitor.html" xlink:type="simple"><g id="elem_ConfigurationMonitor"><rect codeLine="16" fill="#F1F1F1" height="245.8594" id="ConfigurationMonitor" rx="2.5" ry="2.5" style="stroke:#181818;stroke-width:0.5;" width="315" x="540.5" y="778.16"/><ellipse cx="618.75" cy="794.16" fill="#ADD1B2" rx="11" ry="11" style="stroke:#181818;stroke-width:1.0;"/><path d="M621.2231,800.3031 Q620.6421,800.6019 620.0029,800.7513 Q619.3638,800.9007 618.6582,800.9007 Q616.1514,800.9007 614.8315,799.2489 Q613.5117,797.597 613.5117,794.4759 Q613.5117,791.3465 614.8315,789.6947 Q616.1514,788.0428 618.6582,788.0428 Q619.3638,788.0428 620.0112,788.1922 Q620.6587,788.3416 621.2231,788.6405 L621.2231,791.3631 Q620.5923,790.7821 619.9988,790.5123 Q619.4053,790.2425 618.7744,790.2425 Q617.4297,790.2425 616.7449,791.3092 Q616.0601,792.3758 616.0601,794.4759 Q616.0601,796.5677 616.7449,797.6344 Q617.4297,798.701 618.7744,798.701 Q619.4053,798.701 619.9988,798.4312 Q620.5923,798.1615 621.2231,797.5804 Z " fill="#000000"/><text fill="#000000" font-family="sans-serif" font-size="14" lengthAdjust="spacing" textLength="150" x="639.25" y="799.451">ConfigurationMonitor</text><line style="stroke:#181818;stroke-width:0.5;" x1="541.5" x2="854.5" y1="810.16" y2="810.16"/><rect fill="none" height="6" style="stroke:#C82930;stroke-width:1.0;" width="6" x="548.5" y="820.9041"/><text fill="#000000" font-family="sans-serif" font-size="14" lengthAdjust="spacing" textLength="151" x="560.5" y="827.6952">watcher: WatchService</text><rect fill="none" height="6" style="stroke:#C82930;stroke-width:1.0;" width="6" x="548.5" y="837.3924"/><text fill="#000000" font-family="sans-serif" font-size="14" lengthAdjust="spacing" textLength="192" x="560.5" y="844.1834">keys: Map&lt;WatchKey, Path&gt;</text><rect fill="none" height="6" style="stroke:#C82930;stroke-width:1.0;" width="6" x="548.5" y="853.8807"/><text fill="#000000" font-family="sans-serif" font-size="14" lengthAdjust="spacing" textLength="126" x="560.5" y="860.6717">recursive: boolean</text><rect fill="none" height="6" style="stroke:#C82930;stroke-width:1.0;" width="6" x="548.5" y="870.369"/><text fill="#000000" font-family="sans-serif" font-size="14" lengthAdjust="spacing" textLength="98" x="560.5" y="877.16">trace: boolean</text><line style="stroke:#181818;stroke-width:0.5;" x1="541.5" x2="854.5" y1="884.1131" y2="884.1131"/><polygon fill="#4177AF" points="551.5,893.8573,547.5,899.8573,555.5,899.8573" style="stroke:#1963A0;stroke-width:1.0;"/><text fill="#000000" font-family="sans-serif" font-size="14" lengthAdjust="spacing" text-decoration="underline" textLength="260" x="560.5" y="901.6483">cast(WatchEvent&lt;?&gt;): WatchEvent&lt;T&gt;</text><rect fill="#F24D5C" height="6" style="stroke:#C82930;stroke-width:1.0;" width="6" x="548.5" y="911.3455"/><text fill="#000000" font-family="sans-serif" font-size="14" lengthAdjust="spacing" textLength="130" x="560.5" y="918.1366">register(Path): void</text><rect fill="#F24D5C" height="6" style="stroke:#C82930;stroke-width:1.0;" width="6" x="548.5" y="927.8338"/><text fill="#000000" font-family="sans-serif" font-size="14" lengthAdjust="spacing" textLength="148" x="560.5" y="934.6248">registerAll(Path): void</text><ellipse cx="551.5" cy="947.3221" fill="#84BE84" rx="3" ry="3" style="stroke:#038048;stroke-width:1.0;"/><text fill="#000000" font-family="sans-serif" font-size="14" lengthAdjust="spacing" textLength="199" x="560.5" y="951.1131">initialize(Path, boolean): void</text><polygon fill="#4177AF" points="551.5,959.8104,547.5,965.8104,555.5,965.8104" style="stroke:#1963A0;stroke-width:1.0;"/><text fill="#000000" font-family="sans-serif" font-size="14" lengthAdjust="spacing" textLength="144" x="560.5" y="967.6014">processEvents(): void</text><ellipse cx="551.5" cy="980.2987" fill="#84BE84" rx="3" ry="3" style="stroke:#038048;stroke-width:1.0;"/><text fill="#000000" font-family="sans-serif" font-size="14" lengthAdjust="spacing" textLength="204" x="560.5" y="984.0897">isSharedFilesystem(): boolean</text><ellipse cx="551.5" cy="996.787" fill="#84BE84" rx="3" ry="3" style="stroke:#038048;stroke-width:1.0;"/><text fill="#000000" font-family="sans-serif" font-size="14" lengthAdjust="spacing" textLength="289" x="560.5" y="1000.578">updateManagedMBeans(Path, String): void</text><ellipse cx="551.5" cy="1013.2752" fill="#84BE84" rx="3" ry="3" style="stroke:#038048;stroke-width:1.0;"/><text fill="#000000" font-family="sans-serif" font-size="14" lengthAdjust="spacing" textLength="71" x="560.5" y="1017.0663">run(): void</text></g></a><!--class RestAPI--><a href="RestAPI.html" target="_top" title="RestAPI.html" xlink:actuate="onRequest" xlink:href="RestAPI.html" xlink:show="new" xlink:title="RestAPI.html" xlink:type="simple"><g id="elem_RestAPI"><rect codeLine="31" fill="#F1F1F1" height="64.4883" id="RestAPI" rx="2.5" ry="2.5" style="stroke:#181818;stroke-width:0.5;" width="340" x="1155" y="420.32"/><ellipse cx="1295.25" cy="436.32" fill="#ADD1B2" rx="11" ry="11" style="stroke:#181818;stroke-width:1.0;"/><path d="M1297.7231,442.4631 Q1297.1421,442.7619 1296.5029,442.9113 Q1295.8638,443.0607 1295.1582,443.0607 Q1292.6514,443.0607 1291.3315,441.4089 Q1290.0117,439.757 1290.0117,436.6359 Q1290.0117,433.5065 1291.3315,431.8547 Q1292.6514,430.2028 1295.1582,430.2028 Q1295.8638,430.2028 1296.5112,430.3522 Q1297.1587,430.5016 1297.7231,430.8005 L1297.7231,433.5231 Q1297.0923,432.9421 1296.4988,432.6723 Q1295.9053,432.4025 1295.2744,432.4025 Q1293.9297,432.4025 1293.2449,433.4692 Q1292.5601,434.5358 1292.5601,436.6359 Q1292.5601,438.7277 1293.2449,439.7944 Q1293.9297,440.861 1295.2744,440.861 Q1295.9053,440.861 1296.4988,440.5912 Q1297.0923,440.3215 1297.7231,439.7404 Z " fill="#000000"/><text fill="#000000" font-family="sans-serif" font-size="14" lengthAdjust="spacing" textLength="51" x="1315.75" y="441.611">RestAPI</text><line style="stroke:#181818;stroke-width:0.5;" x1="1156" x2="1494" y1="452.32" y2="452.32"/><line style="stroke:#181818;stroke-width:0.5;" x1="1156" x2="1494" y1="460.32" y2="460.32"/><ellipse cx="1166" cy="474.0641" fill="#84BE84" rx="3" ry="3" style="stroke:#038048;stroke-width:1.0;"/><text fill="#000000" font-family="sans-serif" font-size="14" lengthAdjust="spacing" textLength="314" x="1175" y="477.8552">examineApplicationSession(String): Response</text></g></a><!--class ServletContextListener--><a href="https://javaee.github.io/javaee-spec/javadocs/javax/servlet/ServletContextListener.html?is-external=true" target="_top" title="https://javaee.github.io/javaee-spec/javadocs/javax/servlet/ServletContextListener.html?is-external=true" xlink:actuate="onRequest" xlink:href="https://javaee.github.io/javaee-spec/javadocs/javax/servlet/ServletContextListener.html?is-external=true" xlink:show="new" xlink:title="https://javaee.github.io/javaee-spec/javadocs/javax/servlet/ServletContextListener.html?is-external=true" xlink:type="simple"><g id="elem_ServletContextListener"><rect codeLine="38" fill="#F1F1F1" height="80.9766" id="ServletContextListener" rx="2.5" ry="2.5" style="stroke:#181818;stroke-width:0.5;" width="332" x="536" y="41"/><ellipse cx="620.25" cy="57" fill="#B4A7E5" rx="11" ry="11" style="stroke:#181818;stroke-width:1.0;"/><path d="M616.6777,53.2651 L616.6777,51.1069 L624.0571,51.1069 L624.0571,53.2651 L621.5918,53.2651 L621.5918,61.3418 L624.0571,61.3418 L624.0571,63.5 L616.6777,63.5 L616.6777,61.3418 L619.1431,61.3418 L619.1431,53.2651 Z " fill="#000000"/><text fill="#000000" font-family="sans-serif" font-size="14" font-style="italic" lengthAdjust="spacing" textLength="155" x="640.75" y="62.291">ServletContextListener</text><line style="stroke:#181818;stroke-width:0.5;" x1="537" x2="867" y1="73" y2="73"/><line style="stroke:#181818;stroke-width:0.5;" x1="537" x2="867" y1="81" y2="81"/><ellipse cx="547" cy="94.7441" fill="#84BE84" rx="3" ry="3" style="stroke:#038048;stroke-width:1.0;"/><text fill="#000000" font-family="sans-serif" font-size="14" lengthAdjust="spacing" textLength="304" x="556" y="98.5352">contextInitialized(ServletContextEvent): void</text><ellipse cx="547" cy="111.2324" fill="#84BE84" rx="3" ry="3" style="stroke:#038048;stroke-width:1.0;"/><text fill="#000000" font-family="sans-serif" font-size="14" lengthAdjust="spacing" textLength="306" x="556" y="115.0234">contextDestroyed(ServletContextEvent): void</text></g></a><!--class Thread--><a href="https://docs.oracle.com/en/java/javase/11/docs/api/java.base/java/lang/Thread.html?is-external=true" target="_top" title="https://docs.oracle.com/en/java/javase/11/docs/api/java.base/java/lang/Thread.html?is-external=true" xlink:actuate="onRequest" xlink:href="https://docs.oracle.com/en/java/javase/11/docs/api/java.base/java/lang/Thread.html?is-external=true" xlink:show="new" xlink:title="https://docs.oracle.com/en/java/javase/11/docs/api/java.base/java/lang/Thread.html?is-external=true" xlink:type="simple"><g id="elem_Thread"><rect codeLine="45" fill="#F1F1F1" height="493.1836" id="Thread" rx="2.5" ry="2.5" style="stroke:#181818;stroke-width:0.5;" width="458" x="22" y="205.98"/><ellipse cx="222.25" cy="221.98" fill="#ADD1B2" rx="11" ry="11" style="stroke:#181818;stroke-width:1.0;"/><path d="M224.7231,228.1231 Q224.1421,228.4219 223.5029,228.5713 Q222.8638,228.7207 222.1582,228.7207 Q219.6514,228.7207 218.3315,227.0689 Q217.0117,225.417 217.0117,222.2959 Q217.0117,219.1665 218.3315,217.5147 Q219.6514,215.8628 222.1582,215.8628 Q222.8638,215.8628 223.5112,216.0122 Q224.1587,216.1616 224.7231,216.4605 L224.7231,219.1831 Q224.0923,218.6021 223.4988,218.3323 Q222.9053,218.0625 222.2744,218.0625 Q220.9297,218.0625 220.2449,219.1292 Q219.5601,220.1958 219.5601,222.2959 Q219.5601,224.3877 220.2449,225.4544 Q220.9297,226.521 222.2744,226.521 Q222.9053,226.521 223.4988,226.2512 Q224.0923,225.9815 224.7231,225.4004 Z " fill="#000000"/><text fill="#000000" font-family="sans-serif" font-size="14" lengthAdjust="spacing" textLength="49" x="242.75" y="227.271">Thread</text><line style="stroke:#181818;stroke-width:0.5;" x1="23" x2="479" y1="237.98" y2="237.98"/><rect fill="none" height="6" style="stroke:#C82930;stroke-width:1.0;" width="6" x="30" y="248.7241"/><text fill="#000000" font-family="sans-serif" font-size="14" lengthAdjust="spacing" textLength="78" x="42" y="255.5152">eetop: long</text><rect fill="none" height="6" style="stroke:#C82930;stroke-width:1.0;" width="6" x="30" y="265.2124"/><text fill="#000000" font-family="sans-serif" font-size="14" lengthAdjust="spacing" textLength="57" x="42" y="272.0034">tid: long</text><rect fill="none" height="6" style="stroke:#C82930;stroke-width:1.0;" width="6" x="30" y="281.7007"/><text fill="#000000" font-family="sans-serif" font-size="14" lengthAdjust="spacing" textLength="87" x="42" y="288.4917">name: String</text><polygon fill="none" points="33,297.189,29,303.189,37,303.189" style="stroke:#1963A0;stroke-width:1.0;"/><text fill="#000000" font-family="sans-serif" font-size="14" lengthAdjust="spacing" textLength="142" x="42" y="304.98">interrupted: boolean</text><rect fill="none" height="6" style="stroke:#C82930;stroke-width:1.0;" width="6" x="30" y="314.6773"/><text fill="#000000" font-family="sans-serif" font-size="14" lengthAdjust="spacing" textLength="226" x="42" y="321.4683">contextClassLoader: ClassLoader</text><rect fill="none" height="6" style="stroke:#C82930;stroke-width:1.0;" width="6" x="30" y="331.1655"/><text fill="#000000" font-family="sans-serif" font-size="14" lengthAdjust="spacing" textLength="376" x="42" y="337.9566">inheritedAccessControlContext: AccessControlContext</text><rect fill="none" height="6" style="stroke:#C82930;stroke-width:1.0;" width="6" x="30" y="347.6538"/><text fill="#000000" font-family="sans-serif" font-size="14" lengthAdjust="spacing" textLength="132" x="42" y="354.4448">holder: FieldHolder</text><polygon fill="none" points="33,363.1421,29,369.1421,37,369.1421" style="stroke:#1963A0;stroke-width:1.0;"/><text fill="#000000" font-family="sans-serif" font-size="14" lengthAdjust="spacing" textLength="208" x="42" y="370.9331">threadLocals: ThreadLocalMap</text><polygon fill="none" points="33,379.6304,29,385.6304,37,385.6304" style="stroke:#1963A0;stroke-width:1.0;"/><text fill="#000000" font-family="sans-serif" font-size="14" lengthAdjust="spacing" textLength="286" x="42" y="387.4214">inheritableThreadLocals: ThreadLocalMap</text><rect fill="none" height="6" style="stroke:#C82930;stroke-width:1.0;" width="6" x="30" y="397.1187"/><text fill="#000000" font-family="sans-serif" font-size="14" lengthAdjust="spacing" textLength="198" x="42" y="403.9097">scopedValueBindings: Object</text><rect fill="none" height="6" style="stroke:#C82930;stroke-width:1.0;" width="6" x="30" y="413.607"/><text fill="#000000" font-family="sans-serif" font-size="14" lengthAdjust="spacing" text-decoration="underline" textLength="216" x="42" y="420.398">NEW_THREAD_BINDINGS: Object</text><polygon fill="none" points="33,429.0952,29,435.0952,37,435.0952" style="stroke:#1963A0;stroke-width:1.0;"/><text fill="#000000" font-family="sans-serif" font-size="14" lengthAdjust="spacing" textLength="144" x="42" y="436.8863">interruptLock: Object</text><rect fill="none" height="6" style="stroke:#C82930;stroke-width:1.0;" width="6" x="30" y="446.5835"/><text fill="#000000" font-family="sans-serif" font-size="14" lengthAdjust="spacing" textLength="133" x="42" y="453.3745">parkBlocker: Object</text><polygon fill="none" points="33,462.0718,29,468.0718,37,468.0718" style="stroke:#1963A0;stroke-width:1.0;"/><text fill="#000000" font-family="sans-serif" font-size="14" lengthAdjust="spacing" textLength="166" x="42" y="469.8628">nioBlocker: Interruptible</text><ellipse cx="33" cy="482.5601" fill="none" rx="3" ry="3" style="stroke:#038048;stroke-width:1.0;"/><text fill="#000000" font-family="sans-serif" font-size="14" lengthAdjust="spacing" text-decoration="underline" textLength="122" x="42" y="486.3511">MIN_PRIORITY: int</text><ellipse cx="33" cy="499.0484" fill="none" rx="3" ry="3" style="stroke:#038048;stroke-width:1.0;"/><text fill="#000000" font-family="sans-serif" font-size="14" lengthAdjust="spacing" text-decoration="underline" textLength="138" x="42" y="502.8394">NORM_PRIORITY: int</text><ellipse cx="33" cy="515.5366" fill="none" rx="3" ry="3" style="stroke:#038048;stroke-width:1.0;"/><text fill="#000000" font-family="sans-serif" font-size="14" lengthAdjust="spacing" text-decoration="underline" textLength="127" x="42" y="519.3277">MAX_PRIORITY: int</text><rect fill="none" height="6" style="stroke:#C82930;stroke-width:1.0;" width="6" x="30" y="529.0249"/><text fill="#000000" font-family="sans-serif" font-size="14" lengthAdjust="spacing" textLength="128" x="42" y="535.8159">cont: Continuation</text><polygon fill="none" points="33,544.5132,29,550.5132,37,550.5132" style="stroke:#1963A0;stroke-width:1.0;"/><text fill="#000000" font-family="sans-serif" font-size="14" lengthAdjust="spacing" text-decoration="underline" textLength="231" x="42" y="552.3042">NO_INHERIT_THREAD_LOCALS: int</text><rect fill="none" height="6" style="stroke:#C82930;stroke-width:1.0;" width="6" x="30" y="562.0015"/><text fill="#000000" font-family="sans-serif" font-size="14" lengthAdjust="spacing" text-decoration="underline" textLength="299" x="42" y="568.7925">EMPTY_STACK_TRACE: StackTraceElement[]</text><rect fill="none" height="6" style="stroke:#C82930;stroke-width:1.0;" width="6" x="30" y="578.4898"/><text fill="#000000" font-family="sans-serif" font-size="14" lengthAdjust="spacing" textLength="383" x="42" y="585.2808">uncaughtExceptionHandler: UncaughtExceptionHandler</text><rect fill="none" height="6" style="stroke:#C82930;stroke-width:1.0;" width="6" x="30" y="594.978"/><text fill="#000000" font-family="sans-serif" font-size="14" lengthAdjust="spacing" text-decoration="underline" textLength="432" x="42" y="601.7691">defaultUncaughtExceptionHandler: UncaughtExceptionHandler</text><polygon fill="none" points="33,610.4663,29,616.4663,37,616.4663" style="stroke:#1963A0;stroke-width:1.0;"/><text fill="#000000" font-family="sans-serif" font-size="14" lengthAdjust="spacing" textLength="209" x="42" y="618.2573">threadLocalRandomSeed: long</text><polygon fill="none" points="33,626.9546,29,632.9546,37,632.9546" style="stroke:#1963A0;stroke-width:1.0;"/><text fill="#000000" font-family="sans-serif" font-size="14" lengthAdjust="spacing" textLength="203" x="42" y="634.7456">threadLocalRandomProbe: int</text><polygon fill="none" points="33,643.4429,29,649.4429,37,649.4429" style="stroke:#1963A0;stroke-width:1.0;"/><text fill="#000000" font-family="sans-serif" font-size="14" lengthAdjust="spacing" textLength="267" x="42" y="651.2339">threadLocalRandomSecondarySeed: int</text><rect fill="none" height="6" style="stroke:#C82930;stroke-width:1.0;" width="6" x="30" y="660.9312"/><text fill="#000000" font-family="sans-serif" font-size="14" lengthAdjust="spacing" textLength="190" x="42" y="667.7222">container: ThreadContainer</text><rect fill="none" height="6" style="stroke:#C82930;stroke-width:1.0;" width="6" x="30" y="677.4195"/><text fill="#000000" font-family="sans-serif" font-size="14" lengthAdjust="spacing" textLength="261" x="42" y="684.2105">headStackableScopes: StackableScope</text><line style="stroke:#181818;stroke-width:0.5;" x1="23" x2="479" y1="691.1636" y2="691.1636"/></g></a><!--reverse link ServletContextListener to ConfigurationMonitorStartup--><g id="link_ServletContextListener_ConfigurationMonitorStartup"><path codeLine="76" d="M702,140.34 C702,211.26 702,340.6 702,411.61 " fill="none" id="ServletContextListener-backto-ConfigurationMonitorStartup" style="stroke:#181818;stroke-width:1.0;stroke-dasharray:7.0,7.0;"/><polygon fill="none" points="702,122.34,696,140.34,708,140.34,702,122.34" style="stroke:#181818;stroke-width:1.0;"/></g><!--link ConfigurationMonitorStartup to ConfigurationMonitor--><g id="link_ConfigurationMonitorStartup_ConfigurationMonitor"><path codeLine="77" d="M701.65,493.19 C701.08,556.37 700.0036,676.5002 699.1536,771.6702 " fill="none" id="ConfigurationMonitorStartup-to-ConfigurationMonitor" style="stroke:#181818;stroke-width:1.0;"/><polygon fill="#181818" points="699.1,777.67,703.1802,768.7061,699.1447,772.6702,695.1805,768.6346,699.1,777.67" style="stroke:#181818;stroke-width:1.0;"/><text fill="#000000" font-family="sans-serif" font-size="13" lengthAdjust="spacing" textLength="134" x="700" y="744.7284">configurationMonitor</text></g><!--reverse link Thread to ConfigurationMonitor--><g id="link_Thread_ConfigurationMonitor"><path codeLine="78" d="M492.9579,696.1579 C506.4079,709.6079 507.01,710.2 520,723.16 C537.73,740.86 556.48,759.53 574.89,777.85 " fill="none" id="Thread-backto-ConfigurationMonitor" style="stroke:#181818;stroke-width:1.0;"/><polygon fill="none" points="480.23,683.43,488.7153,700.4006,497.2006,691.9153,480.23,683.43" style="stroke:#181818;stroke-width:1.0;"/></g><text fill="#888888" font-family="sans-serif" font-size="10" lengthAdjust="spacing" textLength="176" x="664" y="1055.688">UMLDoclet 2.1.2, PlantUML 1.2024.3</text><!--SRC=[pLRVR-8u47xVly8l9r6r2Ue-HhskA6MlQ84YajxUgggGSQRWhOaZs-7WTjk__SOcK48TZjFruP20PERp_FWyCpOXX6Wm-CsfeaOg4aKVFg2Gv9GzqIaGgQRXGggSYd0YQ0eXpNF16JLSPZfa-2C5sFz7FYK_rcljXmcgDMaxUQ4Sl2ypZYvYGvKfSd9_Vq0RpinSF3oWHRBpEKK_1fQcYr1E1VyBqaOCQY70jDUQpW8oSnAHXUIfT-arQAFawhY5p_lvVEO2-ZH3OkO8nnIgWfge1TV60dK37SH6yMnQ1MYw00jeh9Ld9SYRXymXsy6-jVXyp2RKiEzF8FYJ6ZO35P6lzi4InnbK8K-mqX7fq_p2ORx0wemCgPbTLc4AMA4qNq149X8hXsPLlL6KrUX-Q8EXicVomgWs3UV6xTh5fykJChJrU_B6wHHt05J31kGZTOje2L4BEkNRgdEOiqsKFl1BhYG3hLr0RjyzzdGyemfILnehT3-tE5_gfqMUKbCMMjg_GhqkOpXGAQh86lzOqIFiXzQmY_LGFjNKC2pfd6VGUkt-6DF3lzSwH0CvpWFOT_PSdIZVwO8kGxtklXqt7FjGFUBsasfdzkpEP61BTcPChgDcqve02AVSp8f9o6Kf27GEp3sdacdti6oMZff-eoxRJrm7A0ELKV6hKGNy3mPF3N6XeDbq9xZr9YOp1JJT8SZc7qhi9JURvqt871lkHqFp_DmXcZJdJXHEhDGXhFtcsjwHt0G0HkOH4N9lh0M6fpvnHkVWdOClhWHKaHj8Q-P3IMRRfjsJU1xXKDfvgO9vXaEBex4Mixre2LTIbBn7n2Uj6fX9uJnyvY3I6_TI3TWuedgIKO7JBtbzmq6udvgBXKu49CSk2ZJ3QP_-JaK1LpnBaIzSS3lv3ipuHsCmw7mT9pUZJkjwVDKTN7S7lyNU5QzKe-SdBoJ0Ay7JbK2rfS1d8-Dog-zkx77Cq1_SQRyx60z7tTjHD_aMsNwlmGrkH_sZWFtM7mTmhbWYU_mPdXLkPjKSA8FRSNTmqq4p6_9wj-rMBpxWE-ZqXyctSPoqsb_6oQZLxjYInavDx0dM4Uu-SFzG3QZ862scCzDPCiXjF3SqIuMbxwv6K-CyXKTQ27Ftt-pjbky8zN8U0_XQzYrmgEG4tjBZiuYxa5ArMflsxX75WqLjEg6z4Uor8geSlxQ3OjiNkYHyA_1Fpyfn4qKrPyl5pp3yLtVTA3fmUtMEtyqQ2OBBTx0M4UQHRZbo9qiKbKV9nSyWU0UVpZe3Enl8evJsxwxVkvRC7lqVm_Fm8zuIqR51AVbb0ShTA4x-1W00]--></g></svg>