<?xml version="1.0" encoding="us-ascii" standalone="no"?><svg xmlns="http://www.w3.org/2000/svg" xmlns:xlink="http://www.w3.org/1999/xlink" contentStyleType="text/css" height="292px" preserveAspectRatio="none" style="width:276px;height:292px;background:#FFFFFF;" version="1.1" viewBox="0 0 276 292" width="276px" zoomAndPan="magnify"><defs/><g><!--class org.vorpal.blade.framework.DummyResponse.ReasonPhrase--><a href="DummyResponse.ReasonPhrase.html" target="_top" title="DummyResponse.ReasonPhrase.html" xlink:actuate="onRequest" xlink:href="DummyResponse.ReasonPhrase.html" xlink:show="new" xlink:title="DummyResponse.ReasonPhrase.html" xlink:type="simple"><g id="elem_org.vorpal.blade.framework.DummyResponse.ReasonPhrase"><rect codeLine="5" fill="#F1F1F1" height="161.6836" id="org.vorpal.blade.framework.DummyResponse.ReasonPhrase" rx="2.5" ry="2.5" style="stroke:#181818;stroke-width:0.5;" width="262" x="7" y="105.27"/><ellipse cx="27.4" cy="124.4028" fill="#ADD1B2" rx="11" ry="11" style="stroke:#181818;stroke-width:1.0;"/><path d="M29.8731,130.5459 Q29.2921,130.8447 28.6529,130.9941 Q28.0138,131.1435 27.3082,131.1435 Q24.8014,131.1435 23.4815,129.4917 Q22.1617,127.8398 22.1617,124.7187 Q22.1617,121.5893 23.4815,119.9375 Q24.8014,118.2856 27.3082,118.2856 Q28.0138,118.2856 28.6612,118.435 Q29.3087,118.5845 29.8731,118.8833 L29.8731,121.6059 Q29.2423,121.0249 28.6488,120.7551 Q28.0553,120.4853 27.4244,120.4853 Q26.0797,120.4853 25.3949,121.552 Q24.7101,122.6186 24.7101,124.7187 Q24.7101,126.8105 25.3949,127.8772 Q26.0797,128.9438 27.4244,128.9438 Q28.0553,128.9438 28.6488,128.6741 Q29.2423,128.4043 29.8731,127.8232 Z " fill="#000000"/><text fill="#000000" font-family="sans-serif" font-size="14" lengthAdjust="spacing" textLength="218" x="42.6" y="123.8052">DummyResponse.ReasonPhrase</text><text fill="#000000" font-family="sans-serif" font-size="10" lengthAdjust="spacing" textLength="135" x="84.1" y="136.4262">org.vorpal.blade.framework</text><line style="stroke:#181818;stroke-width:0.5;" x1="8" x2="268" y1="143.5356" y2="143.5356"/><ellipse cx="18" cy="157.2798" fill="#84BE84" rx="3" ry="3" style="stroke:#038048;stroke-width:1.0;"/><text fill="#000000" font-family="sans-serif" font-size="14" lengthAdjust="spacing" text-decoration="underline" textLength="145" x="27" y="161.0708">getPhrase(int): String</text><rect fill="#F24D5C" height="6" style="stroke:#C82930;stroke-width:1.0;" width="6" x="15" y="170.768"/><text fill="#000000" font-family="sans-serif" font-size="14" lengthAdjust="spacing" text-decoration="underline" textLength="220" x="27" y="177.5591">getProvisionalPhrase(int): String</text><rect fill="#F24D5C" height="6" style="stroke:#C82930;stroke-width:1.0;" width="6" x="15" y="187.2563"/><text fill="#000000" font-family="sans-serif" font-size="14" lengthAdjust="spacing" text-decoration="underline" textLength="198" x="27" y="194.0473">getSuccessPhrase(int): String</text><rect fill="#F24D5C" height="6" style="stroke:#C82930;stroke-width:1.0;" width="6" x="15" y="203.7446"/><text fill="#000000" font-family="sans-serif" font-size="14" lengthAdjust="spacing" text-decoration="underline" textLength="223" x="27" y="210.5356">getRedirectionPhrase(int): String</text><rect fill="#F24D5C" height="6" style="stroke:#C82930;stroke-width:1.0;" width="6" x="15" y="220.2329"/><text fill="#000000" font-family="sans-serif" font-size="14" lengthAdjust="spacing" text-decoration="underline" textLength="220" x="27" y="227.0239">getClientErrorPhrase(int): String</text><rect fill="#F24D5C" height="6" style="stroke:#C82930;stroke-width:1.0;" width="6" x="15" y="236.7212"/><text fill="#000000" font-family="sans-serif" font-size="14" lengthAdjust="spacing" text-decoration="underline" textLength="223" x="27" y="243.5122">getServerErrorPhrase(int): String</text><rect fill="#F24D5C" height="6" style="stroke:#C82930;stroke-width:1.0;" width="6" x="15" y="253.2095"/><text fill="#000000" font-family="sans-serif" font-size="14" lengthAdjust="spacing" text-decoration="underline" textLength="236" x="27" y="260.0005">getGlobalFailurePhrase(int): String</text></g></a><!--class org.vorpal.blade.framework.DummyResponse--><a href="DummyResponse.html" target="_top" title="DummyResponse.html" xlink:actuate="onRequest" xlink:href="DummyResponse.html" xlink:show="new" xlink:title="DummyResponse.html" xlink:type="simple"><g id="elem_org.vorpal.blade.framework.DummyResponse"><rect codeLine="15" fill="#F1F1F1" height="38.2656" id="org.vorpal.blade.framework.DummyResponse" rx="2.5" ry="2.5" style="stroke:#181818;stroke-width:0.5;" width="167" x="54.5" y="7"/><ellipse cx="69.5" cy="26.1328" fill="#ADD1B2" rx="11" ry="11" style="stroke:#181818;stroke-width:1.0;"/><path d="M71.9731,32.2759 Q71.3921,32.5747 70.7529,32.7241 Q70.1138,32.8735 69.4082,32.8735 Q66.9014,32.8735 65.5815,31.2217 Q64.2617,29.5698 64.2617,26.4487 Q64.2617,23.3193 65.5815,21.6675 Q66.9014,20.0156 69.4082,20.0156 Q70.1138,20.0156 70.7612,20.165 Q71.4087,20.3145 71.9731,20.6133 L71.9731,23.3359 Q71.3423,22.7549 70.7488,22.4851 Q70.1553,22.2153 69.5244,22.2153 Q68.1797,22.2153 67.4949,23.282 Q66.8101,24.3486 66.8101,26.4487 Q66.8101,28.5405 67.4949,29.6072 Q68.1797,30.6738 69.5244,30.6738 Q70.1553,30.6738 70.7488,30.4041 Q71.3423,30.1343 71.9731,29.5532 Z " fill="#000000"/><text fill="#000000" font-family="sans-serif" font-size="14" lengthAdjust="spacing" textLength="118" x="92" y="25.5352">DummyResponse</text><text fill="#000000" font-family="sans-serif" font-size="10" lengthAdjust="spacing" textLength="135" x="83.5" y="38.1563">org.vorpal.blade.framework</text></g></a><!--reverse link org.vorpal.blade.framework.DummyResponse to org.vorpal.blade.framework.DummyResponse.ReasonPhrase--><g id="link_org.vorpal.blade.framework.DummyResponse_org.vorpal.blade.framework.DummyResponse.ReasonPhrase"><path codeLine="17" d="M138,61.56 C138,76.54 138,82.77 138,105.12 " fill="none" id="org.vorpal.blade.framework.DummyResponse-backto-org.vorpal.blade.framework.DummyResponse.ReasonPhrase" style="stroke:#181818;stroke-width:1.0;"/><ellipse cx="138" cy="53.56" fill="#FFFFFF" rx="8" ry="8" style="stroke:#181818;stroke-width:1.0;"/><line style="stroke:#181818;stroke-width:1.0;" x1="138" x2="138" y1="61.56" y2="45.56"/><line style="stroke:#181818;stroke-width:1.0;" x1="130" x2="146" y1="53.56" y2="53.56"/></g><text fill="#888888" font-family="sans-serif" font-size="10" lengthAdjust="spacing" textLength="176" x="43" y="282.6216">UMLDoclet 2.1.2, PlantUML 1.2024.3</text><!--SRC=[hLF1IWCn4Btx5KD1QAaDjdWgqejLBmgbnLFjORexsmrcCyjCMgcb_swsgnVBmYhc4dZptl0cym80e1J0Oq5QOa8BAb4mi81dJnUn3BbD2QWemnuoIoxLdsX18US8d_34eIfqRjL-q7XuCvbkYs8_ZytPAvaveRAVvO9Ah_wBT3rXsPWTIudEh1scP3A9XjvPtZg02irbqzmUbilceib3uLOhE9myL-UW0ODDZj3VKAX9NUj3RmoB8DPlpec3YYYyishPeskjMMoJX5HRy-UKMg4as6_pBJHtpf8Fzo8ixNsHx4X-ftbql4RtWDPjXPfKnnR9-FymdEs_NddjfNMJ_c3mj_ZL8ySba436N5qlpqzJJbpyRYCpDAChc3dq8Q9m6H- -Ib6tzma0]--></g></svg>