<?xml version="1.0" encoding="us-ascii" standalone="no"?><svg xmlns="http://www.w3.org/2000/svg" xmlns:xlink="http://www.w3.org/1999/xlink" contentStyleType="text/css" height="457px" preserveAspectRatio="none" style="width:362px;height:457px;background:#FFFFFF;" version="1.1" viewBox="0 0 362 457" width="362px" zoomAndPan="magnify"><defs/><g><!--class org.vorpal.blade.services.crud.CrudServlet--><a href="CrudServlet.html" target="_top" title="CrudServlet.html" xlink:actuate="onRequest" xlink:href="CrudServlet.html" xlink:show="new" xlink:title="CrudServlet.html" xlink:type="simple"><g id="elem_org.vorpal.blade.services.crud.CrudServlet"><rect codeLine="5" fill="#F1F1F1" height="219.1484" id="org.vorpal.blade.services.crud.CrudServlet" rx="2.5" ry="2.5" style="stroke:#181818;stroke-width:0.5;" width="346" x="9" y="212.19"/><ellipse cx="105.25" cy="231.3228" fill="#ADD1B2" rx="11" ry="11" style="stroke:#181818;stroke-width:1.0;"/><path d="M107.7231,237.4659 Q107.1421,237.7647 106.5029,237.9141 Q105.8638,238.0635 105.1582,238.0635 Q102.6514,238.0635 101.3315,236.4117 Q100.0117,234.7598 100.0117,231.6387 Q100.0117,228.5093 101.3315,226.8575 Q102.6514,225.2056 105.1582,225.2056 Q105.8638,225.2056 106.5112,225.355 Q107.1587,225.5045 107.7231,225.8033 L107.7231,228.5259 Q107.0923,227.9449 106.4988,227.6751 Q105.9053,227.4053 105.2744,227.4053 Q103.9297,227.4053 103.2449,228.472 Q102.5601,229.5386 102.5601,231.6387 Q102.5601,233.7305 103.2449,234.7972 Q103.9297,235.8638 105.2744,235.8638 Q105.9053,235.8638 106.4988,235.5941 Q107.0923,235.3243 107.7231,234.7432 Z " fill="#000000"/><text fill="#000000" font-family="sans-serif" font-size="14" lengthAdjust="spacing" textLength="80" x="158.25" y="230.7252">CrudServlet</text><text fill="#000000" font-family="sans-serif" font-size="10" lengthAdjust="spacing" textLength="145" x="125.75" y="243.3462">org.vorpal.blade.services.crud</text><line style="stroke:#181818;stroke-width:0.5;" x1="10" x2="354" y1="250.4556" y2="250.4556"/><ellipse cx="20" cy="264.1998" fill="none" rx="3" ry="3" style="stroke:#038048;stroke-width:1.0;"/><text fill="#000000" font-family="sans-serif" font-size="14" lengthAdjust="spacing" textLength="237" x="29" y="267.9908">settingsManager: SettingsManager</text><line style="stroke:#181818;stroke-width:0.5;" x1="10" x2="354" y1="274.9439" y2="274.9439"/><polygon fill="#FFFF44" points="20,283.688,24,287.688,20,291.688,16,287.688" style="stroke:#B38D22;stroke-width:1.0;"/><text fill="#000000" font-family="sans-serif" font-size="14" lengthAdjust="spacing" textLength="305" x="29" y="292.4791">servletCreated(SipServletContextEvent): void</text><polygon fill="#FFFF44" points="20,300.1763,24,304.1763,20,308.1763,16,304.1763" style="stroke:#B38D22;stroke-width:1.0;"/><text fill="#000000" font-family="sans-serif" font-size="14" lengthAdjust="spacing" textLength="320" x="29" y="308.9673">servletDestroyed(SipServletContextEvent): void</text><polygon fill="#FFFF44" points="20,316.6646,24,320.6646,20,324.6646,16,320.6646" style="stroke:#B38D22;stroke-width:1.0;"/><text fill="#000000" font-family="sans-serif" font-size="14" lengthAdjust="spacing" textLength="299" x="29" y="325.4556">chooseCallflow(SipServletRequest): Callflow</text><ellipse cx="20" cy="338.1529" fill="#84BE84" rx="3" ry="3" style="stroke:#038048;stroke-width:1.0;"/><text fill="#000000" font-family="sans-serif" font-size="14" lengthAdjust="spacing" textLength="241" x="29" y="341.9439">callStarted(SipServletRequest): void</text><ellipse cx="20" cy="354.6412" fill="#84BE84" rx="3" ry="3" style="stroke:#038048;stroke-width:1.0;"/><text fill="#000000" font-family="sans-serif" font-size="14" lengthAdjust="spacing" textLength="271" x="29" y="358.4322">callAnswered(SipServletResponse): void</text><ellipse cx="20" cy="371.1295" fill="#84BE84" rx="3" ry="3" style="stroke:#038048;stroke-width:1.0;"/><text fill="#000000" font-family="sans-serif" font-size="14" lengthAdjust="spacing" textLength="266" x="29" y="374.9205">callConnected(SipServletRequest): void</text><ellipse cx="20" cy="387.6177" fill="#84BE84" rx="3" ry="3" style="stroke:#038048;stroke-width:1.0;"/><text fill="#000000" font-family="sans-serif" font-size="14" lengthAdjust="spacing" textLength="267" x="29" y="391.4087">callCompleted(SipServletRequest): void</text><ellipse cx="20" cy="404.106" fill="#84BE84" rx="3" ry="3" style="stroke:#038048;stroke-width:1.0;"/><text fill="#000000" font-family="sans-serif" font-size="14" lengthAdjust="spacing" textLength="262" x="29" y="407.897">callDeclined(SipServletResponse): void</text><ellipse cx="20" cy="420.5943" fill="#84BE84" rx="3" ry="3" style="stroke:#038048;stroke-width:1.0;"/><text fill="#000000" font-family="sans-serif" font-size="14" lengthAdjust="spacing" textLength="272" x="29" y="424.3853">callAbandoned(SipServletRequest): void</text></g></a><!--class org.vorpal.blade.framework.b2bua.B2buaServlet--><g id="elem_org.vorpal.blade.framework.b2bua.B2buaServlet"><rect codeLine="18" fill="#F1F1F1" height="145.1953" id="org.vorpal.blade.framework.b2bua.B2buaServlet" rx="2.5" ry="2.5" style="stroke:#181818;stroke-width:0.5;" width="298" x="33" y="7"/><ellipse cx="93.75" cy="26.1328" fill="#A9DCDF" rx="11" ry="11" style="stroke:#181818;stroke-width:1.0;"/><path d="M93.6133,21.481 L92.4595,26.5527 L94.7754,26.5527 Z M92.1191,19.2397 L95.1157,19.2397 L98.4609,31.6328 L96.0122,31.6328 L95.2485,28.5698 L91.9697,28.5698 L91.2227,31.6328 L88.7739,31.6328 Z " fill="#000000"/><text fill="#000000" font-family="sans-serif" font-size="14" font-style="italic" lengthAdjust="spacing" textLength="89" x="153.75" y="25.5352">B2buaServlet</text><text fill="#000000" font-family="sans-serif" font-size="10" font-style="italic" lengthAdjust="spacing" textLength="168" x="114.25" y="38.1563">org.vorpal.blade.framework.b2bua</text><line style="stroke:#181818;stroke-width:0.5;" x1="34" x2="330" y1="45.2656" y2="45.2656"/><ellipse cx="44" cy="59.0098" fill="#84BE84" rx="3" ry="3" style="stroke:#038048;stroke-width:1.0;"/><text fill="#000000" font-family="sans-serif" font-size="14" font-style="italic" lengthAdjust="spacing" textLength="241" x="53" y="62.8008">callStarted(SipServletRequest): void</text><ellipse cx="44" cy="75.498" fill="#84BE84" rx="3" ry="3" style="stroke:#038048;stroke-width:1.0;"/><text fill="#000000" font-family="sans-serif" font-size="14" font-style="italic" lengthAdjust="spacing" textLength="271" x="53" y="79.2891">callAnswered(SipServletResponse): void</text><ellipse cx="44" cy="91.9863" fill="#84BE84" rx="3" ry="3" style="stroke:#038048;stroke-width:1.0;"/><text fill="#000000" font-family="sans-serif" font-size="14" font-style="italic" lengthAdjust="spacing" textLength="266" x="53" y="95.7773">callConnected(SipServletRequest): void</text><ellipse cx="44" cy="108.4746" fill="#84BE84" rx="3" ry="3" style="stroke:#038048;stroke-width:1.0;"/><text fill="#000000" font-family="sans-serif" font-size="14" font-style="italic" lengthAdjust="spacing" textLength="267" x="53" y="112.2656">callCompleted(SipServletRequest): void</text><ellipse cx="44" cy="124.9629" fill="#84BE84" rx="3" ry="3" style="stroke:#038048;stroke-width:1.0;"/><text fill="#000000" font-family="sans-serif" font-size="14" font-style="italic" lengthAdjust="spacing" textLength="262" x="53" y="128.7539">callDeclined(SipServletResponse): void</text><ellipse cx="44" cy="141.4512" fill="#84BE84" rx="3" ry="3" style="stroke:#038048;stroke-width:1.0;"/><text fill="#000000" font-family="sans-serif" font-size="14" font-style="italic" lengthAdjust="spacing" textLength="272" x="53" y="145.2422">callAbandoned(SipServletRequest): void</text></g><!--reverse link org.vorpal.blade.framework.b2bua.B2buaServlet to org.vorpal.blade.services.crud.CrudServlet--><g id="link_org.vorpal.blade.framework.b2bua.B2buaServlet_org.vorpal.blade.services.crud.CrudServlet"><path codeLine="27" d="M182,170.65 C182,189.31 182,191.81 182,211.89 " fill="none" id="org.vorpal.blade.framework.b2bua.B2buaServlet-backto-org.vorpal.blade.services.crud.CrudServlet" style="stroke:#181818;stroke-width:1.0;"/><polygon fill="none" points="182,152.65,176,170.65,188,170.65,182,152.65" style="stroke:#181818;stroke-width:1.0;"/></g><text fill="#888888" font-family="sans-serif" font-size="10" lengthAdjust="spacing" textLength="176" x="86" y="447.0064">UMLDoclet 2.1.2, PlantUML 1.2024.3</text><!--SRC=[bLJBJiCm4Bpp5IiG4WYmeE9K8IH8kO64Y3X13njdsreutk1rKvx_ZjloI5C4YI-HnpEJNStQ00120HmM92LgIgb4Zu4zE7Qq4OzXOd82Aihm32D3DfScMb2OS8GNkBOe0fidObweVtHyclXfdfAlB8LxzuaUdh8VgufzYLPb5dDI4Yb6aoWT-Pk00dzJLCqNxkvgEpK9XHqEuNLHpdpjnGw3SMEvGeTZydr8Lu5lvfOiFH9F62ZVIKtvwPgm2_GKBYfoORSF5PjyJJKW2PwVs-lqX5aeGMj7bcSrrGqzJgDP57mT_ZIZ8v86zAlr_IXMVh5WdpcPaM_GfMGdz2i_rkn8j_TFk2WZfJL_GDeQrxwUimnTpku___Vb068MKq0TrYRnl9TDiSKeZdoy33Fs3ogRAtuVnWP9rSrhe_VwLSrxn-2QmWuPDgKTuboNjawsAUqGybgldVBk5it9sy51XwTb-QJ5kqiUHippp-tLvO3rtAkdZbHl7wujkX1HsAx8Ys6ti_i1]--></g></svg>