<?xml version="1.0" encoding="us-ascii" standalone="no"?><svg xmlns="http://www.w3.org/2000/svg" xmlns:xlink="http://www.w3.org/1999/xlink" contentStyleType="text/css" height="430px" preserveAspectRatio="none" style="width:403px;height:430px;background:#FFFFFF;" version="1.1" viewBox="0 0 403 430" width="403px" zoomAndPan="magnify"><defs/><g><!--class org.vorpal.blade.services.crud.Rule--><a href="Rule.html" target="_top" title="Rule.html" xlink:actuate="onRequest" xlink:href="Rule.html" xlink:show="new" xlink:title="Rule.html" xlink:type="simple"><g id="elem_org.vorpal.blade.services.crud.Rule"><rect codeLine="5" fill="#F1F1F1" height="202.6602" id="org.vorpal.blade.services.crud.Rule" rx="2.5" ry="2.5" style="stroke:#181818;stroke-width:0.5;" width="326" x="38.5" y="105.26"/><ellipse cx="124.75" cy="124.3928" fill="#ADD1B2" rx="11" ry="11" style="stroke:#181818;stroke-width:1.0;"/><path d="M127.2231,130.5359 Q126.6421,130.8347 126.0029,130.9841 Q125.3638,131.1335 124.6582,131.1335 Q122.1514,131.1335 120.8315,129.4817 Q119.5117,127.8298 119.5117,124.7087 Q119.5117,121.5793 120.8315,119.9275 Q122.1514,118.2756 124.6582,118.2756 Q125.3638,118.2756 126.0112,118.425 Q126.6587,118.5745 127.2231,118.8733 L127.2231,121.5959 Q126.5923,121.0149 125.9988,120.7451 Q125.4053,120.4753 124.7744,120.4753 Q123.4297,120.4753 122.7449,121.542 Q122.0601,122.6086 122.0601,124.7087 Q122.0601,126.8005 122.7449,127.8672 Q123.4297,128.9338 124.7744,128.9338 Q125.4053,128.9338 125.9988,128.6641 Q126.5923,128.3943 127.2231,127.8132 Z " fill="#000000"/><text fill="#000000" font-family="sans-serif" font-size="14" lengthAdjust="spacing" textLength="30" x="202.75" y="123.7952">Rule</text><text fill="#000000" font-family="sans-serif" font-size="10" lengthAdjust="spacing" textLength="145" x="145.25" y="136.4163">org.vorpal.blade.services.crud</text><line style="stroke:#181818;stroke-width:0.5;" x1="39.5" x2="363.5" y1="143.5256" y2="143.5256"/><rect fill="none" height="6" style="stroke:#C82930;stroke-width:1.0;" width="6" x="46.5" y="154.2698"/><text fill="#000000" font-family="sans-serif" font-size="14" lengthAdjust="spacing" textLength="67" x="58.5" y="161.0608">map: Map</text><ellipse cx="49.5" cy="173.758" fill="none" rx="3" ry="3" style="stroke:#038048;stroke-width:1.0;"/><text fill="#000000" font-family="sans-serif" font-size="14" lengthAdjust="spacing" textLength="62" x="58.5" y="177.5491">id: String</text><ellipse cx="49.5" cy="190.2463" fill="none" rx="3" ry="3" style="stroke:#038048;stroke-width:1.0;"/><text fill="#000000" font-family="sans-serif" font-size="14" lengthAdjust="spacing" textLength="126" x="58.5" y="194.0373">description: String</text><ellipse cx="49.5" cy="206.7346" fill="none" rx="3" ry="3" style="stroke:#038048;stroke-width:1.0;"/><text fill="#000000" font-family="sans-serif" font-size="14" lengthAdjust="spacing" textLength="102" x="58.5" y="210.5256">method: String</text><ellipse cx="49.5" cy="223.2229" fill="none" rx="3" ry="3" style="stroke:#038048;stroke-width:1.0;"/><text fill="#000000" font-family="sans-serif" font-size="14" lengthAdjust="spacing" textLength="73" x="58.5" y="227.0139">create: List</text><ellipse cx="49.5" cy="239.7112" fill="none" rx="3" ry="3" style="stroke:#038048;stroke-width:1.0;"/><text fill="#000000" font-family="sans-serif" font-size="14" lengthAdjust="spacing" textLength="62" x="58.5" y="243.5022">read: List</text><ellipse cx="49.5" cy="256.1995" fill="none" rx="3" ry="3" style="stroke:#038048;stroke-width:1.0;"/><text fill="#000000" font-family="sans-serif" font-size="14" lengthAdjust="spacing" textLength="79" x="58.5" y="259.9905">update: List</text><ellipse cx="49.5" cy="272.6877" fill="none" rx="3" ry="3" style="stroke:#038048;stroke-width:1.0;"/><text fill="#000000" font-family="sans-serif" font-size="14" lengthAdjust="spacing" textLength="73" x="58.5" y="276.4788">delete: List</text><line style="stroke:#181818;stroke-width:0.5;" x1="39.5" x2="363.5" y1="283.4319" y2="283.4319"/><ellipse cx="49.5" cy="297.176" fill="#84BE84" rx="3" ry="3" style="stroke:#038048;stroke-width:1.0;"/><text fill="#000000" font-family="sans-serif" font-size="14" lengthAdjust="spacing" textLength="300" x="58.5" y="300.967">process(Map, SipServletMessage, Map): void</text></g></a><!--class java.io.Serializable--><a href="https://docs.oracle.com/en/java/javase/11/docs/api/java.base/java/io/Serializable.html?is-external=true" target="_top" title="https://docs.oracle.com/en/java/javase/11/docs/api/java.base/java/io/Serializable.html?is-external=true" xlink:actuate="onRequest" xlink:href="https://docs.oracle.com/en/java/javase/11/docs/api/java.base/java/io/Serializable.html?is-external=true" xlink:show="new" xlink:title="https://docs.oracle.com/en/java/javase/11/docs/api/java.base/java/io/Serializable.html?is-external=true" xlink:type="simple"><g id="elem_java.io.Serializable"><rect codeLine="17" fill="#F1F1F1" height="38.2656" id="java.io.Serializable" rx="2.5" ry="2.5" style="stroke:#181818;stroke-width:0.5;" width="111" x="146" y="7"/><ellipse cx="161" cy="26.1328" fill="#B4A7E5" rx="11" ry="11" style="stroke:#181818;stroke-width:1.0;"/><path d="M157.4277,22.3979 L157.4277,20.2397 L164.8071,20.2397 L164.8071,22.3979 L162.3418,22.3979 L162.3418,30.4746 L164.8071,30.4746 L164.8071,32.6328 L157.4277,32.6328 L157.4277,30.4746 L159.8931,30.4746 L159.8931,22.3979 Z " fill="#000000"/><text fill="#000000" font-family="sans-serif" font-size="14" font-style="italic" lengthAdjust="spacing" textLength="79" x="175" y="25.5352">Serializable</text><text fill="#000000" font-family="sans-serif" font-size="10" font-style="italic" lengthAdjust="spacing" textLength="32" x="198.5" y="38.1563">java.io</text></g></a><!--class org.vorpal.blade.services.crud.Rule.MethodType--><a href="Rule.MethodType.html" target="_top" title="Rule.MethodType.html" xlink:actuate="onRequest" xlink:href="Rule.MethodType.html" xlink:show="new" xlink:title="Rule.MethodType.html" xlink:type="simple"><g id="elem_org.vorpal.blade.services.crud.Rule.MethodType"><rect codeLine="18" fill="#F1F1F1" height="38.2656" id="org.vorpal.blade.services.crud.Rule.MethodType" rx="2.5" ry="2.5" style="stroke:#181818;stroke-width:0.5;" width="177" x="7" y="367.92"/><ellipse cx="22" cy="387.0528" fill="#EB937F" rx="11" ry="11" style="stroke:#181818;stroke-width:1.0;"/><path d="M25.6143,393.5528 L17.8945,393.5528 L17.8945,381.1597 L25.6143,381.1597 L25.6143,383.3179 L20.3433,383.3179 L20.3433,385.9908 L25.1162,385.9908 L25.1162,388.149 L20.3433,388.149 L20.3433,391.3946 L25.6143,391.3946 Z " fill="#000000"/><text fill="#000000" font-family="sans-serif" font-size="14" lengthAdjust="spacing" textLength="119" x="49" y="386.4552">Rule.MethodType</text><text fill="#000000" font-family="sans-serif" font-size="10" lengthAdjust="spacing" textLength="145" x="36" y="399.0763">org.vorpal.blade.services.crud</text></g></a><!--class org.vorpal.blade.services.crud.Rule.MessageType--><a href="Rule.MessageType.html" target="_top" title="Rule.MessageType.html" xlink:actuate="onRequest" xlink:href="Rule.MessageType.html" xlink:show="new" xlink:title="Rule.MessageType.html" xlink:type="simple"><g id="elem_org.vorpal.blade.services.crud.Rule.MessageType"><rect codeLine="19" fill="#F1F1F1" height="38.2656" id="org.vorpal.blade.services.crud.Rule.MessageType" rx="2.5" ry="2.5" style="stroke:#181818;stroke-width:0.5;" width="177" x="219" y="367.92"/><ellipse cx="234" cy="387.0528" fill="#EB937F" rx="11" ry="11" style="stroke:#181818;stroke-width:1.0;"/><path d="M237.6143,393.5528 L229.8945,393.5528 L229.8945,381.1597 L237.6143,381.1597 L237.6143,383.3179 L232.3433,383.3179 L232.3433,385.9908 L237.1162,385.9908 L237.1162,388.149 L232.3433,388.149 L232.3433,391.3946 L237.6143,391.3946 Z " fill="#000000"/><text fill="#000000" font-family="sans-serif" font-size="14" lengthAdjust="spacing" textLength="126" x="257.5" y="386.4552">Rule.MessageType</text><text fill="#000000" font-family="sans-serif" font-size="10" lengthAdjust="spacing" textLength="145" x="248" y="399.0763">org.vorpal.blade.services.crud</text></g></a><!--reverse link java.io.Serializable to org.vorpal.blade.services.crud.Rule--><g id="link_java.io.Serializable_org.vorpal.blade.services.crud.Rule"><path codeLine="21" d="M201.5,63.56 C201.5,78.25 201.5,82.1 201.5,104.96 " fill="none" id="java.io.Serializable-backto-org.vorpal.blade.services.crud.Rule" style="stroke:#181818;stroke-width:1.0;stroke-dasharray:7.0,7.0;"/><polygon fill="none" points="201.5,45.56,195.5,63.56,207.5,63.56,201.5,45.56" style="stroke:#181818;stroke-width:1.0;"/></g><!--reverse link org.vorpal.blade.services.crud.Rule to org.vorpal.blade.services.crud.Rule.MethodType--><g id="link_org.vorpal.blade.services.crud.Rule_org.vorpal.blade.services.crud.Rule.MethodType"><path codeLine="22" d="M133.5112,322.0576 C119.9912,344.8276 115.24,352.83 106.52,367.51 " fill="none" id="org.vorpal.blade.services.crud.Rule-backto-org.vorpal.blade.services.crud.Rule.MethodType" style="stroke:#181818;stroke-width:1.0;"/><ellipse cx="137.5956" cy="315.1788" fill="#FFFFFF" rx="8" ry="8" style="stroke:#181818;stroke-width:1.0;"/><line style="stroke:#181818;stroke-width:1.0;" x1="133.5112" x2="141.68" y1="322.0576" y2="308.3"/><line style="stroke:#181818;stroke-width:1.0;" x1="130.7168" x2="144.4744" y1="311.0944" y2="319.2632"/></g><!--reverse link org.vorpal.blade.services.crud.Rule to org.vorpal.blade.services.crud.Rule.MessageType--><g id="link_org.vorpal.blade.services.crud.Rule_org.vorpal.blade.services.crud.Rule.MessageType"><path codeLine="23" d="M269.4888,322.0576 C283.0088,344.8276 287.76,352.83 296.48,367.51 " fill="none" id="org.vorpal.blade.services.crud.Rule-backto-org.vorpal.blade.services.crud.Rule.MessageType" style="stroke:#181818;stroke-width:1.0;"/><ellipse cx="265.4044" cy="315.1788" fill="#FFFFFF" rx="8" ry="8" style="stroke:#181818;stroke-width:1.0;"/><line style="stroke:#181818;stroke-width:1.0;" x1="269.4888" x2="261.32" y1="322.0576" y2="308.3"/><line style="stroke:#181818;stroke-width:1.0;" x1="258.5256" x2="272.2832" y1="319.2632" y2="311.0944"/></g><text fill="#888888" font-family="sans-serif" font-size="10" lengthAdjust="spacing" textLength="176" x="106.5" y="420.8536">UMLDoclet 2.1.2, PlantUML 1.2024.3</text><!--SRC=[jPHDJnin48Rl_HKZ92GGYRT1FQs0NZWI2JNjYUOmiIV9L5xRydXNVBJ_lLud9251Y4fb3_lnU3n-v_Lu0G244ZXiI09gcb30YCb7SDxHfpmCIpO4r8Jq07CcQsIVDfIMFkF2jKKHEBeGVgHwzENgMslffrj_VhxoSQ4w7mDQDRDeI0d5ZZM9qh4rHu02RuUeFY7StVKFjKoDdKxXgQpSNyC6GmrZ31jongQ6IOhi5bjcI7JaaDYxmy5LEOTSHy94DTomf2tDqEopDfXN8WrPEgGX-boQd6JD0vXmcEHYSzmuCrpGeA_bj8REiobp_gnSPfSeplD-xJYTPp9QViJP2yT_OOUAVR5s_QvsGxENovI2r5Lbl1Rb8-fihVPDHQxgPvIRK3KQbOWA0nUaPZqj4UohtPnbOxwo3Ea-wtHeBrDiQJejsicrpLw3g77n_Fj3-F-zifFxkMssPDr1R-Wgs_1HmZR9jyesw5bQqVRgnbtyLkez2vKCxpbLPyFXFphw0Qat1gn-9zHtEiozxny_nZVNFdTdWdCrKkS3kBNeKgPmt56KV9nFJly2]--></g></svg>