<?xml version="1.0" encoding="us-ascii" standalone="no"?><svg xmlns="http://www.w3.org/2000/svg" xmlns:xlink="http://www.w3.org/1999/xlink" contentStyleType="text/css" height="391px" preserveAspectRatio="none" style="width:191px;height:391px;background:#FFFFFF;" version="1.1" viewBox="0 0 191 391" width="191px" zoomAndPan="magnify"><defs/><g><!--class org.vorpal.blade.services.crud.Rule.MethodType--><a href="Rule.MethodType.html" target="_top" title="Rule.MethodType.html" xlink:actuate="onRequest" xlink:href="Rule.MethodType.html" xlink:show="new" xlink:title="Rule.MethodType.html" xlink:type="simple"><g id="elem_org.vorpal.blade.services.crud.Rule.MethodType"><rect codeLine="5" fill="#F1F1F1" height="260.6133" id="org.vorpal.blade.services.crud.Rule.MethodType" rx="2.5" ry="2.5" style="stroke:#181818;stroke-width:0.5;" width="177" x="7" y="105.27"/><ellipse cx="22" cy="124.4028" fill="#EB937F" rx="11" ry="11" style="stroke:#181818;stroke-width:1.0;"/><path d="M25.6143,130.9028 L17.8945,130.9028 L17.8945,118.5097 L25.6143,118.5097 L25.6143,120.6679 L20.3433,120.6679 L20.3433,123.3408 L25.1162,123.3408 L25.1162,125.499 L20.3433,125.499 L20.3433,128.7446 L25.6143,128.7446 Z " fill="#000000"/><text fill="#000000" font-family="sans-serif" font-size="14" lengthAdjust="spacing" textLength="119" x="49" y="123.8052">Rule.MethodType</text><text fill="#000000" font-family="sans-serif" font-size="10" lengthAdjust="spacing" textLength="145" x="36" y="136.4262">org.vorpal.blade.services.crud</text><line style="stroke:#181818;stroke-width:0.5;" x1="8" x2="183" y1="143.5356" y2="143.5356"/><ellipse cx="18" cy="157.2798" fill="none" rx="3" ry="3" style="stroke:#038048;stroke-width:1.0;"/><text fill="#000000" font-family="sans-serif" font-size="14" lengthAdjust="spacing" text-decoration="underline" textLength="44" x="27" y="161.0708">INVITE</text><ellipse cx="18" cy="173.768" fill="none" rx="3" ry="3" style="stroke:#038048;stroke-width:1.0;"/><text fill="#000000" font-family="sans-serif" font-size="14" lengthAdjust="spacing" text-decoration="underline" textLength="29" x="27" y="177.5591">ACK</text><ellipse cx="18" cy="190.2563" fill="none" rx="3" ry="3" style="stroke:#038048;stroke-width:1.0;"/><text fill="#000000" font-family="sans-serif" font-size="14" lengthAdjust="spacing" text-decoration="underline" textLength="25" x="27" y="194.0473">BYE</text><ellipse cx="18" cy="206.7446" fill="none" rx="3" ry="3" style="stroke:#038048;stroke-width:1.0;"/><text fill="#000000" font-family="sans-serif" font-size="14" lengthAdjust="spacing" text-decoration="underline" textLength="55" x="27" y="210.5356">CANCEL</text><ellipse cx="18" cy="223.2329" fill="none" rx="3" ry="3" style="stroke:#038048;stroke-width:1.0;"/><text fill="#000000" font-family="sans-serif" font-size="14" lengthAdjust="spacing" text-decoration="underline" textLength="65" x="27" y="227.0239">REGISTER</text><ellipse cx="18" cy="239.7212" fill="none" rx="3" ry="3" style="stroke:#038048;stroke-width:1.0;"/><text fill="#000000" font-family="sans-serif" font-size="14" lengthAdjust="spacing" text-decoration="underline" textLength="61" x="27" y="243.5122">OPTIONS</text><ellipse cx="18" cy="256.2095" fill="none" rx="3" ry="3" style="stroke:#038048;stroke-width:1.0;"/><text fill="#000000" font-family="sans-serif" font-size="14" lengthAdjust="spacing" text-decoration="underline" textLength="46" x="27" y="260.0005">PRACK</text><ellipse cx="18" cy="272.6977" fill="none" rx="3" ry="3" style="stroke:#038048;stroke-width:1.0;"/><text fill="#000000" font-family="sans-serif" font-size="14" lengthAdjust="spacing" text-decoration="underline" textLength="73" x="27" y="276.4888">SUBSCRIBE</text><ellipse cx="18" cy="289.186" fill="none" rx="3" ry="3" style="stroke:#038048;stroke-width:1.0;"/><text fill="#000000" font-family="sans-serif" font-size="14" lengthAdjust="spacing" text-decoration="underline" textLength="51" x="27" y="292.977">NOTIFY</text><ellipse cx="18" cy="305.6743" fill="none" rx="3" ry="3" style="stroke:#038048;stroke-width:1.0;"/><text fill="#000000" font-family="sans-serif" font-size="14" lengthAdjust="spacing" text-decoration="underline" textLength="55" x="27" y="309.4653">PUBLISH</text><ellipse cx="18" cy="322.1626" fill="none" rx="3" ry="3" style="stroke:#038048;stroke-width:1.0;"/><text fill="#000000" font-family="sans-serif" font-size="14" lengthAdjust="spacing" text-decoration="underline" textLength="33" x="27" y="325.9536">INFO</text><ellipse cx="18" cy="338.6509" fill="none" rx="3" ry="3" style="stroke:#038048;stroke-width:1.0;"/><text fill="#000000" font-family="sans-serif" font-size="14" lengthAdjust="spacing" text-decoration="underline" textLength="55" x="27" y="342.4419">UPDATE</text><ellipse cx="18" cy="355.1391" fill="none" rx="3" ry="3" style="stroke:#038048;stroke-width:1.0;"/><text fill="#000000" font-family="sans-serif" font-size="14" lengthAdjust="spacing" text-decoration="underline" textLength="42" x="27" y="358.9302">REFER</text></g></a><!--class org.vorpal.blade.services.crud.Rule--><a href="Rule.html" target="_top" title="Rule.html" xlink:actuate="onRequest" xlink:href="Rule.html" xlink:show="new" xlink:title="Rule.html" xlink:type="simple"><g id="elem_org.vorpal.blade.services.crud.Rule"><rect codeLine="21" fill="#F1F1F1" height="38.2656" id="org.vorpal.blade.services.crud.Rule" rx="2.5" ry="2.5" style="stroke:#181818;stroke-width:0.5;" width="177" x="7" y="7"/><ellipse cx="22" cy="26.1328" fill="#ADD1B2" rx="11" ry="11" style="stroke:#181818;stroke-width:1.0;"/><path d="M24.4731,32.2759 Q23.8921,32.5747 23.2529,32.7241 Q22.6138,32.8735 21.9082,32.8735 Q19.4014,32.8735 18.0815,31.2217 Q16.7617,29.5698 16.7617,26.4487 Q16.7617,23.3193 18.0815,21.6675 Q19.4014,20.0156 21.9082,20.0156 Q22.6138,20.0156 23.2612,20.165 Q23.9087,20.3145 24.4731,20.6133 L24.4731,23.3359 Q23.8423,22.7549 23.2488,22.4851 Q22.6553,22.2153 22.0244,22.2153 Q20.6797,22.2153 19.9949,23.282 Q19.3101,24.3486 19.3101,26.4487 Q19.3101,28.5405 19.9949,29.6072 Q20.6797,30.6738 22.0244,30.6738 Q22.6553,30.6738 23.2488,30.4041 Q23.8423,30.1343 24.4731,29.5532 Z " fill="#000000"/><text fill="#000000" font-family="sans-serif" font-size="14" lengthAdjust="spacing" textLength="30" x="93.5" y="25.5352">Rule</text><text fill="#000000" font-family="sans-serif" font-size="10" lengthAdjust="spacing" textLength="145" x="36" y="38.1563">org.vorpal.blade.services.crud</text></g></a><!--reverse link org.vorpal.blade.services.crud.Rule to org.vorpal.blade.services.crud.Rule.MethodType--><g id="link_org.vorpal.blade.services.crud.Rule_org.vorpal.blade.services.crud.Rule.MethodType"><path codeLine="23" d="M95.5,61.54 C95.5,76.02 95.5,81.61 95.5,105.08 " fill="none" id="org.vorpal.blade.services.crud.Rule-backto-org.vorpal.blade.services.crud.Rule.MethodType" style="stroke:#181818;stroke-width:1.0;"/><ellipse cx="95.5" cy="53.54" fill="#FFFFFF" rx="8" ry="8" style="stroke:#181818;stroke-width:1.0;"/><line style="stroke:#181818;stroke-width:1.0;" x1="95.5" x2="95.5" y1="61.54" y2="45.54"/><line style="stroke:#181818;stroke-width:1.0;" x1="87.5" x2="103.5" y1="53.54" y2="53.54"/></g><text fill="#888888" font-family="sans-serif" font-size="10" lengthAdjust="spacing" textLength="176" x="0.5" y="381.5513">UMLDoclet 2.1.2, PlantUML 1.2024.3</text><!--SRC=[hPDTQy8m58RlzoiEmc336QRiQWp1rhg5QLlwCH3dHTOUPo5DIX859_vtgtKt9OmDbfl0yvwSZxm908160uALg2kMOOmLKyn81K8AlAfbM1Sv0fQLsS6gG9xhDYtHh6MDpnp5feJEaow-yB7_C8ms7Cdi793iAdmN5-L-ADKdsKfLCKu-ECkHQ5JR8aDDChN9Ey0q_1n2MhbXiMWHiZObNovXV-xijFRQC5Da1-XI_uqcdaKOkQyMwinjiUx8TxsfHOYyPnedNcIHWZ2XWHzRb32oruvJ9tOZwjWwy8E4JkQsPAapfV6BTV99OC5fE1vPBoJo9fT13et56MTQjpp-TsE_tMmiR0h_vbYtr_lZksbcGc5GmKhAqvREfcEPyVfZ34YV3EuWv4oOciBr5fKkfBYvFG80]--></g></svg>