<?xml version="1.0" encoding="us-ascii" standalone="no"?><svg xmlns="http://www.w3.org/2000/svg" xmlns:xlink="http://www.w3.org/1999/xlink" contentStyleType="text/css" height="830px" preserveAspectRatio="none" style="width:1196px;height:830px;background:#FFFFFF;" version="1.1" viewBox="0 0 1196 830" width="1196px" zoomAndPan="magnify"><defs/><g><!--cluster org.vorpal.blade.services.proxy.router--><g id="cluster_org.vorpal.blade.services.proxy.router"><path d="M8.5,590.67 L274.5,590.67 A3.75,3.75 0 0 1 277,593.17 L284,613.1583 L1180.5,613.1583 A2.5,2.5 0 0 1 1183,615.6583 L1183,802.59 A2.5,2.5 0 0 1 1180.5,805.09 L8.5,805.09 A2.5,2.5 0 0 1 6,802.59 L6,593.17 A2.5,2.5 0 0 1 8.5,590.67 " fill="none" style="stroke:#000000;stroke-width:1.5;"/><line style="stroke:#000000;stroke-width:1.5;" x1="6" x2="284" y1="613.1583" y2="613.1583"/><text fill="#000000" font-family="sans-serif" font-size="14" font-weight="bold" lengthAdjust="spacing" textLength="265" x="10" y="606.2052">org.vorpal.blade.services.proxy.router</text></g><!--cluster org.vorpal.blade.framework.proxy--><g id="cluster_org.vorpal.blade.framework.proxy"><path d="M80.5,228.59 L319.5,228.59 A3.75,3.75 0 0 1 322,231.09 L329,251.0783 L329.5,251.0783 A2.5,2.5 0 0 1 332,253.5783 L332,341.58 A2.5,2.5 0 0 1 329.5,344.08 L80.5,344.08 A2.5,2.5 0 0 1 78,341.58 L78,231.09 A2.5,2.5 0 0 1 80.5,228.59 " fill="none" style="stroke:#000000;stroke-width:1.5;"/><line style="stroke:#000000;stroke-width:1.5;" x1="78" x2="329" y1="251.0783" y2="251.0783"/><text fill="#000000" font-family="sans-serif" font-size="14" font-weight="bold" lengthAdjust="spacing" textLength="238" x="82" y="244.1252">org.vorpal.blade.framework.proxy</text></g><!--cluster org.vorpal.blade.framework.callflow--><g id="cluster_org.vorpal.blade.framework.callflow"><path d="M369.5,6 L625.5,6 A3.75,3.75 0 0 1 628,8.5 L635,28.4883 L688.5,28.4883 A2.5,2.5 0 0 1 691,30.9883 L691,564.17 A2.5,2.5 0 0 1 688.5,566.67 L369.5,566.67 A2.5,2.5 0 0 1 367,564.17 L367,8.5 A2.5,2.5 0 0 1 369.5,6 " fill="none" style="stroke:#000000;stroke-width:1.5;"/><line style="stroke:#000000;stroke-width:1.5;" x1="367" x2="635" y1="28.4883" y2="28.4883"/><text fill="#000000" font-family="sans-serif" font-size="14" font-weight="bold" lengthAdjust="spacing" textLength="255" x="371" y="21.5352">org.vorpal.blade.framework.callflow</text></g><!--cluster org.vorpal.blade.framework.config--><g id="cluster_org.vorpal.blade.framework.config"><path d="M717.5,195.62 L961.5,195.62 A3.75,3.75 0 0 1 964,198.12 L971,218.1083 L1018.5,218.1083 A2.5,2.5 0 0 1 1021,220.6083 L1021,374.56 A2.5,2.5 0 0 1 1018.5,377.06 L717.5,377.06 A2.5,2.5 0 0 1 715,374.56 L715,198.12 A2.5,2.5 0 0 1 717.5,195.62 " fill="none" style="stroke:#000000;stroke-width:1.5;"/><line style="stroke:#000000;stroke-width:1.5;" x1="715" x2="971" y1="218.1083" y2="218.1083"/><text fill="#000000" font-family="sans-serif" font-size="14" font-weight="bold" lengthAdjust="spacing" textLength="243" x="719" y="211.1552">org.vorpal.blade.framework.config</text></g><!--cluster java.io--><g id="cluster_java.io"><path d="M1047.5,236.84 L1094.5,236.84 A3.75,3.75 0 0 1 1097,239.34 L1104,259.3283 L1186.5,259.3283 A2.5,2.5 0 0 1 1189,261.8283 L1189,333.34 A2.5,2.5 0 0 1 1186.5,335.84 L1047.5,335.84 A2.5,2.5 0 0 1 1045,333.34 L1045,239.34 A2.5,2.5 0 0 1 1047.5,236.84 " fill="none" style="stroke:#000000;stroke-width:1.5;"/><line style="stroke:#000000;stroke-width:1.5;" x1="1045" x2="1104" y1="259.3283" y2="259.3283"/><text fill="#000000" font-family="sans-serif" font-size="14" font-weight="bold" lengthAdjust="spacing" textLength="46" x="1049" y="252.3752">java.io</text></g><!--class ProxyRouterSipServlet--><a href="ProxyRouterSipServlet.html" target="_top" title="ProxyRouterSipServlet.html" xlink:actuate="onRequest" xlink:href="ProxyRouterSipServlet.html" xlink:show="new" xlink:title="ProxyRouterSipServlet.html" xlink:type="simple"><g id="elem_ProxyRouterSipServlet"><rect codeLine="5" fill="#F1F1F1" height="146.9297" id="ProxyRouterSipServlet" rx="2.5" ry="2.5" style="stroke:#181818;stroke-width:0.5;" width="388" x="22" y="633.92"/><ellipse cx="135.75" cy="649.92" fill="#ADD1B2" rx="11" ry="11" style="stroke:#181818;stroke-width:1.0;"/><path d="M138.2231,656.0631 Q137.6421,656.3619 137.0029,656.5113 Q136.3638,656.6607 135.6582,656.6607 Q133.1514,656.6607 131.8315,655.0089 Q130.5117,653.357 130.5117,650.2359 Q130.5117,647.1065 131.8315,645.4547 Q133.1514,643.8028 135.6582,643.8028 Q136.3638,643.8028 137.0112,643.9522 Q137.6587,644.1016 138.2231,644.4005 L138.2231,647.1231 Q137.5923,646.5421 136.9988,646.2723 Q136.4053,646.0025 135.7744,646.0025 Q134.4297,646.0025 133.7449,647.0692 Q133.0601,648.1358 133.0601,650.2359 Q133.0601,652.3277 133.7449,653.3944 Q134.4297,654.461 135.7744,654.461 Q136.4053,654.461 136.9988,654.1912 Q137.5923,653.9215 138.2231,653.3404 Z " fill="#000000"/><text fill="#000000" font-family="sans-serif" font-size="14" lengthAdjust="spacing" textLength="152" x="156.25" y="655.211">ProxyRouterSipServlet</text><line style="stroke:#181818;stroke-width:0.5;" x1="23" x2="409" y1="665.92" y2="665.92"/><rect fill="none" height="6" style="stroke:#C82930;stroke-width:1.0;" width="6" x="30" y="676.6641"/><text fill="#000000" font-family="sans-serif" font-size="14" lengthAdjust="spacing" text-decoration="underline" textLength="152" x="42" y="683.4552">serialVersionUID: long</text><ellipse cx="33" cy="696.1524" fill="none" rx="3" ry="3" style="stroke:#038048;stroke-width:1.0;"/><text fill="#000000" font-family="sans-serif" font-size="14" lengthAdjust="spacing" text-decoration="underline" textLength="351" x="42" y="699.9434">settingsManager: SettingsManager&lt;RouterConfig&gt;</text><line style="stroke:#181818;stroke-width:0.5;" x1="23" x2="409" y1="706.8966" y2="706.8966"/><polygon fill="#FFFF44" points="33,715.6407,37,719.6407,33,723.6407,29,719.6407" style="stroke:#B38D22;stroke-width:1.0;"/><text fill="#000000" font-family="sans-serif" font-size="14" lengthAdjust="spacing" textLength="305" x="42" y="724.4317">servletCreated(SipServletContextEvent): void</text><polygon fill="#FFFF44" points="33,732.129,37,736.129,33,740.129,29,736.129" style="stroke:#B38D22;stroke-width:1.0;"/><text fill="#000000" font-family="sans-serif" font-size="14" lengthAdjust="spacing" textLength="320" x="42" y="740.92">servletDestroyed(SipServletContextEvent): void</text><ellipse cx="33" cy="753.6173" fill="#84BE84" rx="3" ry="3" style="stroke:#038048;stroke-width:1.0;"/><text fill="#000000" font-family="sans-serif" font-size="14" lengthAdjust="spacing" textLength="340" x="42" y="757.4083">proxyRequest(SipServletRequest, ProxyPlan): void</text><ellipse cx="33" cy="770.1055" fill="#84BE84" rx="3" ry="3" style="stroke:#038048;stroke-width:1.0;"/><text fill="#000000" font-family="sans-serif" font-size="14" lengthAdjust="spacing" textLength="362" x="42" y="773.8966">proxyResponse(SipServletResponse, ProxyPlan): void</text></g></a><!--class ProxyInvite--><a href="ProxyInvite.html" target="_top" title="ProxyInvite.html" xlink:actuate="onRequest" xlink:href="ProxyInvite.html" xlink:show="new" xlink:title="ProxyInvite.html" xlink:type="simple"><g id="elem_ProxyInvite"><rect codeLine="14" fill="#F1F1F1" height="163.418" id="ProxyInvite" rx="2.5" ry="2.5" style="stroke:#181818;stroke-width:0.5;" width="281" x="445.5" y="625.67"/><ellipse cx="543.75" cy="641.67" fill="#ADD1B2" rx="11" ry="11" style="stroke:#181818;stroke-width:1.0;"/><path d="M546.2231,647.8131 Q545.6421,648.1119 545.0029,648.2613 Q544.3638,648.4107 543.6582,648.4107 Q541.1514,648.4107 539.8315,646.7589 Q538.5117,645.107 538.5117,641.9859 Q538.5117,638.8565 539.8315,637.2047 Q541.1514,635.5528 543.6582,635.5528 Q544.3638,635.5528 545.0112,635.7022 Q545.6587,635.8516 546.2231,636.1505 L546.2231,638.8731 Q545.5923,638.2921 544.9988,638.0223 Q544.4053,637.7525 543.7744,637.7525 Q542.4297,637.7525 541.7449,638.8192 Q541.0601,639.8858 541.0601,641.9859 Q541.0601,644.0777 541.7449,645.1444 Q542.4297,646.211 543.7744,646.211 Q544.4053,646.211 544.9988,645.9412 Q545.5923,645.6715 546.2231,645.0904 Z " fill="#000000"/><text fill="#000000" font-family="sans-serif" font-size="14" lengthAdjust="spacing" textLength="76" x="564.25" y="646.961">ProxyInvite</text><line style="stroke:#181818;stroke-width:0.5;" x1="446.5" x2="725.5" y1="657.67" y2="657.67"/><rect fill="none" height="6" style="stroke:#C82930;stroke-width:1.0;" width="6" x="453.5" y="668.4141"/><text fill="#000000" font-family="sans-serif" font-size="14" lengthAdjust="spacing" text-decoration="underline" textLength="152" x="465.5" y="675.2052">serialVersionUID: long</text><rect fill="none" height="6" style="stroke:#C82930;stroke-width:1.0;" width="6" x="453.5" y="684.9024"/><text fill="#000000" font-family="sans-serif" font-size="14" lengthAdjust="spacing" textLength="195" x="465.5" y="691.6934">proxyListener: ProxyListener</text><rect fill="none" height="6" style="stroke:#C82930;stroke-width:1.0;" width="6" x="453.5" y="701.3907"/><text fill="#000000" font-family="sans-serif" font-size="14" lengthAdjust="spacing" textLength="145" x="465.5" y="708.1817">proxyPlan: ProxyPlan</text><rect fill="none" height="6" style="stroke:#C82930;stroke-width:1.0;" width="6" x="453.5" y="717.879"/><text fill="#000000" font-family="sans-serif" font-size="14" lengthAdjust="spacing" textLength="243" x="465.5" y="724.67">inboundRequest: SipServletRequest</text><line style="stroke:#181818;stroke-width:0.5;" x1="446.5" x2="725.5" y1="731.6231" y2="731.6231"/><ellipse cx="456.5" cy="745.3673" fill="#84BE84" rx="3" ry="3" style="stroke:#038048;stroke-width:1.0;"/><text fill="#000000" font-family="sans-serif" font-size="14" lengthAdjust="spacing" textLength="255" x="465.5" y="749.1583">ProxyInvite(ProxyPlan, ProxyListener)</text><ellipse cx="456.5" cy="761.8555" fill="#84BE84" rx="3" ry="3" style="stroke:#038048;stroke-width:1.0;"/><text fill="#000000" font-family="sans-serif" font-size="14" lengthAdjust="spacing" textLength="154" x="465.5" y="765.6466">ProxyInvite(ProxyPlan)</text><ellipse cx="456.5" cy="778.3438" fill="#84BE84" rx="3" ry="3" style="stroke:#038048;stroke-width:1.0;"/><text fill="#000000" font-family="sans-serif" font-size="14" lengthAdjust="spacing" textLength="222" x="465.5" y="782.1348">process(SipServletRequest): void</text></g></a><!--class ProxyRouterConfigSample--><a href="ProxyRouterConfigSample.html" target="_top" title="ProxyRouterConfigSample.html" xlink:actuate="onRequest" xlink:href="ProxyRouterConfigSample.html" xlink:show="new" xlink:title="ProxyRouterConfigSample.html" xlink:type="simple"><g id="elem_ProxyRouterConfigSample"><rect codeLine="24" fill="#F1F1F1" height="64.4883" id="ProxyRouterConfigSample" rx="2.5" ry="2.5" style="stroke:#181818;stroke-width:0.5;" width="213" x="761.5" y="675.14"/><ellipse cx="776.5" cy="691.14" fill="#ADD1B2" rx="11" ry="11" style="stroke:#181818;stroke-width:1.0;"/><path d="M778.9731,697.2831 Q778.3921,697.5819 777.7529,697.7313 Q777.1138,697.8807 776.4082,697.8807 Q773.9014,697.8807 772.5815,696.2289 Q771.2617,694.577 771.2617,691.4559 Q771.2617,688.3265 772.5815,686.6747 Q773.9014,685.0228 776.4082,685.0228 Q777.1138,685.0228 777.7612,685.1722 Q778.4087,685.3216 778.9731,685.6205 L778.9731,688.3431 Q778.3423,687.7621 777.7488,687.4923 Q777.1553,687.2225 776.5244,687.2225 Q775.1797,687.2225 774.4949,688.2892 Q773.8101,689.3558 773.8101,691.4559 Q773.8101,693.5477 774.4949,694.6144 Q775.1797,695.681 776.5244,695.681 Q777.1553,695.681 777.7488,695.4112 Q778.3423,695.1415 778.9731,694.5604 Z " fill="#000000"/><text fill="#000000" font-family="sans-serif" font-size="14" lengthAdjust="spacing" textLength="181" x="790.5" y="696.431">ProxyRouterConfigSample</text><line style="stroke:#181818;stroke-width:0.5;" x1="762.5" x2="973.5" y1="707.14" y2="707.14"/><rect fill="none" height="6" style="stroke:#C82930;stroke-width:1.0;" width="6" x="769.5" y="717.8841"/><text fill="#000000" font-family="sans-serif" font-size="14" lengthAdjust="spacing" text-decoration="underline" textLength="152" x="781.5" y="724.6752">serialVersionUID: long</text><line style="stroke:#181818;stroke-width:0.5;" x1="762.5" x2="973.5" y1="731.6283" y2="731.6283"/></g></a><!--class TestRegEx--><a href="TestRegEx.html" target="_top" title="TestRegEx.html" xlink:actuate="onRequest" xlink:href="TestRegEx.html" xlink:show="new" xlink:title="TestRegEx.html" xlink:type="simple"><g id="elem_TestRegEx"><rect codeLine="28" fill="#F1F1F1" height="64.4883" id="TestRegEx" rx="2.5" ry="2.5" style="stroke:#181818;stroke-width:0.5;" width="158" x="1009" y="675.14"/><ellipse cx="1048.3" cy="691.14" fill="#ADD1B2" rx="11" ry="11" style="stroke:#181818;stroke-width:1.0;"/><path d="M1050.7731,697.2831 Q1050.1921,697.5819 1049.5529,697.7313 Q1048.9138,697.8807 1048.2082,697.8807 Q1045.7014,697.8807 1044.3815,696.2289 Q1043.0617,694.577 1043.0617,691.4559 Q1043.0617,688.3265 1044.3815,686.6747 Q1045.7014,685.0228 1048.2082,685.0228 Q1048.9138,685.0228 1049.5612,685.1722 Q1050.2087,685.3216 1050.7731,685.6205 L1050.7731,688.3431 Q1050.1423,687.7621 1049.5488,687.4923 Q1048.9553,687.2225 1048.3244,687.2225 Q1046.9797,687.2225 1046.2949,688.2892 Q1045.6101,689.3558 1045.6101,691.4559 Q1045.6101,693.5477 1046.2949,694.6144 Q1046.9797,695.681 1048.3244,695.681 Q1048.9553,695.681 1049.5488,695.4112 Q1050.1423,695.1415 1050.7731,694.5604 Z " fill="#000000"/><text fill="#000000" font-family="sans-serif" font-size="14" lengthAdjust="spacing" textLength="72" x="1067.7" y="696.431">TestRegEx</text><line style="stroke:#181818;stroke-width:0.5;" x1="1010" x2="1166" y1="707.14" y2="707.14"/><line style="stroke:#181818;stroke-width:0.5;" x1="1010" x2="1166" y1="715.14" y2="715.14"/><ellipse cx="1020" cy="728.8841" fill="#84BE84" rx="3" ry="3" style="stroke:#038048;stroke-width:1.0;"/><text fill="#000000" font-family="sans-serif" font-size="14" lengthAdjust="spacing" text-decoration="underline" textLength="132" x="1029" y="732.6752">main(String[]): void</text></g></a><!--class ProxyServlet--><a href="https://vorpalnet.github.io/blade/vorpal-blade-library-framework/org/vorpal/blade/framework/proxy/ProxyServlet.html?is-external=true" target="_top" title="https://vorpalnet.github.io/blade/vorpal-blade-library-framework/org/vorpal/blade/framework/proxy/ProxyServlet.html?is-external=true" xlink:actuate="onRequest" xlink:href="https://vorpalnet.github.io/blade/vorpal-blade-library-framework/org/vorpal/blade/framework/proxy/ProxyServlet.html?is-external=true" xlink:show="new" xlink:title="https://vorpalnet.github.io/blade/vorpal-blade-library-framework/org/vorpal/blade/framework/proxy/ProxyServlet.html?is-external=true" xlink:type="simple"><g id="elem_ProxyServlet"><rect codeLine="35" fill="#F1F1F1" height="64.4883" id="ProxyServlet" rx="2.5" ry="2.5" style="stroke:#181818;stroke-width:0.5;" width="178" x="127" y="263.59"/><ellipse cx="169.45" cy="279.59" fill="#A9DCDF" rx="11" ry="11" style="stroke:#181818;stroke-width:1.0;"/><path d="M169.3133,274.9381 L168.1595,280.0099 L170.4754,280.0099 Z M167.8191,272.6969 L170.8157,272.6969 L174.1609,285.09 L171.7122,285.09 L170.9485,282.027 L167.6697,282.027 L166.9227,285.09 L164.4739,285.09 Z " fill="#000000"/><text fill="#000000" font-family="sans-serif" font-size="14" font-style="italic" lengthAdjust="spacing" textLength="85" x="189.55" y="284.881">ProxyServlet</text><line style="stroke:#181818;stroke-width:0.5;" x1="128" x2="304" y1="295.59" y2="295.59"/><rect fill="none" height="6" style="stroke:#C82930;stroke-width:1.0;" width="6" x="135" y="306.3341"/><text fill="#000000" font-family="sans-serif" font-size="14" lengthAdjust="spacing" text-decoration="underline" textLength="152" x="147" y="313.1252">serialVersionUID: long</text><line style="stroke:#181818;stroke-width:0.5;" x1="128" x2="304" y1="320.0783" y2="320.0783"/></g></a><!--class Callflow--><a href="https://vorpalnet.github.io/blade/vorpal-blade-library-framework/org/vorpal/blade/framework/callflow/Callflow.html?is-external=true" target="_top" title="https://vorpalnet.github.io/blade/vorpal-blade-library-framework/org/vorpal/blade/framework/callflow/Callflow.html?is-external=true" xlink:actuate="onRequest" xlink:href="https://vorpalnet.github.io/blade/vorpal-blade-library-framework/org/vorpal/blade/framework/callflow/Callflow.html?is-external=true" xlink:show="new" xlink:title="https://vorpalnet.github.io/blade/vorpal-blade-library-framework/org/vorpal/blade/framework/callflow/Callflow.html?is-external=true" xlink:type="simple"><g id="elem_Callflow"><rect codeLine="41" fill="#F1F1F1" height="509.6719" id="Callflow" rx="2.5" ry="2.5" style="stroke:#181818;stroke-width:0.5;" width="291" x="383.5" y="41"/><ellipse cx="497.25" cy="57" fill="#A9DCDF" rx="11" ry="11" style="stroke:#181818;stroke-width:1.0;"/><path d="M497.1133,52.3481 L495.9595,57.4199 L498.2754,57.4199 Z M495.6191,50.1069 L498.6157,50.1069 L501.9609,62.5 L499.5122,62.5 L498.7485,59.437 L495.4697,59.437 L494.7227,62.5 L492.2739,62.5 Z " fill="#000000"/><text fill="#000000" font-family="sans-serif" font-size="14" font-style="italic" lengthAdjust="spacing" textLength="55" x="517.75" y="62.291">Callflow</text><line style="stroke:#181818;stroke-width:0.5;" x1="384.5" x2="673.5" y1="73" y2="73"/><rect fill="none" height="6" style="stroke:#C82930;stroke-width:1.0;" width="6" x="391.5" y="83.7441"/><text fill="#000000" font-family="sans-serif" font-size="14" lengthAdjust="spacing" text-decoration="underline" textLength="152" x="403.5" y="90.5352">serialVersionUID: long</text><polygon fill="none" points="394.5,98.2324,398.5,102.2324,394.5,106.2324,390.5,102.2324" style="stroke:#B38D22;stroke-width:1.0;"/><text fill="#000000" font-family="sans-serif" font-size="14" lengthAdjust="spacing" text-decoration="underline" textLength="149" x="403.5" y="107.0234">sipFactory: SipFactory</text><polygon fill="none" points="394.5,114.7207,398.5,118.7207,394.5,122.7207,390.5,118.7207" style="stroke:#B38D22;stroke-width:1.0;"/><text fill="#000000" font-family="sans-serif" font-size="14" lengthAdjust="spacing" text-decoration="underline" textLength="154" x="403.5" y="123.5117">sipUtil: SipSessionsUtil</text><polygon fill="none" points="394.5,131.209,398.5,135.209,394.5,139.209,390.5,135.209" style="stroke:#B38D22;stroke-width:1.0;"/><text fill="#000000" font-family="sans-serif" font-size="14" lengthAdjust="spacing" text-decoration="underline" textLength="180" x="403.5" y="140">timerService: TimerService</text><polygon fill="none" points="394.5,147.6973,398.5,151.6973,394.5,155.6973,390.5,151.6973" style="stroke:#B38D22;stroke-width:1.0;"/><text fill="#000000" font-family="sans-serif" font-size="14" lengthAdjust="spacing" text-decoration="underline" textLength="124" x="403.5" y="156.4883">sipLogger: Logger</text><polygon fill="none" points="394.5,164.1855,398.5,168.1855,394.5,172.1855,390.5,168.1855" style="stroke:#B38D22;stroke-width:1.0;"/><text fill="#000000" font-family="sans-serif" font-size="14" lengthAdjust="spacing" text-decoration="underline" textLength="265" x="403.5" y="172.9766">sessionParameters: SessionParameters</text><polygon fill="none" points="394.5,180.6738,398.5,184.6738,394.5,188.6738,390.5,184.6738" style="stroke:#B38D22;stroke-width:1.0;"/><text fill="#000000" font-family="sans-serif" font-size="14" lengthAdjust="spacing" text-decoration="underline" textLength="93" x="403.5" y="189.4648">INVITE: String</text><polygon fill="none" points="394.5,197.1621,398.5,201.1621,394.5,205.1621,390.5,201.1621" style="stroke:#B38D22;stroke-width:1.0;"/><text fill="#000000" font-family="sans-serif" font-size="14" lengthAdjust="spacing" text-decoration="underline" textLength="78" x="403.5" y="205.9531">ACK: String</text><polygon fill="none" points="394.5,213.6504,398.5,217.6504,394.5,221.6504,390.5,217.6504" style="stroke:#B38D22;stroke-width:1.0;"/><text fill="#000000" font-family="sans-serif" font-size="14" lengthAdjust="spacing" text-decoration="underline" textLength="74" x="403.5" y="222.4414">BYE: String</text><polygon fill="none" points="394.5,230.1387,398.5,234.1387,394.5,238.1387,390.5,234.1387" style="stroke:#B38D22;stroke-width:1.0;"/><text fill="#000000" font-family="sans-serif" font-size="14" lengthAdjust="spacing" text-decoration="underline" textLength="104" x="403.5" y="238.9297">CANCEL: String</text><polygon fill="none" points="394.5,246.627,398.5,250.627,394.5,254.627,390.5,250.627" style="stroke:#B38D22;stroke-width:1.0;"/><text fill="#000000" font-family="sans-serif" font-size="14" lengthAdjust="spacing" text-decoration="underline" textLength="114" x="403.5" y="255.418">REGISTER: String</text><polygon fill="none" points="394.5,263.1152,398.5,267.1152,394.5,271.1152,390.5,267.1152" style="stroke:#B38D22;stroke-width:1.0;"/><text fill="#000000" font-family="sans-serif" font-size="14" lengthAdjust="spacing" text-decoration="underline" textLength="110" x="403.5" y="271.9063">OPTIONS: String</text><polygon fill="none" points="394.5,279.6035,398.5,283.6035,394.5,287.6035,390.5,283.6035" style="stroke:#B38D22;stroke-width:1.0;"/><text fill="#000000" font-family="sans-serif" font-size="14" lengthAdjust="spacing" text-decoration="underline" textLength="95" x="403.5" y="288.3945">PRACK: String</text><polygon fill="none" points="394.5,296.0918,398.5,300.0918,394.5,304.0918,390.5,300.0918" style="stroke:#B38D22;stroke-width:1.0;"/><text fill="#000000" font-family="sans-serif" font-size="14" lengthAdjust="spacing" text-decoration="underline" textLength="122" x="403.5" y="304.8828">SUBSCRIBE: String</text><polygon fill="none" points="394.5,312.5801,398.5,316.5801,394.5,320.5801,390.5,316.5801" style="stroke:#B38D22;stroke-width:1.0;"/><text fill="#000000" font-family="sans-serif" font-size="14" lengthAdjust="spacing" text-decoration="underline" textLength="100" x="403.5" y="321.3711">NOTIFY: String</text><polygon fill="none" points="394.5,329.0684,398.5,333.0684,394.5,337.0684,390.5,333.0684" style="stroke:#B38D22;stroke-width:1.0;"/><text fill="#000000" font-family="sans-serif" font-size="14" lengthAdjust="spacing" text-decoration="underline" textLength="104" x="403.5" y="337.8594">PUBLISH: String</text><polygon fill="none" points="394.5,345.5566,398.5,349.5566,394.5,353.5566,390.5,349.5566" style="stroke:#B38D22;stroke-width:1.0;"/><text fill="#000000" font-family="sans-serif" font-size="14" lengthAdjust="spacing" text-decoration="underline" textLength="82" x="403.5" y="354.3477">INFO: String</text><polygon fill="none" points="394.5,362.0449,398.5,366.0449,394.5,370.0449,390.5,366.0449" style="stroke:#B38D22;stroke-width:1.0;"/><text fill="#000000" font-family="sans-serif" font-size="14" lengthAdjust="spacing" text-decoration="underline" textLength="104" x="403.5" y="370.8359">UPDATE: String</text><polygon fill="none" points="394.5,378.5332,398.5,382.5332,394.5,386.5332,390.5,382.5332" style="stroke:#B38D22;stroke-width:1.0;"/><text fill="#000000" font-family="sans-serif" font-size="14" lengthAdjust="spacing" text-decoration="underline" textLength="91" x="403.5" y="387.3242">REFER: String</text><polygon fill="none" points="394.5,395.0215,398.5,399.0215,394.5,403.0215,390.5,399.0215" style="stroke:#B38D22;stroke-width:1.0;"/><text fill="#000000" font-family="sans-serif" font-size="14" lengthAdjust="spacing" text-decoration="underline" textLength="69" x="403.5" y="403.8125">SIP: String</text><polygon fill="none" points="394.5,411.5098,398.5,415.5098,394.5,419.5098,390.5,415.5098" style="stroke:#B38D22;stroke-width:1.0;"/><text fill="#000000" font-family="sans-serif" font-size="14" lengthAdjust="spacing" text-decoration="underline" textLength="102" x="403.5" y="420.3008">Contact: String</text><polygon fill="none" points="394.5,427.998,398.5,431.998,394.5,435.998,390.5,431.998" style="stroke:#B38D22;stroke-width:1.0;"/><text fill="#000000" font-family="sans-serif" font-size="14" lengthAdjust="spacing" text-decoration="underline" textLength="110" x="403.5" y="436.7891">RELIABLE: String</text><polygon fill="none" points="394.5,444.4863,398.5,448.4863,394.5,452.4863,390.5,448.4863" style="stroke:#B38D22;stroke-width:1.0;"/><text fill="#000000" font-family="sans-serif" font-size="14" lengthAdjust="spacing" text-decoration="underline" textLength="197" x="403.5" y="453.2773">REQUEST_CALLBACK_: String</text><polygon fill="none" points="394.5,460.9746,398.5,464.9746,394.5,468.9746,390.5,464.9746" style="stroke:#B38D22;stroke-width:1.0;"/><text fill="#000000" font-family="sans-serif" font-size="14" lengthAdjust="spacing" text-decoration="underline" textLength="204" x="403.5" y="469.7656">RESPONSE_CALLBACK_: String</text><polygon fill="none" points="394.5,477.4629,398.5,481.4629,394.5,485.4629,390.5,481.4629" style="stroke:#B38D22;stroke-width:1.0;"/><text fill="#000000" font-family="sans-serif" font-size="14" lengthAdjust="spacing" text-decoration="underline" textLength="161" x="403.5" y="486.2539">LINKED_SESSION: String</text><polygon fill="none" points="394.5,493.9512,398.5,497.9512,394.5,501.9512,390.5,497.9512" style="stroke:#B38D22;stroke-width:1.0;"/><text fill="#000000" font-family="sans-serif" font-size="14" lengthAdjust="spacing" text-decoration="underline" textLength="181" x="403.5" y="502.7422">DELAYED_REQUEST: String</text><polygon fill="none" points="394.5,510.4395,398.5,514.4395,394.5,518.4395,390.5,514.4395" style="stroke:#B38D22;stroke-width:1.0;"/><text fill="#000000" font-family="sans-serif" font-size="14" lengthAdjust="spacing" text-decoration="underline" textLength="199" x="403.5" y="519.2305">WITHHOLD_RESPONSE: String</text><line style="stroke:#181818;stroke-width:0.5;" x1="384.5" x2="673.5" y1="526.1836" y2="526.1836"/><ellipse cx="394.5" cy="539.9277" fill="#84BE84" rx="3" ry="3" style="stroke:#038048;stroke-width:1.0;"/><text fill="#000000" font-family="sans-serif" font-size="14" font-style="italic" lengthAdjust="spacing" textLength="222" x="403.5" y="543.7188">process(SipServletRequest): void</text></g></a><!--class RouterConfig--><a href="https://vorpalnet.github.io/blade/vorpal-blade-library-framework/org/vorpal/blade/framework/config/RouterConfig.html?is-external=true" target="_top" title="https://vorpalnet.github.io/blade/vorpal-blade-library-framework/org/vorpal/blade/framework/config/RouterConfig.html?is-external=true" xlink:actuate="onRequest" xlink:href="https://vorpalnet.github.io/blade/vorpal-blade-library-framework/org/vorpal/blade/framework/config/RouterConfig.html?is-external=true" xlink:show="new" xlink:title="https://vorpalnet.github.io/blade/vorpal-blade-library-framework/org/vorpal/blade/framework/config/RouterConfig.html?is-external=true" xlink:type="simple"><g id="elem_RouterConfig"><rect codeLine="74" fill="#F1F1F1" height="130.4414" id="RouterConfig" rx="2.5" ry="2.5" style="stroke:#181818;stroke-width:0.5;" width="275" x="730.5" y="230.62"/><ellipse cx="817.75" cy="246.62" fill="#ADD1B2" rx="11" ry="11" style="stroke:#181818;stroke-width:1.0;"/><path d="M820.2231,252.7631 Q819.6421,253.0619 819.0029,253.2113 Q818.3638,253.3607 817.6582,253.3607 Q815.1514,253.3607 813.8315,251.7089 Q812.5117,250.057 812.5117,246.9359 Q812.5117,243.8065 813.8315,242.1547 Q815.1514,240.5028 817.6582,240.5028 Q818.3638,240.5028 819.0112,240.6522 Q819.6587,240.8016 820.2231,241.1005 L820.2231,243.8231 Q819.5923,243.2421 818.9988,242.9723 Q818.4053,242.7025 817.7744,242.7025 Q816.4297,242.7025 815.7449,243.7692 Q815.0601,244.8358 815.0601,246.9359 Q815.0601,249.0277 815.7449,250.0944 Q816.4297,251.161 817.7744,251.161 Q818.4053,251.161 818.9988,250.8912 Q819.5923,250.6215 820.2231,250.0404 Z " fill="#000000"/><text fill="#000000" font-family="sans-serif" font-size="14" lengthAdjust="spacing" textLength="92" x="838.25" y="251.911">RouterConfig</text><line style="stroke:#181818;stroke-width:0.5;" x1="731.5" x2="1004.5" y1="262.62" y2="262.62"/><rect fill="none" height="6" style="stroke:#C82930;stroke-width:1.0;" width="6" x="738.5" y="273.3641"/><text fill="#000000" font-family="sans-serif" font-size="14" lengthAdjust="spacing" text-decoration="underline" textLength="152" x="750.5" y="280.1552">serialVersionUID: long</text><ellipse cx="741.5" cy="292.8524" fill="none" rx="3" ry="3" style="stroke:#038048;stroke-width:1.0;"/><text fill="#000000" font-family="sans-serif" font-size="14" lengthAdjust="spacing" textLength="214" x="750.5" y="296.6434">selectors: LinkedList&lt;Selector&gt;</text><ellipse cx="741.5" cy="309.3407" fill="none" rx="3" ry="3" style="stroke:#038048;stroke-width:1.0;"/><text fill="#000000" font-family="sans-serif" font-size="14" lengthAdjust="spacing" textLength="249" x="750.5" y="313.1317">maps: LinkedList&lt;TranslationsMap&gt;</text><ellipse cx="741.5" cy="325.829" fill="none" rx="3" ry="3" style="stroke:#038048;stroke-width:1.0;"/><text fill="#000000" font-family="sans-serif" font-size="14" lengthAdjust="spacing" textLength="242" x="750.5" y="329.62">plan: LinkedList&lt;TranslationsMap&gt;</text><ellipse cx="741.5" cy="342.3173" fill="none" rx="3" ry="3" style="stroke:#038048;stroke-width:1.0;"/><text fill="#000000" font-family="sans-serif" font-size="14" lengthAdjust="spacing" textLength="174" x="750.5" y="346.1083">defaultRoute: Translation</text><line style="stroke:#181818;stroke-width:0.5;" x1="731.5" x2="1004.5" y1="353.0614" y2="353.0614"/></g></a><!--class Serializable--><a href="https://docs.oracle.com/en/java/javase/11/docs/api/java.base/java/io/Serializable.html?is-external=true" target="_top" title="https://docs.oracle.com/en/java/javase/11/docs/api/java.base/java/io/Serializable.html?is-external=true" xlink:actuate="onRequest" xlink:href="https://docs.oracle.com/en/java/javase/11/docs/api/java.base/java/io/Serializable.html?is-external=true" xlink:show="new" xlink:title="https://docs.oracle.com/en/java/javase/11/docs/api/java.base/java/io/Serializable.html?is-external=true" xlink:type="simple"><g id="elem_Serializable"><rect codeLine="84" fill="#F1F1F1" height="48" id="Serializable" rx="2.5" ry="2.5" style="stroke:#181818;stroke-width:0.5;" width="111" x="1061.5" y="271.84"/><ellipse cx="1076.5" cy="287.84" fill="#B4A7E5" rx="11" ry="11" style="stroke:#181818;stroke-width:1.0;"/><path d="M1072.9277,284.1051 L1072.9277,281.9469 L1080.3071,281.9469 L1080.3071,284.1051 L1077.8418,284.1051 L1077.8418,292.1818 L1080.3071,292.1818 L1080.3071,294.34 L1072.9277,294.34 L1072.9277,292.1818 L1075.3931,292.1818 L1075.3931,284.1051 Z " fill="#000000"/><text fill="#000000" font-family="sans-serif" font-size="14" font-style="italic" lengthAdjust="spacing" textLength="79" x="1090.5" y="293.131">Serializable</text><line style="stroke:#181818;stroke-width:0.5;" x1="1062.5" x2="1171.5" y1="303.84" y2="303.84"/><line style="stroke:#181818;stroke-width:0.5;" x1="1062.5" x2="1171.5" y1="311.84" y2="311.84"/></g></a><!--reverse link ProxyServlet to ProxyRouterSipServlet--><g id="link_ProxyServlet_ProxyRouterSipServlet"><path codeLine="87" d="M216,346.29 C216,411.19 216,543.41 216,633.75 " fill="none" id="ProxyServlet-backto-ProxyRouterSipServlet" style="stroke:#181818;stroke-width:1.0;"/><polygon fill="none" points="216,328.29,210,346.29,222,346.29,216,328.29" style="stroke:#181818;stroke-width:1.0;"/></g><!--reverse link Callflow to ProxyInvite--><g id="link_Callflow_ProxyInvite"><path codeLine="88" d="M566.8508,568.7982 C570.5508,595.3882 571.61,602.97 574.71,625.26 " fill="none" id="Callflow-backto-ProxyInvite" style="stroke:#181818;stroke-width:1.0;"/><polygon fill="none" points="564.37,550.97,560.9081,569.6252,572.7935,567.9713,564.37,550.97" style="stroke:#181818;stroke-width:1.0;"/></g><!--reverse link RouterConfig to ProxyRouterConfigSample--><g id="link_RouterConfig_ProxyRouterConfigSample"><path codeLine="89" d="M868,379.28 C868,468.37 868,607.74 868,674.75 " fill="none" id="RouterConfig-backto-ProxyRouterConfigSample" style="stroke:#181818;stroke-width:1.0;"/><polygon fill="none" points="868,361.28,862,379.28,874,379.28,868,361.28" style="stroke:#181818;stroke-width:1.0;"/></g><!--reverse link Serializable to ProxyRouterConfigSample--><g id="link_Serializable_ProxyRouterConfigSample"><path codeLine="90" d="M1114.7368,338.0377 C1111.0868,391.1877 1095.8,504.48 1021,574.67 C1011.25,583.82 1003.56,575.95 992,582.67 C951.25,606.37 914.39,646.72 891.65,674.87 " fill="none" id="Serializable-backto-ProxyRouterConfigSample" style="stroke:#181818;stroke-width:1.0;stroke-dasharray:7.0,7.0;"/><polygon fill="none" points="1115.97,320.08,1108.7509,337.6266,1120.7227,338.4488,1115.97,320.08" style="stroke:#181818;stroke-width:1.0;"/></g><text fill="#888888" font-family="sans-serif" font-size="10" lengthAdjust="spacing" textLength="176" x="503" y="820.758">UMLDoclet 2.1.2, PlantUML 1.2024.3</text><!--SRC=[jLTjJzim4Fw-Nn5fcWHYJSG-HcnJNyA85jgiJZSXX92RkiN3jJFRxM0R_tqN9wK9DBZTe1AqEJ_tukTyvulZE8uY6luoBB4Mql7zLwz0w6GulSOpuWWvSvT2PfYvOuOdn5L4BcbAb9j9SNFhIh7GH3g_2wtyapAib1FdgqEpY6Y6G8c1d_FpZNBtIi_PnGLOSIgVtqfZJTCxfmK-AMPVYLHKy57Oynqc-6mp-03seocVgLFCOGFITr1TS5Huxme-fRCFDIElLH5FLnAioMHl7I6WDRdHmP9mlUyxIq4d6pLxH6afRdVIFJ1C3icF1IXNz4h9suBBc67-bBRA15Uafbw8dj2_svYra2-f9gjS5K_FaA6M2JIYIXEUfoMkFcv0vW7xwzZh2Ch7Oi4d9KMGuuUirJcgx6JltkBRUWZxMwZiFw8UAa4zpjbsH5SF8iBpZ95wWLHN_ZC1Zm988CeXcGKtuFB-jyN9mHnJleUqX6ewlsZOuvsbVqmbdfEVGbuN3QJY2u-XTd2ggnIj6yULrfdoFQymng5fpAY-MenTAZnZkLnfcOSMesE9vMthtfq7aPIG4hzUCf5uLOU6YOzKjQ1mYUIOlTToGVw7_zsuIJ5ZKoP-DjFJNI5UbffL8DxAttCpKmE_LZGxXZqAUMjgklpT31vfoihgLxbzbGiQu9hEuT8fhY_VIIfFpVOZCJDtIF7TX2jynpXd3KXH-PtpGDIW6lQ_Xaa0U5DK3Q1szxC5qJcpsUYs-zqWie26mQSG9S7G0Xl4IJZe8mig7jhZHgCEwWx3ZYtw_Y09Zyzi3aUTA4Gd5bJOFnvO8AEurxOcPHWSMub2OMnB2ym6SCQjlgAmtOdi8NqP1IYvxBQZg0FaNrhnA8Oy1bihH67_Sz2xH052S00iu5uGjSy0NKPbGNyBavEJGPJ3Yw0surTDy6wdotV7tckktKe_AnfkzKv-wQPhd7XLZo_HTc5KPYHliD2m8igloIIVXOvGAQtFnd3vPtLS8Z5N3Dn1spt5sGDuPiQthU4JCiKBfisMeJcliK-dyJjUOc2ymWA5OLjESKgW1-SCq5zuR0QhLS8c8bMkW4C4GrKgvXxXNcx5_5F4Epmq20zdr8ZSSIur2CXirMPJIgfnsiOVtw-DEKT_MgqjNxbApOUlKZQlg_lSz-y7YDsT5cEnrPKvkBvVAvn_tM5r5ZQEoypxVYtDHtzSzrdCfoG_HyvKYFnhT1hrH9fdw9rxwBw3DmSutHgapfjbKM5x-ty1]--></g></svg>