<?xml version="1.0" encoding="us-ascii" standalone="no"?><svg xmlns="http://www.w3.org/2000/svg" xmlns:xlink="http://www.w3.org/1999/xlink" contentStyleType="text/css" height="284px" preserveAspectRatio="none" style="width:404px;height:284px;background:#FFFFFF;" version="1.1" viewBox="0 0 404 284" width="404px" zoomAndPan="magnify"><defs/><g><!--class org.vorpal.blade.services.proxy.router.ProxyRouterSipServlet--><a href="ProxyRouterSipServlet.html" target="_top" title="ProxyRouterSipServlet.html" xlink:actuate="onRequest" xlink:href="ProxyRouterSipServlet.html" xlink:show="new" xlink:title="ProxyRouterSipServlet.html" xlink:type="simple"><g id="elem_org.vorpal.blade.services.proxy.router.ProxyRouterSipServlet"><rect codeLine="5" fill="#F1F1F1" height="153.1953" id="org.vorpal.blade.services.proxy.router.ProxyRouterSipServlet" rx="2.5" ry="2.5" style="stroke:#181818;stroke-width:0.5;" width="388" x="9" y="105.26"/><ellipse cx="106.75" cy="124.3928" fill="#ADD1B2" rx="11" ry="11" style="stroke:#181818;stroke-width:1.0;"/><path d="M109.2231,130.5359 Q108.6421,130.8347 108.0029,130.9841 Q107.3638,131.1335 106.6582,131.1335 Q104.1514,131.1335 102.8315,129.4817 Q101.5117,127.8298 101.5117,124.7087 Q101.5117,121.5793 102.8315,119.9275 Q104.1514,118.2756 106.6582,118.2756 Q107.3638,118.2756 108.0112,118.425 Q108.6587,118.5745 109.2231,118.8733 L109.2231,121.5959 Q108.5923,121.0149 107.9988,120.7451 Q107.4053,120.4753 106.7744,120.4753 Q105.4297,120.4753 104.7449,121.542 Q104.0601,122.6086 104.0601,124.7087 Q104.0601,126.8005 104.7449,127.8672 Q105.4297,128.9338 106.7744,128.9338 Q107.4053,128.9338 107.9988,128.6641 Q108.5923,128.3943 109.2231,127.8132 Z " fill="#000000"/><text fill="#000000" font-family="sans-serif" font-size="14" lengthAdjust="spacing" textLength="152" x="143.25" y="123.7952">ProxyRouterSipServlet</text><text fill="#000000" font-family="sans-serif" font-size="10" lengthAdjust="spacing" textLength="184" x="127.25" y="136.4163">org.vorpal.blade.services.proxy.router</text><line style="stroke:#181818;stroke-width:0.5;" x1="10" x2="396" y1="143.5256" y2="143.5256"/><rect fill="none" height="6" style="stroke:#C82930;stroke-width:1.0;" width="6" x="17" y="154.2698"/><text fill="#000000" font-family="sans-serif" font-size="14" lengthAdjust="spacing" text-decoration="underline" textLength="152" x="29" y="161.0608">serialVersionUID: long</text><ellipse cx="20" cy="173.758" fill="none" rx="3" ry="3" style="stroke:#038048;stroke-width:1.0;"/><text fill="#000000" font-family="sans-serif" font-size="14" lengthAdjust="spacing" text-decoration="underline" textLength="351" x="29" y="177.5491">settingsManager: SettingsManager&lt;RouterConfig&gt;</text><line style="stroke:#181818;stroke-width:0.5;" x1="10" x2="396" y1="184.5022" y2="184.5022"/><polygon fill="#FFFF44" points="20,193.2463,24,197.2463,20,201.2463,16,197.2463" style="stroke:#B38D22;stroke-width:1.0;"/><text fill="#000000" font-family="sans-serif" font-size="14" lengthAdjust="spacing" textLength="305" x="29" y="202.0373">servletCreated(SipServletContextEvent): void</text><polygon fill="#FFFF44" points="20,209.7346,24,213.7346,20,217.7346,16,213.7346" style="stroke:#B38D22;stroke-width:1.0;"/><text fill="#000000" font-family="sans-serif" font-size="14" lengthAdjust="spacing" textLength="320" x="29" y="218.5256">servletDestroyed(SipServletContextEvent): void</text><ellipse cx="20" cy="231.2229" fill="#84BE84" rx="3" ry="3" style="stroke:#038048;stroke-width:1.0;"/><text fill="#000000" font-family="sans-serif" font-size="14" lengthAdjust="spacing" textLength="340" x="29" y="235.0139">proxyRequest(SipServletRequest, ProxyPlan): void</text><ellipse cx="20" cy="247.7112" fill="#84BE84" rx="3" ry="3" style="stroke:#038048;stroke-width:1.0;"/><text fill="#000000" font-family="sans-serif" font-size="14" lengthAdjust="spacing" textLength="362" x="29" y="251.5022">proxyResponse(SipServletResponse, ProxyPlan): void</text></g></a><!--class org.vorpal.blade.framework.proxy.ProxyServlet--><a href="https://vorpalnet.github.io/blade/vorpal-blade-library-framework/org/vorpal/blade/framework/proxy/ProxyServlet.html?is-external=true" target="_top" title="https://vorpalnet.github.io/blade/vorpal-blade-library-framework/org/vorpal/blade/framework/proxy/ProxyServlet.html?is-external=true" xlink:actuate="onRequest" xlink:href="https://vorpalnet.github.io/blade/vorpal-blade-library-framework/org/vorpal/blade/framework/proxy/ProxyServlet.html?is-external=true" xlink:show="new" xlink:title="https://vorpalnet.github.io/blade/vorpal-blade-library-framework/org/vorpal/blade/framework/proxy/ProxyServlet.html?is-external=true" xlink:type="simple"><g id="elem_org.vorpal.blade.framework.proxy.ProxyServlet"><rect codeLine="14" fill="#F1F1F1" height="38.2656" id="org.vorpal.blade.framework.proxy.ProxyServlet" rx="2.5" ry="2.5" style="stroke:#181818;stroke-width:0.5;" width="197" x="104.5" y="7"/><ellipse cx="119.5" cy="26.1328" fill="#A9DCDF" rx="11" ry="11" style="stroke:#181818;stroke-width:1.0;"/><path d="M119.3633,21.481 L118.2095,26.5527 L120.5254,26.5527 Z M117.8691,19.2397 L120.8657,19.2397 L124.2109,31.6328 L121.7622,31.6328 L120.9985,28.5698 L117.7197,28.5698 L116.9727,31.6328 L114.5239,31.6328 Z " fill="#000000"/><text fill="#000000" font-family="sans-serif" font-size="14" font-style="italic" lengthAdjust="spacing" textLength="85" x="173.5" y="25.5352">ProxyServlet</text><text fill="#000000" font-family="sans-serif" font-size="10" font-style="italic" lengthAdjust="spacing" textLength="165" x="133.5" y="38.1563">org.vorpal.blade.framework.proxy</text></g></a><!--reverse link org.vorpal.blade.framework.proxy.ProxyServlet to org.vorpal.blade.services.proxy.router.ProxyRouterSipServlet--><g id="link_org.vorpal.blade.framework.proxy.ProxyServlet_org.vorpal.blade.services.proxy.router.ProxyRouterSipServlet"><path codeLine="16" d="M203,63.68 C203,78.69 203,82.9 203,105.01 " fill="none" id="org.vorpal.blade.framework.proxy.ProxyServlet-backto-org.vorpal.blade.services.proxy.router.ProxyRouterSipServlet" style="stroke:#181818;stroke-width:1.0;"/><polygon fill="none" points="203,45.68,197,63.68,209,63.68,203,45.68" style="stroke:#181818;stroke-width:1.0;"/></g><text fill="#888888" font-family="sans-serif" font-size="10" lengthAdjust="spacing" textLength="176" x="107" y="274.1233">UMLDoclet 2.1.2, PlantUML 1.2024.3</text><!--SRC=[fLF1Jjj04BttAqPKbK3Kwu9wijBqG7geL2H4H2yqXuaziLVTxBep4vUKykzirXO425Ag-cBvpNjlHZFF00122XwN92sMDAKM6JKm-E3fJIn3Ooi2MhQwXeKbLybpT4dQX0Wdl7Ge0WSZiN-eEFaulk1mixuCAoMUsdPAt3dI7tweVnW7haqNk4LdvWuhCX8fjYGnxKPfE4aF00NsevgT7U7wUYTk6bswsGnkq_2RvrOKrPPta4LxY-uxiTZWhxvE2d31ro-9nt63Qdqjv-Yn9YvW-XGOzLtFWb_OUlnWy5Rw6SwOKAawV9mgCfLkz4j7NeyAw8AjNgWc9CfXlRVkE2tfadwjed1BCo3l8Utdmg5_JIbjy49Ff3tqYlQkJmJEuw1Owkvex9681STq_Wxyix_pxYmy8vbjytZyHhML8izxZO-7hwqsgxcn8Ky6GoLB7vcpSqPUPm-kUMmuK0R-OoarpBSRfbHzjfB5On1xT9-KLpIRzGlvjzb7VxFilwBV_vOn4SIm267pkZh_DWdbnltKd9ZJUBzuEeqelElwk1yUtGC0]--></g></svg>