<?xml version="1.0" encoding="us-ascii" standalone="no"?><svg xmlns="http://www.w3.org/2000/svg" xmlns:xlink="http://www.w3.org/1999/xlink" contentStyleType="text/css" height="275px" preserveAspectRatio="none" style="width:725px;height:275px;background:#FFFFFF;" version="1.1" viewBox="0 0 725 275" width="725px" zoomAndPan="magnify"><defs/><g><!--class org.vorpal.blade.framework.config.Comparison--><a href="Comparison.html" target="_top" title="Comparison.html" xlink:actuate="onRequest" xlink:href="Comparison.html" xlink:show="new" xlink:title="Comparison.html" xlink:type="simple"><g id="elem_org.vorpal.blade.framework.config.Comparison"><rect codeLine="5" fill="#F1F1F1" height="120.2188" id="org.vorpal.blade.framework.config.Comparison" rx="2.5" ry="2.5" style="stroke:#181818;stroke-width:0.5;" width="359" x="213" y="129.75"/><ellipse cx="304.25" cy="148.8828" fill="#ADD1B2" rx="11" ry="11" style="stroke:#181818;stroke-width:1.0;"/><path d="M306.7231,155.0259 Q306.1421,155.3247 305.5029,155.4741 Q304.8638,155.6235 304.1582,155.6235 Q301.6514,155.6235 300.3315,153.9717 Q299.0117,152.3198 299.0117,149.1987 Q299.0117,146.0693 300.3315,144.4175 Q301.6514,142.7656 304.1582,142.7656 Q304.8638,142.7656 305.5112,142.915 Q306.1587,143.0645 306.7231,143.3633 L306.7231,146.0859 Q306.0923,145.5049 305.4988,145.2351 Q304.9053,144.9653 304.2744,144.9653 Q302.9297,144.9653 302.2449,146.032 Q301.5601,147.0986 301.5601,149.1987 Q301.5601,151.2905 302.2449,152.3572 Q302.9297,153.4238 304.2744,153.4238 Q304.9053,153.4238 305.4988,153.1541 Q306.0923,152.8843 306.7231,152.3032 Z " fill="#000000"/><text fill="#000000" font-family="sans-serif" font-size="14" lengthAdjust="spacing" textLength="84" x="366.75" y="148.2852">Comparison</text><text fill="#000000" font-family="sans-serif" font-size="10" lengthAdjust="spacing" textLength="168" x="324.75" y="160.9063">org.vorpal.blade.framework.config</text><line style="stroke:#181818;stroke-width:0.5;" x1="214" x2="571" y1="168.0156" y2="168.0156"/><rect fill="none" height="6" style="stroke:#C82930;stroke-width:1.0;" width="6" x="221" y="178.7598"/><text fill="#000000" font-family="sans-serif" font-size="14" lengthAdjust="spacing" text-decoration="underline" textLength="152" x="233" y="185.5508">serialVersionUID: long</text><line style="stroke:#181818;stroke-width:0.5;" x1="214" x2="571" y1="192.5039" y2="192.5039"/><ellipse cx="224" cy="206.248" fill="#84BE84" rx="3" ry="3" style="stroke:#038048;stroke-width:1.0;"/><text fill="#000000" font-family="sans-serif" font-size="14" lengthAdjust="spacing" textLength="94" x="233" y="210.0391">Comparison()</text><ellipse cx="224" cy="222.7363" fill="#84BE84" rx="3" ry="3" style="stroke:#038048;stroke-width:1.0;"/><text fill="#000000" font-family="sans-serif" font-size="14" lengthAdjust="spacing" textLength="184" x="233" y="226.5273">Comparison(String, String)</text><ellipse cx="224" cy="239.2246" fill="#84BE84" rx="3" ry="3" style="stroke:#038048;stroke-width:1.0;"/><text fill="#000000" font-family="sans-serif" font-size="14" lengthAdjust="spacing" textLength="333" x="233" y="243.0156">check(String, String, SipServletRequest): boolean</text></g></a><!--class java.util.HashMap--><a href="https://docs.oracle.com/en/java/javase/11/docs/api/java.base/java/util/HashMap.html?is-external=true" target="_top" title="https://docs.oracle.com/en/java/javase/11/docs/api/java.base/java/util/HashMap.html?is-external=true" xlink:actuate="onRequest" xlink:href="https://docs.oracle.com/en/java/javase/11/docs/api/java.base/java/util/HashMap.html?is-external=true" xlink:show="new" xlink:title="https://docs.oracle.com/en/java/javase/11/docs/api/java.base/java/util/HashMap.html?is-external=true" xlink:type="simple"><g id="elem_java.util.HashMap"><rect codeLine="12" fill="#F1F1F1" height="38.2656" id="java.util.HashMap" rx="2.5" ry="2.5" style="stroke:#181818;stroke-width:0.5;" width="171" x="7" y="19.24"/><ellipse cx="22" cy="38.3728" fill="#ADD1B2" rx="11" ry="11" style="stroke:#181818;stroke-width:1.0;"/><path d="M24.4731,44.5159 Q23.8921,44.8147 23.2529,44.9641 Q22.6138,45.1135 21.9082,45.1135 Q19.4014,45.1135 18.0815,43.4617 Q16.7617,41.8098 16.7617,38.6887 Q16.7617,35.5593 18.0815,33.9075 Q19.4014,32.2556 21.9082,32.2556 Q22.6138,32.2556 23.2612,32.405 Q23.9087,32.5545 24.4731,32.8533 L24.4731,35.5759 Q23.8423,34.9949 23.2488,34.7251 Q22.6553,34.4553 22.0244,34.4553 Q20.6797,34.4553 19.9949,35.522 Q19.3101,36.5886 19.3101,38.6887 Q19.3101,40.7805 19.9949,41.8472 Q20.6797,42.9138 22.0244,42.9138 Q22.6553,42.9138 23.2488,42.6441 Q23.8423,42.3743 24.4731,41.7932 Z " fill="#000000"/><text fill="#000000" font-family="sans-serif" font-size="14" lengthAdjust="spacing" textLength="63" x="36" y="37.7752">HashMap</text><text fill="#000000" font-family="sans-serif" font-size="10" lengthAdjust="spacing" textLength="39" x="48" y="50.3963">java.util</text><rect fill="#FFFFFF" height="16.1328" style="stroke:#181818;stroke-width:1.0;stroke-dasharray:2.0,2.0;" width="74" x="107" y="16.24"/><text fill="#000000" font-family="sans-serif" font-size="12" font-style="italic" lengthAdjust="spacing" textLength="72" x="108" y="28.8416">String, String</text></g></a><!--class org.vorpal.blade.framework.config.RequestCondition--><a href="RequestCondition.html" target="_top" title="RequestCondition.html" xlink:actuate="onRequest" xlink:href="RequestCondition.html" xlink:show="new" xlink:title="RequestCondition.html" xlink:type="simple"><g id="elem_org.vorpal.blade.framework.config.RequestCondition"><rect codeLine="13" fill="#F1F1F1" height="62.7539" id="org.vorpal.blade.framework.config.RequestCondition" rx="2.5" ry="2.5" style="stroke:#181818;stroke-width:0.5;" width="359" x="213" y="7"/><ellipse cx="304.25" cy="26.1328" fill="#B4A7E5" rx="11" ry="11" style="stroke:#181818;stroke-width:1.0;"/><path d="M300.6777,22.3979 L300.6777,20.2397 L308.0571,20.2397 L308.0571,22.3979 L305.5918,22.3979 L305.5918,30.4746 L308.0571,30.4746 L308.0571,32.6328 L300.6777,32.6328 L300.6777,30.4746 L303.1431,30.4746 L303.1431,22.3979 Z " fill="#000000"/><text fill="#000000" font-family="sans-serif" font-size="14" font-style="italic" lengthAdjust="spacing" textLength="123" x="347.25" y="25.5352">RequestCondition</text><text fill="#000000" font-family="sans-serif" font-size="10" font-style="italic" lengthAdjust="spacing" textLength="168" x="324.75" y="38.1563">org.vorpal.blade.framework.config</text><line style="stroke:#181818;stroke-width:0.5;" x1="214" x2="571" y1="45.2656" y2="45.2656"/><ellipse cx="224" cy="59.0098" fill="#84BE84" rx="3" ry="3" style="stroke:#038048;stroke-width:1.0;"/><text fill="#000000" font-family="sans-serif" font-size="14" font-style="italic" lengthAdjust="spacing" textLength="333" x="233" y="62.8008">check(String, String, SipServletRequest): boolean</text></g></a><!--class java.io.Serializable--><a href="https://docs.oracle.com/en/java/javase/11/docs/api/java.base/java/io/Serializable.html?is-external=true" target="_top" title="https://docs.oracle.com/en/java/javase/11/docs/api/java.base/java/io/Serializable.html?is-external=true" xlink:actuate="onRequest" xlink:href="https://docs.oracle.com/en/java/javase/11/docs/api/java.base/java/io/Serializable.html?is-external=true" xlink:show="new" xlink:title="https://docs.oracle.com/en/java/javase/11/docs/api/java.base/java/io/Serializable.html?is-external=true" xlink:type="simple"><g id="elem_java.io.Serializable"><rect codeLine="16" fill="#F1F1F1" height="38.2656" id="java.io.Serializable" rx="2.5" ry="2.5" style="stroke:#181818;stroke-width:0.5;" width="111" x="607" y="19.24"/><ellipse cx="622" cy="38.3728" fill="#B4A7E5" rx="11" ry="11" style="stroke:#181818;stroke-width:1.0;"/><path d="M618.4277,34.6379 L618.4277,32.4797 L625.8071,32.4797 L625.8071,34.6379 L623.3418,34.6379 L623.3418,42.7146 L625.8071,42.7146 L625.8071,44.8728 L618.4277,44.8728 L618.4277,42.7146 L620.8931,42.7146 L620.8931,34.6379 Z " fill="#000000"/><text fill="#000000" font-family="sans-serif" font-size="14" font-style="italic" lengthAdjust="spacing" textLength="79" x="636" y="37.7752">Serializable</text><text fill="#000000" font-family="sans-serif" font-size="10" font-style="italic" lengthAdjust="spacing" textLength="32" x="659.5" y="50.3963">java.io</text></g></a><!--reverse link java.util.HashMap to org.vorpal.blade.framework.config.Comparison--><g id="link_java.util.HashMap_org.vorpal.blade.framework.config.Comparison"><path codeLine="18" d="M145.9996,66.0301 C181.8896,83.9201 221.94,103.87 273.13,129.38 " fill="none" id="java.util.HashMap-backto-org.vorpal.blade.framework.config.Comparison" style="stroke:#181818;stroke-width:1.0;"/><polygon fill="none" points="129.89,58,143.3229,71.3999,148.6762,60.6602,129.89,58" style="stroke:#181818;stroke-width:1.0;"/></g><!--reverse link org.vorpal.blade.framework.config.RequestCondition to org.vorpal.blade.framework.config.Comparison--><g id="link_org.vorpal.blade.framework.config.RequestCondition_org.vorpal.blade.framework.config.Comparison"><path codeLine="19" d="M392.5,87.99 C392.5,105.07 392.5,108.95 392.5,129.26 " fill="none" id="org.vorpal.blade.framework.config.RequestCondition-backto-org.vorpal.blade.framework.config.Comparison" style="stroke:#181818;stroke-width:1.0;stroke-dasharray:7.0,7.0;"/><polygon fill="none" points="392.5,69.99,386.5,87.99,398.5,87.99,392.5,69.99" style="stroke:#181818;stroke-width:1.0;"/></g><!--reverse link java.io.Serializable to org.vorpal.blade.framework.config.Comparison--><g id="link_java.io.Serializable_org.vorpal.blade.framework.config.Comparison"><path codeLine="20" d="M613.1039,66.7213 C580.8039,84.6113 546,103.87 499.93,129.38 " fill="none" id="java.io.Serializable-backto-org.vorpal.blade.framework.config.Comparison" style="stroke:#181818;stroke-width:1.0;stroke-dasharray:7.0,7.0;"/><polygon fill="none" points="628.85,58,610.1968,61.4726,616.011,71.97,628.85,58" style="stroke:#181818;stroke-width:1.0;"/></g><text fill="#888888" font-family="sans-serif" font-size="10" lengthAdjust="spacing" textLength="176" x="267.5" y="265.6367">UMLDoclet 2.1.2, PlantUML 1.2024.3</text><!--SRC=[jLHDRzD04BtpAqQLa1hHh4d5AGhXq1v0eX8YAfUImzWPnqFNEsPt4g1j_dlNswWn9XLg13vujM_VpiTxOmC0159mM5DeiA0PDUXHnOCJHo_YCLIy8A2wqLzGCjb5wACrQIKHJdXXCGGucWI-eV7epVHCwXYHWxYlRWk-defVchNu1gt9BIx8b3uMy4FyjId4bRmy0WpmLvRP1OUhgzt6L5hR-HnkKqNjSniKbOiD30DvHlk5V61nbn_Ens35BH-9htPHZWTxqPbwTiiJU5WxdAAYuhft75TkPkJNblGpVLzHqC4OSX5BwDBLpNxPtcEeBh3fQFODrsXMoZPfyxWpM-RazyJJA4YbseHnbYsa24Oy5fQYS7L6BcklfrUWR3HAZ0mRJf39MpGnsWJPDa4IzHs78VrKyWxjM_KhcizJ-UmYLiRvwRImxVTCt8AL_ul__HInwJwqPnOm3nhLqCtXdZtLyonD5zzWRgdl7SlEEHRJfVuJirYoRimd_Kh5_p4_CBaR3f_roQKu1tWqkJFc-OdsodPOg89Qvw0KQPVBYu_d4jLME3KZSte2domwZIYyN3_y9Ou7zm00]--></g></svg>