<?xml version="1.0" encoding="us-ascii" standalone="no"?><svg xmlns="http://www.w3.org/2000/svg" xmlns:xlink="http://www.w3.org/1999/xlink" contentStyleType="text/css" height="336px" preserveAspectRatio="none" style="width:418px;height:336px;background:#FFFFFF;" version="1.1" viewBox="0 0 418 336" width="418px" zoomAndPan="magnify"><defs/><g><!--class org.vorpal.blade.framework.config.Condition--><a href="Condition.html" target="_top" title="Condition.html" xlink:actuate="onRequest" xlink:href="Condition.html" xlink:show="new" xlink:title="Condition.html" xlink:type="simple"><g id="elem_org.vorpal.blade.framework.config.Condition"><rect codeLine="5" fill="#F1F1F1" height="202.6602" id="org.vorpal.blade.framework.config.Condition" rx="2.5" ry="2.5" style="stroke:#181818;stroke-width:0.5;" width="377" x="34" y="108.27"/><ellipse cx="134.25" cy="127.4028" fill="#ADD1B2" rx="11" ry="11" style="stroke:#181818;stroke-width:1.0;"/><path d="M136.7231,133.5459 Q136.1421,133.8447 135.5029,133.9941 Q134.8638,134.1435 134.1582,134.1435 Q131.6514,134.1435 130.3315,132.4917 Q129.0117,130.8398 129.0117,127.7187 Q129.0117,124.5893 130.3315,122.9375 Q131.6514,121.2856 134.1582,121.2856 Q134.8638,121.2856 135.5112,121.435 Q136.1587,121.5845 136.7231,121.8833 L136.7231,124.6059 Q136.0923,124.0249 135.4988,123.7551 Q134.9053,123.4853 134.2744,123.4853 Q132.9297,123.4853 132.2449,124.552 Q131.5601,125.6186 131.5601,127.7187 Q131.5601,129.8105 132.2449,130.8772 Q132.9297,131.9438 134.2744,131.9438 Q134.9053,131.9438 135.4988,131.6741 Q136.0923,131.4043 136.7231,130.8232 Z " fill="#000000"/><text fill="#000000" font-family="sans-serif" font-size="14" lengthAdjust="spacing" textLength="68" x="204.75" y="126.8052">Condition</text><text fill="#000000" font-family="sans-serif" font-size="10" lengthAdjust="spacing" textLength="168" x="154.75" y="139.4263">org.vorpal.blade.framework.config</text><line style="stroke:#181818;stroke-width:0.5;" x1="35" x2="410" y1="146.5356" y2="146.5356"/><rect fill="none" height="6" style="stroke:#C82930;stroke-width:1.0;" width="6" x="42" y="157.2798"/><text fill="#000000" font-family="sans-serif" font-size="14" lengthAdjust="spacing" text-decoration="underline" textLength="152" x="54" y="164.0708">serialVersionUID: long</text><rect fill="none" height="6" style="stroke:#C82930;stroke-width:1.0;" width="6" x="42" y="173.768"/><text fill="#000000" font-family="sans-serif" font-size="14" lengthAdjust="spacing" textLength="62" x="54" y="180.5591">id: String</text><line style="stroke:#181818;stroke-width:0.5;" x1="35" x2="410" y1="187.5122" y2="187.5122"/><ellipse cx="45" cy="201.2563" fill="#84BE84" rx="3" ry="3" style="stroke:#038048;stroke-width:1.0;"/><text fill="#000000" font-family="sans-serif" font-size="14" lengthAdjust="spacing" textLength="78" x="54" y="205.0473">Condition()</text><ellipse cx="45" cy="217.7446" fill="#84BE84" rx="3" ry="3" style="stroke:#038048;stroke-width:1.0;"/><text fill="#000000" font-family="sans-serif" font-size="14" lengthAdjust="spacing" textLength="119" x="54" y="221.5356">Condition(String)</text><ellipse cx="45" cy="234.2329" fill="#84BE84" rx="3" ry="3" style="stroke:#038048;stroke-width:1.0;"/><text fill="#000000" font-family="sans-serif" font-size="14" lengthAdjust="spacing" textLength="94" x="54" y="238.0239">getId(): String</text><ellipse cx="45" cy="250.7212" fill="#84BE84" rx="3" ry="3" style="stroke:#038048;stroke-width:1.0;"/><text fill="#000000" font-family="sans-serif" font-size="14" lengthAdjust="spacing" textLength="160" x="54" y="254.5122">setId(String): Condition</text><ellipse cx="45" cy="267.2095" fill="#84BE84" rx="3" ry="3" style="stroke:#038048;stroke-width:1.0;"/><text fill="#000000" font-family="sans-serif" font-size="14" lengthAdjust="spacing" textLength="351" x="54" y="271.0005">addComparison(String, String, String): Comparison</text><ellipse cx="45" cy="283.6977" fill="#84BE84" rx="3" ry="3" style="stroke:#038048;stroke-width:1.0;"/><text fill="#000000" font-family="sans-serif" font-size="14" lengthAdjust="spacing" textLength="253" x="54" y="287.4888">checkAll(SipServletRequest): boolean</text><ellipse cx="45" cy="300.186" fill="#84BE84" rx="3" ry="3" style="stroke:#038048;stroke-width:1.0;"/><text fill="#000000" font-family="sans-serif" font-size="14" lengthAdjust="spacing" textLength="302" x="54" y="303.977">checkAll(String, SipServletRequest): boolean</text></g></a><!--class java.util.HashMap--><a href="https://docs.oracle.com/en/java/javase/11/docs/api/java.base/java/util/HashMap.html?is-external=true" target="_top" title="https://docs.oracle.com/en/java/javase/11/docs/api/java.base/java/util/HashMap.html?is-external=true" xlink:actuate="onRequest" xlink:href="https://docs.oracle.com/en/java/javase/11/docs/api/java.base/java/util/HashMap.html?is-external=true" xlink:show="new" xlink:title="https://docs.oracle.com/en/java/javase/11/docs/api/java.base/java/util/HashMap.html?is-external=true" xlink:type="simple"><g id="elem_java.util.HashMap"><rect codeLine="17" fill="#F1F1F1" height="38.2656" id="java.util.HashMap" rx="2.5" ry="2.5" style="stroke:#181818;stroke-width:0.5;" width="227" x="7" y="10"/><ellipse cx="22" cy="29.1328" fill="#ADD1B2" rx="11" ry="11" style="stroke:#181818;stroke-width:1.0;"/><path d="M24.4731,35.2759 Q23.8921,35.5747 23.2529,35.7241 Q22.6138,35.8735 21.9082,35.8735 Q19.4014,35.8735 18.0815,34.2217 Q16.7617,32.5698 16.7617,29.4487 Q16.7617,26.3193 18.0815,24.6675 Q19.4014,23.0156 21.9082,23.0156 Q22.6138,23.0156 23.2612,23.165 Q23.9087,23.3145 24.4731,23.6133 L24.4731,26.3359 Q23.8423,25.7549 23.2488,25.4851 Q22.6553,25.2153 22.0244,25.2153 Q20.6797,25.2153 19.9949,26.282 Q19.3101,27.3486 19.3101,29.4487 Q19.3101,31.5405 19.9949,32.6072 Q20.6797,33.6738 22.0244,33.6738 Q22.6553,33.6738 23.2488,33.4041 Q23.8423,33.1343 24.4731,32.5532 Z " fill="#000000"/><text fill="#000000" font-family="sans-serif" font-size="14" lengthAdjust="spacing" textLength="63" x="36" y="28.5352">HashMap</text><text fill="#000000" font-family="sans-serif" font-size="10" lengthAdjust="spacing" textLength="39" x="48" y="41.1563">java.util</text><rect fill="#FFFFFF" height="16.1328" style="stroke:#181818;stroke-width:1.0;stroke-dasharray:2.0,2.0;" width="130" x="107" y="7"/><text fill="#000000" font-family="sans-serif" font-size="12" font-style="italic" lengthAdjust="spacing" textLength="128" x="108" y="19.6016">String, ComparisonList</text></g></a><!--class java.io.Serializable--><a href="https://docs.oracle.com/en/java/javase/11/docs/api/java.base/java/io/Serializable.html?is-external=true" target="_top" title="https://docs.oracle.com/en/java/javase/11/docs/api/java.base/java/io/Serializable.html?is-external=true" xlink:actuate="onRequest" xlink:href="https://docs.oracle.com/en/java/javase/11/docs/api/java.base/java/io/Serializable.html?is-external=true" xlink:show="new" xlink:title="https://docs.oracle.com/en/java/javase/11/docs/api/java.base/java/io/Serializable.html?is-external=true" xlink:type="simple"><g id="elem_java.io.Serializable"><rect codeLine="18" fill="#F1F1F1" height="38.2656" id="java.io.Serializable" rx="2.5" ry="2.5" style="stroke:#181818;stroke-width:0.5;" width="111" x="269" y="10"/><ellipse cx="284" cy="29.1328" fill="#B4A7E5" rx="11" ry="11" style="stroke:#181818;stroke-width:1.0;"/><path d="M280.4277,25.3979 L280.4277,23.2397 L287.8071,23.2397 L287.8071,25.3979 L285.3418,25.3979 L285.3418,33.4746 L287.8071,33.4746 L287.8071,35.6328 L280.4277,35.6328 L280.4277,33.4746 L282.8931,33.4746 L282.8931,25.3979 Z " fill="#000000"/><text fill="#000000" font-family="sans-serif" font-size="14" font-style="italic" lengthAdjust="spacing" textLength="79" x="298" y="28.5352">Serializable</text><text fill="#000000" font-family="sans-serif" font-size="10" font-style="italic" lengthAdjust="spacing" textLength="32" x="321.5" y="41.1563">java.io</text></g></a><!--reverse link java.util.HashMap to org.vorpal.blade.framework.config.Condition--><g id="link_java.util.HashMap_org.vorpal.blade.framework.config.Condition"><path codeLine="20" d="M139.9605,64.1884 C148.3605,78.8884 151.91,85.1 164.98,107.96 " fill="none" id="java.util.HashMap-backto-org.vorpal.blade.framework.config.Condition" style="stroke:#181818;stroke-width:1.0;"/><polygon fill="none" points="131.03,48.56,134.751,67.1652,145.17,61.2115,131.03,48.56" style="stroke:#181818;stroke-width:1.0;"/></g><!--reverse link java.io.Serializable to org.vorpal.blade.framework.config.Condition--><g id="link_java.io.Serializable_org.vorpal.blade.framework.config.Condition"><path codeLine="21" d="M305.0395,64.1884 C296.6395,78.8884 293.09,85.1 280.02,107.96 " fill="none" id="java.io.Serializable-backto-org.vorpal.blade.framework.config.Condition" style="stroke:#181818;stroke-width:1.0;stroke-dasharray:7.0,7.0;"/><polygon fill="none" points="313.97,48.56,299.83,61.2115,310.249,67.1652,313.97,48.56" style="stroke:#181818;stroke-width:1.0;"/></g><text fill="#888888" font-family="sans-serif" font-size="10" lengthAdjust="spacing" textLength="176" x="114" y="326.5981">UMLDoclet 2.1.2, PlantUML 1.2024.3</text><!--SRC=[hLDDRzD04BtpAqQLa19Hhqd5oGf1g3rGgPKGKRcK72RsE1wwtZ6xcm3z-E-ijubjqg2g4ZvuxJTltdmk080Z3mPhSWtcDAS6BNgnOCJGgs26YWi2gXl_6qecNRXzj2PVIO0Zdcjq3ewcZcyfcxoRdOefsBEORsQBlPs9NQcDs0QrMceiI9KsnFyfzaRbOafU7G4wU9QbEcsulkw-LULhlLZ0NKodVUwSHy_v0oIEBAF-IjO5ujNvMGPQpAeZ9bnaCFUM1zYRJdWqFWG-qWUc5VdpOZH-AkIYOSlFe9Fe6LWKfrA70R3hb8_XxpDwxZYzQrvHVlDHwz6ScpdPZIR_XNwioVdWi1JHX0VPE-rdl1uE3_SJkkeIcy5el-C6rTgpZYFi_jIMETq5x6kuOETdOO2LzutBqhIGt2cnc6iASwvJCcah4r-EqiaaCb9iE49gsQAHqGPAju7Y5dnWbz0lJzQWVk_jcXQBM0QRW9LXsmUbpEDgy2qkDUtNmz9NmwA6rF-IE4iwrFndxZ7v9ps5wNsIlEIsz3BxnKplbNgnKavjEw4KQO-houip2ItmSA8cwkGOFciqFg3mUlDuxqRZFm00]--></g></svg>