<?xml version="1.0" encoding="us-ascii" standalone="no"?><svg xmlns="http://www.w3.org/2000/svg" xmlns:xlink="http://www.w3.org/1999/xlink" contentStyleType="text/css" height="490px" preserveAspectRatio="none" style="width:329px;height:490px;background:#FFFFFF;" version="1.1" viewBox="0 0 329 490" width="329px" zoomAndPan="magnify"><defs/><g><!--class org.vorpal.blade.framework.config.Settings--><a href="Settings.html" target="_top" title="Settings.html" xlink:actuate="onRequest" xlink:href="Settings.html" xlink:show="new" xlink:title="Settings.html" xlink:type="simple"><g id="elem_org.vorpal.blade.framework.config.Settings"><rect codeLine="5" fill="#F1F1F1" height="285.1016" id="org.vorpal.blade.framework.config.Settings" rx="2.5" ry="2.5" style="stroke:#181818;stroke-width:0.5;" width="311" x="7" y="179.22"/><ellipse cx="68.25" cy="198.3528" fill="#ADD1B2" rx="11" ry="11" style="stroke:#181818;stroke-width:1.0;"/><path d="M70.7231,204.4959 Q70.1421,204.7947 69.5029,204.9441 Q68.8638,205.0935 68.1582,205.0935 Q65.6514,205.0935 64.3315,203.4417 Q63.0117,201.7898 63.0117,198.6687 Q63.0117,195.5393 64.3315,193.8875 Q65.6514,192.2356 68.1582,192.2356 Q68.8638,192.2356 69.5112,192.385 Q70.1587,192.5345 70.7231,192.8333 L70.7231,195.5559 Q70.0923,194.9749 69.4988,194.7051 Q68.9053,194.4353 68.2744,194.4353 Q66.9297,194.4353 66.2449,195.502 Q65.5601,196.5686 65.5601,198.6687 Q65.5601,200.7605 66.2449,201.8272 Q66.9297,202.8938 68.2744,202.8938 Q68.9053,202.8938 69.4988,202.6241 Q70.0923,202.3543 70.7231,201.7732 Z " fill="#000000"/><text fill="#000000" font-family="sans-serif" font-size="14" lengthAdjust="spacing" textLength="55" x="145.25" y="197.7552">Settings</text><text fill="#000000" font-family="sans-serif" font-size="10" lengthAdjust="spacing" textLength="168" x="88.75" y="210.3762">org.vorpal.blade.framework.config</text><rect fill="#FFFFFF" height="16.1328" style="stroke:#181818;stroke-width:1.0;stroke-dasharray:2.0,2.0;" width="10" x="311" y="176.22"/><text fill="#000000" font-family="sans-serif" font-size="12" font-style="italic" lengthAdjust="spacing" textLength="8" x="312" y="188.8216">T</text><line style="stroke:#181818;stroke-width:0.5;" x1="8" x2="317" y1="217.4856" y2="217.4856"/><rect fill="none" height="6" style="stroke:#C82930;stroke-width:1.0;" width="6" x="15" y="228.2298"/><text fill="#000000" font-family="sans-serif" font-size="14" lengthAdjust="spacing" textLength="124" x="27" y="235.0208">sipLogger: Logger</text><rect fill="none" height="6" style="stroke:#C82930;stroke-width:1.0;" width="6" x="15" y="244.718"/><text fill="#000000" font-family="sans-serif" font-size="14" lengthAdjust="spacing" textLength="110" x="27" y="251.5091">clazz: Class&lt;T&gt;</text><rect fill="none" height="6" style="stroke:#C82930;stroke-width:1.0;" width="6" x="15" y="261.2063"/><text fill="#000000" font-family="sans-serif" font-size="14" lengthAdjust="spacing" textLength="60" x="27" y="267.9973">config: T</text><rect fill="none" height="6" style="stroke:#C82930;stroke-width:1.0;" width="6" x="15" y="277.6946"/><text fill="#000000" font-family="sans-serif" font-size="14" lengthAdjust="spacing" textLength="198" x="27" y="284.4856">objectMapper: ObjectMapper</text><rect fill="none" height="6" style="stroke:#C82930;stroke-width:1.0;" width="6" x="15" y="294.1829"/><text fill="#000000" font-family="sans-serif" font-size="14" lengthAdjust="spacing" textLength="90" x="27" y="300.9739">domain: Path</text><rect fill="none" height="6" style="stroke:#C82930;stroke-width:1.0;" width="6" x="15" y="310.6712"/><text fill="#000000" font-family="sans-serif" font-size="14" lengthAdjust="spacing" textLength="84" x="27" y="317.4622">cluster: Path</text><rect fill="none" height="6" style="stroke:#C82930;stroke-width:1.0;" width="6" x="15" y="327.1595"/><text fill="#000000" font-family="sans-serif" font-size="14" lengthAdjust="spacing" textLength="80" x="27" y="333.9505">server: Path</text><rect fill="none" height="6" style="stroke:#C82930;stroke-width:1.0;" width="6" x="15" y="343.6477"/><text fill="#000000" font-family="sans-serif" font-size="14" lengthAdjust="spacing" textLength="207" x="27" y="350.4387">bufferedWriter: BufferedWriter</text><line style="stroke:#181818;stroke-width:0.5;" x1="8" x2="317" y1="357.3919" y2="357.3919"/><ellipse cx="18" cy="371.136" fill="#84BE84" rx="3" ry="3" style="stroke:#038048;stroke-width:1.0;"/><text fill="#000000" font-family="sans-serif" font-size="14" lengthAdjust="spacing" textLength="285" x="27" y="374.927">Settings(Class&lt;T&gt;, String, ObjectMapper)</text><ellipse cx="18" cy="387.6243" fill="#84BE84" rx="3" ry="3" style="stroke:#038048;stroke-width:1.0;"/><text fill="#000000" font-family="sans-serif" font-size="14" lengthAdjust="spacing" textLength="145" x="27" y="391.4153">getConfiguration(): T</text><ellipse cx="18" cy="404.1126" fill="#84BE84" rx="3" ry="3" style="stroke:#038048;stroke-width:1.0;"/><text fill="#000000" font-family="sans-serif" font-size="14" lengthAdjust="spacing" textLength="161" x="27" y="407.9036">open(ConfigType): void</text><ellipse cx="18" cy="420.6009" fill="#84BE84" rx="3" ry="3" style="stroke:#038048;stroke-width:1.0;"/><text fill="#000000" font-family="sans-serif" font-size="14" lengthAdjust="spacing" textLength="82" x="27" y="424.3919">close(): void</text><ellipse cx="18" cy="437.0891" fill="#84BE84" rx="3" ry="3" style="stroke:#038048;stroke-width:1.0;"/><text fill="#000000" font-family="sans-serif" font-size="14" lengthAdjust="spacing" textLength="122" x="27" y="440.8802">write(String): void</text><ellipse cx="18" cy="453.5774" fill="#84BE84" rx="3" ry="3" style="stroke:#038048;stroke-width:1.0;"/><text fill="#000000" font-family="sans-serif" font-size="14" lengthAdjust="spacing" textLength="91" x="27" y="457.3684">reload(): void</text></g></a><!--class org.vorpal.blade.framework.config.SettingsMXBean--><a href="SettingsMXBean.html" target="_top" title="SettingsMXBean.html" xlink:actuate="onRequest" xlink:href="SettingsMXBean.html" xlink:show="new" xlink:title="SettingsMXBean.html" xlink:type="simple"><g id="elem_org.vorpal.blade.framework.config.SettingsMXBean"><rect codeLine="22" fill="#F1F1F1" height="112.2188" id="org.vorpal.blade.framework.config.SettingsMXBean" rx="2.5" ry="2.5" style="stroke:#181818;stroke-width:0.5;" width="200" x="62.5" y="7"/><ellipse cx="77.5" cy="26.1328" fill="#B4A7E5" rx="11" ry="11" style="stroke:#181818;stroke-width:1.0;"/><path d="M73.9277,22.3979 L73.9277,20.2397 L81.3071,20.2397 L81.3071,22.3979 L78.8418,22.3979 L78.8418,30.4746 L81.3071,30.4746 L81.3071,32.6328 L73.9277,32.6328 L73.9277,30.4746 L76.3931,30.4746 L76.3931,22.3979 Z " fill="#000000"/><text fill="#000000" font-family="sans-serif" font-size="14" font-style="italic" lengthAdjust="spacing" textLength="109" x="121" y="25.5352">SettingsMXBean</text><text fill="#000000" font-family="sans-serif" font-size="10" font-style="italic" lengthAdjust="spacing" textLength="168" x="91.5" y="38.1563">org.vorpal.blade.framework.config</text><line style="stroke:#181818;stroke-width:0.5;" x1="63.5" x2="261.5" y1="45.2656" y2="45.2656"/><ellipse cx="73.5" cy="59.0098" fill="#84BE84" rx="3" ry="3" style="stroke:#038048;stroke-width:1.0;"/><text fill="#000000" font-family="sans-serif" font-size="14" font-style="italic" lengthAdjust="spacing" textLength="161" x="82.5" y="62.8008">open(ConfigType): void</text><ellipse cx="73.5" cy="75.498" fill="#84BE84" rx="3" ry="3" style="stroke:#038048;stroke-width:1.0;"/><text fill="#000000" font-family="sans-serif" font-size="14" font-style="italic" lengthAdjust="spacing" textLength="122" x="82.5" y="79.2891">write(String): void</text><ellipse cx="73.5" cy="91.9863" fill="#84BE84" rx="3" ry="3" style="stroke:#038048;stroke-width:1.0;"/><text fill="#000000" font-family="sans-serif" font-size="14" font-style="italic" lengthAdjust="spacing" textLength="82" x="82.5" y="95.7773">close(): void</text><ellipse cx="73.5" cy="108.4746" fill="#84BE84" rx="3" ry="3" style="stroke:#038048;stroke-width:1.0;"/><text fill="#000000" font-family="sans-serif" font-size="14" font-style="italic" lengthAdjust="spacing" textLength="91" x="82.5" y="112.2656">reload(): void</text></g></a><!--reverse link org.vorpal.blade.framework.config.SettingsMXBean to org.vorpal.blade.framework.config.Settings--><g id="link_org.vorpal.blade.framework.config.SettingsMXBean_org.vorpal.blade.framework.config.Settings"><path codeLine="29" d="M162.5,137.48 C162.5,155.24 162.5,157.79 162.5,178.83 " fill="none" id="org.vorpal.blade.framework.config.SettingsMXBean-backto-org.vorpal.blade.framework.config.Settings" style="stroke:#181818;stroke-width:1.0;stroke-dasharray:7.0,7.0;"/><polygon fill="none" points="162.5,119.48,156.5,137.48,168.5,137.48,162.5,119.48" style="stroke:#181818;stroke-width:1.0;"/></g><text fill="#888888" font-family="sans-serif" font-size="10" lengthAdjust="spacing" textLength="176" x="69.5" y="479.9895">UMLDoclet 2.1.2, PlantUML 1.2024.3</text><!--SRC=[jLJFJy8m5BxxLxoGcCo0ZH1F2-6W7Y6IWD44EPJjRLIxlgOj453-TxjDt13KS72NvdtlUp_xhG005Xqedg7LFC8HQcwu8mEA59vvDyn5Z82PTcj81ChOVaSpT7FoS857abiBZQuL6mpRrxqHEYTKQf_L9tJL8vEo9HdD9Pj97YDBZ2-_8lFA8bA9I1l0BVp9OhlKtN4F9fETnUOkazCfl1NjvD-b5RfFQOecXFAiNBxTpIQ4sxnhdwVcA6g4CAuWchrWv0PSwppJVSsgE35bNAWGXjpDwrKMrkL1-x15ipn4PuiaGOFnen55pCsU_SLhxWOETistOEICHrfxlLrK4IcwssAiXRzYGIgugC_N98qgA0dZjKRlN9A8AtyaoM9m0A_oleAoz87Je2GUxmLjIw48vQT9lEIEY6NmT8DS_QDaoW8rrPJ0eNRU-CmwmoEt_NC_TUflEwdpZg-qplXvWITFstrdx8IeydV6_9eW8SgFXq7_ZYBf7umEQxDE2uQIA-THEFT2jeMaFW00]--></g></svg>