<?xml version="1.0" encoding="us-ascii" standalone="no"?><svg xmlns="http://www.w3.org/2000/svg" xmlns:xlink="http://www.w3.org/1999/xlink" contentStyleType="text/css" height="308px" preserveAspectRatio="none" style="width:376px;height:308px;background:#FFFFFF;" version="1.1" viewBox="0 0 376 308" width="376px" zoomAndPan="magnify"><defs/><g><!--class org.vorpal.blade.services.proxy.registrar.ProxyCallflow--><a href="ProxyCallflow.html" target="_top" title="ProxyCallflow.html" xlink:actuate="onRequest" xlink:href="ProxyCallflow.html" xlink:show="new" xlink:title="ProxyCallflow.html" xlink:type="simple"><g id="elem_org.vorpal.blade.services.proxy.registrar.ProxyCallflow"><rect codeLine="5" fill="#F1F1F1" height="153.1953" id="org.vorpal.blade.services.proxy.registrar.ProxyCallflow" rx="2.5" ry="2.5" style="stroke:#181818;stroke-width:0.5;" width="362" x="7" y="129.75"/><ellipse cx="85.75" cy="148.8828" fill="#ADD1B2" rx="11" ry="11" style="stroke:#181818;stroke-width:1.0;"/><path d="M88.2231,155.0259 Q87.6421,155.3247 87.0029,155.4741 Q86.3638,155.6235 85.6582,155.6235 Q83.1514,155.6235 81.8315,153.9717 Q80.5117,152.3198 80.5117,149.1987 Q80.5117,146.0693 81.8315,144.4175 Q83.1514,142.7656 85.6582,142.7656 Q86.3638,142.7656 87.0112,142.915 Q87.6587,143.0645 88.2231,143.3633 L88.2231,146.0859 Q87.5923,145.5049 86.9988,145.2351 Q86.4053,144.9653 85.7744,144.9653 Q84.4297,144.9653 83.7449,146.032 Q83.0601,147.0986 83.0601,149.1987 Q83.0601,151.2905 83.7449,152.3572 Q84.4297,153.4238 85.7744,153.4238 Q86.4053,153.4238 86.9988,153.1541 Q87.5923,152.8843 88.2231,152.3032 Z " fill="#000000"/><text fill="#000000" font-family="sans-serif" font-size="14" lengthAdjust="spacing" textLength="94" x="157.25" y="148.2852">ProxyCallflow</text><text fill="#000000" font-family="sans-serif" font-size="10" lengthAdjust="spacing" textLength="196" x="106.25" y="160.9063">org.vorpal.blade.services.proxy.registrar</text><line style="stroke:#181818;stroke-width:0.5;" x1="8" x2="368" y1="168.0156" y2="168.0156"/><rect fill="none" height="6" style="stroke:#C82930;stroke-width:1.0;" width="6" x="15" y="178.7598"/><text fill="#000000" font-family="sans-serif" font-size="14" lengthAdjust="spacing" text-decoration="underline" textLength="152" x="27" y="185.5508">serialVersionUID: long</text><rect fill="none" height="6" style="stroke:#C82930;stroke-width:1.0;" width="6" x="15" y="195.248"/><text fill="#000000" font-family="sans-serif" font-size="14" lengthAdjust="spacing" textLength="195" x="27" y="202.0391">proxyListener: ProxyListener</text><rect fill="none" height="6" style="stroke:#C82930;stroke-width:1.0;" width="6" x="15" y="211.7363"/><text fill="#000000" font-family="sans-serif" font-size="14" lengthAdjust="spacing" textLength="145" x="27" y="218.5273">proxyPlan: ProxyPlan</text><rect fill="none" height="6" style="stroke:#C82930;stroke-width:1.0;" width="6" x="15" y="228.2246"/><text fill="#000000" font-family="sans-serif" font-size="14" lengthAdjust="spacing" textLength="212" x="27" y="235.0156">proxyOnUnregistered: Boolean</text><line style="stroke:#181818;stroke-width:0.5;" x1="8" x2="368" y1="241.9688" y2="241.9688"/><ellipse cx="18" cy="255.7129" fill="#84BE84" rx="3" ry="3" style="stroke:#038048;stroke-width:1.0;"/><text fill="#000000" font-family="sans-serif" font-size="14" lengthAdjust="spacing" textLength="336" x="27" y="259.5039">ProxyCallflow(ProxyListener, ProxyPlan, Boolean)</text><ellipse cx="18" cy="272.2012" fill="#84BE84" rx="3" ry="3" style="stroke:#038048;stroke-width:1.0;"/><text fill="#000000" font-family="sans-serif" font-size="14" lengthAdjust="spacing" textLength="222" x="27" y="275.9922">process(SipServletRequest): void</text></g></a><!--class org.vorpal.blade.framework.callflow.Callflow--><a href="https://vorpalnet.github.io/blade/vorpal-blade-library-framework/org/vorpal/blade/framework/callflow/Callflow.html?is-external=true" target="_top" title="https://vorpalnet.github.io/blade/vorpal-blade-library-framework/org/vorpal/blade/framework/callflow/Callflow.html?is-external=true" xlink:actuate="onRequest" xlink:href="https://vorpalnet.github.io/blade/vorpal-blade-library-framework/org/vorpal/blade/framework/callflow/Callflow.html?is-external=true" xlink:show="new" xlink:title="https://vorpalnet.github.io/blade/vorpal-blade-library-framework/org/vorpal/blade/framework/callflow/Callflow.html?is-external=true" xlink:type="simple"><g id="elem_org.vorpal.blade.framework.callflow.Callflow"><rect codeLine="14" fill="#F1F1F1" height="62.7539" id="org.vorpal.blade.framework.callflow.Callflow" rx="2.5" ry="2.5" style="stroke:#181818;stroke-width:0.5;" width="248" x="64" y="7"/><ellipse cx="97" cy="26.1328" fill="#A9DCDF" rx="11" ry="11" style="stroke:#181818;stroke-width:1.0;"/><path d="M96.8633,21.481 L95.7095,26.5527 L98.0254,26.5527 Z M95.3691,19.2397 L98.3657,19.2397 L101.7109,31.6328 L99.2622,31.6328 L98.4985,28.5698 L95.2197,28.5698 L94.4727,31.6328 L92.0239,31.6328 Z " fill="#000000"/><text fill="#000000" font-family="sans-serif" font-size="14" font-style="italic" lengthAdjust="spacing" textLength="55" x="175.5" y="25.5352">Callflow</text><text fill="#000000" font-family="sans-serif" font-size="10" font-style="italic" lengthAdjust="spacing" textLength="176" x="115" y="38.1563">org.vorpal.blade.framework.callflow</text><line style="stroke:#181818;stroke-width:0.5;" x1="65" x2="311" y1="45.2656" y2="45.2656"/><ellipse cx="75" cy="59.0098" fill="#84BE84" rx="3" ry="3" style="stroke:#038048;stroke-width:1.0;"/><text fill="#000000" font-family="sans-serif" font-size="14" font-style="italic" lengthAdjust="spacing" textLength="222" x="84" y="62.8008">process(SipServletRequest): void</text></g></a><!--reverse link org.vorpal.blade.framework.callflow.Callflow to org.vorpal.blade.services.proxy.registrar.ProxyCallflow--><g id="link_org.vorpal.blade.framework.callflow.Callflow_org.vorpal.blade.services.proxy.registrar.ProxyCallflow"><path codeLine="18" d="M188,88.21 C188,104.99 188,108.55 188,129.51 " fill="none" id="org.vorpal.blade.framework.callflow.Callflow-backto-org.vorpal.blade.services.proxy.registrar.ProxyCallflow" style="stroke:#181818;stroke-width:1.0;"/><polygon fill="none" points="188,70.21,182,88.21,194,88.21,188,70.21" style="stroke:#181818;stroke-width:1.0;"/></g><text fill="#888888" font-family="sans-serif" font-size="10" lengthAdjust="spacing" textLength="176" x="93" y="298.6133">UMLDoclet 2.1.2, PlantUML 1.2024.3</text><!--SRC=[dLDDJy904BtxAoOc9X3fLeod1ZLHBoOOYGGlo65f1xfnsQcx0uhAVtVxmKVHWzfBkpDlvis-DmK0SCXWv0nT9cFiOoQjPB9WoE21JqEg4WISPRo4YKATkFte33ab7oxYiPREmM77gNUCscSNFKjloskfzKJJwvEfuYSNPATYGJQJMeorJ50uj0iLenDPNY4iJfLZA-qXI0U_HeiQ7mo7jRD8UQP78_WeHisV3yUILRo2m7TKKZ-YTOhCuFOc0arckW461L7Niw116q5lzxY7wcbfAaJ-kPUzDmDJpeiMamYkY3Jke8vh8pTgHArjrzQwiBcjzFsz9gxHLrdV2wIH7_1bZewR4In89GLoLHebnxbWCNzpx3TcJQnVc5UopoAkq3_Rz1qdThn9cJCNXM5POf35L74w7mj5OL5VPOBY46WrzWulWqtJqFDLa0g_JQtvmfhtbye5-EQ5DrAVivrZVHdMcgp-9kMVhjtv38B_xdFvXw7n5u09KVuQt7LlAFRZmQbeYrE_87uts4VXQ57kSgFv1G00]--></g></svg>