<?xml version="1.0" encoding="us-ascii" standalone="no"?><svg xmlns="http://www.w3.org/2000/svg" xmlns:xlink="http://www.w3.org/1999/xlink" contentStyleType="text/css" height="811px" preserveAspectRatio="none" style="width:467px;height:811px;background:#FFFFFF;" version="1.1" viewBox="0 0 467 811" width="467px" zoomAndPan="magnify"><defs/><g><!--class org.vorpal.blade.services.proxy.registrar.ProxyRegistrarSettings--><a href="ProxyRegistrarSettings.html" target="_top" title="ProxyRegistrarSettings.html" xlink:actuate="onRequest" xlink:href="ProxyRegistrarSettings.html" xlink:show="new" xlink:title="ProxyRegistrarSettings.html" xlink:type="simple"><g id="elem_org.vorpal.blade.services.proxy.registrar.ProxyRegistrarSettings"><rect codeLine="5" fill="#F1F1F1" height="680.8203" id="org.vorpal.blade.services.proxy.registrar.ProxyRegistrarSettings" rx="2.5" ry="2.5" style="stroke:#181818;stroke-width:0.5;" width="451" x="9" y="105.27"/><ellipse cx="132.25" cy="124.4028" fill="#ADD1B2" rx="11" ry="11" style="stroke:#181818;stroke-width:1.0;"/><path d="M134.7231,130.5459 Q134.1421,130.8447 133.5029,130.9941 Q132.8638,131.1435 132.1582,131.1435 Q129.6514,131.1435 128.3315,129.4917 Q127.0117,127.8398 127.0117,124.7187 Q127.0117,121.5893 128.3315,119.9375 Q129.6514,118.2856 132.1582,118.2856 Q132.8638,118.2856 133.5112,118.435 Q134.1587,118.5845 134.7231,118.8833 L134.7231,121.6059 Q134.0923,121.0249 133.4988,120.7551 Q132.9053,120.4853 132.2744,120.4853 Q130.9297,120.4853 130.2449,121.552 Q129.5601,122.6186 129.5601,124.7187 Q129.5601,126.8105 130.2449,127.8772 Q130.9297,128.9438 132.2744,128.9438 Q132.9053,128.9438 133.4988,128.6741 Q134.0923,128.4043 134.7231,127.8232 Z " fill="#000000"/><text fill="#000000" font-family="sans-serif" font-size="14" lengthAdjust="spacing" textLength="156" x="172.75" y="123.8052">ProxyRegistrarSettings</text><text fill="#000000" font-family="sans-serif" font-size="10" lengthAdjust="spacing" textLength="196" x="152.75" y="136.4262">org.vorpal.blade.services.proxy.registrar</text><line style="stroke:#181818;stroke-width:0.5;" x1="10" x2="459" y1="143.5356" y2="143.5356"/><rect fill="none" height="6" style="stroke:#C82930;stroke-width:1.0;" width="6" x="17" y="154.2798"/><text fill="#000000" font-family="sans-serif" font-size="14" lengthAdjust="spacing" text-decoration="underline" textLength="152" x="29" y="161.0708">serialVersionUID: long</text><polygon fill="none" points="20,168.768,24,172.768,20,176.768,16,172.768" style="stroke:#B38D22;stroke-width:1.0;"/><text fill="#000000" font-family="sans-serif" font-size="14" lengthAdjust="spacing" textLength="180" x="29" y="177.5591">defaultAllow: List&lt;String&gt;</text><polygon fill="none" points="20,185.2563,24,189.2563,20,193.2563,16,189.2563" style="stroke:#B38D22;stroke-width:1.0;"/><text fill="#000000" font-family="sans-serif" font-size="14" lengthAdjust="spacing" textLength="212" x="29" y="194.0473">proxyOnUnregistered: Boolean</text><polygon fill="none" points="20,201.7446,24,205.7446,20,209.7446,16,205.7446" style="stroke:#B38D22;stroke-width:1.0;"/><text fill="#000000" font-family="sans-serif" font-size="14" lengthAdjust="spacing" textLength="137" x="29" y="210.5356">addToPath: Boolean</text><polygon fill="none" points="20,218.2329,24,222.2329,20,226.2329,16,222.2329" style="stroke:#B38D22;stroke-width:1.0;"/><text fill="#000000" font-family="sans-serif" font-size="14" lengthAdjust="spacing" textLength="69" x="29" y="227.0239">flow: Flow</text><polygon fill="none" points="20,234.7212,24,238.7212,20,242.7212,16,238.7212" style="stroke:#B38D22;stroke-width:1.0;"/><text fill="#000000" font-family="sans-serif" font-size="14" lengthAdjust="spacing" textLength="127" x="29" y="243.5122">noCancel: Boolean</text><polygon fill="none" points="20,251.2095,24,255.2095,20,259.2095,16,255.2095" style="stroke:#B38D22;stroke-width:1.0;"/><text fill="#000000" font-family="sans-serif" font-size="14" lengthAdjust="spacing" textLength="274" x="29" y="260.0005">outboundInterfaceAddress: InetAddress</text><polygon fill="none" points="20,267.6977,24,271.6977,20,275.6977,16,271.6977" style="stroke:#B38D22;stroke-width:1.0;"/><text fill="#000000" font-family="sans-serif" font-size="14" lengthAdjust="spacing" textLength="364" x="29" y="276.4888">outboundInterfaceSocketAddress: InetSocketAddress</text><polygon fill="none" points="20,284.186,24,288.186,20,292.186,16,288.186" style="stroke:#B38D22;stroke-width:1.0;"/><text fill="#000000" font-family="sans-serif" font-size="14" lengthAdjust="spacing" textLength="114" x="29" y="292.977">parallel: Boolean</text><polygon fill="none" points="20,300.6743,24,304.6743,20,308.6743,16,304.6743" style="stroke:#B38D22;stroke-width:1.0;"/><text fill="#000000" font-family="sans-serif" font-size="14" lengthAdjust="spacing" textLength="154" x="29" y="309.4653">proxyTimeout: Integer</text><polygon fill="none" points="20,317.1626,24,321.1626,20,325.1626,16,321.1626" style="stroke:#B38D22;stroke-width:1.0;"/><text fill="#000000" font-family="sans-serif" font-size="14" lengthAdjust="spacing" textLength="148" x="29" y="325.9536">recordRoute: Boolean</text><polygon fill="none" points="20,333.6509,24,337.6509,20,341.6509,16,337.6509" style="stroke:#B38D22;stroke-width:1.0;"/><text fill="#000000" font-family="sans-serif" font-size="14" lengthAdjust="spacing" textLength="114" x="29" y="342.4419">recurse: Boolean</text><polygon fill="none" points="20,350.1391,24,354.1391,20,358.1391,16,354.1391" style="stroke:#B38D22;stroke-width:1.0;"/><text fill="#000000" font-family="sans-serif" font-size="14" lengthAdjust="spacing" textLength="137" x="29" y="358.9302">supervised: Boolean</text><line style="stroke:#181818;stroke-width:0.5;" x1="10" x2="459" y1="365.8833" y2="365.8833"/><ellipse cx="20" cy="379.6274" fill="#84BE84" rx="3" ry="3" style="stroke:#038048;stroke-width:1.0;"/><text fill="#000000" font-family="sans-serif" font-size="14" lengthAdjust="spacing" textLength="133" x="29" y="383.4184">apply(Proxy): Proxy</text><ellipse cx="20" cy="396.1157" fill="#84BE84" rx="3" ry="3" style="stroke:#038048;stroke-width:1.0;"/><text fill="#000000" font-family="sans-serif" font-size="14" lengthAdjust="spacing" textLength="213" x="29" y="399.9067">getDefaultAllow(): List&lt;String&gt;</text><ellipse cx="20" cy="412.604" fill="#84BE84" rx="3" ry="3" style="stroke:#038048;stroke-width:1.0;"/><text fill="#000000" font-family="sans-serif" font-size="14" lengthAdjust="spacing" textLength="240" x="29" y="416.395">setDefaultAllow(List&lt;String&gt;): void</text><ellipse cx="20" cy="429.0923" fill="#84BE84" rx="3" ry="3" style="stroke:#038048;stroke-width:1.0;"/><text fill="#000000" font-family="sans-serif" font-size="14" lengthAdjust="spacing" textLength="243" x="29" y="432.8833">getProxyOnUnregistered(): Boolean</text><ellipse cx="20" cy="445.5805" fill="#84BE84" rx="3" ry="3" style="stroke:#038048;stroke-width:1.0;"/><text fill="#000000" font-family="sans-serif" font-size="14" lengthAdjust="spacing" textLength="270" x="29" y="449.3716">setProxyOnUnregistered(Boolean): void</text><ellipse cx="20" cy="462.0688" fill="#84BE84" rx="3" ry="3" style="stroke:#038048;stroke-width:1.0;"/><text fill="#000000" font-family="sans-serif" font-size="14" lengthAdjust="spacing" textLength="171" x="29" y="465.8598">getAddToPath(): Boolean</text><ellipse cx="20" cy="478.5571" fill="#84BE84" rx="3" ry="3" style="stroke:#038048;stroke-width:1.0;"/><text fill="#000000" font-family="sans-serif" font-size="14" lengthAdjust="spacing" textLength="198" x="29" y="482.3481">setAddToPath(Boolean): void</text><ellipse cx="20" cy="495.0454" fill="#84BE84" rx="3" ry="3" style="stroke:#038048;stroke-width:1.0;"/><text fill="#000000" font-family="sans-serif" font-size="14" lengthAdjust="spacing" textLength="104" x="29" y="498.8364">getFlow(): Flow</text><ellipse cx="20" cy="511.5337" fill="#84BE84" rx="3" ry="3" style="stroke:#038048;stroke-width:1.0;"/><text fill="#000000" font-family="sans-serif" font-size="14" lengthAdjust="spacing" textLength="131" x="29" y="515.3247">setFlow(Flow): void</text><ellipse cx="20" cy="528.022" fill="#84BE84" rx="3" ry="3" style="stroke:#038048;stroke-width:1.0;"/><text fill="#000000" font-family="sans-serif" font-size="14" lengthAdjust="spacing" textLength="160" x="29" y="531.813">getNoCancel(): Boolean</text><ellipse cx="20" cy="544.5102" fill="#84BE84" rx="3" ry="3" style="stroke:#038048;stroke-width:1.0;"/><text fill="#000000" font-family="sans-serif" font-size="14" lengthAdjust="spacing" textLength="187" x="29" y="548.3013">setNoCancel(Boolean): void</text><ellipse cx="20" cy="560.9985" fill="#84BE84" rx="3" ry="3" style="stroke:#038048;stroke-width:1.0;"/><text fill="#000000" font-family="sans-serif" font-size="14" lengthAdjust="spacing" textLength="308" x="29" y="564.7895">getOutboundInterfaceAddress(): InetAddress</text><ellipse cx="20" cy="577.4868" fill="#84BE84" rx="3" ry="3" style="stroke:#038048;stroke-width:1.0;"/><text fill="#000000" font-family="sans-serif" font-size="14" lengthAdjust="spacing" textLength="335" x="29" y="581.2778">setOutboundInterfaceAddress(InetAddress): void</text><ellipse cx="20" cy="593.9751" fill="#84BE84" rx="3" ry="3" style="stroke:#038048;stroke-width:1.0;"/><text fill="#000000" font-family="sans-serif" font-size="14" lengthAdjust="spacing" textLength="398" x="29" y="597.7661">getOutboundInterfaceSocketAddress(): InetSocketAddress</text><ellipse cx="20" cy="610.4634" fill="#84BE84" rx="3" ry="3" style="stroke:#038048;stroke-width:1.0;"/><text fill="#000000" font-family="sans-serif" font-size="14" lengthAdjust="spacing" textLength="425" x="29" y="614.2544">setOutboundInterfaceSocketAddress(InetSocketAddress): void</text><ellipse cx="20" cy="626.9516" fill="#84BE84" rx="3" ry="3" style="stroke:#038048;stroke-width:1.0;"/><text fill="#000000" font-family="sans-serif" font-size="14" lengthAdjust="spacing" textLength="145" x="29" y="630.7427">getParallel(): Boolean</text><ellipse cx="20" cy="643.4399" fill="#84BE84" rx="3" ry="3" style="stroke:#038048;stroke-width:1.0;"/><text fill="#000000" font-family="sans-serif" font-size="14" lengthAdjust="spacing" textLength="172" x="29" y="647.2309">setParallel(Boolean): void</text><ellipse cx="20" cy="659.9282" fill="#84BE84" rx="3" ry="3" style="stroke:#038048;stroke-width:1.0;"/><text fill="#000000" font-family="sans-serif" font-size="14" lengthAdjust="spacing" textLength="185" x="29" y="663.7192">getProxyTimeout(): Integer</text><ellipse cx="20" cy="676.4165" fill="#84BE84" rx="3" ry="3" style="stroke:#038048;stroke-width:1.0;"/><text fill="#000000" font-family="sans-serif" font-size="14" lengthAdjust="spacing" textLength="212" x="29" y="680.2075">setProxyTimeout(Integer): void</text><ellipse cx="20" cy="692.9048" fill="#84BE84" rx="3" ry="3" style="stroke:#038048;stroke-width:1.0;"/><text fill="#000000" font-family="sans-serif" font-size="14" lengthAdjust="spacing" textLength="183" x="29" y="696.6958">getRecordRoute(): Boolean</text><ellipse cx="20" cy="709.393" fill="#84BE84" rx="3" ry="3" style="stroke:#038048;stroke-width:1.0;"/><text fill="#000000" font-family="sans-serif" font-size="14" lengthAdjust="spacing" textLength="210" x="29" y="713.1841">setRecordRoute(Boolean): void</text><ellipse cx="20" cy="725.8813" fill="#84BE84" rx="3" ry="3" style="stroke:#038048;stroke-width:1.0;"/><text fill="#000000" font-family="sans-serif" font-size="14" lengthAdjust="spacing" textLength="149" x="29" y="729.6723">getRecurse(): Boolean</text><ellipse cx="20" cy="742.3696" fill="#84BE84" rx="3" ry="3" style="stroke:#038048;stroke-width:1.0;"/><text fill="#000000" font-family="sans-serif" font-size="14" lengthAdjust="spacing" textLength="176" x="29" y="746.1606">setRecurse(Boolean): void</text><ellipse cx="20" cy="758.8579" fill="#84BE84" rx="3" ry="3" style="stroke:#038048;stroke-width:1.0;"/><text fill="#000000" font-family="sans-serif" font-size="14" lengthAdjust="spacing" textLength="170" x="29" y="762.6489">getSupervised(): Boolean</text><ellipse cx="20" cy="775.3462" fill="#84BE84" rx="3" ry="3" style="stroke:#038048;stroke-width:1.0;"/><text fill="#000000" font-family="sans-serif" font-size="14" lengthAdjust="spacing" textLength="197" x="29" y="779.1372">setSupervised(Boolean): void</text></g></a><!--class org.vorpal.blade.framework.config.Configuration--><a href="https://vorpalnet.github.io/blade/vorpal-blade-library-framework/org/vorpal/blade/framework/config/Configuration.html?is-external=true" target="_top" title="https://vorpalnet.github.io/blade/vorpal-blade-library-framework/org/vorpal/blade/framework/config/Configuration.html?is-external=true" xlink:actuate="onRequest" xlink:href="https://vorpalnet.github.io/blade/vorpal-blade-library-framework/org/vorpal/blade/framework/config/Configuration.html?is-external=true" xlink:show="new" xlink:title="https://vorpalnet.github.io/blade/vorpal-blade-library-framework/org/vorpal/blade/framework/config/Configuration.html?is-external=true" xlink:type="simple"><g id="elem_org.vorpal.blade.framework.config.Configuration"><rect codeLine="46" fill="#F1F1F1" height="38.2656" id="org.vorpal.blade.framework.config.Configuration" rx="2.5" ry="2.5" style="stroke:#181818;stroke-width:0.5;" width="200" x="39.5" y="7"/><ellipse cx="54.5" cy="26.1328" fill="#ADD1B2" rx="11" ry="11" style="stroke:#181818;stroke-width:1.0;"/><path d="M56.9731,32.2759 Q56.3921,32.5747 55.7529,32.7241 Q55.1138,32.8735 54.4082,32.8735 Q51.9014,32.8735 50.5815,31.2217 Q49.2617,29.5698 49.2617,26.4487 Q49.2617,23.3193 50.5815,21.6675 Q51.9014,20.0156 54.4082,20.0156 Q55.1138,20.0156 55.7612,20.165 Q56.4087,20.3145 56.9731,20.6133 L56.9731,23.3359 Q56.3423,22.7549 55.7488,22.4851 Q55.1553,22.2153 54.5244,22.2153 Q53.1797,22.2153 52.4949,23.282 Q51.8101,24.3486 51.8101,26.4487 Q51.8101,28.5405 52.4949,29.6072 Q53.1797,30.6738 54.5244,30.6738 Q55.1553,30.6738 55.7488,30.4041 Q56.3423,30.1343 56.9731,29.5532 Z " fill="#000000"/><text fill="#000000" font-family="sans-serif" font-size="14" lengthAdjust="spacing" textLength="96" x="104.5" y="25.5352">Configuration</text><text fill="#000000" font-family="sans-serif" font-size="10" lengthAdjust="spacing" textLength="168" x="68.5" y="38.1563">org.vorpal.blade.framework.config</text></g></a><!--class java.io.Serializable--><a href="https://docs.oracle.com/en/java/javase/11/docs/api/java.base/java/io/Serializable.html?is-external=true" target="_top" title="https://docs.oracle.com/en/java/javase/11/docs/api/java.base/java/io/Serializable.html?is-external=true" xlink:actuate="onRequest" xlink:href="https://docs.oracle.com/en/java/javase/11/docs/api/java.base/java/io/Serializable.html?is-external=true" xlink:show="new" xlink:title="https://docs.oracle.com/en/java/javase/11/docs/api/java.base/java/io/Serializable.html?is-external=true" xlink:type="simple"><g id="elem_java.io.Serializable"><rect codeLine="47" fill="#F1F1F1" height="38.2656" id="java.io.Serializable" rx="2.5" ry="2.5" style="stroke:#181818;stroke-width:0.5;" width="111" x="275" y="7"/><ellipse cx="290" cy="26.1328" fill="#B4A7E5" rx="11" ry="11" style="stroke:#181818;stroke-width:1.0;"/><path d="M286.4277,22.3979 L286.4277,20.2397 L293.8071,20.2397 L293.8071,22.3979 L291.3418,22.3979 L291.3418,30.4746 L293.8071,30.4746 L293.8071,32.6328 L286.4277,32.6328 L286.4277,30.4746 L288.8931,30.4746 L288.8931,22.3979 Z " fill="#000000"/><text fill="#000000" font-family="sans-serif" font-size="14" font-style="italic" lengthAdjust="spacing" textLength="79" x="304" y="25.5352">Serializable</text><text fill="#000000" font-family="sans-serif" font-size="10" font-style="italic" lengthAdjust="spacing" textLength="32" x="327.5" y="38.1563">java.io</text></g></a><!--reverse link org.vorpal.blade.framework.config.Configuration to org.vorpal.blade.services.proxy.registrar.ProxyRegistrarSettings--><g id="link_org.vorpal.blade.framework.config.Configuration_org.vorpal.blade.services.proxy.registrar.ProxyRegistrarSettings"><path codeLine="49" d="M147.7029,63.1693 C150.8529,76.9793 151.57,80.17 157.23,105.08 " fill="none" id="org.vorpal.blade.framework.config.Configuration-backto-org.vorpal.blade.services.proxy.registrar.ProxyRegistrarSettings" style="stroke:#181818;stroke-width:1.0;"/><polygon fill="none" points="143.7,45.62,141.8532,64.5036,153.5527,61.835,143.7,45.62" style="stroke:#181818;stroke-width:1.0;"/></g><!--reverse link java.io.Serializable to org.vorpal.blade.services.proxy.registrar.ProxyRegistrarSettings--><g id="link_java.io.Serializable_org.vorpal.blade.services.proxy.registrar.ProxyRegistrarSettings"><path codeLine="50" d="M322.2229,63.1637 C319.0529,76.9737 318.31,80.17 312.58,105.08 " fill="none" id="java.io.Serializable-backto-org.vorpal.blade.services.proxy.registrar.ProxyRegistrarSettings" style="stroke:#181818;stroke-width:1.0;stroke-dasharray:7.0,7.0;"/><polygon fill="none" points="326.25,45.62,316.375,61.8214,328.0709,64.5061,326.25,45.62" style="stroke:#181818;stroke-width:1.0;"/></g><text fill="#888888" font-family="sans-serif" font-size="10" lengthAdjust="spacing" textLength="176" x="138.5" y="801.7583">UMLDoclet 2.1.2, PlantUML 1.2024.3</text><!--SRC=[hLPRRvim57xVhx0wJMhLOPPgJoZBrBMgLAbRewJPIvS71n-8LyT6jacRNlxxZ2416eCwRNc0SCvtldCr1uGGqc2G82lG6ObX2XbHn4Y5X1JmpghHab50iChC1YKCEDMlfIimIsd5JXvpeZKw66hs2D7WysYivCDc0YdJHX4r1MEOIFKlKG4-ZQHAyLggZ72yu8G2rg3MB0QDiy8Kgwtj0I8QlHcD_OxHxQrVWPTcnUTpzEIoA7vFsX33uXSKM1-Cy9-WD9DYTdaU8Iv5kWE-fv2Gd9jJpkLzXAuiyN1gb6KTrHWNthMOYJ92K40Zz4rA3aJKA4BfZHmJi_Je4iT-OQ-rJCWp8cBW7hZCpKBcWbuAwoonhJsbL87M4ReKOAg77lXKndSxN6dK4ZLIinF3kJS8b_KDMu6bBpWCfA1gjO9OAZgnIl0OMsskj4-Zywnek_RLy9Xa6TySkYuVHSZTQsKAvhpHhSEZZduTwrV09ieQhIMZBTRnVdyByhtej1zQuNpCfzkPwEAh0Jqi5rMshVafh9sYkFYiVbJprULwf-_nVDqnY0MdRnGBtawRXi6RVBL6TklHFyTUlstxFMFl95J7eRFzMtrFpSQDSrD6tJuvkp7QOYg0ZsjI7xAka9gGdgWcvO7iON7g7eRfxk1saJGG7fuN_v8vao9XQMuNbtr1z-sMHDb5To_L7OwTYN-dl4RX5hzT8KjZCXs5OMbbXmAdp2pp1MOoT1IL9d0F0MSBksasmOutj2uhI8MlLQNBiENIBQUlJ0VmOETI4Fx5g1pcSrSCjftLHa6cRcEnHxBWqAZ7Rx8cDaQNTVKVDw6DrAYCDPQAn1ni5LOXYB2mS1SDuM3W4279c1FXHI5r25k39cTdx2xulwtzy3a8_laZm7dsvZzynlZ_qCTGj0KbKXQtsVUhSsbBQT097k2JZsZCYJ1MYZwioy-AmwC_]--></g></svg>