<?xml version="1.0" encoding="us-ascii" standalone="no"?><svg xmlns="http://www.w3.org/2000/svg" xmlns:xlink="http://www.w3.org/1999/xlink" contentStyleType="text/css" height="251px" preserveAspectRatio="none" style="width:388px;height:251px;background:#FFFFFF;" version="1.1" viewBox="0 0 388 251" width="388px" zoomAndPan="magnify"><defs/><g><!--class org.vorpal.blade.services.proxy.registrar.ProxyRegistrar.ContactInfo--><a href="ProxyRegistrar.ContactInfo.html" target="_top" title="ProxyRegistrar.ContactInfo.html" xlink:actuate="onRequest" xlink:href="ProxyRegistrar.ContactInfo.html" xlink:show="new" xlink:title="ProxyRegistrar.ContactInfo.html" xlink:type="simple"><g id="elem_org.vorpal.blade.services.proxy.registrar.ProxyRegistrar.ContactInfo"><rect codeLine="5" fill="#F1F1F1" height="120.2188" id="org.vorpal.blade.services.proxy.registrar.ProxyRegistrar.ContactInfo" rx="2.5" ry="2.5" style="stroke:#181818;stroke-width:0.5;" width="228" x="50.5" y="105.26"/><ellipse cx="65.5" cy="124.3928" fill="#ADD1B2" rx="11" ry="11" style="stroke:#181818;stroke-width:1.0;"/><path d="M67.9731,130.5359 Q67.3921,130.8347 66.7529,130.9841 Q66.1138,131.1335 65.4082,131.1335 Q62.9014,131.1335 61.5815,129.4817 Q60.2617,127.8298 60.2617,124.7087 Q60.2617,121.5793 61.5815,119.9275 Q62.9014,118.2756 65.4082,118.2756 Q66.1138,118.2756 66.7612,118.425 Q67.4087,118.5745 67.9731,118.8733 L67.9731,121.5959 Q67.3423,121.0149 66.7488,120.7451 Q66.1553,120.4753 65.5244,120.4753 Q64.1797,120.4753 63.4949,121.542 Q62.8101,122.6086 62.8101,124.7087 Q62.8101,126.8005 63.4949,127.8672 Q64.1797,128.9338 65.5244,128.9338 Q66.1553,128.9338 66.7488,128.6641 Q67.3423,128.3943 67.9731,127.8132 Z " fill="#000000"/><text fill="#000000" font-family="sans-serif" font-size="14" lengthAdjust="spacing" textLength="185" x="85" y="123.7952">ProxyRegistrar.ContactInfo</text><text fill="#000000" font-family="sans-serif" font-size="10" lengthAdjust="spacing" textLength="196" x="79.5" y="136.4163">org.vorpal.blade.services.proxy.registrar</text><line style="stroke:#181818;stroke-width:0.5;" x1="51.5" x2="277.5" y1="143.5256" y2="143.5256"/><rect fill="none" height="6" style="stroke:#C82930;stroke-width:1.0;" width="6" x="58.5" y="154.2698"/><text fill="#000000" font-family="sans-serif" font-size="14" lengthAdjust="spacing" text-decoration="underline" textLength="152" x="70.5" y="161.0608">serialVersionUID: long</text><ellipse cx="61.5" cy="173.758" fill="none" rx="3" ry="3" style="stroke:#038048;stroke-width:1.0;"/><text fill="#000000" font-family="sans-serif" font-size="14" lengthAdjust="spacing" textLength="118" x="70.5" y="177.5491">address: Address</text><ellipse cx="61.5" cy="190.2463" fill="none" rx="3" ry="3" style="stroke:#038048;stroke-width:1.0;"/><text fill="#000000" font-family="sans-serif" font-size="14" lengthAdjust="spacing" textLength="114" x="70.5" y="194.0373">timestamp: Long</text><line style="stroke:#181818;stroke-width:0.5;" x1="51.5" x2="277.5" y1="200.9905" y2="200.9905"/><ellipse cx="61.5" cy="214.7346" fill="#84BE84" rx="3" ry="3" style="stroke:#038048;stroke-width:1.0;"/><text fill="#000000" font-family="sans-serif" font-size="14" lengthAdjust="spacing" textLength="188" x="70.5" y="218.5256">ContactInfo(Address, Long)</text></g></a><!--class java.io.Serializable--><a href="https://docs.oracle.com/en/java/javase/11/docs/api/java.base/java/io/Serializable.html?is-external=true" target="_top" title="https://docs.oracle.com/en/java/javase/11/docs/api/java.base/java/io/Serializable.html?is-external=true" xlink:actuate="onRequest" xlink:href="https://docs.oracle.com/en/java/javase/11/docs/api/java.base/java/io/Serializable.html?is-external=true" xlink:show="new" xlink:title="https://docs.oracle.com/en/java/javase/11/docs/api/java.base/java/io/Serializable.html?is-external=true" xlink:type="simple"><g id="elem_java.io.Serializable"><rect codeLine="12" fill="#F1F1F1" height="38.2656" id="java.io.Serializable" rx="2.5" ry="2.5" style="stroke:#181818;stroke-width:0.5;" width="111" x="7" y="7"/><ellipse cx="22" cy="26.1328" fill="#B4A7E5" rx="11" ry="11" style="stroke:#181818;stroke-width:1.0;"/><path d="M18.4277,22.3979 L18.4277,20.2397 L25.8071,20.2397 L25.8071,22.3979 L23.3418,22.3979 L23.3418,30.4746 L25.8071,30.4746 L25.8071,32.6328 L18.4277,32.6328 L18.4277,30.4746 L20.8931,30.4746 L20.8931,22.3979 Z " fill="#000000"/><text fill="#000000" font-family="sans-serif" font-size="14" font-style="italic" lengthAdjust="spacing" textLength="79" x="36" y="25.5352">Serializable</text><text fill="#000000" font-family="sans-serif" font-size="10" font-style="italic" lengthAdjust="spacing" textLength="32" x="59.5" y="38.1563">java.io</text></g></a><!--class org.vorpal.blade.services.proxy.registrar.ProxyRegistrar--><a href="ProxyRegistrar.html" target="_top" title="ProxyRegistrar.html" xlink:actuate="onRequest" xlink:href="ProxyRegistrar.html" xlink:show="new" xlink:title="ProxyRegistrar.html" xlink:type="simple"><g id="elem_org.vorpal.blade.services.proxy.registrar.ProxyRegistrar"><rect codeLine="13" fill="#F1F1F1" height="38.2656" id="org.vorpal.blade.services.proxy.registrar.ProxyRegistrar" rx="2.5" ry="2.5" style="stroke:#181818;stroke-width:0.5;" width="228" x="153.5" y="7"/><ellipse cx="168.5" cy="26.1328" fill="#ADD1B2" rx="11" ry="11" style="stroke:#181818;stroke-width:1.0;"/><path d="M170.9731,32.2759 Q170.3921,32.5747 169.7529,32.7241 Q169.1138,32.8735 168.4082,32.8735 Q165.9014,32.8735 164.5815,31.2217 Q163.2617,29.5698 163.2617,26.4487 Q163.2617,23.3193 164.5815,21.6675 Q165.9014,20.0156 168.4082,20.0156 Q169.1138,20.0156 169.7612,20.165 Q170.4087,20.3145 170.9731,20.6133 L170.9731,23.3359 Q170.3423,22.7549 169.7488,22.4851 Q169.1553,22.2153 168.5244,22.2153 Q167.1797,22.2153 166.4949,23.282 Q165.8101,24.3486 165.8101,26.4487 Q165.8101,28.5405 166.4949,29.6072 Q167.1797,30.6738 168.5244,30.6738 Q169.1553,30.6738 169.7488,30.4041 Q170.3423,30.1343 170.9731,29.5532 Z " fill="#000000"/><text fill="#000000" font-family="sans-serif" font-size="14" lengthAdjust="spacing" textLength="101" x="230" y="25.5352">ProxyRegistrar</text><text fill="#000000" font-family="sans-serif" font-size="10" lengthAdjust="spacing" textLength="196" x="182.5" y="38.1563">org.vorpal.blade.services.proxy.registrar</text></g></a><!--reverse link java.io.Serializable to org.vorpal.blade.services.proxy.registrar.ProxyRegistrar.ContactInfo--><g id="link_java.io.Serializable_org.vorpal.blade.services.proxy.registrar.ProxyRegistrar.ContactInfo"><path codeLine="15" d="M86.9949,60.0886 C98.3549,75.3786 104.41,83.52 120.3,104.91 " fill="none" id="java.io.Serializable-backto-org.vorpal.blade.services.proxy.registrar.ProxyRegistrar.ContactInfo" style="stroke:#181818;stroke-width:1.0;stroke-dasharray:7.0,7.0;"/><polygon fill="none" points="76.26,45.64,82.1787,63.6669,91.8111,56.5103,76.26,45.64" style="stroke:#181818;stroke-width:1.0;"/></g><!--reverse link org.vorpal.blade.services.proxy.registrar.ProxyRegistrar to org.vorpal.blade.services.proxy.registrar.ProxyRegistrar.ContactInfo--><g id="link_org.vorpal.blade.services.proxy.registrar.ProxyRegistrar_org.vorpal.blade.services.proxy.registrar.ProxyRegistrar.ContactInfo"><path codeLine="16" d="M244.0033,58.435 C232.5233,73.725 225.18,83.52 209.13,104.91 " fill="none" id="org.vorpal.blade.services.proxy.registrar.ProxyRegistrar-backto-org.vorpal.blade.services.proxy.registrar.ProxyRegistrar.ContactInfo" style="stroke:#181818;stroke-width:1.0;"/><ellipse cx="248.8067" cy="52.0375" fill="#FFFFFF" rx="8" ry="8" style="stroke:#181818;stroke-width:1.0;"/><line style="stroke:#181818;stroke-width:1.0;" x1="244.0033" x2="253.61" y1="58.435" y2="45.64"/><line style="stroke:#181818;stroke-width:1.0;" x1="242.4092" x2="255.2041" y1="47.2341" y2="56.8408"/></g><text fill="#888888" font-family="sans-serif" font-size="10" lengthAdjust="spacing" textLength="176" x="99.25" y="241.1467">UMLDoclet 2.1.2, PlantUML 1.2024.3</text><!--SRC=[lL9DInn14BtdLnH2GD6joKfEWneaNWG34Z4NiuVQdjhTbfwkeQko-17_UtfwrcIIA4YGp66cUVNULFMh1m2WR12fPUt8yGLtbCWaGPJ8Rt8PLhvXuBQpMrXu3et-YRPiAybmmLqWLTWwK7_7zVJzqNcIczlFlFHgYH9-b6Zax3Gkv6lSaDuTILhYMb970UU16aRbjFQE5RjUZkbHlmMay68sFjyShgwUB-BAsZ2RmNsvKV_Sgv5vzm2JtCjJ-C99lSJBqvCQWiJbJ-8kDKrYrHgEXyElYldiiL7RrN3scsJKUNkZsYkKdS9v68prqJWjyef6vbwKOVmTpGEFxBocDQ6NOjRcZ6DgllpAhDEwgXfnYfB81KOdRSMnwXNbfLnDfuLHKUSBXFCUBGmlrVYVnRCFNYTya-UC50ujVUFPx0MX-Ez1-7lvmy87evzqxE0xugi4hxJuvy5t9vFNcy9n7obOYFIVoqzd9v9ZOB2FKzpVW_D0qJ8ARzT3shTtVW00]--></g></svg>