<?xml version="1.0" encoding="us-ascii" standalone="no"?><svg xmlns="http://www.w3.org/2000/svg" xmlns:xlink="http://www.w3.org/1999/xlink" contentStyleType="text/css" height="988px" preserveAspectRatio="none" style="width:2119px;height:988px;background:#FFFFFF;" version="1.1" viewBox="0 0 2119 988" width="2119px" zoomAndPan="magnify"><defs/><g><!--cluster org.vorpal.blade.services.transfer--><g id="cluster_org.vorpal.blade.services.transfer"><path d="M922.5,244.41 L1158.5,244.41 A3.75,3.75 0 0 1 1161,246.91 L1168,266.8983 L1808.5,266.8983 A2.5,2.5 0 0 1 1811,269.3983 L1811,960.05 A2.5,2.5 0 0 1 1808.5,962.55 L922.5,962.55 A2.5,2.5 0 0 1 920,960.05 L920,246.91 A2.5,2.5 0 0 1 922.5,244.41 " fill="none" style="stroke:#000000;stroke-width:1.5;"/><line style="stroke:#000000;stroke-width:1.5;" x1="920" x2="1168" y1="266.8983" y2="266.8983"/><text fill="#000000" font-family="sans-serif" font-size="14" font-weight="bold" lengthAdjust="spacing" textLength="235" x="924" y="259.9452">org.vorpal.blade.services.transfer</text></g><!--cluster org.vorpal.blade.framework.b2bua--><g id="cluster_org.vorpal.blade.framework.b2bua"><path d="M8.5,6 L251.5,6 A3.75,3.75 0 0 1 254,8.5 L261,28.4883 L333.5,28.4883 A2.5,2.5 0 0 1 336,30.9883 L336,217.91 A2.5,2.5 0 0 1 333.5,220.41 L8.5,220.41 A2.5,2.5 0 0 1 6,217.91 L6,8.5 A2.5,2.5 0 0 1 8.5,6 " fill="none" style="stroke:#000000;stroke-width:1.5;"/><line style="stroke:#000000;stroke-width:1.5;" x1="6" x2="261" y1="28.4883" y2="28.4883"/><text fill="#000000" font-family="sans-serif" font-size="14" font-weight="bold" lengthAdjust="spacing" textLength="242" x="10" y="21.5352">org.vorpal.blade.framework.b2bua</text></g><!--cluster org.vorpal.blade.framework.transfer--><g id="cluster_org.vorpal.blade.framework.transfer"><path d="M362.5,30.73 L618.5,30.73 A3.75,3.75 0 0 1 621,33.23 L628,53.2183 L725.5,53.2183 A2.5,2.5 0 0 1 728,55.7183 L728,193.18 A2.5,2.5 0 0 1 725.5,195.68 L362.5,195.68 A2.5,2.5 0 0 1 360,193.18 L360,33.23 A2.5,2.5 0 0 1 362.5,30.73 " fill="none" style="stroke:#000000;stroke-width:1.5;"/><line style="stroke:#000000;stroke-width:1.5;" x1="360" x2="628" y1="53.2183" y2="53.2183"/><text fill="#000000" font-family="sans-serif" font-size="14" font-weight="bold" lengthAdjust="spacing" textLength="255" x="364" y="46.2652">org.vorpal.blade.framework.transfer</text></g><!--cluster javax.servlet.sip--><g id="cluster_javax.servlet.sip"><path d="M754.5,30.73 L869.5,30.73 A3.75,3.75 0 0 1 872,33.23 L879,53.2183 L1611.5,53.2183 A2.5,2.5 0 0 1 1614,55.7183 L1614,193.18 A2.5,2.5 0 0 1 1611.5,195.68 L754.5,195.68 A2.5,2.5 0 0 1 752,193.18 L752,33.23 A2.5,2.5 0 0 1 754.5,30.73 " fill="none" style="stroke:#000000;stroke-width:1.5;"/><line style="stroke:#000000;stroke-width:1.5;" x1="752" x2="879" y1="53.2183" y2="53.2183"/><text fill="#000000" font-family="sans-serif" font-size="14" font-weight="bold" lengthAdjust="spacing" textLength="114" x="756" y="46.2652">javax.servlet.sip</text></g><!--cluster org.vorpal.blade.framework.config--><g id="cluster_org.vorpal.blade.framework.config"><path d="M1640.5,22.48 L1884.5,22.48 A3.75,3.75 0 0 1 1887,24.98 L1894,44.9683 L1941.5,44.9683 A2.5,2.5 0 0 1 1944,47.4683 L1944,201.43 A2.5,2.5 0 0 1 1941.5,203.93 L1640.5,203.93 A2.5,2.5 0 0 1 1638,201.43 L1638,24.98 A2.5,2.5 0 0 1 1640.5,22.48 " fill="none" style="stroke:#000000;stroke-width:1.5;"/><line style="stroke:#000000;stroke-width:1.5;" x1="1638" x2="1894" y1="44.9683" y2="44.9683"/><text fill="#000000" font-family="sans-serif" font-size="14" font-weight="bold" lengthAdjust="spacing" textLength="243" x="1642" y="38.0152">org.vorpal.blade.framework.config</text></g><!--cluster java.io--><g id="cluster_java.io"><path d="M1970.5,63.7 L2017.5,63.7 A3.75,3.75 0 0 1 2020,66.2 L2027,86.1883 L2109.5,86.1883 A2.5,2.5 0 0 1 2112,88.6883 L2112,160.2 A2.5,2.5 0 0 1 2109.5,162.7 L1970.5,162.7 A2.5,2.5 0 0 1 1968,160.2 L1968,66.2 A2.5,2.5 0 0 1 1970.5,63.7 " fill="none" style="stroke:#000000;stroke-width:1.5;"/><line style="stroke:#000000;stroke-width:1.5;" x1="1968" x2="2027" y1="86.1883" y2="86.1883"/><text fill="#000000" font-family="sans-serif" font-size="14" font-weight="bold" lengthAdjust="spacing" textLength="46" x="1972" y="79.2352">java.io</text></g><!--class TransferServlet--><a href="TransferServlet.html" target="_top" title="TransferServlet.html" xlink:actuate="onRequest" xlink:href="TransferServlet.html" xlink:show="new" xlink:title="TransferServlet.html" xlink:type="simple"><g id="elem_TransferServlet"><rect codeLine="5" fill="#F1F1F1" height="493.1836" id="TransferServlet" rx="2.5" ry="2.5" style="stroke:#181818;stroke-width:0.5;" width="458" x="936" y="279.41"/><ellipse cx="1108.75" cy="295.41" fill="#ADD1B2" rx="11" ry="11" style="stroke:#181818;stroke-width:1.0;"/><path d="M1111.2231,301.5531 Q1110.6421,301.8519 1110.0029,302.0013 Q1109.3638,302.1507 1108.6582,302.1507 Q1106.1514,302.1507 1104.8315,300.4989 Q1103.5117,298.847 1103.5117,295.7259 Q1103.5117,292.5965 1104.8315,290.9447 Q1106.1514,289.2928 1108.6582,289.2928 Q1109.3638,289.2928 1110.0112,289.4422 Q1110.6587,289.5916 1111.2231,289.8905 L1111.2231,292.6131 Q1110.5923,292.0321 1109.9988,291.7623 Q1109.4053,291.4925 1108.7744,291.4925 Q1107.4297,291.4925 1106.7449,292.5592 Q1106.0601,293.6258 1106.0601,295.7259 Q1106.0601,297.8177 1106.7449,298.8844 Q1107.4297,299.951 1108.7744,299.951 Q1109.4053,299.951 1109.9988,299.6812 Q1110.5923,299.4115 1111.2231,298.8304 Z " fill="#000000"/><text fill="#000000" font-family="sans-serif" font-size="14" lengthAdjust="spacing" textLength="104" x="1129.25" y="300.701">TransferServlet</text><line style="stroke:#181818;stroke-width:0.5;" x1="937" x2="1393" y1="311.41" y2="311.41"/><rect fill="none" height="6" style="stroke:#C82930;stroke-width:1.0;" width="6" x="944" y="322.1541"/><text fill="#000000" font-family="sans-serif" font-size="14" lengthAdjust="spacing" text-decoration="underline" textLength="152" x="956" y="328.9452">serialVersionUID: long</text><ellipse cx="947" cy="341.6424" fill="none" rx="3" ry="3" style="stroke:#038048;stroke-width:1.0;"/><text fill="#000000" font-family="sans-serif" font-size="14" lengthAdjust="spacing" text-decoration="underline" textLength="372" x="956" y="345.4334">settingsManager: SettingsManager&lt;TransferSettings&gt;</text><line style="stroke:#181818;stroke-width:0.5;" x1="937" x2="1393" y1="352.3866" y2="352.3866"/><ellipse cx="947" cy="366.1307" fill="#84BE84" rx="3" ry="3" style="stroke:#038048;stroke-width:1.0;"/><text fill="#000000" font-family="sans-serif" font-size="14" lengthAdjust="spacing" textLength="312" x="956" y="369.9217">showProperties(SipServletContextEvent): void</text><polygon fill="#FFFF44" points="947,377.619,951,381.619,947,385.619,943,381.619" style="stroke:#B38D22;stroke-width:1.0;"/><text fill="#000000" font-family="sans-serif" font-size="14" lengthAdjust="spacing" textLength="305" x="956" y="386.41">servletCreated(SipServletContextEvent): void</text><polygon fill="#FFFF44" points="947,394.1073,951,398.1073,947,402.1073,943,398.1073" style="stroke:#B38D22;stroke-width:1.0;"/><text fill="#000000" font-family="sans-serif" font-size="14" lengthAdjust="spacing" textLength="320" x="956" y="402.8983">servletDestroyed(SipServletContextEvent): void</text><rect fill="#F24D5C" height="6" style="stroke:#C82930;stroke-width:1.0;" width="6" x="944" y="412.5955"/><text fill="#000000" font-family="sans-serif" font-size="14" lengthAdjust="spacing" textLength="299" x="956" y="419.3866">chooseCallflowStyle(TransferStyle): Callflow</text><rect fill="#F24D5C" height="6" style="stroke:#C82930;stroke-width:1.0;" width="6" x="944" y="429.0838"/><text fill="#000000" font-family="sans-serif" font-size="14" lengthAdjust="spacing" textLength="250" x="956" y="435.8748">chooseCallflowStyle(String): Callflow</text><polygon fill="#FFFF44" points="947,443.5721,951,447.5721,947,451.5721,943,447.5721" style="stroke:#B38D22;stroke-width:1.0;"/><text fill="#000000" font-family="sans-serif" font-size="14" lengthAdjust="spacing" textLength="299" x="956" y="452.3631">chooseCallflow(SipServletRequest): Callflow</text><ellipse cx="947" cy="465.0604" fill="#84BE84" rx="3" ry="3" style="stroke:#038048;stroke-width:1.0;"/><text fill="#000000" font-family="sans-serif" font-size="14" lengthAdjust="spacing" textLength="279" x="956" y="468.8514">transferInitiated(SipServletRequest): void</text><ellipse cx="947" cy="481.5487" fill="#84BE84" rx="3" ry="3" style="stroke:#038048;stroke-width:1.0;"/><text fill="#000000" font-family="sans-serif" font-size="14" lengthAdjust="spacing" textLength="309" x="956" y="485.3397">transferCompleted(SipServletResponse): void</text><ellipse cx="947" cy="498.037" fill="#84BE84" rx="3" ry="3" style="stroke:#038048;stroke-width:1.0;"/><text fill="#000000" font-family="sans-serif" font-size="14" lengthAdjust="spacing" textLength="293" x="956" y="501.828">transferDeclined(SipServletResponse): void</text><ellipse cx="947" cy="514.5252" fill="#84BE84" rx="3" ry="3" style="stroke:#038048;stroke-width:1.0;"/><text fill="#000000" font-family="sans-serif" font-size="14" lengthAdjust="spacing" textLength="303" x="956" y="518.3163">transferAbandoned(SipServletRequest): void</text><ellipse cx="947" cy="531.0135" fill="#84BE84" rx="3" ry="3" style="stroke:#038048;stroke-width:1.0;"/><text fill="#000000" font-family="sans-serif" font-size="14" lengthAdjust="spacing" textLength="241" x="956" y="534.8045">callStarted(SipServletRequest): void</text><ellipse cx="947" cy="547.5018" fill="#84BE84" rx="3" ry="3" style="stroke:#038048;stroke-width:1.0;"/><text fill="#000000" font-family="sans-serif" font-size="14" lengthAdjust="spacing" textLength="271" x="956" y="551.2928">callAnswered(SipServletResponse): void</text><ellipse cx="947" cy="563.9901" fill="#84BE84" rx="3" ry="3" style="stroke:#038048;stroke-width:1.0;"/><text fill="#000000" font-family="sans-serif" font-size="14" lengthAdjust="spacing" textLength="266" x="956" y="567.7811">callConnected(SipServletRequest): void</text><ellipse cx="947" cy="580.4784" fill="#84BE84" rx="3" ry="3" style="stroke:#038048;stroke-width:1.0;"/><text fill="#000000" font-family="sans-serif" font-size="14" lengthAdjust="spacing" textLength="267" x="956" y="584.2694">callCompleted(SipServletRequest): void</text><ellipse cx="947" cy="596.9666" fill="#84BE84" rx="3" ry="3" style="stroke:#038048;stroke-width:1.0;"/><text fill="#000000" font-family="sans-serif" font-size="14" lengthAdjust="spacing" textLength="262" x="956" y="600.7577">callDeclined(SipServletResponse): void</text><ellipse cx="947" cy="613.4549" fill="#84BE84" rx="3" ry="3" style="stroke:#038048;stroke-width:1.0;"/><text fill="#000000" font-family="sans-serif" font-size="14" lengthAdjust="spacing" textLength="272" x="956" y="617.2459">callAbandoned(SipServletRequest): void</text><ellipse cx="947" cy="629.9432" fill="#84BE84" rx="3" ry="3" style="stroke:#038048;stroke-width:1.0;"/><text fill="#000000" font-family="sans-serif" font-size="14" lengthAdjust="spacing" text-decoration="underline" textLength="405" x="956" y="633.7342">getSettingsManager(): SettingsManager&lt;TransferSettings&gt;</text><ellipse cx="947" cy="646.4315" fill="#84BE84" rx="3" ry="3" style="stroke:#038048;stroke-width:1.0;"/><text fill="#000000" font-family="sans-serif" font-size="14" lengthAdjust="spacing" text-decoration="underline" textLength="432" x="956" y="650.2225">setSettingsManager(SettingsManager&lt;TransferSettings&gt;): void</text><ellipse cx="947" cy="662.9198" fill="#84BE84" rx="3" ry="3" style="stroke:#038048;stroke-width:1.0;"/><text fill="#000000" font-family="sans-serif" font-size="14" lengthAdjust="spacing" textLength="340" x="956" y="666.7108">sessionCreated(SipApplicationSessionEvent): void</text><ellipse cx="947" cy="679.408" fill="#84BE84" rx="3" ry="3" style="stroke:#038048;stroke-width:1.0;"/><text fill="#000000" font-family="sans-serif" font-size="14" lengthAdjust="spacing" textLength="355" x="956" y="683.1991">sessionDestroyed(SipApplicationSessionEvent): void</text><ellipse cx="947" cy="695.8963" fill="#84BE84" rx="3" ry="3" style="stroke:#038048;stroke-width:1.0;"/><text fill="#000000" font-family="sans-serif" font-size="14" lengthAdjust="spacing" textLength="339" x="956" y="699.6873">sessionExpired(SipApplicationSessionEvent): void</text><ellipse cx="947" cy="712.3846" fill="#84BE84" rx="3" ry="3" style="stroke:#038048;stroke-width:1.0;"/><text fill="#000000" font-family="sans-serif" font-size="14" lengthAdjust="spacing" textLength="411" x="956" y="716.1756">sessionReadyToInvalidate(SipApplicationSessionEvent): void</text><ellipse cx="947" cy="728.8729" fill="#84BE84" rx="3" ry="3" style="stroke:#038048;stroke-width:1.0;"/><text fill="#000000" font-family="sans-serif" font-size="14" lengthAdjust="spacing" textLength="262" x="956" y="732.6639">sessionCreated(SipSessionEvent): void</text><ellipse cx="947" cy="745.3612" fill="#84BE84" rx="3" ry="3" style="stroke:#038048;stroke-width:1.0;"/><text fill="#000000" font-family="sans-serif" font-size="14" lengthAdjust="spacing" textLength="277" x="956" y="749.1522">sessionDestroyed(SipSessionEvent): void</text><ellipse cx="947" cy="761.8495" fill="#84BE84" rx="3" ry="3" style="stroke:#038048;stroke-width:1.0;"/><text fill="#000000" font-family="sans-serif" font-size="14" lengthAdjust="spacing" textLength="333" x="956" y="765.6405">sessionReadyToInvalidate(SipSessionEvent): void</text></g></a><!--class TransferSettings--><a href="TransferSettings.html" target="_top" title="TransferSettings.html" xlink:actuate="onRequest" xlink:href="TransferSettings.html" xlink:show="new" xlink:title="TransferSettings.html" xlink:type="simple"><g id="elem_TransferSettings"><rect codeLine="35" fill="#F1F1F1" height="212.8828" id="TransferSettings" rx="2.5" ry="2.5" style="stroke:#181818;stroke-width:0.5;" width="367" x="1428.5" y="419.56"/><ellipse cx="1551.25" cy="435.56" fill="#ADD1B2" rx="11" ry="11" style="stroke:#181818;stroke-width:1.0;"/><path d="M1553.7231,441.7031 Q1553.1421,442.0019 1552.5029,442.1513 Q1551.8638,442.3007 1551.1582,442.3007 Q1548.6514,442.3007 1547.3315,440.6489 Q1546.0117,438.997 1546.0117,435.8759 Q1546.0117,432.7465 1547.3315,431.0947 Q1548.6514,429.4428 1551.1582,429.4428 Q1551.8638,429.4428 1552.5112,429.5922 Q1553.1587,429.7416 1553.7231,430.0405 L1553.7231,432.7631 Q1553.0923,432.1821 1552.4988,431.9123 Q1551.9053,431.6425 1551.2744,431.6425 Q1549.9297,431.6425 1549.2449,432.7092 Q1548.5601,433.7758 1548.5601,435.8759 Q1548.5601,437.9677 1549.2449,439.0344 Q1549.9297,440.101 1551.2744,440.101 Q1551.9053,440.101 1552.4988,439.8312 Q1553.0923,439.5615 1553.7231,438.9804 Z " fill="#000000"/><text fill="#000000" font-family="sans-serif" font-size="14" lengthAdjust="spacing" textLength="113" x="1571.75" y="440.851">TransferSettings</text><line style="stroke:#181818;stroke-width:0.5;" x1="1429.5" x2="1794.5" y1="451.56" y2="451.56"/><rect fill="none" height="6" style="stroke:#C82930;stroke-width:1.0;" width="6" x="1436.5" y="462.3041"/><text fill="#000000" font-family="sans-serif" font-size="14" lengthAdjust="spacing" text-decoration="underline" textLength="152" x="1448.5" y="469.0952">serialVersionUID: long</text><polygon fill="none" points="1439.5,476.7924,1443.5,480.7924,1439.5,484.7924,1435.5,480.7924" style="stroke:#B38D22;stroke-width:1.0;"/><text fill="#000000" font-family="sans-serif" font-size="14" lengthAdjust="spacing" textLength="85" x="1448.5" y="485.5834">allow: String</text><polygon fill="none" points="1439.5,493.2807,1443.5,497.2807,1439.5,501.2807,1435.5,497.2807" style="stroke:#B38D22;stroke-width:1.0;"/><text fill="#000000" font-family="sans-serif" font-size="14" lengthAdjust="spacing" textLength="283" x="1448.5" y="502.0717">preserveInviteHeaders: ArrayList&lt;String&gt;</text><polygon fill="none" points="1439.5,509.769,1443.5,513.769,1439.5,517.769,1435.5,513.769" style="stroke:#B38D22;stroke-width:1.0;"/><text fill="#000000" font-family="sans-serif" font-size="14" lengthAdjust="spacing" textLength="282" x="1448.5" y="518.56">preserveReferHeaders: ArrayList&lt;String&gt;</text><line style="stroke:#181818;stroke-width:0.5;" x1="1429.5" x2="1794.5" y1="525.5131" y2="525.5131"/><ellipse cx="1439.5" cy="539.2573" fill="#84BE84" rx="3" ry="3" style="stroke:#038048;stroke-width:1.0;"/><text fill="#000000" font-family="sans-serif" font-size="14" lengthAdjust="spacing" textLength="313" x="1448.5" y="543.0483">getPreserveReferHeaders(): ArrayList&lt;String&gt;</text><ellipse cx="1439.5" cy="555.7455" fill="#84BE84" rx="3" ry="3" style="stroke:#038048;stroke-width:1.0;"/><text fill="#000000" font-family="sans-serif" font-size="14" lengthAdjust="spacing" textLength="340" x="1448.5" y="559.5366">setPreserveReferHeaders(ArrayList&lt;String&gt;): void</text><ellipse cx="1439.5" cy="572.2338" fill="#84BE84" rx="3" ry="3" style="stroke:#038048;stroke-width:1.0;"/><text fill="#000000" font-family="sans-serif" font-size="14" lengthAdjust="spacing" textLength="314" x="1448.5" y="576.0248">getPreserveInviteHeaders(): ArrayList&lt;String&gt;</text><ellipse cx="1439.5" cy="588.7221" fill="#84BE84" rx="3" ry="3" style="stroke:#038048;stroke-width:1.0;"/><text fill="#000000" font-family="sans-serif" font-size="14" lengthAdjust="spacing" textLength="341" x="1448.5" y="592.5131">setPreserveInviteHeaders(ArrayList&lt;String&gt;): void</text><ellipse cx="1439.5" cy="605.2104" fill="#84BE84" rx="3" ry="3" style="stroke:#038048;stroke-width:1.0;"/><text fill="#000000" font-family="sans-serif" font-size="14" lengthAdjust="spacing" textLength="119" x="1448.5" y="609.0014">getAllow(): String</text><ellipse cx="1439.5" cy="621.6987" fill="#84BE84" rx="3" ry="3" style="stroke:#038048;stroke-width:1.0;"/><text fill="#000000" font-family="sans-serif" font-size="14" lengthAdjust="spacing" textLength="230" x="1448.5" y="625.4897">setAllow(String): TransferSettings</text></g></a><!--class TransferSettings.TransferStyle--><a href="TransferSettings.TransferStyle.html" target="_top" title="TransferSettings.TransferStyle.html" xlink:actuate="onRequest" xlink:href="TransferSettings.TransferStyle.html" xlink:show="new" xlink:title="TransferSettings.TransferStyle.html" xlink:type="simple"><g id="elem_TransferSettings.TransferStyle"><rect codeLine="48" fill="#F1F1F1" height="113.9531" id="TransferSettings.TransferStyle" rx="2.5" ry="2.5" style="stroke:#181818;stroke-width:0.5;" width="239" x="1283.5" y="832.6"/><ellipse cx="1298.5" cy="848.6" fill="#EB937F" rx="11" ry="11" style="stroke:#181818;stroke-width:1.0;"/><path d="M1302.1143,855.1 L1294.3945,855.1 L1294.3945,842.7069 L1302.1143,842.7069 L1302.1143,844.8651 L1296.8433,844.8651 L1296.8433,847.538 L1301.6162,847.538 L1301.6162,849.6962 L1296.8433,849.6962 L1296.8433,852.9418 L1302.1143,852.9418 Z " fill="#000000"/><text fill="#000000" font-family="sans-serif" font-size="14" lengthAdjust="spacing" textLength="207" x="1312.5" y="853.891">TransferSettings.TransferStyle</text><line style="stroke:#181818;stroke-width:0.5;" x1="1284.5" x2="1521.5" y1="864.6" y2="864.6"/><ellipse cx="1294.5" cy="878.3441" fill="none" rx="3" ry="3" style="stroke:#038048;stroke-width:1.0;"/><text fill="#000000" font-family="sans-serif" font-size="14" lengthAdjust="spacing" text-decoration="underline" textLength="35" x="1303.5" y="882.1352">none</text><ellipse cx="1294.5" cy="894.8324" fill="none" rx="3" ry="3" style="stroke:#038048;stroke-width:1.0;"/><text fill="#000000" font-family="sans-serif" font-size="14" lengthAdjust="spacing" text-decoration="underline" textLength="35" x="1303.5" y="898.6234">blind</text><ellipse cx="1294.5" cy="911.3207" fill="none" rx="3" ry="3" style="stroke:#038048;stroke-width:1.0;"/><text fill="#000000" font-family="sans-serif" font-size="14" lengthAdjust="spacing" text-decoration="underline" textLength="61" x="1303.5" y="915.1117">attended</text><ellipse cx="1294.5" cy="927.809" fill="none" rx="3" ry="3" style="stroke:#038048;stroke-width:1.0;"/><text fill="#000000" font-family="sans-serif" font-size="14" lengthAdjust="spacing" text-decoration="underline" textLength="76" x="1303.5" y="931.6">conference</text><line style="stroke:#181818;stroke-width:0.5;" x1="1284.5" x2="1521.5" y1="938.5531" y2="938.5531"/></g></a><!--class TransferSettingsSample--><a href="TransferSettingsSample.html" target="_top" title="TransferSettingsSample.html" xlink:actuate="onRequest" xlink:href="TransferSettingsSample.html" xlink:show="new" xlink:title="TransferSettingsSample.html" xlink:type="simple"><g id="elem_TransferSettingsSample"><rect codeLine="55" fill="#F1F1F1" height="64.4883" id="TransferSettingsSample" rx="2.5" ry="2.5" style="stroke:#181818;stroke-width:0.5;" width="195" x="1557.5" y="857.33"/><ellipse cx="1572.5" cy="873.33" fill="#ADD1B2" rx="11" ry="11" style="stroke:#181818;stroke-width:1.0;"/><path d="M1574.9731,879.4731 Q1574.3921,879.7719 1573.7529,879.9213 Q1573.1138,880.0707 1572.4082,880.0707 Q1569.9014,880.0707 1568.5815,878.4189 Q1567.2617,876.767 1567.2617,873.6459 Q1567.2617,870.5165 1568.5815,868.8647 Q1569.9014,867.2128 1572.4082,867.2128 Q1573.1138,867.2128 1573.7612,867.3622 Q1574.4087,867.5116 1574.9731,867.8105 L1574.9731,870.5331 Q1574.3423,869.9521 1573.7488,869.6823 Q1573.1553,869.4125 1572.5244,869.4125 Q1571.1797,869.4125 1570.4949,870.4792 Q1569.8101,871.5458 1569.8101,873.6459 Q1569.8101,875.7377 1570.4949,876.8044 Q1571.1797,877.871 1572.5244,877.871 Q1573.1553,877.871 1573.7488,877.6012 Q1574.3423,877.3315 1574.9731,876.7504 Z " fill="#000000"/><text fill="#000000" font-family="sans-serif" font-size="14" lengthAdjust="spacing" textLength="163" x="1586.5" y="878.621">TransferSettingsSample</text><line style="stroke:#181818;stroke-width:0.5;" x1="1558.5" x2="1751.5" y1="889.33" y2="889.33"/><rect fill="none" height="6" style="stroke:#C82930;stroke-width:1.0;" width="6" x="1565.5" y="900.0741"/><text fill="#000000" font-family="sans-serif" font-size="14" lengthAdjust="spacing" text-decoration="underline" textLength="152" x="1577.5" y="906.8652">serialVersionUID: long</text><line style="stroke:#181818;stroke-width:0.5;" x1="1558.5" x2="1751.5" y1="913.8183" y2="913.8183"/></g></a><!--class B2buaServlet--><g id="elem_B2buaServlet"><rect codeLine="62" fill="#F1F1F1" height="163.418" id="B2buaServlet" rx="2.5" ry="2.5" style="stroke:#181818;stroke-width:0.5;" width="298" x="22" y="41"/><ellipse cx="122.25" cy="57" fill="#A9DCDF" rx="11" ry="11" style="stroke:#181818;stroke-width:1.0;"/><path d="M122.1133,52.3481 L120.9595,57.4199 L123.2754,57.4199 Z M120.6191,50.1069 L123.6157,50.1069 L126.9609,62.5 L124.5122,62.5 L123.7485,59.437 L120.4697,59.437 L119.7227,62.5 L117.2739,62.5 Z " fill="#000000"/><text fill="#000000" font-family="sans-serif" font-size="14" font-style="italic" lengthAdjust="spacing" textLength="89" x="142.75" y="62.291">B2buaServlet</text><line style="stroke:#181818;stroke-width:0.5;" x1="23" x2="319" y1="73" y2="73"/><rect fill="none" height="6" style="stroke:#C82930;stroke-width:1.0;" width="6" x="30" y="83.7441"/><text fill="#000000" font-family="sans-serif" font-size="14" lengthAdjust="spacing" text-decoration="underline" textLength="152" x="42" y="90.5352">serialVersionUID: long</text><line style="stroke:#181818;stroke-width:0.5;" x1="23" x2="319" y1="97.4883" y2="97.4883"/><ellipse cx="33" cy="111.2324" fill="#84BE84" rx="3" ry="3" style="stroke:#038048;stroke-width:1.0;"/><text fill="#000000" font-family="sans-serif" font-size="14" font-style="italic" lengthAdjust="spacing" textLength="241" x="42" y="115.0234">callStarted(SipServletRequest): void</text><ellipse cx="33" cy="127.7207" fill="#84BE84" rx="3" ry="3" style="stroke:#038048;stroke-width:1.0;"/><text fill="#000000" font-family="sans-serif" font-size="14" font-style="italic" lengthAdjust="spacing" textLength="271" x="42" y="131.5117">callAnswered(SipServletResponse): void</text><ellipse cx="33" cy="144.209" fill="#84BE84" rx="3" ry="3" style="stroke:#038048;stroke-width:1.0;"/><text fill="#000000" font-family="sans-serif" font-size="14" font-style="italic" lengthAdjust="spacing" textLength="266" x="42" y="148">callConnected(SipServletRequest): void</text><ellipse cx="33" cy="160.6973" fill="#84BE84" rx="3" ry="3" style="stroke:#038048;stroke-width:1.0;"/><text fill="#000000" font-family="sans-serif" font-size="14" font-style="italic" lengthAdjust="spacing" textLength="267" x="42" y="164.4883">callCompleted(SipServletRequest): void</text><ellipse cx="33" cy="177.1855" fill="#84BE84" rx="3" ry="3" style="stroke:#038048;stroke-width:1.0;"/><text fill="#000000" font-family="sans-serif" font-size="14" font-style="italic" lengthAdjust="spacing" textLength="262" x="42" y="180.9766">callDeclined(SipServletResponse): void</text><ellipse cx="33" cy="193.6738" fill="#84BE84" rx="3" ry="3" style="stroke:#038048;stroke-width:1.0;"/><text fill="#000000" font-family="sans-serif" font-size="14" font-style="italic" lengthAdjust="spacing" textLength="272" x="42" y="197.4648">callAbandoned(SipServletRequest): void</text></g><!--class TransferListener--><a href="../../framework/transfer/TransferListener.html" target="_top" title="../../framework/transfer/TransferListener.html" xlink:actuate="onRequest" xlink:href="../../framework/transfer/TransferListener.html" xlink:show="new" xlink:title="../../framework/transfer/TransferListener.html" xlink:type="simple"><g id="elem_TransferListener"><rect codeLine="74" fill="#F1F1F1" height="113.9531" id="TransferListener" rx="2.5" ry="2.5" style="stroke:#181818;stroke-width:0.5;" width="335" x="376.5" y="65.73"/><ellipse cx="483.75" cy="81.73" fill="#B4A7E5" rx="11" ry="11" style="stroke:#181818;stroke-width:1.0;"/><path d="M480.1777,77.9951 L480.1777,75.8369 L487.5571,75.8369 L487.5571,77.9951 L485.0918,77.9951 L485.0918,86.0718 L487.5571,86.0718 L487.5571,88.23 L480.1777,88.23 L480.1777,86.0718 L482.6431,86.0718 L482.6431,77.9951 Z " fill="#000000"/><text fill="#000000" font-family="sans-serif" font-size="14" font-style="italic" lengthAdjust="spacing" textLength="112" x="504.25" y="87.021">TransferListener</text><line style="stroke:#181818;stroke-width:0.5;" x1="377.5" x2="710.5" y1="97.73" y2="97.73"/><line style="stroke:#181818;stroke-width:0.5;" x1="377.5" x2="710.5" y1="105.73" y2="105.73"/><ellipse cx="387.5" cy="119.4741" fill="#84BE84" rx="3" ry="3" style="stroke:#038048;stroke-width:1.0;"/><text fill="#000000" font-family="sans-serif" font-size="14" font-style="italic" lengthAdjust="spacing" textLength="279" x="396.5" y="123.2652">transferInitiated(SipServletRequest): void</text><ellipse cx="387.5" cy="135.9624" fill="#84BE84" rx="3" ry="3" style="stroke:#038048;stroke-width:1.0;"/><text fill="#000000" font-family="sans-serif" font-size="14" font-style="italic" lengthAdjust="spacing" textLength="309" x="396.5" y="139.7534">transferCompleted(SipServletResponse): void</text><ellipse cx="387.5" cy="152.4507" fill="#84BE84" rx="3" ry="3" style="stroke:#038048;stroke-width:1.0;"/><text fill="#000000" font-family="sans-serif" font-size="14" font-style="italic" lengthAdjust="spacing" textLength="293" x="396.5" y="156.2417">transferDeclined(SipServletResponse): void</text><ellipse cx="387.5" cy="168.939" fill="#84BE84" rx="3" ry="3" style="stroke:#038048;stroke-width:1.0;"/><text fill="#000000" font-family="sans-serif" font-size="14" font-style="italic" lengthAdjust="spacing" textLength="303" x="396.5" y="172.73">transferAbandoned(SipServletRequest): void</text></g></a><!--class SipApplicationSessionListener--><g id="elem_SipApplicationSessionListener"><rect codeLine="83" fill="#F1F1F1" height="113.9531" id="SipApplicationSessionListener" rx="2.5" ry="2.5" style="stroke:#181818;stroke-width:0.5;" width="437" x="767.5" y="65.73"/><ellipse cx="879.25" cy="81.73" fill="#B4A7E5" rx="11" ry="11" style="stroke:#181818;stroke-width:1.0;"/><path d="M875.6777,77.9951 L875.6777,75.8369 L883.0571,75.8369 L883.0571,77.9951 L880.5918,77.9951 L880.5918,86.0718 L883.0571,86.0718 L883.0571,88.23 L875.6777,88.23 L875.6777,86.0718 L878.1431,86.0718 L878.1431,77.9951 Z " fill="#000000"/><text fill="#000000" font-family="sans-serif" font-size="14" font-style="italic" lengthAdjust="spacing" textLength="205" x="899.75" y="87.021">SipApplicationSessionListener</text><line style="stroke:#181818;stroke-width:0.5;" x1="768.5" x2="1203.5" y1="97.73" y2="97.73"/><line style="stroke:#181818;stroke-width:0.5;" x1="768.5" x2="1203.5" y1="105.73" y2="105.73"/><ellipse cx="778.5" cy="119.4741" fill="#84BE84" rx="3" ry="3" style="stroke:#038048;stroke-width:1.0;"/><text fill="#000000" font-family="sans-serif" font-size="14" font-style="italic" lengthAdjust="spacing" textLength="340" x="787.5" y="123.2652">sessionCreated(SipApplicationSessionEvent): void</text><ellipse cx="778.5" cy="135.9624" fill="#84BE84" rx="3" ry="3" style="stroke:#038048;stroke-width:1.0;"/><text fill="#000000" font-family="sans-serif" font-size="14" font-style="italic" lengthAdjust="spacing" textLength="355" x="787.5" y="139.7534">sessionDestroyed(SipApplicationSessionEvent): void</text><ellipse cx="778.5" cy="152.4507" fill="#84BE84" rx="3" ry="3" style="stroke:#038048;stroke-width:1.0;"/><text fill="#000000" font-family="sans-serif" font-size="14" font-style="italic" lengthAdjust="spacing" textLength="339" x="787.5" y="156.2417">sessionExpired(SipApplicationSessionEvent): void</text><ellipse cx="778.5" cy="168.939" fill="#84BE84" rx="3" ry="3" style="stroke:#038048;stroke-width:1.0;"/><text fill="#000000" font-family="sans-serif" font-size="14" font-style="italic" lengthAdjust="spacing" textLength="411" x="787.5" y="172.73">sessionReadyToInvalidate(SipApplicationSessionEvent): void</text></g><!--class SipSessionListener--><g id="elem_SipSessionListener"><rect codeLine="89" fill="#F1F1F1" height="97.4648" id="SipSessionListener" rx="2.5" ry="2.5" style="stroke:#181818;stroke-width:0.5;" width="359" x="1239.5" y="73.97"/><ellipse cx="1351.25" cy="89.97" fill="#B4A7E5" rx="11" ry="11" style="stroke:#181818;stroke-width:1.0;"/><path d="M1347.6777,86.2351 L1347.6777,84.0769 L1355.0571,84.0769 L1355.0571,86.2351 L1352.5918,86.2351 L1352.5918,94.3118 L1355.0571,94.3118 L1355.0571,96.47 L1347.6777,96.47 L1347.6777,94.3118 L1350.1431,94.3118 L1350.1431,86.2351 Z " fill="#000000"/><text fill="#000000" font-family="sans-serif" font-size="14" font-style="italic" lengthAdjust="spacing" textLength="127" x="1371.75" y="95.261">SipSessionListener</text><line style="stroke:#181818;stroke-width:0.5;" x1="1240.5" x2="1597.5" y1="105.97" y2="105.97"/><line style="stroke:#181818;stroke-width:0.5;" x1="1240.5" x2="1597.5" y1="113.97" y2="113.97"/><ellipse cx="1250.5" cy="127.7141" fill="#84BE84" rx="3" ry="3" style="stroke:#038048;stroke-width:1.0;"/><text fill="#000000" font-family="sans-serif" font-size="14" font-style="italic" lengthAdjust="spacing" textLength="262" x="1259.5" y="131.5052">sessionCreated(SipSessionEvent): void</text><ellipse cx="1250.5" cy="144.2024" fill="#84BE84" rx="3" ry="3" style="stroke:#038048;stroke-width:1.0;"/><text fill="#000000" font-family="sans-serif" font-size="14" font-style="italic" lengthAdjust="spacing" textLength="277" x="1259.5" y="147.9934">sessionDestroyed(SipSessionEvent): void</text><ellipse cx="1250.5" cy="160.6907" fill="#84BE84" rx="3" ry="3" style="stroke:#038048;stroke-width:1.0;"/><text fill="#000000" font-family="sans-serif" font-size="14" font-style="italic" lengthAdjust="spacing" textLength="333" x="1259.5" y="164.4817">sessionReadyToInvalidate(SipSessionEvent): void</text></g><!--class RouterConfig--><a href="https://vorpalnet.github.io/blade/vorpal-blade-library-framework/org/vorpal/blade/framework/config/RouterConfig.html?is-external=true" target="_top" title="https://vorpalnet.github.io/blade/vorpal-blade-library-framework/org/vorpal/blade/framework/config/RouterConfig.html?is-external=true" xlink:actuate="onRequest" xlink:href="https://vorpalnet.github.io/blade/vorpal-blade-library-framework/org/vorpal/blade/framework/config/RouterConfig.html?is-external=true" xlink:show="new" xlink:title="https://vorpalnet.github.io/blade/vorpal-blade-library-framework/org/vorpal/blade/framework/config/RouterConfig.html?is-external=true" xlink:type="simple"><g id="elem_RouterConfig"><rect codeLine="97" fill="#F1F1F1" height="130.4414" id="RouterConfig" rx="2.5" ry="2.5" style="stroke:#181818;stroke-width:0.5;" width="275" x="1653.5" y="57.48"/><ellipse cx="1740.75" cy="73.48" fill="#ADD1B2" rx="11" ry="11" style="stroke:#181818;stroke-width:1.0;"/><path d="M1743.2231,79.6231 Q1742.6421,79.9219 1742.0029,80.0713 Q1741.3638,80.2207 1740.6582,80.2207 Q1738.1514,80.2207 1736.8315,78.5689 Q1735.5117,76.917 1735.5117,73.7959 Q1735.5117,70.6665 1736.8315,69.0147 Q1738.1514,67.3628 1740.6582,67.3628 Q1741.3638,67.3628 1742.0112,67.5122 Q1742.6587,67.6616 1743.2231,67.9605 L1743.2231,70.6831 Q1742.5923,70.1021 1741.9988,69.8323 Q1741.4053,69.5625 1740.7744,69.5625 Q1739.4297,69.5625 1738.7449,70.6292 Q1738.0601,71.6958 1738.0601,73.7959 Q1738.0601,75.8877 1738.7449,76.9544 Q1739.4297,78.021 1740.7744,78.021 Q1741.4053,78.021 1741.9988,77.7512 Q1742.5923,77.4815 1743.2231,76.9004 Z " fill="#000000"/><text fill="#000000" font-family="sans-serif" font-size="14" lengthAdjust="spacing" textLength="92" x="1761.25" y="78.771">RouterConfig</text><line style="stroke:#181818;stroke-width:0.5;" x1="1654.5" x2="1927.5" y1="89.48" y2="89.48"/><rect fill="none" height="6" style="stroke:#C82930;stroke-width:1.0;" width="6" x="1661.5" y="100.2241"/><text fill="#000000" font-family="sans-serif" font-size="14" lengthAdjust="spacing" text-decoration="underline" textLength="152" x="1673.5" y="107.0152">serialVersionUID: long</text><ellipse cx="1664.5" cy="119.7124" fill="none" rx="3" ry="3" style="stroke:#038048;stroke-width:1.0;"/><text fill="#000000" font-family="sans-serif" font-size="14" lengthAdjust="spacing" textLength="214" x="1673.5" y="123.5034">selectors: LinkedList&lt;Selector&gt;</text><ellipse cx="1664.5" cy="136.2007" fill="none" rx="3" ry="3" style="stroke:#038048;stroke-width:1.0;"/><text fill="#000000" font-family="sans-serif" font-size="14" lengthAdjust="spacing" textLength="249" x="1673.5" y="139.9917">maps: LinkedList&lt;TranslationsMap&gt;</text><ellipse cx="1664.5" cy="152.689" fill="none" rx="3" ry="3" style="stroke:#038048;stroke-width:1.0;"/><text fill="#000000" font-family="sans-serif" font-size="14" lengthAdjust="spacing" textLength="242" x="1673.5" y="156.48">plan: LinkedList&lt;TranslationsMap&gt;</text><ellipse cx="1664.5" cy="169.1773" fill="none" rx="3" ry="3" style="stroke:#038048;stroke-width:1.0;"/><text fill="#000000" font-family="sans-serif" font-size="14" lengthAdjust="spacing" textLength="174" x="1673.5" y="172.9683">defaultRoute: Translation</text><line style="stroke:#181818;stroke-width:0.5;" x1="1654.5" x2="1927.5" y1="179.9214" y2="179.9214"/></g></a><!--class Serializable--><a href="https://docs.oracle.com/en/java/javase/11/docs/api/java.base/java/io/Serializable.html?is-external=true" target="_top" title="https://docs.oracle.com/en/java/javase/11/docs/api/java.base/java/io/Serializable.html?is-external=true" xlink:actuate="onRequest" xlink:href="https://docs.oracle.com/en/java/javase/11/docs/api/java.base/java/io/Serializable.html?is-external=true" xlink:show="new" xlink:title="https://docs.oracle.com/en/java/javase/11/docs/api/java.base/java/io/Serializable.html?is-external=true" xlink:type="simple"><g id="elem_Serializable"><rect codeLine="107" fill="#F1F1F1" height="48" id="Serializable" rx="2.5" ry="2.5" style="stroke:#181818;stroke-width:0.5;" width="111" x="1984.5" y="98.7"/><ellipse cx="1999.5" cy="114.7" fill="#B4A7E5" rx="11" ry="11" style="stroke:#181818;stroke-width:1.0;"/><path d="M1995.9277,110.9651 L1995.9277,108.8069 L2003.3071,108.8069 L2003.3071,110.9651 L2000.8418,110.9651 L2000.8418,119.0418 L2003.3071,119.0418 L2003.3071,121.2 L1995.9277,121.2 L1995.9277,119.0418 L1998.3931,119.0418 L1998.3931,110.9651 Z " fill="#000000"/><text fill="#000000" font-family="sans-serif" font-size="14" font-style="italic" lengthAdjust="spacing" textLength="79" x="2013.5" y="119.991">Serializable</text><line style="stroke:#181818;stroke-width:0.5;" x1="1985.5" x2="2094.5" y1="130.7" y2="130.7"/><line style="stroke:#181818;stroke-width:0.5;" x1="1985.5" x2="2094.5" y1="138.7" y2="138.7"/></g></a><!--reverse link B2buaServlet to TransferServlet--><g id="link_B2buaServlet_TransferServlet"><path codeLine="110" d="M327.9382,213.1383 C343.9582,221.4483 344.23,221.19 360,228.41 C549.58,315.24 772.56,395.8 935.71,450.98 " fill="none" id="B2buaServlet-backto-TransferServlet" style="stroke:#181818;stroke-width:1.0;"/><polygon fill="none" points="311.96,204.85,325.1754,218.4644,330.701,207.8123,311.96,204.85" style="stroke:#181818;stroke-width:1.0;"/></g><!--reverse link TransferListener to TransferServlet--><g id="link_TransferListener_TransferServlet"><path codeLine="111" d="M646.4479,189.9099 C725.2879,240.8599 829.71,308.34 935.69,376.82 " fill="none" id="TransferListener-backto-TransferServlet" style="stroke:#181818;stroke-width:1.0;stroke-dasharray:7.0,7.0;"/><polygon fill="none" points="631.33,180.14,643.1912,194.9491,649.7045,184.8706,631.33,180.14" style="stroke:#181818;stroke-width:1.0;"/></g><!--reverse link SipApplicationSessionListener to TransferServlet--><g id="link_SipApplicationSessionListener_TransferServlet"><path codeLine="112" d="M1018.4134,196.3684 C1030.5834,223.6484 1038.8,242.08 1055.32,279.12 " fill="none" id="SipApplicationSessionListener-backto-TransferServlet" style="stroke:#181818;stroke-width:1.0;stroke-dasharray:7.0,7.0;"/><polygon fill="none" points="1011.08,179.93,1012.9339,198.8129,1023.8929,193.9239,1011.08,179.93" style="stroke:#181818;stroke-width:1.0;"/></g><!--reverse link SipSessionListener to TransferServlet--><g id="link_SipSessionListener_TransferServlet"><path codeLine="113" d="M1378.988,186.9224 C1361.088,215.2224 1346.53,238.2 1320.69,279.03 " fill="none" id="SipSessionListener-backto-TransferServlet" style="stroke:#181818;stroke-width:1.0;stroke-dasharray:7.0,7.0;"/><polygon fill="none" points="1388.61,171.71,1373.9172,183.7151,1384.0588,190.1297,1388.61,171.71" style="stroke:#181818;stroke-width:1.0;"/></g><!--reverse link RouterConfig to TransferSettings--><g id="link_RouterConfig_TransferSettings"><path codeLine="114" d="M1754.9077,204.6189 C1727.1377,266.8789 1691.93,345.81 1659.19,419.2 " fill="none" id="RouterConfig-backto-TransferSettings" style="stroke:#181818;stroke-width:1.0;"/><polygon fill="none" points="1762.24,188.18,1749.4281,202.1748,1760.3873,207.063,1762.24,188.18" style="stroke:#181818;stroke-width:1.0;"/></g><!--reverse link Serializable to TransferSettings--><g id="link_Serializable_TransferSettings"><path codeLine="115" d="M2007.7904,160.7231 C1988.7804,182.3631 1971.2,201.56 1944,228.41 C1877.45,294.11 1799.64,363.97 1736.08,419.37 " fill="none" id="Serializable-backto-TransferSettings" style="stroke:#181818;stroke-width:1.0;stroke-dasharray:7.0,7.0;"/><polygon fill="none" points="2019.67,147.2,2003.2827,156.7633,2012.2981,164.683,2019.67,147.2" style="stroke:#181818;stroke-width:1.0;"/></g><!--reverse link TransferSettings to TransferSettings.TransferStyle--><g id="link_TransferSettings_TransferSettings.TransferStyle"><path codeLine="116" d="M1542.9815,646.4115 C1505.2615,711.6515 1466.37,778.95 1435.6,832.18 " fill="none" id="TransferSettings-backto-TransferSettings.TransferStyle" style="stroke:#181818;stroke-width:1.0;"/><ellipse cx="1546.9857" cy="639.4857" fill="#FFFFFF" rx="8" ry="8" style="stroke:#181818;stroke-width:1.0;"/><line style="stroke:#181818;stroke-width:1.0;" x1="1542.9815" x2="1550.99" y1="646.4115" y2="632.56"/><line style="stroke:#181818;stroke-width:1.0;" x1="1540.06" x2="1553.9115" y1="635.4815" y2="643.49"/></g><!--reverse link TransferSettings to TransferSettingsSample--><g id="link_TransferSettings_TransferSettingsSample"><path codeLine="117" d="M1626.6762,650.434 C1635.7762,726.934 1645.35,807.43 1651.25,857.01 " fill="none" id="TransferSettings-backto-TransferSettingsSample" style="stroke:#181818;stroke-width:1.0;"/><polygon fill="none" points="1624.55,632.56,1620.7182,651.1427,1632.6342,649.7253,1624.55,632.56" style="stroke:#181818;stroke-width:1.0;"/></g><text fill="#888888" font-family="sans-serif" font-size="10" lengthAdjust="spacing" textLength="176" x="964.5" y="978.218">UMLDoclet 2.1.2, PlantUML 1.2024.3</text><!--SRC=[jLXBRziu4BxtLn082YJmca9o5B8jl4c13P02GTpknUY1aiOsDpIf9MaxtjR_VOUIR4io5LboDiW3uSmtBywB9eGG0nP_KgQPLPg4uOSFU4XI5h-m6H2bPtIbTCe4ZGHBW1hGAnw3eLOpQQQWoSySuRvYmOmXtmhA65a5IfzCQYTqRXVYnmz4ajBNJsEPvV6M3547P-8lq8Oh-VtXFYH2oPcVUO3sMovdvYkJQB0EoRXwS7jGdfz_gWWQcBbQFscLWhOSpEMOfuMLTqfQUBLVLY3jLKXMYYSLv8Kf-3Gm2qaFv3qOgzMc4tOOpvKoSCU4c0gr7jkDWCkzY-u_HEsexSYnrHYJ9iX55L8oynd-MQBrJS31BZiU9BUy5fu3ziYxFUvEBL9ahU5CggI1Du7t40ikk-D64PE9aYSR6gFROykqxOGOIRC6VRfr3eCP8I7kfiSVlhSnNIEN-TCjQeUgdO6jrUdbLTVIhVI0khHMKLwV31ZNSqebFKfJmMFKe-Gu9pQMvWvTAUiU-2-lATUzqS_0aiqtzI1NJF04tUWffzBMUZX-bhrlWRVDyoQ_sih0oO_UOU9SOBghDUPerZ6hf5I3Q-c0Jd0BVw97A2aa8wtPvf4RUvk3FlbHpu2MdWXoXVFamRdgQK6Q1kGHp7jR9RqLBxifha9FrZnoeSyQn77mdVYSlfzbzTltfGx8vUA8aLO6gI-FAWmjMJMGs1aRI16ssgRUoAm5cK0JELOI3G0Pm-abCMPk7dWSoWbdbaUXVjkoEaurMy1QwHSQtKHBLjB68cmSBBQ5zNyuycvxF6T9tCdTzfZNTN37qLs7TvpYn_1E0xqExpZRZtm_VSnlEwP2wHcn4y5n0zPJ5iC-ZLsF08bCamcb0NxlyS4E7zHv6tAwv5dF7TKdekkwwfDnnXtrM6Azz_GtMx5NMhnEgE6fzrQy-yJ-YfhZVTPovH7KTy_oYEgtSda4dRDzRVsnFYV0vqRrlIBGxlRf7SFDFpuhXI4V6izgQLqXPiJ9P6vjQi8Wo8L8JESPj_DbHBaACea5PPZzCnGyqanlXeV6WXOKB0N_WPHR49GrPjtcCpT3VBk3bapyRlKIpjiuCQ82HuPoM-4Zbo-GvBjISLhRiXOihV9b3L5aMOUleBJ6dWecEx0dC6LBOJENYmKhvsrlA1XnVnl98i3_PL6scUmkB56neGfp2jUIM2q2a86Jalqo45nVPnm1ItbsH2Dtcd7WpPPbDbr9sSws7IKCAxl8xQ_Xy8IFnCAmze5NcwvZuBxQRtzHsblbKJyFmxURz_-WxLrLjBQ5CApqWHuNLdeo5DcBRfHJjOS39PbzW6JGqulgSwM__jvXp9yNcU8ONEMJgLBkp_UlZ_SgTZLrGw_fpM_a2VkHnLFoSPNtnCkh_m00]--></g></svg>