<?xml version="1.0" encoding="us-ascii" standalone="no"?><svg xmlns="http://www.w3.org/2000/svg" xmlns:xlink="http://www.w3.org/1999/xlink" contentStyleType="text/css" height="737px" preserveAspectRatio="none" style="width:1548px;height:737px;background:#FFFFFF;" version="1.1" viewBox="0 0 1548 737" width="1548px" zoomAndPan="magnify"><defs/><g><!--class org.vorpal.blade.services.transfer.TransferServlet--><a href="TransferServlet.html" target="_top" title="TransferServlet.html" xlink:actuate="onRequest" xlink:href="TransferServlet.html" xlink:show="new" xlink:title="TransferServlet.html" xlink:type="simple"><g id="elem_org.vorpal.blade.services.transfer.TransferServlet"><rect codeLine="5" fill="#F1F1F1" height="499.4492" id="org.vorpal.blade.services.transfer.TransferServlet" rx="2.5" ry="2.5" style="stroke:#181818;stroke-width:0.5;" width="458" x="489" y="212.19"/><ellipse cx="632.25" cy="231.3228" fill="#ADD1B2" rx="11" ry="11" style="stroke:#181818;stroke-width:1.0;"/><path d="M634.7231,237.4659 Q634.1421,237.7647 633.5029,237.9141 Q632.8638,238.0635 632.1582,238.0635 Q629.6514,238.0635 628.3315,236.4117 Q627.0117,234.7598 627.0117,231.6387 Q627.0117,228.5093 628.3315,226.8575 Q629.6514,225.2056 632.1582,225.2056 Q632.8638,225.2056 633.5112,225.355 Q634.1587,225.5045 634.7231,225.8033 L634.7231,228.5259 Q634.0923,227.9449 633.4988,227.6751 Q632.9053,227.4053 632.2744,227.4053 Q630.9297,227.4053 630.2449,228.472 Q629.5601,229.5386 629.5601,231.6387 Q629.5601,233.7305 630.2449,234.7972 Q630.9297,235.8638 632.2744,235.8638 Q632.9053,235.8638 633.4988,235.5941 Q634.0923,235.3243 634.7231,234.7432 Z " fill="#000000"/><text fill="#000000" font-family="sans-serif" font-size="14" lengthAdjust="spacing" textLength="104" x="682.25" y="230.7252">TransferServlet</text><text fill="#000000" font-family="sans-serif" font-size="10" lengthAdjust="spacing" textLength="163" x="652.75" y="243.3463">org.vorpal.blade.services.transfer</text><line style="stroke:#181818;stroke-width:0.5;" x1="490" x2="946" y1="250.4556" y2="250.4556"/><rect fill="none" height="6" style="stroke:#C82930;stroke-width:1.0;" width="6" x="497" y="261.1998"/><text fill="#000000" font-family="sans-serif" font-size="14" lengthAdjust="spacing" text-decoration="underline" textLength="152" x="509" y="267.9908">serialVersionUID: long</text><ellipse cx="500" cy="280.688" fill="none" rx="3" ry="3" style="stroke:#038048;stroke-width:1.0;"/><text fill="#000000" font-family="sans-serif" font-size="14" lengthAdjust="spacing" text-decoration="underline" textLength="372" x="509" y="284.4791">settingsManager: SettingsManager&lt;TransferSettings&gt;</text><line style="stroke:#181818;stroke-width:0.5;" x1="490" x2="946" y1="291.4322" y2="291.4322"/><ellipse cx="500" cy="305.1763" fill="#84BE84" rx="3" ry="3" style="stroke:#038048;stroke-width:1.0;"/><text fill="#000000" font-family="sans-serif" font-size="14" lengthAdjust="spacing" textLength="312" x="509" y="308.9673">showProperties(SipServletContextEvent): void</text><polygon fill="#FFFF44" points="500,316.6646,504,320.6646,500,324.6646,496,320.6646" style="stroke:#B38D22;stroke-width:1.0;"/><text fill="#000000" font-family="sans-serif" font-size="14" lengthAdjust="spacing" textLength="305" x="509" y="325.4556">servletCreated(SipServletContextEvent): void</text><polygon fill="#FFFF44" points="500,333.1529,504,337.1529,500,341.1529,496,337.1529" style="stroke:#B38D22;stroke-width:1.0;"/><text fill="#000000" font-family="sans-serif" font-size="14" lengthAdjust="spacing" textLength="320" x="509" y="341.9439">servletDestroyed(SipServletContextEvent): void</text><rect fill="#F24D5C" height="6" style="stroke:#C82930;stroke-width:1.0;" width="6" x="497" y="351.6412"/><text fill="#000000" font-family="sans-serif" font-size="14" lengthAdjust="spacing" textLength="299" x="509" y="358.4322">chooseCallflowStyle(TransferStyle): Callflow</text><rect fill="#F24D5C" height="6" style="stroke:#C82930;stroke-width:1.0;" width="6" x="497" y="368.1295"/><text fill="#000000" font-family="sans-serif" font-size="14" lengthAdjust="spacing" textLength="250" x="509" y="374.9205">chooseCallflowStyle(String): Callflow</text><polygon fill="#FFFF44" points="500,382.6177,504,386.6177,500,390.6177,496,386.6177" style="stroke:#B38D22;stroke-width:1.0;"/><text fill="#000000" font-family="sans-serif" font-size="14" lengthAdjust="spacing" textLength="299" x="509" y="391.4088">chooseCallflow(SipServletRequest): Callflow</text><ellipse cx="500" cy="404.106" fill="#84BE84" rx="3" ry="3" style="stroke:#038048;stroke-width:1.0;"/><text fill="#000000" font-family="sans-serif" font-size="14" lengthAdjust="spacing" textLength="279" x="509" y="407.897">transferInitiated(SipServletRequest): void</text><ellipse cx="500" cy="420.5943" fill="#84BE84" rx="3" ry="3" style="stroke:#038048;stroke-width:1.0;"/><text fill="#000000" font-family="sans-serif" font-size="14" lengthAdjust="spacing" textLength="309" x="509" y="424.3853">transferCompleted(SipServletResponse): void</text><ellipse cx="500" cy="437.0826" fill="#84BE84" rx="3" ry="3" style="stroke:#038048;stroke-width:1.0;"/><text fill="#000000" font-family="sans-serif" font-size="14" lengthAdjust="spacing" textLength="293" x="509" y="440.8736">transferDeclined(SipServletResponse): void</text><ellipse cx="500" cy="453.5709" fill="#84BE84" rx="3" ry="3" style="stroke:#038048;stroke-width:1.0;"/><text fill="#000000" font-family="sans-serif" font-size="14" lengthAdjust="spacing" textLength="303" x="509" y="457.3619">transferAbandoned(SipServletRequest): void</text><ellipse cx="500" cy="470.0591" fill="#84BE84" rx="3" ry="3" style="stroke:#038048;stroke-width:1.0;"/><text fill="#000000" font-family="sans-serif" font-size="14" lengthAdjust="spacing" textLength="241" x="509" y="473.8502">callStarted(SipServletRequest): void</text><ellipse cx="500" cy="486.5474" fill="#84BE84" rx="3" ry="3" style="stroke:#038048;stroke-width:1.0;"/><text fill="#000000" font-family="sans-serif" font-size="14" lengthAdjust="spacing" textLength="271" x="509" y="490.3384">callAnswered(SipServletResponse): void</text><ellipse cx="500" cy="503.0357" fill="#84BE84" rx="3" ry="3" style="stroke:#038048;stroke-width:1.0;"/><text fill="#000000" font-family="sans-serif" font-size="14" lengthAdjust="spacing" textLength="266" x="509" y="506.8267">callConnected(SipServletRequest): void</text><ellipse cx="500" cy="519.524" fill="#84BE84" rx="3" ry="3" style="stroke:#038048;stroke-width:1.0;"/><text fill="#000000" font-family="sans-serif" font-size="14" lengthAdjust="spacing" textLength="267" x="509" y="523.315">callCompleted(SipServletRequest): void</text><ellipse cx="500" cy="536.0123" fill="#84BE84" rx="3" ry="3" style="stroke:#038048;stroke-width:1.0;"/><text fill="#000000" font-family="sans-serif" font-size="14" lengthAdjust="spacing" textLength="262" x="509" y="539.8033">callDeclined(SipServletResponse): void</text><ellipse cx="500" cy="552.5005" fill="#84BE84" rx="3" ry="3" style="stroke:#038048;stroke-width:1.0;"/><text fill="#000000" font-family="sans-serif" font-size="14" lengthAdjust="spacing" textLength="272" x="509" y="556.2916">callAbandoned(SipServletRequest): void</text><ellipse cx="500" cy="568.9888" fill="#84BE84" rx="3" ry="3" style="stroke:#038048;stroke-width:1.0;"/><text fill="#000000" font-family="sans-serif" font-size="14" lengthAdjust="spacing" text-decoration="underline" textLength="405" x="509" y="572.7798">getSettingsManager(): SettingsManager&lt;TransferSettings&gt;</text><ellipse cx="500" cy="585.4771" fill="#84BE84" rx="3" ry="3" style="stroke:#038048;stroke-width:1.0;"/><text fill="#000000" font-family="sans-serif" font-size="14" lengthAdjust="spacing" text-decoration="underline" textLength="432" x="509" y="589.2681">setSettingsManager(SettingsManager&lt;TransferSettings&gt;): void</text><ellipse cx="500" cy="601.9654" fill="#84BE84" rx="3" ry="3" style="stroke:#038048;stroke-width:1.0;"/><text fill="#000000" font-family="sans-serif" font-size="14" lengthAdjust="spacing" textLength="340" x="509" y="605.7564">sessionCreated(SipApplicationSessionEvent): void</text><ellipse cx="500" cy="618.4537" fill="#84BE84" rx="3" ry="3" style="stroke:#038048;stroke-width:1.0;"/><text fill="#000000" font-family="sans-serif" font-size="14" lengthAdjust="spacing" textLength="355" x="509" y="622.2447">sessionDestroyed(SipApplicationSessionEvent): void</text><ellipse cx="500" cy="634.942" fill="#84BE84" rx="3" ry="3" style="stroke:#038048;stroke-width:1.0;"/><text fill="#000000" font-family="sans-serif" font-size="14" lengthAdjust="spacing" textLength="339" x="509" y="638.733">sessionExpired(SipApplicationSessionEvent): void</text><ellipse cx="500" cy="651.4302" fill="#84BE84" rx="3" ry="3" style="stroke:#038048;stroke-width:1.0;"/><text fill="#000000" font-family="sans-serif" font-size="14" lengthAdjust="spacing" textLength="411" x="509" y="655.2213">sessionReadyToInvalidate(SipApplicationSessionEvent): void</text><ellipse cx="500" cy="667.9185" fill="#84BE84" rx="3" ry="3" style="stroke:#038048;stroke-width:1.0;"/><text fill="#000000" font-family="sans-serif" font-size="14" lengthAdjust="spacing" textLength="262" x="509" y="671.7095">sessionCreated(SipSessionEvent): void</text><ellipse cx="500" cy="684.4068" fill="#84BE84" rx="3" ry="3" style="stroke:#038048;stroke-width:1.0;"/><text fill="#000000" font-family="sans-serif" font-size="14" lengthAdjust="spacing" textLength="277" x="509" y="688.1978">sessionDestroyed(SipSessionEvent): void</text><ellipse cx="500" cy="700.8951" fill="#84BE84" rx="3" ry="3" style="stroke:#038048;stroke-width:1.0;"/><text fill="#000000" font-family="sans-serif" font-size="14" lengthAdjust="spacing" textLength="333" x="509" y="704.6861">sessionReadyToInvalidate(SipSessionEvent): void</text></g></a><!--class org.vorpal.blade.framework.b2bua.B2buaServlet--><g id="elem_org.vorpal.blade.framework.b2bua.B2buaServlet"><rect codeLine="35" fill="#F1F1F1" height="145.1953" id="org.vorpal.blade.framework.b2bua.B2buaServlet" rx="2.5" ry="2.5" style="stroke:#181818;stroke-width:0.5;" width="298" x="7" y="7"/><ellipse cx="67.75" cy="26.1328" fill="#A9DCDF" rx="11" ry="11" style="stroke:#181818;stroke-width:1.0;"/><path d="M67.6133,21.481 L66.4595,26.5527 L68.7754,26.5527 Z M66.1191,19.2397 L69.1157,19.2397 L72.4609,31.6328 L70.0122,31.6328 L69.2485,28.5698 L65.9697,28.5698 L65.2227,31.6328 L62.7739,31.6328 Z " fill="#000000"/><text fill="#000000" font-family="sans-serif" font-size="14" font-style="italic" lengthAdjust="spacing" textLength="89" x="127.75" y="25.5352">B2buaServlet</text><text fill="#000000" font-family="sans-serif" font-size="10" font-style="italic" lengthAdjust="spacing" textLength="168" x="88.25" y="38.1563">org.vorpal.blade.framework.b2bua</text><line style="stroke:#181818;stroke-width:0.5;" x1="8" x2="304" y1="45.2656" y2="45.2656"/><ellipse cx="18" cy="59.0098" fill="#84BE84" rx="3" ry="3" style="stroke:#038048;stroke-width:1.0;"/><text fill="#000000" font-family="sans-serif" font-size="14" font-style="italic" lengthAdjust="spacing" textLength="241" x="27" y="62.8008">callStarted(SipServletRequest): void</text><ellipse cx="18" cy="75.498" fill="#84BE84" rx="3" ry="3" style="stroke:#038048;stroke-width:1.0;"/><text fill="#000000" font-family="sans-serif" font-size="14" font-style="italic" lengthAdjust="spacing" textLength="271" x="27" y="79.2891">callAnswered(SipServletResponse): void</text><ellipse cx="18" cy="91.9863" fill="#84BE84" rx="3" ry="3" style="stroke:#038048;stroke-width:1.0;"/><text fill="#000000" font-family="sans-serif" font-size="14" font-style="italic" lengthAdjust="spacing" textLength="266" x="27" y="95.7773">callConnected(SipServletRequest): void</text><ellipse cx="18" cy="108.4746" fill="#84BE84" rx="3" ry="3" style="stroke:#038048;stroke-width:1.0;"/><text fill="#000000" font-family="sans-serif" font-size="14" font-style="italic" lengthAdjust="spacing" textLength="267" x="27" y="112.2656">callCompleted(SipServletRequest): void</text><ellipse cx="18" cy="124.9629" fill="#84BE84" rx="3" ry="3" style="stroke:#038048;stroke-width:1.0;"/><text fill="#000000" font-family="sans-serif" font-size="14" font-style="italic" lengthAdjust="spacing" textLength="262" x="27" y="128.7539">callDeclined(SipServletResponse): void</text><ellipse cx="18" cy="141.4512" fill="#84BE84" rx="3" ry="3" style="stroke:#038048;stroke-width:1.0;"/><text fill="#000000" font-family="sans-serif" font-size="14" font-style="italic" lengthAdjust="spacing" textLength="272" x="27" y="145.2422">callAbandoned(SipServletRequest): void</text></g><!--class org.vorpal.blade.framework.transfer.TransferListener--><a href="../../framework/transfer/TransferListener.html" target="_top" title="../../framework/transfer/TransferListener.html" xlink:actuate="onRequest" xlink:href="../../framework/transfer/TransferListener.html" xlink:show="new" xlink:title="../../framework/transfer/TransferListener.html" xlink:type="simple"><g id="elem_org.vorpal.blade.framework.transfer.TransferListener"><rect codeLine="43" fill="#F1F1F1" height="112.2188" id="org.vorpal.blade.framework.transfer.TransferListener" rx="2.5" ry="2.5" style="stroke:#181818;stroke-width:0.5;" width="335" x="340.5" y="23.48"/><ellipse cx="415.25" cy="42.6128" fill="#B4A7E5" rx="11" ry="11" style="stroke:#181818;stroke-width:1.0;"/><path d="M411.6777,38.8779 L411.6777,36.7197 L419.0571,36.7197 L419.0571,38.8779 L416.5918,38.8779 L416.5918,46.9546 L419.0571,46.9546 L419.0571,49.1128 L411.6777,49.1128 L411.6777,46.9546 L414.1431,46.9546 L414.1431,38.8779 Z " fill="#000000"/><text fill="#000000" font-family="sans-serif" font-size="14" font-style="italic" lengthAdjust="spacing" textLength="112" x="468.25" y="42.0152">TransferListener</text><text fill="#000000" font-family="sans-serif" font-size="10" font-style="italic" lengthAdjust="spacing" textLength="177" x="435.75" y="54.6363">org.vorpal.blade.framework.transfer</text><line style="stroke:#181818;stroke-width:0.5;" x1="341.5" x2="674.5" y1="61.7456" y2="61.7456"/><ellipse cx="351.5" cy="75.4898" fill="#84BE84" rx="3" ry="3" style="stroke:#038048;stroke-width:1.0;"/><text fill="#000000" font-family="sans-serif" font-size="14" font-style="italic" lengthAdjust="spacing" textLength="279" x="360.5" y="79.2808">transferInitiated(SipServletRequest): void</text><ellipse cx="351.5" cy="91.978" fill="#84BE84" rx="3" ry="3" style="stroke:#038048;stroke-width:1.0;"/><text fill="#000000" font-family="sans-serif" font-size="14" font-style="italic" lengthAdjust="spacing" textLength="309" x="360.5" y="95.7691">transferCompleted(SipServletResponse): void</text><ellipse cx="351.5" cy="108.4663" fill="#84BE84" rx="3" ry="3" style="stroke:#038048;stroke-width:1.0;"/><text fill="#000000" font-family="sans-serif" font-size="14" font-style="italic" lengthAdjust="spacing" textLength="293" x="360.5" y="112.2573">transferDeclined(SipServletResponse): void</text><ellipse cx="351.5" cy="124.9546" fill="#84BE84" rx="3" ry="3" style="stroke:#038048;stroke-width:1.0;"/><text fill="#000000" font-family="sans-serif" font-size="14" font-style="italic" lengthAdjust="spacing" textLength="303" x="360.5" y="128.7456">transferAbandoned(SipServletRequest): void</text></g></a><!--class javax.servlet.sip.SipApplicationSessionListener--><g id="elem_javax.servlet.sip.SipApplicationSessionListener"><rect codeLine="49" fill="#F1F1F1" height="112.2188" id="javax.servlet.sip.SipApplicationSessionListener" rx="2.5" ry="2.5" style="stroke:#181818;stroke-width:0.5;" width="437" x="710.5" y="23.48"/><ellipse cx="822.25" cy="42.6128" fill="#B4A7E5" rx="11" ry="11" style="stroke:#181818;stroke-width:1.0;"/><path d="M818.6777,38.8779 L818.6777,36.7197 L826.0571,36.7197 L826.0571,38.8779 L823.5918,38.8779 L823.5918,46.9546 L826.0571,46.9546 L826.0571,49.1128 L818.6777,49.1128 L818.6777,46.9546 L821.1431,46.9546 L821.1431,38.8779 Z " fill="#000000"/><text fill="#000000" font-family="sans-serif" font-size="14" font-style="italic" lengthAdjust="spacing" textLength="205" x="842.75" y="42.0152">SipApplicationSessionListener</text><text fill="#000000" font-family="sans-serif" font-size="10" font-style="italic" lengthAdjust="spacing" textLength="79" x="905.75" y="54.6363">javax.servlet.sip</text><line style="stroke:#181818;stroke-width:0.5;" x1="711.5" x2="1146.5" y1="61.7456" y2="61.7456"/><ellipse cx="721.5" cy="75.4898" fill="#84BE84" rx="3" ry="3" style="stroke:#038048;stroke-width:1.0;"/><text fill="#000000" font-family="sans-serif" font-size="14" font-style="italic" lengthAdjust="spacing" textLength="340" x="730.5" y="79.2808">sessionCreated(SipApplicationSessionEvent): void</text><ellipse cx="721.5" cy="91.978" fill="#84BE84" rx="3" ry="3" style="stroke:#038048;stroke-width:1.0;"/><text fill="#000000" font-family="sans-serif" font-size="14" font-style="italic" lengthAdjust="spacing" textLength="355" x="730.5" y="95.7691">sessionDestroyed(SipApplicationSessionEvent): void</text><ellipse cx="721.5" cy="108.4663" fill="#84BE84" rx="3" ry="3" style="stroke:#038048;stroke-width:1.0;"/><text fill="#000000" font-family="sans-serif" font-size="14" font-style="italic" lengthAdjust="spacing" textLength="339" x="730.5" y="112.2573">sessionExpired(SipApplicationSessionEvent): void</text><ellipse cx="721.5" cy="124.9546" fill="#84BE84" rx="3" ry="3" style="stroke:#038048;stroke-width:1.0;"/><text fill="#000000" font-family="sans-serif" font-size="14" font-style="italic" lengthAdjust="spacing" textLength="411" x="730.5" y="128.7456">sessionReadyToInvalidate(SipApplicationSessionEvent): void</text></g><!--class javax.servlet.sip.SipSessionListener--><g id="elem_javax.servlet.sip.SipSessionListener"><rect codeLine="55" fill="#F1F1F1" height="95.7305" id="javax.servlet.sip.SipSessionListener" rx="2.5" ry="2.5" style="stroke:#181818;stroke-width:0.5;" width="359" x="1182.5" y="31.73"/><ellipse cx="1294.25" cy="50.8628" fill="#B4A7E5" rx="11" ry="11" style="stroke:#181818;stroke-width:1.0;"/><path d="M1290.6777,47.1279 L1290.6777,44.9697 L1298.0571,44.9697 L1298.0571,47.1279 L1295.5918,47.1279 L1295.5918,55.2046 L1298.0571,55.2046 L1298.0571,57.3628 L1290.6777,57.3628 L1290.6777,55.2046 L1293.1431,55.2046 L1293.1431,47.1279 Z " fill="#000000"/><text fill="#000000" font-family="sans-serif" font-size="14" font-style="italic" lengthAdjust="spacing" textLength="127" x="1314.75" y="50.2652">SipSessionListener</text><text fill="#000000" font-family="sans-serif" font-size="10" font-style="italic" lengthAdjust="spacing" textLength="79" x="1338.75" y="62.8863">javax.servlet.sip</text><line style="stroke:#181818;stroke-width:0.5;" x1="1183.5" x2="1540.5" y1="69.9956" y2="69.9956"/><ellipse cx="1193.5" cy="83.7398" fill="#84BE84" rx="3" ry="3" style="stroke:#038048;stroke-width:1.0;"/><text fill="#000000" font-family="sans-serif" font-size="14" font-style="italic" lengthAdjust="spacing" textLength="262" x="1202.5" y="87.5308">sessionCreated(SipSessionEvent): void</text><ellipse cx="1193.5" cy="100.228" fill="#84BE84" rx="3" ry="3" style="stroke:#038048;stroke-width:1.0;"/><text fill="#000000" font-family="sans-serif" font-size="14" font-style="italic" lengthAdjust="spacing" textLength="277" x="1202.5" y="104.0191">sessionDestroyed(SipSessionEvent): void</text><ellipse cx="1193.5" cy="116.7163" fill="#84BE84" rx="3" ry="3" style="stroke:#038048;stroke-width:1.0;"/><text fill="#000000" font-family="sans-serif" font-size="14" font-style="italic" lengthAdjust="spacing" textLength="333" x="1202.5" y="120.5073">sessionReadyToInvalidate(SipSessionEvent): void</text></g><!--reverse link org.vorpal.blade.framework.b2bua.B2buaServlet to org.vorpal.blade.services.transfer.TransferServlet--><g id="link_org.vorpal.blade.framework.b2bua.B2buaServlet_org.vorpal.blade.services.transfer.TransferServlet"><path codeLine="61" d="M277.2777,162.6676 C341.2377,205.9476 410.29,252.68 488.7,305.74 " fill="none" id="org.vorpal.blade.framework.b2bua.B2buaServlet-backto-org.vorpal.blade.services.transfer.TransferServlet" style="stroke:#181818;stroke-width:1.0;"/><polygon fill="none" points="262.37,152.58,273.9152,167.6369,280.6402,157.6984,262.37,152.58" style="stroke:#181818;stroke-width:1.0;"/></g><!--reverse link org.vorpal.blade.framework.transfer.TransferListener to org.vorpal.blade.services.transfer.TransferServlet--><g id="link_org.vorpal.blade.framework.transfer.TransferListener_org.vorpal.blade.services.transfer.TransferServlet"><path codeLine="62" d="M547.2393,151.6583 C559.1193,173.1783 564.93,183.7 580.5,211.9 " fill="none" id="org.vorpal.blade.framework.transfer.TransferListener-backto-org.vorpal.blade.services.transfer.TransferServlet" style="stroke:#181818;stroke-width:1.0;stroke-dasharray:7.0,7.0;"/><polygon fill="none" points="538.54,135.9,541.9865,154.558,552.492,148.7585,538.54,135.9" style="stroke:#181818;stroke-width:1.0;"/></g><!--reverse link javax.servlet.sip.SipApplicationSessionListener to org.vorpal.blade.services.transfer.TransferServlet--><g id="link_javax.servlet.sip.SipApplicationSessionListener_org.vorpal.blade.services.transfer.TransferServlet"><path codeLine="63" d="M889.5815,151.6366 C877.6315,173.1566 871.79,183.7 856.15,211.9 " fill="none" id="javax.servlet.sip.SipApplicationSessionListener-backto-org.vorpal.blade.services.transfer.TransferServlet" style="stroke:#181818;stroke-width:1.0;stroke-dasharray:7.0,7.0;"/><polygon fill="none" points="898.32,135.9,884.336,148.7237,894.8271,154.5494,898.32,135.9" style="stroke:#181818;stroke-width:1.0;"/></g><!--reverse link javax.servlet.sip.SipSessionListener to org.vorpal.blade.services.transfer.TransferServlet--><g id="link_javax.servlet.sip.SipSessionListener_org.vorpal.blade.services.transfer.TransferServlet"><path codeLine="64" d="M1266.5614,136.9538 C1183.1914,186.1938 1064.12,256.51 947.32,325.49 " fill="none" id="javax.servlet.sip.SipSessionListener-backto-org.vorpal.blade.services.transfer.TransferServlet" style="stroke:#181818;stroke-width:1.0;stroke-dasharray:7.0,7.0;"/><polygon fill="none" points="1282.06,127.8,1263.5101,131.7876,1269.6126,142.12,1282.06,127.8" style="stroke:#181818;stroke-width:1.0;"/></g><text fill="#888888" font-family="sans-serif" font-size="10" lengthAdjust="spacing" textLength="176" x="679.25" y="727.3072">UMLDoclet 2.1.2, PlantUML 1.2024.3</text><!--SRC=[hLTBRnen4BxtLrY9Ae5Id0RrX52aDEI0b4XHDkabpM7O7S2jiRUsiq0J_dkzl09U0-ij284OVzyycHal8OHeD4J027KACKQOWW8Z5H5Iu2TxJ8OiGOAZr4n9do5Fj2iTeHbAAvxBOmvQavEsPd-nTV7jyb61q7rK4QgCe_afbYTVBwKQq4og53ZjSKYGQWjXCMfgbfmJ0feSXb771db-TYHqQ4RyvOMypLtCNs_QW67nZ3IiEWRy1ohDf7ZgTbg4Ip4e0izidWmJ0tq70WQeMYJQ5hG_Z2xabsibPteen_TAfgWCGrsBMBhqx5eAWnDpaw4mzHR994lMh5Ezn2W4WqaWguFQA3ajpMl4GoarNWFdVIx7aPbohAr3odzPnkfqFoiooiRlWvzkmpTSUy0_hzPZ7-biLUYkO8OvgVZWRKMpvbpBKMfX3aUdKcZSIUfWp9a8urprG2HIb78kjY561fGfZRuIUeogd4SvtbPQO5nUlpzDk_4X6PhxNpux7nqtGEFqMAqUqdPRlUjgEgYc48T6dS-8ZNQyIbFEOcj3YcXnw6sj5NEh9GEvDvEKgKhC1uHa-YYx8WFE4kjw1HrR8oWmqCe-xYBE5fi6UjO8nAQmShutUwzGOj_qbTrwOwb-qrxEy6yR1qGtbM_kavKtiy3kTea1ZUvI0tg-I2tT_YurO18KOYqt56RpJsPNb-hRAuhdSd7Bj461gborzrylYZZgch4N34hFxNkDFLzXprsiv-gnaOKAcyr73rboFdx56WQkljrrz0uaJr5_GGOJkhpWKCtIUGaBKhfNtuvIL9xk7YLL1hr7JVZCzoYfElxtLkie9QfQb_yfnZ6ITs0lXQsGzdkZKU4Pvv2btREh_KvfLOEXdNPqMySq46F-toPzAVElfxlRZeppYZJf1Mr-8VSSXB5IyZbRF1lMwly0]--></g></svg>