<?xml version="1.0" encoding="us-ascii" standalone="no"?><svg xmlns="http://www.w3.org/2000/svg" xmlns:xlink="http://www.w3.org/1999/xlink" contentStyleType="text/css" height="312px" preserveAspectRatio="none" style="width:683px;height:312px;background:#FFFFFF;" version="1.1" viewBox="0 0 683 312" width="683px" zoomAndPan="magnify"><defs/><g><!--cluster org.vorpal.blade.services.tpcc.v1.session--><g id="cluster_org.vorpal.blade.services.tpcc.v1.session"><path d="M8.5,6 L294.5,6 A3.75,3.75 0 0 1 297,8.5 L304,28.4883 L673.5,28.4883 A2.5,2.5 0 0 1 676,30.9883 L676,283.87 A2.5,2.5 0 0 1 673.5,286.37 L8.5,286.37 A2.5,2.5 0 0 1 6,283.87 L6,8.5 A2.5,2.5 0 0 1 8.5,6 " fill="none" style="stroke:#000000;stroke-width:1.5;"/><line style="stroke:#000000;stroke-width:1.5;" x1="6" x2="304" y1="28.4883" y2="28.4883"/><text fill="#000000" font-family="sans-serif" font-size="14" font-weight="bold" lengthAdjust="spacing" textLength="285" x="10" y="21.5352">org.vorpal.blade.services.tpcc.v1.session</text></g><!--class SessionCreateRequest--><a href="SessionCreateRequest.html" target="_top" title="SessionCreateRequest.html" xlink:actuate="onRequest" xlink:href="SessionCreateRequest.html" xlink:show="new" xlink:title="SessionCreateRequest.html" xlink:type="simple"><g id="elem_SessionCreateRequest"><rect codeLine="5" fill="#F1F1F1" height="113.9531" id="SessionCreateRequest" rx="2.5" ry="2.5" style="stroke:#181818;stroke-width:0.5;" width="241" x="21.5" y="98.71"/><ellipse cx="62.15" cy="114.71" fill="#ADD1B2" rx="11" ry="11" style="stroke:#181818;stroke-width:1.0;"/><path d="M64.6231,120.8531 Q64.0421,121.1519 63.4029,121.3013 Q62.7638,121.4507 62.0582,121.4507 Q59.5514,121.4507 58.2315,119.7989 Q56.9117,118.147 56.9117,115.0259 Q56.9117,111.8965 58.2315,110.2447 Q59.5514,108.5928 62.0582,108.5928 Q62.7638,108.5928 63.4112,108.7422 Q64.0587,108.8916 64.6231,109.1905 L64.6231,111.9131 Q63.9923,111.3321 63.3988,111.0623 Q62.8053,110.7925 62.1744,110.7925 Q60.8297,110.7925 60.1449,111.8592 Q59.4601,112.9258 59.4601,115.0259 Q59.4601,117.1177 60.1449,118.1844 Q60.8297,119.251 62.1744,119.251 Q62.8053,119.251 63.3988,118.9812 Q63.9923,118.7115 64.6231,118.1304 Z " fill="#000000"/><text fill="#000000" font-family="sans-serif" font-size="14" lengthAdjust="spacing" textLength="152" x="81.85" y="120.001">SessionCreateRequest</text><line style="stroke:#181818;stroke-width:0.5;" x1="22.5" x2="261.5" y1="130.71" y2="130.71"/><ellipse cx="32.5" cy="144.4541" fill="none" rx="3" ry="3" style="stroke:#038048;stroke-width:1.0;"/><text fill="#000000" font-family="sans-serif" font-size="14" lengthAdjust="spacing" textLength="108" x="41.5" y="148.2452">expires: Integer</text><ellipse cx="32.5" cy="160.9424" fill="none" rx="3" ry="3" style="stroke:#038048;stroke-width:1.0;"/><text fill="#000000" font-family="sans-serif" font-size="14" lengthAdjust="spacing" textLength="208" x="41.5" y="164.7334">invalidateWhenReady: Boolean</text><ellipse cx="32.5" cy="177.4307" fill="none" rx="3" ry="3" style="stroke:#038048;stroke-width:1.0;"/><text fill="#000000" font-family="sans-serif" font-size="14" lengthAdjust="spacing" textLength="143" x="41.5" y="181.2217">groups: List&lt;String&gt;</text><ellipse cx="32.5" cy="193.919" fill="none" rx="3" ry="3" style="stroke:#038048;stroke-width:1.0;"/><text fill="#000000" font-family="sans-serif" font-size="14" lengthAdjust="spacing" textLength="215" x="41.5" y="197.71">attributes: Map&lt;String, String&gt;</text><line style="stroke:#181818;stroke-width:0.5;" x1="22.5" x2="261.5" y1="204.6631" y2="204.6631"/></g></a><!--class SessionGetResponse--><a href="SessionGetResponse.html" target="_top" title="SessionGetResponse.html" xlink:actuate="onRequest" xlink:href="SessionGetResponse.html" xlink:show="new" xlink:title="SessionGetResponse.html" xlink:type="simple"><g id="elem_SessionGetResponse"><rect codeLine="12" fill="#F1F1F1" height="229.3711" id="SessionGetResponse" rx="2.5" ry="2.5" style="stroke:#181818;stroke-width:0.5;" width="362" x="298" y="41"/><ellipse cx="404.25" cy="57" fill="#ADD1B2" rx="11" ry="11" style="stroke:#181818;stroke-width:1.0;"/><path d="M406.7231,63.1431 Q406.1421,63.4419 405.5029,63.5913 Q404.8638,63.7407 404.1582,63.7407 Q401.6514,63.7407 400.3315,62.0889 Q399.0117,60.437 399.0117,57.3159 Q399.0117,54.1865 400.3315,52.5347 Q401.6514,50.8828 404.1582,50.8828 Q404.8638,50.8828 405.5112,51.0322 Q406.1587,51.1816 406.7231,51.4805 L406.7231,54.2031 Q406.0923,53.6221 405.4988,53.3523 Q404.9053,53.0825 404.2744,53.0825 Q402.9297,53.0825 402.2449,54.1492 Q401.5601,55.2158 401.5601,57.3159 Q401.5601,59.4077 402.2449,60.4744 Q402.9297,61.541 404.2744,61.541 Q404.9053,61.541 405.4988,61.2712 Q406.0923,61.0015 406.7231,60.4204 Z " fill="#000000"/><text fill="#000000" font-family="sans-serif" font-size="14" lengthAdjust="spacing" textLength="141" x="424.75" y="62.291">SessionGetResponse</text><line style="stroke:#181818;stroke-width:0.5;" x1="299" x2="659" y1="73" y2="73"/><rect fill="none" height="6" style="stroke:#C82930;stroke-width:1.0;" width="6" x="306" y="83.7441"/><text fill="#000000" font-family="sans-serif" font-size="14" lengthAdjust="spacing" textLength="108" x="318" y="90.5352">expires: Integer</text><ellipse cx="309" cy="103.2324" fill="none" rx="3" ry="3" style="stroke:#038048;stroke-width:1.0;"/><text fill="#000000" font-family="sans-serif" font-size="14" lengthAdjust="spacing" textLength="143" x="318" y="107.0234">groups: List&lt;String&gt;</text><ellipse cx="309" cy="119.7207" fill="none" rx="3" ry="3" style="stroke:#038048;stroke-width:1.0;"/><text fill="#000000" font-family="sans-serif" font-size="14" lengthAdjust="spacing" textLength="215" x="318" y="123.5117">attributes: Map&lt;String, String&gt;</text><ellipse cx="309" cy="136.209" fill="none" rx="3" ry="3" style="stroke:#038048;stroke-width:1.0;"/><text fill="#000000" font-family="sans-serif" font-size="14" lengthAdjust="spacing" textLength="202" x="318" y="140">dialogs: Map&lt;String, Dialog&gt;</text><line style="stroke:#181818;stroke-width:0.5;" x1="299" x2="659" y1="146.9531" y2="146.9531"/><ellipse cx="309" cy="160.6973" fill="#84BE84" rx="3" ry="3" style="stroke:#038048;stroke-width:1.0;"/><text fill="#000000" font-family="sans-serif" font-size="14" lengthAdjust="spacing" textLength="151" x="318" y="164.4883">SessionGetResponse()</text><ellipse cx="309" cy="177.1855" fill="#84BE84" rx="3" ry="3" style="stroke:#038048;stroke-width:1.0;"/><text fill="#000000" font-family="sans-serif" font-size="14" lengthAdjust="spacing" textLength="302" x="318" y="180.9766">SessionGetResponse(SipApplicationSession)</text><ellipse cx="309" cy="193.6738" fill="#84BE84" rx="3" ry="3" style="stroke:#038048;stroke-width:1.0;"/><text fill="#000000" font-family="sans-serif" font-size="14" lengthAdjust="spacing" textLength="167" x="318" y="197.4648">setExpires(Integer): void</text><ellipse cx="309" cy="210.1621" fill="#84BE84" rx="3" ry="3" style="stroke:#038048;stroke-width:1.0;"/><text fill="#000000" font-family="sans-serif" font-size="14" lengthAdjust="spacing" textLength="140" x="318" y="213.9531">getExpires(): Integer</text><ellipse cx="309" cy="226.6504" fill="#84BE84" rx="3" ry="3" style="stroke:#038048;stroke-width:1.0;"/><text fill="#000000" font-family="sans-serif" font-size="14" lengthAdjust="spacing" textLength="269" x="318" y="230.4414">addGroup(String): SessionGetResponse</text><ellipse cx="309" cy="243.1387" fill="#84BE84" rx="3" ry="3" style="stroke:#038048;stroke-width:1.0;"/><text fill="#000000" font-family="sans-serif" font-size="14" lengthAdjust="spacing" textLength="336" x="318" y="246.9297">addAttribute(String, String): SessionGetResponse</text><ellipse cx="309" cy="259.627" fill="#84BE84" rx="3" ry="3" style="stroke:#038048;stroke-width:1.0;"/><text fill="#000000" font-family="sans-serif" font-size="14" lengthAdjust="spacing" textLength="322" x="318" y="263.418">addDialog(String, Dialog): SessionGetResponse</text></g></a><text fill="#888888" font-family="sans-serif" font-size="10" lengthAdjust="spacing" textLength="176" x="246.5" y="302.038">UMLDoclet 2.1.2, PlantUML 1.2024.3</text><!--SRC=[hPDVIyCm5CNVzodkYz3Y36oFHOJfP0WRo8RuCFPmbroxO4nYaXL5zjrDryhMxey-66W39xzxUyyX1G3m5E9ZqM4m3hAiquaYMEIlc1CObxF2E8kABHKAOfvS8Jbv5YpdhEX5mNjfD7nLXUNY2hs7MNLmvmW3JUbzJJx0V7vCPglmfXQBs0FsrYLzMEd8P_2W0-NacgTI5wYaY5sULwIdXE8pWrjZ5A5kahapQnlRZAKFrxFWfCvlcWI6g2xNeVpO16qDTQ4DRqwO756OahT6UzfPt1EF6xmwR_3_njx2Gg8oUOiSRiKMUJX_alvApAGTMAiann1FQg1L5k_QVMKvgHsd6HH6YfRn7PQUo0Q569Nn99MHY1sET50n-8ahQGRrj-egggIPtFdI-hfijczEqOY35sFAxMao7Xgkui_NPptMxyAZGXsY2XS5kR9Xadu3]--></g></svg>