<?xml version="1.0" encoding="us-ascii" standalone="no"?><svg xmlns="http://www.w3.org/2000/svg" xmlns:xlink="http://www.w3.org/1999/xlink" contentStyleType="text/css" height="979px" preserveAspectRatio="none" style="width:1717px;height:979px;background:#FFFFFF;" version="1.1" viewBox="0 0 1717 979" width="1717px" zoomAndPan="magnify"><defs/><g><!--cluster org.vorpal.blade.framework.deprecated.proxy.callflows--><g id="cluster_org.vorpal.blade.framework.deprecated.proxy.callflows"><path d="M8.5,590.67 L396.5,590.67 A3.75,3.75 0 0 1 399,593.17 L406,613.1583 L1707.5,613.1583 A2.5,2.5 0 0 1 1710,615.6583 L1710,950.98 A2.5,2.5 0 0 1 1707.5,953.48 L8.5,953.48 A2.5,2.5 0 0 1 6,950.98 L6,593.17 A2.5,2.5 0 0 1 8.5,590.67 " fill="none" style="stroke:#000000;stroke-width:1.5;"/><line style="stroke:#000000;stroke-width:1.5;" x1="6" x2="406" y1="613.1583" y2="613.1583"/><text fill="#000000" font-family="sans-serif" font-size="14" font-weight="bold" lengthAdjust="spacing" textLength="387" x="10" y="606.2052">org.vorpal.blade.framework.deprecated.proxy.callflows</text></g><!--cluster org.vorpal.blade.framework.callflow--><g id="cluster_org.vorpal.blade.framework.callflow"><path d="M736.5,6 L992.5,6 A3.75,3.75 0 0 1 995,8.5 L1002,28.4883 L1055.5,28.4883 A2.5,2.5 0 0 1 1058,30.9883 L1058,564.17 A2.5,2.5 0 0 1 1055.5,566.67 L736.5,566.67 A2.5,2.5 0 0 1 734,564.17 L734,8.5 A2.5,2.5 0 0 1 736.5,6 " fill="none" style="stroke:#000000;stroke-width:1.5;"/><line style="stroke:#000000;stroke-width:1.5;" x1="734" x2="1002" y1="28.4883" y2="28.4883"/><text fill="#000000" font-family="sans-serif" font-size="14" font-weight="bold" lengthAdjust="spacing" textLength="255" x="738" y="21.5352">org.vorpal.blade.framework.callflow</text></g><!--class ProxyReinvite--><a href="ProxyReinvite.html" target="_top" title="ProxyReinvite.html" xlink:actuate="onRequest" xlink:href="ProxyReinvite.html" xlink:show="new" xlink:title="ProxyReinvite.html" xlink:type="simple"><g id="elem_ProxyReinvite"><rect codeLine="5" fill="#F1F1F1" height="113.9531" id="ProxyReinvite" rx="2.5" ry="2.5" style="stroke:#181818;stroke-width:0.5;" width="324" x="22" y="724.6"/><ellipse cx="133.25" cy="740.6" fill="#ADD1B2" rx="11" ry="11" style="stroke:#181818;stroke-width:1.0;"/><path d="M135.7231,746.7431 Q135.1421,747.0419 134.5029,747.1913 Q133.8638,747.3407 133.1582,747.3407 Q130.6514,747.3407 129.3315,745.6889 Q128.0117,744.037 128.0117,740.9159 Q128.0117,737.7865 129.3315,736.1347 Q130.6514,734.4828 133.1582,734.4828 Q133.8638,734.4828 134.5112,734.6322 Q135.1587,734.7816 135.7231,735.0805 L135.7231,737.8031 Q135.0923,737.2221 134.4988,736.9523 Q133.9053,736.6825 133.2744,736.6825 Q131.9297,736.6825 131.2449,737.7492 Q130.5601,738.8158 130.5601,740.9159 Q130.5601,743.0077 131.2449,744.0744 Q131.9297,745.141 133.2744,745.141 Q133.9053,745.141 134.4988,744.8712 Q135.0923,744.6015 135.7231,744.0204 Z " fill="#000000"/><text fill="#000000" font-family="sans-serif" font-size="14" lengthAdjust="spacing" textLength="93" x="153.75" y="745.891">ProxyReinvite</text><line style="stroke:#181818;stroke-width:0.5;" x1="23" x2="345" y1="756.6" y2="756.6"/><polygon fill="none" points="33,766.3441,29,772.3441,37,772.3441" style="stroke:#1963A0;stroke-width:1.0;"/><text fill="#000000" font-family="sans-serif" font-size="14" lengthAdjust="spacing" text-decoration="underline" textLength="152" x="42" y="774.1352">serialVersionUID: long</text><rect fill="none" height="6" style="stroke:#C82930;stroke-width:1.0;" width="6" x="30" y="783.8324"/><text fill="#000000" font-family="sans-serif" font-size="14" lengthAdjust="spacing" textLength="216" x="42" y="790.6234">aliceRequest: SipServletRequest</text><rect fill="none" height="6" style="stroke:#C82930;stroke-width:1.0;" width="6" x="30" y="800.3207"/><text fill="#000000" font-family="sans-serif" font-size="14" lengthAdjust="spacing" textLength="298" x="42" y="807.1117">loopOnPrack: Callback&lt;SipServletRequest&gt;</text><line style="stroke:#181818;stroke-width:0.5;" x1="23" x2="345" y1="814.0648" y2="814.0648"/><ellipse cx="33" cy="827.809" fill="#84BE84" rx="3" ry="3" style="stroke:#038048;stroke-width:1.0;"/><text fill="#000000" font-family="sans-serif" font-size="14" lengthAdjust="spacing" textLength="222" x="42" y="831.6">process(SipServletRequest): void</text></g></a><!--class ProxyPassthru--><a href="ProxyPassthru.html" target="_top" title="ProxyPassthru.html" xlink:actuate="onRequest" xlink:href="ProxyPassthru.html" xlink:show="new" xlink:title="ProxyPassthru.html" xlink:type="simple"><g id="elem_ProxyPassthru"><rect codeLine="12" fill="#F1F1F1" height="97.4648" id="ProxyPassthru" rx="2.5" ry="2.5" style="stroke:#181818;stroke-width:0.5;" width="248" x="381" y="732.84"/><ellipse cx="451.75" cy="748.84" fill="#ADD1B2" rx="11" ry="11" style="stroke:#181818;stroke-width:1.0;"/><path d="M454.2231,754.9831 Q453.6421,755.2819 453.0029,755.4313 Q452.3638,755.5807 451.6582,755.5807 Q449.1514,755.5807 447.8315,753.9289 Q446.5117,752.277 446.5117,749.1559 Q446.5117,746.0265 447.8315,744.3747 Q449.1514,742.7228 451.6582,742.7228 Q452.3638,742.7228 453.0112,742.8722 Q453.6587,743.0216 454.2231,743.3205 L454.2231,746.0431 Q453.5923,745.4621 452.9988,745.1923 Q452.4053,744.9225 451.7744,744.9225 Q450.4297,744.9225 449.7449,745.9892 Q449.0601,747.0558 449.0601,749.1559 Q449.0601,751.2477 449.7449,752.3144 Q450.4297,753.381 451.7744,753.381 Q452.4053,753.381 452.9988,753.1112 Q453.5923,752.8415 454.2231,752.2604 Z " fill="#000000"/><text fill="#000000" font-family="sans-serif" font-size="14" lengthAdjust="spacing" textLength="98" x="472.25" y="754.131">ProxyPassthru</text><line style="stroke:#181818;stroke-width:0.5;" x1="382" x2="628" y1="764.84" y2="764.84"/><rect fill="none" height="6" style="stroke:#C82930;stroke-width:1.0;" width="6" x="389" y="775.5841"/><text fill="#000000" font-family="sans-serif" font-size="14" lengthAdjust="spacing" text-decoration="underline" textLength="152" x="401" y="782.3752">serialVersionUID: long</text><rect fill="none" height="6" style="stroke:#C82930;stroke-width:1.0;" width="6" x="389" y="792.0724"/><text fill="#000000" font-family="sans-serif" font-size="14" lengthAdjust="spacing" textLength="216" x="401" y="798.8634">aliceRequest: SipServletRequest</text><line style="stroke:#181818;stroke-width:0.5;" x1="382" x2="628" y1="805.8166" y2="805.8166"/><ellipse cx="392" cy="819.5607" fill="#84BE84" rx="3" ry="3" style="stroke:#038048;stroke-width:1.0;"/><text fill="#000000" font-family="sans-serif" font-size="14" lengthAdjust="spacing" textLength="222" x="401" y="823.3517">process(SipServletRequest): void</text></g></a><!--class ProxyInvite--><a href="ProxyInvite.html" target="_top" title="ProxyInvite.html" xlink:actuate="onRequest" xlink:href="ProxyInvite.html" xlink:show="new" xlink:title="ProxyInvite.html" xlink:type="simple"><g id="elem_ProxyInvite"><rect codeLine="18" fill="#F1F1F1" height="311.8125" id="ProxyInvite" rx="2.5" ry="2.5" style="stroke:#181818;stroke-width:0.5;" width="463" x="664.5" y="625.67"/><ellipse cx="853.75" cy="641.67" fill="#ADD1B2" rx="11" ry="11" style="stroke:#181818;stroke-width:1.0;"/><path d="M856.2231,647.8131 Q855.6421,648.1119 855.0029,648.2613 Q854.3638,648.4107 853.6582,648.4107 Q851.1514,648.4107 849.8315,646.7589 Q848.5117,645.107 848.5117,641.9859 Q848.5117,638.8565 849.8315,637.2047 Q851.1514,635.5528 853.6582,635.5528 Q854.3638,635.5528 855.0112,635.7022 Q855.6587,635.8516 856.2231,636.1505 L856.2231,638.8731 Q855.5923,638.2921 854.9988,638.0223 Q854.4053,637.7525 853.7744,637.7525 Q852.4297,637.7525 851.7449,638.8192 Q851.0601,639.8858 851.0601,641.9859 Q851.0601,644.0777 851.7449,645.1444 Q852.4297,646.211 853.7744,646.211 Q854.4053,646.211 854.9988,645.9412 Q855.5923,645.6715 856.2231,645.0904 Z " fill="#000000"/><text fill="#000000" font-family="sans-serif" font-size="14" lengthAdjust="spacing" textLength="76" x="874.25" y="646.961">ProxyInvite</text><line style="stroke:#181818;stroke-width:0.5;" x1="665.5" x2="1126.5" y1="657.67" y2="657.67"/><rect fill="none" height="6" style="stroke:#C82930;stroke-width:1.0;" width="6" x="672.5" y="668.4141"/><text fill="#000000" font-family="sans-serif" font-size="14" lengthAdjust="spacing" text-decoration="underline" textLength="152" x="684.5" y="675.2052">serialVersionUID: long</text><rect fill="none" height="6" style="stroke:#C82930;stroke-width:1.0;" width="6" x="672.5" y="684.9024"/><text fill="#000000" font-family="sans-serif" font-size="14" lengthAdjust="spacing" textLength="152" x="684.5" y="691.6934">listener: ProxyListener</text><rect fill="none" height="6" style="stroke:#C82930;stroke-width:1.0;" width="6" x="672.5" y="701.3907"/><text fill="#000000" font-family="sans-serif" font-size="14" lengthAdjust="spacing" textLength="216" x="684.5" y="708.1817">aliceRequest: SipServletRequest</text><rect fill="none" height="6" style="stroke:#C82930;stroke-width:1.0;" width="6" x="672.5" y="717.879"/><text fill="#000000" font-family="sans-serif" font-size="14" lengthAdjust="spacing" textLength="238" x="684.5" y="724.67">aliceResponse: SipServletResponse</text><rect fill="none" height="6" style="stroke:#C82930;stroke-width:1.0;" width="6" x="672.5" y="734.3673"/><text fill="#000000" font-family="sans-serif" font-size="14" lengthAdjust="spacing" textLength="212" x="684.5" y="741.1583">bobRequest: SipServletRequest</text><rect fill="none" height="6" style="stroke:#C82930;stroke-width:1.0;" width="6" x="672.5" y="750.8555"/><text fill="#000000" font-family="sans-serif" font-size="14" lengthAdjust="spacing" textLength="234" x="684.5" y="757.6466">bobResponse: SipServletResponse</text><polygon fill="none" points="675.5,766.3438,671.5,772.3438,679.5,772.3438" style="stroke:#1963A0;stroke-width:1.0;"/><text fill="#000000" font-family="sans-serif" font-size="14" lengthAdjust="spacing" textLength="225" x="684.5" y="774.1348">proxyRequest: SipServletRequest</text><rect fill="none" height="6" style="stroke:#C82930;stroke-width:1.0;" width="6" x="672.5" y="783.8321"/><text fill="#000000" font-family="sans-serif" font-size="14" lengthAdjust="spacing" textLength="141" x="684.5" y="790.6231">proxyTier: ProxyTier</text><polygon fill="none" points="675.5,799.3204,671.5,805.3204,679.5,805.3204" style="stroke:#1963A0;stroke-width:1.0;"/><text fill="#000000" font-family="sans-serif" font-size="14" lengthAdjust="spacing" textLength="277" x="684.5" y="807.1114">proxyRequests: List&lt;SipServletRequest&gt;</text><polygon fill="none" points="675.5,815.8087,671.5,821.8087,679.5,821.8087" style="stroke:#1963A0;stroke-width:1.0;"/><text fill="#000000" font-family="sans-serif" font-size="14" lengthAdjust="spacing" textLength="297" x="684.5" y="823.5997">failedResponses: List&lt;SipServletResponse&gt;</text><line style="stroke:#181818;stroke-width:0.5;" x1="665.5" x2="1126.5" y1="830.5528" y2="830.5528"/><ellipse cx="675.5" cy="844.297" fill="#84BE84" rx="3" ry="3" style="stroke:#038048;stroke-width:1.0;"/><text fill="#000000" font-family="sans-serif" font-size="14" lengthAdjust="spacing" textLength="179" x="684.5" y="848.088">ProxyInvite(ProxyListener)</text><ellipse cx="675.5" cy="860.7852" fill="#84BE84" rx="3" ry="3" style="stroke:#038048;stroke-width:1.0;"/><text fill="#000000" font-family="sans-serif" font-size="14" lengthAdjust="spacing" textLength="173" x="684.5" y="864.5763">proxyOn(ProxyTier): void</text><ellipse cx="675.5" cy="877.2735" fill="#84BE84" rx="3" ry="3" style="stroke:#038048;stroke-width:1.0;"/><text fill="#000000" font-family="sans-serif" font-size="14" lengthAdjust="spacing" textLength="231" x="684.5" y="881.0645">proxyParallel(int, List&lt;URI&gt;): void</text><ellipse cx="675.5" cy="893.7618" fill="#84BE84" rx="3" ry="3" style="stroke:#038048;stroke-width:1.0;"/><text fill="#000000" font-family="sans-serif" font-size="14" lengthAdjust="spacing" textLength="219" x="684.5" y="897.5528">proxySerial(int, List&lt;URI&gt;): void</text><ellipse cx="675.5" cy="910.2501" fill="#84BE84" rx="3" ry="3" style="stroke:#038048;stroke-width:1.0;"/><text fill="#000000" font-family="sans-serif" font-size="14" lengthAdjust="spacing" textLength="222" x="684.5" y="914.0411">process(SipServletRequest): void</text><ellipse cx="675.5" cy="926.7384" fill="#84BE84" rx="3" ry="3" style="stroke:#038048;stroke-width:1.0;"/><text fill="#000000" font-family="sans-serif" font-size="14" lengthAdjust="spacing" textLength="437" x="684.5" y="930.5294">cancelOutstandingRequests(SipApplicationSession, String): void</text></g></a><!--class ProxyCancel--><a href="ProxyCancel.html" target="_top" title="ProxyCancel.html" xlink:actuate="onRequest" xlink:href="ProxyCancel.html" xlink:show="new" xlink:title="ProxyCancel.html" xlink:type="simple"><g id="elem_ProxyCancel"><rect codeLine="37" fill="#F1F1F1" height="130.4414" id="ProxyCancel" rx="2.5" ry="2.5" style="stroke:#181818;stroke-width:0.5;" width="248" x="1163" y="716.35"/><ellipse cx="1240.25" cy="732.35" fill="#ADD1B2" rx="11" ry="11" style="stroke:#181818;stroke-width:1.0;"/><path d="M1242.7231,738.4931 Q1242.1421,738.7919 1241.5029,738.9413 Q1240.8638,739.0907 1240.1582,739.0907 Q1237.6514,739.0907 1236.3315,737.4389 Q1235.0117,735.787 1235.0117,732.6659 Q1235.0117,729.5365 1236.3315,727.8847 Q1237.6514,726.2328 1240.1582,726.2328 Q1240.8638,726.2328 1241.5112,726.3822 Q1242.1587,726.5316 1242.7231,726.8305 L1242.7231,729.5531 Q1242.0923,728.9721 1241.4988,728.7023 Q1240.9053,728.4325 1240.2744,728.4325 Q1238.9297,728.4325 1238.2449,729.4992 Q1237.5601,730.5658 1237.5601,732.6659 Q1237.5601,734.7577 1238.2449,735.8244 Q1238.9297,736.891 1240.2744,736.891 Q1240.9053,736.891 1241.4988,736.6212 Q1242.0923,736.3515 1242.7231,735.7704 Z " fill="#000000"/><text fill="#000000" font-family="sans-serif" font-size="14" lengthAdjust="spacing" textLength="85" x="1260.75" y="737.641">ProxyCancel</text><line style="stroke:#181818;stroke-width:0.5;" x1="1164" x2="1410" y1="748.35" y2="748.35"/><rect fill="none" height="6" style="stroke:#C82930;stroke-width:1.0;" width="6" x="1171" y="759.0941"/><text fill="#000000" font-family="sans-serif" font-size="14" lengthAdjust="spacing" text-decoration="underline" textLength="152" x="1183" y="765.8852">serialVersionUID: long</text><rect fill="none" height="6" style="stroke:#C82930;stroke-width:1.0;" width="6" x="1171" y="775.5824"/><text fill="#000000" font-family="sans-serif" font-size="14" lengthAdjust="spacing" textLength="207" x="1183" y="782.3734">aliceCancel: SipServletRequest</text><rect fill="none" height="6" style="stroke:#C82930;stroke-width:1.0;" width="6" x="1171" y="792.0707"/><text fill="#000000" font-family="sans-serif" font-size="14" lengthAdjust="spacing" textLength="198" x="1183" y="798.8617">aliceInvite: SipServletRequest</text><rect fill="none" height="6" style="stroke:#C82930;stroke-width:1.0;" width="6" x="1171" y="808.559"/><text fill="#000000" font-family="sans-serif" font-size="14" lengthAdjust="spacing" textLength="194" x="1183" y="815.35">bobInvite: SipServletRequest</text><line style="stroke:#181818;stroke-width:0.5;" x1="1164" x2="1410" y1="822.3031" y2="822.3031"/><ellipse cx="1174" cy="836.0473" fill="#84BE84" rx="3" ry="3" style="stroke:#038048;stroke-width:1.0;"/><text fill="#000000" font-family="sans-serif" font-size="14" lengthAdjust="spacing" textLength="222" x="1183" y="839.8383">process(SipServletRequest): void</text></g></a><!--class ProxyBye--><a href="ProxyBye.html" target="_top" title="ProxyBye.html" xlink:actuate="onRequest" xlink:href="ProxyBye.html" xlink:show="new" xlink:title="ProxyBye.html" xlink:type="simple"><g id="elem_ProxyBye"><rect codeLine="45" fill="#F1F1F1" height="80.9766" id="ProxyBye" rx="2.5" ry="2.5" style="stroke:#181818;stroke-width:0.5;" width="248" x="1446" y="741.09"/><ellipse cx="1534.75" cy="757.09" fill="#ADD1B2" rx="11" ry="11" style="stroke:#181818;stroke-width:1.0;"/><path d="M1537.2231,763.2331 Q1536.6421,763.5319 1536.0029,763.6813 Q1535.3638,763.8307 1534.6582,763.8307 Q1532.1514,763.8307 1530.8315,762.1789 Q1529.5117,760.527 1529.5117,757.4059 Q1529.5117,754.2765 1530.8315,752.6247 Q1532.1514,750.9728 1534.6582,750.9728 Q1535.3638,750.9728 1536.0112,751.1222 Q1536.6587,751.2716 1537.2231,751.5705 L1537.2231,754.2931 Q1536.5923,753.7121 1535.9988,753.4423 Q1535.4053,753.1725 1534.7744,753.1725 Q1533.4297,753.1725 1532.7449,754.2392 Q1532.0601,755.3058 1532.0601,757.4059 Q1532.0601,759.4977 1532.7449,760.5644 Q1533.4297,761.631 1534.7744,761.631 Q1535.4053,761.631 1535.9988,761.3612 Q1536.5923,761.0915 1537.2231,760.5104 Z " fill="#000000"/><text fill="#000000" font-family="sans-serif" font-size="14" lengthAdjust="spacing" textLength="62" x="1555.25" y="762.381">ProxyBye</text><line style="stroke:#181818;stroke-width:0.5;" x1="1447" x2="1693" y1="773.09" y2="773.09"/><rect fill="none" height="6" style="stroke:#C82930;stroke-width:1.0;" width="6" x="1454" y="783.8341"/><text fill="#000000" font-family="sans-serif" font-size="14" lengthAdjust="spacing" text-decoration="underline" textLength="152" x="1466" y="790.6252">serialVersionUID: long</text><line style="stroke:#181818;stroke-width:0.5;" x1="1447" x2="1693" y1="797.5783" y2="797.5783"/><ellipse cx="1457" cy="811.3224" fill="#84BE84" rx="3" ry="3" style="stroke:#038048;stroke-width:1.0;"/><text fill="#000000" font-family="sans-serif" font-size="14" lengthAdjust="spacing" textLength="222" x="1466" y="815.1134">process(SipServletRequest): void</text></g></a><!--class Callflow--><a href="../../../callflow/Callflow.html" target="_top" title="../../../callflow/Callflow.html" xlink:actuate="onRequest" xlink:href="../../../callflow/Callflow.html" xlink:show="new" xlink:title="../../../callflow/Callflow.html" xlink:type="simple"><g id="elem_Callflow"><rect codeLine="53" fill="#F1F1F1" height="509.6719" id="Callflow" rx="2.5" ry="2.5" style="stroke:#181818;stroke-width:0.5;" width="291" x="750.5" y="41"/><ellipse cx="864.25" cy="57" fill="#A9DCDF" rx="11" ry="11" style="stroke:#181818;stroke-width:1.0;"/><path d="M864.1133,52.3481 L862.9595,57.4199 L865.2754,57.4199 Z M862.6191,50.1069 L865.6157,50.1069 L868.9609,62.5 L866.5122,62.5 L865.7485,59.437 L862.4697,59.437 L861.7227,62.5 L859.2739,62.5 Z " fill="#000000"/><text fill="#000000" font-family="sans-serif" font-size="14" font-style="italic" lengthAdjust="spacing" textLength="55" x="884.75" y="62.291">Callflow</text><line style="stroke:#181818;stroke-width:0.5;" x1="751.5" x2="1040.5" y1="73" y2="73"/><rect fill="none" height="6" style="stroke:#C82930;stroke-width:1.0;" width="6" x="758.5" y="83.7441"/><text fill="#000000" font-family="sans-serif" font-size="14" lengthAdjust="spacing" text-decoration="underline" textLength="152" x="770.5" y="90.5352">serialVersionUID: long</text><polygon fill="none" points="761.5,98.2324,765.5,102.2324,761.5,106.2324,757.5,102.2324" style="stroke:#B38D22;stroke-width:1.0;"/><text fill="#000000" font-family="sans-serif" font-size="14" lengthAdjust="spacing" text-decoration="underline" textLength="149" x="770.5" y="107.0234">sipFactory: SipFactory</text><polygon fill="none" points="761.5,114.7207,765.5,118.7207,761.5,122.7207,757.5,118.7207" style="stroke:#B38D22;stroke-width:1.0;"/><text fill="#000000" font-family="sans-serif" font-size="14" lengthAdjust="spacing" text-decoration="underline" textLength="154" x="770.5" y="123.5117">sipUtil: SipSessionsUtil</text><polygon fill="none" points="761.5,131.209,765.5,135.209,761.5,139.209,757.5,135.209" style="stroke:#B38D22;stroke-width:1.0;"/><text fill="#000000" font-family="sans-serif" font-size="14" lengthAdjust="spacing" text-decoration="underline" textLength="180" x="770.5" y="140">timerService: TimerService</text><polygon fill="none" points="761.5,147.6973,765.5,151.6973,761.5,155.6973,757.5,151.6973" style="stroke:#B38D22;stroke-width:1.0;"/><text fill="#000000" font-family="sans-serif" font-size="14" lengthAdjust="spacing" text-decoration="underline" textLength="124" x="770.5" y="156.4883">sipLogger: Logger</text><polygon fill="none" points="761.5,164.1855,765.5,168.1855,761.5,172.1855,757.5,168.1855" style="stroke:#B38D22;stroke-width:1.0;"/><text fill="#000000" font-family="sans-serif" font-size="14" lengthAdjust="spacing" text-decoration="underline" textLength="265" x="770.5" y="172.9766">sessionParameters: SessionParameters</text><polygon fill="none" points="761.5,180.6738,765.5,184.6738,761.5,188.6738,757.5,184.6738" style="stroke:#B38D22;stroke-width:1.0;"/><text fill="#000000" font-family="sans-serif" font-size="14" lengthAdjust="spacing" text-decoration="underline" textLength="93" x="770.5" y="189.4648">INVITE: String</text><polygon fill="none" points="761.5,197.1621,765.5,201.1621,761.5,205.1621,757.5,201.1621" style="stroke:#B38D22;stroke-width:1.0;"/><text fill="#000000" font-family="sans-serif" font-size="14" lengthAdjust="spacing" text-decoration="underline" textLength="78" x="770.5" y="205.9531">ACK: String</text><polygon fill="none" points="761.5,213.6504,765.5,217.6504,761.5,221.6504,757.5,217.6504" style="stroke:#B38D22;stroke-width:1.0;"/><text fill="#000000" font-family="sans-serif" font-size="14" lengthAdjust="spacing" text-decoration="underline" textLength="74" x="770.5" y="222.4414">BYE: String</text><polygon fill="none" points="761.5,230.1387,765.5,234.1387,761.5,238.1387,757.5,234.1387" style="stroke:#B38D22;stroke-width:1.0;"/><text fill="#000000" font-family="sans-serif" font-size="14" lengthAdjust="spacing" text-decoration="underline" textLength="104" x="770.5" y="238.9297">CANCEL: String</text><polygon fill="none" points="761.5,246.627,765.5,250.627,761.5,254.627,757.5,250.627" style="stroke:#B38D22;stroke-width:1.0;"/><text fill="#000000" font-family="sans-serif" font-size="14" lengthAdjust="spacing" text-decoration="underline" textLength="114" x="770.5" y="255.418">REGISTER: String</text><polygon fill="none" points="761.5,263.1152,765.5,267.1152,761.5,271.1152,757.5,267.1152" style="stroke:#B38D22;stroke-width:1.0;"/><text fill="#000000" font-family="sans-serif" font-size="14" lengthAdjust="spacing" text-decoration="underline" textLength="110" x="770.5" y="271.9063">OPTIONS: String</text><polygon fill="none" points="761.5,279.6035,765.5,283.6035,761.5,287.6035,757.5,283.6035" style="stroke:#B38D22;stroke-width:1.0;"/><text fill="#000000" font-family="sans-serif" font-size="14" lengthAdjust="spacing" text-decoration="underline" textLength="95" x="770.5" y="288.3945">PRACK: String</text><polygon fill="none" points="761.5,296.0918,765.5,300.0918,761.5,304.0918,757.5,300.0918" style="stroke:#B38D22;stroke-width:1.0;"/><text fill="#000000" font-family="sans-serif" font-size="14" lengthAdjust="spacing" text-decoration="underline" textLength="122" x="770.5" y="304.8828">SUBSCRIBE: String</text><polygon fill="none" points="761.5,312.5801,765.5,316.5801,761.5,320.5801,757.5,316.5801" style="stroke:#B38D22;stroke-width:1.0;"/><text fill="#000000" font-family="sans-serif" font-size="14" lengthAdjust="spacing" text-decoration="underline" textLength="100" x="770.5" y="321.3711">NOTIFY: String</text><polygon fill="none" points="761.5,329.0684,765.5,333.0684,761.5,337.0684,757.5,333.0684" style="stroke:#B38D22;stroke-width:1.0;"/><text fill="#000000" font-family="sans-serif" font-size="14" lengthAdjust="spacing" text-decoration="underline" textLength="104" x="770.5" y="337.8594">PUBLISH: String</text><polygon fill="none" points="761.5,345.5566,765.5,349.5566,761.5,353.5566,757.5,349.5566" style="stroke:#B38D22;stroke-width:1.0;"/><text fill="#000000" font-family="sans-serif" font-size="14" lengthAdjust="spacing" text-decoration="underline" textLength="82" x="770.5" y="354.3477">INFO: String</text><polygon fill="none" points="761.5,362.0449,765.5,366.0449,761.5,370.0449,757.5,366.0449" style="stroke:#B38D22;stroke-width:1.0;"/><text fill="#000000" font-family="sans-serif" font-size="14" lengthAdjust="spacing" text-decoration="underline" textLength="104" x="770.5" y="370.8359">UPDATE: String</text><polygon fill="none" points="761.5,378.5332,765.5,382.5332,761.5,386.5332,757.5,382.5332" style="stroke:#B38D22;stroke-width:1.0;"/><text fill="#000000" font-family="sans-serif" font-size="14" lengthAdjust="spacing" text-decoration="underline" textLength="91" x="770.5" y="387.3242">REFER: String</text><polygon fill="none" points="761.5,395.0215,765.5,399.0215,761.5,403.0215,757.5,399.0215" style="stroke:#B38D22;stroke-width:1.0;"/><text fill="#000000" font-family="sans-serif" font-size="14" lengthAdjust="spacing" text-decoration="underline" textLength="69" x="770.5" y="403.8125">SIP: String</text><polygon fill="none" points="761.5,411.5098,765.5,415.5098,761.5,419.5098,757.5,415.5098" style="stroke:#B38D22;stroke-width:1.0;"/><text fill="#000000" font-family="sans-serif" font-size="14" lengthAdjust="spacing" text-decoration="underline" textLength="102" x="770.5" y="420.3008">Contact: String</text><polygon fill="none" points="761.5,427.998,765.5,431.998,761.5,435.998,757.5,431.998" style="stroke:#B38D22;stroke-width:1.0;"/><text fill="#000000" font-family="sans-serif" font-size="14" lengthAdjust="spacing" text-decoration="underline" textLength="110" x="770.5" y="436.7891">RELIABLE: String</text><polygon fill="none" points="761.5,444.4863,765.5,448.4863,761.5,452.4863,757.5,448.4863" style="stroke:#B38D22;stroke-width:1.0;"/><text fill="#000000" font-family="sans-serif" font-size="14" lengthAdjust="spacing" text-decoration="underline" textLength="197" x="770.5" y="453.2773">REQUEST_CALLBACK_: String</text><polygon fill="none" points="761.5,460.9746,765.5,464.9746,761.5,468.9746,757.5,464.9746" style="stroke:#B38D22;stroke-width:1.0;"/><text fill="#000000" font-family="sans-serif" font-size="14" lengthAdjust="spacing" text-decoration="underline" textLength="204" x="770.5" y="469.7656">RESPONSE_CALLBACK_: String</text><polygon fill="none" points="761.5,477.4629,765.5,481.4629,761.5,485.4629,757.5,481.4629" style="stroke:#B38D22;stroke-width:1.0;"/><text fill="#000000" font-family="sans-serif" font-size="14" lengthAdjust="spacing" text-decoration="underline" textLength="161" x="770.5" y="486.2539">LINKED_SESSION: String</text><polygon fill="none" points="761.5,493.9512,765.5,497.9512,761.5,501.9512,757.5,497.9512" style="stroke:#B38D22;stroke-width:1.0;"/><text fill="#000000" font-family="sans-serif" font-size="14" lengthAdjust="spacing" text-decoration="underline" textLength="181" x="770.5" y="502.7422">DELAYED_REQUEST: String</text><polygon fill="none" points="761.5,510.4395,765.5,514.4395,761.5,518.4395,757.5,514.4395" style="stroke:#B38D22;stroke-width:1.0;"/><text fill="#000000" font-family="sans-serif" font-size="14" lengthAdjust="spacing" text-decoration="underline" textLength="199" x="770.5" y="519.2305">WITHHOLD_RESPONSE: String</text><line style="stroke:#181818;stroke-width:0.5;" x1="751.5" x2="1040.5" y1="526.1836" y2="526.1836"/><ellipse cx="761.5" cy="539.9277" fill="#84BE84" rx="3" ry="3" style="stroke:#038048;stroke-width:1.0;"/><text fill="#000000" font-family="sans-serif" font-size="14" font-style="italic" lengthAdjust="spacing" textLength="222" x="770.5" y="543.7188">process(SipServletRequest): void</text></g></a><!--reverse link Callflow to ProxyReinvite--><g id="link_Callflow_ProxyReinvite"><path codeLine="85" d="M733.9048,366.1753 C622.2248,417.3253 483.83,489.11 364,582.67 C311.1,623.97 260.57,681.7 226.59,724.15 " fill="none" id="Callflow-backto-ProxyReinvite" style="stroke:#181818;stroke-width:1.0;"/><polygon fill="none" points="750.27,358.68,731.4064,360.7203,736.4032,371.6304,750.27,358.68" style="stroke:#181818;stroke-width:1.0;"/></g><!--reverse link Callflow to ProxyPassthru--><g id="link_Callflow_ProxyPassthru"><path codeLine="86" d="M738.3089,472.5604 C703.7689,512.4004 679.37,541.77 647,582.67 C607.63,632.41 565.65,691.8 537.63,732.46 " fill="none" id="Callflow-backto-ProxyPassthru" style="stroke:#181818;stroke-width:1.0;"/><polygon fill="none" points="750.1,458.96,733.7755,468.63,742.8424,476.4907,750.1,458.96" style="stroke:#181818;stroke-width:1.0;"/></g><!--reverse link Callflow to ProxyInvite--><g id="link_Callflow_ProxyInvite"><path codeLine="87" d="M896,569.1 C896,594.39 896,601.5 896,625.32 " fill="none" id="Callflow-backto-ProxyInvite" style="stroke:#181818;stroke-width:1.0;"/><polygon fill="none" points="896,551.1,890,569.1,902,569.1,896,551.1" style="stroke:#181818;stroke-width:1.0;"/></g><!--reverse link Callflow to ProxyCancel--><g id="link_Callflow_ProxyCancel"><path codeLine="88" d="M1053.6911,472.5604 C1088.2311,512.4004 1112.63,541.77 1145,582.67 C1179.38,626.11 1215.76,676.91 1243.09,716.17 " fill="none" id="Callflow-backto-ProxyCancel" style="stroke:#181818;stroke-width:1.0;"/><polygon fill="none" points="1041.9,458.96,1049.1576,476.4907,1058.2245,468.63,1041.9,458.96" style="stroke:#181818;stroke-width:1.0;"/></g><!--reverse link Callflow to ProxyBye--><g id="link_Callflow_ProxyBye"><path codeLine="89" d="M1058.4979,360.7293 C1172.1179,409.7393 1312.79,481.47 1428,582.67 C1480.42,628.71 1524.26,697.62 1548.8,740.79 " fill="none" id="Callflow-backto-ProxyBye" style="stroke:#181818;stroke-width:1.0;"/><polygon fill="none" points="1041.97,353.6,1056.1215,366.2386,1060.8744,355.22,1041.97,353.6" style="stroke:#181818;stroke-width:1.0;"/></g><text fill="#888888" font-family="sans-serif" font-size="10" lengthAdjust="spacing" textLength="176" x="763.5" y="969.148">UMLDoclet 2.1.2, PlantUML 1.2024.3</text><!--SRC=[nLTlJwCm77xlfsXokMJc7EPyIIuc6sDd8pSu2bxCOap7kjbOATVMwUBDptu5ncwef7Wk6Tb2MvxV_wU_0W00IABqFyC2Aow0RHySw4MGuUGMpmdWOcujkCWmioOCJuar4_YEF71nQqr99aY25PbQcU2FIol1ZCqOVv3WgLIINmd3Ke8W1uI4fWkg21YFQtFhHjsngoij1RQk9wcmeiaAF4iYA6ONH4ZAqnWERC1uEg-1kvZHX8JazpsHoWQ8PeY81IDglLG7CyupFms4Zj46ZlPweaVVNWcTrgI-w20J8cNd5UxG1WjEfnlqwite0prID-A-YhwQ6wBlxZhwZyO1QpM4RIhOAWP6fI8f4NPfnbjFFr3cDLXcF9MaZYxNwl09dxJLN41RwdtEIgwtqro08xf9GpviLYTjaEV9HDtd6QQCJ2lttf8gdxnW_5Q5ExMY7BvYrEFIJpiRZryowHygq7s6CS8wD5L7fHjn24-R1L11dPRmThmkq0bE4yByUwL9cavfEgzIciltianpHvENfqYhrBSZW9JGg7Pxn2cKLtkadEridvVgsh6_B5uRFhT3VhHvz9URpg67EqZ9knrQjJxVgkDiopqyaKgV6ceTabCXncFBEYv_bTHnzN07GMx0doJDXje-5ykYKkjnCpXMj69AGMEPBpJ05RqZ8i-XveqDegrPitwFp-TvhohlJRZIThxrxuZIWMgFNYurYCBH1OnSUxtv6a0zvzo0w5-QT3YzaUDw1b3eVeSeSaC3p0yYw8-G0HM4PhzHt4TE2FicxqT-18UN9eDntuFep822ew5lWCJ1e6SiIkWEZOb2C32LXQTASzneouEzlcTswMViekZQwNbUNoV_seX7WQwZsrh0WwDpTt2DN8Gq0GpWWUlrBZLwxPK1_Gj6PsU-byDBfzx6LmrgzQx6kDKNM_H3szxqlMz_kjt_-qImxTedm3viLo_W-x0DznPr-VQm3ylwm2_C9YJL7H_CECzlyGzlm1FDJd1YVRLEZa30SAhqAlYyAC_4pk5V]--></g></svg>