<?xml version="1.0" encoding="us-ascii" standalone="no"?><svg xmlns="http://www.w3.org/2000/svg" xmlns:xlink="http://www.w3.org/1999/xlink" contentStyleType="text/css" height="876px" preserveAspectRatio="none" style="width:489px;height:876px;background:#FFFFFF;" version="1.1" viewBox="0 0 489 876" width="489px" zoomAndPan="magnify"><defs/><g><!--class org.vorpal.blade.framework.logging.LogParameters--><a href="LogParameters.html" target="_top" title="LogParameters.html" xlink:actuate="onRequest" xlink:href="LogParameters.html" xlink:show="new" xlink:title="LogParameters.html" xlink:type="simple"><g id="elem_org.vorpal.blade.framework.logging.LogParameters"><rect codeLine="5" fill="#F1F1F1" height="746.7734" id="org.vorpal.blade.framework.logging.LogParameters" rx="2.5" ry="2.5" style="stroke:#181818;stroke-width:0.5;" width="470" x="12" y="7"/><ellipse cx="155.75" cy="26.1328" fill="#ADD1B2" rx="11" ry="11" style="stroke:#181818;stroke-width:1.0;"/><path d="M158.2231,32.2759 Q157.6421,32.5747 157.0029,32.7241 Q156.3638,32.8735 155.6582,32.8735 Q153.1514,32.8735 151.8315,31.2217 Q150.5117,29.5698 150.5117,26.4487 Q150.5117,23.3193 151.8315,21.6675 Q153.1514,20.0156 155.6582,20.0156 Q156.3638,20.0156 157.0112,20.165 Q157.6587,20.3145 158.2231,20.6133 L158.2231,23.3359 Q157.5923,22.7549 156.9988,22.4851 Q156.4053,22.2153 155.7744,22.2153 Q154.4297,22.2153 153.7449,23.282 Q153.0601,24.3486 153.0601,26.4487 Q153.0601,28.5405 153.7449,29.6072 Q154.4297,30.6738 155.7744,30.6738 Q156.4053,30.6738 156.9988,30.4041 Q157.5923,30.1343 158.2231,29.5532 Z " fill="#000000"/><text fill="#000000" font-family="sans-serif" font-size="14" lengthAdjust="spacing" textLength="102" x="212.25" y="25.5352">LogParameters</text><text fill="#000000" font-family="sans-serif" font-size="10" lengthAdjust="spacing" textLength="174" x="176.25" y="38.1563">org.vorpal.blade.framework.logging</text><line style="stroke:#181818;stroke-width:0.5;" x1="13" x2="481" y1="45.2656" y2="45.2656"/><polygon fill="none" points="23,54.0098,27,58.0098,23,62.0098,19,58.0098" style="stroke:#B38D22;stroke-width:1.0;"/><text fill="#000000" font-family="sans-serif" font-size="14" lengthAdjust="spacing" textLength="187" x="32" y="62.8008">useParentLogging: Boolean</text><polygon fill="none" points="23,70.498,27,74.498,23,78.498,19,74.498" style="stroke:#B38D22;stroke-width:1.0;"/><text fill="#000000" font-family="sans-serif" font-size="14" lengthAdjust="spacing" textLength="110" x="32" y="79.2891">directory: String</text><polygon fill="none" points="23,86.9863,27,90.9863,23,94.9863,19,90.9863" style="stroke:#B38D22;stroke-width:1.0;"/><text fill="#000000" font-family="sans-serif" font-size="14" lengthAdjust="spacing" textLength="108" x="32" y="95.7773">filename: String</text><polygon fill="none" points="23,103.4746,27,107.4746,23,111.4746,19,107.4746" style="stroke:#B38D22;stroke-width:1.0;"/><text fill="#000000" font-family="sans-serif" font-size="14" lengthAdjust="spacing" textLength="98" x="32" y="112.2656">fileSize: String</text><polygon fill="none" points="23,119.9629,27,123.9629,23,127.9629,19,123.9629" style="stroke:#B38D22;stroke-width:1.0;"/><text fill="#000000" font-family="sans-serif" font-size="14" lengthAdjust="spacing" textLength="120" x="32" y="128.7539">fileCount: Integer</text><polygon fill="none" points="23,136.4512,27,140.4512,23,144.4512,19,140.4512" style="stroke:#B38D22;stroke-width:1.0;"/><text fill="#000000" font-family="sans-serif" font-size="14" lengthAdjust="spacing" textLength="139" x="32" y="145.2422">appendFile: Boolean</text><polygon fill="none" points="23,152.9395,27,156.9395,23,160.9395,19,156.9395" style="stroke:#B38D22;stroke-width:1.0;"/><text fill="#000000" font-family="sans-serif" font-size="14" lengthAdjust="spacing" textLength="185" x="32" y="161.7305">loggingLevel: LoggingLevel</text><polygon fill="none" points="23,169.4277,27,173.4277,23,177.4277,19,173.4277" style="stroke:#B38D22;stroke-width:1.0;"/><text fill="#000000" font-family="sans-serif" font-size="14" lengthAdjust="spacing" textLength="311" x="32" y="178.2188">sequenceDiagramLoggingLevel: LoggingLevel</text><polygon fill="none" points="23,185.916,27,189.916,23,193.916,19,189.916" style="stroke:#B38D22;stroke-width:1.0;"/><text fill="#000000" font-family="sans-serif" font-size="14" lengthAdjust="spacing" textLength="281" x="32" y="194.707">configurationLoggingLevel: LoggingLevel</text><line style="stroke:#181818;stroke-width:0.5;" x1="13" x2="481" y1="201.6602" y2="201.6602"/><ellipse cx="23" cy="215.4043" fill="#84BE84" rx="3" ry="3" style="stroke:#038048;stroke-width:1.0;"/><text fill="#000000" font-family="sans-serif" font-size="14" lengthAdjust="spacing" textLength="112" x="32" y="219.1953">LogParameters()</text><ellipse cx="23" cy="231.8926" fill="#84BE84" rx="3" ry="3" style="stroke:#038048;stroke-width:1.0;"/><text fill="#000000" font-family="sans-serif" font-size="14" lengthAdjust="spacing" textLength="214" x="32" y="235.6836">LogParameters(LogParameters)</text><ellipse cx="23" cy="248.3809" fill="#84BE84" rx="3" ry="3" style="stroke:#038048;stroke-width:1.0;"/><text fill="#000000" font-family="sans-serif" font-size="14" lengthAdjust="spacing" textLength="220" x="32" y="252.1719">getLoggingLevel(): LoggingLevel</text><ellipse cx="23" cy="264.8691" fill="#84BE84" rx="3" ry="3" style="stroke:#038048;stroke-width:1.0;"/><text fill="#000000" font-family="sans-serif" font-size="14" lengthAdjust="spacing" textLength="220" x="32" y="268.6602">getUseParentLogging(): Boolean</text><ellipse cx="23" cy="281.3574" fill="#84BE84" rx="3" ry="3" style="stroke:#038048;stroke-width:1.0;"/><text fill="#000000" font-family="sans-serif" font-size="14" lengthAdjust="spacing" textLength="320" x="32" y="285.1484">setUseParentLogging(Boolean): LogParameters</text><ellipse cx="23" cy="297.8457" fill="#84BE84" rx="3" ry="3" style="stroke:#038048;stroke-width:1.0;"/><text fill="#000000" font-family="sans-serif" font-size="14" lengthAdjust="spacing" textLength="143" x="32" y="301.6367">getDirectory(): String</text><ellipse cx="23" cy="314.334" fill="#84BE84" rx="3" ry="3" style="stroke:#038048;stroke-width:1.0;"/><text fill="#000000" font-family="sans-serif" font-size="14" lengthAdjust="spacing" textLength="243" x="32" y="318.125">setDirectory(String): LogParameters</text><ellipse cx="23" cy="330.8223" fill="#84BE84" rx="3" ry="3" style="stroke:#038048;stroke-width:1.0;"/><text fill="#000000" font-family="sans-serif" font-size="14" lengthAdjust="spacing" textLength="144" x="32" y="334.6133">getFileName(): String</text><ellipse cx="23" cy="347.3105" fill="#84BE84" rx="3" ry="3" style="stroke:#038048;stroke-width:1.0;"/><text fill="#000000" font-family="sans-serif" font-size="14" lengthAdjust="spacing" textLength="244" x="32" y="351.1016">setFileName(String): LogParameters</text><ellipse cx="23" cy="363.7988" fill="#84BE84" rx="3" ry="3" style="stroke:#038048;stroke-width:1.0;"/><text fill="#000000" font-family="sans-serif" font-size="14" lengthAdjust="spacing" textLength="133" x="32" y="367.5898">getFileSize(): String</text><ellipse cx="23" cy="380.2871" fill="#84BE84" rx="3" ry="3" style="stroke:#038048;stroke-width:1.0;"/><text fill="#000000" font-family="sans-serif" font-size="14" lengthAdjust="spacing" textLength="233" x="32" y="384.0781">setFileSize(String): LogParameters</text><ellipse cx="23" cy="396.7754" fill="#84BE84" rx="3" ry="3" style="stroke:#038048;stroke-width:1.0;"/><text fill="#000000" font-family="sans-serif" font-size="14" lengthAdjust="spacing" textLength="155" x="32" y="400.5664">getFileCount(): Integer</text><ellipse cx="23" cy="413.2637" fill="#84BE84" rx="3" ry="3" style="stroke:#038048;stroke-width:1.0;"/><text fill="#000000" font-family="sans-serif" font-size="14" lengthAdjust="spacing" textLength="255" x="32" y="417.0547">setFileCount(Integer): LogParameters</text><ellipse cx="23" cy="429.752" fill="#84BE84" rx="3" ry="3" style="stroke:#038048;stroke-width:1.0;"/><text fill="#000000" font-family="sans-serif" font-size="14" lengthAdjust="spacing" textLength="173" x="32" y="433.543">getAppendFile(): Boolean</text><ellipse cx="23" cy="446.2402" fill="#84BE84" rx="3" ry="3" style="stroke:#038048;stroke-width:1.0;"/><text fill="#000000" font-family="sans-serif" font-size="14" lengthAdjust="spacing" textLength="273" x="32" y="450.0313">setAppendFile(Boolean): LogParameters</text><ellipse cx="23" cy="462.7285" fill="#84BE84" rx="3" ry="3" style="stroke:#038048;stroke-width:1.0;"/><text fill="#000000" font-family="sans-serif" font-size="14" lengthAdjust="spacing" textLength="344" x="32" y="466.5195">getSequenceDiagramLoggingLevel(): LoggingLevel</text><ellipse cx="23" cy="479.2168" fill="#84BE84" rx="3" ry="3" style="stroke:#038048;stroke-width:1.0;"/><text fill="#000000" font-family="sans-serif" font-size="14" lengthAdjust="spacing" textLength="444" x="32" y="483.0078">setSequenceDiagramLoggingLevel(LoggingLevel): LogParameters</text><ellipse cx="23" cy="495.7051" fill="#84BE84" rx="3" ry="3" style="stroke:#038048;stroke-width:1.0;"/><text fill="#000000" font-family="sans-serif" font-size="14" lengthAdjust="spacing" textLength="315" x="32" y="499.4961">resolveSequenceDiagramLoggingLevel(): Level</text><ellipse cx="23" cy="512.1934" fill="#84BE84" rx="3" ry="3" style="stroke:#038048;stroke-width:1.0;"/><text fill="#000000" font-family="sans-serif" font-size="14" lengthAdjust="spacing" textLength="270" x="32" y="515.9844">parseLoggingLevel(LoggingLevel): Level</text><ellipse cx="23" cy="528.6816" fill="#84BE84" rx="3" ry="3" style="stroke:#038048;stroke-width:1.0;"/><text fill="#000000" font-family="sans-serif" font-size="14" lengthAdjust="spacing" textLength="316" x="32" y="532.4727">getConfigurationLoggingLevel(): LoggingLevel</text><ellipse cx="23" cy="545.1699" fill="#84BE84" rx="3" ry="3" style="stroke:#038048;stroke-width:1.0;"/><text fill="#000000" font-family="sans-serif" font-size="14" lengthAdjust="spacing" textLength="416" x="32" y="548.9609">setConfigurationLoggingLevel(LoggingLevel): LogParameters</text><ellipse cx="23" cy="561.6582" fill="#84BE84" rx="3" ry="3" style="stroke:#038048;stroke-width:1.0;"/><text fill="#000000" font-family="sans-serif" font-size="14" lengthAdjust="spacing" textLength="287" x="32" y="565.4492">resolveConfigurationLoggingLevel(): Level</text><ellipse cx="23" cy="578.1465" fill="#84BE84" rx="3" ry="3" style="stroke:#038048;stroke-width:1.0;"/><text fill="#000000" font-family="sans-serif" font-size="14" lengthAdjust="spacing" textLength="320" x="32" y="581.9375">setLoggingLevel(LoggingLevel): LogParameters</text><rect fill="#F24D5C" height="6" style="stroke:#C82930;stroke-width:1.0;" width="6" x="20" y="591.6348"/><text fill="#000000" font-family="sans-serif" font-size="14" lengthAdjust="spacing" text-decoration="underline" textLength="292" x="32" y="598.4258">getAttribute(ServletContext, String): String</text><ellipse cx="23" cy="611.123" fill="#84BE84" rx="3" ry="3" style="stroke:#038048;stroke-width:1.0;"/><text fill="#000000" font-family="sans-serif" font-size="14" lengthAdjust="spacing" text-decoration="underline" textLength="321" x="32" y="614.9141">resolveVariables(ServletContext, String): String</text><ellipse cx="23" cy="627.6113" fill="#84BE84" rx="3" ry="3" style="stroke:#038048;stroke-width:1.0;"/><text fill="#000000" font-family="sans-serif" font-size="14" lengthAdjust="spacing" textLength="271" x="32" y="631.4023">resolveDirectory(ServletContext): String</text><ellipse cx="23" cy="644.0996" fill="#84BE84" rx="3" ry="3" style="stroke:#038048;stroke-width:1.0;"/><text fill="#000000" font-family="sans-serif" font-size="14" lengthAdjust="spacing" textLength="271" x="32" y="647.8906">resolveFilename(ServletContext): String</text><ellipse cx="23" cy="660.5879" fill="#84BE84" rx="3" ry="3" style="stroke:#038048;stroke-width:1.0;"/><text fill="#000000" font-family="sans-serif" font-size="14" lengthAdjust="spacing" textLength="247" x="32" y="664.3789">resolveUseParentLogging(): Boolean</text><ellipse cx="23" cy="677.0762" fill="#84BE84" rx="3" ry="3" style="stroke:#038048;stroke-width:1.0;"/><text fill="#000000" font-family="sans-serif" font-size="14" lengthAdjust="spacing" textLength="168" x="32" y="680.8672">resolveFileSize(): Integer</text><ellipse cx="23" cy="693.5645" fill="#84BE84" rx="3" ry="3" style="stroke:#038048;stroke-width:1.0;"/><text fill="#000000" font-family="sans-serif" font-size="14" lengthAdjust="spacing" textLength="182" x="32" y="697.3555">resolveFileCount(): Integer</text><ellipse cx="23" cy="710.0527" fill="#84BE84" rx="3" ry="3" style="stroke:#038048;stroke-width:1.0;"/><text fill="#000000" font-family="sans-serif" font-size="14" lengthAdjust="spacing" textLength="200" x="32" y="713.8438">resolveFileAppend(): Boolean</text><ellipse cx="23" cy="726.541" fill="#84BE84" rx="3" ry="3" style="stroke:#038048;stroke-width:1.0;"/><text fill="#000000" font-family="sans-serif" font-size="14" lengthAdjust="spacing" textLength="191" x="32" y="730.332">resolveLoggingLevel(): Level</text><ellipse cx="23" cy="743.0293" fill="#84BE84" rx="3" ry="3" style="stroke:#038048;stroke-width:1.0;"/><text fill="#000000" font-family="sans-serif" font-size="14" lengthAdjust="spacing" text-decoration="underline" textLength="132" x="32" y="746.8203">main(String[]): void</text></g></a><!--class org.vorpal.blade.framework.logging.LogParameters.LoggingLevel--><a href="LogParameters.LoggingLevel.html" target="_top" title="LogParameters.LoggingLevel.html" xlink:actuate="onRequest" xlink:href="LogParameters.LoggingLevel.html" xlink:show="new" xlink:title="LogParameters.LoggingLevel.html" xlink:type="simple"><g id="elem_org.vorpal.blade.framework.logging.LogParameters.LoggingLevel"><rect codeLine="49" fill="#F1F1F1" height="38.2656" id="org.vorpal.blade.framework.logging.LogParameters.LoggingLevel" rx="2.5" ry="2.5" style="stroke:#181818;stroke-width:0.5;" width="228" x="7" y="813.77"/><ellipse cx="22" cy="832.9028" fill="#EB937F" rx="11" ry="11" style="stroke:#181818;stroke-width:1.0;"/><path d="M25.6143,839.4028 L17.8945,839.4028 L17.8945,827.0097 L25.6143,827.0097 L25.6143,829.1679 L20.3433,829.1679 L20.3433,831.8408 L25.1162,831.8408 L25.1162,833.999 L20.3433,833.999 L20.3433,837.2446 L25.6143,837.2446 Z " fill="#000000"/><text fill="#000000" font-family="sans-serif" font-size="14" lengthAdjust="spacing" textLength="196" x="36" y="832.3052">LogParameters.LoggingLevel</text><text fill="#000000" font-family="sans-serif" font-size="10" lengthAdjust="spacing" textLength="174" x="47" y="844.9263">org.vorpal.blade.framework.logging</text></g></a><!--class org.vorpal.blade.framework.logging.LogParameters.Unit--><a href="LogParameters.Unit.html" target="_top" title="LogParameters.Unit.html" xlink:actuate="onRequest" xlink:href="LogParameters.Unit.html" xlink:show="new" xlink:title="LogParameters.Unit.html" xlink:type="simple"><g id="elem_org.vorpal.blade.framework.logging.LogParameters.Unit"><rect codeLine="50" fill="#F1F1F1" height="38.2656" id="org.vorpal.blade.framework.logging.LogParameters.Unit" rx="2.5" ry="2.5" style="stroke:#181818;stroke-width:0.5;" width="206" x="270" y="813.77"/><ellipse cx="285" cy="832.9028" fill="#EB937F" rx="11" ry="11" style="stroke:#181818;stroke-width:1.0;"/><path d="M288.6143,839.4028 L280.8945,839.4028 L280.8945,827.0097 L288.6143,827.0097 L288.6143,829.1679 L283.3433,829.1679 L283.3433,831.8408 L288.1162,831.8408 L288.1162,833.999 L283.3433,833.999 L283.3433,837.2446 L288.6143,837.2446 Z " fill="#000000"/><text fill="#000000" font-family="sans-serif" font-size="14" lengthAdjust="spacing" textLength="134" x="319" y="832.3052">LogParameters.Unit</text><text fill="#000000" font-family="sans-serif" font-size="10" lengthAdjust="spacing" textLength="174" x="299" y="844.9263">org.vorpal.blade.framework.logging</text></g></a><!--reverse link org.vorpal.blade.framework.logging.LogParameters to org.vorpal.blade.framework.logging.LogParameters.LoggingLevel--><g id="link_org.vorpal.blade.framework.logging.LogParameters_org.vorpal.blade.framework.logging.LogParameters.LoggingLevel"><path codeLine="52" d="M138.4235,769.6095 C131.4535,794.5495 129.99,799.78 126.15,813.5 " fill="none" id="org.vorpal.blade.framework.logging.LogParameters-backto-org.vorpal.blade.framework.logging.LogParameters.LoggingLevel" style="stroke:#181818;stroke-width:1.0;"/><ellipse cx="140.5767" cy="761.9048" fill="#FFFFFF" rx="8" ry="8" style="stroke:#181818;stroke-width:1.0;"/><line style="stroke:#181818;stroke-width:1.0;" x1="138.4235" x2="142.73" y1="769.6095" y2="754.2"/><line style="stroke:#181818;stroke-width:1.0;" x1="132.872" x2="148.2815" y1="759.7515" y2="764.058"/></g><!--reverse link org.vorpal.blade.framework.logging.LogParameters to org.vorpal.blade.framework.logging.LogParameters.Unit--><g id="link_org.vorpal.blade.framework.logging.LogParameters_org.vorpal.blade.framework.logging.LogParameters.Unit"><path codeLine="53" d="M355.5765,769.6095 C362.5465,794.5495 364.01,799.78 367.85,813.5 " fill="none" id="org.vorpal.blade.framework.logging.LogParameters-backto-org.vorpal.blade.framework.logging.LogParameters.Unit" style="stroke:#181818;stroke-width:1.0;"/><ellipse cx="353.4233" cy="761.9048" fill="#FFFFFF" rx="8" ry="8" style="stroke:#181818;stroke-width:1.0;"/><line style="stroke:#181818;stroke-width:1.0;" x1="355.5765" x2="351.27" y1="769.6095" y2="754.2"/><line style="stroke:#181818;stroke-width:1.0;" x1="345.7185" x2="361.128" y1="764.058" y2="759.7515"/></g><text fill="#888888" font-family="sans-serif" font-size="10" lengthAdjust="spacing" textLength="176" x="149.5" y="866.7036">UMLDoclet 2.1.2, PlantUML 1.2024.3</text><!--SRC=[lLRVQzim47xVNt6q31BIcBNiAOp2rb0OUACGifSq3ufzSSHaoPDaRrtf_px9F-8VYHo7ikOXGVg- - -vEToS5042X1avYL0a9S849aKGB2LnmV6TWsD4G0UD4Fy6M8WjLTpT6lHDcEzyF654ABZuf-XTdrnzlVH4z64N3GQaUURd_uLR8oCk4J0ZpDeo4w6qjwRUGFpqceeZow0A8WjCqh-K1LglMsjlfcAtNy9m7Pp-NgKA38zT-8J23Bq8m9BocX5HYO0xXQGOBBGsdXhQKeJsjuyZ2PdSKkHCfrpFuoZL6A6kC90doyDumZiHHfkXZXcm6VcDLSnJ-If47EASaCbdx0qm2mRSqIasTgU0332Qj8nsDNK1hrM15g9kwex7BZo4kEzMnvEwvJDGHNaagjEimMkBpggvMjLCbArhZ1TWhPclstG0EhJqyKCgsJezK3W-KodlDQdMxhH8h22NQA_TvtvwkGZGOGqgmSBUhkozKlrrpuNOkKGcMuQa0sfxDRQYmrzb11z-vfgitFxVLMTdrEp_mUhwZPwMDTl02KziTsZJa9jMcCr5cBCz2unzz1VjExRJpthmA-0UHb6mOgi4IbMLZM5kMRelxykuUR33eCcg8LpDyC7SDZdiu6wHYgFhSzTUsFkQOK5xU6wkruMM2XZdj9Vz6diQkrzfh-lZ_JtVBtS4xtWJBH_rq0ajEzHi4RjqS16mtgq3pIC_-ApEPJbztY6_ercPR_Fypqu8IjaBOd-KtVou2CsfmurrxDrVmm0ZNPXVUPyRCt56ZyJy0]--></g></svg>