<?xml version="1.0" encoding="us-ascii" standalone="no"?><svg xmlns="http://www.w3.org/2000/svg" xmlns:xlink="http://www.w3.org/1999/xlink" contentStyleType="text/css" height="420px" preserveAspectRatio="none" style="width:943px;height:420px;background:#FFFFFF;" version="1.1" viewBox="0 0 943 420" width="943px" zoomAndPan="magnify"><defs/><g><!--cluster org.vorpal.blade.services.tpcc.v1.dialog--><g id="cluster_org.vorpal.blade.services.tpcc.v1.dialog"><path d="M8.5,6 L284.5,6 A3.75,3.75 0 0 1 287,8.5 L294,28.4883 L933.5,28.4883 A2.5,2.5 0 0 1 936,30.9883 L936,391.87 A2.5,2.5 0 0 1 933.5,394.37 L8.5,394.37 A2.5,2.5 0 0 1 6,391.87 L6,8.5 A2.5,2.5 0 0 1 8.5,6 " fill="none" style="stroke:#000000;stroke-width:1.5;"/><line style="stroke:#000000;stroke-width:1.5;" x1="6" x2="294" y1="28.4883" y2="28.4883"/><text fill="#000000" font-family="sans-serif" font-size="14" font-weight="bold" lengthAdjust="spacing" textLength="275" x="10" y="21.5352">org.vorpal.blade.services.tpcc.v1.dialog</text></g><!--class DialogResponse--><a href="DialogResponse.html" target="_top" title="DialogResponse.html" xlink:actuate="onRequest" xlink:href="DialogResponse.html" xlink:show="new" xlink:title="DialogResponse.html" xlink:type="simple"><g id="elem_DialogResponse"><rect codeLine="5" fill="#F1F1F1" height="130.4414" id="DialogResponse" rx="2.5" ry="2.5" style="stroke:#181818;stroke-width:0.5;" width="241" x="21.5" y="41"/><ellipse cx="82.75" cy="57" fill="#ADD1B2" rx="11" ry="11" style="stroke:#181818;stroke-width:1.0;"/><path d="M85.2231,63.1431 Q84.6421,63.4419 84.0029,63.5913 Q83.3638,63.7407 82.6582,63.7407 Q80.1514,63.7407 78.8315,62.0889 Q77.5117,60.437 77.5117,57.3159 Q77.5117,54.1865 78.8315,52.5347 Q80.1514,50.8828 82.6582,50.8828 Q83.3638,50.8828 84.0112,51.0322 Q84.6587,51.1816 85.2231,51.4805 L85.2231,54.2031 Q84.5923,53.6221 83.9988,53.3523 Q83.4053,53.0825 82.7744,53.0825 Q81.4297,53.0825 80.7449,54.1492 Q80.0601,55.2158 80.0601,57.3159 Q80.0601,59.4077 80.7449,60.4744 Q81.4297,61.541 82.7744,61.541 Q83.4053,61.541 83.9988,61.2712 Q84.5923,61.0015 85.2231,60.4204 Z " fill="#000000"/><text fill="#000000" font-family="sans-serif" font-size="14" lengthAdjust="spacing" textLength="110" x="103.25" y="62.291">DialogResponse</text><line style="stroke:#181818;stroke-width:0.5;" x1="22.5" x2="261.5" y1="73" y2="73"/><polygon fill="none" points="32.5,82.7441,28.5,88.7441,36.5,88.7441" style="stroke:#1963A0;stroke-width:1.0;"/><text fill="#000000" font-family="sans-serif" font-size="14" lengthAdjust="spacing" textLength="67" x="41.5" y="90.5352">status: int</text><polygon fill="none" points="32.5,99.2324,28.5,105.2324,36.5,105.2324" style="stroke:#1963A0;stroke-width:1.0;"/><text fill="#000000" font-family="sans-serif" font-size="14" lengthAdjust="spacing" textLength="142" x="41.5" y="107.0234">reasonPhrase: String</text><ellipse cx="32.5" cy="119.7207" fill="none" rx="3" ry="3" style="stroke:#038048;stroke-width:1.0;"/><text fill="#000000" font-family="sans-serif" font-size="14" lengthAdjust="spacing" textLength="215" x="41.5" y="123.5117">attributes: Map&lt;String, String&gt;</text><line style="stroke:#181818;stroke-width:0.5;" x1="22.5" x2="261.5" y1="130.4648" y2="130.4648"/><ellipse cx="32.5" cy="144.209" fill="#84BE84" rx="3" ry="3" style="stroke:#038048;stroke-width:1.0;"/><text fill="#000000" font-family="sans-serif" font-size="14" lengthAdjust="spacing" textLength="120" x="41.5" y="148">DialogResponse()</text><ellipse cx="32.5" cy="160.6973" fill="#84BE84" rx="3" ry="3" style="stroke:#038048;stroke-width:1.0;"/><text fill="#000000" font-family="sans-serif" font-size="14" lengthAdjust="spacing" textLength="193" x="41.5" y="164.4883">DialogResponse(SipSession)</text></g></a><!--class DialogProperties--><a href="DialogProperties.html" target="_top" title="DialogProperties.html" xlink:actuate="onRequest" xlink:href="DialogProperties.html" xlink:show="new" xlink:title="DialogProperties.html" xlink:type="simple"><g id="elem_DialogProperties"><rect codeLine="13" fill="#F1F1F1" height="97.4648" id="DialogProperties" rx="2.5" ry="2.5" style="stroke:#181818;stroke-width:0.5;" width="241" x="297.5" y="57.49"/><ellipse cx="356.75" cy="73.49" fill="#ADD1B2" rx="11" ry="11" style="stroke:#181818;stroke-width:1.0;"/><path d="M359.2231,79.6331 Q358.6421,79.9319 358.0029,80.0813 Q357.3638,80.2307 356.6582,80.2307 Q354.1514,80.2307 352.8315,78.5789 Q351.5117,76.927 351.5117,73.8059 Q351.5117,70.6765 352.8315,69.0247 Q354.1514,67.3728 356.6582,67.3728 Q357.3638,67.3728 358.0112,67.5222 Q358.6587,67.6716 359.2231,67.9705 L359.2231,70.6931 Q358.5923,70.1121 357.9988,69.8423 Q357.4053,69.5725 356.7744,69.5725 Q355.4297,69.5725 354.7449,70.6392 Q354.0601,71.7058 354.0601,73.8059 Q354.0601,75.8977 354.7449,76.9644 Q355.4297,78.031 356.7744,78.031 Q357.4053,78.031 357.9988,77.7612 Q358.5923,77.4915 359.2231,76.9104 Z " fill="#000000"/><text fill="#000000" font-family="sans-serif" font-size="14" lengthAdjust="spacing" textLength="114" x="377.25" y="78.781">DialogProperties</text><line style="stroke:#181818;stroke-width:0.5;" x1="298.5" x2="537.5" y1="89.49" y2="89.49"/><ellipse cx="308.5" cy="103.2341" fill="none" rx="3" ry="3" style="stroke:#038048;stroke-width:1.0;"/><text fill="#000000" font-family="sans-serif" font-size="14" lengthAdjust="spacing" textLength="132" x="317.5" y="107.0252">remoteParty: String</text><ellipse cx="308.5" cy="119.7224" fill="none" rx="3" ry="3" style="stroke:#038048;stroke-width:1.0;"/><text fill="#000000" font-family="sans-serif" font-size="14" lengthAdjust="spacing" textLength="215" x="317.5" y="123.5134">attributes: Map&lt;String, String&gt;</text><line style="stroke:#181818;stroke-width:0.5;" x1="298.5" x2="537.5" y1="130.4666" y2="130.4666"/><ellipse cx="308.5" cy="144.2107" fill="#84BE84" rx="3" ry="3" style="stroke:#038048;stroke-width:1.0;"/><text fill="#000000" font-family="sans-serif" font-size="14" lengthAdjust="spacing" textLength="197" x="317.5" y="148.0017">DialogProperties(SipSession)</text></g></a><!--class DialogConnectRequest--><a href="DialogConnectRequest.html" target="_top" title="DialogConnectRequest.html" xlink:actuate="onRequest" xlink:href="DialogConnectRequest.html" xlink:show="new" xlink:title="DialogConnectRequest.html" xlink:type="simple"><g id="elem_DialogConnectRequest"><rect codeLine="19" fill="#F1F1F1" height="97.4648" id="DialogConnectRequest" rx="2.5" ry="2.5" style="stroke:#181818;stroke-width:0.5;" width="346" x="574" y="57.49"/><ellipse cx="664.75" cy="73.49" fill="#ADD1B2" rx="11" ry="11" style="stroke:#181818;stroke-width:1.0;"/><path d="M667.2231,79.6331 Q666.6421,79.9319 666.0029,80.0813 Q665.3638,80.2307 664.6582,80.2307 Q662.1514,80.2307 660.8315,78.5789 Q659.5117,76.927 659.5117,73.8059 Q659.5117,70.6765 660.8315,69.0247 Q662.1514,67.3728 664.6582,67.3728 Q665.3638,67.3728 666.0112,67.5222 Q666.6587,67.6716 667.2231,67.9705 L667.2231,70.6931 Q666.5923,70.1121 665.9988,69.8423 Q665.4053,69.5725 664.7744,69.5725 Q663.4297,69.5725 662.7449,70.6392 Q662.0601,71.7058 662.0601,73.8059 Q662.0601,75.8977 662.7449,76.9644 Q663.4297,78.031 664.7744,78.031 Q665.4053,78.031 665.9988,77.7612 Q666.5923,77.4915 667.2231,76.9104 Z " fill="#000000"/><text fill="#000000" font-family="sans-serif" font-size="14" lengthAdjust="spacing" textLength="156" x="685.25" y="78.781">DialogConnectRequest</text><line style="stroke:#181818;stroke-width:0.5;" x1="575" x2="919" y1="89.49" y2="89.49"/><ellipse cx="585" cy="103.2341" fill="none" rx="3" ry="3" style="stroke:#038048;stroke-width:1.0;"/><text fill="#000000" font-family="sans-serif" font-size="14" lengthAdjust="spacing" textLength="109" x="594" y="107.0252">dialogs: String[]</text><line style="stroke:#181818;stroke-width:0.5;" x1="575" x2="919" y1="113.9783" y2="113.9783"/><ellipse cx="585" cy="127.7224" fill="#84BE84" rx="3" ry="3" style="stroke:#038048;stroke-width:1.0;"/><text fill="#000000" font-family="sans-serif" font-size="14" lengthAdjust="spacing" textLength="166" x="594" y="131.5134">DialogConnectRequest()</text><ellipse cx="585" cy="144.2107" fill="#84BE84" rx="3" ry="3" style="stroke:#038048;stroke-width:1.0;"/><text fill="#000000" font-family="sans-serif" font-size="14" lengthAdjust="spacing" textLength="320" x="594" y="148.0017">DialogConnectRequest(SipSession, SipSession)</text></g></a><!--class DialogPutAttributes--><a href="DialogPutAttributes.html" target="_top" title="DialogPutAttributes.html" xlink:actuate="onRequest" xlink:href="DialogPutAttributes.html" xlink:show="new" xlink:title="DialogPutAttributes.html" xlink:type="simple"><g id="elem_DialogPutAttributes"><rect codeLine="25" fill="#F1F1F1" height="64.4883" id="DialogPutAttributes" rx="2.5" ry="2.5" style="stroke:#181818;stroke-width:0.5;" width="241" x="21.5" y="272.66"/><ellipse cx="70.75" cy="288.66" fill="#ADD1B2" rx="11" ry="11" style="stroke:#181818;stroke-width:1.0;"/><path d="M73.2231,294.8031 Q72.6421,295.1019 72.0029,295.2513 Q71.3638,295.4007 70.6582,295.4007 Q68.1514,295.4007 66.8315,293.7489 Q65.5117,292.097 65.5117,288.9759 Q65.5117,285.8465 66.8315,284.1947 Q68.1514,282.5428 70.6582,282.5428 Q71.3638,282.5428 72.0112,282.6922 Q72.6587,282.8416 73.2231,283.1405 L73.2231,285.8631 Q72.5923,285.2821 71.9988,285.0123 Q71.4053,284.7425 70.7744,284.7425 Q69.4297,284.7425 68.7449,285.8092 Q68.0601,286.8758 68.0601,288.9759 Q68.0601,291.0677 68.7449,292.1344 Q69.4297,293.201 70.7744,293.201 Q71.4053,293.201 71.9988,292.9312 Q72.5923,292.6615 73.2231,292.0804 Z " fill="#000000"/><text fill="#000000" font-family="sans-serif" font-size="14" lengthAdjust="spacing" textLength="134" x="91.25" y="293.951">DialogPutAttributes</text><line style="stroke:#181818;stroke-width:0.5;" x1="22.5" x2="261.5" y1="304.66" y2="304.66"/><ellipse cx="32.5" cy="318.4041" fill="none" rx="3" ry="3" style="stroke:#038048;stroke-width:1.0;"/><text fill="#000000" font-family="sans-serif" font-size="14" lengthAdjust="spacing" textLength="215" x="41.5" y="322.1952">attributes: Map&lt;String, String&gt;</text><line style="stroke:#181818;stroke-width:0.5;" x1="22.5" x2="261.5" y1="329.1483" y2="329.1483"/></g></a><!--class DialogRequest--><a href="DialogRequest.html" target="_top" title="DialogRequest.html" xlink:actuate="onRequest" xlink:href="DialogRequest.html" xlink:show="new" xlink:title="DialogRequest.html" xlink:type="simple"><g id="elem_DialogRequest"><rect codeLine="29" fill="#F1F1F1" height="130.4414" id="DialogRequest" rx="2.5" ry="2.5" style="stroke:#181818;stroke-width:0.5;" width="241" x="297.5" y="239.68"/><ellipse cx="364.25" cy="255.68" fill="#ADD1B2" rx="11" ry="11" style="stroke:#181818;stroke-width:1.0;"/><path d="M366.7231,261.8231 Q366.1421,262.1219 365.5029,262.2713 Q364.8638,262.4207 364.1582,262.4207 Q361.6514,262.4207 360.3315,260.7689 Q359.0117,259.117 359.0117,255.9959 Q359.0117,252.8665 360.3315,251.2147 Q361.6514,249.5628 364.1582,249.5628 Q364.8638,249.5628 365.5112,249.7122 Q366.1587,249.8616 366.7231,250.1605 L366.7231,252.8831 Q366.0923,252.3021 365.4988,252.0323 Q364.9053,251.7625 364.2744,251.7625 Q362.9297,251.7625 362.2449,252.8292 Q361.5601,253.8958 361.5601,255.9959 Q361.5601,258.0877 362.2449,259.1544 Q362.9297,260.221 364.2744,260.221 Q364.9053,260.221 365.4988,259.9512 Q366.0923,259.6815 366.7231,259.1004 Z " fill="#000000"/><text fill="#000000" font-family="sans-serif" font-size="14" lengthAdjust="spacing" textLength="99" x="384.75" y="260.971">DialogRequest</text><line style="stroke:#181818;stroke-width:0.5;" x1="298.5" x2="537.5" y1="271.68" y2="271.68"/><ellipse cx="308.5" cy="285.4241" fill="none" rx="3" ry="3" style="stroke:#038048;stroke-width:1.0;"/><text fill="#000000" font-family="sans-serif" font-size="14" lengthAdjust="spacing" textLength="124" x="317.5" y="289.2152">callbackUrl: String</text><ellipse cx="308.5" cy="301.9124" fill="none" rx="3" ry="3" style="stroke:#038048;stroke-width:1.0;"/><text fill="#000000" font-family="sans-serif" font-size="14" lengthAdjust="spacing" textLength="121" x="317.5" y="305.7034">requestUri: String</text><ellipse cx="308.5" cy="318.4007" fill="none" rx="3" ry="3" style="stroke:#038048;stroke-width:1.0;"/><text fill="#000000" font-family="sans-serif" font-size="14" lengthAdjust="spacing" textLength="132" x="317.5" y="322.1917">remoteParty: String</text><ellipse cx="308.5" cy="334.889" fill="none" rx="3" ry="3" style="stroke:#038048;stroke-width:1.0;"/><text fill="#000000" font-family="sans-serif" font-size="14" lengthAdjust="spacing" textLength="115" x="317.5" y="338.68">localParty: String</text><ellipse cx="308.5" cy="351.3773" fill="none" rx="3" ry="3" style="stroke:#038048;stroke-width:1.0;"/><text fill="#000000" font-family="sans-serif" font-size="14" lengthAdjust="spacing" textLength="215" x="317.5" y="355.1683">attributes: Map&lt;String, String&gt;</text><line style="stroke:#181818;stroke-width:0.5;" x1="298.5" x2="537.5" y1="362.1214" y2="362.1214"/></g></a><!--class Dialog--><a href="Dialog.html" target="_top" title="Dialog.html" xlink:actuate="onRequest" xlink:href="Dialog.html" xlink:show="new" xlink:title="Dialog.html" xlink:type="simple"><g id="elem_Dialog"><rect codeLine="37" fill="#F1F1F1" height="146.9297" id="Dialog" rx="2.5" ry="2.5" style="stroke:#181818;stroke-width:0.5;" width="241" x="573.5" y="231.44"/><ellipse cx="667.75" cy="247.44" fill="#ADD1B2" rx="11" ry="11" style="stroke:#181818;stroke-width:1.0;"/><path d="M670.2231,253.5831 Q669.6421,253.8819 669.0029,254.0313 Q668.3638,254.1807 667.6582,254.1807 Q665.1514,254.1807 663.8315,252.5289 Q662.5117,250.877 662.5117,247.7559 Q662.5117,244.6265 663.8315,242.9747 Q665.1514,241.3228 667.6582,241.3228 Q668.3638,241.3228 669.0112,241.4722 Q669.6587,241.6216 670.2231,241.9205 L670.2231,244.6431 Q669.5923,244.0621 668.9988,243.7923 Q668.4053,243.5225 667.7744,243.5225 Q666.4297,243.5225 665.7449,244.5892 Q665.0601,245.6558 665.0601,247.7559 Q665.0601,249.8477 665.7449,250.9144 Q666.4297,251.981 667.7744,251.981 Q668.4053,251.981 668.9988,251.7112 Q669.5923,251.4415 670.2231,250.8604 Z " fill="#000000"/><text fill="#000000" font-family="sans-serif" font-size="14" lengthAdjust="spacing" textLength="44" x="688.25" y="252.731">Dialog</text><line style="stroke:#181818;stroke-width:0.5;" x1="574.5" x2="813.5" y1="263.44" y2="263.44"/><ellipse cx="584.5" cy="277.1841" fill="none" rx="3" ry="3" style="stroke:#038048;stroke-width:1.0;"/><text fill="#000000" font-family="sans-serif" font-size="14" lengthAdjust="spacing" textLength="121" x="593.5" y="280.9752">requestUri: String</text><ellipse cx="584.5" cy="293.6724" fill="none" rx="3" ry="3" style="stroke:#038048;stroke-width:1.0;"/><text fill="#000000" font-family="sans-serif" font-size="14" lengthAdjust="spacing" textLength="132" x="593.5" y="297.4634">remoteParty: String</text><ellipse cx="584.5" cy="310.1607" fill="none" rx="3" ry="3" style="stroke:#038048;stroke-width:1.0;"/><text fill="#000000" font-family="sans-serif" font-size="14" lengthAdjust="spacing" textLength="115" x="593.5" y="313.9517">localParty: String</text><ellipse cx="584.5" cy="326.649" fill="none" rx="3" ry="3" style="stroke:#038048;stroke-width:1.0;"/><text fill="#000000" font-family="sans-serif" font-size="14" lengthAdjust="spacing" textLength="215" x="593.5" y="330.44">attributes: Map&lt;String, String&gt;</text><line style="stroke:#181818;stroke-width:0.5;" x1="574.5" x2="813.5" y1="337.3931" y2="337.3931"/><ellipse cx="584.5" cy="351.1373" fill="#84BE84" rx="3" ry="3" style="stroke:#038048;stroke-width:1.0;"/><text fill="#000000" font-family="sans-serif" font-size="14" lengthAdjust="spacing" textLength="54" x="593.5" y="354.9283">Dialog()</text><ellipse cx="584.5" cy="367.6255" fill="#84BE84" rx="3" ry="3" style="stroke:#038048;stroke-width:1.0;"/><text fill="#000000" font-family="sans-serif" font-size="14" lengthAdjust="spacing" textLength="127" x="593.5" y="371.4166">Dialog(SipSession)</text></g></a><text fill="#888888" font-family="sans-serif" font-size="10" lengthAdjust="spacing" textLength="176" x="376.5" y="410.038">UMLDoclet 2.1.2, PlantUML 1.2024.3</text><!--SRC=[pLHHQy8m47xVhxYNWQ84zB6CmPYF4uhYa_WGuws6nQIxN0jZkD- -QBVMZDPDy661jl3TTybzTryA0E2HmvDBakm8akJc9e2GI_KYCmH7cIWTvTA8jP4R51wfr0gzu5mfKOx4HalZCdYlyWvB6UazJ8xu37tkh4TOBcD0R7bdLgkG1oVhmxFamYUWBSS1GkcTJRSaFIOmPz8sYnW3oG5S5umXVIhpkuep_EBUn-Iuc5x_R7IkypbwhvrjUFjslIcv78ar-bfn0xLh7X3k76CgYT-kfgmvz9Bg7vsrg7Y6hmLwhXN4S8UAoWV-My5orLPMl5DxstzmclA3u0i6KV13tRPc5gTeXv2_TdlVvVYuUUUxfgGnwt3N5cJQPqzL-e9qL_mNynWNphY2kJharZexpVrFwZznMBllpbsK_V6jq38IF3jt-2ocJnEdJFXzZiL8Z8UG6cave71R8XsswVK_0G00]--></g></svg>