<?xml version="1.0" encoding="us-ascii" standalone="no"?><svg xmlns="http://www.w3.org/2000/svg" xmlns:xlink="http://www.w3.org/1999/xlink" contentStyleType="text/css" height="546px" preserveAspectRatio="none" style="width:244px;height:546px;background:#FFFFFF;" version="1.1" viewBox="0 0 244 546" width="244px" zoomAndPan="magnify"><defs/><g><!--class org.vorpal.blade.framework.proxy.ProxyTier--><a href="ProxyTier.html" target="_top" title="ProxyTier.html" xlink:actuate="onRequest" xlink:href="ProxyTier.html" xlink:show="new" xlink:title="ProxyTier.html" xlink:type="simple"><g id="elem_org.vorpal.blade.framework.proxy.ProxyTier"><rect codeLine="5" fill="#F1F1F1" height="318.0781" id="org.vorpal.blade.framework.proxy.ProxyTier" rx="2.5" ry="2.5" style="stroke:#181818;stroke-width:0.5;" width="230" x="7" y="105.27"/><ellipse cx="36.85" cy="124.4028" fill="#ADD1B2" rx="11" ry="11" style="stroke:#181818;stroke-width:1.0;"/><path d="M39.3231,130.5459 Q38.7421,130.8447 38.1029,130.9941 Q37.4638,131.1435 36.7582,131.1435 Q34.2514,131.1435 32.9315,129.4917 Q31.6117,127.8398 31.6117,124.7187 Q31.6117,121.5893 32.9315,119.9375 Q34.2514,118.2856 36.7582,118.2856 Q37.4638,118.2856 38.1112,118.435 Q38.7587,118.5845 39.3231,118.8833 L39.3231,121.6059 Q38.6923,121.0249 38.0988,120.7551 Q37.5053,120.4853 36.8744,120.4853 Q35.5297,120.4853 34.8449,121.552 Q34.1601,122.6186 34.1601,124.7187 Q34.1601,126.8105 34.8449,127.8772 Q35.5297,128.9438 36.8744,128.9438 Q37.5053,128.9438 38.0988,128.6741 Q38.6923,128.4043 39.3231,127.8232 Z " fill="#000000"/><text fill="#000000" font-family="sans-serif" font-size="14" lengthAdjust="spacing" textLength="66" x="103.65" y="123.8052">ProxyTier</text><text fill="#000000" font-family="sans-serif" font-size="10" lengthAdjust="spacing" textLength="165" x="54.15" y="136.4263">org.vorpal.blade.framework.proxy</text><line style="stroke:#181818;stroke-width:0.5;" x1="8" x2="236" y1="143.5356" y2="143.5356"/><rect fill="none" height="6" style="stroke:#C82930;stroke-width:1.0;" width="6" x="15" y="154.2798"/><text fill="#000000" font-family="sans-serif" font-size="14" lengthAdjust="spacing" text-decoration="underline" textLength="152" x="27" y="161.0708">serialVersionUID: long</text><rect fill="none" height="6" style="stroke:#C82930;stroke-width:1.0;" width="6" x="15" y="170.768"/><text fill="#000000" font-family="sans-serif" font-size="14" lengthAdjust="spacing" textLength="62" x="27" y="177.5591">id: String</text><rect fill="none" height="6" style="stroke:#C82930;stroke-width:1.0;" width="6" x="15" y="187.2563"/><text fill="#000000" font-family="sans-serif" font-size="14" lengthAdjust="spacing" textLength="85" x="27" y="194.0473">mode: Mode</text><rect fill="none" height="6" style="stroke:#C82930;stroke-width:1.0;" width="6" x="15" y="203.7446"/><text fill="#000000" font-family="sans-serif" font-size="14" lengthAdjust="spacing" textLength="110" x="27" y="210.5356">timeout: Integer</text><rect fill="none" height="6" style="stroke:#C82930;stroke-width:1.0;" width="6" x="15" y="220.2329"/><text fill="#000000" font-family="sans-serif" font-size="14" lengthAdjust="spacing" textLength="145" x="27" y="227.0239">endpoints: List&lt;URI&gt;</text><line style="stroke:#181818;stroke-width:0.5;" x1="8" x2="236" y1="233.977" y2="233.977"/><ellipse cx="18" cy="247.7212" fill="#84BE84" rx="3" ry="3" style="stroke:#038048;stroke-width:1.0;"/><text fill="#000000" font-family="sans-serif" font-size="14" lengthAdjust="spacing" textLength="76" x="27" y="251.5122">ProxyTier()</text><ellipse cx="18" cy="264.2095" fill="#84BE84" rx="3" ry="3" style="stroke:#038048;stroke-width:1.0;"/><text fill="#000000" font-family="sans-serif" font-size="14" lengthAdjust="spacing" textLength="142" x="27" y="268.0005">ProxyTier(ProxyTier)</text><ellipse cx="18" cy="280.6977" fill="#84BE84" rx="3" ry="3" style="stroke:#038048;stroke-width:1.0;"/><text fill="#000000" font-family="sans-serif" font-size="14" lengthAdjust="spacing" textLength="94" x="27" y="284.4888">getId(): String</text><ellipse cx="18" cy="297.186" fill="#84BE84" rx="3" ry="3" style="stroke:#038048;stroke-width:1.0;"/><text fill="#000000" font-family="sans-serif" font-size="14" lengthAdjust="spacing" textLength="121" x="27" y="300.977">setId(String): void</text><ellipse cx="18" cy="313.6743" fill="#84BE84" rx="3" ry="3" style="stroke:#038048;stroke-width:1.0;"/><text fill="#000000" font-family="sans-serif" font-size="14" lengthAdjust="spacing" textLength="116" x="27" y="317.4653">getMode(): Mode</text><ellipse cx="18" cy="330.1626" fill="#84BE84" rx="3" ry="3" style="stroke:#038048;stroke-width:1.0;"/><text fill="#000000" font-family="sans-serif" font-size="14" lengthAdjust="spacing" textLength="143" x="27" y="333.9536">setMode(Mode): void</text><ellipse cx="18" cy="346.6509" fill="#84BE84" rx="3" ry="3" style="stroke:#038048;stroke-width:1.0;"/><text fill="#000000" font-family="sans-serif" font-size="14" lengthAdjust="spacing" textLength="146" x="27" y="350.4419">getTimeout(): Integer</text><ellipse cx="18" cy="363.1391" fill="#84BE84" rx="3" ry="3" style="stroke:#038048;stroke-width:1.0;"/><text fill="#000000" font-family="sans-serif" font-size="14" lengthAdjust="spacing" textLength="173" x="27" y="366.9302">setTimeout(Integer): void</text><ellipse cx="18" cy="379.6274" fill="#84BE84" rx="3" ry="3" style="stroke:#038048;stroke-width:1.0;"/><text fill="#000000" font-family="sans-serif" font-size="14" lengthAdjust="spacing" textLength="177" x="27" y="383.4184">getEndpoints(): List&lt;URI&gt;</text><ellipse cx="18" cy="396.1157" fill="#84BE84" rx="3" ry="3" style="stroke:#038048;stroke-width:1.0;"/><text fill="#000000" font-family="sans-serif" font-size="14" lengthAdjust="spacing" textLength="204" x="27" y="399.9067">setEndpoints(List&lt;URI&gt;): void</text><ellipse cx="18" cy="412.604" fill="#84BE84" rx="3" ry="3" style="stroke:#038048;stroke-width:1.0;"/><text fill="#000000" font-family="sans-serif" font-size="14" lengthAdjust="spacing" textLength="152" x="27" y="416.395">addEndpoint(URI): URI</text></g></a><!--class java.io.Serializable--><a href="https://docs.oracle.com/en/java/javase/11/docs/api/java.base/java/io/Serializable.html?is-external=true" target="_top" title="https://docs.oracle.com/en/java/javase/11/docs/api/java.base/java/io/Serializable.html?is-external=true" xlink:actuate="onRequest" xlink:href="https://docs.oracle.com/en/java/javase/11/docs/api/java.base/java/io/Serializable.html?is-external=true" xlink:show="new" xlink:title="https://docs.oracle.com/en/java/javase/11/docs/api/java.base/java/io/Serializable.html?is-external=true" xlink:type="simple"><g id="elem_java.io.Serializable"><rect codeLine="24" fill="#F1F1F1" height="38.2656" id="java.io.Serializable" rx="2.5" ry="2.5" style="stroke:#181818;stroke-width:0.5;" width="111" x="66.5" y="7"/><ellipse cx="81.5" cy="26.1328" fill="#B4A7E5" rx="11" ry="11" style="stroke:#181818;stroke-width:1.0;"/><path d="M77.9277,22.3979 L77.9277,20.2397 L85.3071,20.2397 L85.3071,22.3979 L82.8418,22.3979 L82.8418,30.4746 L85.3071,30.4746 L85.3071,32.6328 L77.9277,32.6328 L77.9277,30.4746 L80.3931,30.4746 L80.3931,22.3979 Z " fill="#000000"/><text fill="#000000" font-family="sans-serif" font-size="14" font-style="italic" lengthAdjust="spacing" textLength="79" x="95.5" y="25.5352">Serializable</text><text fill="#000000" font-family="sans-serif" font-size="10" font-style="italic" lengthAdjust="spacing" textLength="32" x="119" y="38.1563">java.io</text></g></a><!--class org.vorpal.blade.framework.proxy.ProxyTier.Mode--><a href="ProxyTier.Mode.html" target="_top" title="ProxyTier.Mode.html" xlink:actuate="onRequest" xlink:href="ProxyTier.Mode.html" xlink:show="new" xlink:title="ProxyTier.Mode.html" xlink:type="simple"><g id="elem_org.vorpal.blade.framework.proxy.ProxyTier.Mode"><rect codeLine="25" fill="#F1F1F1" height="38.2656" id="org.vorpal.blade.framework.proxy.ProxyTier.Mode" rx="2.5" ry="2.5" style="stroke:#181818;stroke-width:0.5;" width="197" x="23.5" y="483.34"/><ellipse cx="38.5" cy="502.4728" fill="#EB937F" rx="11" ry="11" style="stroke:#181818;stroke-width:1.0;"/><path d="M42.1143,508.9728 L34.3945,508.9728 L34.3945,496.5797 L42.1143,496.5797 L42.1143,498.7379 L36.8433,498.7379 L36.8433,501.4108 L41.6162,501.4108 L41.6162,503.569 L36.8433,503.569 L36.8433,506.8146 L42.1143,506.8146 Z " fill="#000000"/><text fill="#000000" font-family="sans-serif" font-size="14" lengthAdjust="spacing" textLength="108" x="81" y="501.8752">ProxyTier.Mode</text><text fill="#000000" font-family="sans-serif" font-size="10" lengthAdjust="spacing" textLength="165" x="52.5" y="514.4963">org.vorpal.blade.framework.proxy</text></g></a><!--reverse link java.io.Serializable to org.vorpal.blade.framework.proxy.ProxyTier--><g id="link_java.io.Serializable_org.vorpal.blade.framework.proxy.ProxyTier"><path codeLine="27" d="M122,63.67 C122,77.91 122,81.11 122,104.78 " fill="none" id="java.io.Serializable-backto-org.vorpal.blade.framework.proxy.ProxyTier" style="stroke:#181818;stroke-width:1.0;stroke-dasharray:7.0,7.0;"/><polygon fill="none" points="122,45.67,116,63.67,128,63.67,122,45.67" style="stroke:#181818;stroke-width:1.0;"/></g><!--reverse link org.vorpal.blade.framework.proxy.ProxyTier to org.vorpal.blade.framework.proxy.ProxyTier.Mode--><g id="link_org.vorpal.blade.framework.proxy.ProxyTier_org.vorpal.blade.framework.proxy.ProxyTier.Mode"><path codeLine="28" d="M122,439.82 C122,463.6 122,468.89 122,483.14 " fill="none" id="org.vorpal.blade.framework.proxy.ProxyTier-backto-org.vorpal.blade.framework.proxy.ProxyTier.Mode" style="stroke:#181818;stroke-width:1.0;"/><ellipse cx="122" cy="431.82" fill="#FFFFFF" rx="8" ry="8" style="stroke:#181818;stroke-width:1.0;"/><line style="stroke:#181818;stroke-width:1.0;" x1="122" x2="122" y1="439.82" y2="423.82"/><line style="stroke:#181818;stroke-width:1.0;" x1="114" x2="130" y1="431.82" y2="431.82"/></g><text fill="#888888" font-family="sans-serif" font-size="10" lengthAdjust="spacing" textLength="176" x="27" y="536.2736">UMLDoclet 2.1.2, PlantUML 1.2024.3</text><!--SRC=[jLHDRzim3BtlLn052YJ88Y_5JaQMNRf3W1OebcQNBWV5OX9jicX8JDQFzRzFaXFNQGqCETG7MdZlaQQaHmC0U6ImiaHVoG9dM4adcHnOilWXqB3H2W7BYXzWfT4e_nejaJSKu8GNHdeFPsEl7p4VVPxSEBf_kDNeVjezzcb2RYrsv2ffnD98XMBbmlV_aFijgYW_0-dXVoBHL8QxksOjDboQnGAUKZFnUV8iMHVFCFJej3G_q7bDTZwzpC6GNJV2eLOvpDZfDbQImXokGtp1M9T8MyvXQXdNw5uOjAeYRTddSAKzZ-VVfvE67JHDzlfTOBDgiMlagUhrt_Gry8ceqK3lIAkZhDXnp3lgF6Ob8eQkhDjwPp7nzTvYxe7USrqLlXrE8DReE0FVbZJycqfIgOEi5mI13p7HpxND0e5k5GpRijeitQz-b4k3BRVzaZifD2LJxTUYBGtssJ1NFiyoHOKNv6HXK1HKPcYpc962nsmqIefCLZf1OXdHfD2KjMic6txLVeZteKyhpHTsMrmiKkzejsNNX8XuBUyt9gdyqQn4O3ymzQbs7i_uhn0dV2OLEc5u1yFXgPkeVpGOBG0helYQNrzTKhWsXWin4XSVuSP8om65yrqzyBt-Fm00]--></g></svg>