<?xml version="1.0" encoding="us-ascii" standalone="no"?><svg xmlns="http://www.w3.org/2000/svg" xmlns:xlink="http://www.w3.org/1999/xlink" contentStyleType="text/css" height="308px" preserveAspectRatio="none" style="width:264px;height:308px;background:#FFFFFF;" version="1.1" viewBox="0 0 264 308" width="264px" zoomAndPan="magnify"><defs/><g><!--class org.vorpal.blade.framework.b2bua.Reinvite--><a href="Reinvite.html" target="_top" title="Reinvite.html" xlink:actuate="onRequest" xlink:href="Reinvite.html" xlink:show="new" xlink:title="Reinvite.html" xlink:type="simple"><g id="elem_org.vorpal.blade.framework.b2bua.Reinvite"><rect codeLine="5" fill="#F1F1F1" height="153.1953" id="org.vorpal.blade.framework.b2bua.Reinvite" rx="2.5" ry="2.5" style="stroke:#181818;stroke-width:0.5;" width="248" x="9" y="129.75"/><ellipse cx="45.6" cy="148.8828" fill="#ADD1B2" rx="11" ry="11" style="stroke:#181818;stroke-width:1.0;"/><path d="M48.0731,155.0259 Q47.4921,155.3247 46.8529,155.4741 Q46.2138,155.6235 45.5082,155.6235 Q43.0014,155.6235 41.6815,153.9717 Q40.3617,152.3198 40.3617,149.1987 Q40.3617,146.0693 41.6815,144.4175 Q43.0014,142.7656 45.5082,142.7656 Q46.2138,142.7656 46.8612,142.915 Q47.5087,143.0645 48.0731,143.3633 L48.0731,146.0859 Q47.4423,145.5049 46.8488,145.2351 Q46.2553,144.9653 45.6244,144.9653 Q44.2797,144.9653 43.5949,146.032 Q42.9101,147.0986 42.9101,149.1987 Q42.9101,151.2905 43.5949,152.3572 Q44.2797,153.4238 45.6244,153.4238 Q46.2553,153.4238 46.8488,153.1541 Q47.4423,152.8843 48.0731,152.3032 Z " fill="#000000"/><text fill="#000000" font-family="sans-serif" font-size="14" lengthAdjust="spacing" textLength="54" x="121.4" y="148.2852">Reinvite</text><text fill="#000000" font-family="sans-serif" font-size="10" lengthAdjust="spacing" textLength="168" x="64.4" y="160.9063">org.vorpal.blade.framework.b2bua</text><line style="stroke:#181818;stroke-width:0.5;" x1="10" x2="256" y1="168.0156" y2="168.0156"/><polygon fill="none" points="20,177.7598,16,183.7598,24,183.7598" style="stroke:#1963A0;stroke-width:1.0;"/><text fill="#000000" font-family="sans-serif" font-size="14" lengthAdjust="spacing" text-decoration="underline" textLength="152" x="29" y="185.5508">serialVersionUID: long</text><rect fill="none" height="6" style="stroke:#C82930;stroke-width:1.0;" width="6" x="17" y="195.248"/><text fill="#000000" font-family="sans-serif" font-size="14" lengthAdjust="spacing" textLength="216" x="29" y="202.0391">aliceRequest: SipServletRequest</text><rect fill="none" height="6" style="stroke:#C82930;stroke-width:1.0;" width="6" x="17" y="211.7363"/><text fill="#000000" font-family="sans-serif" font-size="14" lengthAdjust="spacing" textLength="195" x="29" y="218.5273">b2buaListener: B2buaServlet</text><line style="stroke:#181818;stroke-width:0.5;" x1="10" x2="256" y1="225.4805" y2="225.4805"/><ellipse cx="20" cy="239.2246" fill="#84BE84" rx="3" ry="3" style="stroke:#038048;stroke-width:1.0;"/><text fill="#000000" font-family="sans-serif" font-size="14" lengthAdjust="spacing" textLength="64" x="29" y="243.0156">Reinvite()</text><ellipse cx="20" cy="255.7129" fill="#84BE84" rx="3" ry="3" style="stroke:#038048;stroke-width:1.0;"/><text fill="#000000" font-family="sans-serif" font-size="14" lengthAdjust="spacing" textLength="153" x="29" y="259.5039">Reinvite(B2buaServlet)</text><ellipse cx="20" cy="272.2012" fill="#84BE84" rx="3" ry="3" style="stroke:#038048;stroke-width:1.0;"/><text fill="#000000" font-family="sans-serif" font-size="14" lengthAdjust="spacing" textLength="222" x="29" y="275.9922">process(SipServletRequest): void</text></g></a><!--class org.vorpal.blade.framework.callflow.Callflow--><a href="../callflow/Callflow.html" target="_top" title="../callflow/Callflow.html" xlink:actuate="onRequest" xlink:href="../callflow/Callflow.html" xlink:show="new" xlink:title="../callflow/Callflow.html" xlink:type="simple"><g id="elem_org.vorpal.blade.framework.callflow.Callflow"><rect codeLine="14" fill="#F1F1F1" height="62.7539" id="org.vorpal.blade.framework.callflow.Callflow" rx="2.5" ry="2.5" style="stroke:#181818;stroke-width:0.5;" width="248" x="9" y="7"/><ellipse cx="42" cy="26.1328" fill="#A9DCDF" rx="11" ry="11" style="stroke:#181818;stroke-width:1.0;"/><path d="M41.8633,21.481 L40.7095,26.5527 L43.0254,26.5527 Z M40.3691,19.2397 L43.3657,19.2397 L46.7109,31.6328 L44.2622,31.6328 L43.4985,28.5698 L40.2197,28.5698 L39.4727,31.6328 L37.0239,31.6328 Z " fill="#000000"/><text fill="#000000" font-family="sans-serif" font-size="14" font-style="italic" lengthAdjust="spacing" textLength="55" x="120.5" y="25.5352">Callflow</text><text fill="#000000" font-family="sans-serif" font-size="10" font-style="italic" lengthAdjust="spacing" textLength="176" x="60" y="38.1563">org.vorpal.blade.framework.callflow</text><line style="stroke:#181818;stroke-width:0.5;" x1="10" x2="256" y1="45.2656" y2="45.2656"/><ellipse cx="20" cy="59.0098" fill="#84BE84" rx="3" ry="3" style="stroke:#038048;stroke-width:1.0;"/><text fill="#000000" font-family="sans-serif" font-size="14" font-style="italic" lengthAdjust="spacing" textLength="222" x="29" y="62.8008">process(SipServletRequest): void</text></g></a><!--reverse link org.vorpal.blade.framework.callflow.Callflow to org.vorpal.blade.framework.b2bua.Reinvite--><g id="link_org.vorpal.blade.framework.callflow.Callflow_org.vorpal.blade.framework.b2bua.Reinvite"><path codeLine="18" d="M133,88.21 C133,104.99 133,108.55 133,129.51 " fill="none" id="org.vorpal.blade.framework.callflow.Callflow-backto-org.vorpal.blade.framework.b2bua.Reinvite" style="stroke:#181818;stroke-width:1.0;"/><polygon fill="none" points="133,70.21,127,88.21,139,88.21,133,70.21" style="stroke:#181818;stroke-width:1.0;"/></g><text fill="#888888" font-family="sans-serif" font-size="10" lengthAdjust="spacing" textLength="176" x="37" y="298.6133">UMLDoclet 2.1.2, PlantUML 1.2024.3</text><!--SRC=[bP91Jy9048Nl_ee9YGb4MOHuQWW7vMA2YO7W1JbCsobitExMdQL44N-xfNIH20cmbsw_VJlp-Ze004mEDAR46KOqeWmjEcD16qrNnJ7CPKn0QUO-8P6aOlvFKt9pK-2IHmgPeTPb-KL1-xut9AbpwUXDL-YkP-nCvCPcg4IeC2QHsABzqjXt4NR21TO06Kw9X2yCaudVYhbBrNGAgzB9PgtOePFH6dwOh4JrIfQbqUEdVW3AwDbEs4Gb8nhInuBO1J2IsOXihiXLw4zOTXz8TgJ91l2mUQsqEz6DTrHl767xL_RECsiYOguVz6u4a1iPbyhrDcKCsLcCt47SZwXKeipolBYZIdqgSQyJldmHkX0jZriU7_a1tkdwiW-yo4ptkzayVs2sOqhQaON4cCrZ_3pecwWm11tH5frRU56eNK7XEjzEJBtn2m00]--></g></svg>