<?xml version="1.0" encoding="us-ascii" standalone="no"?><svg xmlns="http://www.w3.org/2000/svg" xmlns:xlink="http://www.w3.org/1999/xlink" contentStyleType="text/css" height="325px" preserveAspectRatio="none" style="width:242px;height:325px;background:#FFFFFF;" version="1.1" viewBox="0 0 242 325" width="242px" zoomAndPan="magnify"><defs/><g><!--class org.vorpal.blade.framework.logging.LogParameters.LoggingLevel--><a href="LogParameters.LoggingLevel.html" target="_top" title="LogParameters.LoggingLevel.html" xlink:actuate="onRequest" xlink:href="LogParameters.LoggingLevel.html" xlink:show="new" xlink:title="LogParameters.LoggingLevel.html" xlink:type="simple"><g id="elem_org.vorpal.blade.framework.logging.LogParameters.LoggingLevel"><rect codeLine="5" fill="#F1F1F1" height="194.6602" id="org.vorpal.blade.framework.logging.LogParameters.LoggingLevel" rx="2.5" ry="2.5" style="stroke:#181818;stroke-width:0.5;" width="228" x="7" y="105.27"/><ellipse cx="22" cy="124.4028" fill="#EB937F" rx="11" ry="11" style="stroke:#181818;stroke-width:1.0;"/><path d="M25.6143,130.9028 L17.8945,130.9028 L17.8945,118.5097 L25.6143,118.5097 L25.6143,120.6679 L20.3433,120.6679 L20.3433,123.3408 L25.1162,123.3408 L25.1162,125.499 L20.3433,125.499 L20.3433,128.7446 L25.6143,128.7446 Z " fill="#000000"/><text fill="#000000" font-family="sans-serif" font-size="14" lengthAdjust="spacing" textLength="196" x="36" y="123.8052">LogParameters.LoggingLevel</text><text fill="#000000" font-family="sans-serif" font-size="10" lengthAdjust="spacing" textLength="174" x="47" y="136.4263">org.vorpal.blade.framework.logging</text><line style="stroke:#181818;stroke-width:0.5;" x1="8" x2="234" y1="143.5356" y2="143.5356"/><ellipse cx="18" cy="157.2798" fill="none" rx="3" ry="3" style="stroke:#038048;stroke-width:1.0;"/><text fill="#000000" font-family="sans-serif" font-size="14" lengthAdjust="spacing" text-decoration="underline" textLength="27" x="27" y="161.0708">OFF</text><ellipse cx="18" cy="173.768" fill="none" rx="3" ry="3" style="stroke:#038048;stroke-width:1.0;"/><text fill="#000000" font-family="sans-serif" font-size="14" lengthAdjust="spacing" text-decoration="underline" textLength="50" x="27" y="177.5591">SEVERE</text><ellipse cx="18" cy="190.2563" fill="none" rx="3" ry="3" style="stroke:#038048;stroke-width:1.0;"/><text fill="#000000" font-family="sans-serif" font-size="14" lengthAdjust="spacing" text-decoration="underline" textLength="65" x="27" y="194.0473">WARNING</text><ellipse cx="18" cy="206.7446" fill="none" rx="3" ry="3" style="stroke:#038048;stroke-width:1.0;"/><text fill="#000000" font-family="sans-serif" font-size="14" lengthAdjust="spacing" text-decoration="underline" textLength="33" x="27" y="210.5356">INFO</text><ellipse cx="18" cy="223.2329" fill="none" rx="3" ry="3" style="stroke:#038048;stroke-width:1.0;"/><text fill="#000000" font-family="sans-serif" font-size="14" lengthAdjust="spacing" text-decoration="underline" textLength="53" x="27" y="227.0239">CONFIG</text><ellipse cx="18" cy="239.7212" fill="none" rx="3" ry="3" style="stroke:#038048;stroke-width:1.0;"/><text fill="#000000" font-family="sans-serif" font-size="14" lengthAdjust="spacing" text-decoration="underline" textLength="30" x="27" y="243.5122">FINE</text><ellipse cx="18" cy="256.2095" fill="none" rx="3" ry="3" style="stroke:#038048;stroke-width:1.0;"/><text fill="#000000" font-family="sans-serif" font-size="14" lengthAdjust="spacing" text-decoration="underline" textLength="39" x="27" y="260.0005">FINER</text><ellipse cx="18" cy="272.6977" fill="none" rx="3" ry="3" style="stroke:#038048;stroke-width:1.0;"/><text fill="#000000" font-family="sans-serif" font-size="14" lengthAdjust="spacing" text-decoration="underline" textLength="47" x="27" y="276.4888">FINEST</text><ellipse cx="18" cy="289.186" fill="none" rx="3" ry="3" style="stroke:#038048;stroke-width:1.0;"/><text fill="#000000" font-family="sans-serif" font-size="14" lengthAdjust="spacing" text-decoration="underline" textLength="24" x="27" y="292.977">ALL</text></g></a><!--class org.vorpal.blade.framework.logging.LogParameters--><a href="LogParameters.html" target="_top" title="LogParameters.html" xlink:actuate="onRequest" xlink:href="LogParameters.html" xlink:show="new" xlink:title="LogParameters.html" xlink:type="simple"><g id="elem_org.vorpal.blade.framework.logging.LogParameters"><rect codeLine="17" fill="#F1F1F1" height="38.2656" id="org.vorpal.blade.framework.logging.LogParameters" rx="2.5" ry="2.5" style="stroke:#181818;stroke-width:0.5;" width="206" x="18" y="7"/><ellipse cx="33" cy="26.1328" fill="#ADD1B2" rx="11" ry="11" style="stroke:#181818;stroke-width:1.0;"/><path d="M35.4731,32.2759 Q34.8921,32.5747 34.2529,32.7241 Q33.6138,32.8735 32.9082,32.8735 Q30.4014,32.8735 29.0815,31.2217 Q27.7617,29.5698 27.7617,26.4487 Q27.7617,23.3193 29.0815,21.6675 Q30.4014,20.0156 32.9082,20.0156 Q33.6138,20.0156 34.2612,20.165 Q34.9087,20.3145 35.4731,20.6133 L35.4731,23.3359 Q34.8423,22.7549 34.2488,22.4851 Q33.6553,22.2153 33.0244,22.2153 Q31.6797,22.2153 30.9949,23.282 Q30.3101,24.3486 30.3101,26.4487 Q30.3101,28.5405 30.9949,29.6072 Q31.6797,30.6738 33.0244,30.6738 Q33.6553,30.6738 34.2488,30.4041 Q34.8423,30.1343 35.4731,29.5532 Z " fill="#000000"/><text fill="#000000" font-family="sans-serif" font-size="14" lengthAdjust="spacing" textLength="102" x="83" y="25.5352">LogParameters</text><text fill="#000000" font-family="sans-serif" font-size="10" lengthAdjust="spacing" textLength="174" x="47" y="38.1563">org.vorpal.blade.framework.logging</text></g></a><!--reverse link org.vorpal.blade.framework.logging.LogParameters to org.vorpal.blade.framework.logging.LogParameters.LoggingLevel--><g id="link_org.vorpal.blade.framework.logging.LogParameters_org.vorpal.blade.framework.logging.LogParameters.LoggingLevel"><path codeLine="19" d="M121,61.48 C121,76.18 121,82.04 121,104.78 " fill="none" id="org.vorpal.blade.framework.logging.LogParameters-backto-org.vorpal.blade.framework.logging.LogParameters.LoggingLevel" style="stroke:#181818;stroke-width:1.0;"/><ellipse cx="121" cy="53.48" fill="#FFFFFF" rx="8" ry="8" style="stroke:#181818;stroke-width:1.0;"/><line style="stroke:#181818;stroke-width:1.0;" x1="121" x2="121" y1="61.48" y2="45.48"/><line style="stroke:#181818;stroke-width:1.0;" x1="113" x2="129" y1="53.48" y2="53.48"/></g><text fill="#888888" font-family="sans-serif" font-size="10" lengthAdjust="spacing" textLength="176" x="26" y="315.5981">UMLDoclet 2.1.2, PlantUML 1.2024.3</text><!--SRC=[jPDDIyGm48Rl_efXGL3M3UxYIMHXqLOAjLrQFmxh7c8xRODfKf9OqMN_ksdhILD4n5n2dlUTIJAJ001eD21eZRgX6QROK4MDL22am0ChGyLo1AmRymO5GvxhhxH6KqcBUuxYfOR9XMRlU3u_MuQoNDk4re9A4xigcIX3R94_Ya_JwLAgahHIDPIJ9qvp94KNyIhLC-53n0IeXfzjP7mxs6p6HLAPcc-tiEklq8sTDjImR0_JsFSTDFNklSHp20-h90gYQuSIH7xim9Tnv0Sklnz4tWXEHdXwwn1MOTZJ_T2WZ5Ejnphq_qtvreUXzCFPVfriEflzxLaC9K5X1IYaxAQxc_1APjp-YWMPayK9h3aLnb8uR6qua-Be-0C0]--></g></svg>