<?xml version="1.0" encoding="us-ascii" standalone="no"?><svg xmlns="http://www.w3.org/2000/svg" xmlns:xlink="http://www.w3.org/1999/xlink" contentStyleType="text/css" height="1207px" preserveAspectRatio="none" style="width:1119px;height:1207px;background:#FFFFFF;" version="1.1" viewBox="0 0 1119 1207" width="1119px" zoomAndPan="magnify"><defs/><g><!--cluster org.vorpal.blade.services.acl--><g id="cluster_org.vorpal.blade.services.acl"><path d="M10.83,492.5 L209.83,492.5 A3.75,3.75 0 0 1 212.33,495 L219.33,514.9883 L791.83,514.9883 A2.5,2.5 0 0 1 794.33,517.4883 L794.33,1179.01 A2.5,2.5 0 0 1 791.83,1181.51 L10.83,1181.51 A2.5,2.5 0 0 1 8.33,1179.01 L8.33,495 A2.5,2.5 0 0 1 10.83,492.5 " fill="none" style="stroke:#000000;stroke-width:1.5;"/><line style="stroke:#000000;stroke-width:1.5;" x1="8.33" x2="219.33" y1="514.9883" y2="514.9883"/><text fill="#000000" font-family="sans-serif" font-size="14" font-weight="bold" lengthAdjust="spacing" textLength="198" x="12.33" y="508.0352">org.vorpal.blade.services.acl</text></g><!--cluster javax.servlet.sip--><g id="cluster_javax.servlet.sip"><path d="M393.83,6 L508.83,6 A3.75,3.75 0 0 1 511.33,8.5 L518.33,28.4883 L1109.83,28.4883 A2.5,2.5 0 0 1 1112.33,30.9883 L1112.33,300.36 A2.5,2.5 0 0 1 1109.83,302.86 L393.83,302.86 A2.5,2.5 0 0 1 391.33,300.36 L391.33,8.5 A2.5,2.5 0 0 1 393.83,6 " fill="none" style="stroke:#000000;stroke-width:1.5;"/><line style="stroke:#000000;stroke-width:1.5;" x1="391.33" x2="518.33" y1="28.4883" y2="28.4883"/><text fill="#000000" font-family="sans-serif" font-size="14" font-weight="bold" lengthAdjust="spacing" textLength="114" x="395.33" y="21.5352">javax.servlet.sip</text></g><!--cluster org.vorpal.blade.framework.config--><g id="cluster_org.vorpal.blade.framework.config"><path d="M820.83,335.86 L1064.83,335.86 A3.75,3.75 0 0 1 1067.33,338.36 L1074.33,358.3483 L1074.83,358.3483 A2.5,2.5 0 0 1 1077.33,360.8483 L1077.33,811.59 A2.5,2.5 0 0 1 1074.83,814.09 L820.83,814.09 A2.5,2.5 0 0 1 818.33,811.59 L818.33,338.36 A2.5,2.5 0 0 1 820.83,335.86 " fill="none" style="stroke:#000000;stroke-width:1.5;"/><line style="stroke:#000000;stroke-width:1.5;" x1="818.33" x2="1074.33" y1="358.3483" y2="358.3483"/><text fill="#000000" font-family="sans-serif" font-size="14" font-weight="bold" lengthAdjust="spacing" textLength="243" x="822.33" y="351.3952">org.vorpal.blade.framework.config</text></g><!--class AclRule--><a href="AclRule.html" target="_top" title="AclRule.html" xlink:actuate="onRequest" xlink:href="AclRule.html" xlink:show="new" xlink:title="AclRule.html" xlink:type="simple"><g id="elem_AclRule"><rect codeLine="5" fill="#F1F1F1" height="130.4414" id="AclRule" rx="2.5" ry="2.5" style="stroke:#181818;stroke-width:0.5;" width="211" x="209.83" y="877.09"/><ellipse cx="285.58" cy="893.09" fill="#ADD1B2" rx="11" ry="11" style="stroke:#181818;stroke-width:1.0;"/><path d="M288.0531,899.2331 Q287.4721,899.5319 286.8329,899.6813 Q286.1938,899.8307 285.4882,899.8307 Q282.9814,899.8307 281.6615,898.1789 Q280.3417,896.527 280.3417,893.4059 Q280.3417,890.2765 281.6615,888.6247 Q282.9814,886.9728 285.4882,886.9728 Q286.1938,886.9728 286.8412,887.1222 Q287.4887,887.2716 288.0531,887.5705 L288.0531,890.2931 Q287.4223,889.7121 286.8288,889.4423 Q286.2353,889.1725 285.6044,889.1725 Q284.2597,889.1725 283.5749,890.2392 Q282.8901,891.3058 282.8901,893.4059 Q282.8901,895.4977 283.5749,896.5644 Q284.2597,897.631 285.6044,897.631 Q286.2353,897.631 286.8288,897.3612 Q287.4223,897.0915 288.0531,896.5104 Z " fill="#000000"/><text fill="#000000" font-family="sans-serif" font-size="14" lengthAdjust="spacing" textLength="51" x="306.08" y="898.381">AclRule</text><line style="stroke:#181818;stroke-width:0.5;" x1="210.83" x2="419.83" y1="909.09" y2="909.09"/><polygon fill="none" points="220.83,918.8341,216.83,924.8341,224.83,924.8341" style="stroke:#1963A0;stroke-width:1.0;"/><text fill="#000000" font-family="sans-serif" font-size="14" lengthAdjust="spacing" textLength="103" x="229.83" y="926.6252">address: String</text><line style="stroke:#181818;stroke-width:0.5;" x1="210.83" x2="419.83" y1="933.5783" y2="933.5783"/><ellipse cx="220.83" cy="947.3224" fill="#84BE84" rx="3" ry="3" style="stroke:#038048;stroke-width:1.0;"/><text fill="#000000" font-family="sans-serif" font-size="14" lengthAdjust="spacing" textLength="61" x="229.83" y="951.1134">AclRule()</text><ellipse cx="220.83" cy="963.8107" fill="#84BE84" rx="3" ry="3" style="stroke:#038048;stroke-width:1.0;"/><text fill="#000000" font-family="sans-serif" font-size="14" lengthAdjust="spacing" textLength="185" x="229.83" y="967.6017">AclRule(String, Permission)</text><ellipse cx="220.83" cy="980.299" fill="#84BE84" rx="3" ry="3" style="stroke:#038048;stroke-width:1.0;"/><text fill="#000000" font-family="sans-serif" font-size="14" lengthAdjust="spacing" textLength="137" x="229.83" y="984.09">getAddress(): String</text><ellipse cx="220.83" cy="996.7873" fill="#84BE84" rx="3" ry="3" style="stroke:#038048;stroke-width:1.0;"/><text fill="#000000" font-family="sans-serif" font-size="14" lengthAdjust="spacing" textLength="164" x="229.83" y="1000.5783">setAddress(String): void</text></g></a><!--class AclRule.Permission--><a href="AclRule.Permission.html" target="_top" title="AclRule.Permission.html" xlink:actuate="onRequest" xlink:href="AclRule.Permission.html" xlink:show="new" xlink:title="AclRule.Permission.html" xlink:type="simple"><g id="elem_AclRule.Permission"><rect codeLine="13" fill="#F1F1F1" height="80.9766" id="AclRule.Permission" rx="2.5" ry="2.5" style="stroke:#181818;stroke-width:0.5;" width="162" x="193.33" y="1084.53"/><ellipse cx="208.33" cy="1100.53" fill="#EB937F" rx="11" ry="11" style="stroke:#181818;stroke-width:1.0;"/><path d="M211.9443,1107.03 L204.2245,1107.03 L204.2245,1094.6369 L211.9443,1094.6369 L211.9443,1096.7951 L206.6733,1096.7951 L206.6733,1099.468 L211.4462,1099.468 L211.4462,1101.6262 L206.6733,1101.6262 L206.6733,1104.8718 L211.9443,1104.8718 Z " fill="#000000"/><text fill="#000000" font-family="sans-serif" font-size="14" lengthAdjust="spacing" textLength="130" x="222.33" y="1105.821">AclRule.Permission</text><line style="stroke:#181818;stroke-width:0.5;" x1="194.33" x2="354.33" y1="1116.53" y2="1116.53"/><ellipse cx="204.33" cy="1130.2741" fill="none" rx="3" ry="3" style="stroke:#038048;stroke-width:1.0;"/><text fill="#000000" font-family="sans-serif" font-size="14" lengthAdjust="spacing" text-decoration="underline" textLength="36" x="213.33" y="1134.0652">allow</text><ellipse cx="204.33" cy="1146.7624" fill="none" rx="3" ry="3" style="stroke:#038048;stroke-width:1.0;"/><text fill="#000000" font-family="sans-serif" font-size="14" lengthAdjust="spacing" text-decoration="underline" textLength="33" x="213.33" y="1150.5534">deny</text><line style="stroke:#181818;stroke-width:0.5;" x1="194.33" x2="354.33" y1="1157.5066" y2="1157.5066"/></g></a><!--class AclSipServlet--><a href="AclSipServlet.html" target="_top" title="AclSipServlet.html" xlink:actuate="onRequest" xlink:href="AclSipServlet.html" xlink:show="new" xlink:title="AclSipServlet.html" xlink:type="simple"><g id="elem_AclSipServlet"><rect codeLine="18" fill="#F1F1F1" height="113.9531" id="AclSipServlet" rx="2.5" ry="2.5" style="stroke:#181818;stroke-width:0.5;" width="344" x="434.33" y="527.5"/><ellipse cx="558.08" cy="543.5" fill="#ADD1B2" rx="11" ry="11" style="stroke:#181818;stroke-width:1.0;"/><path d="M560.5531,549.6431 Q559.9721,549.9419 559.3329,550.0913 Q558.6938,550.2407 557.9882,550.2407 Q555.4814,550.2407 554.1615,548.5889 Q552.8417,546.937 552.8417,543.8159 Q552.8417,540.6865 554.1615,539.0347 Q555.4814,537.3828 557.9882,537.3828 Q558.6938,537.3828 559.3412,537.5322 Q559.9887,537.6816 560.5531,537.9805 L560.5531,540.7031 Q559.9223,540.1221 559.3288,539.8523 Q558.7353,539.5825 558.1044,539.5825 Q556.7597,539.5825 556.0749,540.6492 Q555.3901,541.7158 555.3901,543.8159 Q555.3901,545.9077 556.0749,546.9744 Q556.7597,548.041 558.1044,548.041 Q558.7353,548.041 559.3288,547.7712 Q559.9223,547.5015 560.5531,546.9204 Z " fill="#000000"/><text fill="#000000" font-family="sans-serif" font-size="14" lengthAdjust="spacing" textLength="88" x="578.58" y="548.791">AclSipServlet</text><line style="stroke:#181818;stroke-width:0.5;" x1="435.33" x2="777.33" y1="559.5" y2="559.5"/><rect fill="none" height="6" style="stroke:#C82930;stroke-width:1.0;" width="6" x="442.33" y="570.2441"/><text fill="#000000" font-family="sans-serif" font-size="14" lengthAdjust="spacing" text-decoration="underline" textLength="152" x="454.33" y="577.0352">serialVersionUID: long</text><rect fill="none" height="6" style="stroke:#C82930;stroke-width:1.0;" width="6" x="442.33" y="586.7324"/><text fill="#000000" font-family="sans-serif" font-size="14" lengthAdjust="spacing" textLength="124" x="454.33" y="593.5234">sipLogger: Logger</text><line style="stroke:#181818;stroke-width:0.5;" x1="435.33" x2="777.33" y1="600.4766" y2="600.4766"/><polygon fill="#FFFF44" points="445.33,609.2207,449.33,613.2207,445.33,617.2207,441.33,613.2207" style="stroke:#B38D22;stroke-width:1.0;"/><text fill="#000000" font-family="sans-serif" font-size="14" lengthAdjust="spacing" textLength="242" x="454.33" y="618.0117">doRequest(SipServletRequest): void</text><ellipse cx="445.33" cy="630.709" fill="#84BE84" rx="3" ry="3" style="stroke:#038048;stroke-width:1.0;"/><text fill="#000000" font-family="sans-serif" font-size="14" lengthAdjust="spacing" textLength="318" x="454.33" y="634.5">servletInitialized(SipServletContextEvent): void</text></g></a><!--class AclConfigManager--><a href="AclConfigManager.html" target="_top" title="AclConfigManager.html" xlink:actuate="onRequest" xlink:href="AclConfigManager.html" xlink:show="new" xlink:title="AclConfigManager.html" xlink:type="simple"><g id="elem_AclConfigManager"><rect codeLine="25" fill="#F1F1F1" height="80.9766" id="AclConfigManager" rx="2.5" ry="2.5" style="stroke:#181818;stroke-width:0.5;" width="322" x="456.33" y="901.82"/><ellipse cx="549.58" cy="917.82" fill="#ADD1B2" rx="11" ry="11" style="stroke:#181818;stroke-width:1.0;"/><path d="M552.0531,923.9631 Q551.4721,924.2619 550.8329,924.4113 Q550.1938,924.5607 549.4882,924.5607 Q546.9814,924.5607 545.6615,922.9089 Q544.3417,921.257 544.3417,918.1359 Q544.3417,915.0065 545.6615,913.3547 Q546.9814,911.7028 549.4882,911.7028 Q550.1938,911.7028 550.8412,911.8522 Q551.4887,912.0016 552.0531,912.3005 L552.0531,915.0231 Q551.4223,914.4421 550.8288,914.1723 Q550.2353,913.9025 549.6044,913.9025 Q548.2597,913.9025 547.5749,914.9692 Q546.8901,916.0358 546.8901,918.1359 Q546.8901,920.2277 547.5749,921.2944 Q548.2597,922.361 549.6044,922.361 Q550.2353,922.361 550.8288,922.0912 Q551.4223,921.8215 552.0531,921.2404 Z " fill="#000000"/><text fill="#000000" font-family="sans-serif" font-size="14" lengthAdjust="spacing" textLength="127" x="570.08" y="923.111">AclConfigManager</text><line style="stroke:#181818;stroke-width:0.5;" x1="457.33" x2="777.33" y1="933.82" y2="933.82"/><line style="stroke:#181818;stroke-width:0.5;" x1="457.33" x2="777.33" y1="941.82" y2="941.82"/><ellipse cx="467.33" cy="955.5641" fill="#84BE84" rx="3" ry="3" style="stroke:#038048;stroke-width:1.0;"/><text fill="#000000" font-family="sans-serif" font-size="14" lengthAdjust="spacing" textLength="296" x="476.33" y="959.3552">AclConfigManager(SipServletContextEvent)</text><ellipse cx="467.33" cy="972.0524" fill="#84BE84" rx="3" ry="3" style="stroke:#038048;stroke-width:1.0;"/><text fill="#000000" font-family="sans-serif" font-size="14" lengthAdjust="spacing" textLength="172" x="476.33" y="975.8434">initialize(AclConfig): void</text></g></a><!--class AclConfig--><a href="AclConfig.html" target="_top" title="AclConfig.html" xlink:actuate="onRequest" xlink:href="AclConfig.html" xlink:show="new" xlink:title="AclConfig.html" xlink:type="simple"><g id="elem_AclConfig"><rect codeLine="30" fill="#F1F1F1" height="97.4648" id="AclConfig" rx="2.5" ry="2.5" style="stroke:#181818;stroke-width:0.5;" width="359" x="31.83" y="535.74"/><ellipse cx="173.58" cy="551.74" fill="#ADD1B2" rx="11" ry="11" style="stroke:#181818;stroke-width:1.0;"/><path d="M176.0531,557.8831 Q175.4721,558.1819 174.8329,558.3313 Q174.1938,558.4807 173.4882,558.4807 Q170.9814,558.4807 169.6615,556.8289 Q168.3417,555.177 168.3417,552.0559 Q168.3417,548.9265 169.6615,547.2747 Q170.9814,545.6228 173.4882,545.6228 Q174.1938,545.6228 174.8412,545.7722 Q175.4887,545.9216 176.0531,546.2205 L176.0531,548.9431 Q175.4223,548.3621 174.8288,548.0923 Q174.2353,547.8225 173.6044,547.8225 Q172.2597,547.8225 171.5749,548.8892 Q170.8901,549.9558 170.8901,552.0559 Q170.8901,554.1477 171.5749,555.2144 Q172.2597,556.281 173.6044,556.281 Q174.2353,556.281 174.8288,556.0112 Q175.4223,555.7415 176.0531,555.1604 Z " fill="#000000"/><text fill="#000000" font-family="sans-serif" font-size="14" lengthAdjust="spacing" textLength="67" x="194.08" y="557.031">AclConfig</text><line style="stroke:#181818;stroke-width:0.5;" x1="32.83" x2="389.83" y1="567.74" y2="567.74"/><rect fill="none" height="6" style="stroke:#C82930;stroke-width:1.0;" width="6" x="39.83" y="578.4841"/><text fill="#000000" font-family="sans-serif" font-size="14" lengthAdjust="spacing" textLength="333" x="51.83" y="585.2752">trieMap: AddressTrieMap&lt;Address, Permission&gt;</text><line style="stroke:#181818;stroke-width:0.5;" x1="32.83" x2="389.83" y1="592.2283" y2="592.2283"/><ellipse cx="42.83" cy="605.9724" fill="#84BE84" rx="3" ry="3" style="stroke:#038048;stroke-width:1.0;"/><text fill="#000000" font-family="sans-serif" font-size="14" lengthAdjust="spacing" textLength="105" x="51.83" y="609.7634">initialize(): void</text><polygon fill="#4177AF" points="42.83,618.4607,38.83,624.4607,46.83,624.4607" style="stroke:#1963A0;stroke-width:1.0;"/><text fill="#000000" font-family="sans-serif" font-size="14" lengthAdjust="spacing" textLength="191" x="51.83" y="626.2517">evaulate(String): Permission</text></g></a><!--class SipServlet--><a href="https://vorpalnet.github.io/jsr359/javax/servlet/sip/SipServlet.html?is-external=true" target="_top" title="https://vorpalnet.github.io/jsr359/javax/servlet/sip/SipServlet.html?is-external=true" xlink:actuate="onRequest" xlink:href="https://vorpalnet.github.io/jsr359/javax/servlet/sip/SipServlet.html?is-external=true" xlink:show="new" xlink:title="https://vorpalnet.github.io/jsr359/javax/servlet/sip/SipServlet.html?is-external=true" xlink:type="simple"><g id="elem_SipServlet"><rect codeLine="39" fill="#F1F1F1" height="245.8594" id="SipServlet" rx="2.5" ry="2.5" style="stroke:#181818;stroke-width:0.5;" width="311" x="406.83" y="41"/><ellipse cx="524.58" cy="57" fill="#A9DCDF" rx="11" ry="11" style="stroke:#181818;stroke-width:1.0;"/><path d="M524.4433,52.3481 L523.2895,57.4199 L525.6054,57.4199 Z M522.9491,50.1069 L525.9457,50.1069 L529.2909,62.5 L526.8422,62.5 L526.0785,59.437 L522.7997,59.437 L522.0527,62.5 L519.6039,62.5 Z " fill="#000000"/><text fill="#000000" font-family="sans-serif" font-size="14" font-style="italic" lengthAdjust="spacing" textLength="67" x="545.08" y="62.291">SipServlet</text><line style="stroke:#181818;stroke-width:0.5;" x1="407.83" x2="716.83" y1="73" y2="73"/><ellipse cx="417.83" cy="86.7441" fill="none" rx="3" ry="3" style="stroke:#038048;stroke-width:1.0;"/><text fill="#000000" font-family="sans-serif" font-size="14" lengthAdjust="spacing" text-decoration="underline" textLength="142" x="426.83" y="90.5352">SIP_FACTORY: String</text><ellipse cx="417.83" cy="103.2324" fill="none" rx="3" ry="3" style="stroke:#038048;stroke-width:1.0;"/><text fill="#000000" font-family="sans-serif" font-size="14" lengthAdjust="spacing" text-decoration="underline" textLength="154" x="426.83" y="107.0234">TIMER_SERVICE: String</text><ellipse cx="417.83" cy="119.7207" fill="none" rx="3" ry="3" style="stroke:#038048;stroke-width:1.0;"/><text fill="#000000" font-family="sans-serif" font-size="14" lengthAdjust="spacing" text-decoration="underline" textLength="153" x="426.83" y="123.5117">DNS_RESOLVER: String</text><ellipse cx="417.83" cy="136.209" fill="none" rx="3" ry="3" style="stroke:#038048;stroke-width:1.0;"/><text fill="#000000" font-family="sans-serif" font-size="14" lengthAdjust="spacing" text-decoration="underline" textLength="130" x="426.83" y="140">SUPPORTED: String</text><ellipse cx="417.83" cy="152.6973" fill="none" rx="3" ry="3" style="stroke:#038048;stroke-width:1.0;"/><text fill="#000000" font-family="sans-serif" font-size="14" lengthAdjust="spacing" text-decoration="underline" textLength="171" x="426.83" y="156.4883">SUPPORTED_RFCs: String</text><ellipse cx="417.83" cy="169.1855" fill="none" rx="3" ry="3" style="stroke:#038048;stroke-width:1.0;"/><text fill="#000000" font-family="sans-serif" font-size="14" lengthAdjust="spacing" text-decoration="underline" textLength="219" x="426.83" y="172.9766">OUTBOUND_INTERFACES: String</text><ellipse cx="417.83" cy="185.6738" fill="none" rx="3" ry="3" style="stroke:#038048;stroke-width:1.0;"/><text fill="#000000" font-family="sans-serif" font-size="14" lengthAdjust="spacing" text-decoration="underline" textLength="214" x="426.83" y="189.4648">OUTBOUND_ADDRESSES: String</text><ellipse cx="417.83" cy="202.1621" fill="none" rx="3" ry="3" style="stroke:#038048;stroke-width:1.0;"/><text fill="#000000" font-family="sans-serif" font-size="14" lengthAdjust="spacing" text-decoration="underline" textLength="178" x="426.83" y="205.9531">SIP_SESSIONS_UTIL: String</text><ellipse cx="417.83" cy="218.6504" fill="none" rx="3" ry="3" style="stroke:#038048;stroke-width:1.0;"/><text fill="#000000" font-family="sans-serif" font-size="14" lengthAdjust="spacing" text-decoration="underline" textLength="134" x="426.83" y="222.4414">PRACK_SUPPORTED</text><text fill="#000000" font-family="sans-serif" font-size="14" lengthAdjust="spacing" text-decoration="underline" textLength="49" x="560.83" y="222.4414">: String</text><ellipse cx="417.83" cy="235.1387" fill="none" rx="3" ry="3" style="stroke:#038048;stroke-width:1.0;"/><text fill="#000000" font-family="sans-serif" font-size="14" lengthAdjust="spacing" text-decoration="underline" textLength="257" x="426.83" y="238.9297">SIP_APPLICATIONSESSION_KEY: String</text><ellipse cx="417.83" cy="251.627" fill="none" rx="3" ry="3" style="stroke:#038048;stroke-width:1.0;"/><text fill="#000000" font-family="sans-serif" font-size="14" lengthAdjust="spacing" text-decoration="underline" textLength="245" x="426.83" y="255.418">SIP_APPLICATIONSESSION_ID: String</text><ellipse cx="417.83" cy="268.1152" fill="none" rx="3" ry="3" style="stroke:#038048;stroke-width:1.0;"/><text fill="#000000" font-family="sans-serif" font-size="14" lengthAdjust="spacing" text-decoration="underline" textLength="285" x="426.83" y="271.9063">SIP_APPLICATIONSESSION_CREATE: String</text><line style="stroke:#181818;stroke-width:0.5;" x1="407.83" x2="716.83" y1="278.8594" y2="278.8594"/></g></a><!--class SipServletListener--><a href="https://vorpalnet.github.io/jsr359/javax/servlet/sip/SipServletListener.html?is-external=true" target="_top" title="https://vorpalnet.github.io/jsr359/javax/servlet/sip/SipServletListener.html?is-external=true" xlink:actuate="onRequest" xlink:href="https://vorpalnet.github.io/jsr359/javax/servlet/sip/SipServletListener.html?is-external=true" xlink:show="new" xlink:title="https://vorpalnet.github.io/jsr359/javax/servlet/sip/SipServletListener.html?is-external=true" xlink:type="simple"><g id="elem_SipServletListener"><rect codeLine="53" fill="#F1F1F1" height="64.4883" id="SipServletListener" rx="2.5" ry="2.5" style="stroke:#181818;stroke-width:0.5;" width="344" x="752.33" y="131.69"/><ellipse cx="859.58" cy="147.69" fill="#B4A7E5" rx="11" ry="11" style="stroke:#181818;stroke-width:1.0;"/><path d="M856.0077,143.9551 L856.0077,141.7969 L863.3871,141.7969 L863.3871,143.9551 L860.9218,143.9551 L860.9218,152.0318 L863.3871,152.0318 L863.3871,154.19 L856.0077,154.19 L856.0077,152.0318 L858.4731,152.0318 L858.4731,143.9551 Z " fill="#000000"/><text fill="#000000" font-family="sans-serif" font-size="14" font-style="italic" lengthAdjust="spacing" textLength="121" x="880.08" y="152.981">SipServletListener</text><line style="stroke:#181818;stroke-width:0.5;" x1="753.33" x2="1095.33" y1="163.69" y2="163.69"/><line style="stroke:#181818;stroke-width:0.5;" x1="753.33" x2="1095.33" y1="171.69" y2="171.69"/><ellipse cx="763.33" cy="185.4341" fill="#84BE84" rx="3" ry="3" style="stroke:#038048;stroke-width:1.0;"/><text fill="#000000" font-family="sans-serif" font-size="14" font-style="italic" lengthAdjust="spacing" textLength="318" x="772.33" y="189.2252">servletInitialized(SipServletContextEvent): void</text></g></a><!--class SettingsManager--><a href="https://vorpalnet.github.io/blade/vorpal-blade-library-framework/org/vorpal/blade/framework/config/SettingsManager.html?is-external=true" target="_top" title="https://vorpalnet.github.io/blade/vorpal-blade-library-framework/org/vorpal/blade/framework/config/SettingsManager.html?is-external=true" xlink:actuate="onRequest" xlink:href="https://vorpalnet.github.io/blade/vorpal-blade-library-framework/org/vorpal/blade/framework/config/SettingsManager.html?is-external=true" xlink:show="new" xlink:title="https://vorpalnet.github.io/blade/vorpal-blade-library-framework/org/vorpal/blade/framework/config/SettingsManager.html?is-external=true" xlink:type="simple"><g id="elem_SettingsManager"><rect codeLine="59" fill="#F1F1F1" height="427.2305" id="SettingsManager" rx="2.5" ry="2.5" style="stroke:#181818;stroke-width:0.5;" width="214" x="834.33" y="370.86"/><ellipse cx="874.08" cy="386.86" fill="#ADD1B2" rx="11" ry="11" style="stroke:#181818;stroke-width:1.0;"/><path d="M876.5531,393.0031 Q875.9721,393.3019 875.3329,393.4513 Q874.6938,393.6007 873.9882,393.6007 Q871.4814,393.6007 870.1615,391.9489 Q868.8417,390.297 868.8417,387.1759 Q868.8417,384.0465 870.1615,382.3947 Q871.4814,380.7428 873.9882,380.7428 Q874.6938,380.7428 875.3412,380.8922 Q875.9887,381.0416 876.5531,381.3405 L876.5531,384.0631 Q875.9223,383.4821 875.3288,383.2123 Q874.7353,382.9425 874.1044,382.9425 Q872.7597,382.9425 872.0749,384.0092 Q871.3901,385.0758 871.3901,387.1759 Q871.3901,389.2677 872.0749,390.3344 Q872.7597,391.401 874.1044,391.401 Q874.7353,391.401 875.3288,391.1312 Q875.9223,390.8615 876.5531,390.2804 Z " fill="#000000"/><text fill="#000000" font-family="sans-serif" font-size="14" lengthAdjust="spacing" textLength="115" x="893.58" y="392.151">SettingsManager</text><rect fill="#FFFFFF" height="16.1328" style="stroke:#181818;stroke-width:1.0;stroke-dasharray:2.0,2.0;" width="10" x="1041.33" y="367.86"/><text fill="#000000" font-family="sans-serif" font-size="12" font-style="italic" lengthAdjust="spacing" textLength="8" x="1042.33" y="380.4616">T</text><line style="stroke:#181818;stroke-width:0.5;" x1="835.33" x2="1047.33" y1="402.86" y2="402.86"/><polygon fill="none" points="845.33,411.6041,849.33,415.6041,845.33,419.6041,841.33,415.6041" style="stroke:#B38D22;stroke-width:1.0;"/><text fill="#000000" font-family="sans-serif" font-size="14" lengthAdjust="spacing" textLength="66" x="854.33" y="420.3952">sample: T</text><polygon fill="none" points="845.33,428.0924,849.33,432.0924,845.33,436.0924,841.33,432.0924" style="stroke:#B38D22;stroke-width:1.0;"/><text fill="#000000" font-family="sans-serif" font-size="14" lengthAdjust="spacing" textLength="67" x="854.33" y="436.8834">current: T</text><polygon fill="none" points="845.33,444.5807,849.33,448.5807,845.33,452.5807,841.33,448.5807" style="stroke:#B38D22;stroke-width:1.0;"/><text fill="#000000" font-family="sans-serif" font-size="14" lengthAdjust="spacing" textLength="172" x="854.33" y="453.3717">objectName: ObjectName</text><polygon fill="none" points="845.33,461.069,849.33,465.069,845.33,469.069,841.33,465.069" style="stroke:#B38D22;stroke-width:1.0;"/><text fill="#000000" font-family="sans-serif" font-size="14" lengthAdjust="spacing" textLength="138" x="854.33" y="469.86">server: MBeanServer</text><polygon fill="none" points="845.33,477.5573,849.33,481.5573,845.33,485.5573,841.33,481.5573" style="stroke:#B38D22;stroke-width:1.0;"/><text fill="#000000" font-family="sans-serif" font-size="14" lengthAdjust="spacing" textLength="157" x="854.33" y="486.3483">mapper: ObjectMapper</text><polygon fill="none" points="845.33,494.0455,849.33,498.0455,845.33,502.0455,841.33,498.0455" style="stroke:#B38D22;stroke-width:1.0;"/><text fill="#000000" font-family="sans-serif" font-size="14" lengthAdjust="spacing" textLength="110" x="854.33" y="502.8366">clazz: Class&lt;T&gt;</text><polygon fill="none" points="845.33,510.5338,849.33,514.5338,845.33,518.5338,841.33,514.5338" style="stroke:#B38D22;stroke-width:1.0;"/><text fill="#000000" font-family="sans-serif" font-size="14" lengthAdjust="spacing" textLength="122" x="854.33" y="519.3248">oi: ObjectInstance</text><polygon fill="none" points="845.33,527.0221,849.33,531.0221,845.33,535.0221,841.33,531.0221" style="stroke:#B38D22;stroke-width:1.0;"/><text fill="#000000" font-family="sans-serif" font-size="14" lengthAdjust="spacing" textLength="148" x="854.33" y="535.8131">settings: Settings&lt;T&gt;</text><polygon fill="none" points="845.33,543.5104,849.33,547.5104,845.33,551.5104,841.33,547.5104" style="stroke:#B38D22;stroke-width:1.0;"/><text fill="#000000" font-family="sans-serif" font-size="14" lengthAdjust="spacing" text-decoration="underline" textLength="130" x="854.33" y="552.3014">serverName: String</text><polygon fill="none" points="845.33,559.9987,849.33,563.9987,845.33,567.9987,841.33,563.9987" style="stroke:#B38D22;stroke-width:1.0;"/><text fill="#000000" font-family="sans-serif" font-size="14" lengthAdjust="spacing" text-decoration="underline" textLength="134" x="854.33" y="568.7897">clusterName: String</text><polygon fill="none" points="845.33,576.487,849.33,580.487,845.33,584.487,841.33,580.487" style="stroke:#B38D22;stroke-width:1.0;"/><text fill="#000000" font-family="sans-serif" font-size="14" lengthAdjust="spacing" textLength="188" x="854.33" y="585.278">servletContextName: String</text><polygon fill="none" points="845.33,592.9752,849.33,596.9752,845.33,600.9752,841.33,596.9752" style="stroke:#B38D22;stroke-width:1.0;"/><text fill="#000000" font-family="sans-serif" font-size="14" lengthAdjust="spacing" textLength="120" x="854.33" y="601.7663">domainPath: Path</text><polygon fill="none" points="845.33,609.4635,849.33,613.4635,845.33,617.4635,841.33,613.4635" style="stroke:#B38D22;stroke-width:1.0;"/><text fill="#000000" font-family="sans-serif" font-size="14" lengthAdjust="spacing" textLength="114" x="854.33" y="618.2545">clusterPath: Path</text><polygon fill="none" points="845.33,625.9518,849.33,629.9518,845.33,633.9518,841.33,629.9518" style="stroke:#B38D22;stroke-width:1.0;"/><text fill="#000000" font-family="sans-serif" font-size="14" lengthAdjust="spacing" textLength="110" x="854.33" y="634.7428">serverPath: Path</text><polygon fill="none" points="845.33,642.4401,849.33,646.4401,845.33,650.4401,841.33,646.4401" style="stroke:#B38D22;stroke-width:1.0;"/><text fill="#000000" font-family="sans-serif" font-size="14" lengthAdjust="spacing" textLength="120" x="854.33" y="651.2311">schemaPath: Path</text><polygon fill="none" points="845.33,658.9284,849.33,662.9284,845.33,666.9284,841.33,662.9284" style="stroke:#B38D22;stroke-width:1.0;"/><text fill="#000000" font-family="sans-serif" font-size="14" lengthAdjust="spacing" textLength="117" x="854.33" y="667.7194">samplePath: Path</text><ellipse cx="845.33" cy="680.4166" fill="none" rx="3" ry="3" style="stroke:#038048;stroke-width:1.0;"/><text fill="#000000" font-family="sans-serif" font-size="14" lengthAdjust="spacing" text-decoration="underline" textLength="149" x="854.33" y="684.2077">sipFactory: SipFactory</text><ellipse cx="845.33" cy="696.9049" fill="none" rx="3" ry="3" style="stroke:#038048;stroke-width:1.0;"/><text fill="#000000" font-family="sans-serif" font-size="14" lengthAdjust="spacing" text-decoration="underline" textLength="154" x="854.33" y="700.6959">sipUtil: SipSessionsUtil</text><ellipse cx="845.33" cy="713.3932" fill="none" rx="3" ry="3" style="stroke:#038048;stroke-width:1.0;"/><text fill="#000000" font-family="sans-serif" font-size="14" lengthAdjust="spacing" text-decoration="underline" textLength="124" x="854.33" y="717.1842">sipLogger: Logger</text><polygon fill="none" points="845.33,724.8815,849.33,728.8815,845.33,732.8815,841.33,728.8815" style="stroke:#B38D22;stroke-width:1.0;"/><text fill="#000000" font-family="sans-serif" font-size="14" lengthAdjust="spacing" textLength="161" x="854.33" y="733.6725">domainNode: JsonNode</text><polygon fill="none" points="845.33,741.3698,849.33,745.3698,845.33,749.3698,841.33,745.3698" style="stroke:#B38D22;stroke-width:1.0;"/><text fill="#000000" font-family="sans-serif" font-size="14" lengthAdjust="spacing" textLength="155" x="854.33" y="750.1608">clusterNode: JsonNode</text><polygon fill="none" points="845.33,757.858,849.33,761.858,845.33,765.858,841.33,761.858" style="stroke:#B38D22;stroke-width:1.0;"/><text fill="#000000" font-family="sans-serif" font-size="14" lengthAdjust="spacing" textLength="151" x="854.33" y="766.6491">serverNode: JsonNode</text><polygon fill="none" points="845.33,774.3463,849.33,778.3463,845.33,782.3463,841.33,778.3463" style="stroke:#B38D22;stroke-width:1.0;"/><text fill="#000000" font-family="sans-serif" font-size="14" lengthAdjust="spacing" textLength="162" x="854.33" y="783.1373">mergedNode: JsonNode</text><line style="stroke:#181818;stroke-width:0.5;" x1="835.33" x2="1047.33" y1="790.0905" y2="790.0905"/></g></a><!--link AclRule to AclRule.Permission--><g id="link_AclRule_AclRule.Permission"><path codeLine="86" d="M300.7,1007.79 C294.93,1033.23 289.8081,1055.8088 284.7281,1078.1888 " fill="none" id="AclRule-to-AclRule.Permission" style="stroke:#181818;stroke-width:1.0;"/><polygon fill="#181818" points="283.4,1084.04,289.293,1076.1487,284.5068,1079.164,281.4914,1074.3778,283.4,1084.04" style="stroke:#181818;stroke-width:1.0;"/><text fill="#000000" font-family="sans-serif" font-size="13" lengthAdjust="spacing" textLength="70" x="294.6" y="1051.0984">permission</text></g><!--reverse link AclRule to AclRule.Permission--><g id="link_AclRule_AclRule.Permission"><path codeLine="87" d="M286.5484,1023.1944 C283.5084,1033.0144 285.45,1027.83 283.33,1037.53 C280.04,1052.58 277.94,1069.36 276.61,1084.11 " fill="none" id="AclRule-backto-AclRule.Permission" style="stroke:#181818;stroke-width:1.0;"/><ellipse cx="288.9142" cy="1015.5522" fill="#FFFFFF" rx="8" ry="8" style="stroke:#181818;stroke-width:1.0;"/><line style="stroke:#181818;stroke-width:1.0;" x1="286.5484" x2="291.28" y1="1023.1944" y2="1007.91"/><line style="stroke:#181818;stroke-width:1.0;" x1="281.272" x2="296.5564" y1="1013.1864" y2="1017.918"/></g><!--reverse link SipServlet to AclSipServlet--><g id="link_SipServlet_AclSipServlet"><path codeLine="88" d="M577.0536,305.0212 C585.3936,384.2812 593.97,465.93 600.4,527.11 " fill="none" id="SipServlet-backto-AclSipServlet" style="stroke:#181818;stroke-width:1.0;"/><polygon fill="none" points="575.17,287.12,571.0866,305.649,583.0207,304.3933,575.17,287.12" style="stroke:#181818;stroke-width:1.0;"/></g><!--reverse link SipServletListener to AclSipServlet--><g id="link_SipServletListener_AclSipServlet"><path codeLine="89" d="M889.5404,210.7223 C836.0204,281.1623 716.85,438.02 649.04,527.26 " fill="none" id="SipServletListener-backto-AclSipServlet" style="stroke:#181818;stroke-width:1.0;stroke-dasharray:7.0,7.0;"/><polygon fill="none" points="900.43,196.39,884.7629,207.0925,894.3178,214.3522,900.43,196.39" style="stroke:#181818;stroke-width:1.0;"/></g><!--link AclSipServlet to AclConfigManager--><g id="link_AclSipServlet_AclConfigManager"><path codeLine="90" d="M608.07,641.86 C610.31,714.27 613.9544,832.1329 615.9144,895.4629 " fill="none" id="AclSipServlet-to-AclConfigManager" style="stroke:#181818;stroke-width:1.0;"/><polygon fill="#181818" points="616.1,901.46,619.8197,892.3406,615.9453,896.4624,611.8235,892.588,616.1,901.46" style="stroke:#181818;stroke-width:1.0;"/><text fill="#000000" font-family="sans-serif" font-size="13" lengthAdjust="spacing" textLength="93" x="615.38" y="843.6584">configManager</text></g><!--reverse link SettingsManager to AclConfigManager--><g id="link_SettingsManager_AclConfigManager"><path codeLine="91" d="M823.2055,789.4242 C810.7355,806.0642 808.26,807.64 794.33,822.09 C764.38,853.17 725.03,880.65 691.04,901.38 " fill="none" id="SettingsManager-backto-AclConfigManager" style="stroke:#181818;stroke-width:1.0;"/><polygon fill="none" points="834,775.02,818.4042,785.826,828.0069,793.0223,834,775.02" style="stroke:#181818;stroke-width:1.0;"/></g><!--link AclConfig to AclRule.Permission--><g id="link_AclConfig_AclRule.Permission"><path codeLine="92" d="M172.1,633.39 C110.71,714.57 6,882.49 77.33,1007.53 C102.19,1051.11 144.9208,1077.6767 187.4408,1095.8067 " fill="none" id="AclConfig-to-AclRule.Permission" style="stroke:#181818;stroke-width:1.0;"/><polygon fill="#181818" points="192.96,1098.16,186.25,1090.9505,188.3606,1096.1989,183.1123,1098.3095,192.96,1098.16" style="stroke:#181818;stroke-width:1.0;"/><text fill="#000000" font-family="sans-serif" font-size="13" lengthAdjust="spacing" textLength="113" x="78.33" y="947.3784">defaultPermission</text></g><!--link AclConfig to AclRule--><g id="link_AclConfig_AclRule"><path codeLine="93" d="M225.36,633.47 C243.71,696.26 274.2571,800.7608 294.7471,870.8808 " fill="none" id="AclConfig-to-AclRule" style="stroke:#181818;stroke-width:1.0;"/><polygon fill="#181818" points="296.43,876.64,297.7451,866.8793,295.0276,871.8407,290.0662,869.1232,296.43,876.64" style="stroke:#181818;stroke-width:1.0;"/><text fill="#000000" font-family="sans-serif" font-size="13" lengthAdjust="spacing" textLength="109" x="288.44" y="843.6584">remoteAddresses</text><text fill="#000000" font-family="sans-serif" font-size="13" lengthAdjust="spacing" textLength="6" x="288.0347" y="866.2223">*</text></g><text fill="#888888" font-family="sans-serif" font-size="10" lengthAdjust="spacing" textLength="176" x="464.665" y="1197.178">UMLDoclet 2.1.2, PlantUML 1.2024.3</text><!--SRC=[fLTjRzis4FxUNq4q6E0iaunrs8SHMGRNLW2jVeCa1oYAmc0ascOgYHf9kqrIzxVlz6AzMRALr41YlZntpztnU3mZX92a2luY8eZY0c7yvWqieeYuNyYQ8YxM-ewBYFZwlKyygaigTiobKYUkZvvJSFnnVI8b6hY-jVKf-lGf6-aR5VYVFmCIbJu_YES9AYL6jX8iN5SshpBHtcNpSYho6vfJ4J0f6Gzhm3LLWrH_xxAPGHQ8T1jmEywy7BKl7AFXDZZufHUS9HUBnMPldwKYYhbxT4LydtzjsVDe-DZ4dmVMPf4DmVVXl1BkOdw6LeCpOyI_eoAsSM6ECF9vBIIQPD6OhzTKO9H-LxOlF6xH_xPKgbv1cwtKOvT5E86O8LD0pPweLn8Syb3HRyhOqL2TY7pkEU1NR3qX8MIaI9slB3NxVrM7jLbGbMAvoRrSGNSZozOrcwL1mj49YJ3AKj19vzVPj9pODwscDGNz1zsHhKyKBPAwK5MtVL-zvmzaHxxfsQdfa0mbgyczL8AuAlEraeSRfIA9-_sqHeGWksPgixtN6Uy_IF77dt_r4zNzJ7KVLFThcViFaneS1XKXyVzMOajFt23Rd2zl1qDdPdrilDe5qZ4dXhMq3UlE71fdiAEflRGCUpQ-CwmpK7indyyinnXrnIsjsw4y0vujdFUpnNIqDAUEOO5_XjrLOZ0QWUNsMO4uS82opHdukd3CyHcyfisjmV33ClT3qpem3ERpiJaSE35BIhRyO7nydQ0vUftSq386pl69x_CHWxilLiIbfLGUCwbec5INdqpfWwQkgNsuNVkVAfeDL_hewLu94j2lN7pHtRHMFTUgc4sLWf39h5vUEpTdmf7epNQqPABvx5uGyQZbP7sm8uDa-68hjQDVu-qOkGj9WiYd63dLPNSh1CJeQ9tVFr1NJO4Rera-hgc4MCTFuEGz9Q6TJAg0W4HH34WLJ99PZTudJqyO3UE8GWHhDh23g1b27eVk4NyQ2PoVHLr5dlwPhQa_f-u9MBI5b6n7NiXAXhNZF1uG5iw9si3B0l_hZYSqRTkfkQsxxeO6f7KtEUcMtQ8Wm4MyXPl4nIEEhtOsRWSl5FDnMWIIDrB62-tmq_rH79efzo1q_qgUZ1h3SmgIdUW9H435cdejY4eLEDcuOtner3NjfYEqrEPY55NxYevayAYyd2mXE6fFC2wr8TVVEoak9CxhpD-3w- -w_dBTBn7eU0QLLXOZjpnjvgpNU_2lMcYx1cvudgj5vhNvvT4LjB9g_j8qAx6-_VLjHsQC10sueba3JcL2vjAuJK0hpkElnMGyucvyMk_qt_LtqAJx95ImYdxPfR-hUfV_0m00]--></g></svg>