<?xml version="1.0" encoding="us-ascii" standalone="no"?><svg xmlns="http://www.w3.org/2000/svg" xmlns:xlink="http://www.w3.org/1999/xlink" contentStyleType="text/css" height="1487px" preserveAspectRatio="none" style="width:1562px;height:1487px;background:#FFFFFF;" version="1.1" viewBox="0 0 1562 1487" width="1562px" zoomAndPan="magnify"><defs/><g><!--cluster org.vorpal.blade.services.queue--><g id="cluster_org.vorpal.blade.services.queue"><path d="M437.5,393.57 L659.5,393.57 A3.75,3.75 0 0 1 662,396.07 L669,416.0583 L1204.5,416.0583 A2.5,2.5 0 0 1 1207,418.5583 L1207,1459.31 A2.5,2.5 0 0 1 1204.5,1461.81 L437.5,1461.81 A2.5,2.5 0 0 1 435,1459.31 L435,396.07 A2.5,2.5 0 0 1 437.5,393.57 " fill="none" style="stroke:#000000;stroke-width:1.5;"/><line style="stroke:#000000;stroke-width:1.5;" x1="435" x2="669" y1="416.0583" y2="416.0583"/><text fill="#000000" font-family="sans-serif" font-size="14" font-weight="bold" lengthAdjust="spacing" textLength="221" x="439" y="409.1052">org.vorpal.blade.services.queue</text></g><!--cluster org.vorpal.blade.framework.callflow--><g id="cluster_org.vorpal.blade.framework.callflow"><path d="M1233.5,253.42 L1489.5,253.42 A3.75,3.75 0 0 1 1492,255.92 L1499,275.9083 L1552.5,275.9083 A2.5,2.5 0 0 1 1555,278.4083 L1555,811.59 A2.5,2.5 0 0 1 1552.5,814.09 L1233.5,814.09 A2.5,2.5 0 0 1 1231,811.59 L1231,255.92 A2.5,2.5 0 0 1 1233.5,253.42 " fill="none" style="stroke:#000000;stroke-width:1.5;"/><line style="stroke:#000000;stroke-width:1.5;" x1="1231" x2="1499" y1="275.9083" y2="275.9083"/><text fill="#000000" font-family="sans-serif" font-size="14" font-weight="bold" lengthAdjust="spacing" textLength="255" x="1235" y="268.9552">org.vorpal.blade.framework.callflow</text></g><!--cluster org.vorpal.blade.framework.b2bua--><g id="cluster_org.vorpal.blade.framework.b2bua"><path d="M461.5,6 L704.5,6 A3.75,3.75 0 0 1 707,8.5 L714,28.4883 L786.5,28.4883 A2.5,2.5 0 0 1 789,30.9883 L789,217.92 A2.5,2.5 0 0 1 786.5,220.42 L461.5,220.42 A2.5,2.5 0 0 1 459,217.92 L459,8.5 A2.5,2.5 0 0 1 461.5,6 " fill="none" style="stroke:#000000;stroke-width:1.5;"/><line style="stroke:#000000;stroke-width:1.5;" x1="459" x2="714" y1="28.4883" y2="28.4883"/><text fill="#000000" font-family="sans-serif" font-size="14" font-weight="bold" lengthAdjust="spacing" textLength="242" x="463" y="21.5352">org.vorpal.blade.framework.b2bua</text></g><!--cluster org.vorpal.blade.services.queue.config--><g id="cluster_org.vorpal.blade.services.queue.config"><path d="M8.5,1329.83 L278.5,1329.83 A3.75,3.75 0 0 1 281,1332.33 L288,1352.3183 L408.5,1352.3183 A2.5,2.5 0 0 1 411,1354.8183 L411,1426.33 A2.5,2.5 0 0 1 408.5,1428.83 L8.5,1428.83 A2.5,2.5 0 0 1 6,1426.33 L6,1332.33 A2.5,2.5 0 0 1 8.5,1329.83 " fill="none" style="stroke:#000000;stroke-width:1.5;"/><line style="stroke:#000000;stroke-width:1.5;" x1="6" x2="288" y1="1352.3183" y2="1352.3183"/><text fill="#000000" font-family="sans-serif" font-size="14" font-weight="bold" lengthAdjust="spacing" textLength="269" x="10" y="1345.3652">org.vorpal.blade.services.queue.config</text></g><!--class QueueCallflow--><a href="QueueCallflow.html" target="_top" title="QueueCallflow.html" xlink:actuate="onRequest" xlink:href="QueueCallflow.html" xlink:show="new" xlink:title="QueueCallflow.html" xlink:type="simple"><g id="elem_QueueCallflow"><rect codeLine="5" fill="#F1F1F1" height="196.3945" id="QueueCallflow" rx="2.5" ry="2.5" style="stroke:#181818;stroke-width:0.5;" width="298" x="893" y="967.78"/><ellipse cx="987.75" cy="983.78" fill="#ADD1B2" rx="11" ry="11" style="stroke:#181818;stroke-width:1.0;"/><path d="M990.2231,989.9231 Q989.6421,990.2219 989.0029,990.3713 Q988.3638,990.5207 987.6582,990.5207 Q985.1514,990.5207 983.8315,988.8689 Q982.5117,987.217 982.5117,984.0959 Q982.5117,980.9665 983.8315,979.3147 Q985.1514,977.6628 987.6582,977.6628 Q988.3638,977.6628 989.0112,977.8122 Q989.6587,977.9616 990.2231,978.2605 L990.2231,980.9831 Q989.5923,980.4021 988.9988,980.1323 Q988.4053,979.8625 987.7744,979.8625 Q986.4297,979.8625 985.7449,980.9292 Q985.0601,981.9958 985.0601,984.0959 Q985.0601,986.1877 985.7449,987.2544 Q986.4297,988.321 987.7744,988.321 Q988.4053,988.321 988.9988,988.0512 Q989.5923,987.7815 990.2231,987.2004 Z " fill="#000000"/><text fill="#000000" font-family="sans-serif" font-size="14" lengthAdjust="spacing" textLength="100" x="1008.25" y="989.071">QueueCallflow</text><line style="stroke:#181818;stroke-width:0.5;" x1="894" x2="1190" y1="999.78" y2="999.78"/><rect fill="none" height="6" style="stroke:#C82930;stroke-width:1.0;" width="6" x="901" y="1010.5241"/><text fill="#000000" font-family="sans-serif" font-size="14" lengthAdjust="spacing" textLength="216" x="913" y="1017.3152">aliceRequest: SipServletRequest</text><rect fill="none" height="6" style="stroke:#C82930;stroke-width:1.0;" width="6" x="901" y="1027.0124"/><text fill="#000000" font-family="sans-serif" font-size="14" lengthAdjust="spacing" textLength="227" x="913" y="1033.8034">mediaRequest: SipServletRequest</text><rect fill="none" height="6" style="stroke:#C82930;stroke-width:1.0;" width="6" x="901" y="1043.5007"/><text fill="#000000" font-family="sans-serif" font-size="14" lengthAdjust="spacing" textLength="183" x="913" y="1050.2917">ringingPeriodTimer: String</text><rect fill="none" height="6" style="stroke:#C82930;stroke-width:1.0;" width="6" x="901" y="1059.989"/><text fill="#000000" font-family="sans-serif" font-size="14" lengthAdjust="spacing" textLength="105" x="913" y="1066.78">queueId: String</text><line style="stroke:#181818;stroke-width:0.5;" x1="894" x2="1190" y1="1073.7331" y2="1073.7331"/><ellipse cx="904" cy="1087.4773" fill="#84BE84" rx="3" ry="3" style="stroke:#038048;stroke-width:1.0;"/><text fill="#000000" font-family="sans-serif" font-size="14" lengthAdjust="spacing" textLength="272" x="913" y="1091.2683">QueueCallflow(String, QueueAttributes)</text><ellipse cx="904" cy="1103.9655" fill="#84BE84" rx="3" ry="3" style="stroke:#038048;stroke-width:1.0;"/><text fill="#000000" font-family="sans-serif" font-size="14" lengthAdjust="spacing" textLength="222" x="913" y="1107.7566">process(SipServletRequest): void</text><ellipse cx="904" cy="1120.4538" fill="#84BE84" rx="3" ry="3" style="stroke:#038048;stroke-width:1.0;"/><text fill="#000000" font-family="sans-serif" font-size="14" lengthAdjust="spacing" textLength="124" x="913" y="1124.2448">stopTimers(): void</text><ellipse cx="904" cy="1136.9421" fill="#84BE84" rx="3" ry="3" style="stroke:#038048;stroke-width:1.0;"/><text fill="#000000" font-family="sans-serif" font-size="14" lengthAdjust="spacing" textLength="110" x="913" y="1140.7331">complete(): void</text><ellipse cx="904" cy="1153.4304" fill="#84BE84" rx="3" ry="3" style="stroke:#038048;stroke-width:1.0;"/><text fill="#000000" font-family="sans-serif" font-size="14" lengthAdjust="spacing" textLength="231" x="913" y="1157.2214">stateEquals(QueueState): boolean</text></g></a><!--class QueueCallflow.QueueState--><a href="QueueCallflow.QueueState.html" target="_top" title="QueueCallflow.QueueState.html" xlink:actuate="onRequest" xlink:href="QueueCallflow.QueueState.html" xlink:show="new" xlink:title="QueueCallflow.QueueState.html" xlink:type="simple"><g id="elem_QueueCallflow.QueueState"><rect codeLine="17" fill="#F1F1F1" height="113.9531" id="QueueCallflow.QueueState" rx="2.5" ry="2.5" style="stroke:#181818;stroke-width:0.5;" width="215" x="934.5" y="1331.86"/><ellipse cx="949.5" cy="1347.86" fill="#EB937F" rx="11" ry="11" style="stroke:#181818;stroke-width:1.0;"/><path d="M953.1143,1354.36 L945.3945,1354.36 L945.3945,1341.9669 L953.1143,1341.9669 L953.1143,1344.1251 L947.8433,1344.1251 L947.8433,1346.798 L952.6162,1346.798 L952.6162,1348.9562 L947.8433,1348.9562 L947.8433,1352.2018 L953.1143,1352.2018 Z " fill="#000000"/><text fill="#000000" font-family="sans-serif" font-size="14" lengthAdjust="spacing" textLength="183" x="963.5" y="1353.151">QueueCallflow.QueueState</text><line style="stroke:#181818;stroke-width:0.5;" x1="935.5" x2="1148.5" y1="1363.86" y2="1363.86"/><ellipse cx="945.5" cy="1377.6041" fill="none" rx="3" ry="3" style="stroke:#038048;stroke-width:1.0;"/><text fill="#000000" font-family="sans-serif" font-size="14" lengthAdjust="spacing" text-decoration="underline" textLength="73" x="954.5" y="1381.3952">CANCELED</text><ellipse cx="945.5" cy="1394.0924" fill="none" rx="3" ry="3" style="stroke:#038048;stroke-width:1.0;"/><text fill="#000000" font-family="sans-serif" font-size="14" lengthAdjust="spacing" text-decoration="underline" textLength="57" x="954.5" y="1397.8834">RINGING</text><ellipse cx="945.5" cy="1410.5807" fill="none" rx="3" ry="3" style="stroke:#038048;stroke-width:1.0;"/><text fill="#000000" font-family="sans-serif" font-size="14" lengthAdjust="spacing" text-decoration="underline" textLength="108" x="954.5" y="1414.3717">MEDIA_RINGING</text><ellipse cx="945.5" cy="1427.069" fill="none" rx="3" ry="3" style="stroke:#038048;stroke-width:1.0;"/><text fill="#000000" font-family="sans-serif" font-size="14" lengthAdjust="spacing" text-decoration="underline" textLength="137" x="954.5" y="1430.86">MEDIA_CONNECTED</text><line style="stroke:#181818;stroke-width:0.5;" x1="935.5" x2="1148.5" y1="1437.8131" y2="1437.8131"/></g></a><!--class Statistics--><a href="Statistics.html" target="_top" title="Statistics.html" xlink:actuate="onRequest" xlink:href="Statistics.html" xlink:show="new" xlink:title="Statistics.html" xlink:type="simple"><g id="elem_Statistics"><rect codeLine="24" fill="#F1F1F1" height="377.7656" id="Statistics" rx="2.5" ry="2.5" style="stroke:#181818;stroke-width:0.5;" width="186" x="451" y="877.09"/><ellipse cx="509.75" cy="893.09" fill="#ADD1B2" rx="11" ry="11" style="stroke:#181818;stroke-width:1.0;"/><path d="M512.2231,899.2331 Q511.6421,899.5319 511.0029,899.6813 Q510.3638,899.8307 509.6582,899.8307 Q507.1514,899.8307 505.8315,898.1789 Q504.5117,896.527 504.5117,893.4059 Q504.5117,890.2765 505.8315,888.6247 Q507.1514,886.9728 509.6582,886.9728 Q510.3638,886.9728 511.0112,887.1222 Q511.6587,887.2716 512.2231,887.5705 L512.2231,890.2931 Q511.5923,889.7121 510.9988,889.4423 Q510.4053,889.1725 509.7744,889.1725 Q508.4297,889.1725 507.7449,890.2392 Q507.0601,891.3058 507.0601,893.4059 Q507.0601,895.4977 507.7449,896.5644 Q508.4297,897.631 509.7744,897.631 Q510.4053,897.631 510.9988,897.3612 Q511.5923,897.0915 512.2231,896.5104 Z " fill="#000000"/><text fill="#000000" font-family="sans-serif" font-size="14" lengthAdjust="spacing" textLength="60" x="530.25" y="898.381">Statistics</text><line style="stroke:#181818;stroke-width:0.5;" x1="452" x2="636" y1="909.09" y2="909.09"/><ellipse cx="462" cy="922.8341" fill="none" rx="3" ry="3" style="stroke:#038048;stroke-width:1.0;"/><text fill="#000000" font-family="sans-serif" font-size="14" lengthAdjust="spacing" textLength="137" x="471" y="926.6252">minuteTimer: String</text><ellipse cx="462" cy="939.3224" fill="none" rx="3" ry="3" style="stroke:#038048;stroke-width:1.0;"/><text fill="#000000" font-family="sans-serif" font-size="14" lengthAdjust="spacing" textLength="106" x="471" y="943.1134">minuteHigh: int</text><ellipse cx="462" cy="955.8107" fill="none" rx="3" ry="3" style="stroke:#038048;stroke-width:1.0;"/><text fill="#000000" font-family="sans-serif" font-size="14" lengthAdjust="spacing" textLength="101" x="471" y="959.6017">minuteLow: int</text><ellipse cx="462" cy="972.299" fill="none" rx="3" ry="3" style="stroke:#038048;stroke-width:1.0;"/><text fill="#000000" font-family="sans-serif" font-size="14" lengthAdjust="spacing" textLength="133" x="471" y="976.09">hourlyTimer: String</text><ellipse cx="462" cy="988.7873" fill="none" rx="3" ry="3" style="stroke:#038048;stroke-width:1.0;"/><text fill="#000000" font-family="sans-serif" font-size="14" lengthAdjust="spacing" textLength="102" x="471" y="992.5783">hourlyHigh: int</text><ellipse cx="462" cy="1005.2755" fill="none" rx="3" ry="3" style="stroke:#038048;stroke-width:1.0;"/><text fill="#000000" font-family="sans-serif" font-size="14" lengthAdjust="spacing" textLength="97" x="471" y="1009.0666">hourlyLow: int</text><ellipse cx="462" cy="1021.7638" fill="none" rx="3" ry="3" style="stroke:#038048;stroke-width:1.0;"/><text fill="#000000" font-family="sans-serif" font-size="14" lengthAdjust="spacing" textLength="121" x="471" y="1025.5548">dailyTimer: String</text><ellipse cx="462" cy="1038.2521" fill="none" rx="3" ry="3" style="stroke:#038048;stroke-width:1.0;"/><text fill="#000000" font-family="sans-serif" font-size="14" lengthAdjust="spacing" textLength="90" x="471" y="1042.0431">dailyHigh: int</text><ellipse cx="462" cy="1054.7404" fill="none" rx="3" ry="3" style="stroke:#038048;stroke-width:1.0;"/><text fill="#000000" font-family="sans-serif" font-size="14" lengthAdjust="spacing" textLength="85" x="471" y="1058.5314">dailyLow: int</text><rect fill="none" height="6" style="stroke:#C82930;stroke-width:1.0;" width="6" x="459" y="1068.2287"/><text fill="#000000" font-family="sans-serif" font-size="14" lengthAdjust="spacing" text-decoration="underline" textLength="124" x="471" y="1075.0197">sipLogger: Logger</text><rect fill="none" height="6" style="stroke:#C82930;stroke-width:1.0;" width="6" x="459" y="1084.717"/><text fill="#000000" font-family="sans-serif" font-size="14" lengthAdjust="spacing" text-decoration="underline" textLength="96" x="471" y="1091.508">minute: Timer</text><rect fill="none" height="6" style="stroke:#C82930;stroke-width:1.0;" width="6" x="459" y="1101.2052"/><text fill="#000000" font-family="sans-serif" font-size="14" lengthAdjust="spacing" text-decoration="underline" textLength="92" x="471" y="1107.9963">hourly: Timer</text><rect fill="none" height="6" style="stroke:#C82930;stroke-width:1.0;" width="6" x="459" y="1117.6935"/><text fill="#000000" font-family="sans-serif" font-size="14" lengthAdjust="spacing" text-decoration="underline" textLength="80" x="471" y="1124.4845">daily: Timer</text><ellipse cx="462" cy="1137.1818" fill="none" rx="3" ry="3" style="stroke:#038048;stroke-width:1.0;"/><text fill="#000000" font-family="sans-serif" font-size="14" lengthAdjust="spacing" textLength="160" x="471" y="1140.9728">minuteTask: TimerTask</text><ellipse cx="462" cy="1153.6701" fill="none" rx="3" ry="3" style="stroke:#038048;stroke-width:1.0;"/><text fill="#000000" font-family="sans-serif" font-size="14" lengthAdjust="spacing" textLength="156" x="471" y="1157.4611">hourlyTask: TimerTask</text><ellipse cx="462" cy="1170.1584" fill="none" rx="3" ry="3" style="stroke:#038048;stroke-width:1.0;"/><text fill="#000000" font-family="sans-serif" font-size="14" lengthAdjust="spacing" textLength="144" x="471" y="1173.9494">dailyTask: TimerTask</text><line style="stroke:#181818;stroke-width:0.5;" x1="452" x2="636" y1="1180.9025" y2="1180.9025"/><ellipse cx="462" cy="1194.6466" fill="#84BE84" rx="3" ry="3" style="stroke:#038048;stroke-width:1.0;"/><text fill="#000000" font-family="sans-serif" font-size="14" lengthAdjust="spacing" textLength="115" x="471" y="1198.4377">Statistics(Queue)</text><ellipse cx="462" cy="1211.1349" fill="#84BE84" rx="3" ry="3" style="stroke:#038048;stroke-width:1.0;"/><text fill="#000000" font-family="sans-serif" font-size="14" lengthAdjust="spacing" textLength="124" x="471" y="1214.9259">stopTimers(): void</text><ellipse cx="462" cy="1227.6232" fill="#84BE84" rx="3" ry="3" style="stroke:#038048;stroke-width:1.0;"/><text fill="#000000" font-family="sans-serif" font-size="14" lengthAdjust="spacing" text-decoration="underline" textLength="142" x="471" y="1231.4142">RANDOM(long): long</text><ellipse cx="462" cy="1244.1115" fill="#84BE84" rx="3" ry="3" style="stroke:#038048;stroke-width:1.0;"/><text fill="#000000" font-family="sans-serif" font-size="14" lengthAdjust="spacing" textLength="130" x="471" y="1247.9025">intervalTask(): void</text></g></a><!--class QueueServlet--><a href="QueueServlet.html" target="_top" title="QueueServlet.html" xlink:actuate="onRequest" xlink:href="QueueServlet.html" xlink:show="new" xlink:title="QueueServlet.html" xlink:type="simple"><g id="elem_QueueServlet"><rect codeLine="47" fill="#F1F1F1" height="229.3711" id="QueueServlet" rx="2.5" ry="2.5" style="stroke:#181818;stroke-width:0.5;" width="346" x="451" y="428.57"/><ellipse cx="574.25" cy="444.57" fill="#ADD1B2" rx="11" ry="11" style="stroke:#181818;stroke-width:1.0;"/><path d="M576.7231,450.7131 Q576.1421,451.0119 575.5029,451.1613 Q574.8638,451.3107 574.1582,451.3107 Q571.6514,451.3107 570.3315,449.6589 Q569.0117,448.007 569.0117,444.8859 Q569.0117,441.7565 570.3315,440.1047 Q571.6514,438.4528 574.1582,438.4528 Q574.8638,438.4528 575.5112,438.6022 Q576.1587,438.7516 576.7231,439.0505 L576.7231,441.7731 Q576.0923,441.1921 575.4988,440.9223 Q574.9053,440.6525 574.2744,440.6525 Q572.9297,440.6525 572.2449,441.7192 Q571.5601,442.7858 571.5601,444.8859 Q571.5601,446.9777 572.2449,448.0444 Q572.9297,449.111 574.2744,449.111 Q574.9053,449.111 575.4988,448.8412 Q576.0923,448.5715 576.7231,447.9904 Z " fill="#000000"/><text fill="#000000" font-family="sans-serif" font-size="14" lengthAdjust="spacing" textLength="91" x="594.75" y="449.861">QueueServlet</text><line style="stroke:#181818;stroke-width:0.5;" x1="452" x2="796" y1="460.57" y2="460.57"/><rect fill="none" height="6" style="stroke:#C82930;stroke-width:1.0;" width="6" x="459" y="471.3141"/><text fill="#000000" font-family="sans-serif" font-size="14" lengthAdjust="spacing" text-decoration="underline" textLength="152" x="471" y="478.1052">serialVersionUID: long</text><ellipse cx="462" cy="490.8024" fill="none" rx="3" ry="3" style="stroke:#038048;stroke-width:1.0;"/><text fill="#000000" font-family="sans-serif" font-size="14" lengthAdjust="spacing" text-decoration="underline" textLength="203" x="471" y="494.5934">queues: Map&lt;String, Queue&gt;</text><line style="stroke:#181818;stroke-width:0.5;" x1="452" x2="796" y1="501.5466" y2="501.5466"/><ellipse cx="462" cy="515.2907" fill="#84BE84" rx="3" ry="3" style="stroke:#038048;stroke-width:1.0;"/><text fill="#000000" font-family="sans-serif" font-size="14" lengthAdjust="spacing" textLength="305" x="471" y="519.0817">servletCreated(SipServletContextEvent): void</text><ellipse cx="462" cy="531.779" fill="#84BE84" rx="3" ry="3" style="stroke:#038048;stroke-width:1.0;"/><text fill="#000000" font-family="sans-serif" font-size="14" lengthAdjust="spacing" textLength="320" x="471" y="535.57">servletDestroyed(SipServletContextEvent): void</text><polygon fill="#FFFF44" points="462,543.2673,466,547.2673,462,551.2673,458,547.2673" style="stroke:#B38D22;stroke-width:1.0;"/><text fill="#000000" font-family="sans-serif" font-size="14" lengthAdjust="spacing" textLength="299" x="471" y="552.0583">chooseCallflow(SipServletRequest): Callflow</text><ellipse cx="462" cy="564.7555" fill="#84BE84" rx="3" ry="3" style="stroke:#038048;stroke-width:1.0;"/><text fill="#000000" font-family="sans-serif" font-size="14" lengthAdjust="spacing" textLength="241" x="471" y="568.5466">callStarted(SipServletRequest): void</text><ellipse cx="462" cy="581.2438" fill="#84BE84" rx="3" ry="3" style="stroke:#038048;stroke-width:1.0;"/><text fill="#000000" font-family="sans-serif" font-size="14" lengthAdjust="spacing" textLength="271" x="471" y="585.0348">callAnswered(SipServletResponse): void</text><ellipse cx="462" cy="597.7321" fill="#84BE84" rx="3" ry="3" style="stroke:#038048;stroke-width:1.0;"/><text fill="#000000" font-family="sans-serif" font-size="14" lengthAdjust="spacing" textLength="266" x="471" y="601.5231">callConnected(SipServletRequest): void</text><ellipse cx="462" cy="614.2204" fill="#84BE84" rx="3" ry="3" style="stroke:#038048;stroke-width:1.0;"/><text fill="#000000" font-family="sans-serif" font-size="14" lengthAdjust="spacing" textLength="267" x="471" y="618.0114">callCompleted(SipServletRequest): void</text><ellipse cx="462" cy="630.7087" fill="#84BE84" rx="3" ry="3" style="stroke:#038048;stroke-width:1.0;"/><text fill="#000000" font-family="sans-serif" font-size="14" lengthAdjust="spacing" textLength="262" x="471" y="634.4997">callDeclined(SipServletResponse): void</text><ellipse cx="462" cy="647.197" fill="#84BE84" rx="3" ry="3" style="stroke:#038048;stroke-width:1.0;"/><text fill="#000000" font-family="sans-serif" font-size="14" lengthAdjust="spacing" textLength="272" x="471" y="650.988">callAbandoned(SipServletRequest): void</text></g></a><!--class Queue--><a href="Queue.html" target="_top" title="Queue.html" xlink:actuate="onRequest" xlink:href="Queue.html" xlink:show="new" xlink:title="Queue.html" xlink:type="simple"><g id="elem_Queue"><rect codeLine="61" fill="#F1F1F1" height="163.418" id="Queue" rx="2.5" ry="2.5" style="stroke:#181818;stroke-width:0.5;" width="244" x="832" y="461.55"/><ellipse cx="927.25" cy="477.55" fill="#ADD1B2" rx="11" ry="11" style="stroke:#181818;stroke-width:1.0;"/><path d="M929.7231,483.6931 Q929.1421,483.9919 928.5029,484.1413 Q927.8638,484.2907 927.1582,484.2907 Q924.6514,484.2907 923.3315,482.6389 Q922.0117,480.987 922.0117,477.8659 Q922.0117,474.7365 923.3315,473.0847 Q924.6514,471.4328 927.1582,471.4328 Q927.8638,471.4328 928.5112,471.5822 Q929.1587,471.7316 929.7231,472.0305 L929.7231,474.7531 Q929.0923,474.1721 928.4988,473.9023 Q927.9053,473.6325 927.2744,473.6325 Q925.9297,473.6325 925.2449,474.6992 Q924.5601,475.7658 924.5601,477.8659 Q924.5601,479.9577 925.2449,481.0244 Q925.9297,482.091 927.2744,482.091 Q927.9053,482.091 928.4988,481.8212 Q929.0923,481.5515 929.7231,480.9704 Z " fill="#000000"/><text fill="#000000" font-family="sans-serif" font-size="14" lengthAdjust="spacing" textLength="45" x="947.75" y="482.841">Queue</text><line style="stroke:#181818;stroke-width:0.5;" x1="833" x2="1075" y1="493.55" y2="493.55"/><ellipse cx="843" cy="507.2941" fill="none" rx="3" ry="3" style="stroke:#038048;stroke-width:1.0;"/><text fill="#000000" font-family="sans-serif" font-size="14" lengthAdjust="spacing" textLength="62" x="852" y="511.0852">id: String</text><ellipse cx="843" cy="523.7824" fill="none" rx="3" ry="3" style="stroke:#038048;stroke-width:1.0;"/><text fill="#000000" font-family="sans-serif" font-size="14" lengthAdjust="spacing" textLength="84" x="852" y="527.5734">timer: Timer</text><ellipse cx="843" cy="540.2707" fill="none" rx="3" ry="3" style="stroke:#038048;stroke-width:1.0;"/><text fill="#000000" font-family="sans-serif" font-size="14" lengthAdjust="spacing" textLength="124" x="852" y="544.0617">sipLogger: Logger</text><ellipse cx="843" cy="556.759" fill="none" rx="3" ry="3" style="stroke:#038048;stroke-width:1.0;"/><text fill="#000000" font-family="sans-serif" font-size="14" lengthAdjust="spacing" textLength="155" x="852" y="560.55">queueTask: TimerTask</text><line style="stroke:#181818;stroke-width:0.5;" x1="833" x2="1075" y1="567.5031" y2="567.5031"/><ellipse cx="843" cy="581.2473" fill="#84BE84" rx="3" ry="3" style="stroke:#038048;stroke-width:1.0;"/><text fill="#000000" font-family="sans-serif" font-size="14" lengthAdjust="spacing" textLength="96" x="852" y="585.0383">Queue(String)</text><ellipse cx="843" cy="597.7355" fill="#84BE84" rx="3" ry="3" style="stroke:#038048;stroke-width:1.0;"/><text fill="#000000" font-family="sans-serif" font-size="14" lengthAdjust="spacing" textLength="218" x="852" y="601.5266">initialize(QueueAttributes): void</text><ellipse cx="843" cy="614.2238" fill="#84BE84" rx="3" ry="3" style="stroke:#038048;stroke-width:1.0;"/><text fill="#000000" font-family="sans-serif" font-size="14" lengthAdjust="spacing" textLength="124" x="852" y="618.0148">stopTimers(): void</text></g></a><!--class Queue.QueueMemHog--><a href="Queue.QueueMemHog.html" target="_top" title="Queue.QueueMemHog.html" xlink:actuate="onRequest" xlink:href="Queue.QueueMemHog.html" xlink:show="new" xlink:title="Queue.QueueMemHog.html" xlink:type="simple"><g id="elem_Queue.QueueMemHog"><rect codeLine="71" fill="#F1F1F1" height="64.4883" id="Queue.QueueMemHog" rx="2.5" ry="2.5" style="stroke:#181818;stroke-width:0.5;" width="187" x="671.5" y="1033.73"/><ellipse cx="686.5" cy="1049.73" fill="#ADD1B2" rx="11" ry="11" style="stroke:#181818;stroke-width:1.0;"/><path d="M688.9731,1055.8731 Q688.3921,1056.1719 687.7529,1056.3213 Q687.1138,1056.4707 686.4082,1056.4707 Q683.9014,1056.4707 682.5815,1054.8189 Q681.2617,1053.167 681.2617,1050.0459 Q681.2617,1046.9165 682.5815,1045.2647 Q683.9014,1043.6128 686.4082,1043.6128 Q687.1138,1043.6128 687.7612,1043.7622 Q688.4087,1043.9116 688.9731,1044.2105 L688.9731,1046.9331 Q688.3423,1046.3521 687.7488,1046.0823 Q687.1553,1045.8125 686.5244,1045.8125 Q685.1797,1045.8125 684.4949,1046.8792 Q683.8101,1047.9458 683.8101,1050.0459 Q683.8101,1052.1377 684.4949,1053.2044 Q685.1797,1054.271 686.5244,1054.271 Q687.1553,1054.271 687.7488,1054.0012 Q688.3423,1053.7315 688.9731,1053.1504 Z " fill="#000000"/><text fill="#000000" font-family="sans-serif" font-size="14" lengthAdjust="spacing" textLength="155" x="700.5" y="1055.021">Queue.QueueMemHog</text><line style="stroke:#181818;stroke-width:0.5;" x1="672.5" x2="857.5" y1="1065.73" y2="1065.73"/><polygon fill="none" points="682.5,1075.4741,678.5,1081.4741,686.5,1081.4741" style="stroke:#1963A0;stroke-width:1.0;"/><text fill="#000000" font-family="sans-serif" font-size="14" lengthAdjust="spacing" textLength="78" x="691.5" y="1083.2652">mb1: byte[]</text><line style="stroke:#181818;stroke-width:0.5;" x1="672.5" x2="857.5" y1="1090.2183" y2="1090.2183"/></g></a><!--class Callflow--><a href="https://vorpalnet.github.io/blade/vorpal-blade-library-framework/org/vorpal/blade/framework/callflow/Callflow.html?is-external=true" target="_top" title="https://vorpalnet.github.io/blade/vorpal-blade-library-framework/org/vorpal/blade/framework/callflow/Callflow.html?is-external=true" xlink:actuate="onRequest" xlink:href="https://vorpalnet.github.io/blade/vorpal-blade-library-framework/org/vorpal/blade/framework/callflow/Callflow.html?is-external=true" xlink:show="new" xlink:title="https://vorpalnet.github.io/blade/vorpal-blade-library-framework/org/vorpal/blade/framework/callflow/Callflow.html?is-external=true" xlink:type="simple"><g id="elem_Callflow"><rect codeLine="78" fill="#F1F1F1" height="509.6719" id="Callflow" rx="2.5" ry="2.5" style="stroke:#181818;stroke-width:0.5;" width="291" x="1247.5" y="288.42"/><ellipse cx="1361.25" cy="304.42" fill="#A9DCDF" rx="11" ry="11" style="stroke:#181818;stroke-width:1.0;"/><path d="M1361.1133,299.7681 L1359.9595,304.8399 L1362.2754,304.8399 Z M1359.6191,297.5269 L1362.6157,297.5269 L1365.9609,309.92 L1363.5122,309.92 L1362.7485,306.857 L1359.4697,306.857 L1358.7227,309.92 L1356.2739,309.92 Z " fill="#000000"/><text fill="#000000" font-family="sans-serif" font-size="14" font-style="italic" lengthAdjust="spacing" textLength="55" x="1381.75" y="309.711">Callflow</text><line style="stroke:#181818;stroke-width:0.5;" x1="1248.5" x2="1537.5" y1="320.42" y2="320.42"/><rect fill="none" height="6" style="stroke:#C82930;stroke-width:1.0;" width="6" x="1255.5" y="331.1641"/><text fill="#000000" font-family="sans-serif" font-size="14" lengthAdjust="spacing" text-decoration="underline" textLength="152" x="1267.5" y="337.9552">serialVersionUID: long</text><polygon fill="none" points="1258.5,345.6524,1262.5,349.6524,1258.5,353.6524,1254.5,349.6524" style="stroke:#B38D22;stroke-width:1.0;"/><text fill="#000000" font-family="sans-serif" font-size="14" lengthAdjust="spacing" text-decoration="underline" textLength="149" x="1267.5" y="354.4434">sipFactory: SipFactory</text><polygon fill="none" points="1258.5,362.1407,1262.5,366.1407,1258.5,370.1407,1254.5,366.1407" style="stroke:#B38D22;stroke-width:1.0;"/><text fill="#000000" font-family="sans-serif" font-size="14" lengthAdjust="spacing" text-decoration="underline" textLength="154" x="1267.5" y="370.9317">sipUtil: SipSessionsUtil</text><polygon fill="none" points="1258.5,378.629,1262.5,382.629,1258.5,386.629,1254.5,382.629" style="stroke:#B38D22;stroke-width:1.0;"/><text fill="#000000" font-family="sans-serif" font-size="14" lengthAdjust="spacing" text-decoration="underline" textLength="180" x="1267.5" y="387.42">timerService: TimerService</text><polygon fill="none" points="1258.5,395.1173,1262.5,399.1173,1258.5,403.1173,1254.5,399.1173" style="stroke:#B38D22;stroke-width:1.0;"/><text fill="#000000" font-family="sans-serif" font-size="14" lengthAdjust="spacing" text-decoration="underline" textLength="124" x="1267.5" y="403.9083">sipLogger: Logger</text><polygon fill="none" points="1258.5,411.6055,1262.5,415.6055,1258.5,419.6055,1254.5,415.6055" style="stroke:#B38D22;stroke-width:1.0;"/><text fill="#000000" font-family="sans-serif" font-size="14" lengthAdjust="spacing" text-decoration="underline" textLength="265" x="1267.5" y="420.3966">sessionParameters: SessionParameters</text><polygon fill="none" points="1258.5,428.0938,1262.5,432.0938,1258.5,436.0938,1254.5,432.0938" style="stroke:#B38D22;stroke-width:1.0;"/><text fill="#000000" font-family="sans-serif" font-size="14" lengthAdjust="spacing" text-decoration="underline" textLength="93" x="1267.5" y="436.8848">INVITE: String</text><polygon fill="none" points="1258.5,444.5821,1262.5,448.5821,1258.5,452.5821,1254.5,448.5821" style="stroke:#B38D22;stroke-width:1.0;"/><text fill="#000000" font-family="sans-serif" font-size="14" lengthAdjust="spacing" text-decoration="underline" textLength="78" x="1267.5" y="453.3731">ACK: String</text><polygon fill="none" points="1258.5,461.0704,1262.5,465.0704,1258.5,469.0704,1254.5,465.0704" style="stroke:#B38D22;stroke-width:1.0;"/><text fill="#000000" font-family="sans-serif" font-size="14" lengthAdjust="spacing" text-decoration="underline" textLength="74" x="1267.5" y="469.8614">BYE: String</text><polygon fill="none" points="1258.5,477.5587,1262.5,481.5587,1258.5,485.5587,1254.5,481.5587" style="stroke:#B38D22;stroke-width:1.0;"/><text fill="#000000" font-family="sans-serif" font-size="14" lengthAdjust="spacing" text-decoration="underline" textLength="104" x="1267.5" y="486.3497">CANCEL: String</text><polygon fill="none" points="1258.5,494.047,1262.5,498.047,1258.5,502.047,1254.5,498.047" style="stroke:#B38D22;stroke-width:1.0;"/><text fill="#000000" font-family="sans-serif" font-size="14" lengthAdjust="spacing" text-decoration="underline" textLength="114" x="1267.5" y="502.838">REGISTER: String</text><polygon fill="none" points="1258.5,510.5352,1262.5,514.5352,1258.5,518.5352,1254.5,514.5352" style="stroke:#B38D22;stroke-width:1.0;"/><text fill="#000000" font-family="sans-serif" font-size="14" lengthAdjust="spacing" text-decoration="underline" textLength="110" x="1267.5" y="519.3262">OPTIONS: String</text><polygon fill="none" points="1258.5,527.0235,1262.5,531.0235,1258.5,535.0235,1254.5,531.0235" style="stroke:#B38D22;stroke-width:1.0;"/><text fill="#000000" font-family="sans-serif" font-size="14" lengthAdjust="spacing" text-decoration="underline" textLength="95" x="1267.5" y="535.8145">PRACK: String</text><polygon fill="none" points="1258.5,543.5118,1262.5,547.5118,1258.5,551.5118,1254.5,547.5118" style="stroke:#B38D22;stroke-width:1.0;"/><text fill="#000000" font-family="sans-serif" font-size="14" lengthAdjust="spacing" text-decoration="underline" textLength="122" x="1267.5" y="552.3028">SUBSCRIBE: String</text><polygon fill="none" points="1258.5,560.0001,1262.5,564.0001,1258.5,568.0001,1254.5,564.0001" style="stroke:#B38D22;stroke-width:1.0;"/><text fill="#000000" font-family="sans-serif" font-size="14" lengthAdjust="spacing" text-decoration="underline" textLength="100" x="1267.5" y="568.7911">NOTIFY: String</text><polygon fill="none" points="1258.5,576.4884,1262.5,580.4884,1258.5,584.4884,1254.5,580.4884" style="stroke:#B38D22;stroke-width:1.0;"/><text fill="#000000" font-family="sans-serif" font-size="14" lengthAdjust="spacing" text-decoration="underline" textLength="104" x="1267.5" y="585.2794">PUBLISH: String</text><polygon fill="none" points="1258.5,592.9766,1262.5,596.9766,1258.5,600.9766,1254.5,596.9766" style="stroke:#B38D22;stroke-width:1.0;"/><text fill="#000000" font-family="sans-serif" font-size="14" lengthAdjust="spacing" text-decoration="underline" textLength="82" x="1267.5" y="601.7677">INFO: String</text><polygon fill="none" points="1258.5,609.4649,1262.5,613.4649,1258.5,617.4649,1254.5,613.4649" style="stroke:#B38D22;stroke-width:1.0;"/><text fill="#000000" font-family="sans-serif" font-size="14" lengthAdjust="spacing" text-decoration="underline" textLength="104" x="1267.5" y="618.2559">UPDATE: String</text><polygon fill="none" points="1258.5,625.9532,1262.5,629.9532,1258.5,633.9532,1254.5,629.9532" style="stroke:#B38D22;stroke-width:1.0;"/><text fill="#000000" font-family="sans-serif" font-size="14" lengthAdjust="spacing" text-decoration="underline" textLength="91" x="1267.5" y="634.7442">REFER: String</text><polygon fill="none" points="1258.5,642.4415,1262.5,646.4415,1258.5,650.4415,1254.5,646.4415" style="stroke:#B38D22;stroke-width:1.0;"/><text fill="#000000" font-family="sans-serif" font-size="14" lengthAdjust="spacing" text-decoration="underline" textLength="69" x="1267.5" y="651.2325">SIP: String</text><polygon fill="none" points="1258.5,658.9298,1262.5,662.9298,1258.5,666.9298,1254.5,662.9298" style="stroke:#B38D22;stroke-width:1.0;"/><text fill="#000000" font-family="sans-serif" font-size="14" lengthAdjust="spacing" text-decoration="underline" textLength="102" x="1267.5" y="667.7208">Contact: String</text><polygon fill="none" points="1258.5,675.418,1262.5,679.418,1258.5,683.418,1254.5,679.418" style="stroke:#B38D22;stroke-width:1.0;"/><text fill="#000000" font-family="sans-serif" font-size="14" lengthAdjust="spacing" text-decoration="underline" textLength="110" x="1267.5" y="684.2091">RELIABLE: String</text><polygon fill="none" points="1258.5,691.9063,1262.5,695.9063,1258.5,699.9063,1254.5,695.9063" style="stroke:#B38D22;stroke-width:1.0;"/><text fill="#000000" font-family="sans-serif" font-size="14" lengthAdjust="spacing" text-decoration="underline" textLength="197" x="1267.5" y="700.6973">REQUEST_CALLBACK_: String</text><polygon fill="none" points="1258.5,708.3946,1262.5,712.3946,1258.5,716.3946,1254.5,712.3946" style="stroke:#B38D22;stroke-width:1.0;"/><text fill="#000000" font-family="sans-serif" font-size="14" lengthAdjust="spacing" text-decoration="underline" textLength="204" x="1267.5" y="717.1856">RESPONSE_CALLBACK_: String</text><polygon fill="none" points="1258.5,724.8829,1262.5,728.8829,1258.5,732.8829,1254.5,728.8829" style="stroke:#B38D22;stroke-width:1.0;"/><text fill="#000000" font-family="sans-serif" font-size="14" lengthAdjust="spacing" text-decoration="underline" textLength="161" x="1267.5" y="733.6739">LINKED_SESSION: String</text><polygon fill="none" points="1258.5,741.3712,1262.5,745.3712,1258.5,749.3712,1254.5,745.3712" style="stroke:#B38D22;stroke-width:1.0;"/><text fill="#000000" font-family="sans-serif" font-size="14" lengthAdjust="spacing" text-decoration="underline" textLength="181" x="1267.5" y="750.1622">DELAYED_REQUEST: String</text><polygon fill="none" points="1258.5,757.8595,1262.5,761.8595,1258.5,765.8595,1254.5,761.8595" style="stroke:#B38D22;stroke-width:1.0;"/><text fill="#000000" font-family="sans-serif" font-size="14" lengthAdjust="spacing" text-decoration="underline" textLength="199" x="1267.5" y="766.6505">WITHHOLD_RESPONSE: String</text><line style="stroke:#181818;stroke-width:0.5;" x1="1248.5" x2="1537.5" y1="773.6036" y2="773.6036"/><ellipse cx="1258.5" cy="787.3477" fill="#84BE84" rx="3" ry="3" style="stroke:#038048;stroke-width:1.0;"/><text fill="#000000" font-family="sans-serif" font-size="14" font-style="italic" lengthAdjust="spacing" textLength="222" x="1267.5" y="791.1387">process(SipServletRequest): void</text></g></a><!--class B2buaServlet--><g id="elem_B2buaServlet"><rect codeLine="111" fill="#F1F1F1" height="163.418" id="B2buaServlet" rx="2.5" ry="2.5" style="stroke:#181818;stroke-width:0.5;" width="298" x="475" y="41"/><ellipse cx="575.25" cy="57" fill="#A9DCDF" rx="11" ry="11" style="stroke:#181818;stroke-width:1.0;"/><path d="M575.1133,52.3481 L573.9595,57.4199 L576.2754,57.4199 Z M573.6191,50.1069 L576.6157,50.1069 L579.9609,62.5 L577.5122,62.5 L576.7485,59.437 L573.4697,59.437 L572.7227,62.5 L570.2739,62.5 Z " fill="#000000"/><text fill="#000000" font-family="sans-serif" font-size="14" font-style="italic" lengthAdjust="spacing" textLength="89" x="595.75" y="62.291">B2buaServlet</text><line style="stroke:#181818;stroke-width:0.5;" x1="476" x2="772" y1="73" y2="73"/><rect fill="none" height="6" style="stroke:#C82930;stroke-width:1.0;" width="6" x="483" y="83.7441"/><text fill="#000000" font-family="sans-serif" font-size="14" lengthAdjust="spacing" text-decoration="underline" textLength="152" x="495" y="90.5352">serialVersionUID: long</text><line style="stroke:#181818;stroke-width:0.5;" x1="476" x2="772" y1="97.4883" y2="97.4883"/><ellipse cx="486" cy="111.2324" fill="#84BE84" rx="3" ry="3" style="stroke:#038048;stroke-width:1.0;"/><text fill="#000000" font-family="sans-serif" font-size="14" font-style="italic" lengthAdjust="spacing" textLength="241" x="495" y="115.0234">callStarted(SipServletRequest): void</text><ellipse cx="486" cy="127.7207" fill="#84BE84" rx="3" ry="3" style="stroke:#038048;stroke-width:1.0;"/><text fill="#000000" font-family="sans-serif" font-size="14" font-style="italic" lengthAdjust="spacing" textLength="271" x="495" y="131.5117">callAnswered(SipServletResponse): void</text><ellipse cx="486" cy="144.209" fill="#84BE84" rx="3" ry="3" style="stroke:#038048;stroke-width:1.0;"/><text fill="#000000" font-family="sans-serif" font-size="14" font-style="italic" lengthAdjust="spacing" textLength="266" x="495" y="148">callConnected(SipServletRequest): void</text><ellipse cx="486" cy="160.6973" fill="#84BE84" rx="3" ry="3" style="stroke:#038048;stroke-width:1.0;"/><text fill="#000000" font-family="sans-serif" font-size="14" font-style="italic" lengthAdjust="spacing" textLength="267" x="495" y="164.4883">callCompleted(SipServletRequest): void</text><ellipse cx="486" cy="177.1855" fill="#84BE84" rx="3" ry="3" style="stroke:#038048;stroke-width:1.0;"/><text fill="#000000" font-family="sans-serif" font-size="14" font-style="italic" lengthAdjust="spacing" textLength="262" x="495" y="180.9766">callDeclined(SipServletResponse): void</text><ellipse cx="486" cy="193.6738" fill="#84BE84" rx="3" ry="3" style="stroke:#038048;stroke-width:1.0;"/><text fill="#000000" font-family="sans-serif" font-size="14" font-style="italic" lengthAdjust="spacing" textLength="272" x="495" y="197.4648">callAbandoned(SipServletRequest): void</text></g><!--class QueueAttributes--><g id="elem_QueueAttributes"><rect fill="#F1F1F1" height="48" id="QueueAttributes" rx="2.5" ry="2.5" style="stroke:#181818;stroke-width:0.5;" width="145" x="249.5" y="1364.83"/><ellipse cx="264.5" cy="1380.83" fill="#ADD1B2" rx="11" ry="11" style="stroke:#181818;stroke-width:1.0;"/><path d="M266.9731,1386.9731 Q266.3921,1387.2719 265.7529,1387.4213 Q265.1138,1387.5707 264.4082,1387.5707 Q261.9014,1387.5707 260.5815,1385.9189 Q259.2617,1384.267 259.2617,1381.1459 Q259.2617,1378.0165 260.5815,1376.3647 Q261.9014,1374.7128 264.4082,1374.7128 Q265.1138,1374.7128 265.7612,1374.8622 Q266.4087,1375.0116 266.9731,1375.3105 L266.9731,1378.0331 Q266.3423,1377.4521 265.7488,1377.1823 Q265.1553,1376.9125 264.5244,1376.9125 Q263.1797,1376.9125 262.4949,1377.9792 Q261.8101,1379.0458 261.8101,1381.1459 Q261.8101,1383.2377 262.4949,1384.3044 Q263.1797,1385.371 264.5244,1385.371 Q265.1553,1385.371 265.7488,1385.1012 Q266.3423,1384.8315 266.9731,1384.2504 Z " fill="#000000"/><text fill="#000000" font-family="sans-serif" font-size="14" lengthAdjust="spacing" textLength="113" x="278.5" y="1386.121">QueueAttributes</text><line style="stroke:#181818;stroke-width:0.5;" x1="250.5" x2="393.5" y1="1396.83" y2="1396.83"/><line style="stroke:#181818;stroke-width:0.5;" x1="250.5" x2="393.5" y1="1404.83" y2="1404.83"/></g><!--class QueueSettingsManager--><g id="elem_QueueSettingsManager"><rect fill="#F1F1F1" height="48" id="QueueSettingsManager" rx="2.5" ry="2.5" style="stroke:#181818;stroke-width:0.5;" width="192" x="22" y="1364.83"/><ellipse cx="37" cy="1380.83" fill="#ADD1B2" rx="11" ry="11" style="stroke:#181818;stroke-width:1.0;"/><path d="M39.4731,1386.9731 Q38.8921,1387.2719 38.2529,1387.4213 Q37.6138,1387.5707 36.9082,1387.5707 Q34.4014,1387.5707 33.0815,1385.9189 Q31.7617,1384.267 31.7617,1381.1459 Q31.7617,1378.0165 33.0815,1376.3647 Q34.4014,1374.7128 36.9082,1374.7128 Q37.6138,1374.7128 38.2612,1374.8622 Q38.9087,1375.0116 39.4731,1375.3105 L39.4731,1378.0331 Q38.8423,1377.4521 38.2488,1377.1823 Q37.6553,1376.9125 37.0244,1376.9125 Q35.6797,1376.9125 34.9949,1377.9792 Q34.3101,1379.0458 34.3101,1381.1459 Q34.3101,1383.2377 34.9949,1384.3044 Q35.6797,1385.371 37.0244,1385.371 Q37.6553,1385.371 38.2488,1385.1012 Q38.8423,1384.8315 39.4731,1384.2504 Z " fill="#000000"/><text fill="#000000" font-family="sans-serif" font-size="14" lengthAdjust="spacing" textLength="160" x="51" y="1386.121">QueueSettingsManager</text><line style="stroke:#181818;stroke-width:0.5;" x1="23" x2="213" y1="1396.83" y2="1396.83"/><line style="stroke:#181818;stroke-width:0.5;" x1="23" x2="213" y1="1404.83" y2="1404.83"/></g><!--reverse link Callflow to QueueCallflow--><g id="link_Callflow_QueueCallflow"><path codeLine="122" d="M1237.1476,777.315 C1223.5876,797.515 1220.06,802.72 1207,822.09 C1174.72,869.96 1138.71,923 1108.59,967.28 " fill="none" id="Callflow-backto-QueueCallflow" style="stroke:#181818;stroke-width:1.0;"/><polygon fill="none" points="1247.18,762.37,1232.166,773.9708,1242.1293,780.6591,1247.18,762.37" style="stroke:#181818;stroke-width:1.0;"/></g><!--link QueueCallflow to QueueAttributes--><g id="link_QueueCallflow_QueueAttributes"><path codeLine="123" d="M977.57,1164.61 C950.26,1198.46 915.56,1233.3 876,1254.86 C701.92,1349.72 621.92,1255.78 435,1321.83 C406.08,1332.05 381.2281,1346.5155 359.4781,1361.0555 " fill="none" id="QueueCallflow-to-QueueAttributes" style="stroke:#181818;stroke-width:1.0;"/><polygon fill="#181818" points="354.49,1364.39,364.1951,1362.7136,358.6467,1361.6112,359.7491,1356.0628,354.49,1364.39" style="stroke:#181818;stroke-width:1.0;"/><text fill="#000000" font-family="sans-serif" font-size="13" lengthAdjust="spacing" textLength="61" x="799.84" y="1298.4284">attributes</text></g><!--link QueueCallflow to QueueCallflow.QueueState--><g id="link_QueueCallflow_QueueCallflow.QueueState"><path codeLine="124" d="M1022.48,1164.56 C1016.59,1206.84 1013.09,1256.87 1019,1301.86 C1020.27,1311.51 1020.9041,1315.787 1023.2541,1325.537 " fill="none" id="QueueCallflow-to-QueueCallflow.QueueState" style="stroke:#181818;stroke-width:1.0;"/><polygon fill="#181818" points="1024.66,1331.37,1026.4398,1321.6833,1023.4884,1326.5092,1018.6625,1323.5578,1024.66,1331.37" style="stroke:#181818;stroke-width:1.0;"/><text fill="#000000" font-family="sans-serif" font-size="13" lengthAdjust="spacing" textLength="31" x="1020" y="1298.4284">state</text></g><!--reverse link QueueCallflow to QueueCallflow.QueueState--><g id="link_QueueCallflow_QueueCallflow.QueueState"><path codeLine="125" d="M1055.2843,1180.4026 C1058.8743,1222.6626 1059.65,1256.76 1056,1301.86 C1055.22,1311.5 1053.95,1321.7 1052.5,1331.57 " fill="none" id="QueueCallflow-backto-QueueCallflow.QueueState" style="stroke:#181818;stroke-width:1.0;"/><ellipse cx="1054.6072" cy="1172.4313" fill="#FFFFFF" rx="8" ry="8" style="stroke:#181818;stroke-width:1.0;"/><line style="stroke:#181818;stroke-width:1.0;" x1="1055.2843" x2="1053.93" y1="1180.4026" y2="1164.46"/><line style="stroke:#181818;stroke-width:1.0;" x1="1046.6359" x2="1062.5785" y1="1173.1085" y2="1171.7541"/></g><!--link Statistics to Queue--><g id="link_Statistics_Queue"><path codeLine="126" d="M637.17,892.55 C642.54,887.06 648.15,881.87 654,877.09 C661.32,871.11 807.88,828.31 815,822.09 C874.3,770.28 909.2619,692.8885 930.0019,631.0585 " fill="none" id="Statistics-to-Queue" style="stroke:#181818;stroke-width:1.0;"/><polygon fill="#181818" points="931.91,625.37,925.2555,632.6307,930.3199,630.1104,932.8401,635.1748,931.91,625.37" style="stroke:#181818;stroke-width:1.0;"/><text fill="#000000" font-family="sans-serif" font-size="13" lengthAdjust="spacing" textLength="38" x="794.02" y="843.6584">queue</text></g><!--link Queue to Statistics--><g id="link_Queue_Statistics"><path codeLine="129" d="M936.91,625.16 C918.56,690.16 882.46,777.68 815,822.09 C789.16,839.1 702.24,813.7 676,830.09 C656.46,842.29 643.2969,853.8038 628.7369,872.0138 " fill="none" id="Queue-to-Statistics" style="stroke:#181818;stroke-width:1.0;"/><polygon fill="#181818" points="624.99,876.7,633.7345,872.1686,628.1124,872.7948,627.4862,867.1727,624.99,876.7" style="stroke:#181818;stroke-width:1.0;"/><text fill="#000000" font-family="sans-serif" font-size="13" lengthAdjust="spacing" textLength="58" x="677" y="843.6584">statistics</text></g><!--reverse link B2buaServlet to QueueServlet--><g id="link_B2buaServlet_QueueServlet"><path codeLine="127" d="M624,222.91 C624,286.5 624,357.73 624,428.44 " fill="none" id="B2buaServlet-backto-QueueServlet" style="stroke:#181818;stroke-width:1.0;"/><polygon fill="none" points="624,204.91,618,222.91,630,222.91,624,204.91" style="stroke:#181818;stroke-width:1.0;"/></g><!--link QueueServlet to QueueSettingsManager--><g id="link_QueueServlet_QueueSettingsManager"><path codeLine="128" d="M450.65,632.51 C357.29,689.37 249.06,772.28 188,877.09 C91.59,1042.59 106.8388,1282.3312 114.6388,1358.5012 " fill="none" id="QueueServlet-to-QueueSettingsManager" style="stroke:#181818;stroke-width:1.0;"/><polygon fill="#181818" points="115.25,1364.47,118.3124,1355.1093,114.7407,1359.496,110.354,1355.9243,115.25,1364.47" style="stroke:#181818;stroke-width:1.0;"/><text fill="#000000" font-family="sans-serif" font-size="13" lengthAdjust="spacing" textLength="104" x="189" y="1071.0384">settingsManager</text></g><!--link Queue to QueueAttributes--><g id="link_Queue_QueueAttributes"><path codeLine="130" d="M937.01,625.31 C918.73,690.41 882.66,777.99 815,822.09 C799.62,832.11 668.25,828.12 650,830.09 C524.98,843.6 456.69,785.06 371,877.09 C304.23,948.8 315.7217,1268.4679 320.3617,1358.6379 " fill="none" id="Queue-to-QueueAttributes" style="stroke:#181818;stroke-width:1.0;"/><polygon fill="#181818" points="320.67,1364.63,324.2022,1355.4363,320.413,1359.6366,316.2128,1355.8475,320.67,1364.63" style="stroke:#181818;stroke-width:1.0;"/><text fill="#000000" font-family="sans-serif" font-size="13" lengthAdjust="spacing" textLength="61" x="372" y="1071.0384">attributes</text></g><!--link Queue to QueueCallflow--><g id="link_Queue_QueueCallflow"><path codeLine="131" d="M967.7,625.33 C983.33,717.81 1007.8701,863.0139 1024.5601,961.7639 " fill="none" id="Queue-to-QueueCallflow" style="stroke:#181818;stroke-width:1.0;"/><polygon fill="#181818" points="1025.56,967.68,1028.0042,958.1393,1024.7268,962.7499,1020.1161,959.4725,1025.56,967.68" style="stroke:#181818;stroke-width:1.0;"/><text fill="#000000" font-family="sans-serif" font-size="13" lengthAdjust="spacing" textLength="56" x="1005.58" y="843.6584">callflows</text><text fill="#000000" font-family="sans-serif" font-size="13" lengthAdjust="spacing" textLength="6" x="1018.0716" y="957.1601">*</text></g><!--reverse link Queue to Queue.QueueMemHog--><g id="link_Queue_Queue.QueueMemHog"><path codeLine="132" d="M919.112,640.3703 C876.632,757.4303 805.48,953.43 776.52,1033.24 " fill="none" id="Queue-backto-Queue.QueueMemHog" style="stroke:#181818;stroke-width:1.0;"/><ellipse cx="921.841" cy="632.8501" fill="#FFFFFF" rx="8" ry="8" style="stroke:#181818;stroke-width:1.0;"/><line style="stroke:#181818;stroke-width:1.0;" x1="919.112" x2="924.57" y1="640.3703" y2="625.33"/><line style="stroke:#181818;stroke-width:1.0;" x1="914.3209" x2="929.3612" y1="630.1212" y2="635.5791"/></g><text fill="#888888" font-family="sans-serif" font-size="10" lengthAdjust="spacing" textLength="176" x="686" y="1477.478">UMLDoclet 2.1.2, PlantUML 1.2024.3</text><!--SRC=[jLXjRzis4FxUNq4q6E0ibOpcez1sa6Mb4Ig_rB8x144Gq39Z4v55LQIJPfttstiIPUl5acbjMU308k-v5nwF3yz2225E1Fn7ECQ2nSWmtho1IHHX_n4l2MBnKdzYSOG3VHxW1T4vYP-eJxZ-VKCs1FsKyEJF3p3dw6ioRU4WU0ZOCxgzBOtrbLW7TtUWXGf_6Wx0ueI0HIuCvD780oS14TbK6Rmc2ufF1SSqNC9dJ6BA5bEw9Z6eY6IsZ4iNuongXHUb9NGaufrSg2bWDDy8mi_BEb7C84cySn3VkO6U65sKqLomA8sETshbFbj7O89q6hIn8FRt3Gvu9utAIoO0EcSi83ZSexVvPf5mioxlbPwh7cnRBghVmPz92DJVeWlB75gsQ_SRn1Dd-1a-3TA1tNVC-rCmrcWujArfmS-sMeX9k9I34eVbv8Fw1LoiQGYxs5mX6U2QBbS6eg6e4xhikKQsOfiuU3bYMG8QB4jXlUK5faSDf_86kwcirkm-rHgdaSkMoyIy_6x0oTKRA0sb0IFNSHoJnbG7sUqEve-PE7ciJVCnYCpNCKHU9l8WdRSwfeKoDuVzqQ0Ji709mEIhR0Xo3gI0WoI20rFRMahDM6HtDBEXuZXgmDOK1zyWOih2cTEl2IQFEYL1Rg01ZZwKMEvJ9GtIjnKJ88H5WU8i1klw8Umd4ZRmdCJrWGTZzj9AzynVCSOBD5n3h3jXXJnX5ZOsBiTwZ8uJ3JFapoIkgF28XPmqwi0QGkAtysDbrDv6fq_yW8RjOZFdE5omy1G_zGMugxm60gKDbwUG_5Hpg8_JYwp6ewSr3IUxZy-h1umAA7pw5-bKx-cMzszzCkIDE23hQxRS9wOmLv-aVzRpzt0hlmXoUrTri5NqNGynNfDd5Z_g_gwvoetZEHmex8iin4BxjH8YuaQtAss5m1XBAbQRkKvPDpMSIRHqe0Lq7kFuHTjxwq8W6IJ3vw9T8DrIU_S7vHeSP1A7EFWeuWrv9NewWtgvWZMo-2Lj-xBdPl1Cq21h47bYdoSJ3V2qIZtPscRrbesQxPzoDvvnwNkCawn1Ke1UlUfKWwep_EPCxTfJbODCwui2qRjHsP0zcm8qiJyxtjIUA62ZyTGP3Jq5QZnHn-tDUfurSNggw8UZgNDret8uwxcETwr0ESEhaG8o6_TDvQPCx2jbeZndhDeMk16XnfM-NCVikUgGliviRtflcQxRW-JVA_7U6FRHFbd1TOPVxFwzPtiU5802tBTTymRGMLGAz9_EzFfwv2Pm6LGzVaU2snQ_lhOjkNT-ET_WPkBj9U9Tf_PVIA-mbjRjIrMvPITJLM_Pr1ogj-flgkejMvs3jRVfUWgbSCBrQnZxQ_R3tvgcUbDY6AMVrFLUZgeWJVkaKj5z5ZxGPQQPTpq6mlld_ybrHQNmpi10wHkAV-FtedLY2tvFSrXuJt3wAWsKZbIrajA5OPHeeKMnP2ej4hTpqhfKF284C2eVu12dNGqlJxI8uRGqvccNvI6VNzdDAn-7rENRtz-sB4a3xJYZbRFJQx_uooFru9Fa1GDwO2pvcWtSFlEJihZKt-kNxz0umA60MVJRaxo5EkU_0000]--></g></svg>