<?xml version="1.0" encoding="us-ascii" standalone="no"?><svg xmlns="http://www.w3.org/2000/svg" xmlns:xlink="http://www.w3.org/1999/xlink" contentStyleType="text/css" height="349px" preserveAspectRatio="none" style="width:396px;height:349px;background:#FFFFFF;" version="1.1" viewBox="0 0 396 349" width="396px" zoomAndPan="magnify"><defs/><g><!--class org.vorpal.blade.services.queue.Queue--><a href="Queue.html" target="_top" title="Queue.html" xlink:actuate="onRequest" xlink:href="Queue.html" xlink:show="new" xlink:title="Queue.html" xlink:type="simple"><g id="elem_org.vorpal.blade.services.queue.Queue"><rect codeLine="5" fill="#F1F1F1" height="219.1484" id="org.vorpal.blade.services.queue.Queue" rx="2.5" ry="2.5" style="stroke:#181818;stroke-width:0.5;" width="382" x="7" y="7"/><ellipse cx="116.75" cy="26.1328" fill="#ADD1B2" rx="11" ry="11" style="stroke:#181818;stroke-width:1.0;"/><path d="M119.2231,32.2759 Q118.6421,32.5747 118.0029,32.7241 Q117.3638,32.8735 116.6582,32.8735 Q114.1514,32.8735 112.8315,31.2217 Q111.5117,29.5698 111.5117,26.4487 Q111.5117,23.3193 112.8315,21.6675 Q114.1514,20.0156 116.6582,20.0156 Q117.3638,20.0156 118.0112,20.165 Q118.6587,20.3145 119.2231,20.6133 L119.2231,23.3359 Q118.5923,22.7549 117.9988,22.4851 Q117.4053,22.2153 116.7744,22.2153 Q115.4297,22.2153 114.7449,23.282 Q114.0601,24.3486 114.0601,26.4487 Q114.0601,28.5405 114.7449,29.6072 Q115.4297,30.6738 116.7744,30.6738 Q117.4053,30.6738 117.9988,30.4041 Q118.5923,30.1343 119.2231,29.5532 Z " fill="#000000"/><text fill="#000000" font-family="sans-serif" font-size="14" lengthAdjust="spacing" textLength="45" x="191.75" y="25.5352">Queue</text><text fill="#000000" font-family="sans-serif" font-size="10" lengthAdjust="spacing" textLength="154" x="137.25" y="38.1563">org.vorpal.blade.services.queue</text><line style="stroke:#181818;stroke-width:0.5;" x1="8" x2="388" y1="45.2656" y2="45.2656"/><ellipse cx="18" cy="59.0098" fill="none" rx="3" ry="3" style="stroke:#038048;stroke-width:1.0;"/><text fill="#000000" font-family="sans-serif" font-size="14" lengthAdjust="spacing" textLength="62" x="27" y="62.8008">id: String</text><ellipse cx="18" cy="75.498" fill="none" rx="3" ry="3" style="stroke:#038048;stroke-width:1.0;"/><text fill="#000000" font-family="sans-serif" font-size="14" lengthAdjust="spacing" textLength="127" x="27" y="79.2891">statistics: Statistics</text><ellipse cx="18" cy="91.9863" fill="none" rx="3" ry="3" style="stroke:#038048;stroke-width:1.0;"/><text fill="#000000" font-family="sans-serif" font-size="14" lengthAdjust="spacing" textLength="187" x="27" y="95.7773">attributes: QueueAttributes</text><ellipse cx="18" cy="108.4746" fill="none" rx="3" ry="3" style="stroke:#038048;stroke-width:1.0;"/><text fill="#000000" font-family="sans-serif" font-size="14" lengthAdjust="spacing" textLength="84" x="27" y="112.2656">timer: Timer</text><ellipse cx="18" cy="124.9629" fill="none" rx="3" ry="3" style="stroke:#038048;stroke-width:1.0;"/><text fill="#000000" font-family="sans-serif" font-size="14" lengthAdjust="spacing" textLength="124" x="27" y="128.7539">sipLogger: Logger</text><ellipse cx="18" cy="141.4512" fill="none" rx="3" ry="3" style="stroke:#038048;stroke-width:1.0;"/><text fill="#000000" font-family="sans-serif" font-size="14" lengthAdjust="spacing" textLength="356" x="27" y="145.2422">callflows: ConcurrentLinkedDeque&lt;QueueCallflow&gt;</text><ellipse cx="18" cy="157.9395" fill="none" rx="3" ry="3" style="stroke:#038048;stroke-width:1.0;"/><text fill="#000000" font-family="sans-serif" font-size="14" lengthAdjust="spacing" textLength="155" x="27" y="161.7305">queueTask: TimerTask</text><line style="stroke:#181818;stroke-width:0.5;" x1="8" x2="388" y1="168.6836" y2="168.6836"/><ellipse cx="18" cy="182.4277" fill="#84BE84" rx="3" ry="3" style="stroke:#038048;stroke-width:1.0;"/><text fill="#000000" font-family="sans-serif" font-size="14" lengthAdjust="spacing" textLength="96" x="27" y="186.2188">Queue(String)</text><ellipse cx="18" cy="198.916" fill="#84BE84" rx="3" ry="3" style="stroke:#038048;stroke-width:1.0;"/><text fill="#000000" font-family="sans-serif" font-size="14" lengthAdjust="spacing" textLength="218" x="27" y="202.707">initialize(QueueAttributes): void</text><ellipse cx="18" cy="215.4043" fill="#84BE84" rx="3" ry="3" style="stroke:#038048;stroke-width:1.0;"/><text fill="#000000" font-family="sans-serif" font-size="14" lengthAdjust="spacing" textLength="124" x="27" y="219.1953">stopTimers(): void</text></g></a><!--class org.vorpal.blade.services.queue.Queue.QueueMemHog--><a href="Queue.QueueMemHog.html" target="_top" title="Queue.QueueMemHog.html" xlink:actuate="onRequest" xlink:href="Queue.QueueMemHog.html" xlink:show="new" xlink:title="Queue.QueueMemHog.html" xlink:type="simple"><g id="elem_org.vorpal.blade.services.queue.Queue.QueueMemHog"><rect codeLine="17" fill="#F1F1F1" height="38.2656" id="org.vorpal.blade.services.queue.Queue.QueueMemHog" rx="2.5" ry="2.5" style="stroke:#181818;stroke-width:0.5;" width="187" x="104.5" y="286.14"/><ellipse cx="119.5" cy="305.2728" fill="#ADD1B2" rx="11" ry="11" style="stroke:#181818;stroke-width:1.0;"/><path d="M121.9731,311.4159 Q121.3921,311.7147 120.7529,311.8641 Q120.1138,312.0135 119.4082,312.0135 Q116.9014,312.0135 115.5815,310.3617 Q114.2617,308.7098 114.2617,305.5887 Q114.2617,302.4593 115.5815,300.8075 Q116.9014,299.1556 119.4082,299.1556 Q120.1138,299.1556 120.7612,299.305 Q121.4087,299.4545 121.9731,299.7533 L121.9731,302.4759 Q121.3423,301.8949 120.7488,301.6251 Q120.1553,301.3553 119.5244,301.3553 Q118.1797,301.3553 117.4949,302.422 Q116.8101,303.4886 116.8101,305.5887 Q116.8101,307.6805 117.4949,308.7472 Q118.1797,309.8138 119.5244,309.8138 Q120.1553,309.8138 120.7488,309.5441 Q121.3423,309.2743 121.9731,308.6932 Z " fill="#000000"/><text fill="#000000" font-family="sans-serif" font-size="14" lengthAdjust="spacing" textLength="155" x="133.5" y="304.6752">Queue.QueueMemHog</text><text fill="#000000" font-family="sans-serif" font-size="10" lengthAdjust="spacing" textLength="154" x="134" y="317.2963">org.vorpal.blade.services.queue</text></g></a><!--reverse link org.vorpal.blade.services.queue.Queue to org.vorpal.blade.services.queue.Queue.QueueMemHog--><g id="link_org.vorpal.blade.services.queue.Queue_org.vorpal.blade.services.queue.Queue.QueueMemHog"><path codeLine="19" d="M198,242.45 C198,265.49 198,271.24 198,285.85 " fill="none" id="org.vorpal.blade.services.queue.Queue-backto-org.vorpal.blade.services.queue.Queue.QueueMemHog" style="stroke:#181818;stroke-width:1.0;"/><ellipse cx="198" cy="234.45" fill="#FFFFFF" rx="8" ry="8" style="stroke:#181818;stroke-width:1.0;"/><line style="stroke:#181818;stroke-width:1.0;" x1="198" x2="198" y1="242.45" y2="226.45"/><line style="stroke:#181818;stroke-width:1.0;" x1="190" x2="206" y1="234.45" y2="234.45"/></g><text fill="#888888" font-family="sans-serif" font-size="10" lengthAdjust="spacing" textLength="176" x="103" y="339.0736">UMLDoclet 2.1.2, PlantUML 1.2024.3</text><!--SRC=[jLF1IiD04Btx5KD1IAbTRF4KIa7QWuSMbDPJxM6xcQP3DxjnTnDHyT_TR68J2g8Up6LstvjvmvlP001OTA1uXZRd0bUOSyETDg2qmWjFmu4I1CnozmfxGfdOSpH3Tz0U3hYGt5heJIozOJowcJuKME2JQkxNKsrILcgJSybsaYV8B9gI15hsN6NsW5lu8OS5JTXiGcG7bydj5jv3- -eRK1B3oXbIQOjPnnrPHy9MtDUvvRdp1Rl2eUU3xkq9Q9CSPMXYM5UX8qtvGgTfnTInfGINSY_rYnUTQIKAOr2v1QaZ9dFqPYQXrQp9chQ5mUYQssFJhJgsRAYAQelzZcz5ZhZqauxEBFHZA3KbtN7eF0ZRgCjzVB_3UkfBpEvq-X_xxEgVTjl1cZtNh-ntBsGm7FwzTpq1loOqiDUw2e_BnLmBwV-JCHknyHNSIwwSH-6oz1CahQB-9m00]--></g></svg>