<?xml version="1.0" encoding="us-ascii" standalone="no"?><svg xmlns="http://www.w3.org/2000/svg" xmlns:xlink="http://www.w3.org/1999/xlink" contentStyleType="text/css" height="504px" preserveAspectRatio="none" style="width:314px;height:504px;background:#FFFFFF;" version="1.1" viewBox="0 0 314 504" width="314px" zoomAndPan="magnify"><defs/><g><!--class org.vorpal.blade.services.queue.QueueCallflow--><a href="QueueCallflow.html" target="_top" title="QueueCallflow.html" xlink:actuate="onRequest" xlink:href="QueueCallflow.html" xlink:show="new" xlink:title="QueueCallflow.html" xlink:type="simple"><g id="elem_org.vorpal.blade.services.queue.QueueCallflow"><rect codeLine="5" fill="#F1F1F1" height="252.125" id="org.vorpal.blade.services.queue.QueueCallflow" rx="2.5" ry="2.5" style="stroke:#181818;stroke-width:0.5;" width="298" x="9" y="129.75"/><ellipse cx="76.75" cy="148.8828" fill="#ADD1B2" rx="11" ry="11" style="stroke:#181818;stroke-width:1.0;"/><path d="M79.2231,155.0259 Q78.6421,155.3247 78.0029,155.4741 Q77.3638,155.6235 76.6582,155.6235 Q74.1514,155.6235 72.8315,153.9717 Q71.5117,152.3198 71.5117,149.1987 Q71.5117,146.0693 72.8315,144.4175 Q74.1514,142.7656 76.6582,142.7656 Q77.3638,142.7656 78.0112,142.915 Q78.6587,143.0645 79.2231,143.3633 L79.2231,146.0859 Q78.5923,145.5049 77.9988,145.2351 Q77.4053,144.9653 76.7744,144.9653 Q75.4297,144.9653 74.7449,146.032 Q74.0601,147.0986 74.0601,149.1987 Q74.0601,151.2905 74.7449,152.3572 Q75.4297,153.4238 76.7744,153.4238 Q77.4053,153.4238 77.9988,153.1541 Q78.5923,152.8843 79.2231,152.3032 Z " fill="#000000"/><text fill="#000000" font-family="sans-serif" font-size="14" lengthAdjust="spacing" textLength="100" x="124.25" y="148.2852">QueueCallflow</text><text fill="#000000" font-family="sans-serif" font-size="10" lengthAdjust="spacing" textLength="154" x="97.25" y="160.9063">org.vorpal.blade.services.queue</text><line style="stroke:#181818;stroke-width:0.5;" x1="10" x2="306" y1="168.0156" y2="168.0156"/><rect fill="none" height="6" style="stroke:#C82930;stroke-width:1.0;" width="6" x="17" y="178.7598"/><text fill="#000000" font-family="sans-serif" font-size="14" lengthAdjust="spacing" textLength="216" x="29" y="185.5508">aliceRequest: SipServletRequest</text><rect fill="none" height="6" style="stroke:#C82930;stroke-width:1.0;" width="6" x="17" y="195.248"/><text fill="#000000" font-family="sans-serif" font-size="14" lengthAdjust="spacing" textLength="227" x="29" y="202.0391">mediaRequest: SipServletRequest</text><rect fill="none" height="6" style="stroke:#C82930;stroke-width:1.0;" width="6" x="17" y="211.7363"/><text fill="#000000" font-family="sans-serif" font-size="14" lengthAdjust="spacing" textLength="183" x="29" y="218.5273">ringingPeriodTimer: String</text><rect fill="none" height="6" style="stroke:#C82930;stroke-width:1.0;" width="6" x="17" y="228.2246"/><text fill="#000000" font-family="sans-serif" font-size="14" lengthAdjust="spacing" textLength="105" x="29" y="235.0156">queueId: String</text><polygon fill="none" points="20,243.7129,16,249.7129,24,249.7129" style="stroke:#1963A0;stroke-width:1.0;"/><text fill="#000000" font-family="sans-serif" font-size="14" lengthAdjust="spacing" textLength="187" x="29" y="251.5039">attributes: QueueAttributes</text><line style="stroke:#181818;stroke-width:0.5;" x1="10" x2="306" y1="258.457" y2="258.457"/><ellipse cx="20" cy="272.2012" fill="#84BE84" rx="3" ry="3" style="stroke:#038048;stroke-width:1.0;"/><text fill="#000000" font-family="sans-serif" font-size="14" lengthAdjust="spacing" textLength="272" x="29" y="275.9922">QueueCallflow(String, QueueAttributes)</text><ellipse cx="20" cy="288.6895" fill="#84BE84" rx="3" ry="3" style="stroke:#038048;stroke-width:1.0;"/><text fill="#000000" font-family="sans-serif" font-size="14" lengthAdjust="spacing" textLength="222" x="29" y="292.4805">process(SipServletRequest): void</text><ellipse cx="20" cy="305.1777" fill="#84BE84" rx="3" ry="3" style="stroke:#038048;stroke-width:1.0;"/><text fill="#000000" font-family="sans-serif" font-size="14" lengthAdjust="spacing" textLength="124" x="29" y="308.9688">stopTimers(): void</text><ellipse cx="20" cy="321.666" fill="#84BE84" rx="3" ry="3" style="stroke:#038048;stroke-width:1.0;"/><text fill="#000000" font-family="sans-serif" font-size="14" lengthAdjust="spacing" textLength="110" x="29" y="325.457">complete(): void</text><ellipse cx="20" cy="338.1543" fill="#84BE84" rx="3" ry="3" style="stroke:#038048;stroke-width:1.0;"/><text fill="#000000" font-family="sans-serif" font-size="14" lengthAdjust="spacing" textLength="153" x="29" y="341.9453">getState(): QueueState</text><ellipse cx="20" cy="354.6426" fill="#84BE84" rx="3" ry="3" style="stroke:#038048;stroke-width:1.0;"/><text fill="#000000" font-family="sans-serif" font-size="14" lengthAdjust="spacing" textLength="180" x="29" y="358.4336">setState(QueueState): void</text><ellipse cx="20" cy="371.1309" fill="#84BE84" rx="3" ry="3" style="stroke:#038048;stroke-width:1.0;"/><text fill="#000000" font-family="sans-serif" font-size="14" lengthAdjust="spacing" textLength="231" x="29" y="374.9219">stateEquals(QueueState): boolean</text></g></a><!--class org.vorpal.blade.framework.callflow.Callflow--><a href="https://vorpalnet.github.io/blade/vorpal-blade-library-framework/org/vorpal/blade/framework/callflow/Callflow.html?is-external=true" target="_top" title="https://vorpalnet.github.io/blade/vorpal-blade-library-framework/org/vorpal/blade/framework/callflow/Callflow.html?is-external=true" xlink:actuate="onRequest" xlink:href="https://vorpalnet.github.io/blade/vorpal-blade-library-framework/org/vorpal/blade/framework/callflow/Callflow.html?is-external=true" xlink:show="new" xlink:title="https://vorpalnet.github.io/blade/vorpal-blade-library-framework/org/vorpal/blade/framework/callflow/Callflow.html?is-external=true" xlink:type="simple"><g id="elem_org.vorpal.blade.framework.callflow.Callflow"><rect codeLine="20" fill="#F1F1F1" height="62.7539" id="org.vorpal.blade.framework.callflow.Callflow" rx="2.5" ry="2.5" style="stroke:#181818;stroke-width:0.5;" width="248" x="34" y="7"/><ellipse cx="67" cy="26.1328" fill="#A9DCDF" rx="11" ry="11" style="stroke:#181818;stroke-width:1.0;"/><path d="M66.8633,21.481 L65.7095,26.5527 L68.0254,26.5527 Z M65.3691,19.2397 L68.3657,19.2397 L71.7109,31.6328 L69.2622,31.6328 L68.4985,28.5698 L65.2197,28.5698 L64.4727,31.6328 L62.0239,31.6328 Z " fill="#000000"/><text fill="#000000" font-family="sans-serif" font-size="14" font-style="italic" lengthAdjust="spacing" textLength="55" x="145.5" y="25.5352">Callflow</text><text fill="#000000" font-family="sans-serif" font-size="10" font-style="italic" lengthAdjust="spacing" textLength="176" x="85" y="38.1563">org.vorpal.blade.framework.callflow</text><line style="stroke:#181818;stroke-width:0.5;" x1="35" x2="281" y1="45.2656" y2="45.2656"/><ellipse cx="45" cy="59.0098" fill="#84BE84" rx="3" ry="3" style="stroke:#038048;stroke-width:1.0;"/><text fill="#000000" font-family="sans-serif" font-size="14" font-style="italic" lengthAdjust="spacing" textLength="222" x="54" y="62.8008">process(SipServletRequest): void</text></g></a><!--class org.vorpal.blade.services.queue.QueueCallflow.QueueState--><a href="QueueCallflow.QueueState.html" target="_top" title="QueueCallflow.QueueState.html" xlink:actuate="onRequest" xlink:href="QueueCallflow.QueueState.html" xlink:show="new" xlink:title="QueueCallflow.QueueState.html" xlink:type="simple"><g id="elem_org.vorpal.blade.services.queue.QueueCallflow.QueueState"><rect codeLine="23" fill="#F1F1F1" height="38.2656" id="org.vorpal.blade.services.queue.QueueCallflow.QueueState" rx="2.5" ry="2.5" style="stroke:#181818;stroke-width:0.5;" width="215" x="50.5" y="441.87"/><ellipse cx="65.5" cy="461.0028" fill="#EB937F" rx="11" ry="11" style="stroke:#181818;stroke-width:1.0;"/><path d="M69.1143,467.5028 L61.3945,467.5028 L61.3945,455.1097 L69.1143,455.1097 L69.1143,457.2679 L63.8433,457.2679 L63.8433,459.9408 L68.6162,459.9408 L68.6162,462.099 L63.8433,462.099 L63.8433,465.3446 L69.1143,465.3446 Z " fill="#000000"/><text fill="#000000" font-family="sans-serif" font-size="14" lengthAdjust="spacing" textLength="183" x="79.5" y="460.4052">QueueCallflow.QueueState</text><text fill="#000000" font-family="sans-serif" font-size="10" lengthAdjust="spacing" textLength="154" x="94" y="473.0263">org.vorpal.blade.services.queue</text></g></a><!--reverse link org.vorpal.blade.framework.callflow.Callflow to org.vorpal.blade.services.queue.QueueCallflow--><g id="link_org.vorpal.blade.framework.callflow.Callflow_org.vorpal.blade.services.queue.QueueCallflow"><path codeLine="25" d="M158,88.24 C158,104.41 158,107.41 158,129.41 " fill="none" id="org.vorpal.blade.framework.callflow.Callflow-backto-org.vorpal.blade.services.queue.QueueCallflow" style="stroke:#181818;stroke-width:1.0;"/><polygon fill="none" points="158,70.24,152,88.24,164,88.24,158,70.24" style="stroke:#181818;stroke-width:1.0;"/></g><!--reverse link org.vorpal.blade.services.queue.QueueCallflow to org.vorpal.blade.services.queue.QueueCallflow.QueueState--><g id="link_org.vorpal.blade.services.queue.QueueCallflow_org.vorpal.blade.services.queue.QueueCallflow.QueueState"><path codeLine="26" d="M158,398.32 C158,421.61 158,427.12 158,441.57 " fill="none" id="org.vorpal.blade.services.queue.QueueCallflow-backto-org.vorpal.blade.services.queue.QueueCallflow.QueueState" style="stroke:#181818;stroke-width:1.0;"/><ellipse cx="158" cy="390.32" fill="#FFFFFF" rx="8" ry="8" style="stroke:#181818;stroke-width:1.0;"/><line style="stroke:#181818;stroke-width:1.0;" x1="158" x2="158" y1="398.32" y2="382.32"/><line style="stroke:#181818;stroke-width:1.0;" x1="150" x2="166" y1="390.32" y2="390.32"/></g><text fill="#888888" font-family="sans-serif" font-size="10" lengthAdjust="spacing" textLength="176" x="62" y="494.8036">UMLDoclet 2.1.2, PlantUML 1.2024.3</text><!--SRC=[jLHDRzD04BtpAqQLa1ArNjEAarMAKDi34aY5mAdqCBOdyQhhNNTtd59A-ErirauSnm6I0vRbQDzxys7Fcm00E6BGM9AhCAC9LMYHZGLjDBtmD1Go9w2ouYUOIbAvsqPBui9uEE2PGkVWwDp97vISlhxuL5DDbwZKL9d7Rxh5NrqOEnDpOojK8bMOat1avp8Z9nwM4KU03lwX4RtSS7lREuk2ItLt1y-XhUKLeVB1dya7EqvW8gk9pwU8MwWJbfHBt4TefPxv-uQiDFaNMPBrSbwYdIRq-ZuV4B-GFP3MJ2w1qFgxDR0M7VVUQTIaEDcMZpjzPOt_G6uqQ7gSmDp8l5CwDbLesOq6N6RAoeVIa9aHJnWR9dGHJXjPLtn7xgZiqUk76fNhor9Z5A4EoaNZ9qmTMynuOAnzF3MrtjUFnjwBh5NlzjLG9pPiLJ1NBedZ9aGJYvdaeaw5D768Rvae728bKulsALedZNszLjBgEsfLB-xPzgrq4NrdiXhL6xOrzNpylFecYpt7lGXFqdNvfyKKtHZ-vuvkb1ciQqUrczlC_w1PdV-CeiCwsbtZh_ypnuVM45jxaf7seuMfCSkVhny_N9dC3mxEnAauEu4RXPez2Y_dVZUbqQFnRm00]--></g></svg>