<?xml version="1.0" encoding="us-ascii" standalone="no"?><svg xmlns="http://www.w3.org/2000/svg" xmlns:xlink="http://www.w3.org/1999/xlink" contentStyleType="text/css" height="490px" preserveAspectRatio="none" style="width:362px;height:490px;background:#FFFFFF;" version="1.1" viewBox="0 0 362 490" width="362px" zoomAndPan="magnify"><defs/><g><!--class org.vorpal.blade.services.queue.QueueServlet--><a href="QueueServlet.html" target="_top" title="QueueServlet.html" xlink:actuate="onRequest" xlink:href="QueueServlet.html" xlink:show="new" xlink:title="QueueServlet.html" xlink:type="simple"><g id="elem_org.vorpal.blade.services.queue.QueueServlet"><rect codeLine="5" fill="#F1F1F1" height="252.125" id="org.vorpal.blade.services.queue.QueueServlet" rx="2.5" ry="2.5" style="stroke:#181818;stroke-width:0.5;" width="346" x="9" y="212.2"/><ellipse cx="100.75" cy="231.3328" fill="#ADD1B2" rx="11" ry="11" style="stroke:#181818;stroke-width:1.0;"/><path d="M103.2231,237.4759 Q102.6421,237.7747 102.0029,237.9241 Q101.3638,238.0735 100.6582,238.0735 Q98.1514,238.0735 96.8315,236.4217 Q95.5117,234.7698 95.5117,231.6487 Q95.5117,228.5193 96.8315,226.8675 Q98.1514,225.2156 100.6582,225.2156 Q101.3638,225.2156 102.0112,225.365 Q102.6587,225.5145 103.2231,225.8133 L103.2231,228.5359 Q102.5923,227.9549 101.9988,227.6851 Q101.4053,227.4153 100.7744,227.4153 Q99.4297,227.4153 98.7449,228.482 Q98.0601,229.5486 98.0601,231.6487 Q98.0601,233.7405 98.7449,234.8072 Q99.4297,235.8738 100.7744,235.8738 Q101.4053,235.8738 101.9988,235.6041 Q102.5923,235.3343 103.2231,234.7532 Z " fill="#000000"/><text fill="#000000" font-family="sans-serif" font-size="14" lengthAdjust="spacing" textLength="91" x="152.75" y="230.7352">QueueServlet</text><text fill="#000000" font-family="sans-serif" font-size="10" lengthAdjust="spacing" textLength="154" x="121.25" y="243.3563">org.vorpal.blade.services.queue</text><line style="stroke:#181818;stroke-width:0.5;" x1="10" x2="354" y1="250.4656" y2="250.4656"/><rect fill="none" height="6" style="stroke:#C82930;stroke-width:1.0;" width="6" x="17" y="261.2098"/><text fill="#000000" font-family="sans-serif" font-size="14" lengthAdjust="spacing" text-decoration="underline" textLength="152" x="29" y="268.0008">serialVersionUID: long</text><ellipse cx="20" cy="280.698" fill="none" rx="3" ry="3" style="stroke:#038048;stroke-width:1.0;"/><text fill="#000000" font-family="sans-serif" font-size="14" lengthAdjust="spacing" text-decoration="underline" textLength="203" x="29" y="284.4891">queues: Map&lt;String, Queue&gt;</text><ellipse cx="20" cy="297.1863" fill="none" rx="3" ry="3" style="stroke:#038048;stroke-width:1.0;"/><text fill="#000000" font-family="sans-serif" font-size="14" lengthAdjust="spacing" text-decoration="underline" textLength="282" x="29" y="300.9773">settingsManager: QueueSettingsManager</text><line style="stroke:#181818;stroke-width:0.5;" x1="10" x2="354" y1="307.9305" y2="307.9305"/><ellipse cx="20" cy="321.6746" fill="#84BE84" rx="3" ry="3" style="stroke:#038048;stroke-width:1.0;"/><text fill="#000000" font-family="sans-serif" font-size="14" lengthAdjust="spacing" textLength="305" x="29" y="325.4656">servletCreated(SipServletContextEvent): void</text><ellipse cx="20" cy="338.1629" fill="#84BE84" rx="3" ry="3" style="stroke:#038048;stroke-width:1.0;"/><text fill="#000000" font-family="sans-serif" font-size="14" lengthAdjust="spacing" textLength="320" x="29" y="341.9539">servletDestroyed(SipServletContextEvent): void</text><polygon fill="#FFFF44" points="20,349.6512,24,353.6512,20,357.6512,16,353.6512" style="stroke:#B38D22;stroke-width:1.0;"/><text fill="#000000" font-family="sans-serif" font-size="14" lengthAdjust="spacing" textLength="299" x="29" y="358.4422">chooseCallflow(SipServletRequest): Callflow</text><ellipse cx="20" cy="371.1395" fill="#84BE84" rx="3" ry="3" style="stroke:#038048;stroke-width:1.0;"/><text fill="#000000" font-family="sans-serif" font-size="14" lengthAdjust="spacing" textLength="241" x="29" y="374.9305">callStarted(SipServletRequest): void</text><ellipse cx="20" cy="387.6277" fill="#84BE84" rx="3" ry="3" style="stroke:#038048;stroke-width:1.0;"/><text fill="#000000" font-family="sans-serif" font-size="14" lengthAdjust="spacing" textLength="271" x="29" y="391.4188">callAnswered(SipServletResponse): void</text><ellipse cx="20" cy="404.116" fill="#84BE84" rx="3" ry="3" style="stroke:#038048;stroke-width:1.0;"/><text fill="#000000" font-family="sans-serif" font-size="14" lengthAdjust="spacing" textLength="266" x="29" y="407.907">callConnected(SipServletRequest): void</text><ellipse cx="20" cy="420.6043" fill="#84BE84" rx="3" ry="3" style="stroke:#038048;stroke-width:1.0;"/><text fill="#000000" font-family="sans-serif" font-size="14" lengthAdjust="spacing" textLength="267" x="29" y="424.3953">callCompleted(SipServletRequest): void</text><ellipse cx="20" cy="437.0926" fill="#84BE84" rx="3" ry="3" style="stroke:#038048;stroke-width:1.0;"/><text fill="#000000" font-family="sans-serif" font-size="14" lengthAdjust="spacing" textLength="262" x="29" y="440.8836">callDeclined(SipServletResponse): void</text><ellipse cx="20" cy="453.5809" fill="#84BE84" rx="3" ry="3" style="stroke:#038048;stroke-width:1.0;"/><text fill="#000000" font-family="sans-serif" font-size="14" lengthAdjust="spacing" textLength="272" x="29" y="457.3719">callAbandoned(SipServletRequest): void</text></g></a><!--class org.vorpal.blade.framework.b2bua.B2buaServlet--><g id="elem_org.vorpal.blade.framework.b2bua.B2buaServlet"><rect codeLine="20" fill="#F1F1F1" height="145.1953" id="org.vorpal.blade.framework.b2bua.B2buaServlet" rx="2.5" ry="2.5" style="stroke:#181818;stroke-width:0.5;" width="298" x="33" y="7"/><ellipse cx="93.75" cy="26.1328" fill="#A9DCDF" rx="11" ry="11" style="stroke:#181818;stroke-width:1.0;"/><path d="M93.6133,21.481 L92.4595,26.5527 L94.7754,26.5527 Z M92.1191,19.2397 L95.1157,19.2397 L98.4609,31.6328 L96.0122,31.6328 L95.2485,28.5698 L91.9697,28.5698 L91.2227,31.6328 L88.7739,31.6328 Z " fill="#000000"/><text fill="#000000" font-family="sans-serif" font-size="14" font-style="italic" lengthAdjust="spacing" textLength="89" x="153.75" y="25.5352">B2buaServlet</text><text fill="#000000" font-family="sans-serif" font-size="10" font-style="italic" lengthAdjust="spacing" textLength="168" x="114.25" y="38.1563">org.vorpal.blade.framework.b2bua</text><line style="stroke:#181818;stroke-width:0.5;" x1="34" x2="330" y1="45.2656" y2="45.2656"/><ellipse cx="44" cy="59.0098" fill="#84BE84" rx="3" ry="3" style="stroke:#038048;stroke-width:1.0;"/><text fill="#000000" font-family="sans-serif" font-size="14" font-style="italic" lengthAdjust="spacing" textLength="241" x="53" y="62.8008">callStarted(SipServletRequest): void</text><ellipse cx="44" cy="75.498" fill="#84BE84" rx="3" ry="3" style="stroke:#038048;stroke-width:1.0;"/><text fill="#000000" font-family="sans-serif" font-size="14" font-style="italic" lengthAdjust="spacing" textLength="271" x="53" y="79.2891">callAnswered(SipServletResponse): void</text><ellipse cx="44" cy="91.9863" fill="#84BE84" rx="3" ry="3" style="stroke:#038048;stroke-width:1.0;"/><text fill="#000000" font-family="sans-serif" font-size="14" font-style="italic" lengthAdjust="spacing" textLength="266" x="53" y="95.7773">callConnected(SipServletRequest): void</text><ellipse cx="44" cy="108.4746" fill="#84BE84" rx="3" ry="3" style="stroke:#038048;stroke-width:1.0;"/><text fill="#000000" font-family="sans-serif" font-size="14" font-style="italic" lengthAdjust="spacing" textLength="267" x="53" y="112.2656">callCompleted(SipServletRequest): void</text><ellipse cx="44" cy="124.9629" fill="#84BE84" rx="3" ry="3" style="stroke:#038048;stroke-width:1.0;"/><text fill="#000000" font-family="sans-serif" font-size="14" font-style="italic" lengthAdjust="spacing" textLength="262" x="53" y="128.7539">callDeclined(SipServletResponse): void</text><ellipse cx="44" cy="141.4512" fill="#84BE84" rx="3" ry="3" style="stroke:#038048;stroke-width:1.0;"/><text fill="#000000" font-family="sans-serif" font-size="14" font-style="italic" lengthAdjust="spacing" textLength="272" x="53" y="145.2422">callAbandoned(SipServletRequest): void</text></g><!--reverse link org.vorpal.blade.framework.b2bua.B2buaServlet to org.vorpal.blade.services.queue.QueueServlet--><g id="link_org.vorpal.blade.framework.b2bua.B2buaServlet_org.vorpal.blade.services.queue.QueueServlet"><path codeLine="29" d="M182,170.43 C182,188.97 182,191.47 182,211.88 " fill="none" id="org.vorpal.blade.framework.b2bua.B2buaServlet-backto-org.vorpal.blade.services.queue.QueueServlet" style="stroke:#181818;stroke-width:1.0;"/><polygon fill="none" points="182,152.43,176,170.43,188,170.43,182,152.43" style="stroke:#181818;stroke-width:1.0;"/></g><text fill="#888888" font-family="sans-serif" font-size="10" lengthAdjust="spacing" textLength="176" x="86" y="479.993">UMLDoclet 2.1.2, PlantUML 1.2024.3</text><!--SRC=[bLJ1Rjim3BtlAuWE0rgq4TPW9oC8q2Kx35Y0RK5twNgWPIOH9ekUg3ZhklnxvIHT7Jj0RLyCFxr7FVbH100G2k0m9obGqvmAz1ZOWsD7R-8oh4n6G7aH7c1Xo6RIH7CAAuxm3jSMHU1i9EOl9TSVnj_Mj8vLVMaf_7G7-FsO_LALx0kqAhMOaP98CPf4_Qu4Pu02ht1KlJJStTK_rIhazluU7dUUgkTH0WQZjp28LGpQ7-J5iBlzF4t0ibksYPUxNII16HQZUV36BQzWjydu13d-nH0PCaE7I_897EmSeVzrbxBtEV64WRBpkIaEpYVi0lq9dqfouIA1aatMKar9WkU7phgtUiKiD45h5vOtDTLtYeUKIl2y-BAPZiWye3_szw8ujbQnRvnio3VeKh0JEicFdXtfxlKdd1UHqfa_9MsDw-xd9aMNiNkj_dRVwPZ65527Lij_7APhxD3o2nzltORzBvLMYjCzto2fUl5wUp-xsVOChYdiaM5JsYFEjhHpiarfZv1RP-sLTxzeHly6WruJR3yzu-qb3mlcwdKx-p9bNLKRgcirl8Al5bs8ABmhz-Fh_E89]--></g></svg>