<?xml version="1.0" encoding="us-ascii" standalone="no"?><svg xmlns="http://www.w3.org/2000/svg" xmlns:xlink="http://www.w3.org/1999/xlink" contentStyleType="text/css" height="1228px" preserveAspectRatio="none" style="width:1849px;height:1228px;background:#FFFFFF;" version="1.1" viewBox="0 0 1849 1228" width="1849px" zoomAndPan="magnify"><defs/><g><!--cluster org.vorpal.blade.framework.transfer--><g id="cluster_org.vorpal.blade.framework.transfer"><path d="M8.5,599.67 L264.5,599.67 A3.75,3.75 0 0 1 267,602.17 L274,622.1583 L1671.5,622.1583 A2.5,2.5 0 0 1 1674,624.6583 L1674,1200.4 A2.5,2.5 0 0 1 1671.5,1202.9 L8.5,1202.9 A2.5,2.5 0 0 1 6,1200.4 L6,602.17 A2.5,2.5 0 0 1 8.5,599.67 " fill="none" style="stroke:#000000;stroke-width:1.5;"/><line style="stroke:#000000;stroke-width:1.5;" x1="6" x2="274" y1="622.1583" y2="622.1583"/><text fill="#000000" font-family="sans-serif" font-size="14" font-weight="bold" lengthAdjust="spacing" textLength="255" x="10" y="615.2052">org.vorpal.blade.framework.transfer</text></g><!--cluster org.vorpal.blade.framework.b2bua--><g id="cluster_org.vorpal.blade.framework.b2bua"><path d="M11.5,195.61 L254.5,195.61 A3.75,3.75 0 0 1 257,198.11 L264,218.0983 L280.5,218.0983 A2.5,2.5 0 0 1 283,220.5983 L283,374.55 A2.5,2.5 0 0 1 280.5,377.05 L11.5,377.05 A2.5,2.5 0 0 1 9,374.55 L9,198.11 A2.5,2.5 0 0 1 11.5,195.61 " fill="none" style="stroke:#000000;stroke-width:1.5;"/><line style="stroke:#000000;stroke-width:1.5;" x1="9" x2="264" y1="218.0983" y2="218.0983"/><text fill="#000000" font-family="sans-serif" font-size="14" font-weight="bold" lengthAdjust="spacing" textLength="242" x="13" y="211.1452">org.vorpal.blade.framework.b2bua</text></g><!--cluster java.io--><g id="cluster_java.io"><path d="M1700.5,748.06 L1747.5,748.06 A3.75,3.75 0 0 1 1750,750.56 L1757,770.5483 L1839.5,770.5483 A2.5,2.5 0 0 1 1842,773.0483 L1842,844.56 A2.5,2.5 0 0 1 1839.5,847.06 L1700.5,847.06 A2.5,2.5 0 0 1 1698,844.56 L1698,750.56 A2.5,2.5 0 0 1 1700.5,748.06 " fill="none" style="stroke:#000000;stroke-width:1.5;"/><line style="stroke:#000000;stroke-width:1.5;" x1="1698" x2="1757" y1="770.5483" y2="770.5483"/><text fill="#000000" font-family="sans-serif" font-size="14" font-weight="bold" lengthAdjust="spacing" textLength="46" x="1702" y="763.5952">java.io</text></g><!--cluster org.vorpal.blade.framework.callflow--><g id="cluster_org.vorpal.blade.framework.callflow"><path d="M747.5,6 L1003.5,6 A3.75,3.75 0 0 1 1006,8.5 L1013,28.4883 L1066.5,28.4883 A2.5,2.5 0 0 1 1069,30.9883 L1069,564.17 A2.5,2.5 0 0 1 1066.5,566.67 L747.5,566.67 A2.5,2.5 0 0 1 745,564.17 L745,8.5 A2.5,2.5 0 0 1 747.5,6 " fill="none" style="stroke:#000000;stroke-width:1.5;"/><line style="stroke:#000000;stroke-width:1.5;" x1="745" x2="1013" y1="28.4883" y2="28.4883"/><text fill="#000000" font-family="sans-serif" font-size="14" font-weight="bold" lengthAdjust="spacing" textLength="255" x="749" y="21.5352">org.vorpal.blade.framework.callflow</text></g><!--class ConferenceTransfer--><a href="ConferenceTransfer.html" target="_top" title="ConferenceTransfer.html" xlink:actuate="onRequest" xlink:href="ConferenceTransfer.html" xlink:show="new" xlink:title="ConferenceTransfer.html" xlink:type="simple"><g id="elem_ConferenceTransfer"><rect codeLine="5" fill="#F1F1F1" height="130.4414" id="ConferenceTransfer" rx="2.5" ry="2.5" style="stroke:#181818;stroke-width:0.5;" width="324" x="22" y="1056.46"/><ellipse cx="111.25" cy="1072.46" fill="#ADD1B2" rx="11" ry="11" style="stroke:#181818;stroke-width:1.0;"/><path d="M113.7231,1078.6031 Q113.1421,1078.9019 112.5029,1079.0513 Q111.8638,1079.2007 111.1582,1079.2007 Q108.6514,1079.2007 107.3315,1077.5489 Q106.0117,1075.897 106.0117,1072.7759 Q106.0117,1069.6465 107.3315,1067.9947 Q108.6514,1066.3428 111.1582,1066.3428 Q111.8638,1066.3428 112.5112,1066.4922 Q113.1587,1066.6416 113.7231,1066.9405 L113.7231,1069.6631 Q113.0923,1069.0821 112.4988,1068.8123 Q111.9053,1068.5425 111.2744,1068.5425 Q109.9297,1068.5425 109.2449,1069.6092 Q108.5601,1070.6758 108.5601,1072.7759 Q108.5601,1074.8677 109.2449,1075.9344 Q109.9297,1077.001 111.2744,1077.001 Q111.9053,1077.001 112.4988,1076.7312 Q113.0923,1076.4615 113.7231,1075.8804 Z " fill="#000000"/><text fill="#000000" font-family="sans-serif" font-size="14" lengthAdjust="spacing" textLength="137" x="131.75" y="1077.751">ConferenceTransfer</text><line style="stroke:#181818;stroke-width:0.5;" x1="23" x2="345" y1="1088.46" y2="1088.46"/><polygon fill="none" points="33,1098.2041,29,1104.2041,37,1104.2041" style="stroke:#1963A0;stroke-width:1.0;"/><text fill="#000000" font-family="sans-serif" font-size="14" lengthAdjust="spacing" text-decoration="underline" textLength="152" x="42" y="1105.9952">serialVersionUID: long</text><rect fill="none" height="6" style="stroke:#C82930;stroke-width:1.0;" width="6" x="30" y="1115.6924"/><text fill="#000000" font-family="sans-serif" font-size="14" lengthAdjust="spacing" textLength="216" x="42" y="1122.4834">aliceRequest: SipServletRequest</text><rect fill="none" height="6" style="stroke:#C82930;stroke-width:1.0;" width="6" x="30" y="1132.1807"/><text fill="#000000" font-family="sans-serif" font-size="14" lengthAdjust="spacing" textLength="298" x="42" y="1138.9717">loopOnPrack: Callback&lt;SipServletRequest&gt;</text><line style="stroke:#181818;stroke-width:0.5;" x1="23" x2="345" y1="1145.9248" y2="1145.9248"/><ellipse cx="33" cy="1159.669" fill="#84BE84" rx="3" ry="3" style="stroke:#038048;stroke-width:1.0;"/><text fill="#000000" font-family="sans-serif" font-size="14" lengthAdjust="spacing" textLength="259" x="42" y="1163.46">ConferenceTransfer(TransferListener)</text><ellipse cx="33" cy="1176.1573" fill="#84BE84" rx="3" ry="3" style="stroke:#038048;stroke-width:1.0;"/><text fill="#000000" font-family="sans-serif" font-size="14" lengthAdjust="spacing" textLength="222" x="42" y="1179.9483">process(SipServletRequest): void</text></g></a><!--class TransferInitialInvite--><a href="TransferInitialInvite.html" target="_top" title="TransferInitialInvite.html" xlink:actuate="onRequest" xlink:href="TransferInitialInvite.html" xlink:show="new" xlink:title="TransferInitialInvite.html" xlink:type="simple"><g id="elem_TransferInitialInvite"><rect codeLine="13" fill="#F1F1F1" height="80.9766" id="TransferInitialInvite" rx="2.5" ry="2.5" style="stroke:#181818;stroke-width:0.5;" width="248" x="22" y="766.58"/><ellipse cx="75.25" cy="782.58" fill="#ADD1B2" rx="11" ry="11" style="stroke:#181818;stroke-width:1.0;"/><path d="M77.7231,788.7231 Q77.1421,789.0219 76.5029,789.1713 Q75.8638,789.3207 75.1582,789.3207 Q72.6514,789.3207 71.3315,787.6689 Q70.0117,786.017 70.0117,782.8959 Q70.0117,779.7665 71.3315,778.1147 Q72.6514,776.4628 75.1582,776.4628 Q75.8638,776.4628 76.5112,776.6122 Q77.1587,776.7616 77.7231,777.0605 L77.7231,779.7831 Q77.0923,779.2021 76.4988,778.9323 Q75.9053,778.6625 75.2744,778.6625 Q73.9297,778.6625 73.2449,779.7292 Q72.5601,780.7958 72.5601,782.8959 Q72.5601,784.9877 73.2449,786.0544 Q73.9297,787.121 75.2744,787.121 Q75.9053,787.121 76.4988,786.8512 Q77.0923,786.5815 77.7231,786.0004 Z " fill="#000000"/><text fill="#000000" font-family="sans-serif" font-size="14" lengthAdjust="spacing" textLength="133" x="95.75" y="787.871">TransferInitialInvite</text><line style="stroke:#181818;stroke-width:0.5;" x1="23" x2="269" y1="798.58" y2="798.58"/><rect fill="none" height="6" style="stroke:#C82930;stroke-width:1.0;" width="6" x="30" y="809.3241"/><text fill="#000000" font-family="sans-serif" font-size="14" lengthAdjust="spacing" text-decoration="underline" textLength="152" x="42" y="816.1152">serialVersionUID: long</text><line style="stroke:#181818;stroke-width:0.5;" x1="23" x2="269" y1="823.0683" y2="823.0683"/><ellipse cx="33" cy="836.8124" fill="#84BE84" rx="3" ry="3" style="stroke:#038048;stroke-width:1.0;"/><text fill="#000000" font-family="sans-serif" font-size="14" lengthAdjust="spacing" textLength="222" x="42" y="840.6034">process(SipServletRequest): void</text></g></a><!--class TransferCondition--><a href="TransferCondition.html" target="_top" title="TransferCondition.html" xlink:actuate="onRequest" xlink:href="TransferCondition.html" xlink:show="new" xlink:title="TransferCondition.html" xlink:type="simple"><g id="elem_TransferCondition"><rect codeLine="18" fill="#F1F1F1" height="179.9063" id="TransferCondition" rx="2.5" ry="2.5" style="stroke:#181818;stroke-width:0.5;" width="328" x="305" y="717.11"/><ellipse cx="401.75" cy="733.11" fill="#ADD1B2" rx="11" ry="11" style="stroke:#181818;stroke-width:1.0;"/><path d="M404.2231,739.2531 Q403.6421,739.5519 403.0029,739.7013 Q402.3638,739.8507 401.6582,739.8507 Q399.1514,739.8507 397.8315,738.1989 Q396.5117,736.547 396.5117,733.4259 Q396.5117,730.2965 397.8315,728.6447 Q399.1514,726.9928 401.6582,726.9928 Q402.3638,726.9928 403.0112,727.1422 Q403.6587,727.2916 404.2231,727.5905 L404.2231,730.3131 Q403.5923,729.7321 402.9988,729.4623 Q402.4053,729.1925 401.7744,729.1925 Q400.4297,729.1925 399.7449,730.2592 Q399.0601,731.3258 399.0601,733.4259 Q399.0601,735.5177 399.7449,736.5844 Q400.4297,737.651 401.7744,737.651 Q402.4053,737.651 402.9988,737.3812 Q403.5923,737.1115 404.2231,736.5304 Z " fill="#000000"/><text fill="#000000" font-family="sans-serif" font-size="14" lengthAdjust="spacing" textLength="126" x="422.25" y="738.401">TransferCondition</text><line style="stroke:#181818;stroke-width:0.5;" x1="306" x2="632" y1="749.11" y2="749.11"/><rect fill="none" height="6" style="stroke:#C82930;stroke-width:1.0;" width="6" x="313" y="759.8541"/><text fill="#000000" font-family="sans-serif" font-size="14" lengthAdjust="spacing" textLength="129" x="325" y="766.6452">style: TransferStyle</text><rect fill="none" height="6" style="stroke:#C82930;stroke-width:1.0;" width="6" x="313" y="776.3424"/><text fill="#000000" font-family="sans-serif" font-size="14" lengthAdjust="spacing" textLength="141" x="325" y="783.1334">condition: Condition</text><line style="stroke:#181818;stroke-width:0.5;" x1="306" x2="632" y1="790.0866" y2="790.0866"/><ellipse cx="316" cy="803.8307" fill="#84BE84" rx="3" ry="3" style="stroke:#038048;stroke-width:1.0;"/><text fill="#000000" font-family="sans-serif" font-size="14" lengthAdjust="spacing" textLength="136" x="325" y="807.6217">TransferCondition()</text><ellipse cx="316" cy="820.319" fill="#84BE84" rx="3" ry="3" style="stroke:#038048;stroke-width:1.0;"/><text fill="#000000" font-family="sans-serif" font-size="14" lengthAdjust="spacing" textLength="302" x="325" y="824.11">TransferCondition(TransferStyle, Condition)</text><ellipse cx="316" cy="836.8073" fill="#84BE84" rx="3" ry="3" style="stroke:#038048;stroke-width:1.0;"/><text fill="#000000" font-family="sans-serif" font-size="14" lengthAdjust="spacing" textLength="162" x="325" y="840.5983">getStyle(): TransferStyle</text><ellipse cx="316" cy="853.2955" fill="#84BE84" rx="3" ry="3" style="stroke:#038048;stroke-width:1.0;"/><text fill="#000000" font-family="sans-serif" font-size="14" lengthAdjust="spacing" textLength="189" x="325" y="857.0866">setStyle(TransferStyle): void</text><ellipse cx="316" cy="869.7838" fill="#84BE84" rx="3" ry="3" style="stroke:#038048;stroke-width:1.0;"/><text fill="#000000" font-family="sans-serif" font-size="14" lengthAdjust="spacing" textLength="176" x="325" y="873.5748">getCondition(): Condition</text><ellipse cx="316" cy="886.2721" fill="#84BE84" rx="3" ry="3" style="stroke:#038048;stroke-width:1.0;"/><text fill="#000000" font-family="sans-serif" font-size="14" lengthAdjust="spacing" textLength="203" x="325" y="890.0631">setCondition(Condition): void</text></g></a><!--class BlindTransferOld--><a href="BlindTransferOld.html" target="_top" title="BlindTransferOld.html" xlink:actuate="onRequest" xlink:href="BlindTransferOld.html" xlink:show="new" xlink:title="BlindTransferOld.html" xlink:type="simple"><g id="elem_BlindTransferOld"><rect codeLine="29" fill="#F1F1F1" height="113.9531" id="BlindTransferOld" rx="2.5" ry="2.5" style="stroke:#181818;stroke-width:0.5;" width="264" x="381" y="1064.7"/><ellipse cx="450.75" cy="1080.7" fill="#ADD1B2" rx="11" ry="11" style="stroke:#181818;stroke-width:1.0;"/><path d="M453.2231,1086.8431 Q452.6421,1087.1419 452.0029,1087.2913 Q451.3638,1087.4407 450.6582,1087.4407 Q448.1514,1087.4407 446.8315,1085.7889 Q445.5117,1084.137 445.5117,1081.0159 Q445.5117,1077.8865 446.8315,1076.2347 Q448.1514,1074.5828 450.6582,1074.5828 Q451.3638,1074.5828 452.0112,1074.7322 Q452.6587,1074.8816 453.2231,1075.1805 L453.2231,1077.9031 Q452.5923,1077.3221 451.9988,1077.0523 Q451.4053,1076.7825 450.7744,1076.7825 Q449.4297,1076.7825 448.7449,1077.8492 Q448.0601,1078.9158 448.0601,1081.0159 Q448.0601,1083.1077 448.7449,1084.1744 Q449.4297,1085.241 450.7744,1085.241 Q451.4053,1085.241 451.9988,1084.9712 Q452.5923,1084.7015 453.2231,1084.1204 Z " fill="#000000"/><text fill="#000000" font-family="sans-serif" font-size="14" lengthAdjust="spacing" textLength="116" x="471.25" y="1085.991">BlindTransferOld</text><line style="stroke:#181818;stroke-width:0.5;" x1="382" x2="644" y1="1096.7" y2="1096.7"/><polygon fill="none" points="392,1106.4441,388,1112.4441,396,1112.4441" style="stroke:#1963A0;stroke-width:1.0;"/><text fill="#000000" font-family="sans-serif" font-size="14" lengthAdjust="spacing" text-decoration="underline" textLength="152" x="401" y="1114.2352">serialVersionUID: long</text><rect fill="none" height="6" style="stroke:#C82930;stroke-width:1.0;" width="6" x="389" y="1123.9324"/><text fill="#000000" font-family="sans-serif" font-size="14" lengthAdjust="spacing" textLength="216" x="401" y="1130.7234">aliceRequest: SipServletRequest</text><line style="stroke:#181818;stroke-width:0.5;" x1="382" x2="644" y1="1137.6766" y2="1137.6766"/><ellipse cx="392" cy="1151.4207" fill="#84BE84" rx="3" ry="3" style="stroke:#038048;stroke-width:1.0;"/><text fill="#000000" font-family="sans-serif" font-size="14" lengthAdjust="spacing" textLength="238" x="401" y="1155.2117">BlindTransferOld(TransferListener)</text><ellipse cx="392" cy="1167.909" fill="#84BE84" rx="3" ry="3" style="stroke:#038048;stroke-width:1.0;"/><text fill="#000000" font-family="sans-serif" font-size="14" lengthAdjust="spacing" textLength="222" x="401" y="1171.7">process(SipServletRequest): void</text></g></a><!--class BlindTransfer--><a href="BlindTransfer.html" target="_top" title="BlindTransfer.html" xlink:actuate="onRequest" xlink:href="BlindTransfer.html" xlink:show="new" xlink:title="BlindTransfer.html" xlink:type="simple"><g id="elem_BlindTransfer"><rect codeLine="36" fill="#F1F1F1" height="113.9531" id="BlindTransfer" rx="2.5" ry="2.5" style="stroke:#181818;stroke-width:0.5;" width="248" x="680" y="1064.7"/><ellipse cx="753.75" cy="1080.7" fill="#ADD1B2" rx="11" ry="11" style="stroke:#181818;stroke-width:1.0;"/><path d="M756.2231,1086.8431 Q755.6421,1087.1419 755.0029,1087.2913 Q754.3638,1087.4407 753.6582,1087.4407 Q751.1514,1087.4407 749.8315,1085.7889 Q748.5117,1084.137 748.5117,1081.0159 Q748.5117,1077.8865 749.8315,1076.2347 Q751.1514,1074.5828 753.6582,1074.5828 Q754.3638,1074.5828 755.0112,1074.7322 Q755.6587,1074.8816 756.2231,1075.1805 L756.2231,1077.9031 Q755.5923,1077.3221 754.9988,1077.0523 Q754.4053,1076.7825 753.7744,1076.7825 Q752.4297,1076.7825 751.7449,1077.8492 Q751.0601,1078.9158 751.0601,1081.0159 Q751.0601,1083.1077 751.7449,1084.1744 Q752.4297,1085.241 753.7744,1085.241 Q754.4053,1085.241 754.9988,1084.9712 Q755.5923,1084.7015 756.2231,1084.1204 Z " fill="#000000"/><text fill="#000000" font-family="sans-serif" font-size="14" lengthAdjust="spacing" textLength="92" x="774.25" y="1085.991">BlindTransfer</text><line style="stroke:#181818;stroke-width:0.5;" x1="681" x2="927" y1="1096.7" y2="1096.7"/><polygon fill="none" points="691,1106.4441,687,1112.4441,695,1112.4441" style="stroke:#1963A0;stroke-width:1.0;"/><text fill="#000000" font-family="sans-serif" font-size="14" lengthAdjust="spacing" text-decoration="underline" textLength="152" x="700" y="1114.2352">serialVersionUID: long</text><rect fill="none" height="6" style="stroke:#C82930;stroke-width:1.0;" width="6" x="688" y="1123.9324"/><text fill="#000000" font-family="sans-serif" font-size="14" lengthAdjust="spacing" textLength="216" x="700" y="1130.7234">aliceRequest: SipServletRequest</text><line style="stroke:#181818;stroke-width:0.5;" x1="681" x2="927" y1="1137.6766" y2="1137.6766"/><ellipse cx="691" cy="1151.4207" fill="#84BE84" rx="3" ry="3" style="stroke:#038048;stroke-width:1.0;"/><text fill="#000000" font-family="sans-serif" font-size="14" lengthAdjust="spacing" textLength="214" x="700" y="1155.2117">BlindTransfer(TransferListener)</text><ellipse cx="691" cy="1167.909" fill="#84BE84" rx="3" ry="3" style="stroke:#038048;stroke-width:1.0;"/><text fill="#000000" font-family="sans-serif" font-size="14" lengthAdjust="spacing" textLength="222" x="700" y="1171.7">process(SipServletRequest): void</text></g></a><!--class AttendedTransfer--><a href="AttendedTransfer.html" target="_top" title="AttendedTransfer.html" xlink:actuate="onRequest" xlink:href="AttendedTransfer.html" xlink:show="new" xlink:title="AttendedTransfer.html" xlink:type="simple"><g id="elem_AttendedTransfer"><rect codeLine="43" fill="#F1F1F1" height="130.4414" id="AttendedTransfer" rx="2.5" ry="2.5" style="stroke:#181818;stroke-width:0.5;" width="324" x="963" y="1056.46"/><ellipse cx="1060.25" cy="1072.46" fill="#ADD1B2" rx="11" ry="11" style="stroke:#181818;stroke-width:1.0;"/><path d="M1062.7231,1078.6031 Q1062.1421,1078.9019 1061.5029,1079.0513 Q1060.8638,1079.2007 1060.1582,1079.2007 Q1057.6514,1079.2007 1056.3315,1077.5489 Q1055.0117,1075.897 1055.0117,1072.7759 Q1055.0117,1069.6465 1056.3315,1067.9947 Q1057.6514,1066.3428 1060.1582,1066.3428 Q1060.8638,1066.3428 1061.5112,1066.4922 Q1062.1587,1066.6416 1062.7231,1066.9405 L1062.7231,1069.6631 Q1062.0923,1069.0821 1061.4988,1068.8123 Q1060.9053,1068.5425 1060.2744,1068.5425 Q1058.9297,1068.5425 1058.2449,1069.6092 Q1057.5601,1070.6758 1057.5601,1072.7759 Q1057.5601,1074.8677 1058.2449,1075.9344 Q1058.9297,1077.001 1060.2744,1077.001 Q1060.9053,1077.001 1061.4988,1076.7312 Q1062.0923,1076.4615 1062.7231,1075.8804 Z " fill="#000000"/><text fill="#000000" font-family="sans-serif" font-size="14" lengthAdjust="spacing" textLength="121" x="1080.75" y="1077.751">AttendedTransfer</text><line style="stroke:#181818;stroke-width:0.5;" x1="964" x2="1286" y1="1088.46" y2="1088.46"/><polygon fill="none" points="974,1098.2041,970,1104.2041,978,1104.2041" style="stroke:#1963A0;stroke-width:1.0;"/><text fill="#000000" font-family="sans-serif" font-size="14" lengthAdjust="spacing" text-decoration="underline" textLength="152" x="983" y="1105.9952">serialVersionUID: long</text><rect fill="none" height="6" style="stroke:#C82930;stroke-width:1.0;" width="6" x="971" y="1115.6924"/><text fill="#000000" font-family="sans-serif" font-size="14" lengthAdjust="spacing" textLength="216" x="983" y="1122.4834">aliceRequest: SipServletRequest</text><rect fill="none" height="6" style="stroke:#C82930;stroke-width:1.0;" width="6" x="971" y="1132.1807"/><text fill="#000000" font-family="sans-serif" font-size="14" lengthAdjust="spacing" textLength="298" x="983" y="1138.9717">loopOnPrack: Callback&lt;SipServletRequest&gt;</text><line style="stroke:#181818;stroke-width:0.5;" x1="964" x2="1286" y1="1145.9248" y2="1145.9248"/><ellipse cx="974" cy="1159.669" fill="#84BE84" rx="3" ry="3" style="stroke:#038048;stroke-width:1.0;"/><text fill="#000000" font-family="sans-serif" font-size="14" lengthAdjust="spacing" textLength="243" x="983" y="1163.46">AttendedTransfer(TransferListener)</text><ellipse cx="974" cy="1176.1573" fill="#84BE84" rx="3" ry="3" style="stroke:#038048;stroke-width:1.0;"/><text fill="#000000" font-family="sans-serif" font-size="14" lengthAdjust="spacing" textLength="222" x="983" y="1179.9483">process(SipServletRequest): void</text></g></a><!--class TransferListener--><a href="TransferListener.html" target="_top" title="TransferListener.html" xlink:actuate="onRequest" xlink:href="TransferListener.html" xlink:show="new" xlink:title="TransferListener.html" xlink:type="simple"><g id="elem_TransferListener"><rect codeLine="51" fill="#F1F1F1" height="113.9531" id="TransferListener" rx="2.5" ry="2.5" style="stroke:#181818;stroke-width:0.5;" width="335" x="1322.5" y="1064.7"/><ellipse cx="1429.75" cy="1080.7" fill="#B4A7E5" rx="11" ry="11" style="stroke:#181818;stroke-width:1.0;"/><path d="M1426.1777,1076.9651 L1426.1777,1074.8069 L1433.5571,1074.8069 L1433.5571,1076.9651 L1431.0918,1076.9651 L1431.0918,1085.0418 L1433.5571,1085.0418 L1433.5571,1087.2 L1426.1777,1087.2 L1426.1777,1085.0418 L1428.6431,1085.0418 L1428.6431,1076.9651 Z " fill="#000000"/><text fill="#000000" font-family="sans-serif" font-size="14" font-style="italic" lengthAdjust="spacing" textLength="112" x="1450.25" y="1085.991">TransferListener</text><line style="stroke:#181818;stroke-width:0.5;" x1="1323.5" x2="1656.5" y1="1096.7" y2="1096.7"/><line style="stroke:#181818;stroke-width:0.5;" x1="1323.5" x2="1656.5" y1="1104.7" y2="1104.7"/><ellipse cx="1333.5" cy="1118.4441" fill="#84BE84" rx="3" ry="3" style="stroke:#038048;stroke-width:1.0;"/><text fill="#000000" font-family="sans-serif" font-size="14" font-style="italic" lengthAdjust="spacing" textLength="279" x="1342.5" y="1122.2352">transferInitiated(SipServletRequest): void</text><ellipse cx="1333.5" cy="1134.9324" fill="#84BE84" rx="3" ry="3" style="stroke:#038048;stroke-width:1.0;"/><text fill="#000000" font-family="sans-serif" font-size="14" font-style="italic" lengthAdjust="spacing" textLength="309" x="1342.5" y="1138.7234">transferCompleted(SipServletResponse): void</text><ellipse cx="1333.5" cy="1151.4207" fill="#84BE84" rx="3" ry="3" style="stroke:#038048;stroke-width:1.0;"/><text fill="#000000" font-family="sans-serif" font-size="14" font-style="italic" lengthAdjust="spacing" textLength="293" x="1342.5" y="1155.2117">transferDeclined(SipServletResponse): void</text><ellipse cx="1333.5" cy="1167.909" fill="#84BE84" rx="3" ry="3" style="stroke:#038048;stroke-width:1.0;"/><text fill="#000000" font-family="sans-serif" font-size="14" font-style="italic" lengthAdjust="spacing" textLength="303" x="1342.5" y="1171.7">transferAbandoned(SipServletRequest): void</text></g></a><!--class Transfer--><a href="Transfer.html" target="_top" title="Transfer.html" xlink:actuate="onRequest" xlink:href="Transfer.html" xlink:show="new" xlink:title="Transfer.html" xlink:type="simple"><g id="elem_Transfer"><rect codeLine="58" fill="#F1F1F1" height="344.7891" id="Transfer" rx="2.5" ry="2.5" style="stroke:#181818;stroke-width:0.5;" width="477" x="668.5" y="634.67"/><ellipse cx="873.75" cy="650.67" fill="#ADD1B2" rx="11" ry="11" style="stroke:#181818;stroke-width:1.0;"/><path d="M876.2231,656.8131 Q875.6421,657.1119 875.0029,657.2613 Q874.3638,657.4107 873.6582,657.4107 Q871.1514,657.4107 869.8315,655.7589 Q868.5117,654.107 868.5117,650.9859 Q868.5117,647.8565 869.8315,646.2047 Q871.1514,644.5528 873.6582,644.5528 Q874.3638,644.5528 875.0112,644.7022 Q875.6587,644.8516 876.2231,645.1505 L876.2231,647.8731 Q875.5923,647.2921 874.9988,647.0223 Q874.4053,646.7525 873.7744,646.7525 Q872.4297,646.7525 871.7449,647.8192 Q871.0601,648.8858 871.0601,650.9859 Q871.0601,653.0777 871.7449,654.1444 Q872.4297,655.211 873.7744,655.211 Q874.4053,655.211 874.9988,654.9412 Q875.5923,654.6715 876.2231,654.0904 Z " fill="#000000"/><text fill="#000000" font-family="sans-serif" font-size="14" lengthAdjust="spacing" textLength="58" x="894.25" y="655.961">Transfer</text><line style="stroke:#181818;stroke-width:0.5;" x1="669.5" x2="1144.5" y1="666.67" y2="666.67"/><polygon fill="none" points="679.5,676.4141,675.5,682.4141,683.5,682.4141" style="stroke:#1963A0;stroke-width:1.0;"/><text fill="#000000" font-family="sans-serif" font-size="14" lengthAdjust="spacing" text-decoration="underline" textLength="152" x="688.5" y="684.2052">serialVersionUID: long</text><polygon fill="none" points="679.5,691.9024,683.5,695.9024,679.5,699.9024,675.5,695.9024" style="stroke:#B38D22;stroke-width:1.0;"/><text fill="#000000" font-family="sans-serif" font-size="14" lengthAdjust="spacing" text-decoration="underline" textLength="118" x="688.5" y="700.6934">REFER_TO: String</text><polygon fill="none" points="679.5,708.3907,683.5,712.3907,679.5,716.3907,675.5,712.3907" style="stroke:#B38D22;stroke-width:1.0;"/><text fill="#000000" font-family="sans-serif" font-size="14" lengthAdjust="spacing" text-decoration="underline" textLength="142" x="688.5" y="717.1817">REFERRED_BY: String</text><polygon fill="none" points="679.5,724.879,683.5,728.879,679.5,732.879,675.5,728.879" style="stroke:#B38D22;stroke-width:1.0;"/><text fill="#000000" font-family="sans-serif" font-size="14" lengthAdjust="spacing" text-decoration="underline" textLength="199" x="688.5" y="733.67">SUBSCRIPTION_STATE: String</text><polygon fill="none" points="679.5,741.3673,683.5,745.3673,679.5,749.3673,675.5,745.3673" style="stroke:#B38D22;stroke-width:1.0;"/><text fill="#000000" font-family="sans-serif" font-size="14" lengthAdjust="spacing" text-decoration="underline" textLength="93" x="688.5" y="750.1583">EVENT: String</text><polygon fill="none" points="679.5,757.8555,683.5,761.8555,679.5,765.8555,675.5,761.8555" style="stroke:#B38D22;stroke-width:1.0;"/><text fill="#000000" font-family="sans-serif" font-size="14" lengthAdjust="spacing" text-decoration="underline" textLength="99" x="688.5" y="766.6466">ACTIVE: String</text><polygon fill="none" points="679.5,774.3438,683.5,778.3438,679.5,782.3438,675.5,778.3438" style="stroke:#B38D22;stroke-width:1.0;"/><text fill="#000000" font-family="sans-serif" font-size="14" lengthAdjust="spacing" text-decoration="underline" textLength="109" x="688.5" y="783.1348">PENDING: String</text><polygon fill="none" points="679.5,790.8321,683.5,794.8321,679.5,798.8321,675.5,794.8321" style="stroke:#B38D22;stroke-width:1.0;"/><text fill="#000000" font-family="sans-serif" font-size="14" lengthAdjust="spacing" text-decoration="underline" textLength="106" x="688.5" y="799.6231">SIPFRAG: String</text><polygon fill="none" points="679.5,807.3204,683.5,811.3204,679.5,815.3204,675.5,811.3204" style="stroke:#B38D22;stroke-width:1.0;"/><text fill="#000000" font-family="sans-serif" font-size="14" lengthAdjust="spacing" text-decoration="underline" textLength="134" x="688.5" y="816.1114">TRYING_100: String</text><polygon fill="none" points="679.5,823.8087,683.5,827.8087,679.5,831.8087,675.5,827.8087" style="stroke:#B38D22;stroke-width:1.0;"/><text fill="#000000" font-family="sans-serif" font-size="14" lengthAdjust="spacing" text-decoration="underline" textLength="103" x="688.5" y="832.5997">OK_200: String</text><polygon fill="none" points="679.5,840.297,683.5,844.297,679.5,848.297,675.5,844.297" style="stroke:#B38D22;stroke-width:1.0;"/><text fill="#000000" font-family="sans-serif" font-size="14" lengthAdjust="spacing" textLength="255" x="688.5" y="849.088">transfereeRequest: SipServletRequest</text><polygon fill="none" points="679.5,856.7852,683.5,860.7852,679.5,864.7852,675.5,860.7852" style="stroke:#B38D22;stroke-width:1.0;"/><text fill="#000000" font-family="sans-serif" font-size="14" lengthAdjust="spacing" textLength="226" x="688.5" y="865.5763">targetRequest: SipServletRequest</text><polygon fill="none" points="679.5,873.2735,683.5,877.2735,679.5,881.2735,675.5,877.2735" style="stroke:#B38D22;stroke-width:1.0;"/><text fill="#000000" font-family="sans-serif" font-size="14" lengthAdjust="spacing" textLength="254" x="688.5" y="882.0645">transferorRequest: SipServletRequest</text><line style="stroke:#181818;stroke-width:0.5;" x1="669.5" x2="1144.5" y1="889.0177" y2="889.0177"/><ellipse cx="679.5" cy="902.7618" fill="#84BE84" rx="3" ry="3" style="stroke:#038048;stroke-width:1.0;"/><text fill="#000000" font-family="sans-serif" font-size="14" lengthAdjust="spacing" textLength="180" x="688.5" y="906.5528">Transfer(TransferListener)</text><polygon fill="#FFFF44" points="679.5,914.2501,683.5,918.2501,679.5,922.2501,675.5,918.2501" style="stroke:#B38D22;stroke-width:1.0;"/><text fill="#000000" font-family="sans-serif" font-size="14" lengthAdjust="spacing" textLength="273" x="688.5" y="923.0411">createRequests(SipServletRequest): void</text><ellipse cx="679.5" cy="935.7384" fill="#84BE84" rx="3" ry="3" style="stroke:#038048;stroke-width:1.0;"/><text fill="#000000" font-family="sans-serif" font-size="14" lengthAdjust="spacing" textLength="451" x="688.5" y="939.5294">preserveInviteHeaders(SipServletRequest, SipServletRequest): void</text><ellipse cx="679.5" cy="952.2266" fill="#84BE84" rx="3" ry="3" style="stroke:#038048;stroke-width:1.0;"/><text fill="#000000" font-family="sans-serif" font-size="14" lengthAdjust="spacing" textLength="450" x="688.5" y="956.0177">preserveReferHeaders(SipServletRequest, SipServletRequest): void</text><ellipse cx="679.5" cy="968.7149" fill="#84BE84" rx="3" ry="3" style="stroke:#038048;stroke-width:1.0;"/><text fill="#000000" font-family="sans-serif" font-size="14" lengthAdjust="spacing" textLength="222" x="688.5" y="972.5059">process(SipServletRequest): void</text></g></a><!--class InitialInvite--><g id="elem_InitialInvite"><rect codeLine="82" fill="#F1F1F1" height="130.4414" id="InitialInvite" rx="2.5" ry="2.5" style="stroke:#181818;stroke-width:0.5;" width="242" x="25" y="230.61"/><ellipse cx="104.25" cy="246.61" fill="#ADD1B2" rx="11" ry="11" style="stroke:#181818;stroke-width:1.0;"/><path d="M106.7231,252.7531 Q106.1421,253.0519 105.5029,253.2013 Q104.8638,253.3507 104.1582,253.3507 Q101.6514,253.3507 100.3315,251.6989 Q99.0117,250.047 99.0117,246.9259 Q99.0117,243.7965 100.3315,242.1447 Q101.6514,240.4928 104.1582,240.4928 Q104.8638,240.4928 105.5112,240.6422 Q106.1587,240.7916 106.7231,241.0905 L106.7231,243.8131 Q106.0923,243.2321 105.4988,242.9623 Q104.9053,242.6925 104.2744,242.6925 Q102.9297,242.6925 102.2449,243.7592 Q101.5601,244.8258 101.5601,246.9259 Q101.5601,249.0177 102.2449,250.0844 Q102.9297,251.151 104.2744,251.151 Q104.9053,251.151 105.4988,250.8812 Q106.0923,250.6115 106.7231,250.0304 Z " fill="#000000"/><text fill="#000000" font-family="sans-serif" font-size="14" lengthAdjust="spacing" textLength="75" x="124.75" y="251.901">InitialInvite</text><line style="stroke:#181818;stroke-width:0.5;" x1="26" x2="266" y1="262.61" y2="262.61"/><polygon fill="none" points="36,272.3541,32,278.3541,40,278.3541" style="stroke:#1963A0;stroke-width:1.0;"/><text fill="#000000" font-family="sans-serif" font-size="14" lengthAdjust="spacing" text-decoration="underline" textLength="152" x="45" y="280.1452">serialVersionUID: long</text><rect fill="none" height="6" style="stroke:#C82930;stroke-width:1.0;" width="6" x="33" y="289.8424"/><text fill="#000000" font-family="sans-serif" font-size="14" lengthAdjust="spacing" textLength="216" x="45" y="296.6334">aliceRequest: SipServletRequest</text><rect fill="none" height="6" style="stroke:#C82930;stroke-width:1.0;" width="6" x="33" y="306.3307"/><text fill="#000000" font-family="sans-serif" font-size="14" lengthAdjust="spacing" textLength="212" x="45" y="313.1217">bobRequest: SipServletRequest</text><rect fill="none" height="6" style="stroke:#C82930;stroke-width:1.0;" width="6" x="33" y="322.819"/><text fill="#000000" font-family="sans-serif" font-size="14" lengthAdjust="spacing" textLength="203" x="45" y="329.61">b2buaListener: B2buaListener</text><rect fill="none" height="6" style="stroke:#C82930;stroke-width:1.0;" width="6" x="33" y="339.3073"/><text fill="#000000" font-family="sans-serif" font-size="14" lengthAdjust="spacing" textLength="158" x="45" y="346.0983">doNotProcess: boolean</text><line style="stroke:#181818;stroke-width:0.5;" x1="26" x2="266" y1="353.0514" y2="353.0514"/></g><!--class Serializable--><a href="https://docs.oracle.com/en/java/javase/11/docs/api/java.base/java/io/Serializable.html?is-external=true" target="_top" title="https://docs.oracle.com/en/java/javase/11/docs/api/java.base/java/io/Serializable.html?is-external=true" xlink:actuate="onRequest" xlink:href="https://docs.oracle.com/en/java/javase/11/docs/api/java.base/java/io/Serializable.html?is-external=true" xlink:show="new" xlink:title="https://docs.oracle.com/en/java/javase/11/docs/api/java.base/java/io/Serializable.html?is-external=true" xlink:type="simple"><g id="elem_Serializable"><rect codeLine="92" fill="#F1F1F1" height="48" id="Serializable" rx="2.5" ry="2.5" style="stroke:#181818;stroke-width:0.5;" width="111" x="1714.5" y="783.06"/><ellipse cx="1729.5" cy="799.06" fill="#B4A7E5" rx="11" ry="11" style="stroke:#181818;stroke-width:1.0;"/><path d="M1725.9277,795.3251 L1725.9277,793.1669 L1733.3071,793.1669 L1733.3071,795.3251 L1730.8418,795.3251 L1730.8418,803.4018 L1733.3071,803.4018 L1733.3071,805.56 L1725.9277,805.56 L1725.9277,803.4018 L1728.3931,803.4018 L1728.3931,795.3251 Z " fill="#000000"/><text fill="#000000" font-family="sans-serif" font-size="14" font-style="italic" lengthAdjust="spacing" textLength="79" x="1743.5" y="804.351">Serializable</text><line style="stroke:#181818;stroke-width:0.5;" x1="1715.5" x2="1824.5" y1="815.06" y2="815.06"/><line style="stroke:#181818;stroke-width:0.5;" x1="1715.5" x2="1824.5" y1="823.06" y2="823.06"/></g></a><!--class Callflow--><a href="https://vorpalnet.github.io/blade/vorpal-blade-library-framework/org/vorpal/blade/framework/callflow/Callflow.html?is-external=true" target="_top" title="https://vorpalnet.github.io/blade/vorpal-blade-library-framework/org/vorpal/blade/framework/callflow/Callflow.html?is-external=true" xlink:actuate="onRequest" xlink:href="https://vorpalnet.github.io/blade/vorpal-blade-library-framework/org/vorpal/blade/framework/callflow/Callflow.html?is-external=true" xlink:show="new" xlink:title="https://vorpalnet.github.io/blade/vorpal-blade-library-framework/org/vorpal/blade/framework/callflow/Callflow.html?is-external=true" xlink:type="simple"><g id="elem_Callflow"><rect codeLine="96" fill="#F1F1F1" height="509.6719" id="Callflow" rx="2.5" ry="2.5" style="stroke:#181818;stroke-width:0.5;" width="291" x="761.5" y="41"/><ellipse cx="875.25" cy="57" fill="#A9DCDF" rx="11" ry="11" style="stroke:#181818;stroke-width:1.0;"/><path d="M875.1133,52.3481 L873.9595,57.4199 L876.2754,57.4199 Z M873.6191,50.1069 L876.6157,50.1069 L879.9609,62.5 L877.5122,62.5 L876.7485,59.437 L873.4697,59.437 L872.7227,62.5 L870.2739,62.5 Z " fill="#000000"/><text fill="#000000" font-family="sans-serif" font-size="14" font-style="italic" lengthAdjust="spacing" textLength="55" x="895.75" y="62.291">Callflow</text><line style="stroke:#181818;stroke-width:0.5;" x1="762.5" x2="1051.5" y1="73" y2="73"/><rect fill="none" height="6" style="stroke:#C82930;stroke-width:1.0;" width="6" x="769.5" y="83.7441"/><text fill="#000000" font-family="sans-serif" font-size="14" lengthAdjust="spacing" text-decoration="underline" textLength="152" x="781.5" y="90.5352">serialVersionUID: long</text><polygon fill="none" points="772.5,98.2324,776.5,102.2324,772.5,106.2324,768.5,102.2324" style="stroke:#B38D22;stroke-width:1.0;"/><text fill="#000000" font-family="sans-serif" font-size="14" lengthAdjust="spacing" text-decoration="underline" textLength="149" x="781.5" y="107.0234">sipFactory: SipFactory</text><polygon fill="none" points="772.5,114.7207,776.5,118.7207,772.5,122.7207,768.5,118.7207" style="stroke:#B38D22;stroke-width:1.0;"/><text fill="#000000" font-family="sans-serif" font-size="14" lengthAdjust="spacing" text-decoration="underline" textLength="154" x="781.5" y="123.5117">sipUtil: SipSessionsUtil</text><polygon fill="none" points="772.5,131.209,776.5,135.209,772.5,139.209,768.5,135.209" style="stroke:#B38D22;stroke-width:1.0;"/><text fill="#000000" font-family="sans-serif" font-size="14" lengthAdjust="spacing" text-decoration="underline" textLength="180" x="781.5" y="140">timerService: TimerService</text><polygon fill="none" points="772.5,147.6973,776.5,151.6973,772.5,155.6973,768.5,151.6973" style="stroke:#B38D22;stroke-width:1.0;"/><text fill="#000000" font-family="sans-serif" font-size="14" lengthAdjust="spacing" text-decoration="underline" textLength="124" x="781.5" y="156.4883">sipLogger: Logger</text><polygon fill="none" points="772.5,164.1855,776.5,168.1855,772.5,172.1855,768.5,168.1855" style="stroke:#B38D22;stroke-width:1.0;"/><text fill="#000000" font-family="sans-serif" font-size="14" lengthAdjust="spacing" text-decoration="underline" textLength="265" x="781.5" y="172.9766">sessionParameters: SessionParameters</text><polygon fill="none" points="772.5,180.6738,776.5,184.6738,772.5,188.6738,768.5,184.6738" style="stroke:#B38D22;stroke-width:1.0;"/><text fill="#000000" font-family="sans-serif" font-size="14" lengthAdjust="spacing" text-decoration="underline" textLength="93" x="781.5" y="189.4648">INVITE: String</text><polygon fill="none" points="772.5,197.1621,776.5,201.1621,772.5,205.1621,768.5,201.1621" style="stroke:#B38D22;stroke-width:1.0;"/><text fill="#000000" font-family="sans-serif" font-size="14" lengthAdjust="spacing" text-decoration="underline" textLength="78" x="781.5" y="205.9531">ACK: String</text><polygon fill="none" points="772.5,213.6504,776.5,217.6504,772.5,221.6504,768.5,217.6504" style="stroke:#B38D22;stroke-width:1.0;"/><text fill="#000000" font-family="sans-serif" font-size="14" lengthAdjust="spacing" text-decoration="underline" textLength="74" x="781.5" y="222.4414">BYE: String</text><polygon fill="none" points="772.5,230.1387,776.5,234.1387,772.5,238.1387,768.5,234.1387" style="stroke:#B38D22;stroke-width:1.0;"/><text fill="#000000" font-family="sans-serif" font-size="14" lengthAdjust="spacing" text-decoration="underline" textLength="104" x="781.5" y="238.9297">CANCEL: String</text><polygon fill="none" points="772.5,246.627,776.5,250.627,772.5,254.627,768.5,250.627" style="stroke:#B38D22;stroke-width:1.0;"/><text fill="#000000" font-family="sans-serif" font-size="14" lengthAdjust="spacing" text-decoration="underline" textLength="114" x="781.5" y="255.418">REGISTER: String</text><polygon fill="none" points="772.5,263.1152,776.5,267.1152,772.5,271.1152,768.5,267.1152" style="stroke:#B38D22;stroke-width:1.0;"/><text fill="#000000" font-family="sans-serif" font-size="14" lengthAdjust="spacing" text-decoration="underline" textLength="110" x="781.5" y="271.9063">OPTIONS: String</text><polygon fill="none" points="772.5,279.6035,776.5,283.6035,772.5,287.6035,768.5,283.6035" style="stroke:#B38D22;stroke-width:1.0;"/><text fill="#000000" font-family="sans-serif" font-size="14" lengthAdjust="spacing" text-decoration="underline" textLength="95" x="781.5" y="288.3945">PRACK: String</text><polygon fill="none" points="772.5,296.0918,776.5,300.0918,772.5,304.0918,768.5,300.0918" style="stroke:#B38D22;stroke-width:1.0;"/><text fill="#000000" font-family="sans-serif" font-size="14" lengthAdjust="spacing" text-decoration="underline" textLength="122" x="781.5" y="304.8828">SUBSCRIBE: String</text><polygon fill="none" points="772.5,312.5801,776.5,316.5801,772.5,320.5801,768.5,316.5801" style="stroke:#B38D22;stroke-width:1.0;"/><text fill="#000000" font-family="sans-serif" font-size="14" lengthAdjust="spacing" text-decoration="underline" textLength="100" x="781.5" y="321.3711">NOTIFY: String</text><polygon fill="none" points="772.5,329.0684,776.5,333.0684,772.5,337.0684,768.5,333.0684" style="stroke:#B38D22;stroke-width:1.0;"/><text fill="#000000" font-family="sans-serif" font-size="14" lengthAdjust="spacing" text-decoration="underline" textLength="104" x="781.5" y="337.8594">PUBLISH: String</text><polygon fill="none" points="772.5,345.5566,776.5,349.5566,772.5,353.5566,768.5,349.5566" style="stroke:#B38D22;stroke-width:1.0;"/><text fill="#000000" font-family="sans-serif" font-size="14" lengthAdjust="spacing" text-decoration="underline" textLength="82" x="781.5" y="354.3477">INFO: String</text><polygon fill="none" points="772.5,362.0449,776.5,366.0449,772.5,370.0449,768.5,366.0449" style="stroke:#B38D22;stroke-width:1.0;"/><text fill="#000000" font-family="sans-serif" font-size="14" lengthAdjust="spacing" text-decoration="underline" textLength="104" x="781.5" y="370.8359">UPDATE: String</text><polygon fill="none" points="772.5,378.5332,776.5,382.5332,772.5,386.5332,768.5,382.5332" style="stroke:#B38D22;stroke-width:1.0;"/><text fill="#000000" font-family="sans-serif" font-size="14" lengthAdjust="spacing" text-decoration="underline" textLength="91" x="781.5" y="387.3242">REFER: String</text><polygon fill="none" points="772.5,395.0215,776.5,399.0215,772.5,403.0215,768.5,399.0215" style="stroke:#B38D22;stroke-width:1.0;"/><text fill="#000000" font-family="sans-serif" font-size="14" lengthAdjust="spacing" text-decoration="underline" textLength="69" x="781.5" y="403.8125">SIP: String</text><polygon fill="none" points="772.5,411.5098,776.5,415.5098,772.5,419.5098,768.5,415.5098" style="stroke:#B38D22;stroke-width:1.0;"/><text fill="#000000" font-family="sans-serif" font-size="14" lengthAdjust="spacing" text-decoration="underline" textLength="102" x="781.5" y="420.3008">Contact: String</text><polygon fill="none" points="772.5,427.998,776.5,431.998,772.5,435.998,768.5,431.998" style="stroke:#B38D22;stroke-width:1.0;"/><text fill="#000000" font-family="sans-serif" font-size="14" lengthAdjust="spacing" text-decoration="underline" textLength="110" x="781.5" y="436.7891">RELIABLE: String</text><polygon fill="none" points="772.5,444.4863,776.5,448.4863,772.5,452.4863,768.5,448.4863" style="stroke:#B38D22;stroke-width:1.0;"/><text fill="#000000" font-family="sans-serif" font-size="14" lengthAdjust="spacing" text-decoration="underline" textLength="197" x="781.5" y="453.2773">REQUEST_CALLBACK_: String</text><polygon fill="none" points="772.5,460.9746,776.5,464.9746,772.5,468.9746,768.5,464.9746" style="stroke:#B38D22;stroke-width:1.0;"/><text fill="#000000" font-family="sans-serif" font-size="14" lengthAdjust="spacing" text-decoration="underline" textLength="204" x="781.5" y="469.7656">RESPONSE_CALLBACK_: String</text><polygon fill="none" points="772.5,477.4629,776.5,481.4629,772.5,485.4629,768.5,481.4629" style="stroke:#B38D22;stroke-width:1.0;"/><text fill="#000000" font-family="sans-serif" font-size="14" lengthAdjust="spacing" text-decoration="underline" textLength="161" x="781.5" y="486.2539">LINKED_SESSION: String</text><polygon fill="none" points="772.5,493.9512,776.5,497.9512,772.5,501.9512,768.5,497.9512" style="stroke:#B38D22;stroke-width:1.0;"/><text fill="#000000" font-family="sans-serif" font-size="14" lengthAdjust="spacing" text-decoration="underline" textLength="181" x="781.5" y="502.7422">DELAYED_REQUEST: String</text><polygon fill="none" points="772.5,510.4395,776.5,514.4395,772.5,518.4395,768.5,514.4395" style="stroke:#B38D22;stroke-width:1.0;"/><text fill="#000000" font-family="sans-serif" font-size="14" lengthAdjust="spacing" text-decoration="underline" textLength="199" x="781.5" y="519.2305">WITHHOLD_RESPONSE: String</text><line style="stroke:#181818;stroke-width:0.5;" x1="762.5" x2="1051.5" y1="526.1836" y2="526.1836"/><ellipse cx="772.5" cy="539.9277" fill="#84BE84" rx="3" ry="3" style="stroke:#038048;stroke-width:1.0;"/><text fill="#000000" font-family="sans-serif" font-size="14" font-style="italic" lengthAdjust="spacing" textLength="222" x="781.5" y="543.7188">process(SipServletRequest): void</text></g></a><!--reverse link Transfer to ConferenceTransfer--><g id="link_Transfer_ConferenceTransfer"><path codeLine="128" d="M652.0556,979.2797 C646.3156,982.1097 656.72,976.86 651,979.46 C530.32,1034.16 489.47,1016.94 363,1056.46 C357.49,1058.18 351.89,1059.97 346.25,1061.8 " fill="none" id="Transfer-backto-ConferenceTransfer" style="stroke:#181818;stroke-width:1.0;"/><polygon fill="none" points="668.2,971.32,649.4023,973.8982,654.7088,984.6612,668.2,971.32" style="stroke:#181818;stroke-width:1.0;"/></g><!--reverse link InitialInvite to TransferInitialInvite--><g id="link_InitialInvite_TransferInitialInvite"><path codeLine="129" d="M146,379.33 C146,486.11 146,678.55 146,766.24 " fill="none" id="InitialInvite-backto-TransferInitialInvite" style="stroke:#181818;stroke-width:1.0;"/><polygon fill="none" points="146,361.33,140,379.33,152,379.33,146,361.33" style="stroke:#181818;stroke-width:1.0;"/></g><!--reverse link Transfer to BlindTransferOld--><g id="link_Transfer_BlindTransferOld"><path codeLine="130" d="M676.308,991.1063 C637.858,1021.6063 614.52,1040.13 584.02,1064.33 " fill="none" id="Transfer-backto-BlindTransferOld" style="stroke:#181818;stroke-width:1.0;"/><polygon fill="none" points="690.41,979.92,672.5792,986.4056,680.0367,995.8069,690.41,979.92" style="stroke:#181818;stroke-width:1.0;"/></g><!--reverse link Transfer to BlindTransfer--><g id="link_Transfer_BlindTransfer"><path codeLine="131" d="M844.7468,997.0158 C834.6968,1027.5158 830.54,1040.13 822.57,1064.33 " fill="none" id="Transfer-backto-BlindTransfer" style="stroke:#181818;stroke-width:1.0;"/><polygon fill="none" points="850.38,979.92,839.0482,995.1381,850.4454,998.8936,850.38,979.92" style="stroke:#181818;stroke-width:1.0;"/></g><!--reverse link Transfer to AttendedTransfer--><g id="link_Transfer_AttendedTransfer"><path codeLine="132" d="M1037.1367,994.6841 C1056.0367,1021.7841 1064.2,1033.49 1079.91,1056.03 " fill="none" id="Transfer-backto-AttendedTransfer" style="stroke:#181818;stroke-width:1.0;"/><polygon fill="none" points="1026.84,979.92,1032.2154,998.1163,1042.0581,991.2518,1026.84,979.92" style="stroke:#181818;stroke-width:1.0;"/></g><!--reverse link Serializable to TransferListener--><g id="link_Serializable_TransferListener"><path codeLine="133" d="M1753.4573,848.1208 C1738.6073,882.9908 1714.4,932.78 1674,979.46 C1646.46,1011.28 1610.75,1040.65 1578.12,1064.27 " fill="none" id="Serializable-backto-TransferListener" style="stroke:#181818;stroke-width:1.0;"/><polygon fill="none" points="1760.51,831.56,1747.937,845.7699,1758.9776,850.4717,1760.51,831.56" style="stroke:#181818;stroke-width:1.0;"/></g><!--reverse link Callflow to Transfer--><g id="link_Callflow_Transfer"><path codeLine="134" d="M907,569.08 C907,597.32 907,607.58 907,634.45 " fill="none" id="Callflow-backto-Transfer" style="stroke:#181818;stroke-width:1.0;"/><polygon fill="none" points="907,551.08,901,569.08,913,569.08,907,551.08" style="stroke:#181818;stroke-width:1.0;"/></g><!--link Transfer to TransferListener--><g id="link_Transfer_TransferListener"><path codeLine="135" d="M1145.81,936.12 C1228.99,980.72 1312.7924,1025.6543 1379.4924,1061.4243 " fill="none" id="Transfer-to-TransferListener" style="stroke:#181818;stroke-width:1.0;"/><polygon fill="#181818" points="1384.78,1064.26,1378.739,1056.4814,1380.3736,1061.8969,1374.9581,1063.5316,1384.78,1064.26" style="stroke:#181818;stroke-width:1.0;"/><text fill="#000000" font-family="sans-serif" font-size="13" lengthAdjust="spacing" textLength="99" x="1302" y="1023.0284">transferListener</text></g><text fill="#888888" font-family="sans-serif" font-size="10" lengthAdjust="spacing" textLength="176" x="829.5" y="1218.568">UMLDoclet 2.1.2, PlantUML 1.2024.3</text><!--SRC=[rLXjRzis4FxUNq4W690WaTpaez1ry8lI2D5ipv8p14LWK3BZS6L8ZMJSPbtsstUI9LkIhL9kammpaDWwFNpkXSUxan12I14DVmcMM0k97EVD6n2Y1CUVy88W8HVsKiW4CpjYU4xiMudloMSXFzbQOgvkYKHVLqlIJyomKgWlECW9ZqbOO3v-t1RQT_gUtTp0UbJwV5KQQne_eNyKaHIpAo8L5Npg3Hp415zKm1PcD2OJykS3KTf10Kq28fUCw5nK1JCXaX4VI_3DGNtCM0I_tcqjUbzPTRnj-67nmwTA4qxaKNL58aLCb3hSOZvoq5BG-HhzL8zSGUnngi5tZo-f9X2ydN93_AmMyNi6Ko4ySp1Ay9APQzbk4osb7nbnrXH1Ubb5n0M3WzPaLSktT1qUcG0LVISRujh21T4Pul3eMoOUgm9MmTJZLZ2Mp6nqIPLX6-jCEz5ZbCyB8qPi3XjH5xtsKJkk6_1oHwQYgUxwV-ltopdTrS0t9sM_wwB_INMjc_qICQDS4tcBOuBgvAMQLOWQueOZ1Gqlra_eM5UAiIPpip5D57rndy2g6eLA15UaBSU0n91qFqJHZJ2V2zx6ayO-K0hbCwJU6dmmSS_ToImSGVvfIRyDcxY3MU_QW0oclQ0_ySQXDnhEWh0RkeO5xfKx30sORZ_qhan4OtSuy8OVJFPvu_D9ruGA9zT0DJjz-zO075tEpXf01yN-axQ7_41ZkLZVCgDpVY7Rri-MPU0WbWHENawXsXr0g1q4Kcz9LkFJ1O5vLkvOUuBseviGiFCPsFOhR4-j1_NeB7h0fSEuEhVL4VFLkaGaejRGrEvY_ntKArzMaNCn57gy2g238Y4OmRmKi1tn-WCliKr5oV5DbmWof-bVE6Bfy7sdTQASJcSkOcKBA9sCsB6uxn3UILcoVufqJaypH0SdD1FPKIhD45HqofnPVVo5Aejy0PKSiv-rV20tDtlkQmmzzfQ9poKVYjfUF8WLY8qJAovEjBsW-kuXWXXqCkByZfLTM8n64ij7Qwsj0uRaa1o_kLKOqYdqDJdu8uygcugcQ78EFWhvcALG_hiPFDMKvSccKdwL2XhWcjx380z92IaDqt_fgfdV5uj5cg2hxoRSIlSOfr63e42U1dLHmr9lUEKPcrItVsb0zAvD7FtkiE_wnaRxmGj2Ts9gErb_3KmTSMAsE-_NFPFrmr7edPkQ_tZQyxtWme3oXkUcUMCw7fWdXsmeCRTxqxO8hY77ZRfyhzlppIRzDdM3SDRl-duFWZypueCnxAFRUe7l3IzX30lS8804C807hj-z1dHkbG7zknTUN8py5BuoQZU-DE3kqLHBjRV5Io_7MS-zx_wsh7PBjjyacTHbBT1nghswlSAThurUrCNwS__hANjHJVMdr4nPFa8uJcLUs7ztAZDDYtuFYLJqzVsLVKUOBElzzpda8BtBnPYaanQw5IBzclxg3mICL1gTsQVssGaQCymrID5FozKyS7ZqBm00]--></g></svg>