<?xml version="1.0" encoding="us-ascii" standalone="no"?><svg xmlns="http://www.w3.org/2000/svg" xmlns:xlink="http://www.w3.org/1999/xlink" contentStyleType="text/css" height="218px" preserveAspectRatio="none" style="width:262px;height:218px;background:#FFFFFF;" version="1.1" viewBox="0 0 262 218" width="262px" zoomAndPan="magnify"><defs/><g><!--class org.vorpal.blade.framework.transfer.TransferInitialInvite--><a href="TransferInitialInvite.html" target="_top" title="TransferInitialInvite.html" xlink:actuate="onRequest" xlink:href="TransferInitialInvite.html" xlink:show="new" xlink:title="TransferInitialInvite.html" xlink:type="simple"><g id="elem_org.vorpal.blade.framework.transfer.TransferInitialInvite"><rect codeLine="5" fill="#F1F1F1" height="87.2422" id="org.vorpal.blade.framework.transfer.TransferInitialInvite" rx="2.5" ry="2.5" style="stroke:#181818;stroke-width:0.5;" width="248" x="7" y="105.27"/><ellipse cx="39.55" cy="124.4028" fill="#ADD1B2" rx="11" ry="11" style="stroke:#181818;stroke-width:1.0;"/><path d="M42.0231,130.5459 Q41.4421,130.8447 40.8029,130.9941 Q40.1638,131.1435 39.4582,131.1435 Q36.9514,131.1435 35.6315,129.4917 Q34.3117,127.8398 34.3117,124.7187 Q34.3117,121.5893 35.6315,119.9375 Q36.9514,118.2856 39.4582,118.2856 Q40.1638,118.2856 40.8112,118.435 Q41.4587,118.5845 42.0231,118.8833 L42.0231,121.6059 Q41.3923,121.0249 40.7988,120.7551 Q40.2053,120.4853 39.5744,120.4853 Q38.2297,120.4853 37.5449,121.552 Q36.8601,122.6186 36.8601,124.7187 Q36.8601,126.8105 37.5449,127.8772 Q38.2297,128.9438 39.5744,128.9438 Q40.2053,128.9438 40.7988,128.6741 Q41.3923,128.4043 42.0231,127.8232 Z " fill="#000000"/><text fill="#000000" font-family="sans-serif" font-size="14" lengthAdjust="spacing" textLength="133" x="79.45" y="123.8052">TransferInitialInvite</text><text fill="#000000" font-family="sans-serif" font-size="10" lengthAdjust="spacing" textLength="177" x="57.45" y="136.4262">org.vorpal.blade.framework.transfer</text><line style="stroke:#181818;stroke-width:0.5;" x1="8" x2="254" y1="143.5356" y2="143.5356"/><rect fill="none" height="6" style="stroke:#C82930;stroke-width:1.0;" width="6" x="15" y="154.2798"/><text fill="#000000" font-family="sans-serif" font-size="14" lengthAdjust="spacing" text-decoration="underline" textLength="152" x="27" y="161.0708">serialVersionUID: long</text><line style="stroke:#181818;stroke-width:0.5;" x1="8" x2="254" y1="168.0239" y2="168.0239"/><ellipse cx="18" cy="181.768" fill="#84BE84" rx="3" ry="3" style="stroke:#038048;stroke-width:1.0;"/><text fill="#000000" font-family="sans-serif" font-size="14" lengthAdjust="spacing" textLength="222" x="27" y="185.5591">process(SipServletRequest): void</text></g></a><!--class org.vorpal.blade.framework.b2bua.InitialInvite--><g id="elem_org.vorpal.blade.framework.b2bua.InitialInvite"><rect codeLine="10" fill="#F1F1F1" height="38.2656" id="org.vorpal.blade.framework.b2bua.InitialInvite" rx="2.5" ry="2.5" style="stroke:#181818;stroke-width:0.5;" width="200" x="31" y="7"/><ellipse cx="46" cy="26.1328" fill="#ADD1B2" rx="11" ry="11" style="stroke:#181818;stroke-width:1.0;"/><path d="M48.4731,32.2759 Q47.8921,32.5747 47.2529,32.7241 Q46.6138,32.8735 45.9082,32.8735 Q43.4014,32.8735 42.0815,31.2217 Q40.7617,29.5698 40.7617,26.4487 Q40.7617,23.3193 42.0815,21.6675 Q43.4014,20.0156 45.9082,20.0156 Q46.6138,20.0156 47.2612,20.165 Q47.9087,20.3145 48.4731,20.6133 L48.4731,23.3359 Q47.8423,22.7549 47.2488,22.4851 Q46.6553,22.2153 46.0244,22.2153 Q44.6797,22.2153 43.9949,23.282 Q43.3101,24.3486 43.3101,26.4487 Q43.3101,28.5405 43.9949,29.6072 Q44.6797,30.6738 46.0244,30.6738 Q46.6553,30.6738 47.2488,30.4041 Q47.8423,30.1343 48.4731,29.5532 Z " fill="#000000"/><text fill="#000000" font-family="sans-serif" font-size="14" lengthAdjust="spacing" textLength="75" x="106.5" y="25.5352">InitialInvite</text><text fill="#000000" font-family="sans-serif" font-size="10" lengthAdjust="spacing" textLength="168" x="60" y="38.1563">org.vorpal.blade.framework.b2bua</text></g><!--reverse link org.vorpal.blade.framework.b2bua.InitialInvite to org.vorpal.blade.framework.transfer.TransferInitialInvite--><g id="link_org.vorpal.blade.framework.b2bua.InitialInvite_org.vorpal.blade.framework.transfer.TransferInitialInvite"><path codeLine="12" d="M131,63.74 C131,79.48 131,84.66 131,104.96 " fill="none" id="org.vorpal.blade.framework.b2bua.InitialInvite-backto-org.vorpal.blade.framework.transfer.TransferInitialInvite" style="stroke:#181818;stroke-width:1.0;"/><polygon fill="none" points="131,45.74,125,63.74,137,63.74,131,45.74" style="stroke:#181818;stroke-width:1.0;"/></g><text fill="#888888" font-family="sans-serif" font-size="10" lengthAdjust="spacing" textLength="176" x="36" y="208.1802">UMLDoclet 2.1.2, PlantUML 1.2024.3</text><!--SRC=[dP31Im9H4CRl_HM342Zb8wMJY2SlGa5aTZ4Fu-wiFdhxPfiPDyhytrjt9IY4odSP-EQRDz_y002K32Bcf0KcDAK21Oq58aSwgzgmzYa1vOMzGUOffFfJpSdMNCcrdWHKXTPG_JiDUjUZ1y6e6SaaUlCO9h7qHa_nqByQiQnSoL9WSCk0ARbCgYolBC_E3gCjG8K_-DpHNJ2V7zNTslAmMC2sZhr_MpKqd-oWgoILxv54FSVPP3o0m77rPRmeX1DIRKzzCIKf0zazlMn8hJE0adrQEtV7WPm0OjbVRl0t2hN9VVkz2V2_6HX-TBkdqsvEfcWaa37lo-psPin9nGZwhkVwbt0NC5gbmddP46vtFW40]--></g></svg>