<?xml version="1.0" encoding="us-ascii" standalone="no"?><svg xmlns="http://www.w3.org/2000/svg" xmlns:xlink="http://www.w3.org/1999/xlink" contentStyleType="text/css" height="1136px" preserveAspectRatio="none" style="width:1599px;height:1136px;background:#FFFFFF;" version="1.1" viewBox="0 0 1599 1136" width="1599px" zoomAndPan="magnify"><defs/><g><!--cluster org.vorpal.blade.services.keepalive--><g id="cluster_org.vorpal.blade.services.keepalive"><path d="M264.5,590.67 L511.5,590.67 A3.75,3.75 0 0 1 514,593.17 L521,613.1583 L1259.5,613.1583 A2.5,2.5 0 0 1 1262,615.6583 L1262,1108.45 A2.5,2.5 0 0 1 1259.5,1110.95 L264.5,1110.95 A2.5,2.5 0 0 1 262,1108.45 L262,593.17 A2.5,2.5 0 0 1 264.5,590.67 " fill="none" style="stroke:#000000;stroke-width:1.5;"/><line style="stroke:#000000;stroke-width:1.5;" x1="262" x2="521" y1="613.1583" y2="613.1583"/><text fill="#000000" font-family="sans-serif" font-size="14" font-weight="bold" lengthAdjust="spacing" textLength="246" x="266" y="606.2052">org.vorpal.blade.services.keepalive</text></g><!--cluster java.io--><g id="cluster_java.io"><path d="M8.5,236.84 L55.5,236.84 A3.75,3.75 0 0 1 58,239.34 L65,259.3283 L147.5,259.3283 A2.5,2.5 0 0 1 150,261.8283 L150,333.34 A2.5,2.5 0 0 1 147.5,335.84 L8.5,335.84 A2.5,2.5 0 0 1 6,333.34 L6,239.34 A2.5,2.5 0 0 1 8.5,236.84 " fill="none" style="stroke:#000000;stroke-width:1.5;"/><line style="stroke:#000000;stroke-width:1.5;" x1="6" x2="65" y1="259.3283" y2="259.3283"/><text fill="#000000" font-family="sans-serif" font-size="14" font-weight="bold" lengthAdjust="spacing" textLength="46" x="10" y="252.3752">java.io</text></g><!--cluster org.vorpal.blade.framework.b2bua--><g id="cluster_org.vorpal.blade.framework.b2bua"><path d="M176.5,179.13 L419.5,179.13 A3.75,3.75 0 0 1 422,181.63 L429,201.6183 L501.5,201.6183 A2.5,2.5 0 0 1 504,204.1183 L504,391.05 A2.5,2.5 0 0 1 501.5,393.55 L176.5,393.55 A2.5,2.5 0 0 1 174,391.05 L174,181.63 A2.5,2.5 0 0 1 176.5,179.13 " fill="none" style="stroke:#000000;stroke-width:1.5;"/><line style="stroke:#000000;stroke-width:1.5;" x1="174" x2="429" y1="201.6183" y2="201.6183"/><text fill="#000000" font-family="sans-serif" font-size="14" font-weight="bold" lengthAdjust="spacing" textLength="242" x="178" y="194.6652">org.vorpal.blade.framework.b2bua</text></g><!--cluster javax.servlet.sip--><g id="cluster_javax.servlet.sip"><path d="M530.5,203.86 L645.5,203.86 A3.75,3.75 0 0 1 648,206.36 L655,226.3483 L1241.5,226.3483 A2.5,2.5 0 0 1 1244,228.8483 L1244,366.31 A2.5,2.5 0 0 1 1241.5,368.81 L530.5,368.81 A2.5,2.5 0 0 1 528,366.31 L528,206.36 A2.5,2.5 0 0 1 530.5,203.86 " fill="none" style="stroke:#000000;stroke-width:1.5;"/><line style="stroke:#000000;stroke-width:1.5;" x1="528" x2="655" y1="226.3483" y2="226.3483"/><text fill="#000000" font-family="sans-serif" font-size="14" font-weight="bold" lengthAdjust="spacing" textLength="114" x="532" y="219.3952">javax.servlet.sip</text></g><!--cluster org.vorpal.blade.framework.callflow--><g id="cluster_org.vorpal.blade.framework.callflow"><path d="M1270.5,6 L1526.5,6 A3.75,3.75 0 0 1 1529,8.5 L1536,28.4883 L1589.5,28.4883 A2.5,2.5 0 0 1 1592,30.9883 L1592,564.17 A2.5,2.5 0 0 1 1589.5,566.67 L1270.5,566.67 A2.5,2.5 0 0 1 1268,564.17 L1268,8.5 A2.5,2.5 0 0 1 1270.5,6 " fill="none" style="stroke:#000000;stroke-width:1.5;"/><line style="stroke:#000000;stroke-width:1.5;" x1="1268" x2="1536" y1="28.4883" y2="28.4883"/><text fill="#000000" font-family="sans-serif" font-size="14" font-weight="bold" lengthAdjust="spacing" textLength="255" x="1272" y="21.5352">org.vorpal.blade.framework.callflow</text></g><!--class KeepAliveReinvite--><a href="KeepAliveReinvite.html" target="_top" title="KeepAliveReinvite.html" xlink:actuate="onRequest" xlink:href="KeepAliveReinvite.html" xlink:show="new" xlink:title="KeepAliveReinvite.html" xlink:type="simple"><g id="elem_KeepAliveReinvite"><rect codeLine="5" fill="#F1F1F1" height="80.9766" id="KeepAliveReinvite" rx="2.5" ry="2.5" style="stroke:#181818;stroke-width:0.5;" width="193" x="596.5" y="1013.97"/><ellipse cx="629.5" cy="1029.97" fill="#ADD1B2" rx="11" ry="11" style="stroke:#181818;stroke-width:1.0;"/><path d="M631.9731,1036.1131 Q631.3921,1036.4119 630.7529,1036.5613 Q630.1138,1036.7107 629.4082,1036.7107 Q626.9014,1036.7107 625.5815,1035.0589 Q624.2617,1033.407 624.2617,1030.2859 Q624.2617,1027.1565 625.5815,1025.5047 Q626.9014,1023.8528 629.4082,1023.8528 Q630.1138,1023.8528 630.7612,1024.0022 Q631.4087,1024.1516 631.9731,1024.4505 L631.9731,1027.1731 Q631.3423,1026.5921 630.7488,1026.3223 Q630.1553,1026.0525 629.5244,1026.0525 Q628.1797,1026.0525 627.4949,1027.1192 Q626.8101,1028.1858 626.8101,1030.2859 Q626.8101,1032.3777 627.4949,1033.4444 Q628.1797,1034.511 629.5244,1034.511 Q630.1553,1034.511 630.7488,1034.2412 Q631.3423,1033.9715 631.9731,1033.3904 Z " fill="#000000"/><text fill="#000000" font-family="sans-serif" font-size="14" lengthAdjust="spacing" textLength="121" x="647.5" y="1035.261">KeepAliveReinvite</text><line style="stroke:#181818;stroke-width:0.5;" x1="597.5" x2="788.5" y1="1045.97" y2="1045.97"/><rect fill="none" height="6" style="stroke:#C82930;stroke-width:1.0;" width="6" x="604.5" y="1056.7141"/><text fill="#000000" font-family="sans-serif" font-size="14" lengthAdjust="spacing" text-decoration="underline" textLength="152" x="616.5" y="1063.5052">serialVersionUID: long</text><line style="stroke:#181818;stroke-width:0.5;" x1="597.5" x2="788.5" y1="1070.4583" y2="1070.4583"/><ellipse cx="607.5" cy="1084.2024" fill="#84BE84" rx="3" ry="3" style="stroke:#038048;stroke-width:1.0;"/><text fill="#000000" font-family="sans-serif" font-size="14" lengthAdjust="spacing" textLength="167" x="616.5" y="1087.9934">handle(SipSession): void</text></g></a><!--class KeepAliveUpdate--><a href="KeepAliveUpdate.html" target="_top" title="KeepAliveUpdate.html" xlink:actuate="onRequest" xlink:href="KeepAliveUpdate.html" xlink:show="new" xlink:title="KeepAliveUpdate.html" xlink:type="simple"><g id="elem_KeepAliveUpdate"><rect codeLine="10" fill="#F1F1F1" height="80.9766" id="KeepAliveUpdate" rx="2.5" ry="2.5" style="stroke:#181818;stroke-width:0.5;" width="193" x="824.5" y="1013.97"/><ellipse cx="859.75" cy="1029.97" fill="#ADD1B2" rx="11" ry="11" style="stroke:#181818;stroke-width:1.0;"/><path d="M862.2231,1036.1131 Q861.6421,1036.4119 861.0029,1036.5613 Q860.3638,1036.7107 859.6582,1036.7107 Q857.1514,1036.7107 855.8315,1035.0589 Q854.5117,1033.407 854.5117,1030.2859 Q854.5117,1027.1565 855.8315,1025.5047 Q857.1514,1023.8528 859.6582,1023.8528 Q860.3638,1023.8528 861.0112,1024.0022 Q861.6587,1024.1516 862.2231,1024.4505 L862.2231,1027.1731 Q861.5923,1026.5921 860.9988,1026.3223 Q860.4053,1026.0525 859.7744,1026.0525 Q858.4297,1026.0525 857.7449,1027.1192 Q857.0601,1028.1858 857.0601,1030.2859 Q857.0601,1032.3777 857.7449,1033.4444 Q858.4297,1034.511 859.7744,1034.511 Q860.4053,1034.511 860.9988,1034.2412 Q861.5923,1033.9715 862.2231,1033.3904 Z " fill="#000000"/><text fill="#000000" font-family="sans-serif" font-size="14" lengthAdjust="spacing" textLength="116" x="878.25" y="1035.261">KeepAliveUpdate</text><line style="stroke:#181818;stroke-width:0.5;" x1="825.5" x2="1016.5" y1="1045.97" y2="1045.97"/><rect fill="none" height="6" style="stroke:#C82930;stroke-width:1.0;" width="6" x="832.5" y="1056.7141"/><text fill="#000000" font-family="sans-serif" font-size="14" lengthAdjust="spacing" text-decoration="underline" textLength="152" x="844.5" y="1063.5052">serialVersionUID: long</text><line style="stroke:#181818;stroke-width:0.5;" x1="825.5" x2="1016.5" y1="1070.4583" y2="1070.4583"/><ellipse cx="835.5" cy="1084.2024" fill="#84BE84" rx="3" ry="3" style="stroke:#038048;stroke-width:1.0;"/><text fill="#000000" font-family="sans-serif" font-size="14" lengthAdjust="spacing" textLength="167" x="844.5" y="1087.9934">handle(SipSession): void</text></g></a><!--class KeepAliveExpiry--><a href="KeepAliveExpiry.html" target="_top" title="KeepAliveExpiry.html" xlink:actuate="onRequest" xlink:href="KeepAliveExpiry.html" xlink:show="new" xlink:title="KeepAliveExpiry.html" xlink:type="simple"><g id="elem_KeepAliveExpiry"><rect codeLine="15" fill="#F1F1F1" height="80.9766" id="KeepAliveExpiry" rx="2.5" ry="2.5" style="stroke:#181818;stroke-width:0.5;" width="193" x="1052.5" y="1013.97"/><ellipse cx="1090.45" cy="1029.97" fill="#ADD1B2" rx="11" ry="11" style="stroke:#181818;stroke-width:1.0;"/><path d="M1092.9231,1036.1131 Q1092.3421,1036.4119 1091.7029,1036.5613 Q1091.0638,1036.7107 1090.3582,1036.7107 Q1087.8514,1036.7107 1086.5315,1035.0589 Q1085.2117,1033.407 1085.2117,1030.2859 Q1085.2117,1027.1565 1086.5315,1025.5047 Q1087.8514,1023.8528 1090.3582,1023.8528 Q1091.0638,1023.8528 1091.7112,1024.0022 Q1092.3587,1024.1516 1092.9231,1024.4505 L1092.9231,1027.1731 Q1092.2923,1026.5921 1091.6988,1026.3223 Q1091.1053,1026.0525 1090.4744,1026.0525 Q1089.1297,1026.0525 1088.4449,1027.1192 Q1087.7601,1028.1858 1087.7601,1030.2859 Q1087.7601,1032.3777 1088.4449,1033.4444 Q1089.1297,1034.511 1090.4744,1034.511 Q1091.1053,1034.511 1091.6988,1034.2412 Q1092.2923,1033.9715 1092.9231,1033.3904 Z " fill="#000000"/><text fill="#000000" font-family="sans-serif" font-size="14" lengthAdjust="spacing" textLength="110" x="1109.55" y="1035.261">KeepAliveExpiry</text><line style="stroke:#181818;stroke-width:0.5;" x1="1053.5" x2="1244.5" y1="1045.97" y2="1045.97"/><rect fill="none" height="6" style="stroke:#C82930;stroke-width:1.0;" width="6" x="1060.5" y="1056.7141"/><text fill="#000000" font-family="sans-serif" font-size="14" lengthAdjust="spacing" text-decoration="underline" textLength="152" x="1072.5" y="1063.5052">serialVersionUID: long</text><line style="stroke:#181818;stroke-width:0.5;" x1="1053.5" x2="1244.5" y1="1070.4583" y2="1070.4583"/><ellipse cx="1063.5" cy="1084.2024" fill="#84BE84" rx="3" ry="3" style="stroke:#038048;stroke-width:1.0;"/><text fill="#000000" font-family="sans-serif" font-size="14" lengthAdjust="spacing" textLength="167" x="1072.5" y="1087.9934">handle(SipSession): void</text></g></a><!--class KeepAliveConfig--><a href="KeepAliveConfig.html" target="_top" title="KeepAliveConfig.html" xlink:actuate="onRequest" xlink:href="KeepAliveConfig.html" xlink:show="new" xlink:title="KeepAliveConfig.html" xlink:type="simple"><g id="elem_KeepAliveConfig"><rect codeLine="20" fill="#F1F1F1" height="163.418" id="KeepAliveConfig" rx="2.5" ry="2.5" style="stroke:#181818;stroke-width:0.5;" width="214" x="278" y="708.11"/><ellipse cx="324.25" cy="724.11" fill="#ADD1B2" rx="11" ry="11" style="stroke:#181818;stroke-width:1.0;"/><path d="M326.7231,730.2531 Q326.1421,730.5519 325.5029,730.7013 Q324.8638,730.8507 324.1582,730.8507 Q321.6514,730.8507 320.3315,729.1989 Q319.0117,727.547 319.0117,724.4259 Q319.0117,721.2965 320.3315,719.6447 Q321.6514,717.9928 324.1582,717.9928 Q324.8638,717.9928 325.5112,718.1422 Q326.1587,718.2916 326.7231,718.5905 L326.7231,721.3131 Q326.0923,720.7321 325.4988,720.4623 Q324.9053,720.1925 324.2744,720.1925 Q322.9297,720.1925 322.2449,721.2592 Q321.5601,722.3258 321.5601,724.4259 Q321.5601,726.5177 322.2449,727.5844 Q322.9297,728.651 324.2744,728.651 Q324.9053,728.651 325.4988,728.3812 Q326.0923,728.1115 326.7231,727.5304 Z " fill="#000000"/><text fill="#000000" font-family="sans-serif" font-size="14" lengthAdjust="spacing" textLength="113" x="344.75" y="729.401">KeepAliveConfig</text><line style="stroke:#181818;stroke-width:0.5;" x1="279" x2="491" y1="740.11" y2="740.11"/><rect fill="none" height="6" style="stroke:#C82930;stroke-width:1.0;" width="6" x="286" y="750.8541"/><text fill="#000000" font-family="sans-serif" font-size="14" lengthAdjust="spacing" text-decoration="underline" textLength="152" x="298" y="757.6452">serialVersionUID: long</text><rect fill="none" height="6" style="stroke:#C82930;stroke-width:1.0;" width="6" x="286" y="767.3424"/><text fill="#000000" font-family="sans-serif" font-size="14" lengthAdjust="spacing" textLength="128" x="298" y="774.1334">sessionExpires: int</text><rect fill="none" height="6" style="stroke:#C82930;stroke-width:1.0;" width="6" x="286" y="783.8307"/><text fill="#000000" font-family="sans-serif" font-size="14" lengthAdjust="spacing" textLength="68" x="298" y="790.6217">minSE: int</text><line style="stroke:#181818;stroke-width:0.5;" x1="279" x2="491" y1="797.5748" y2="797.5748"/><ellipse cx="289" cy="811.319" fill="#84BE84" rx="3" ry="3" style="stroke:#038048;stroke-width:1.0;"/><text fill="#000000" font-family="sans-serif" font-size="14" lengthAdjust="spacing" textLength="161" x="298" y="815.11">getSessionExpires(): int</text><ellipse cx="289" cy="827.8073" fill="#84BE84" rx="3" ry="3" style="stroke:#038048;stroke-width:1.0;"/><text fill="#000000" font-family="sans-serif" font-size="14" lengthAdjust="spacing" textLength="188" x="298" y="831.5983">setSessionExpires(int): void</text><ellipse cx="289" cy="844.2955" fill="#84BE84" rx="3" ry="3" style="stroke:#038048;stroke-width:1.0;"/><text fill="#000000" font-family="sans-serif" font-size="14" lengthAdjust="spacing" textLength="99" x="298" y="848.0866">getMinSE(): int</text><ellipse cx="289" cy="860.7838" fill="#84BE84" rx="3" ry="3" style="stroke:#038048;stroke-width:1.0;"/><text fill="#000000" font-family="sans-serif" font-size="14" lengthAdjust="spacing" textLength="126" x="298" y="864.5748">setMinSE(int): void</text></g></a><!--class KeepAliveServlet--><a href="KeepAliveServlet.html" target="_top" title="KeepAliveServlet.html" xlink:actuate="onRequest" xlink:href="KeepAliveServlet.html" xlink:show="new" xlink:title="KeepAliveServlet.html" xlink:type="simple"><g id="elem_KeepAliveServlet"><rect codeLine="30" fill="#F1F1F1" height="328.3008" id="KeepAliveServlet" rx="2.5" ry="2.5" style="stroke:#181818;stroke-width:0.5;" width="437" x="526.5" y="625.67"/><ellipse cx="684.25" cy="641.67" fill="#ADD1B2" rx="11" ry="11" style="stroke:#181818;stroke-width:1.0;"/><path d="M686.7231,647.8131 Q686.1421,648.1119 685.5029,648.2613 Q684.8638,648.4107 684.1582,648.4107 Q681.6514,648.4107 680.3315,646.7589 Q679.0117,645.107 679.0117,641.9859 Q679.0117,638.8565 680.3315,637.2047 Q681.6514,635.5528 684.1582,635.5528 Q684.8638,635.5528 685.5112,635.7022 Q686.1587,635.8516 686.7231,636.1505 L686.7231,638.8731 Q686.0923,638.2921 685.4988,638.0223 Q684.9053,637.7525 684.2744,637.7525 Q682.9297,637.7525 682.2449,638.8192 Q681.5601,639.8858 681.5601,641.9859 Q681.5601,644.0777 682.2449,645.1444 Q682.9297,646.211 684.2744,646.211 Q684.9053,646.211 685.4988,645.9412 Q686.0923,645.6715 686.7231,645.0904 Z " fill="#000000"/><text fill="#000000" font-family="sans-serif" font-size="14" lengthAdjust="spacing" textLength="113" x="704.75" y="646.961">KeepAliveServlet</text><line style="stroke:#181818;stroke-width:0.5;" x1="527.5" x2="962.5" y1="657.67" y2="657.67"/><rect fill="none" height="6" style="stroke:#C82930;stroke-width:1.0;" width="6" x="534.5" y="668.4141"/><text fill="#000000" font-family="sans-serif" font-size="14" lengthAdjust="spacing" text-decoration="underline" textLength="152" x="546.5" y="675.2052">serialVersionUID: long</text><ellipse cx="537.5" cy="687.9024" fill="none" rx="3" ry="3" style="stroke:#038048;stroke-width:1.0;"/><text fill="#000000" font-family="sans-serif" font-size="14" lengthAdjust="spacing" text-decoration="underline" textLength="372" x="546.5" y="691.6934">settingsManager: SettingsManager&lt;KeepAliveConfig&gt;</text><rect fill="none" height="6" style="stroke:#C82930;stroke-width:1.0;" width="6" x="534.5" y="701.3907"/><text fill="#000000" font-family="sans-serif" font-size="14" lengthAdjust="spacing" text-decoration="underline" textLength="166" x="546.5" y="708.1817">ALLOWS_UPDATE: String</text><rect fill="none" height="6" style="stroke:#C82930;stroke-width:1.0;" width="6" x="534.5" y="717.879"/><text fill="#000000" font-family="sans-serif" font-size="14" lengthAdjust="spacing" text-decoration="underline" textLength="87" x="546.5" y="724.67">Allow: String</text><rect fill="none" height="6" style="stroke:#C82930;stroke-width:1.0;" width="6" x="534.5" y="734.3673"/><text fill="#000000" font-family="sans-serif" font-size="14" lengthAdjust="spacing" text-decoration="underline" textLength="107" x="546.5" y="741.1583">UPDATE: Object</text><line style="stroke:#181818;stroke-width:0.5;" x1="527.5" x2="962.5" y1="748.1114" y2="748.1114"/><ellipse cx="537.5" cy="761.8555" fill="#84BE84" rx="3" ry="3" style="stroke:#038048;stroke-width:1.0;"/><text fill="#000000" font-family="sans-serif" font-size="14" lengthAdjust="spacing" textLength="305" x="546.5" y="765.6466">servletCreated(SipServletContextEvent): void</text><ellipse cx="537.5" cy="778.3438" fill="#84BE84" rx="3" ry="3" style="stroke:#038048;stroke-width:1.0;"/><text fill="#000000" font-family="sans-serif" font-size="14" lengthAdjust="spacing" textLength="320" x="546.5" y="782.1348">servletDestroyed(SipServletContextEvent): void</text><ellipse cx="537.5" cy="794.8321" fill="#84BE84" rx="3" ry="3" style="stroke:#038048;stroke-width:1.0;"/><text fill="#000000" font-family="sans-serif" font-size="14" lengthAdjust="spacing" textLength="241" x="546.5" y="798.6231">callStarted(SipServletRequest): void</text><ellipse cx="537.5" cy="811.3204" fill="#84BE84" rx="3" ry="3" style="stroke:#038048;stroke-width:1.0;"/><text fill="#000000" font-family="sans-serif" font-size="14" lengthAdjust="spacing" textLength="271" x="546.5" y="815.1114">callAnswered(SipServletResponse): void</text><ellipse cx="537.5" cy="827.8087" fill="#84BE84" rx="3" ry="3" style="stroke:#038048;stroke-width:1.0;"/><text fill="#000000" font-family="sans-serif" font-size="14" lengthAdjust="spacing" textLength="266" x="546.5" y="831.5997">callConnected(SipServletRequest): void</text><ellipse cx="537.5" cy="844.297" fill="#84BE84" rx="3" ry="3" style="stroke:#038048;stroke-width:1.0;"/><text fill="#000000" font-family="sans-serif" font-size="14" lengthAdjust="spacing" textLength="267" x="546.5" y="848.088">callCompleted(SipServletRequest): void</text><ellipse cx="537.5" cy="860.7852" fill="#84BE84" rx="3" ry="3" style="stroke:#038048;stroke-width:1.0;"/><text fill="#000000" font-family="sans-serif" font-size="14" lengthAdjust="spacing" textLength="262" x="546.5" y="864.5763">callDeclined(SipServletResponse): void</text><ellipse cx="537.5" cy="877.2735" fill="#84BE84" rx="3" ry="3" style="stroke:#038048;stroke-width:1.0;"/><text fill="#000000" font-family="sans-serif" font-size="14" lengthAdjust="spacing" textLength="272" x="546.5" y="881.0645">callAbandoned(SipServletRequest): void</text><ellipse cx="537.5" cy="893.7618" fill="#84BE84" rx="3" ry="3" style="stroke:#038048;stroke-width:1.0;"/><text fill="#000000" font-family="sans-serif" font-size="14" lengthAdjust="spacing" textLength="340" x="546.5" y="897.5528">sessionCreated(SipApplicationSessionEvent): void</text><ellipse cx="537.5" cy="910.2501" fill="#84BE84" rx="3" ry="3" style="stroke:#038048;stroke-width:1.0;"/><text fill="#000000" font-family="sans-serif" font-size="14" lengthAdjust="spacing" textLength="355" x="546.5" y="914.0411">sessionDestroyed(SipApplicationSessionEvent): void</text><ellipse cx="537.5" cy="926.7384" fill="#84BE84" rx="3" ry="3" style="stroke:#038048;stroke-width:1.0;"/><text fill="#000000" font-family="sans-serif" font-size="14" lengthAdjust="spacing" textLength="339" x="546.5" y="930.5294">sessionExpired(SipApplicationSessionEvent): void</text><ellipse cx="537.5" cy="943.2266" fill="#84BE84" rx="3" ry="3" style="stroke:#038048;stroke-width:1.0;"/><text fill="#000000" font-family="sans-serif" font-size="14" lengthAdjust="spacing" textLength="411" x="546.5" y="947.0177">sessionReadyToInvalidate(SipApplicationSessionEvent): void</text></g></a><!--class KeepAliveCallflow--><a href="KeepAliveCallflow.html" target="_top" title="KeepAliveCallflow.html" xlink:actuate="onRequest" xlink:href="KeepAliveCallflow.html" xlink:show="new" xlink:title="KeepAliveCallflow.html" xlink:type="simple"><g id="elem_KeepAliveCallflow"><rect codeLine="50" fill="#F1F1F1" height="97.4648" id="KeepAliveCallflow" rx="2.5" ry="2.5" style="stroke:#181818;stroke-width:0.5;" width="248" x="998" y="741.09"/><ellipse cx="1056.75" cy="757.09" fill="#A9DCDF" rx="11" ry="11" style="stroke:#181818;stroke-width:1.0;"/><path d="M1056.6133,752.4381 L1055.4595,757.5099 L1057.7754,757.5099 Z M1055.1191,750.1969 L1058.1157,750.1969 L1061.4609,762.59 L1059.0122,762.59 L1058.2485,759.527 L1054.9697,759.527 L1054.2227,762.59 L1051.7739,762.59 Z " fill="#000000"/><text fill="#000000" font-family="sans-serif" font-size="14" font-style="italic" lengthAdjust="spacing" textLength="122" x="1077.25" y="762.381">KeepAliveCallflow</text><line style="stroke:#181818;stroke-width:0.5;" x1="999" x2="1245" y1="773.09" y2="773.09"/><rect fill="none" height="6" style="stroke:#C82930;stroke-width:1.0;" width="6" x="1006" y="783.8341"/><text fill="#000000" font-family="sans-serif" font-size="14" lengthAdjust="spacing" text-decoration="underline" textLength="152" x="1018" y="790.6252">serialVersionUID: long</text><line style="stroke:#181818;stroke-width:0.5;" x1="999" x2="1245" y1="797.5783" y2="797.5783"/><ellipse cx="1009" cy="811.3224" fill="#84BE84" rx="3" ry="3" style="stroke:#038048;stroke-width:1.0;"/><text fill="#000000" font-family="sans-serif" font-size="14" lengthAdjust="spacing" textLength="222" x="1018" y="815.1134">process(SipServletRequest): void</text><ellipse cx="1009" cy="827.8107" fill="#84BE84" rx="3" ry="3" style="stroke:#038048;stroke-width:1.0;"/><text fill="#000000" font-family="sans-serif" font-size="14" font-style="italic" lengthAdjust="spacing" textLength="167" x="1018" y="831.6017">handle(SipSession): void</text></g></a><!--class Serializable--><a href="https://docs.oracle.com/en/java/javase/11/docs/api/java.base/java/io/Serializable.html?is-external=true" target="_top" title="https://docs.oracle.com/en/java/javase/11/docs/api/java.base/java/io/Serializable.html?is-external=true" xlink:actuate="onRequest" xlink:href="https://docs.oracle.com/en/java/javase/11/docs/api/java.base/java/io/Serializable.html?is-external=true" xlink:show="new" xlink:title="https://docs.oracle.com/en/java/javase/11/docs/api/java.base/java/io/Serializable.html?is-external=true" xlink:type="simple"><g id="elem_Serializable"><rect codeLine="59" fill="#F1F1F1" height="48" id="Serializable" rx="2.5" ry="2.5" style="stroke:#181818;stroke-width:0.5;" width="111" x="22.5" y="271.84"/><ellipse cx="37.5" cy="287.84" fill="#B4A7E5" rx="11" ry="11" style="stroke:#181818;stroke-width:1.0;"/><path d="M33.9277,284.1051 L33.9277,281.9469 L41.3071,281.9469 L41.3071,284.1051 L38.8418,284.1051 L38.8418,292.1818 L41.3071,292.1818 L41.3071,294.34 L33.9277,294.34 L33.9277,292.1818 L36.3931,292.1818 L36.3931,284.1051 Z " fill="#000000"/><text fill="#000000" font-family="sans-serif" font-size="14" font-style="italic" lengthAdjust="spacing" textLength="79" x="51.5" y="293.131">Serializable</text><line style="stroke:#181818;stroke-width:0.5;" x1="23.5" x2="132.5" y1="303.84" y2="303.84"/><line style="stroke:#181818;stroke-width:0.5;" x1="23.5" x2="132.5" y1="311.84" y2="311.84"/></g></a><!--class B2buaServlet--><g id="elem_B2buaServlet"><rect codeLine="63" fill="#F1F1F1" height="163.418" id="B2buaServlet" rx="2.5" ry="2.5" style="stroke:#181818;stroke-width:0.5;" width="298" x="190" y="214.13"/><ellipse cx="290.25" cy="230.13" fill="#A9DCDF" rx="11" ry="11" style="stroke:#181818;stroke-width:1.0;"/><path d="M290.1133,225.4781 L288.9595,230.5499 L291.2754,230.5499 Z M288.6191,223.2369 L291.6157,223.2369 L294.9609,235.63 L292.5122,235.63 L291.7485,232.567 L288.4697,232.567 L287.7227,235.63 L285.2739,235.63 Z " fill="#000000"/><text fill="#000000" font-family="sans-serif" font-size="14" font-style="italic" lengthAdjust="spacing" textLength="89" x="310.75" y="235.421">B2buaServlet</text><line style="stroke:#181818;stroke-width:0.5;" x1="191" x2="487" y1="246.13" y2="246.13"/><rect fill="none" height="6" style="stroke:#C82930;stroke-width:1.0;" width="6" x="198" y="256.8741"/><text fill="#000000" font-family="sans-serif" font-size="14" lengthAdjust="spacing" text-decoration="underline" textLength="152" x="210" y="263.6652">serialVersionUID: long</text><line style="stroke:#181818;stroke-width:0.5;" x1="191" x2="487" y1="270.6183" y2="270.6183"/><ellipse cx="201" cy="284.3624" fill="#84BE84" rx="3" ry="3" style="stroke:#038048;stroke-width:1.0;"/><text fill="#000000" font-family="sans-serif" font-size="14" font-style="italic" lengthAdjust="spacing" textLength="241" x="210" y="288.1534">callStarted(SipServletRequest): void</text><ellipse cx="201" cy="300.8507" fill="#84BE84" rx="3" ry="3" style="stroke:#038048;stroke-width:1.0;"/><text fill="#000000" font-family="sans-serif" font-size="14" font-style="italic" lengthAdjust="spacing" textLength="271" x="210" y="304.6417">callAnswered(SipServletResponse): void</text><ellipse cx="201" cy="317.339" fill="#84BE84" rx="3" ry="3" style="stroke:#038048;stroke-width:1.0;"/><text fill="#000000" font-family="sans-serif" font-size="14" font-style="italic" lengthAdjust="spacing" textLength="266" x="210" y="321.13">callConnected(SipServletRequest): void</text><ellipse cx="201" cy="333.8273" fill="#84BE84" rx="3" ry="3" style="stroke:#038048;stroke-width:1.0;"/><text fill="#000000" font-family="sans-serif" font-size="14" font-style="italic" lengthAdjust="spacing" textLength="267" x="210" y="337.6183">callCompleted(SipServletRequest): void</text><ellipse cx="201" cy="350.3155" fill="#84BE84" rx="3" ry="3" style="stroke:#038048;stroke-width:1.0;"/><text fill="#000000" font-family="sans-serif" font-size="14" font-style="italic" lengthAdjust="spacing" textLength="262" x="210" y="354.1066">callDeclined(SipServletResponse): void</text><ellipse cx="201" cy="366.8038" fill="#84BE84" rx="3" ry="3" style="stroke:#038048;stroke-width:1.0;"/><text fill="#000000" font-family="sans-serif" font-size="14" font-style="italic" lengthAdjust="spacing" textLength="272" x="210" y="370.5948">callAbandoned(SipServletRequest): void</text></g><!--class SipApplicationSessionListener--><a href="https://vorpalnet.github.io/jsr359/javax/servlet/sip/SipApplicationSessionListener.html?is-external=true" target="_top" title="https://vorpalnet.github.io/jsr359/javax/servlet/sip/SipApplicationSessionListener.html?is-external=true" xlink:actuate="onRequest" xlink:href="https://vorpalnet.github.io/jsr359/javax/servlet/sip/SipApplicationSessionListener.html?is-external=true" xlink:show="new" xlink:title="https://vorpalnet.github.io/jsr359/javax/servlet/sip/SipApplicationSessionListener.html?is-external=true" xlink:type="simple"><g id="elem_SipApplicationSessionListener"><rect codeLine="75" fill="#F1F1F1" height="113.9531" id="SipApplicationSessionListener" rx="2.5" ry="2.5" style="stroke:#181818;stroke-width:0.5;" width="437" x="543.5" y="238.86"/><ellipse cx="655.25" cy="254.86" fill="#B4A7E5" rx="11" ry="11" style="stroke:#181818;stroke-width:1.0;"/><path d="M651.6777,251.1251 L651.6777,248.9669 L659.0571,248.9669 L659.0571,251.1251 L656.5918,251.1251 L656.5918,259.2018 L659.0571,259.2018 L659.0571,261.36 L651.6777,261.36 L651.6777,259.2018 L654.1431,259.2018 L654.1431,251.1251 Z " fill="#000000"/><text fill="#000000" font-family="sans-serif" font-size="14" font-style="italic" lengthAdjust="spacing" textLength="205" x="675.75" y="260.151">SipApplicationSessionListener</text><line style="stroke:#181818;stroke-width:0.5;" x1="544.5" x2="979.5" y1="270.86" y2="270.86"/><line style="stroke:#181818;stroke-width:0.5;" x1="544.5" x2="979.5" y1="278.86" y2="278.86"/><ellipse cx="554.5" cy="292.6041" fill="#84BE84" rx="3" ry="3" style="stroke:#038048;stroke-width:1.0;"/><text fill="#000000" font-family="sans-serif" font-size="14" font-style="italic" lengthAdjust="spacing" textLength="340" x="563.5" y="296.3952">sessionCreated(SipApplicationSessionEvent): void</text><ellipse cx="554.5" cy="309.0924" fill="#84BE84" rx="3" ry="3" style="stroke:#038048;stroke-width:1.0;"/><text fill="#000000" font-family="sans-serif" font-size="14" font-style="italic" lengthAdjust="spacing" textLength="355" x="563.5" y="312.8834">sessionDestroyed(SipApplicationSessionEvent): void</text><ellipse cx="554.5" cy="325.5807" fill="#84BE84" rx="3" ry="3" style="stroke:#038048;stroke-width:1.0;"/><text fill="#000000" font-family="sans-serif" font-size="14" font-style="italic" lengthAdjust="spacing" textLength="339" x="563.5" y="329.3717">sessionExpired(SipApplicationSessionEvent): void</text><ellipse cx="554.5" cy="342.069" fill="#84BE84" rx="3" ry="3" style="stroke:#038048;stroke-width:1.0;"/><text fill="#000000" font-family="sans-serif" font-size="14" font-style="italic" lengthAdjust="spacing" textLength="411" x="563.5" y="345.86">sessionReadyToInvalidate(SipApplicationSessionEvent): void</text></g></a><!--class SessionKeepAlive.Callback--><a href="https://vorpalnet.github.io/jsr359/javax/servlet/sip/SessionKeepAlive.Callback.html?is-external=true" target="_top" title="https://vorpalnet.github.io/jsr359/javax/servlet/sip/SessionKeepAlive.Callback.html?is-external=true" xlink:actuate="onRequest" xlink:href="https://vorpalnet.github.io/jsr359/javax/servlet/sip/SessionKeepAlive.Callback.html?is-external=true" xlink:show="new" xlink:title="https://vorpalnet.github.io/jsr359/javax/servlet/sip/SessionKeepAlive.Callback.html?is-external=true" xlink:type="simple"><g id="elem_SessionKeepAlive.Callback"><rect codeLine="81" fill="#F1F1F1" height="64.4883" id="SessionKeepAlive.Callback" rx="2.5" ry="2.5" style="stroke:#181818;stroke-width:0.5;" width="213" x="1015.5" y="263.59"/><ellipse cx="1030.5" cy="279.59" fill="#B4A7E5" rx="11" ry="11" style="stroke:#181818;stroke-width:1.0;"/><path d="M1026.9277,275.8551 L1026.9277,273.6969 L1034.3071,273.6969 L1034.3071,275.8551 L1031.8418,275.8551 L1031.8418,283.9318 L1034.3071,283.9318 L1034.3071,286.09 L1026.9277,286.09 L1026.9277,283.9318 L1029.3931,283.9318 L1029.3931,275.8551 Z " fill="#000000"/><text fill="#000000" font-family="sans-serif" font-size="14" font-style="italic" lengthAdjust="spacing" textLength="181" x="1044.5" y="284.881">SessionKeepAlive.Callback</text><line style="stroke:#181818;stroke-width:0.5;" x1="1016.5" x2="1227.5" y1="295.59" y2="295.59"/><line style="stroke:#181818;stroke-width:0.5;" x1="1016.5" x2="1227.5" y1="303.59" y2="303.59"/><ellipse cx="1026.5" cy="317.3341" fill="#84BE84" rx="3" ry="3" style="stroke:#038048;stroke-width:1.0;"/><text fill="#000000" font-family="sans-serif" font-size="14" font-style="italic" lengthAdjust="spacing" textLength="167" x="1035.5" y="321.1252">handle(SipSession): void</text></g></a><!--class Callflow--><a href="https://vorpalnet.github.io/blade/vorpal-blade-library-framework/org/vorpal/blade/framework/callflow/Callflow.html?is-external=true" target="_top" title="https://vorpalnet.github.io/blade/vorpal-blade-library-framework/org/vorpal/blade/framework/callflow/Callflow.html?is-external=true" xlink:actuate="onRequest" xlink:href="https://vorpalnet.github.io/blade/vorpal-blade-library-framework/org/vorpal/blade/framework/callflow/Callflow.html?is-external=true" xlink:show="new" xlink:title="https://vorpalnet.github.io/blade/vorpal-blade-library-framework/org/vorpal/blade/framework/callflow/Callflow.html?is-external=true" xlink:type="simple"><g id="elem_Callflow"><rect codeLine="87" fill="#F1F1F1" height="509.6719" id="Callflow" rx="2.5" ry="2.5" style="stroke:#181818;stroke-width:0.5;" width="291" x="1284.5" y="41"/><ellipse cx="1398.25" cy="57" fill="#A9DCDF" rx="11" ry="11" style="stroke:#181818;stroke-width:1.0;"/><path d="M1398.1133,52.3481 L1396.9595,57.4199 L1399.2754,57.4199 Z M1396.6191,50.1069 L1399.6157,50.1069 L1402.9609,62.5 L1400.5122,62.5 L1399.7485,59.437 L1396.4697,59.437 L1395.7227,62.5 L1393.2739,62.5 Z " fill="#000000"/><text fill="#000000" font-family="sans-serif" font-size="14" font-style="italic" lengthAdjust="spacing" textLength="55" x="1418.75" y="62.291">Callflow</text><line style="stroke:#181818;stroke-width:0.5;" x1="1285.5" x2="1574.5" y1="73" y2="73"/><rect fill="none" height="6" style="stroke:#C82930;stroke-width:1.0;" width="6" x="1292.5" y="83.7441"/><text fill="#000000" font-family="sans-serif" font-size="14" lengthAdjust="spacing" text-decoration="underline" textLength="152" x="1304.5" y="90.5352">serialVersionUID: long</text><polygon fill="none" points="1295.5,98.2324,1299.5,102.2324,1295.5,106.2324,1291.5,102.2324" style="stroke:#B38D22;stroke-width:1.0;"/><text fill="#000000" font-family="sans-serif" font-size="14" lengthAdjust="spacing" text-decoration="underline" textLength="149" x="1304.5" y="107.0234">sipFactory: SipFactory</text><polygon fill="none" points="1295.5,114.7207,1299.5,118.7207,1295.5,122.7207,1291.5,118.7207" style="stroke:#B38D22;stroke-width:1.0;"/><text fill="#000000" font-family="sans-serif" font-size="14" lengthAdjust="spacing" text-decoration="underline" textLength="154" x="1304.5" y="123.5117">sipUtil: SipSessionsUtil</text><polygon fill="none" points="1295.5,131.209,1299.5,135.209,1295.5,139.209,1291.5,135.209" style="stroke:#B38D22;stroke-width:1.0;"/><text fill="#000000" font-family="sans-serif" font-size="14" lengthAdjust="spacing" text-decoration="underline" textLength="180" x="1304.5" y="140">timerService: TimerService</text><polygon fill="none" points="1295.5,147.6973,1299.5,151.6973,1295.5,155.6973,1291.5,151.6973" style="stroke:#B38D22;stroke-width:1.0;"/><text fill="#000000" font-family="sans-serif" font-size="14" lengthAdjust="spacing" text-decoration="underline" textLength="124" x="1304.5" y="156.4883">sipLogger: Logger</text><polygon fill="none" points="1295.5,164.1855,1299.5,168.1855,1295.5,172.1855,1291.5,168.1855" style="stroke:#B38D22;stroke-width:1.0;"/><text fill="#000000" font-family="sans-serif" font-size="14" lengthAdjust="spacing" text-decoration="underline" textLength="265" x="1304.5" y="172.9766">sessionParameters: SessionParameters</text><polygon fill="none" points="1295.5,180.6738,1299.5,184.6738,1295.5,188.6738,1291.5,184.6738" style="stroke:#B38D22;stroke-width:1.0;"/><text fill="#000000" font-family="sans-serif" font-size="14" lengthAdjust="spacing" text-decoration="underline" textLength="93" x="1304.5" y="189.4648">INVITE: String</text><polygon fill="none" points="1295.5,197.1621,1299.5,201.1621,1295.5,205.1621,1291.5,201.1621" style="stroke:#B38D22;stroke-width:1.0;"/><text fill="#000000" font-family="sans-serif" font-size="14" lengthAdjust="spacing" text-decoration="underline" textLength="78" x="1304.5" y="205.9531">ACK: String</text><polygon fill="none" points="1295.5,213.6504,1299.5,217.6504,1295.5,221.6504,1291.5,217.6504" style="stroke:#B38D22;stroke-width:1.0;"/><text fill="#000000" font-family="sans-serif" font-size="14" lengthAdjust="spacing" text-decoration="underline" textLength="74" x="1304.5" y="222.4414">BYE: String</text><polygon fill="none" points="1295.5,230.1387,1299.5,234.1387,1295.5,238.1387,1291.5,234.1387" style="stroke:#B38D22;stroke-width:1.0;"/><text fill="#000000" font-family="sans-serif" font-size="14" lengthAdjust="spacing" text-decoration="underline" textLength="104" x="1304.5" y="238.9297">CANCEL: String</text><polygon fill="none" points="1295.5,246.627,1299.5,250.627,1295.5,254.627,1291.5,250.627" style="stroke:#B38D22;stroke-width:1.0;"/><text fill="#000000" font-family="sans-serif" font-size="14" lengthAdjust="spacing" text-decoration="underline" textLength="114" x="1304.5" y="255.418">REGISTER: String</text><polygon fill="none" points="1295.5,263.1152,1299.5,267.1152,1295.5,271.1152,1291.5,267.1152" style="stroke:#B38D22;stroke-width:1.0;"/><text fill="#000000" font-family="sans-serif" font-size="14" lengthAdjust="spacing" text-decoration="underline" textLength="110" x="1304.5" y="271.9063">OPTIONS: String</text><polygon fill="none" points="1295.5,279.6035,1299.5,283.6035,1295.5,287.6035,1291.5,283.6035" style="stroke:#B38D22;stroke-width:1.0;"/><text fill="#000000" font-family="sans-serif" font-size="14" lengthAdjust="spacing" text-decoration="underline" textLength="95" x="1304.5" y="288.3945">PRACK: String</text><polygon fill="none" points="1295.5,296.0918,1299.5,300.0918,1295.5,304.0918,1291.5,300.0918" style="stroke:#B38D22;stroke-width:1.0;"/><text fill="#000000" font-family="sans-serif" font-size="14" lengthAdjust="spacing" text-decoration="underline" textLength="122" x="1304.5" y="304.8828">SUBSCRIBE: String</text><polygon fill="none" points="1295.5,312.5801,1299.5,316.5801,1295.5,320.5801,1291.5,316.5801" style="stroke:#B38D22;stroke-width:1.0;"/><text fill="#000000" font-family="sans-serif" font-size="14" lengthAdjust="spacing" text-decoration="underline" textLength="100" x="1304.5" y="321.3711">NOTIFY: String</text><polygon fill="none" points="1295.5,329.0684,1299.5,333.0684,1295.5,337.0684,1291.5,333.0684" style="stroke:#B38D22;stroke-width:1.0;"/><text fill="#000000" font-family="sans-serif" font-size="14" lengthAdjust="spacing" text-decoration="underline" textLength="104" x="1304.5" y="337.8594">PUBLISH: String</text><polygon fill="none" points="1295.5,345.5566,1299.5,349.5566,1295.5,353.5566,1291.5,349.5566" style="stroke:#B38D22;stroke-width:1.0;"/><text fill="#000000" font-family="sans-serif" font-size="14" lengthAdjust="spacing" text-decoration="underline" textLength="82" x="1304.5" y="354.3477">INFO: String</text><polygon fill="none" points="1295.5,362.0449,1299.5,366.0449,1295.5,370.0449,1291.5,366.0449" style="stroke:#B38D22;stroke-width:1.0;"/><text fill="#000000" font-family="sans-serif" font-size="14" lengthAdjust="spacing" text-decoration="underline" textLength="104" x="1304.5" y="370.8359">UPDATE: String</text><polygon fill="none" points="1295.5,378.5332,1299.5,382.5332,1295.5,386.5332,1291.5,382.5332" style="stroke:#B38D22;stroke-width:1.0;"/><text fill="#000000" font-family="sans-serif" font-size="14" lengthAdjust="spacing" text-decoration="underline" textLength="91" x="1304.5" y="387.3242">REFER: String</text><polygon fill="none" points="1295.5,395.0215,1299.5,399.0215,1295.5,403.0215,1291.5,399.0215" style="stroke:#B38D22;stroke-width:1.0;"/><text fill="#000000" font-family="sans-serif" font-size="14" lengthAdjust="spacing" text-decoration="underline" textLength="69" x="1304.5" y="403.8125">SIP: String</text><polygon fill="none" points="1295.5,411.5098,1299.5,415.5098,1295.5,419.5098,1291.5,415.5098" style="stroke:#B38D22;stroke-width:1.0;"/><text fill="#000000" font-family="sans-serif" font-size="14" lengthAdjust="spacing" text-decoration="underline" textLength="102" x="1304.5" y="420.3008">Contact: String</text><polygon fill="none" points="1295.5,427.998,1299.5,431.998,1295.5,435.998,1291.5,431.998" style="stroke:#B38D22;stroke-width:1.0;"/><text fill="#000000" font-family="sans-serif" font-size="14" lengthAdjust="spacing" text-decoration="underline" textLength="110" x="1304.5" y="436.7891">RELIABLE: String</text><polygon fill="none" points="1295.5,444.4863,1299.5,448.4863,1295.5,452.4863,1291.5,448.4863" style="stroke:#B38D22;stroke-width:1.0;"/><text fill="#000000" font-family="sans-serif" font-size="14" lengthAdjust="spacing" text-decoration="underline" textLength="197" x="1304.5" y="453.2773">REQUEST_CALLBACK_: String</text><polygon fill="none" points="1295.5,460.9746,1299.5,464.9746,1295.5,468.9746,1291.5,464.9746" style="stroke:#B38D22;stroke-width:1.0;"/><text fill="#000000" font-family="sans-serif" font-size="14" lengthAdjust="spacing" text-decoration="underline" textLength="204" x="1304.5" y="469.7656">RESPONSE_CALLBACK_: String</text><polygon fill="none" points="1295.5,477.4629,1299.5,481.4629,1295.5,485.4629,1291.5,481.4629" style="stroke:#B38D22;stroke-width:1.0;"/><text fill="#000000" font-family="sans-serif" font-size="14" lengthAdjust="spacing" text-decoration="underline" textLength="161" x="1304.5" y="486.2539">LINKED_SESSION: String</text><polygon fill="none" points="1295.5,493.9512,1299.5,497.9512,1295.5,501.9512,1291.5,497.9512" style="stroke:#B38D22;stroke-width:1.0;"/><text fill="#000000" font-family="sans-serif" font-size="14" lengthAdjust="spacing" text-decoration="underline" textLength="181" x="1304.5" y="502.7422">DELAYED_REQUEST: String</text><polygon fill="none" points="1295.5,510.4395,1299.5,514.4395,1295.5,518.4395,1291.5,514.4395" style="stroke:#B38D22;stroke-width:1.0;"/><text fill="#000000" font-family="sans-serif" font-size="14" lengthAdjust="spacing" text-decoration="underline" textLength="199" x="1304.5" y="519.2305">WITHHOLD_RESPONSE: String</text><line style="stroke:#181818;stroke-width:0.5;" x1="1285.5" x2="1574.5" y1="526.1836" y2="526.1836"/><ellipse cx="1295.5" cy="539.9277" fill="#84BE84" rx="3" ry="3" style="stroke:#038048;stroke-width:1.0;"/><text fill="#000000" font-family="sans-serif" font-size="14" font-style="italic" lengthAdjust="spacing" textLength="222" x="1304.5" y="543.7188">process(SipServletRequest): void</text></g></a><!--reverse link KeepAliveCallflow to KeepAliveReinvite--><g id="link_KeepAliveCallflow_KeepAliveReinvite"><path codeLine="119" d="M1080.6897,853.4083 C1055.0997,889.6083 1026.11,923.44 981,953.97 C913.26,999.83 884.31,987.25 807,1013.97 C801.36,1015.92 795.56,1017.93 789.71,1019.95 " fill="none" id="KeepAliveCallflow-backto-KeepAliveReinvite" style="stroke:#181818;stroke-width:1.0;"/><polygon fill="none" points="1091.08,838.71,1075.7902,849.9449,1085.5891,856.8718,1091.08,838.71" style="stroke:#181818;stroke-width:1.0;"/></g><!--reverse link KeepAliveCallflow to KeepAliveUpdate--><g id="link_KeepAliveCallflow_KeepAliveUpdate"><path codeLine="120" d="M1074.1902,853.2941 C1035.7702,903.4941 987.22,966.94 951.39,1013.75 " fill="none" id="KeepAliveCallflow-backto-KeepAliveUpdate" style="stroke:#181818;stroke-width:1.0;"/><polygon fill="none" points="1085.13,839,1069.4255,849.6475,1078.9549,856.9407,1085.13,839" style="stroke:#181818;stroke-width:1.0;"/></g><!--reverse link KeepAliveCallflow to KeepAliveExpiry--><g id="link_KeepAliveCallflow_KeepAliveExpiry"><path codeLine="121" d="M1128.7905,856.9057 C1133.9505,907.1057 1140.11,966.94 1144.92,1013.75 " fill="none" id="KeepAliveCallflow-backto-KeepAliveExpiry" style="stroke:#181818;stroke-width:1.0;"/><polygon fill="none" points="1126.95,839,1122.8219,857.5192,1134.7591,856.2922,1126.95,839" style="stroke:#181818;stroke-width:1.0;"/></g><!--reverse link Serializable to KeepAliveConfig--><g id="link_Serializable_KeepAliveConfig"><path codeLine="122" d="M86.014,337.9475 C96.174,387.8075 120.86,489.03 174,574.67 C204.48,623.79 248.07,670.49 287.74,707.67 " fill="none" id="Serializable-backto-KeepAliveConfig" style="stroke:#181818;stroke-width:1.0;stroke-dasharray:7.0,7.0;"/><polygon fill="none" points="82.42,320.31,80.1348,339.1456,91.8932,336.7495,82.42,320.31" style="stroke:#181818;stroke-width:1.0;"/></g><!--reverse link B2buaServlet to KeepAliveServlet--><g id="link_B2buaServlet_KeepAliveServlet"><path codeLine="123" d="M397.8523,393.1485 C433.8923,450.2085 475.81,512.04 528,574.67 C542.06,591.55 557.27,608.58 572.87,625.27 " fill="none" id="B2buaServlet-backto-KeepAliveServlet" style="stroke:#181818;stroke-width:1.0;"/><polygon fill="none" points="388.24,377.93,392.7794,396.3526,402.9251,389.9445,388.24,377.93" style="stroke:#181818;stroke-width:1.0;"/></g><!--reverse link SipApplicationSessionListener to KeepAliveServlet--><g id="link_SipApplicationSessionListener_KeepAliveServlet"><path codeLine="124" d="M759.428,371.2592 C757.148,437.1992 753.9,531.26 750.65,625.19 " fill="none" id="SipApplicationSessionListener-backto-KeepAliveServlet" style="stroke:#181818;stroke-width:1.0;stroke-dasharray:7.0,7.0;"/><polygon fill="none" points="760.05,353.27,753.4316,371.0519,765.4244,371.4666,760.05,353.27" style="stroke:#181818;stroke-width:1.0;"/></g><!--reverse link Callflow to KeepAliveCallflow--><g id="link_Callflow_KeepAliveCallflow"><path codeLine="125" d="M1274.5692,545.1172 C1224.6592,624.8472 1183.16,691.14 1152.01,740.88 " fill="none" id="Callflow-backto-KeepAliveCallflow" style="stroke:#181818;stroke-width:1.0;"/><polygon fill="none" points="1284.12,529.86,1269.4835,541.9336,1279.6549,548.3008,1284.12,529.86" style="stroke:#181818;stroke-width:1.0;"/></g><!--reverse link SessionKeepAlive.Callback to KeepAliveCallflow--><g id="link_SessionKeepAlive.Callback_KeepAliveCallflow"><path codeLine="126" d="M1122,346.36 C1122,430.13 1122,640.71 1122,740.8 " fill="none" id="SessionKeepAlive.Callback-backto-KeepAliveCallflow" style="stroke:#181818;stroke-width:1.0;stroke-dasharray:7.0,7.0;"/><polygon fill="none" points="1122,328.36,1116,346.36,1128,346.36,1122,328.36" style="stroke:#181818;stroke-width:1.0;"/></g><text fill="#888888" font-family="sans-serif" font-size="10" lengthAdjust="spacing" textLength="176" x="704.5" y="1126.618">UMLDoclet 2.1.2, PlantUML 1.2024.3</text><!--SRC=[nLX_Jziu6Fv_doBIT19erqHmkZykOdTAst14XBPNjvlGX92Jcc9mxSmsXHxZk-_DZxAaJKXIq8O4fM-UzxVz-7KCmp0KqV0ROOcra8Pjlti7GYF2uIsU4qF8kRaKCiBC31YU4LCHkQGXKUOj0IL6byHuJ5NYdv1XfOnJUEJ4ZyQ4yYNLnFZoPKjcNki5kxW0RIFtywWqrZHyCZhWY6BsYKX51PzwVTjWWiyBu0_NcCyOsKCqGaJ5k7tRM0ewUqOzLOOsZMQu65Wg-SLXkGyHbQjyMAda5uVL4_oAplDXfP8t20imIJ19daJP1kMw25XGZjnj-OSvqQYWkxTVWb9RA81iPhwsTnQxgZAJFYpHhguRWjt2O8Fb2fU9tg1op-0uE4tvN9rX3fjMsWOg2eusslPtXLF7zuUVqULqr7ScK76a9QtosN4O4_SrcBMXON13mgs29dNeIGAxRfQkobGYk2OFsbsIYZvbcdsYj1IhTheXPWnfB8ikn-Jh7LYhr72ukYToGqL5WYjIgGEXS4YwbP-UM4G0QwNJ9o6Zl5riJW1K87XZFzaMpVNAYI96GsYpuElTzKA_4a2XNplefzjtL-qnmRFLH7Xy2OTMJFGjxEJsDmuW2HpgBOA4gbx1XYXGP2Px2-wEf813LpNhr-CwogVcfFzKFFTly1ARLEHY1juZyWg71CWbZfV-ZmCM7w3NMaVAjgoP29Kfm2qZPYWM5k5MR2NveuXrS90WB1pHH6G6iJH1K67bRIRr-eUg3kna8Zbc7xMy8nSNPN5kpITN4Y_8lP2tPd0OtE5S0XkjwyQFr_py6XRE5RirksmgjoIQJVMMdBEjtef-DjLRCj5Mxir9wQbgoJwOsU5WAXgLBzwoNUzJfGadChUQqqN5mTASwkkx03Q3TQFa7t_-bQpP1ojpP84ZwqMZLSjvSz7bol4glYqnj2lrbfZQZOLB3BsEaCjOAS4_iwyPqsy0QsFdfbOPtA6X3LYu7Rc5w_Ecajzo9z9BwIU6ioUTv4k7qK1YkUeyUxCWa0oIuNyyMWTY5Kwx1jNPQT9z3uqvXXo5NDdnLix-hmPFDMK9CgkxYWKLS4qNHABqVciRazotQlk-c2S3T_fPXKjzZt1SDIYAijUhzOUeGjKRVFBgHl7tJk-q1j4zhxFHSmOzrwy1ZTr_FJHnnpMmuMZY3GUe1ZKQryUDfbtK6tlTkkW7mubtV5xdSDhrFNHIW_86nyCQI9Fx4TJgkBPGo1lLjGKkDB36QttvdjFrwqFwR-gYoMKFxdbTAFvbBHwDe8zkOmNV6vow_Kla8WGBe0RSTttd7D1PL3Nepzxav6Jen_0qg79yZdCRZym5xctmmiksjyV-es-TJalTzOkmd-msVStravscBx4IfzdDmhOBruYZRwRPDfxaLKPv8Xkt0DikJFix992fFcTG63GXbnUdoXsIo_jhC0ROzckwizQjpAvojDgbRNbd8OddD-DAYFXZUkRtHHXtwD0yC0z_DqOCSmrIuxTbEXxixNy7]--></g></svg>