<?xml version="1.0" encoding="us-ascii" standalone="no"?><svg xmlns="http://www.w3.org/2000/svg" xmlns:xlink="http://www.w3.org/1999/xlink" contentStyleType="text/css" height="1014px" preserveAspectRatio="none" style="width:443px;height:1014px;background:#FFFFFF;" version="1.1" viewBox="0 0 443 1014" width="443px" zoomAndPan="magnify"><defs/><g><!--cluster org.vorpal.blade.framework.v3.config--><g id="cluster_org.vorpal.blade.framework.v3.config"><path d="M8.5,138 L272.5,138 A3.75,3.75 0 0 1 275,140.5 L282,160.4883 L433.5,160.4883 A2.5,2.5 0 0 1 436,162.9883 L436,986.05 A2.5,2.5 0 0 1 433.5,988.55 L8.5,988.55 A2.5,2.5 0 0 1 6,986.05 L6,140.5 A2.5,2.5 0 0 1 8.5,138 " fill="none" style="stroke:#000000;stroke-width:1.5;"/><line style="stroke:#000000;stroke-width:1.5;" x1="6" x2="282" y1="160.4883" y2="160.4883"/><text fill="#000000" font-family="sans-serif" font-size="14" font-weight="bold" lengthAdjust="spacing" textLength="263" x="10" y="153.5352">org.vorpal.blade.framework.v3.config</text></g><!--cluster java.io--><g id="cluster_java.io"><path d="M151.5,6 L198.5,6 A3.75,3.75 0 0 1 201,8.5 L208,28.4883 L290.5,28.4883 A2.5,2.5 0 0 1 293,30.9883 L293,102.5 A2.5,2.5 0 0 1 290.5,105 L151.5,105 A2.5,2.5 0 0 1 149,102.5 L149,8.5 A2.5,2.5 0 0 1 151.5,6 " fill="none" style="stroke:#000000;stroke-width:1.5;"/><line style="stroke:#000000;stroke-width:1.5;" x1="149" x2="208" y1="28.4883" y2="28.4883"/><text fill="#000000" font-family="sans-serif" font-size="14" font-weight="bold" lengthAdjust="spacing" textLength="46" x="153" y="21.5352">java.io</text></g><!--class TranslationsMap--><a href="TranslationsMap.html" target="_top" title="TranslationsMap.html" xlink:actuate="onRequest" xlink:href="TranslationsMap.html" xlink:show="new" xlink:title="TranslationsMap.html" xlink:type="simple"><g id="elem_TranslationsMap"><rect codeLine="5" fill="#F1F1F1" height="278.8359" id="TranslationsMap" rx="2.5" ry="2.5" style="stroke:#181818;stroke-width:0.5;" width="397" x="22.5" y="693.71"/><ellipse cx="153.75" cy="709.71" fill="#A9DCDF" rx="11" ry="11" style="stroke:#181818;stroke-width:1.0;"/><path d="M153.6133,705.0581 L152.4595,710.1299 L154.7754,710.1299 Z M152.1191,702.8169 L155.1157,702.8169 L158.4609,715.21 L156.0122,715.21 L155.2485,712.147 L151.9697,712.147 L151.2227,715.21 L148.7739,715.21 Z " fill="#000000"/><text fill="#000000" font-family="sans-serif" font-size="14" font-style="italic" lengthAdjust="spacing" textLength="114" x="174.25" y="715.001">TranslationsMap</text><rect fill="#FFFFFF" height="16.1328" style="stroke:#181818;stroke-width:1.0;stroke-dasharray:2.0,2.0;" width="10" x="412.5" y="690.71"/><text fill="#000000" font-family="sans-serif" font-size="12" font-style="italic" lengthAdjust="spacing" textLength="8" x="413.5" y="703.3116">T</text><line style="stroke:#181818;stroke-width:0.5;" x1="23.5" x2="418.5" y1="725.71" y2="725.71"/><ellipse cx="33.5" cy="739.4541" fill="none" rx="3" ry="3" style="stroke:#038048;stroke-width:1.0;"/><text fill="#000000" font-family="sans-serif" font-size="14" lengthAdjust="spacing" textLength="62" x="42.5" y="743.2452">id: String</text><ellipse cx="33.5" cy="755.9424" fill="none" rx="3" ry="3" style="stroke:#038048;stroke-width:1.0;"/><text fill="#000000" font-family="sans-serif" font-size="14" lengthAdjust="spacing" textLength="126" x="42.5" y="759.7334">description: String</text><ellipse cx="33.5" cy="772.4307" fill="none" rx="3" ry="3" style="stroke:#038048;stroke-width:1.0;"/><text fill="#000000" font-family="sans-serif" font-size="14" lengthAdjust="spacing" textLength="169" x="42.5" y="776.2217">selectors: List&lt;Selector&gt;</text><line style="stroke:#181818;stroke-width:0.5;" x1="23.5" x2="418.5" y1="783.1748" y2="783.1748"/><ellipse cx="33.5" cy="796.919" fill="#84BE84" rx="3" ry="3" style="stroke:#038048;stroke-width:1.0;"/><text fill="#000000" font-family="sans-serif" font-size="14" font-style="italic" lengthAdjust="spacing" textLength="288" x="42.5" y="800.71">createTranslation(String): Translation&lt;T&gt;</text><polygon fill="#FFFF44" points="33.5,808.4073,37.5,812.4073,33.5,816.4073,29.5,812.4073" style="stroke:#B38D22;stroke-width:1.0;"/><text fill="#000000" font-family="sans-serif" font-size="14" font-style="italic" lengthAdjust="spacing" textLength="297" x="42.5" y="817.1983">lookup(SipServletRequest): Translation&lt;T&gt;</text><ellipse cx="33.5" cy="829.8955" fill="#84BE84" rx="3" ry="3" style="stroke:#038048;stroke-width:1.0;"/><text fill="#000000" font-family="sans-serif" font-size="14" font-style="italic" lengthAdjust="spacing" textLength="63" x="42.5" y="833.6866">size(): int</text><ellipse cx="33.5" cy="846.3838" fill="#84BE84" rx="3" ry="3" style="stroke:#038048;stroke-width:1.0;"/><text fill="#000000" font-family="sans-serif" font-size="14" lengthAdjust="spacing" textLength="371" x="42.5" y="850.1748">applyTranslations(SipServletRequest): Translation&lt;T&gt;</text><ellipse cx="33.5" cy="862.8721" fill="#84BE84" rx="3" ry="3" style="stroke:#038048;stroke-width:1.0;"/><text fill="#000000" font-family="sans-serif" font-size="14" lengthAdjust="spacing" textLength="94" x="42.5" y="866.6631">getId(): String</text><ellipse cx="33.5" cy="879.3604" fill="#84BE84" rx="3" ry="3" style="stroke:#038048;stroke-width:1.0;"/><text fill="#000000" font-family="sans-serif" font-size="14" lengthAdjust="spacing" textLength="121" x="42.5" y="883.1514">setId(String): void</text><ellipse cx="33.5" cy="895.8487" fill="#84BE84" rx="3" ry="3" style="stroke:#038048;stroke-width:1.0;"/><text fill="#000000" font-family="sans-serif" font-size="14" lengthAdjust="spacing" textLength="159" x="42.5" y="899.6397">getDescription(): String</text><ellipse cx="33.5" cy="912.337" fill="#84BE84" rx="3" ry="3" style="stroke:#038048;stroke-width:1.0;"/><text fill="#000000" font-family="sans-serif" font-size="14" lengthAdjust="spacing" textLength="186" x="42.5" y="916.128">setDescription(String): void</text><ellipse cx="33.5" cy="928.8252" fill="#84BE84" rx="3" ry="3" style="stroke:#038048;stroke-width:1.0;"/><text fill="#000000" font-family="sans-serif" font-size="14" lengthAdjust="spacing" textLength="202" x="42.5" y="932.6163">getSelectors(): List&lt;Selector&gt;</text><ellipse cx="33.5" cy="945.3135" fill="#84BE84" rx="3" ry="3" style="stroke:#038048;stroke-width:1.0;"/><text fill="#000000" font-family="sans-serif" font-size="14" lengthAdjust="spacing" textLength="229" x="42.5" y="949.1045">setSelectors(List&lt;Selector&gt;): void</text><ellipse cx="33.5" cy="961.8018" fill="#84BE84" rx="3" ry="3" style="stroke:#038048;stroke-width:1.0;"/><text fill="#000000" font-family="sans-serif" font-size="14" lengthAdjust="spacing" textLength="209" x="42.5" y="965.5928">addSelector(Selector): Selector</text></g></a><!--class Translation--><a href="Translation.html" target="_top" title="Translation.html" xlink:actuate="onRequest" xlink:href="Translation.html" xlink:show="new" xlink:title="Translation.html" xlink:type="simple"><g id="elem_Translation"><rect codeLine="22" fill="#F1F1F1" height="443.7188" id="Translation" rx="2.5" ry="2.5" style="stroke:#181818;stroke-width:0.5;" width="266" x="88" y="173"/><ellipse cx="171.75" cy="189" fill="#ADD1B2" rx="11" ry="11" style="stroke:#181818;stroke-width:1.0;"/><path d="M174.2231,195.1431 Q173.6421,195.4419 173.0029,195.5913 Q172.3638,195.7407 171.6582,195.7407 Q169.1514,195.7407 167.8315,194.0889 Q166.5117,192.437 166.5117,189.3159 Q166.5117,186.1865 167.8315,184.5347 Q169.1514,182.8828 171.6582,182.8828 Q172.3638,182.8828 173.0112,183.0322 Q173.6587,183.1816 174.2231,183.4805 L174.2231,186.2031 Q173.5923,185.6221 172.9988,185.3523 Q172.4053,185.0825 171.7744,185.0825 Q170.4297,185.0825 169.7449,186.1492 Q169.0601,187.2158 169.0601,189.3159 Q169.0601,191.4077 169.7449,192.4744 Q170.4297,193.541 171.7744,193.541 Q172.4053,193.541 172.9988,193.2712 Q173.5923,193.0015 174.2231,192.4204 Z " fill="#000000"/><text fill="#000000" font-family="sans-serif" font-size="14" lengthAdjust="spacing" textLength="78" x="192.25" y="194.291">Translation</text><rect fill="#FFFFFF" height="16.1328" style="stroke:#181818;stroke-width:1.0;stroke-dasharray:2.0,2.0;" width="10" x="347" y="170"/><text fill="#000000" font-family="sans-serif" font-size="12" font-style="italic" lengthAdjust="spacing" textLength="8" x="348" y="182.6016">T</text><line style="stroke:#181818;stroke-width:0.5;" x1="89" x2="353" y1="205" y2="205"/><rect fill="none" height="6" style="stroke:#C82930;stroke-width:1.0;" width="6" x="96" y="215.7441"/><text fill="#000000" font-family="sans-serif" font-size="14" lengthAdjust="spacing" textLength="62" x="108" y="222.5352">id: String</text><rect fill="none" height="6" style="stroke:#C82930;stroke-width:1.0;" width="6" x="96" y="232.2324"/><text fill="#000000" font-family="sans-serif" font-size="14" lengthAdjust="spacing" textLength="126" x="108" y="239.0234">description: String</text><rect fill="none" height="6" style="stroke:#C82930;stroke-width:1.0;" width="6" x="96" y="248.7207"/><text fill="#000000" font-family="sans-serif" font-size="14" lengthAdjust="spacing" textLength="121" x="108" y="255.5117">requestUri: String</text><rect fill="none" height="6" style="stroke:#C82930;stroke-width:1.0;" width="6" x="96" y="265.209"/><text fill="#000000" font-family="sans-serif" font-size="14" lengthAdjust="spacing" textLength="96" x="108" y="272">route: String[]</text><rect fill="none" height="6" style="stroke:#C82930;stroke-width:1.0;" width="6" x="96" y="281.6973"/><text fill="#000000" font-family="sans-serif" font-size="14" lengthAdjust="spacing" textLength="127" x="108" y="288.4883">routeBack: String[]</text><rect fill="none" height="6" style="stroke:#C82930;stroke-width:1.0;" width="6" x="96" y="298.1855"/><text fill="#000000" font-family="sans-serif" font-size="14" lengthAdjust="spacing" textLength="129" x="108" y="304.9766">routeFinal: String[]</text><rect fill="none" height="6" style="stroke:#C82930;stroke-width:1.0;" width="6" x="96" y="314.6738"/><text fill="#000000" font-family="sans-serif" font-size="14" lengthAdjust="spacing" textLength="83" x="108" y="321.4648">attributes: T</text><line style="stroke:#181818;stroke-width:0.5;" x1="89" x2="353" y1="328.418" y2="328.418"/><ellipse cx="99" cy="342.1621" fill="#84BE84" rx="3" ry="3" style="stroke:#038048;stroke-width:1.0;"/><text fill="#000000" font-family="sans-serif" font-size="14" lengthAdjust="spacing" textLength="88" x="108" y="345.9531">Translation()</text><ellipse cx="99" cy="358.6504" fill="#84BE84" rx="3" ry="3" style="stroke:#038048;stroke-width:1.0;"/><text fill="#000000" font-family="sans-serif" font-size="14" lengthAdjust="spacing" textLength="129" x="108" y="362.4414">Translation(String)</text><ellipse cx="99" cy="375.1387" fill="#84BE84" rx="3" ry="3" style="stroke:#038048;stroke-width:1.0;"/><text fill="#000000" font-family="sans-serif" font-size="14" lengthAdjust="spacing" textLength="197" x="108" y="378.9297">Translation(Translation&lt;T&gt;)</text><ellipse cx="99" cy="391.627" fill="#84BE84" rx="3" ry="3" style="stroke:#038048;stroke-width:1.0;"/><text fill="#000000" font-family="sans-serif" font-size="14" lengthAdjust="spacing" textLength="159" x="108" y="395.418">getDescription(): String</text><ellipse cx="99" cy="408.1152" fill="#84BE84" rx="3" ry="3" style="stroke:#038048;stroke-width:1.0;"/><text fill="#000000" font-family="sans-serif" font-size="14" lengthAdjust="spacing" textLength="235" x="108" y="411.9063">setDescription(String): Translation</text><ellipse cx="99" cy="424.6035" fill="#84BE84" rx="3" ry="3" style="stroke:#038048;stroke-width:1.0;"/><text fill="#000000" font-family="sans-serif" font-size="14" lengthAdjust="spacing" textLength="94" x="108" y="428.3945">getId(): String</text><ellipse cx="99" cy="441.0918" fill="#84BE84" rx="3" ry="3" style="stroke:#038048;stroke-width:1.0;"/><text fill="#000000" font-family="sans-serif" font-size="14" lengthAdjust="spacing" textLength="170" x="108" y="444.8828">setId(String): Translation</text><ellipse cx="99" cy="457.5801" fill="#84BE84" rx="3" ry="3" style="stroke:#038048;stroke-width:1.0;"/><text fill="#000000" font-family="sans-serif" font-size="14" lengthAdjust="spacing" textLength="156" x="108" y="461.3711">getRequestUri(): String</text><ellipse cx="99" cy="474.0684" fill="#84BE84" rx="3" ry="3" style="stroke:#038048;stroke-width:1.0;"/><text fill="#000000" font-family="sans-serif" font-size="14" lengthAdjust="spacing" textLength="232" x="108" y="477.8594">setRequestUri(String): Translation</text><ellipse cx="99" cy="490.5566" fill="#84BE84" rx="3" ry="3" style="stroke:#038048;stroke-width:1.0;"/><text fill="#000000" font-family="sans-serif" font-size="14" lengthAdjust="spacing" textLength="131" x="108" y="494.3477">getRoute(): String[]</text><ellipse cx="99" cy="507.0449" fill="#84BE84" rx="3" ry="3" style="stroke:#038048;stroke-width:1.0;"/><text fill="#000000" font-family="sans-serif" font-size="14" lengthAdjust="spacing" textLength="207" x="108" y="510.8359">setRoute(String[]): Translation</text><ellipse cx="99" cy="523.5332" fill="#84BE84" rx="3" ry="3" style="stroke:#038048;stroke-width:1.0;"/><text fill="#000000" font-family="sans-serif" font-size="14" lengthAdjust="spacing" textLength="162" x="108" y="527.3242">getRouteBack(): String[]</text><ellipse cx="99" cy="540.0215" fill="#84BE84" rx="3" ry="3" style="stroke:#038048;stroke-width:1.0;"/><text fill="#000000" font-family="sans-serif" font-size="14" lengthAdjust="spacing" textLength="238" x="108" y="543.8125">setRouteBack(String[]): Translation</text><ellipse cx="99" cy="556.5098" fill="#84BE84" rx="3" ry="3" style="stroke:#038048;stroke-width:1.0;"/><text fill="#000000" font-family="sans-serif" font-size="14" lengthAdjust="spacing" textLength="164" x="108" y="560.3008">getRouteFinal(): String[]</text><ellipse cx="99" cy="572.998" fill="#84BE84" rx="3" ry="3" style="stroke:#038048;stroke-width:1.0;"/><text fill="#000000" font-family="sans-serif" font-size="14" lengthAdjust="spacing" textLength="240" x="108" y="576.7891">setRouteFinal(String[]): Translation</text><ellipse cx="99" cy="589.4863" fill="#84BE84" rx="3" ry="3" style="stroke:#038048;stroke-width:1.0;"/><text fill="#000000" font-family="sans-serif" font-size="14" lengthAdjust="spacing" textLength="117" x="108" y="593.2773">getAttributes(): T</text><ellipse cx="99" cy="605.9746" fill="#84BE84" rx="3" ry="3" style="stroke:#038048;stroke-width:1.0;"/><text fill="#000000" font-family="sans-serif" font-size="14" lengthAdjust="spacing" textLength="144" x="108" y="609.7656">setAttributes(T): void</text></g></a><!--class Serializable--><a href="https://docs.oracle.com/en/java/javase/11/docs/api/java.base/java/io/Serializable.html?is-external=true" target="_top" title="https://docs.oracle.com/en/java/javase/11/docs/api/java.base/java/io/Serializable.html?is-external=true" xlink:actuate="onRequest" xlink:href="https://docs.oracle.com/en/java/javase/11/docs/api/java.base/java/io/Serializable.html?is-external=true" xlink:show="new" xlink:title="https://docs.oracle.com/en/java/javase/11/docs/api/java.base/java/io/Serializable.html?is-external=true" xlink:type="simple"><g id="elem_Serializable"><rect codeLine="52" fill="#F1F1F1" height="48" id="Serializable" rx="2.5" ry="2.5" style="stroke:#181818;stroke-width:0.5;" width="111" x="165.5" y="41"/><ellipse cx="180.5" cy="57" fill="#B4A7E5" rx="11" ry="11" style="stroke:#181818;stroke-width:1.0;"/><path d="M176.9277,53.2651 L176.9277,51.1069 L184.3071,51.1069 L184.3071,53.2651 L181.8418,53.2651 L181.8418,61.3418 L184.3071,61.3418 L184.3071,63.5 L176.9277,63.5 L176.9277,61.3418 L179.3931,61.3418 L179.3931,53.2651 Z " fill="#000000"/><text fill="#000000" font-family="sans-serif" font-size="14" font-style="italic" lengthAdjust="spacing" textLength="79" x="194.5" y="62.291">Serializable</text><line style="stroke:#181818;stroke-width:0.5;" x1="166.5" x2="275.5" y1="73" y2="73"/><line style="stroke:#181818;stroke-width:0.5;" x1="166.5" x2="275.5" y1="81" y2="81"/></g></a><!--reverse link Serializable to Translation--><g id="link_Serializable_Translation"><path codeLine="55" d="M221,107.31 C221,126.84 221,138.89 221,172.65 " fill="none" id="Serializable-backto-Translation" style="stroke:#181818;stroke-width:1.0;stroke-dasharray:7.0,7.0;"/><polygon fill="none" points="221,89.31,215,107.31,227,107.31,221,89.31" style="stroke:#181818;stroke-width:1.0;"/></g><!--link Translation to TranslationsMap--><g id="link_Translation_TranslationsMap"><path codeLine="56" d="M221,617.19 C221,643.13 221,663.02 221,687.37 " fill="none" id="Translation-to-TranslationsMap" style="stroke:#181818;stroke-width:1.0;"/><polygon fill="#181818" points="221,693.37,225,684.37,221,688.37,217,684.37,221,693.37" style="stroke:#181818;stroke-width:1.0;"/><text fill="#000000" font-family="sans-serif" font-size="13" lengthAdjust="spacing" textLength="20" x="222" y="660.2784">list</text><text fill="#000000" font-family="sans-serif" font-size="13" lengthAdjust="spacing" textLength="6" x="214.8359" y="682.8937">*</text></g><text fill="#888888" font-family="sans-serif" font-size="10" lengthAdjust="spacing" textLength="176" x="126.5" y="1004.218">UMLDoclet 2.1.2, PlantUML 1.2024.3</text><!--SRC=[hPLTRzem58Rl-okiJfDWB8xexYp6jAcQDAcLfaAl41U7v40zJ9pP9jlQyTzh6m8Ea03J8W71v_NZu_DX4qA8HcC_EIWmKX76hgxi8CaXcSCCYLGpMaYLWw0J0IdIgO85_f9gJeiFD97PbC_8otgEUs2YZOB4a4I0rcIe8DC239UPleUyD-oJqMXla3wPXHYFBOK4JuUdZ0oCujciEfwYJXJFtUpZ0eq24xiNpSWTrwOtsFplLsGlfQShqaaKWi70hTQQssRX1gppTOGtGihvCcyDU3v0LGWq3_XpYTgSJUXe_emjA-UPgMu7ybpy2KDswIgT6PflgMCVZvOpRlTRI9uUpBxTXRm14wgQUML6jACrvCXHTzggy2WRqhGKjCeNv_3cTIjUxGhse4uFQlHuVKOrzHcTgiz8hPFsg7YDNIuDbgRH-8ZnYstEHi5Nde6eKu2nmnEhiWqohCOlR85slMcJtNf1DPpj_rbG0VhVgxm9yh1DJmCi49q7TLdPyVPIuebUKPhFmRagE8tqgakmldPESzUoCy6VjoNdmCC3Oc0VxZVsfbTNrNlf1nH0kGoQqXwSgAQGe6rtnK7mPvW8jAtyP4okMHodCj5KskDMeBsu5Z5ciQFuBurnj-iLCUJS3z696_KABkEGwG-4Jrn7-DikQSFmqQWbZiUXdnl_6Aiuq_jBwLbNAcFxuRnu5ecYFhb-TttvJ7SfCoBiSUjNJj15baobT3-FztUtqeRGa1lQfJVloNS1cR6Zv6s1IlkEVWK0]--></g></svg>