<?xml version="1.0" encoding="us-ascii" standalone="no"?><svg xmlns="http://www.w3.org/2000/svg" xmlns:xlink="http://www.w3.org/1999/xlink" contentStyleType="text/css" height="630px" preserveAspectRatio="none" style="width:418px;height:630px;background:#FFFFFF;" version="1.1" viewBox="0 0 418 630" width="418px" zoomAndPan="magnify"><defs/><g><!--class org.vorpal.blade.framework.v3.config.Translation--><a href="Translation.html" target="_top" title="Translation.html" xlink:actuate="onRequest" xlink:href="Translation.html" xlink:show="new" xlink:title="Translation.html" xlink:type="simple"><g id="elem_org.vorpal.blade.framework.v3.config.Translation"><rect codeLine="5" fill="#F1F1F1" height="499.4492" id="org.vorpal.blade.framework.v3.config.Translation" rx="2.5" ry="2.5" style="stroke:#181818;stroke-width:0.5;" width="400" x="7" y="105.26"/><ellipse cx="105.75" cy="124.3928" fill="#ADD1B2" rx="11" ry="11" style="stroke:#181818;stroke-width:1.0;"/><path d="M108.2231,130.5359 Q107.6421,130.8347 107.0029,130.9841 Q106.3638,131.1335 105.6582,131.1335 Q103.1514,131.1335 101.8315,129.4817 Q100.5117,127.8298 100.5117,124.7087 Q100.5117,121.5793 101.8315,119.9275 Q103.1514,118.2756 105.6582,118.2756 Q106.3638,118.2756 107.0112,118.425 Q107.6587,118.5745 108.2231,118.8733 L108.2231,121.5959 Q107.5923,121.0149 106.9988,120.7451 Q106.4053,120.4753 105.7744,120.4753 Q104.4297,120.4753 103.7449,121.542 Q103.0601,122.6086 103.0601,124.7087 Q103.0601,126.8005 103.7449,127.8672 Q104.4297,128.9338 105.7744,128.9338 Q106.4053,128.9338 106.9988,128.6641 Q107.5923,128.3943 108.2231,127.8132 Z " fill="#000000"/><text fill="#000000" font-family="sans-serif" font-size="14" lengthAdjust="spacing" textLength="78" x="178.25" y="123.7952">Translation</text><text fill="#000000" font-family="sans-serif" font-size="10" lengthAdjust="spacing" textLength="182" x="126.25" y="136.4163">org.vorpal.blade.framework.v3.config</text><rect fill="#FFFFFF" height="16.1328" style="stroke:#181818;stroke-width:1.0;stroke-dasharray:2.0,2.0;" width="10" x="400" y="102.26"/><text fill="#000000" font-family="sans-serif" font-size="12" font-style="italic" lengthAdjust="spacing" textLength="8" x="401" y="114.8616">T</text><line style="stroke:#181818;stroke-width:0.5;" x1="8" x2="406" y1="143.5256" y2="143.5256"/><rect fill="none" height="6" style="stroke:#C82930;stroke-width:1.0;" width="6" x="15" y="154.2698"/><text fill="#000000" font-family="sans-serif" font-size="14" lengthAdjust="spacing" textLength="62" x="27" y="161.0608">id: String</text><rect fill="none" height="6" style="stroke:#C82930;stroke-width:1.0;" width="6" x="15" y="170.758"/><text fill="#000000" font-family="sans-serif" font-size="14" lengthAdjust="spacing" textLength="126" x="27" y="177.5491">description: String</text><rect fill="none" height="6" style="stroke:#C82930;stroke-width:1.0;" width="6" x="15" y="187.2463"/><text fill="#000000" font-family="sans-serif" font-size="14" lengthAdjust="spacing" textLength="263" x="27" y="194.0373">list: LinkedList&lt;TranslationsMap&lt;T&gt;&gt;</text><rect fill="none" height="6" style="stroke:#C82930;stroke-width:1.0;" width="6" x="15" y="203.7346"/><text fill="#000000" font-family="sans-serif" font-size="14" lengthAdjust="spacing" textLength="121" x="27" y="210.5256">requestUri: String</text><rect fill="none" height="6" style="stroke:#C82930;stroke-width:1.0;" width="6" x="15" y="220.2229"/><text fill="#000000" font-family="sans-serif" font-size="14" lengthAdjust="spacing" textLength="96" x="27" y="227.0139">route: String[]</text><rect fill="none" height="6" style="stroke:#C82930;stroke-width:1.0;" width="6" x="15" y="236.7112"/><text fill="#000000" font-family="sans-serif" font-size="14" lengthAdjust="spacing" textLength="127" x="27" y="243.5022">routeBack: String[]</text><rect fill="none" height="6" style="stroke:#C82930;stroke-width:1.0;" width="6" x="15" y="253.1995"/><text fill="#000000" font-family="sans-serif" font-size="14" lengthAdjust="spacing" textLength="129" x="27" y="259.9905">routeFinal: String[]</text><rect fill="none" height="6" style="stroke:#C82930;stroke-width:1.0;" width="6" x="15" y="269.6877"/><text fill="#000000" font-family="sans-serif" font-size="14" lengthAdjust="spacing" textLength="83" x="27" y="276.4788">attributes: T</text><line style="stroke:#181818;stroke-width:0.5;" x1="8" x2="406" y1="283.4319" y2="283.4319"/><ellipse cx="18" cy="297.176" fill="#84BE84" rx="3" ry="3" style="stroke:#038048;stroke-width:1.0;"/><text fill="#000000" font-family="sans-serif" font-size="14" lengthAdjust="spacing" textLength="88" x="27" y="300.967">Translation()</text><ellipse cx="18" cy="313.6643" fill="#84BE84" rx="3" ry="3" style="stroke:#038048;stroke-width:1.0;"/><text fill="#000000" font-family="sans-serif" font-size="14" lengthAdjust="spacing" textLength="129" x="27" y="317.4553">Translation(String)</text><ellipse cx="18" cy="330.1526" fill="#84BE84" rx="3" ry="3" style="stroke:#038048;stroke-width:1.0;"/><text fill="#000000" font-family="sans-serif" font-size="14" lengthAdjust="spacing" textLength="197" x="27" y="333.9436">Translation(Translation&lt;T&gt;)</text><ellipse cx="18" cy="346.6409" fill="#84BE84" rx="3" ry="3" style="stroke:#038048;stroke-width:1.0;"/><text fill="#000000" font-family="sans-serif" font-size="14" lengthAdjust="spacing" textLength="159" x="27" y="350.4319">getDescription(): String</text><ellipse cx="18" cy="363.1291" fill="#84BE84" rx="3" ry="3" style="stroke:#038048;stroke-width:1.0;"/><text fill="#000000" font-family="sans-serif" font-size="14" lengthAdjust="spacing" textLength="235" x="27" y="366.9202">setDescription(String): Translation</text><ellipse cx="18" cy="379.6174" fill="#84BE84" rx="3" ry="3" style="stroke:#038048;stroke-width:1.0;"/><text fill="#000000" font-family="sans-serif" font-size="14" lengthAdjust="spacing" textLength="94" x="27" y="383.4084">getId(): String</text><ellipse cx="18" cy="396.1057" fill="#84BE84" rx="3" ry="3" style="stroke:#038048;stroke-width:1.0;"/><text fill="#000000" font-family="sans-serif" font-size="14" lengthAdjust="spacing" textLength="170" x="27" y="399.8967">setId(String): Translation</text><ellipse cx="18" cy="412.594" fill="#84BE84" rx="3" ry="3" style="stroke:#038048;stroke-width:1.0;"/><text fill="#000000" font-family="sans-serif" font-size="14" lengthAdjust="spacing" textLength="298" x="27" y="416.385">getList(): LinkedList&lt;TranslationsMap&lt;T&gt;&gt;</text><ellipse cx="18" cy="429.0823" fill="#84BE84" rx="3" ry="3" style="stroke:#038048;stroke-width:1.0;"/><text fill="#000000" font-family="sans-serif" font-size="14" lengthAdjust="spacing" textLength="374" x="27" y="432.8733">setList(LinkedList&lt;TranslationsMap&lt;T&gt;&gt;): Translation</text><ellipse cx="18" cy="445.5705" fill="#84BE84" rx="3" ry="3" style="stroke:#038048;stroke-width:1.0;"/><text fill="#000000" font-family="sans-serif" font-size="14" lengthAdjust="spacing" textLength="156" x="27" y="449.3616">getRequestUri(): String</text><ellipse cx="18" cy="462.0588" fill="#84BE84" rx="3" ry="3" style="stroke:#038048;stroke-width:1.0;"/><text fill="#000000" font-family="sans-serif" font-size="14" lengthAdjust="spacing" textLength="232" x="27" y="465.8498">setRequestUri(String): Translation</text><ellipse cx="18" cy="478.5471" fill="#84BE84" rx="3" ry="3" style="stroke:#038048;stroke-width:1.0;"/><text fill="#000000" font-family="sans-serif" font-size="14" lengthAdjust="spacing" textLength="131" x="27" y="482.3381">getRoute(): String[]</text><ellipse cx="18" cy="495.0354" fill="#84BE84" rx="3" ry="3" style="stroke:#038048;stroke-width:1.0;"/><text fill="#000000" font-family="sans-serif" font-size="14" lengthAdjust="spacing" textLength="207" x="27" y="498.8264">setRoute(String[]): Translation</text><ellipse cx="18" cy="511.5237" fill="#84BE84" rx="3" ry="3" style="stroke:#038048;stroke-width:1.0;"/><text fill="#000000" font-family="sans-serif" font-size="14" lengthAdjust="spacing" textLength="162" x="27" y="515.3147">getRouteBack(): String[]</text><ellipse cx="18" cy="528.012" fill="#84BE84" rx="3" ry="3" style="stroke:#038048;stroke-width:1.0;"/><text fill="#000000" font-family="sans-serif" font-size="14" lengthAdjust="spacing" textLength="238" x="27" y="531.803">setRouteBack(String[]): Translation</text><ellipse cx="18" cy="544.5002" fill="#84BE84" rx="3" ry="3" style="stroke:#038048;stroke-width:1.0;"/><text fill="#000000" font-family="sans-serif" font-size="14" lengthAdjust="spacing" textLength="164" x="27" y="548.2913">getRouteFinal(): String[]</text><ellipse cx="18" cy="560.9885" fill="#84BE84" rx="3" ry="3" style="stroke:#038048;stroke-width:1.0;"/><text fill="#000000" font-family="sans-serif" font-size="14" lengthAdjust="spacing" textLength="240" x="27" y="564.7795">setRouteFinal(String[]): Translation</text><ellipse cx="18" cy="577.4768" fill="#84BE84" rx="3" ry="3" style="stroke:#038048;stroke-width:1.0;"/><text fill="#000000" font-family="sans-serif" font-size="14" lengthAdjust="spacing" textLength="117" x="27" y="581.2678">getAttributes(): T</text><ellipse cx="18" cy="593.9651" fill="#84BE84" rx="3" ry="3" style="stroke:#038048;stroke-width:1.0;"/><text fill="#000000" font-family="sans-serif" font-size="14" lengthAdjust="spacing" textLength="144" x="27" y="597.7561">setAttributes(T): void</text></g></a><!--class java.io.Serializable--><a href="https://docs.oracle.com/en/java/javase/11/docs/api/java.base/java/io/Serializable.html?is-external=true" target="_top" title="https://docs.oracle.com/en/java/javase/11/docs/api/java.base/java/io/Serializable.html?is-external=true" xlink:actuate="onRequest" xlink:href="https://docs.oracle.com/en/java/javase/11/docs/api/java.base/java/io/Serializable.html?is-external=true" xlink:show="new" xlink:title="https://docs.oracle.com/en/java/javase/11/docs/api/java.base/java/io/Serializable.html?is-external=true" xlink:type="simple"><g id="elem_java.io.Serializable"><rect codeLine="35" fill="#F1F1F1" height="38.2656" id="java.io.Serializable" rx="2.5" ry="2.5" style="stroke:#181818;stroke-width:0.5;" width="111" x="151.5" y="7"/><ellipse cx="166.5" cy="26.1328" fill="#B4A7E5" rx="11" ry="11" style="stroke:#181818;stroke-width:1.0;"/><path d="M162.9277,22.3979 L162.9277,20.2397 L170.3071,20.2397 L170.3071,22.3979 L167.8418,22.3979 L167.8418,30.4746 L170.3071,30.4746 L170.3071,32.6328 L162.9277,32.6328 L162.9277,30.4746 L165.3931,30.4746 L165.3931,22.3979 Z " fill="#000000"/><text fill="#000000" font-family="sans-serif" font-size="14" font-style="italic" lengthAdjust="spacing" textLength="79" x="180.5" y="25.5352">Serializable</text><text fill="#000000" font-family="sans-serif" font-size="10" font-style="italic" lengthAdjust="spacing" textLength="32" x="204" y="38.1563">java.io</text></g></a><!--reverse link java.io.Serializable to org.vorpal.blade.framework.v3.config.Translation--><g id="link_java.io.Serializable_org.vorpal.blade.framework.v3.config.Translation"><path codeLine="37" d="M207,63.64 C207,77.62 207,80.54 207,105.04 " fill="none" id="java.io.Serializable-backto-org.vorpal.blade.framework.v3.config.Translation" style="stroke:#181818;stroke-width:1.0;stroke-dasharray:7.0,7.0;"/><polygon fill="none" points="207,45.64,201,63.64,213,63.64,207,45.64" style="stroke:#181818;stroke-width:1.0;"/></g><text fill="#888888" font-family="sans-serif" font-size="10" lengthAdjust="spacing" textLength="176" x="114" y="620.3772">UMLDoclet 2.1.2, PlantUML 1.2024.3</text><!--SRC=[bLHTRzCm57tdLrnDchHfpA63fweh0ar8I9s4rkofvE4skMbD7JlORe01_ntRwHft_IGFINJEkSStliu1031aGM95fiQSnbIZHgiqI2NfbQDXpWi2gchx2qfEeZ0lqOhiN3auuBb0O-1iOFWJzNllXgb6QGHQhkHNkKBV39MUiKRf6WMR2Yo8bTfry4Ff1MlUibp9ai_E00sS8cJH6eDq29D91B2vhKIMmU_GdR-kUT67iTLSpZgi89DhNlkARL9mO_imud91nSYz3o9_Su-rMtJOgJLzNvAnZvflEscrjFGCJx8Nn4VC5tl9JroYsCMYTT3KAKmVqZLy5VLuSRaRRhtsa9kR6ebcPE-wtRgutFhAAxEfM2tZkkiiD-m-5tjS776qs0_4bvyu7cyRIWxh3opui9xldguZmT7k7_neEvzehi4fiC_KCHj_V0vR1SMfTk707VPh9ISOVbYVKM-ORZX5NEh8Hl4Yy7_RGE7IaYvTD4MXCYRDKV0dd0gAKkKRDiYu2i6nUcUnr2N3tDhQz9EaKBbXIcCkoAL8bP1CV4Mu6KfwlQ18iEO1ObEF1WLNIUmPykKzDzVqq_NfjkFMwYLbMTlypYu6VnZxxs1hmvNyPa2fb7yyte_kbFi02pUinsvUmnU1qZeKpXlI9loS_m00]--></g></svg>