<?xml version="1.0" encoding="us-ascii" standalone="no"?><svg xmlns="http://www.w3.org/2000/svg" xmlns:xlink="http://www.w3.org/1999/xlink" contentStyleType="text/css" height="325px" preserveAspectRatio="none" style="width:295px;height:325px;background:#FFFFFF;" version="1.1" viewBox="0 0 295 325" width="295px" zoomAndPan="magnify"><defs/><g><!--class org.vorpal.blade.services.proxy.router.ProxyInvite--><a href="ProxyInvite.html" target="_top" title="ProxyInvite.html" xlink:actuate="onRequest" xlink:href="ProxyInvite.html" xlink:show="new" xlink:title="ProxyInvite.html" xlink:type="simple"><g id="elem_org.vorpal.blade.services.proxy.router.ProxyInvite"><rect codeLine="5" fill="#F1F1F1" height="169.6836" id="org.vorpal.blade.services.proxy.router.ProxyInvite" rx="2.5" ry="2.5" style="stroke:#181818;stroke-width:0.5;" width="281" x="7" y="129.76"/><ellipse cx="51.25" cy="148.8928" fill="#ADD1B2" rx="11" ry="11" style="stroke:#181818;stroke-width:1.0;"/><path d="M53.7231,155.0359 Q53.1421,155.3347 52.5029,155.4841 Q51.8638,155.6335 51.1582,155.6335 Q48.6514,155.6335 47.3315,153.9817 Q46.0117,152.3298 46.0117,149.2087 Q46.0117,146.0793 47.3315,144.4275 Q48.6514,142.7756 51.1582,142.7756 Q51.8638,142.7756 52.5112,142.925 Q53.1587,143.0745 53.7231,143.3733 L53.7231,146.0959 Q53.0923,145.5149 52.4988,145.2451 Q51.9053,144.9753 51.2744,144.9753 Q49.9297,144.9753 49.2449,146.042 Q48.5601,147.1086 48.5601,149.2087 Q48.5601,151.3005 49.2449,152.3672 Q49.9297,153.4338 51.2744,153.4338 Q51.9053,153.4338 52.4988,153.1641 Q53.0923,152.8943 53.7231,152.3132 Z " fill="#000000"/><text fill="#000000" font-family="sans-serif" font-size="14" lengthAdjust="spacing" textLength="76" x="125.75" y="148.2952">ProxyInvite</text><text fill="#000000" font-family="sans-serif" font-size="10" lengthAdjust="spacing" textLength="184" x="71.75" y="160.9163">org.vorpal.blade.services.proxy.router</text><line style="stroke:#181818;stroke-width:0.5;" x1="8" x2="287" y1="168.0256" y2="168.0256"/><rect fill="none" height="6" style="stroke:#C82930;stroke-width:1.0;" width="6" x="15" y="178.7698"/><text fill="#000000" font-family="sans-serif" font-size="14" lengthAdjust="spacing" text-decoration="underline" textLength="152" x="27" y="185.5608">serialVersionUID: long</text><rect fill="none" height="6" style="stroke:#C82930;stroke-width:1.0;" width="6" x="15" y="195.258"/><text fill="#000000" font-family="sans-serif" font-size="14" lengthAdjust="spacing" textLength="195" x="27" y="202.0491">proxyListener: ProxyListener</text><rect fill="none" height="6" style="stroke:#C82930;stroke-width:1.0;" width="6" x="15" y="211.7463"/><text fill="#000000" font-family="sans-serif" font-size="14" lengthAdjust="spacing" textLength="145" x="27" y="218.5373">proxyPlan: ProxyPlan</text><rect fill="none" height="6" style="stroke:#C82930;stroke-width:1.0;" width="6" x="15" y="228.2346"/><text fill="#000000" font-family="sans-serif" font-size="14" lengthAdjust="spacing" textLength="243" x="27" y="235.0256">inboundRequest: SipServletRequest</text><line style="stroke:#181818;stroke-width:0.5;" x1="8" x2="287" y1="241.9788" y2="241.9788"/><ellipse cx="18" cy="255.7229" fill="#84BE84" rx="3" ry="3" style="stroke:#038048;stroke-width:1.0;"/><text fill="#000000" font-family="sans-serif" font-size="14" lengthAdjust="spacing" textLength="255" x="27" y="259.5139">ProxyInvite(ProxyPlan, ProxyListener)</text><ellipse cx="18" cy="272.2112" fill="#84BE84" rx="3" ry="3" style="stroke:#038048;stroke-width:1.0;"/><text fill="#000000" font-family="sans-serif" font-size="14" lengthAdjust="spacing" textLength="154" x="27" y="276.0022">ProxyInvite(ProxyPlan)</text><ellipse cx="18" cy="288.6995" fill="#84BE84" rx="3" ry="3" style="stroke:#038048;stroke-width:1.0;"/><text fill="#000000" font-family="sans-serif" font-size="14" lengthAdjust="spacing" textLength="222" x="27" y="292.4905">process(SipServletRequest): void</text></g></a><!--class org.vorpal.blade.framework.callflow.Callflow--><a href="https://vorpalnet.github.io/blade/vorpal-blade-library-framework/org/vorpal/blade/framework/callflow/Callflow.html?is-external=true" target="_top" title="https://vorpalnet.github.io/blade/vorpal-blade-library-framework/org/vorpal/blade/framework/callflow/Callflow.html?is-external=true" xlink:actuate="onRequest" xlink:href="https://vorpalnet.github.io/blade/vorpal-blade-library-framework/org/vorpal/blade/framework/callflow/Callflow.html?is-external=true" xlink:show="new" xlink:title="https://vorpalnet.github.io/blade/vorpal-blade-library-framework/org/vorpal/blade/framework/callflow/Callflow.html?is-external=true" xlink:type="simple"><g id="elem_org.vorpal.blade.framework.callflow.Callflow"><rect codeLine="15" fill="#F1F1F1" height="62.7539" id="org.vorpal.blade.framework.callflow.Callflow" rx="2.5" ry="2.5" style="stroke:#181818;stroke-width:0.5;" width="248" x="23.5" y="7"/><ellipse cx="56.5" cy="26.1328" fill="#A9DCDF" rx="11" ry="11" style="stroke:#181818;stroke-width:1.0;"/><path d="M56.3633,21.481 L55.2095,26.5527 L57.5254,26.5527 Z M54.8691,19.2397 L57.8657,19.2397 L61.2109,31.6328 L58.7622,31.6328 L57.9985,28.5698 L54.7197,28.5698 L53.9727,31.6328 L51.5239,31.6328 Z " fill="#000000"/><text fill="#000000" font-family="sans-serif" font-size="14" font-style="italic" lengthAdjust="spacing" textLength="55" x="135" y="25.5352">Callflow</text><text fill="#000000" font-family="sans-serif" font-size="10" font-style="italic" lengthAdjust="spacing" textLength="176" x="74.5" y="38.1563">org.vorpal.blade.framework.callflow</text><line style="stroke:#181818;stroke-width:0.5;" x1="24.5" x2="270.5" y1="45.2656" y2="45.2656"/><ellipse cx="34.5" cy="59.0098" fill="#84BE84" rx="3" ry="3" style="stroke:#038048;stroke-width:1.0;"/><text fill="#000000" font-family="sans-serif" font-size="14" font-style="italic" lengthAdjust="spacing" textLength="222" x="43.5" y="62.8008">process(SipServletRequest): void</text></g></a><!--reverse link org.vorpal.blade.framework.callflow.Callflow to org.vorpal.blade.services.proxy.router.ProxyInvite--><g id="link_org.vorpal.blade.framework.callflow.Callflow_org.vorpal.blade.services.proxy.router.ProxyInvite"><path codeLine="19" d="M147.5,88.13 C147.5,104.73 147.5,108.13 147.5,129.3 " fill="none" id="org.vorpal.blade.framework.callflow.Callflow-backto-org.vorpal.blade.services.proxy.router.ProxyInvite" style="stroke:#181818;stroke-width:1.0;"/><polygon fill="none" points="147.5,70.13,141.5,88.13,153.5,88.13,147.5,70.13" style="stroke:#181818;stroke-width:1.0;"/></g><text fill="#888888" font-family="sans-serif" font-size="10" lengthAdjust="spacing" textLength="176" x="52.5" y="315.1116">UMLDoclet 2.1.2, PlantUML 1.2024.3</text><!--SRC=[dLF1Rjf04BttAqQHAe5QhnFKaqMJGtE9b4YeABqa7DRsW5TPTjoTiHDA-VSkne21gadgYprltiwRdNa6060KS7gENEeCnrXghuKyE7Bu8QIXC3a2pajPmDIWpVaOdQCK5E06pwncXhCXcr-ON7ov77bwMTousWW-kXOzloG_KpNvKbkLMfsZOlIroP1LkUOhJvMWFmFDy3QgwkZ0mqCdKeNCxMG2owQzzRDaqMAo5KIXbD7s1tesvEvlhXEmv6OxOjGet1eMTEWJ67N38zR8QjSorf_xh74fLIx_ZZyhP4bWRCfnk855QQ4TzLEdwzwkqkT3sVuhz4u-z1N6nBqJnNu2DPcyOQusQzCfYzUPdEplcxPsQkdvNykR-c2VP_9FAclPVz_SAKzjouUT5I8b9t6yEU9GrCn8KQNAKDoSRpDH4qJMf5xxHRGh6WUzbjBozwcjNhpLQrnnPJZ2b-0Uf-rNyHKUscGxazNxHlckQmz_Hz5_M7ppgw4BC4o9rg_xkzjhoa9dC50NQX1i4zmW0OMFzSRWlVuV]--></g></svg>