<?xml version="1.0" encoding="us-ascii" standalone="no"?><svg xmlns="http://www.w3.org/2000/svg" xmlns:xlink="http://www.w3.org/1999/xlink" contentStyleType="text/css" height="237px" preserveAspectRatio="none" style="width:692px;height:237px;background:#FFFFFF;" version="1.1" viewBox="0 0 692 237" width="692px" zoomAndPan="magnify"><defs/><g><!--class org.vorpal.blade.services.crud2.CrudSettingsManager--><a href="CrudSettingsManager.html" target="_top" title="CrudSettingsManager.html" xlink:actuate="onRequest" xlink:href="CrudSettingsManager.html" xlink:show="new" xlink:title="CrudSettingsManager.html" xlink:type="simple"><g id="elem_org.vorpal.blade.services.crud2.CrudSettingsManager"><rect codeLine="5" fill="#F1F1F1" height="103.7305" id="org.vorpal.blade.services.crud2.CrudSettingsManager" rx="2.5" ry="2.5" style="stroke:#181818;stroke-width:0.5;" width="678" x="7" y="108.27"/><ellipse cx="266.25" cy="127.4028" fill="#ADD1B2" rx="11" ry="11" style="stroke:#181818;stroke-width:1.0;"/><path d="M268.7231,133.5459 Q268.1421,133.8447 267.5029,133.9941 Q266.8638,134.1435 266.1582,134.1435 Q263.6514,134.1435 262.3315,132.4917 Q261.0117,130.8398 261.0117,127.7187 Q261.0117,124.5893 262.3315,122.9375 Q263.6514,121.2856 266.1582,121.2856 Q266.8638,121.2856 267.5112,121.435 Q268.1587,121.5845 268.7231,121.8833 L268.7231,124.6059 Q268.0923,124.0249 267.4988,123.7551 Q266.9053,123.4853 266.2744,123.4853 Q264.9297,123.4853 264.2449,124.552 Q263.5601,125.6186 263.5601,127.7187 Q263.5601,129.8105 264.2449,130.8772 Q264.9297,131.9438 266.2744,131.9438 Q266.9053,131.9438 267.4988,131.6741 Q268.0923,131.4043 268.7231,130.8232 Z " fill="#000000"/><text fill="#000000" font-family="sans-serif" font-size="14" lengthAdjust="spacing" textLength="149" x="287.75" y="126.8052">CrudSettingsManager</text><text fill="#000000" font-family="sans-serif" font-size="10" lengthAdjust="spacing" textLength="151" x="286.75" y="139.4262">org.vorpal.blade.services.crud2</text><line style="stroke:#181818;stroke-width:0.5;" x1="8" x2="684" y1="146.5356" y2="146.5356"/><ellipse cx="18" cy="160.2798" fill="none" rx="3" ry="3" style="stroke:#038048;stroke-width:1.0;"/><text fill="#000000" font-family="sans-serif" font-size="14" lengthAdjust="spacing" textLength="93" x="27" y="164.0708">rules: RuleSet</text><line style="stroke:#181818;stroke-width:0.5;" x1="8" x2="684" y1="171.0239" y2="171.0239"/><ellipse cx="18" cy="184.768" fill="#84BE84" rx="3" ry="3" style="stroke:#038048;stroke-width:1.0;"/><text fill="#000000" font-family="sans-serif" font-size="14" lengthAdjust="spacing" textLength="652" x="27" y="188.5591">CrudSettingsManager(SipServletContextEvent, Class&lt;CrudConfiguration&gt;, CrudConfiguration)</text><ellipse cx="18" cy="201.2563" fill="#84BE84" rx="3" ry="3" style="stroke:#038048;stroke-width:1.0;"/><text fill="#000000" font-family="sans-serif" font-size="14" lengthAdjust="spacing" textLength="235" x="27" y="205.0473">initialize(CrudConfiguration): void</text></g></a><!--class org.vorpal.blade.framework.config.SettingsManager--><a href="https://vorpalnet.github.io/blade/vorpal-blade-library-framework/org/vorpal/blade/framework/config/SettingsManager.html?is-external=true" target="_top" title="https://vorpalnet.github.io/blade/vorpal-blade-library-framework/org/vorpal/blade/framework/config/SettingsManager.html?is-external=true" xlink:actuate="onRequest" xlink:href="https://vorpalnet.github.io/blade/vorpal-blade-library-framework/org/vorpal/blade/framework/config/SettingsManager.html?is-external=true" xlink:show="new" xlink:title="https://vorpalnet.github.io/blade/vorpal-blade-library-framework/org/vorpal/blade/framework/config/SettingsManager.html?is-external=true" xlink:type="simple"><g id="elem_org.vorpal.blade.framework.config.SettingsManager"><rect codeLine="11" fill="#F1F1F1" height="38.2656" id="org.vorpal.blade.framework.config.SettingsManager" rx="2.5" ry="2.5" style="stroke:#181818;stroke-width:0.5;" width="308" x="192" y="10"/><ellipse cx="207" cy="29.1328" fill="#ADD1B2" rx="11" ry="11" style="stroke:#181818;stroke-width:1.0;"/><path d="M209.4731,35.2759 Q208.8921,35.5747 208.2529,35.7241 Q207.6138,35.8735 206.9082,35.8735 Q204.4014,35.8735 203.0815,34.2217 Q201.7617,32.5698 201.7617,29.4487 Q201.7617,26.3193 203.0815,24.6675 Q204.4014,23.0156 206.9082,23.0156 Q207.6138,23.0156 208.2612,23.165 Q208.9087,23.3145 209.4731,23.6133 L209.4731,26.3359 Q208.8423,25.7549 208.2488,25.4851 Q207.6553,25.2153 207.0244,25.2153 Q205.6797,25.2153 204.9949,26.282 Q204.3101,27.3486 204.3101,29.4487 Q204.3101,31.5405 204.9949,32.6072 Q205.6797,33.6738 207.0244,33.6738 Q207.6553,33.6738 208.2488,33.4041 Q208.8423,33.1343 209.4731,32.5532 Z " fill="#000000"/><text fill="#000000" font-family="sans-serif" font-size="14" lengthAdjust="spacing" textLength="115" x="247.5" y="28.5352">SettingsManager</text><text fill="#000000" font-family="sans-serif" font-size="10" lengthAdjust="spacing" textLength="168" x="221" y="41.1563">org.vorpal.blade.framework.config</text><rect fill="#FFFFFF" height="16.1328" style="stroke:#181818;stroke-width:1.0;stroke-dasharray:2.0,2.0;" width="106" x="397" y="7"/><text fill="#000000" font-family="sans-serif" font-size="12" font-style="italic" lengthAdjust="spacing" textLength="104" x="398" y="19.6016">CrudConfiguration</text></g></a><!--reverse link org.vorpal.blade.framework.config.SettingsManager to org.vorpal.blade.services.crud2.CrudSettingsManager--><g id="link_org.vorpal.blade.framework.config.SettingsManager_org.vorpal.blade.services.crud2.CrudSettingsManager"><path codeLine="13" d="M346,66.62 C346,82.08 346,86.92 346,107.82 " fill="none" id="org.vorpal.blade.framework.config.SettingsManager-backto-org.vorpal.blade.services.crud2.CrudSettingsManager" style="stroke:#181818;stroke-width:1.0;"/><polygon fill="none" points="346,48.62,340,66.62,352,66.62,346,48.62" style="stroke:#181818;stroke-width:1.0;"/></g><text fill="#888888" font-family="sans-serif" font-size="10" lengthAdjust="spacing" textLength="176" x="251" y="227.6684">UMLDoclet 2.1.2, PlantUML 1.2024.3</text><!--SRC=[dL9DIyD04BtxAuQ2q6ApiSLJgVLGlLaGWwUQmpQP9elRtR0xYTQF_-ua3HPYG6ekIzwycJVpPW00F18OkKDVo0GZBAIJP1qOQ_2Cmv2h505t1UrXgr2dlelka7BBS8CdMdeFWxbNxpYRN2sMhamZ958cyojfP8RksRJHouLrcQYiAwGM6orJ51vTfHBq8k6ywG2aXpyueaS1rkiULEIqqt4C7qsZzNVXIer-1e_yCFc8zsGF8rL4hAoHbjOGlj5TXOR6iAmddjSPZ6zLLh9_ofe5HxhOwAYWZ28bDVim_4sRGMLLsf2_-cqzmTAju-M-MlSYaaQatzGkItGKUWPabtEYmi_2y53A88bCKLvkXB9XKxUD1CrFeDN6IRSFViH2xgEbjFnZwD17sBV46-K3NW0w8_KrkHBZ-63JoMF1_3C8_dDYXwtm0N2DhRNryxIwlxK9tmTCnKHCn_2WfI56uRn2vzcouUWR]--></g></svg>