<?xml version="1.0" encoding="us-ascii" standalone="no"?><svg xmlns="http://www.w3.org/2000/svg" xmlns:xlink="http://www.w3.org/1999/xlink" contentStyleType="text/css" height="523px" preserveAspectRatio="none" style="width:436px;height:523px;background:#FFFFFF;" version="1.1" viewBox="0 0 436 523" width="436px" zoomAndPan="magnify"><defs/><g><!--class org.vorpal.blade.services.crud2.CrudInitialInvite--><a href="CrudInitialInvite.html" target="_top" title="CrudInitialInvite.html" xlink:actuate="onRequest" xlink:href="CrudInitialInvite.html" xlink:show="new" xlink:title="CrudInitialInvite.html" xlink:type="simple"><g id="elem_org.vorpal.blade.services.crud2.CrudInitialInvite"><rect codeLine="5" fill="#F1F1F1" height="367.543" id="org.vorpal.blade.services.crud2.CrudInitialInvite" rx="2.5" ry="2.5" style="stroke:#181818;stroke-width:0.5;" width="420" x="9" y="129.76"/><ellipse cx="139.25" cy="148.8928" fill="#ADD1B2" rx="11" ry="11" style="stroke:#181818;stroke-width:1.0;"/><path d="M141.7231,155.0359 Q141.1421,155.3347 140.5029,155.4841 Q139.8638,155.6335 139.1582,155.6335 Q136.6514,155.6335 135.3315,153.9817 Q134.0117,152.3298 134.0117,149.2087 Q134.0117,146.0793 135.3315,144.4275 Q136.6514,142.7756 139.1582,142.7756 Q139.8638,142.7756 140.5112,142.925 Q141.1587,143.0745 141.7231,143.3733 L141.7231,146.0959 Q141.0923,145.5149 140.4988,145.2451 Q139.9053,144.9753 139.2744,144.9753 Q137.9297,144.9753 137.2449,146.042 Q136.5601,147.1086 136.5601,149.2087 Q136.5601,151.3005 137.2449,152.3672 Q137.9297,153.4338 139.2744,153.4338 Q139.9053,153.4338 140.4988,153.1641 Q141.0923,152.8943 141.7231,152.3132 Z " fill="#000000"/><text fill="#000000" font-family="sans-serif" font-size="14" lengthAdjust="spacing" textLength="109" x="180.75" y="148.2952">CrudInitialInvite</text><text fill="#000000" font-family="sans-serif" font-size="10" lengthAdjust="spacing" textLength="151" x="159.75" y="160.9163">org.vorpal.blade.services.crud2</text><line style="stroke:#181818;stroke-width:0.5;" x1="10" x2="428" y1="168.0256" y2="168.0256"/><polygon fill="none" points="20,177.7698,16,183.7698,24,183.7698" style="stroke:#1963A0;stroke-width:1.0;"/><text fill="#000000" font-family="sans-serif" font-size="14" lengthAdjust="spacing" text-decoration="underline" textLength="152" x="29" y="185.5608">serialVersionUID: long</text><rect fill="none" height="6" style="stroke:#C82930;stroke-width:1.0;" width="6" x="17" y="195.258"/><text fill="#000000" font-family="sans-serif" font-size="14" lengthAdjust="spacing" textLength="216" x="29" y="202.0491">aliceRequest: SipServletRequest</text><rect fill="none" height="6" style="stroke:#C82930;stroke-width:1.0;" width="6" x="17" y="211.7463"/><text fill="#000000" font-family="sans-serif" font-size="14" lengthAdjust="spacing" textLength="212" x="29" y="218.5373">bobRequest: SipServletRequest</text><rect fill="none" height="6" style="stroke:#C82930;stroke-width:1.0;" width="6" x="17" y="228.2346"/><text fill="#000000" font-family="sans-serif" font-size="14" lengthAdjust="spacing" textLength="203" x="29" y="235.0256">b2buaListener: B2buaListener</text><rect fill="none" height="6" style="stroke:#C82930;stroke-width:1.0;" width="6" x="17" y="244.7229"/><text fill="#000000" font-family="sans-serif" font-size="14" lengthAdjust="spacing" textLength="158" x="29" y="251.5139">doNotProcess: boolean</text><rect fill="none" height="6" style="stroke:#C82930;stroke-width:1.0;" width="6" x="17" y="261.2112"/><text fill="#000000" font-family="sans-serif" font-size="14" lengthAdjust="spacing" textLength="215" x="29" y="268.0022">attributes: Map&lt;String, String&gt;</text><line style="stroke:#181818;stroke-width:0.5;" x1="10" x2="428" y1="274.9553" y2="274.9553"/><ellipse cx="20" cy="288.6995" fill="#84BE84" rx="3" ry="3" style="stroke:#038048;stroke-width:1.0;"/><text fill="#000000" font-family="sans-serif" font-size="14" lengthAdjust="spacing" textLength="119" x="29" y="292.4905">CrudInitialInvite()</text><ellipse cx="20" cy="305.1877" fill="#84BE84" rx="3" ry="3" style="stroke:#038048;stroke-width:1.0;"/><text fill="#000000" font-family="sans-serif" font-size="14" lengthAdjust="spacing" textLength="365" x="29" y="308.9788">CrudInitialInvite(B2buaListener, Map&lt;String, String&gt;)</text><ellipse cx="20" cy="321.676" fill="#84BE84" rx="3" ry="3" style="stroke:#038048;stroke-width:1.0;"/><text fill="#000000" font-family="sans-serif" font-size="14" lengthAdjust="spacing" text-decoration="underline" textLength="316" x="29" y="325.467">setSessionExpiration(SipServletMessage): void</text><ellipse cx="20" cy="338.1643" fill="#84BE84" rx="3" ry="3" style="stroke:#038048;stroke-width:1.0;"/><text fill="#000000" font-family="sans-serif" font-size="14" lengthAdjust="spacing" textLength="163" x="29" y="341.9553">processContinue(): void</text><ellipse cx="20" cy="354.6526" fill="#84BE84" rx="3" ry="3" style="stroke:#038048;stroke-width:1.0;"/><text fill="#000000" font-family="sans-serif" font-size="14" lengthAdjust="spacing" textLength="222" x="29" y="358.4436">process(SipServletRequest): void</text><ellipse cx="20" cy="371.1409" fill="#84BE84" rx="3" ry="3" style="stroke:#038048;stroke-width:1.0;"/><text fill="#000000" font-family="sans-serif" font-size="14" lengthAdjust="spacing" textLength="275" x="29" y="374.9319">getInboundRequest(): SipServletRequest</text><ellipse cx="20" cy="387.6291" fill="#84BE84" rx="3" ry="3" style="stroke:#038048;stroke-width:1.0;"/><text fill="#000000" font-family="sans-serif" font-size="14" lengthAdjust="spacing" textLength="382" x="29" y="391.4202">setInboundRequest(SipServletRequest): CrudInitialInvite</text><ellipse cx="20" cy="404.1174" fill="#84BE84" rx="3" ry="3" style="stroke:#038048;stroke-width:1.0;"/><text fill="#000000" font-family="sans-serif" font-size="14" lengthAdjust="spacing" textLength="287" x="29" y="407.9084">getOutboundRequest(): SipServletRequest</text><ellipse cx="20" cy="420.6057" fill="#84BE84" rx="3" ry="3" style="stroke:#038048;stroke-width:1.0;"/><text fill="#000000" font-family="sans-serif" font-size="14" lengthAdjust="spacing" textLength="394" x="29" y="424.3967">setOutboundRequest(SipServletRequest): CrudInitialInvite</text><ellipse cx="20" cy="437.094" fill="#84BE84" rx="3" ry="3" style="stroke:#038048;stroke-width:1.0;"/><text fill="#000000" font-family="sans-serif" font-size="14" lengthAdjust="spacing" textLength="234" x="29" y="440.885">getB2buaListener(): B2buaListener</text><ellipse cx="20" cy="453.5823" fill="#84BE84" rx="3" ry="3" style="stroke:#038048;stroke-width:1.0;"/><text fill="#000000" font-family="sans-serif" font-size="14" lengthAdjust="spacing" textLength="261" x="29" y="457.3733">setB2buaListener(B2buaListener): void</text><ellipse cx="20" cy="470.0705" fill="#84BE84" rx="3" ry="3" style="stroke:#038048;stroke-width:1.0;"/><text fill="#000000" font-family="sans-serif" font-size="14" lengthAdjust="spacing" textLength="180" x="29" y="473.8616">isDoNotProcess(): boolean</text><ellipse cx="20" cy="486.5588" fill="#84BE84" rx="3" ry="3" style="stroke:#038048;stroke-width:1.0;"/><text fill="#000000" font-family="sans-serif" font-size="14" lengthAdjust="spacing" textLength="218" x="29" y="490.3498">setDoNotProcess(boolean): void</text></g></a><!--class org.vorpal.blade.framework.callflow.Callflow--><a href="https://vorpalnet.github.io/blade/vorpal-blade-library-framework/org/vorpal/blade/framework/callflow/Callflow.html?is-external=true" target="_top" title="https://vorpalnet.github.io/blade/vorpal-blade-library-framework/org/vorpal/blade/framework/callflow/Callflow.html?is-external=true" xlink:actuate="onRequest" xlink:href="https://vorpalnet.github.io/blade/vorpal-blade-library-framework/org/vorpal/blade/framework/callflow/Callflow.html?is-external=true" xlink:show="new" xlink:title="https://vorpalnet.github.io/blade/vorpal-blade-library-framework/org/vorpal/blade/framework/callflow/Callflow.html?is-external=true" xlink:type="simple"><g id="elem_org.vorpal.blade.framework.callflow.Callflow"><rect codeLine="27" fill="#F1F1F1" height="62.7539" id="org.vorpal.blade.framework.callflow.Callflow" rx="2.5" ry="2.5" style="stroke:#181818;stroke-width:0.5;" width="248" x="95" y="7"/><ellipse cx="128" cy="26.1328" fill="#A9DCDF" rx="11" ry="11" style="stroke:#181818;stroke-width:1.0;"/><path d="M127.8633,21.481 L126.7095,26.5527 L129.0254,26.5527 Z M126.3691,19.2397 L129.3657,19.2397 L132.7109,31.6328 L130.2622,31.6328 L129.4985,28.5698 L126.2197,28.5698 L125.4727,31.6328 L123.0239,31.6328 Z " fill="#000000"/><text fill="#000000" font-family="sans-serif" font-size="14" font-style="italic" lengthAdjust="spacing" textLength="55" x="206.5" y="25.5352">Callflow</text><text fill="#000000" font-family="sans-serif" font-size="10" font-style="italic" lengthAdjust="spacing" textLength="176" x="146" y="38.1563">org.vorpal.blade.framework.callflow</text><line style="stroke:#181818;stroke-width:0.5;" x1="96" x2="342" y1="45.2656" y2="45.2656"/><ellipse cx="106" cy="59.0098" fill="#84BE84" rx="3" ry="3" style="stroke:#038048;stroke-width:1.0;"/><text fill="#000000" font-family="sans-serif" font-size="14" font-style="italic" lengthAdjust="spacing" textLength="222" x="115" y="62.8008">process(SipServletRequest): void</text></g></a><!--reverse link org.vorpal.blade.framework.callflow.Callflow to org.vorpal.blade.services.crud2.CrudInitialInvite--><g id="link_org.vorpal.blade.framework.callflow.Callflow_org.vorpal.blade.services.crud2.CrudInitialInvite"><path codeLine="31" d="M219,88.18 C219,104.02 219,106.74 219,129.41 " fill="none" id="org.vorpal.blade.framework.callflow.Callflow-backto-org.vorpal.blade.services.crud2.CrudInitialInvite" style="stroke:#181818;stroke-width:1.0;"/><polygon fill="none" points="219,70.18,213,88.18,225,88.18,219,70.18" style="stroke:#181818;stroke-width:1.0;"/></g><text fill="#888888" font-family="sans-serif" font-size="10" lengthAdjust="spacing" textLength="176" x="123" y="512.9709">UMLDoclet 2.1.2, PlantUML 1.2024.3</text><!--SRC=[bLHDRzim3BtlLn051YHehAp1JaQM0Mjs2D1inOpkqlKWsumZJ94yYKxRTTbl7nqx7uxJhl555ldq7aNJ3m308u6H2_IvJ332N3f9re6n1jzm6kOgHS15JeymKwXJVnXT8CqjXzVnH4lluMperMyCBzwFBbsHJemY9VN4B1NX3rFdtesioyJIkbng4MkPel3ebYf1Bn8-DJW3wU4_6D7YXzlRLapCQQ7lxk1fNMBvF7cIf98L_6K-ndr7vvKrDvDn2DgQR0iCf6QrR_YhG4yXH2gFk02DL8TsmDZ6hu8Dua9UAKzeq8NmQN-xGwNsYwLhP_cYFeJOMetIx1L5v5HS479oAlDXn5kJzQ1QHrlWUQiLdUvBoKOrlMFKtNOBptc28gwJ-_Vv8LSyFlpMsRLWoZcPOJU4fLNfJZwlhdTf3IbJS6NF03gjRhQG6TB4nBOmQOqeoPx_26N51_XZ6gt-D0I_5dIQuk61qoKRdwSKF3uzfLWJsjYrkgVyU6_SIjx3WIiP6vWQi4-rgWn0nfwSJAZj15BhcRRtBnd0pB4HtLltKoGr-hW9j75YGy___vmezs6_NnqnI29JD2zYeMn_VRxE1EjDe5Nif7iCjgHzrgiXDNwNskZrDtfhR_ceV80FXCv8_O5SWKspsVHazSgPhbjvqhM7VuBWTBUiF1iDbmupQylbPderjWaN1WDn8GOzkDRI44VXxR9ooKxt7m00]--></g></svg>