<?xml version="1.0" encoding="us-ascii" standalone="no"?><svg xmlns="http://www.w3.org/2000/svg" xmlns:xlink="http://www.w3.org/1999/xlink" contentStyleType="text/css" height="498px" preserveAspectRatio="none" style="width:261px;height:498px;background:#FFFFFF;" version="1.1" viewBox="0 0 261 498" width="261px" zoomAndPan="magnify"><defs/><g><!--class org.vorpal.blade.services.options.OptionsSettings--><a href="OptionsSettings.html" target="_top" title="OptionsSettings.html" xlink:actuate="onRequest" xlink:href="OptionsSettings.html" xlink:show="new" xlink:title="OptionsSettings.html" xlink:type="simple"><g id="elem_org.vorpal.blade.services.options.OptionsSettings"><rect codeLine="5" fill="#F1F1F1" height="367.543" id="org.vorpal.blade.services.options.OptionsSettings" rx="2.5" ry="2.5" style="stroke:#181818;stroke-width:0.5;" width="247" x="7" y="105.27"/><ellipse cx="46.75" cy="124.4028" fill="#ADD1B2" rx="11" ry="11" style="stroke:#181818;stroke-width:1.0;"/><path d="M49.2231,130.5459 Q48.6421,130.8447 48.0029,130.9941 Q47.3638,131.1435 46.6582,131.1435 Q44.1514,131.1435 42.8315,129.4917 Q41.5117,127.8398 41.5117,124.7187 Q41.5117,121.5893 42.8315,119.9375 Q44.1514,118.2856 46.6582,118.2856 Q47.3638,118.2856 48.0112,118.435 Q48.6587,118.5845 49.2231,118.8833 L49.2231,121.6059 Q48.5923,121.0249 47.9988,120.7551 Q47.4053,120.4853 46.7744,120.4853 Q45.4297,120.4853 44.7449,121.552 Q44.0601,122.6186 44.0601,124.7187 Q44.0601,126.8105 44.7449,127.8772 Q45.4297,128.9438 46.7744,128.9438 Q47.4053,128.9438 47.9988,128.6741 Q48.5923,128.4043 49.2231,127.8232 Z " fill="#000000"/><text fill="#000000" font-family="sans-serif" font-size="14" lengthAdjust="spacing" textLength="109" x="91.75" y="123.8052">OptionsSettings</text><text fill="#000000" font-family="sans-serif" font-size="10" lengthAdjust="spacing" textLength="160" x="66.25" y="136.4262">org.vorpal.blade.services.options</text><line style="stroke:#181818;stroke-width:0.5;" x1="8" x2="253" y1="143.5356" y2="143.5356"/><rect fill="none" height="6" style="stroke:#C82930;stroke-width:1.0;" width="6" x="15" y="154.2798"/><text fill="#000000" font-family="sans-serif" font-size="14" lengthAdjust="spacing" text-decoration="underline" textLength="152" x="27" y="161.0708">serialVersionUID: long</text><rect fill="none" height="6" style="stroke:#C82930;stroke-width:1.0;" width="6" x="15" y="170.768"/><text fill="#000000" font-family="sans-serif" font-size="14" lengthAdjust="spacing" textLength="93" x="27" y="177.5591">accept: String</text><rect fill="none" height="6" style="stroke:#C82930;stroke-width:1.0;" width="6" x="15" y="187.2563"/><text fill="#000000" font-family="sans-serif" font-size="14" lengthAdjust="spacing" textLength="160" x="27" y="194.0473">acceptLanguage: String</text><rect fill="none" height="6" style="stroke:#C82930;stroke-width:1.0;" width="6" x="15" y="203.7446"/><text fill="#000000" font-family="sans-serif" font-size="14" lengthAdjust="spacing" textLength="85" x="27" y="210.5356">allow: String</text><rect fill="none" height="6" style="stroke:#C82930;stroke-width:1.0;" width="6" x="15" y="220.2329"/><text fill="#000000" font-family="sans-serif" font-size="14" lengthAdjust="spacing" textLength="120" x="27" y="227.0239">supported: String</text><rect fill="none" height="6" style="stroke:#C82930;stroke-width:1.0;" width="6" x="15" y="236.7212"/><text fill="#000000" font-family="sans-serif" font-size="14" lengthAdjust="spacing" textLength="120" x="27" y="243.5122">userAgent: String</text><rect fill="none" height="6" style="stroke:#C82930;stroke-width:1.0;" width="6" x="15" y="253.2095"/><text fill="#000000" font-family="sans-serif" font-size="14" lengthAdjust="spacing" textLength="129" x="27" y="260.0005">allowEvents: String</text><line style="stroke:#181818;stroke-width:0.5;" x1="8" x2="253" y1="266.9536" y2="266.9536"/><ellipse cx="18" cy="280.6977" fill="#84BE84" rx="3" ry="3" style="stroke:#038048;stroke-width:1.0;"/><text fill="#000000" font-family="sans-serif" font-size="14" lengthAdjust="spacing" textLength="119" x="27" y="284.4888">getAllow(): String</text><ellipse cx="18" cy="297.186" fill="#84BE84" rx="3" ry="3" style="stroke:#038048;stroke-width:1.0;"/><text fill="#000000" font-family="sans-serif" font-size="14" lengthAdjust="spacing" textLength="146" x="27" y="300.977">setAllow(String): void</text><ellipse cx="18" cy="313.6743" fill="#84BE84" rx="3" ry="3" style="stroke:#038048;stroke-width:1.0;"/><text fill="#000000" font-family="sans-serif" font-size="14" lengthAdjust="spacing" textLength="127" x="27" y="317.4653">getAccept(): String</text><ellipse cx="18" cy="330.1626" fill="#84BE84" rx="3" ry="3" style="stroke:#038048;stroke-width:1.0;"/><text fill="#000000" font-family="sans-serif" font-size="14" lengthAdjust="spacing" textLength="154" x="27" y="333.9536">setAccept(String): void</text><ellipse cx="18" cy="346.6509" fill="#84BE84" rx="3" ry="3" style="stroke:#038048;stroke-width:1.0;"/><text fill="#000000" font-family="sans-serif" font-size="14" lengthAdjust="spacing" textLength="194" x="27" y="350.4419">getAcceptLanguage(): String</text><ellipse cx="18" cy="363.1391" fill="#84BE84" rx="3" ry="3" style="stroke:#038048;stroke-width:1.0;"/><text fill="#000000" font-family="sans-serif" font-size="14" lengthAdjust="spacing" textLength="221" x="27" y="366.9302">setAcceptLanguage(String): void</text><ellipse cx="18" cy="379.6274" fill="#84BE84" rx="3" ry="3" style="stroke:#038048;stroke-width:1.0;"/><text fill="#000000" font-family="sans-serif" font-size="14" lengthAdjust="spacing" textLength="153" x="27" y="383.4184">getSupported(): String</text><ellipse cx="18" cy="396.1157" fill="#84BE84" rx="3" ry="3" style="stroke:#038048;stroke-width:1.0;"/><text fill="#000000" font-family="sans-serif" font-size="14" lengthAdjust="spacing" textLength="180" x="27" y="399.9067">setSupported(String): void</text><ellipse cx="18" cy="412.604" fill="#84BE84" rx="3" ry="3" style="stroke:#038048;stroke-width:1.0;"/><text fill="#000000" font-family="sans-serif" font-size="14" lengthAdjust="spacing" textLength="153" x="27" y="416.395">getUserAgent(): String</text><ellipse cx="18" cy="429.0923" fill="#84BE84" rx="3" ry="3" style="stroke:#038048;stroke-width:1.0;"/><text fill="#000000" font-family="sans-serif" font-size="14" lengthAdjust="spacing" textLength="180" x="27" y="432.8833">setUserAgent(String): void</text><ellipse cx="18" cy="445.5805" fill="#84BE84" rx="3" ry="3" style="stroke:#038048;stroke-width:1.0;"/><text fill="#000000" font-family="sans-serif" font-size="14" lengthAdjust="spacing" textLength="163" x="27" y="449.3716">getAllowEvents(): String</text><ellipse cx="18" cy="462.0688" fill="#84BE84" rx="3" ry="3" style="stroke:#038048;stroke-width:1.0;"/><text fill="#000000" font-family="sans-serif" font-size="14" lengthAdjust="spacing" textLength="190" x="27" y="465.8598">setAllowEvents(String): void</text></g></a><!--class java.io.Serializable--><a href="https://docs.oracle.com/en/java/javase/11/docs/api/java.base/java/io/Serializable.html?is-external=true" target="_top" title="https://docs.oracle.com/en/java/javase/11/docs/api/java.base/java/io/Serializable.html?is-external=true" xlink:actuate="onRequest" xlink:href="https://docs.oracle.com/en/java/javase/11/docs/api/java.base/java/io/Serializable.html?is-external=true" xlink:show="new" xlink:title="https://docs.oracle.com/en/java/javase/11/docs/api/java.base/java/io/Serializable.html?is-external=true" xlink:type="simple"><g id="elem_java.io.Serializable"><rect codeLine="27" fill="#F1F1F1" height="38.2656" id="java.io.Serializable" rx="2.5" ry="2.5" style="stroke:#181818;stroke-width:0.5;" width="111" x="75" y="7"/><ellipse cx="90" cy="26.1328" fill="#B4A7E5" rx="11" ry="11" style="stroke:#181818;stroke-width:1.0;"/><path d="M86.4277,22.3979 L86.4277,20.2397 L93.8071,20.2397 L93.8071,22.3979 L91.3418,22.3979 L91.3418,30.4746 L93.8071,30.4746 L93.8071,32.6328 L86.4277,32.6328 L86.4277,30.4746 L88.8931,30.4746 L88.8931,22.3979 Z " fill="#000000"/><text fill="#000000" font-family="sans-serif" font-size="14" font-style="italic" lengthAdjust="spacing" textLength="79" x="104" y="25.5352">Serializable</text><text fill="#000000" font-family="sans-serif" font-size="10" font-style="italic" lengthAdjust="spacing" textLength="32" x="127.5" y="38.1563">java.io</text></g></a><!--reverse link java.io.Serializable to org.vorpal.blade.services.options.OptionsSettings--><g id="link_java.io.Serializable_org.vorpal.blade.services.options.OptionsSettings"><path codeLine="29" d="M130.5,63.48 C130.5,77.63 130.5,80.81 130.5,104.86 " fill="none" id="java.io.Serializable-backto-org.vorpal.blade.services.options.OptionsSettings" style="stroke:#181818;stroke-width:1.0;stroke-dasharray:7.0,7.0;"/><polygon fill="none" points="130.5,45.48,124.5,63.48,136.5,63.48,130.5,45.48" style="stroke:#181818;stroke-width:1.0;"/></g><text fill="#888888" font-family="sans-serif" font-size="10" lengthAdjust="spacing" textLength="176" x="35.5" y="488.4809">UMLDoclet 2.1.2, PlantUML 1.2024.3</text><!--SRC=[bLJ1Qjj04BttAuP08Q7ngWuzcJGba1uAAIa8zvBuC9R6yfRLxh8pLjEa-VUkLdRiM953TP34Us-UPeTv0W1W4h1O4tiiA2UF0SK5iCxIkqZ3KfS4L7lv0mjDfkHzj2PPkWWdl33834Vdh1zeClvqSUD5EyivYMXRyPrTCnylNAXKuu97e-O6Ir9CeT45iN9TpH4WmvigjVS5kBtTGzHIQZERmMDgiBqUML1qyGIZwARH_AJ0iMBwxMe2njdgMJZ2eY0l4yWbw3v-ZRPQOKMlyCQuttsOLzwx85JsgLLivR8YAmDcNvl8SO_yK95SjlpnIP_Z3TSHKT4uNRwiJGSPAkx8jwetOpZeyYmQTiitqnamslB37jFD60Syjlo1KstdVMYgQqNVvwcBWhP2OH53jHE7FEsRVi2vePqi_C86bNPfuzVlQbSQbtefudcIPQKhuku7B0ofmjKPsQojI3UcR3nEYWozJf2QjsXIQ9VjUgPOVD4yellOfqNpMSAAPhEk-LUxEF-hrFydililK3iDM3ZNFgRVhwzSF870cHghirFuOT1AHE5zqsNn-EGV]--></g></svg>