<?xml version="1.0" encoding="us-ascii" standalone="no"?><svg xmlns="http://www.w3.org/2000/svg" xmlns:xlink="http://www.w3.org/1999/xlink" contentStyleType="text/css" height="267px" preserveAspectRatio="none" style="width:434px;height:267px;background:#FFFFFF;" version="1.1" viewBox="0 0 434 267" width="434px" zoomAndPan="magnify"><defs/><g><!--class org.vorpal.blade.services.queue.config.QueueConfig--><a href="QueueConfig.html" target="_top" title="QueueConfig.html" xlink:actuate="onRequest" xlink:href="QueueConfig.html" xlink:show="new" xlink:title="QueueConfig.html" xlink:type="simple"><g id="elem_org.vorpal.blade.services.queue.config.QueueConfig"><rect codeLine="5" fill="#F1F1F1" height="136.707" id="org.vorpal.blade.services.queue.config.QueueConfig" rx="2.5" ry="2.5" style="stroke:#181818;stroke-width:0.5;" width="420" x="7" y="105.26"/><ellipse cx="119.25" cy="124.3928" fill="#ADD1B2" rx="11" ry="11" style="stroke:#181818;stroke-width:1.0;"/><path d="M121.7231,130.5359 Q121.1421,130.8347 120.5029,130.9841 Q119.8638,131.1335 119.1582,131.1335 Q116.6514,131.1335 115.3315,129.4817 Q114.0117,127.8298 114.0117,124.7087 Q114.0117,121.5793 115.3315,119.9275 Q116.6514,118.2756 119.1582,118.2756 Q119.8638,118.2756 120.5112,118.425 Q121.1587,118.5745 121.7231,118.8733 L121.7231,121.5959 Q121.0923,121.0149 120.4988,120.7451 Q119.9053,120.4753 119.2744,120.4753 Q117.9297,120.4753 117.2449,121.542 Q116.5601,122.6086 116.5601,124.7087 Q116.5601,126.8005 117.2449,127.8672 Q117.9297,128.9338 119.2744,128.9338 Q119.9053,128.9338 120.4988,128.6641 Q121.0923,128.3943 121.7231,127.8132 Z " fill="#000000"/><text fill="#000000" font-family="sans-serif" font-size="14" lengthAdjust="spacing" textLength="91" x="187.75" y="123.7952">QueueConfig</text><text fill="#000000" font-family="sans-serif" font-size="10" lengthAdjust="spacing" textLength="187" x="139.75" y="136.4163">org.vorpal.blade.services.queue.config</text><line style="stroke:#181818;stroke-width:0.5;" x1="8" x2="426" y1="143.5256" y2="143.5256"/><rect fill="none" height="6" style="stroke:#C82930;stroke-width:1.0;" width="6" x="15" y="154.2698"/><text fill="#000000" font-family="sans-serif" font-size="14" lengthAdjust="spacing" text-decoration="underline" textLength="152" x="27" y="161.0608">serialVersionUID: long</text><ellipse cx="18" cy="173.758" fill="none" rx="3" ry="3" style="stroke:#038048;stroke-width:1.0;"/><text fill="#000000" font-family="sans-serif" font-size="14" lengthAdjust="spacing" textLength="271" x="27" y="177.5491">queues: Map&lt;String, QueueAttributes&gt;</text><line style="stroke:#181818;stroke-width:0.5;" x1="8" x2="426" y1="184.5022" y2="184.5022"/><ellipse cx="18" cy="198.2463" fill="#84BE84" rx="3" ry="3" style="stroke:#038048;stroke-width:1.0;"/><text fill="#000000" font-family="sans-serif" font-size="14" lengthAdjust="spacing" textLength="305" x="27" y="202.0373">getQueues(): Map&lt;String, QueueAttributes&gt;</text><ellipse cx="18" cy="214.7346" fill="#84BE84" rx="3" ry="3" style="stroke:#038048;stroke-width:1.0;"/><text fill="#000000" font-family="sans-serif" font-size="14" lengthAdjust="spacing" textLength="394" x="27" y="218.5256">setQueues(Map&lt;String, QueueAttributes&gt;): QueueConfig</text><ellipse cx="18" cy="231.2229" fill="#84BE84" rx="3" ry="3" style="stroke:#038048;stroke-width:1.0;"/><text fill="#000000" font-family="sans-serif" font-size="14" lengthAdjust="spacing" textLength="342" x="27" y="235.0139">addQueue(String, QueueAttributes): QueueConfig</text></g></a><!--class org.vorpal.blade.framework.config.RouterConfig--><a href="https://vorpalnet.github.io/blade/vorpal-blade-library-framework/org/vorpal/blade/framework/config/RouterConfig.html?is-external=true" target="_top" title="https://vorpalnet.github.io/blade/vorpal-blade-library-framework/org/vorpal/blade/framework/config/RouterConfig.html?is-external=true" xlink:actuate="onRequest" xlink:href="https://vorpalnet.github.io/blade/vorpal-blade-library-framework/org/vorpal/blade/framework/config/RouterConfig.html?is-external=true" xlink:show="new" xlink:title="https://vorpalnet.github.io/blade/vorpal-blade-library-framework/org/vorpal/blade/framework/config/RouterConfig.html?is-external=true" xlink:type="simple"><g id="elem_org.vorpal.blade.framework.config.RouterConfig"><rect codeLine="13" fill="#F1F1F1" height="38.2656" id="org.vorpal.blade.framework.config.RouterConfig" rx="2.5" ry="2.5" style="stroke:#181818;stroke-width:0.5;" width="200" x="117" y="7"/><ellipse cx="132" cy="26.1328" fill="#ADD1B2" rx="11" ry="11" style="stroke:#181818;stroke-width:1.0;"/><path d="M134.4731,32.2759 Q133.8921,32.5747 133.2529,32.7241 Q132.6138,32.8735 131.9082,32.8735 Q129.4014,32.8735 128.0815,31.2217 Q126.7617,29.5698 126.7617,26.4487 Q126.7617,23.3193 128.0815,21.6675 Q129.4014,20.0156 131.9082,20.0156 Q132.6138,20.0156 133.2612,20.165 Q133.9087,20.3145 134.4731,20.6133 L134.4731,23.3359 Q133.8423,22.7549 133.2488,22.4851 Q132.6553,22.2153 132.0244,22.2153 Q130.6797,22.2153 129.9949,23.282 Q129.3101,24.3486 129.3101,26.4487 Q129.3101,28.5405 129.9949,29.6072 Q130.6797,30.6738 132.0244,30.6738 Q132.6553,30.6738 133.2488,30.4041 Q133.8423,30.1343 134.4731,29.5532 Z " fill="#000000"/><text fill="#000000" font-family="sans-serif" font-size="14" lengthAdjust="spacing" textLength="92" x="184" y="25.5352">RouterConfig</text><text fill="#000000" font-family="sans-serif" font-size="10" lengthAdjust="spacing" textLength="168" x="146" y="38.1563">org.vorpal.blade.framework.config</text></g></a><!--reverse link org.vorpal.blade.framework.config.RouterConfig to org.vorpal.blade.services.queue.config.QueueConfig--><g id="link_org.vorpal.blade.framework.config.RouterConfig_org.vorpal.blade.services.queue.config.QueueConfig"><path codeLine="15" d="M217,63.56 C217,78.7 217,83.13 217,104.95 " fill="none" id="org.vorpal.blade.framework.config.RouterConfig-backto-org.vorpal.blade.services.queue.config.QueueConfig" style="stroke:#181818;stroke-width:1.0;"/><polygon fill="none" points="217,45.56,211,63.56,223,63.56,217,45.56" style="stroke:#181818;stroke-width:1.0;"/></g><text fill="#888888" font-family="sans-serif" font-size="10" lengthAdjust="spacing" textLength="176" x="122" y="257.635">UMLDoclet 2.1.2, PlantUML 1.2024.3</text><!--SRC=[dLDBJy904BxxAoOa9XZfLeqdWXWZ5nDDV0Glo65fXtRZibjtflX0_hlBje76-41xQUQRxx7TcG80438OEKCgP89tM4WdsJemrk2ERqEkKWIS5VmAKuKwfS_e33ct7WvueYKHj7gath1xUDo_AR74SskcAdimDNhGjouJS-iAgSL4onG5ePkh14ayhVWY2O8MI8BjgAAH0wDHen8vp_Hu38jmlDMp89QiaYL4taf9VO-Eb3N3Yq4Nj3NPchWV4gWBLxBetR5J9kj0i3vZNqrAHkfls1boQ59xRri9hIK_yRrTuuCsQfcc0Mz_8_n2j_nwIhVMyztlOvewloZFrZt-EA7FBD6qzzF9cGlgnd4bCiWYKvoN4w5i71pgJXIAIAk9a-urMjl6Fh6crFnDgqgCcubX0quLHVZYCIFr2RiIn-FgAlvu-jvx5FrZ9wjRH-EDO6hjwZMykXpOHFk_xqWSYgCEN6jfsAEmEwysihtt0G00]--></g></svg>