<?xml version="1.0" encoding="us-ascii" standalone="no"?><svg xmlns="http://www.w3.org/2000/svg" xmlns:xlink="http://www.w3.org/1999/xlink" contentStyleType="text/css" height="316px" preserveAspectRatio="none" style="width:259px;height:316px;background:#FFFFFF;" version="1.1" viewBox="0 0 259 316" width="259px" zoomAndPan="magnify"><defs/><g><!--class org.vorpal.blade.services.acl.AclRule--><a href="AclRule.html" target="_top" title="AclRule.html" xlink:actuate="onRequest" xlink:href="AclRule.html" xlink:show="new" xlink:title="AclRule.html" xlink:type="simple"><g id="elem_org.vorpal.blade.services.acl.AclRule"><rect codeLine="5" fill="#F1F1F1" height="186.1719" id="org.vorpal.blade.services.acl.AclRule" rx="2.5" ry="2.5" style="stroke:#181818;stroke-width:0.5;" width="243" x="9" y="7"/><ellipse cx="57.25" cy="26.1328" fill="#ADD1B2" rx="11" ry="11" style="stroke:#181818;stroke-width:1.0;"/><path d="M59.7231,32.2759 Q59.1421,32.5747 58.5029,32.7241 Q57.8638,32.8735 57.1582,32.8735 Q54.6514,32.8735 53.3315,31.2217 Q52.0117,29.5698 52.0117,26.4487 Q52.0117,23.3193 53.3315,21.6675 Q54.6514,20.0156 57.1582,20.0156 Q57.8638,20.0156 58.5112,20.165 Q59.1587,20.3145 59.7231,20.6133 L59.7231,23.3359 Q59.0923,22.7549 58.4988,22.4851 Q57.9053,22.2153 57.2744,22.2153 Q55.9297,22.2153 55.2449,23.282 Q54.5601,24.3486 54.5601,26.4487 Q54.5601,28.5405 55.2449,29.6072 Q55.9297,30.6738 57.2744,30.6738 Q57.9053,30.6738 58.4988,30.4041 Q59.0923,30.1343 59.7231,29.5532 Z " fill="#000000"/><text fill="#000000" font-family="sans-serif" font-size="14" lengthAdjust="spacing" textLength="51" x="121.25" y="25.5352">AclRule</text><text fill="#000000" font-family="sans-serif" font-size="10" lengthAdjust="spacing" textLength="138" x="77.75" y="38.1563">org.vorpal.blade.services.acl</text><line style="stroke:#181818;stroke-width:0.5;" x1="10" x2="251" y1="45.2656" y2="45.2656"/><polygon fill="none" points="20,55.0098,16,61.0098,24,61.0098" style="stroke:#1963A0;stroke-width:1.0;"/><text fill="#000000" font-family="sans-serif" font-size="14" lengthAdjust="spacing" textLength="103" x="29" y="62.8008">address: String</text><polygon fill="none" points="20,71.498,16,77.498,24,77.498" style="stroke:#1963A0;stroke-width:1.0;"/><text fill="#000000" font-family="sans-serif" font-size="14" lengthAdjust="spacing" textLength="159" x="29" y="79.2891">permission: Permission</text><line style="stroke:#181818;stroke-width:0.5;" x1="10" x2="251" y1="86.2422" y2="86.2422"/><ellipse cx="20" cy="99.9863" fill="#84BE84" rx="3" ry="3" style="stroke:#038048;stroke-width:1.0;"/><text fill="#000000" font-family="sans-serif" font-size="14" lengthAdjust="spacing" textLength="61" x="29" y="103.7773">AclRule()</text><ellipse cx="20" cy="116.4746" fill="#84BE84" rx="3" ry="3" style="stroke:#038048;stroke-width:1.0;"/><text fill="#000000" font-family="sans-serif" font-size="14" lengthAdjust="spacing" textLength="185" x="29" y="120.2656">AclRule(String, Permission)</text><ellipse cx="20" cy="132.9629" fill="#84BE84" rx="3" ry="3" style="stroke:#038048;stroke-width:1.0;"/><text fill="#000000" font-family="sans-serif" font-size="14" lengthAdjust="spacing" textLength="137" x="29" y="136.7539">getAddress(): String</text><ellipse cx="20" cy="149.4512" fill="#84BE84" rx="3" ry="3" style="stroke:#038048;stroke-width:1.0;"/><text fill="#000000" font-family="sans-serif" font-size="14" lengthAdjust="spacing" textLength="164" x="29" y="153.2422">setAddress(String): void</text><ellipse cx="20" cy="165.9395" fill="#84BE84" rx="3" ry="3" style="stroke:#038048;stroke-width:1.0;"/><text fill="#000000" font-family="sans-serif" font-size="14" lengthAdjust="spacing" textLength="190" x="29" y="169.7305">getPermission(): Permission</text><ellipse cx="20" cy="182.4277" fill="#84BE84" rx="3" ry="3" style="stroke:#038048;stroke-width:1.0;"/><text fill="#000000" font-family="sans-serif" font-size="14" lengthAdjust="spacing" textLength="217" x="29" y="186.2188">setPermission(Permission): void</text></g></a><!--class org.vorpal.blade.services.acl.AclRule.Permission--><a href="AclRule.Permission.html" target="_top" title="AclRule.Permission.html" xlink:actuate="onRequest" xlink:href="AclRule.Permission.html" xlink:show="new" xlink:title="AclRule.Permission.html" xlink:type="simple"><g id="elem_org.vorpal.blade.services.acl.AclRule.Permission"><rect codeLine="15" fill="#F1F1F1" height="38.2656" id="org.vorpal.blade.services.acl.AclRule.Permission" rx="2.5" ry="2.5" style="stroke:#181818;stroke-width:0.5;" width="170" x="45.5" y="253.17"/><ellipse cx="60.5" cy="272.3028" fill="#EB937F" rx="11" ry="11" style="stroke:#181818;stroke-width:1.0;"/><path d="M64.1143,278.8028 L56.3945,278.8028 L56.3945,266.4097 L64.1143,266.4097 L64.1143,268.5679 L58.8433,268.5679 L58.8433,271.2408 L63.6162,271.2408 L63.6162,273.399 L58.8433,273.399 L58.8433,276.6446 L64.1143,276.6446 Z " fill="#000000"/><text fill="#000000" font-family="sans-serif" font-size="14" lengthAdjust="spacing" textLength="130" x="78.5" y="271.7052">AclRule.Permission</text><text fill="#000000" font-family="sans-serif" font-size="10" lengthAdjust="spacing" textLength="138" x="74.5" y="284.3262">org.vorpal.blade.services.acl</text></g></a><!--reverse link org.vorpal.blade.services.acl.AclRule to org.vorpal.blade.services.acl.AclRule.Permission--><g id="link_org.vorpal.blade.services.acl.AclRule_org.vorpal.blade.services.acl.AclRule.Permission"><path codeLine="17" d="M130.5,209.67 C130.5,232.28 130.5,238.19 130.5,252.93 " fill="none" id="org.vorpal.blade.services.acl.AclRule-backto-org.vorpal.blade.services.acl.AclRule.Permission" style="stroke:#181818;stroke-width:1.0;"/><ellipse cx="130.5" cy="201.67" fill="#FFFFFF" rx="8" ry="8" style="stroke:#181818;stroke-width:1.0;"/><line style="stroke:#181818;stroke-width:1.0;" x1="130.5" x2="130.5" y1="209.67" y2="193.67"/><line style="stroke:#181818;stroke-width:1.0;" x1="122.5" x2="138.5" y1="201.67" y2="201.67"/></g><text fill="#888888" font-family="sans-serif" font-size="10" lengthAdjust="spacing" textLength="176" x="34.5" y="306.1036">UMLDoclet 2.1.2, PlantUML 1.2024.3</text><!--SRC=[hL9DImCn4BtxAuQ2qB8ssE9faKB1eu9OFDKUucQw6yZ7aaaNLFItczqitTGLKJ27P7XlvisGDm00X1uCrqWrBt23DNVSMmV66ZmBD5HI8A2k_Gli9If1Nr6Dlh81xl12SIAON9DynNnnjLeNwk6WyCdqoENAkf8rrjLSiMV51J92ryW2YV52JO0J_9Z1UaNORlk8LLwhtGxUkW7Qyy65S4YKmyOxQSg1gD5fIIIjoU7-61_vh9USpiPGbBf8ofAa4lqwzfpEHbqp6jX8XPp6Id5IF-Ys4jyDHoT9oHo9sdjtepdeiGbiAFb_FnBnn9e1x5sAM_8xXxFv_C-zunAYyUXWRstxFDxTtjX2XJLViWLR1WSLDpwWSDwWYn_-2G00]--></g></svg>