<?xml version="1.0" encoding="us-ascii" standalone="no"?><svg xmlns="http://www.w3.org/2000/svg" xmlns:xlink="http://www.w3.org/1999/xlink" contentStyleType="text/css" height="292px" preserveAspectRatio="none" style="width:504px;height:292px;background:#FFFFFF;" version="1.1" viewBox="0 0 504 292" width="504px" zoomAndPan="magnify"><defs/><g><!--class org.vorpal.blade.services.acl.AclSipServlet--><a href="AclSipServlet.html" target="_top" title="AclSipServlet.html" xlink:actuate="onRequest" xlink:href="AclSipServlet.html" xlink:show="new" xlink:title="AclSipServlet.html" xlink:type="simple"><g id="elem_org.vorpal.blade.services.acl.AclSipServlet"><rect codeLine="5" fill="#F1F1F1" height="136.707" id="org.vorpal.blade.services.acl.AclSipServlet" rx="2.5" ry="2.5" style="stroke:#181818;stroke-width:0.5;" width="344" x="21.5" y="129.75"/><ellipse cx="120.25" cy="148.8828" fill="#ADD1B2" rx="11" ry="11" style="stroke:#181818;stroke-width:1.0;"/><path d="M122.7231,155.0259 Q122.1421,155.3247 121.5029,155.4741 Q120.8638,155.6235 120.1582,155.6235 Q117.6514,155.6235 116.3315,153.9717 Q115.0117,152.3198 115.0117,149.1987 Q115.0117,146.0693 116.3315,144.4175 Q117.6514,142.7656 120.1582,142.7656 Q120.8638,142.7656 121.5112,142.915 Q122.1587,143.0645 122.7231,143.3633 L122.7231,146.0859 Q122.0923,145.5049 121.4988,145.2351 Q120.9053,144.9653 120.2744,144.9653 Q118.9297,144.9653 118.2449,146.032 Q117.5601,147.0986 117.5601,149.1987 Q117.5601,151.2905 118.2449,152.3572 Q118.9297,153.4238 120.2744,153.4238 Q120.9053,153.4238 121.4988,153.1541 Q122.0923,152.8843 122.7231,152.3032 Z " fill="#000000"/><text fill="#000000" font-family="sans-serif" font-size="14" lengthAdjust="spacing" textLength="88" x="165.75" y="148.2852">AclSipServlet</text><text fill="#000000" font-family="sans-serif" font-size="10" lengthAdjust="spacing" textLength="138" x="140.75" y="160.9062">org.vorpal.blade.services.acl</text><line style="stroke:#181818;stroke-width:0.5;" x1="22.5" x2="364.5" y1="168.0156" y2="168.0156"/><rect fill="none" height="6" style="stroke:#C82930;stroke-width:1.0;" width="6" x="29.5" y="178.7598"/><text fill="#000000" font-family="sans-serif" font-size="14" lengthAdjust="spacing" text-decoration="underline" textLength="152" x="41.5" y="185.5508">serialVersionUID: long</text><rect fill="none" height="6" style="stroke:#C82930;stroke-width:1.0;" width="6" x="29.5" y="195.248"/><text fill="#000000" font-family="sans-serif" font-size="14" lengthAdjust="spacing" textLength="124" x="41.5" y="202.0391">sipLogger: Logger</text><ellipse cx="32.5" cy="214.7363" fill="none" rx="3" ry="3" style="stroke:#038048;stroke-width:1.0;"/><text fill="#000000" font-family="sans-serif" font-size="14" lengthAdjust="spacing" textLength="238" x="41.5" y="218.5273">configManager: AclConfigManager</text><line style="stroke:#181818;stroke-width:0.5;" x1="22.5" x2="364.5" y1="225.4805" y2="225.4805"/><polygon fill="#FFFF44" points="32.5,234.2246,36.5,238.2246,32.5,242.2246,28.5,238.2246" style="stroke:#B38D22;stroke-width:1.0;"/><text fill="#000000" font-family="sans-serif" font-size="14" lengthAdjust="spacing" textLength="242" x="41.5" y="243.0156">doRequest(SipServletRequest): void</text><ellipse cx="32.5" cy="255.7129" fill="#84BE84" rx="3" ry="3" style="stroke:#038048;stroke-width:1.0;"/><text fill="#000000" font-family="sans-serif" font-size="14" lengthAdjust="spacing" textLength="318" x="41.5" y="259.5039">servletInitialized(SipServletContextEvent): void</text></g></a><!--class javax.servlet.sip.SipServlet--><g id="elem_javax.servlet.sip.SipServlet"><rect codeLine="13" fill="#F1F1F1" height="38.2656" id="javax.servlet.sip.SipServlet" rx="2.5" ry="2.5" style="stroke:#181818;stroke-width:0.5;" width="111" x="7" y="19.24"/><ellipse cx="22" cy="38.3728" fill="#A9DCDF" rx="11" ry="11" style="stroke:#181818;stroke-width:1.0;"/><path d="M21.8633,33.721 L20.7095,38.7927 L23.0254,38.7927 Z M20.3691,31.4797 L23.3657,31.4797 L26.7109,43.8728 L24.2622,43.8728 L23.4985,40.8098 L20.2197,40.8098 L19.4727,43.8728 L17.0239,43.8728 Z " fill="#000000"/><text fill="#000000" font-family="sans-serif" font-size="14" font-style="italic" lengthAdjust="spacing" textLength="67" x="42" y="37.7752">SipServlet</text><text fill="#000000" font-family="sans-serif" font-size="10" font-style="italic" lengthAdjust="spacing" textLength="79" x="36" y="50.3962">javax.servlet.sip</text></g><!--class javax.servlet.sip.SipServletListener--><g id="elem_javax.servlet.sip.SipServletListener"><rect codeLine="14" fill="#F1F1F1" height="62.7539" id="javax.servlet.sip.SipServletListener" rx="2.5" ry="2.5" style="stroke:#181818;stroke-width:0.5;" width="344" x="153.5" y="7"/><ellipse cx="260.75" cy="26.1328" fill="#B4A7E5" rx="11" ry="11" style="stroke:#181818;stroke-width:1.0;"/><path d="M257.1777,22.3979 L257.1777,20.2397 L264.5571,20.2397 L264.5571,22.3979 L262.0918,22.3979 L262.0918,30.4746 L264.5571,30.4746 L264.5571,32.6328 L257.1777,32.6328 L257.1777,30.4746 L259.6431,30.4746 L259.6431,22.3979 Z " fill="#000000"/><text fill="#000000" font-family="sans-serif" font-size="14" font-style="italic" lengthAdjust="spacing" textLength="121" x="281.25" y="25.5352">SipServletListener</text><text fill="#000000" font-family="sans-serif" font-size="10" font-style="italic" lengthAdjust="spacing" textLength="79" x="302.25" y="38.1563">javax.servlet.sip</text><line style="stroke:#181818;stroke-width:0.5;" x1="154.5" x2="496.5" y1="45.2656" y2="45.2656"/><ellipse cx="164.5" cy="59.0098" fill="#84BE84" rx="3" ry="3" style="stroke:#038048;stroke-width:1.0;"/><text fill="#000000" font-family="sans-serif" font-size="14" font-style="italic" lengthAdjust="spacing" textLength="318" x="173.5" y="62.8008">servletInitialized(SipServletContextEvent): void</text></g><!--reverse link javax.servlet.sip.SipServlet to org.vorpal.blade.services.acl.AclSipServlet--><g id="link_javax.servlet.sip.SipServlet_org.vorpal.blade.services.acl.AclSipServlet"><path codeLine="18" d="M89.2856,71.6227 C104.0056,89.3327 115.66,103.38 137.41,129.57 " fill="none" id="javax.servlet.sip.SipServlet-backto-org.vorpal.blade.services.acl.AclSipServlet" style="stroke:#181818;stroke-width:1.0;"/><polygon fill="none" points="77.78,57.78,84.6714,75.4579,93.8999,67.7875,77.78,57.78" style="stroke:#181818;stroke-width:1.0;"/></g><!--reverse link javax.servlet.sip.SipServletListener to org.vorpal.blade.services.acl.AclSipServlet--><g id="link_javax.servlet.sip.SipServletListener_org.vorpal.blade.services.acl.AclSipServlet"><path codeLine="19" d="M288.1903,83.9659 C274.0103,100.9159 267.37,108.84 250.06,129.52 " fill="none" id="javax.servlet.sip.SipServletListener-backto-org.vorpal.blade.services.acl.AclSipServlet" style="stroke:#181818;stroke-width:1.0;stroke-dasharray:7.0,7.0;"/><polygon fill="none" points="299.74,70.16,283.5883,80.116,292.7922,87.8158,299.74,70.16" style="stroke:#181818;stroke-width:1.0;"/></g><text fill="#888888" font-family="sans-serif" font-size="10" lengthAdjust="spacing" textLength="176" x="157.25" y="282.125">UMLDoclet 2.1.2, PlantUML 1.2024.3</text><!--SRC=[fLB1QW8n4BttAmPBGMatLEbf4Q7K7WI5Kh4Nws7CZcjADjacwMAh_dlZhgvQnIBc4l9cvhsPbm40iEH0OK8sHKvzIj6WqmQKLdJbmp0L4G4bgVk6YI0PsRzeGcwgFPpZNAArK6bQyKDX_Q7ro6LVf7qocIJthjRuVKkRc6NQf2ZPM694pFeKmSaovB82QE5a1jlZXU5mxyscBf6Z4SppbbPdRXqwmPSGU1Q1yesC5LeDEkqGf5PncHXOaNPr79C9eRZBq2tNQYBY7YhCmrxoQHSf4wyZ_KgVNsHTTTlJ6gc5a6aHRKbj4UueuNnVtfrefyZpEvgvvupKNkMoC1l7rXdaxi3revP_O8OpjjPZVixSvWEKROjp4U5RC1E_6qVvky8wKcGkqjcGx7xOPhRbPHQTaeNc8WZEsRD_6Sj1cWl6pcRcjB8Q9bglha6lszPyrMQ3rLdZ3buaAkTHkCcAxQtMVW40]--></g></svg>