<?xml version="1.0" encoding="us-ascii" standalone="no"?><svg xmlns="http://www.w3.org/2000/svg" xmlns:xlink="http://www.w3.org/1999/xlink" contentStyleType="text/css" height="292px" preserveAspectRatio="none" style="width:315px;height:292px;background:#FFFFFF;" version="1.1" viewBox="0 0 315 292" width="315px" zoomAndPan="magnify"><defs/><g><!--class org.vorpal.blade.framework.deprecated.proxy.callflows.ProxyCancel--><a href="ProxyCancel.html" target="_top" title="ProxyCancel.html" xlink:actuate="onRequest" xlink:href="ProxyCancel.html" xlink:show="new" xlink:title="ProxyCancel.html" xlink:type="simple"><g id="elem_org.vorpal.blade.framework.deprecated.proxy.callflows.ProxyCancel"><rect codeLine="5" fill="#F1F1F1" height="136.707" id="org.vorpal.blade.framework.deprecated.proxy.callflows.ProxyCancel" rx="2.5" ry="2.5" style="stroke:#181818;stroke-width:0.5;" width="301" x="7" y="129.75"/><ellipse cx="22" cy="148.8828" fill="#ADD1B2" rx="11" ry="11" style="stroke:#181818;stroke-width:1.0;"/><path d="M24.4731,155.0259 Q23.8921,155.3247 23.2529,155.4741 Q22.6138,155.6235 21.9082,155.6235 Q19.4014,155.6235 18.0815,153.9717 Q16.7617,152.3198 16.7617,149.1987 Q16.7617,146.0693 18.0815,144.4175 Q19.4014,142.7656 21.9082,142.7656 Q22.6138,142.7656 23.2612,142.915 Q23.9087,143.0645 24.4731,143.3633 L24.4731,146.0859 Q23.8423,145.5049 23.2488,145.2351 Q22.6553,144.9653 22.0244,144.9653 Q20.6797,144.9653 19.9949,146.032 Q19.3101,147.0986 19.3101,149.1987 Q19.3101,151.2905 19.9949,152.3572 Q20.6797,153.4238 22.0244,153.4238 Q22.6553,153.4238 23.2488,153.1541 Q23.8423,152.8843 24.4731,152.3032 Z " fill="#000000"/><text fill="#000000" font-family="sans-serif" font-size="14" lengthAdjust="spacing" textLength="85" x="128" y="148.2852">ProxyCancel</text><text fill="#000000" font-family="sans-serif" font-size="10" lengthAdjust="spacing" textLength="269" x="36" y="160.9062">org.vorpal.blade.framework.deprecated.proxy.callflows</text><line style="stroke:#181818;stroke-width:0.5;" x1="8" x2="307" y1="168.0156" y2="168.0156"/><rect fill="none" height="6" style="stroke:#C82930;stroke-width:1.0;" width="6" x="15" y="178.7598"/><text fill="#000000" font-family="sans-serif" font-size="14" lengthAdjust="spacing" text-decoration="underline" textLength="152" x="27" y="185.5508">serialVersionUID: long</text><rect fill="none" height="6" style="stroke:#C82930;stroke-width:1.0;" width="6" x="15" y="195.248"/><text fill="#000000" font-family="sans-serif" font-size="14" lengthAdjust="spacing" textLength="207" x="27" y="202.0391">aliceCancel: SipServletRequest</text><rect fill="none" height="6" style="stroke:#C82930;stroke-width:1.0;" width="6" x="15" y="211.7363"/><text fill="#000000" font-family="sans-serif" font-size="14" lengthAdjust="spacing" textLength="198" x="27" y="218.5273">aliceInvite: SipServletRequest</text><rect fill="none" height="6" style="stroke:#C82930;stroke-width:1.0;" width="6" x="15" y="228.2246"/><text fill="#000000" font-family="sans-serif" font-size="14" lengthAdjust="spacing" textLength="194" x="27" y="235.0156">bobInvite: SipServletRequest</text><line style="stroke:#181818;stroke-width:0.5;" x1="8" x2="307" y1="241.9687" y2="241.9687"/><ellipse cx="18" cy="255.7129" fill="#84BE84" rx="3" ry="3" style="stroke:#038048;stroke-width:1.0;"/><text fill="#000000" font-family="sans-serif" font-size="14" lengthAdjust="spacing" textLength="222" x="27" y="259.5039">process(SipServletRequest): void</text></g></a><!--class org.vorpal.blade.framework.callflow.Callflow--><a href="../../../callflow/Callflow.html" target="_top" title="../../../callflow/Callflow.html" xlink:actuate="onRequest" xlink:href="../../../callflow/Callflow.html" xlink:show="new" xlink:title="../../../callflow/Callflow.html" xlink:type="simple"><g id="elem_org.vorpal.blade.framework.callflow.Callflow"><rect codeLine="13" fill="#F1F1F1" height="62.7539" id="org.vorpal.blade.framework.callflow.Callflow" rx="2.5" ry="2.5" style="stroke:#181818;stroke-width:0.5;" width="248" x="33.5" y="7"/><ellipse cx="66.5" cy="26.1328" fill="#A9DCDF" rx="11" ry="11" style="stroke:#181818;stroke-width:1.0;"/><path d="M66.3633,21.481 L65.2095,26.5527 L67.5254,26.5527 Z M64.8691,19.2397 L67.8657,19.2397 L71.2109,31.6328 L68.7622,31.6328 L67.9985,28.5698 L64.7197,28.5698 L63.9727,31.6328 L61.5239,31.6328 Z " fill="#000000"/><text fill="#000000" font-family="sans-serif" font-size="14" font-style="italic" lengthAdjust="spacing" textLength="55" x="145" y="25.5352">Callflow</text><text fill="#000000" font-family="sans-serif" font-size="10" font-style="italic" lengthAdjust="spacing" textLength="176" x="84.5" y="38.1563">org.vorpal.blade.framework.callflow</text><line style="stroke:#181818;stroke-width:0.5;" x1="34.5" x2="280.5" y1="45.2656" y2="45.2656"/><ellipse cx="44.5" cy="59.0098" fill="#84BE84" rx="3" ry="3" style="stroke:#038048;stroke-width:1.0;"/><text fill="#000000" font-family="sans-serif" font-size="14" font-style="italic" lengthAdjust="spacing" textLength="222" x="53.5" y="62.8008">process(SipServletRequest): void</text></g></a><!--reverse link org.vorpal.blade.framework.callflow.Callflow to org.vorpal.blade.framework.deprecated.proxy.callflows.ProxyCancel--><g id="link_org.vorpal.blade.framework.callflow.Callflow_org.vorpal.blade.framework.deprecated.proxy.callflows.ProxyCancel"><path codeLine="17" d="M157.5,88.16 C157.5,105.11 157.5,108.84 157.5,129.52 " fill="none" id="org.vorpal.blade.framework.callflow.Callflow-backto-org.vorpal.blade.framework.deprecated.proxy.callflows.ProxyCancel" style="stroke:#181818;stroke-width:1.0;"/><polygon fill="none" points="157.5,70.16,151.5,88.16,163.5,88.16,157.5,70.16" style="stroke:#181818;stroke-width:1.0;"/></g><text fill="#888888" font-family="sans-serif" font-size="10" lengthAdjust="spacing" textLength="176" x="62.5" y="282.125">UMLDoclet 2.1.2, PlantUML 1.2024.3</text><!--SRC=[fLB1JW8n4Btx5HCI4uXk4U9fGxZ0XKGJ8i4BSfZjpa9ZjrqxTH6HVtTXMKF0Y6ZJfEcRDvCtRmO0WCc3mPGuGqaZoj2XjmwCDNHHX66kOW9ACx-4H96E-H1DoSzj0MzngP4PQXrMxnIsRhj3Pz-MFJIIz9FPeJTTwsOYjov3BIADCOd45GeMrZsBc3974Zt58jla2ebQ9zekk0R8yATCiQS29fEzdvZxL4-diDgAtvmLU_HAhY5WSWhr8pbMrem7_H2qDRClOe1QIIhBX31IsOXShia_qCihiJ_W3KokFFt8YsnqcdLLj2Q9kNv4QOIGMnLlcUjo61YnToZzqLHwEsT-DvBAnrC3g7YYAbzuBKIpl5MmMGM_iRxIkpwlpRCaTJw2uFzRLEuw6KyE4citp_Z-hczb8HJQeYNQrp3KQ7o1mcLUxb2zyGa0]--></g></svg>