<?xml version="1.0" encoding="us-ascii" standalone="no"?><svg xmlns="http://www.w3.org/2000/svg" xmlns:xlink="http://www.w3.org/1999/xlink" contentStyleType="text/css" height="1153px" preserveAspectRatio="none" style="width:798px;height:1153px;background:#FFFFFF;" version="1.1" viewBox="0 0 798 1153" width="798px" zoomAndPan="magnify"><defs/><g><!--cluster org.vorpal.blade.services.crud2.b2bua--><g id="cluster_org.vorpal.blade.services.crud2.b2bua"><path d="M36.76,590.67 L302.76,590.67 A3.75,3.75 0 0 1 305.26,593.17 L312.26,613.1583 L788.76,613.1583 A2.5,2.5 0 0 1 791.26,615.6583 L791.26,1124.94 A2.5,2.5 0 0 1 788.76,1127.44 L36.76,1127.44 A2.5,2.5 0 0 1 34.26,1124.94 L34.26,593.17 A2.5,2.5 0 0 1 36.76,590.67 " fill="none" style="stroke:#000000;stroke-width:1.5;"/><line style="stroke:#000000;stroke-width:1.5;" x1="34.26" x2="312.26" y1="613.1583" y2="613.1583"/><text fill="#000000" font-family="sans-serif" font-size="14" font-weight="bold" lengthAdjust="spacing" textLength="265" x="38.26" y="606.2052">org.vorpal.blade.services.crud2.b2bua</text></g><!--cluster org.vorpal.blade.framework.callflow--><g id="cluster_org.vorpal.blade.framework.callflow"><path d="M203.76,6 L459.76,6 A3.75,3.75 0 0 1 462.26,8.5 L469.26,28.4883 L522.76,28.4883 A2.5,2.5 0 0 1 525.26,30.9883 L525.26,564.17 A2.5,2.5 0 0 1 522.76,566.67 L203.76,566.67 A2.5,2.5 0 0 1 201.26,564.17 L201.26,8.5 A2.5,2.5 0 0 1 203.76,6 " fill="none" style="stroke:#000000;stroke-width:1.5;"/><line style="stroke:#000000;stroke-width:1.5;" x1="201.26" x2="469.26" y1="28.4883" y2="28.4883"/><text fill="#000000" font-family="sans-serif" font-size="14" font-weight="bold" lengthAdjust="spacing" textLength="255" x="205.26" y="21.5352">org.vorpal.blade.framework.callflow</text></g><!--class CallflowListener--><a href="CallflowListener.html" target="_top" title="CallflowListener.html" xlink:actuate="onRequest" xlink:href="CallflowListener.html" xlink:show="new" xlink:title="CallflowListener.html" xlink:type="simple"><g id="elem_CallflowListener"><rect codeLine="5" fill="#F1F1F1" height="64.4883" id="CallflowListener" rx="2.5" ry="2.5" style="stroke:#181818;stroke-width:0.5;" width="442" x="50.26" y="625.67"/><ellipse cx="212.51" cy="641.67" fill="#B4A7E5" rx="11" ry="11" style="stroke:#181818;stroke-width:1.0;"/><path d="M208.9377,637.9351 L208.9377,635.7769 L216.3171,635.7769 L216.3171,637.9351 L213.8518,637.9351 L213.8518,646.0118 L216.3171,646.0118 L216.3171,648.17 L208.9377,648.17 L208.9377,646.0118 L211.4031,646.0118 L211.4031,637.9351 Z " fill="#000000"/><text fill="#000000" font-family="sans-serif" font-size="14" font-style="italic" lengthAdjust="spacing" textLength="109" x="233.01" y="646.961">CallflowListener</text><line style="stroke:#181818;stroke-width:0.5;" x1="51.26" x2="491.26" y1="657.67" y2="657.67"/><line style="stroke:#181818;stroke-width:0.5;" x1="51.26" x2="491.26" y1="665.67" y2="665.67"/><ellipse cx="61.26" cy="679.4141" fill="#84BE84" rx="3" ry="3" style="stroke:#038048;stroke-width:1.0;"/><text fill="#000000" font-family="sans-serif" font-size="14" font-style="italic" lengthAdjust="spacing" textLength="416" x="70.26" y="683.2052">zzCreateInitialRequest(SipServletRequest): SipServletRequest</text></g></a><!--class InitialInvite--><a href="InitialInvite.html" target="_top" title="InitialInvite.html" xlink:actuate="onRequest" xlink:href="InitialInvite.html" xlink:show="new" xlink:title="InitialInvite.html" xlink:type="simple"><g id="elem_InitialInvite"><rect codeLine="9" fill="#F1F1F1" height="361.2773" id="InitialInvite" rx="2.5" ry="2.5" style="stroke:#181818;stroke-width:0.5;" width="442" x="50.26" y="750.16"/><ellipse cx="229.51" cy="766.16" fill="#ADD1B2" rx="11" ry="11" style="stroke:#181818;stroke-width:1.0;"/><path d="M231.9831,772.3031 Q231.4021,772.6019 230.7629,772.7513 Q230.1238,772.9007 229.4182,772.9007 Q226.9114,772.9007 225.5915,771.2489 Q224.2717,769.597 224.2717,766.4759 Q224.2717,763.3465 225.5915,761.6947 Q226.9114,760.0428 229.4182,760.0428 Q230.1238,760.0428 230.7712,760.1922 Q231.4187,760.3416 231.9831,760.6405 L231.9831,763.3631 Q231.3523,762.7821 230.7588,762.5123 Q230.1653,762.2425 229.5344,762.2425 Q228.1897,762.2425 227.5049,763.3092 Q226.8201,764.3758 226.8201,766.4759 Q226.8201,768.5677 227.5049,769.6344 Q228.1897,770.701 229.5344,770.701 Q230.1653,770.701 230.7588,770.4312 Q231.3523,770.1615 231.9831,769.5804 Z " fill="#000000"/><text fill="#000000" font-family="sans-serif" font-size="14" lengthAdjust="spacing" textLength="75" x="250.01" y="771.451">InitialInvite</text><line style="stroke:#181818;stroke-width:0.5;" x1="51.26" x2="491.26" y1="782.16" y2="782.16"/><polygon fill="none" points="61.26,791.9041,57.26,797.9041,65.26,797.9041" style="stroke:#1963A0;stroke-width:1.0;"/><text fill="#000000" font-family="sans-serif" font-size="14" lengthAdjust="spacing" text-decoration="underline" textLength="152" x="70.26" y="799.6952">serialVersionUID: long</text><rect fill="none" height="6" style="stroke:#C82930;stroke-width:1.0;" width="6" x="58.26" y="809.3924"/><text fill="#000000" font-family="sans-serif" font-size="14" lengthAdjust="spacing" textLength="216" x="70.26" y="816.1834">aliceRequest: SipServletRequest</text><rect fill="none" height="6" style="stroke:#C82930;stroke-width:1.0;" width="6" x="58.26" y="825.8807"/><text fill="#000000" font-family="sans-serif" font-size="14" lengthAdjust="spacing" textLength="212" x="70.26" y="832.6717">bobRequest: SipServletRequest</text><rect fill="none" height="6" style="stroke:#C82930;stroke-width:1.0;" width="6" x="58.26" y="842.369"/><text fill="#000000" font-family="sans-serif" font-size="14" lengthAdjust="spacing" textLength="203" x="70.26" y="849.16">b2buaListener: B2buaListener</text><rect fill="none" height="6" style="stroke:#C82930;stroke-width:1.0;" width="6" x="58.26" y="858.8573"/><text fill="#000000" font-family="sans-serif" font-size="14" lengthAdjust="spacing" textLength="158" x="70.26" y="865.6483">doNotProcess: boolean</text><line style="stroke:#181818;stroke-width:0.5;" x1="51.26" x2="491.26" y1="872.6014" y2="872.6014"/><ellipse cx="61.26" cy="886.3455" fill="#84BE84" rx="3" ry="3" style="stroke:#038048;stroke-width:1.0;"/><text fill="#000000" font-family="sans-serif" font-size="14" lengthAdjust="spacing" textLength="85" x="70.26" y="890.1366">InitialInvite()</text><ellipse cx="61.26" cy="902.8338" fill="#84BE84" rx="3" ry="3" style="stroke:#038048;stroke-width:1.0;"/><text fill="#000000" font-family="sans-serif" font-size="14" lengthAdjust="spacing" textLength="182" x="70.26" y="906.6248">InitialInvite(B2buaListener)</text><ellipse cx="61.26" cy="919.3221" fill="#84BE84" rx="3" ry="3" style="stroke:#038048;stroke-width:1.0;"/><text fill="#000000" font-family="sans-serif" font-size="14" lengthAdjust="spacing" text-decoration="underline" textLength="316" x="70.26" y="923.1131">setSessionExpiration(SipServletMessage): void</text><ellipse cx="61.26" cy="935.8104" fill="#84BE84" rx="3" ry="3" style="stroke:#038048;stroke-width:1.0;"/><text fill="#000000" font-family="sans-serif" font-size="14" lengthAdjust="spacing" textLength="163" x="70.26" y="939.6014">processContinue(): void</text><ellipse cx="61.26" cy="952.2987" fill="#84BE84" rx="3" ry="3" style="stroke:#038048;stroke-width:1.0;"/><text fill="#000000" font-family="sans-serif" font-size="14" lengthAdjust="spacing" textLength="222" x="70.26" y="956.0897">process(SipServletRequest): void</text><ellipse cx="61.26" cy="968.787" fill="#84BE84" rx="3" ry="3" style="stroke:#038048;stroke-width:1.0;"/><text fill="#000000" font-family="sans-serif" font-size="14" lengthAdjust="spacing" textLength="275" x="70.26" y="972.578">getInboundRequest(): SipServletRequest</text><ellipse cx="61.26" cy="985.2752" fill="#84BE84" rx="3" ry="3" style="stroke:#038048;stroke-width:1.0;"/><text fill="#000000" font-family="sans-serif" font-size="14" lengthAdjust="spacing" textLength="348" x="70.26" y="989.0663">setInboundRequest(SipServletRequest): InitialInvite</text><ellipse cx="61.26" cy="1001.7635" fill="#84BE84" rx="3" ry="3" style="stroke:#038048;stroke-width:1.0;"/><text fill="#000000" font-family="sans-serif" font-size="14" lengthAdjust="spacing" textLength="287" x="70.26" y="1005.5545">getOutboundRequest(): SipServletRequest</text><ellipse cx="61.26" cy="1018.2518" fill="#84BE84" rx="3" ry="3" style="stroke:#038048;stroke-width:1.0;"/><text fill="#000000" font-family="sans-serif" font-size="14" lengthAdjust="spacing" textLength="360" x="70.26" y="1022.0428">setOutboundRequest(SipServletRequest): InitialInvite</text><ellipse cx="61.26" cy="1034.7401" fill="#84BE84" rx="3" ry="3" style="stroke:#038048;stroke-width:1.0;"/><text fill="#000000" font-family="sans-serif" font-size="14" lengthAdjust="spacing" textLength="234" x="70.26" y="1038.5311">getB2buaListener(): B2buaListener</text><ellipse cx="61.26" cy="1051.2284" fill="#84BE84" rx="3" ry="3" style="stroke:#038048;stroke-width:1.0;"/><text fill="#000000" font-family="sans-serif" font-size="14" lengthAdjust="spacing" textLength="261" x="70.26" y="1055.0194">setB2buaListener(B2buaListener): void</text><ellipse cx="61.26" cy="1067.7166" fill="#84BE84" rx="3" ry="3" style="stroke:#038048;stroke-width:1.0;"/><text fill="#000000" font-family="sans-serif" font-size="14" lengthAdjust="spacing" textLength="180" x="70.26" y="1071.5077">isDoNotProcess(): boolean</text><ellipse cx="61.26" cy="1084.2049" fill="#84BE84" rx="3" ry="3" style="stroke:#038048;stroke-width:1.0;"/><text fill="#000000" font-family="sans-serif" font-size="14" lengthAdjust="spacing" textLength="218" x="70.26" y="1087.9959">setDoNotProcess(boolean): void</text><ellipse cx="61.26" cy="1100.6932" fill="#84BE84" rx="3" ry="3" style="stroke:#038048;stroke-width:1.0;"/><text fill="#000000" font-family="sans-serif" font-size="14" lengthAdjust="spacing" textLength="416" x="70.26" y="1104.4842">zzCreateInitialRequest(SipServletRequest): SipServletRequest</text></g></a><!--class AsyncB2bua--><a href="AsyncB2bua.html" target="_top" title="AsyncB2bua.html" xlink:actuate="onRequest" xlink:href="AsyncB2bua.html" xlink:show="new" xlink:title="AsyncB2bua.html" xlink:type="simple"><g id="elem_AsyncB2bua"><rect codeLine="31" fill="#F1F1F1" height="64.4883" id="AsyncB2bua" rx="2.5" ry="2.5" style="stroke:#181818;stroke-width:0.5;" width="248" x="527.26" y="625.67"/><ellipse cx="605.51" cy="641.67" fill="#ADD1B2" rx="11" ry="11" style="stroke:#181818;stroke-width:1.0;"/><path d="M607.9831,647.8131 Q607.4021,648.1119 606.7629,648.2613 Q606.1238,648.4107 605.4182,648.4107 Q602.9114,648.4107 601.5915,646.7589 Q600.2717,645.107 600.2717,641.9859 Q600.2717,638.8565 601.5915,637.2047 Q602.9114,635.5528 605.4182,635.5528 Q606.1238,635.5528 606.7712,635.7022 Q607.4187,635.8516 607.9831,636.1505 L607.9831,638.8731 Q607.3523,638.2921 606.7588,638.0223 Q606.1653,637.7525 605.5344,637.7525 Q604.1897,637.7525 603.5049,638.8192 Q602.8201,639.8858 602.8201,641.9859 Q602.8201,644.0777 603.5049,645.1444 Q604.1897,646.211 605.5344,646.211 Q606.1653,646.211 606.7588,645.9412 Q607.3523,645.6715 607.9831,645.0904 Z " fill="#000000"/><text fill="#000000" font-family="sans-serif" font-size="14" lengthAdjust="spacing" textLength="83" x="626.01" y="646.961">AsyncB2bua</text><line style="stroke:#181818;stroke-width:0.5;" x1="528.26" x2="774.26" y1="657.67" y2="657.67"/><line style="stroke:#181818;stroke-width:0.5;" x1="528.26" x2="774.26" y1="665.67" y2="665.67"/><ellipse cx="538.26" cy="679.4141" fill="#84BE84" rx="3" ry="3" style="stroke:#038048;stroke-width:1.0;"/><text fill="#000000" font-family="sans-serif" font-size="14" lengthAdjust="spacing" textLength="222" x="547.26" y="683.2052">process(SipServletRequest): void</text></g></a><!--class Callflow--><a href="https://vorpalnet.github.io/blade/vorpal-blade-library-framework/org/vorpal/blade/framework/callflow/Callflow.html?is-external=true" target="_top" title="https://vorpalnet.github.io/blade/vorpal-blade-library-framework/org/vorpal/blade/framework/callflow/Callflow.html?is-external=true" xlink:actuate="onRequest" xlink:href="https://vorpalnet.github.io/blade/vorpal-blade-library-framework/org/vorpal/blade/framework/callflow/Callflow.html?is-external=true" xlink:show="new" xlink:title="https://vorpalnet.github.io/blade/vorpal-blade-library-framework/org/vorpal/blade/framework/callflow/Callflow.html?is-external=true" xlink:type="simple"><g id="elem_Callflow"><rect codeLine="38" fill="#F1F1F1" height="509.6719" id="Callflow" rx="2.5" ry="2.5" style="stroke:#181818;stroke-width:0.5;" width="291" x="217.76" y="41"/><ellipse cx="331.51" cy="57" fill="#A9DCDF" rx="11" ry="11" style="stroke:#181818;stroke-width:1.0;"/><path d="M331.3733,52.3481 L330.2195,57.4199 L332.5354,57.4199 Z M329.8791,50.1069 L332.8757,50.1069 L336.2209,62.5 L333.7722,62.5 L333.0085,59.437 L329.7297,59.437 L328.9827,62.5 L326.5339,62.5 Z " fill="#000000"/><text fill="#000000" font-family="sans-serif" font-size="14" font-style="italic" lengthAdjust="spacing" textLength="55" x="352.01" y="62.291">Callflow</text><line style="stroke:#181818;stroke-width:0.5;" x1="218.76" x2="507.76" y1="73" y2="73"/><rect fill="none" height="6" style="stroke:#C82930;stroke-width:1.0;" width="6" x="225.76" y="83.7441"/><text fill="#000000" font-family="sans-serif" font-size="14" lengthAdjust="spacing" text-decoration="underline" textLength="152" x="237.76" y="90.5352">serialVersionUID: long</text><polygon fill="none" points="228.76,98.2324,232.76,102.2324,228.76,106.2324,224.76,102.2324" style="stroke:#B38D22;stroke-width:1.0;"/><text fill="#000000" font-family="sans-serif" font-size="14" lengthAdjust="spacing" text-decoration="underline" textLength="149" x="237.76" y="107.0234">sipFactory: SipFactory</text><polygon fill="none" points="228.76,114.7207,232.76,118.7207,228.76,122.7207,224.76,118.7207" style="stroke:#B38D22;stroke-width:1.0;"/><text fill="#000000" font-family="sans-serif" font-size="14" lengthAdjust="spacing" text-decoration="underline" textLength="154" x="237.76" y="123.5117">sipUtil: SipSessionsUtil</text><polygon fill="none" points="228.76,131.209,232.76,135.209,228.76,139.209,224.76,135.209" style="stroke:#B38D22;stroke-width:1.0;"/><text fill="#000000" font-family="sans-serif" font-size="14" lengthAdjust="spacing" text-decoration="underline" textLength="180" x="237.76" y="140">timerService: TimerService</text><polygon fill="none" points="228.76,147.6973,232.76,151.6973,228.76,155.6973,224.76,151.6973" style="stroke:#B38D22;stroke-width:1.0;"/><text fill="#000000" font-family="sans-serif" font-size="14" lengthAdjust="spacing" text-decoration="underline" textLength="124" x="237.76" y="156.4883">sipLogger: Logger</text><polygon fill="none" points="228.76,164.1855,232.76,168.1855,228.76,172.1855,224.76,168.1855" style="stroke:#B38D22;stroke-width:1.0;"/><text fill="#000000" font-family="sans-serif" font-size="14" lengthAdjust="spacing" text-decoration="underline" textLength="265" x="237.76" y="172.9766">sessionParameters: SessionParameters</text><polygon fill="none" points="228.76,180.6738,232.76,184.6738,228.76,188.6738,224.76,184.6738" style="stroke:#B38D22;stroke-width:1.0;"/><text fill="#000000" font-family="sans-serif" font-size="14" lengthAdjust="spacing" text-decoration="underline" textLength="93" x="237.76" y="189.4648">INVITE: String</text><polygon fill="none" points="228.76,197.1621,232.76,201.1621,228.76,205.1621,224.76,201.1621" style="stroke:#B38D22;stroke-width:1.0;"/><text fill="#000000" font-family="sans-serif" font-size="14" lengthAdjust="spacing" text-decoration="underline" textLength="78" x="237.76" y="205.9531">ACK: String</text><polygon fill="none" points="228.76,213.6504,232.76,217.6504,228.76,221.6504,224.76,217.6504" style="stroke:#B38D22;stroke-width:1.0;"/><text fill="#000000" font-family="sans-serif" font-size="14" lengthAdjust="spacing" text-decoration="underline" textLength="74" x="237.76" y="222.4414">BYE: String</text><polygon fill="none" points="228.76,230.1387,232.76,234.1387,228.76,238.1387,224.76,234.1387" style="stroke:#B38D22;stroke-width:1.0;"/><text fill="#000000" font-family="sans-serif" font-size="14" lengthAdjust="spacing" text-decoration="underline" textLength="104" x="237.76" y="238.9297">CANCEL: String</text><polygon fill="none" points="228.76,246.627,232.76,250.627,228.76,254.627,224.76,250.627" style="stroke:#B38D22;stroke-width:1.0;"/><text fill="#000000" font-family="sans-serif" font-size="14" lengthAdjust="spacing" text-decoration="underline" textLength="114" x="237.76" y="255.418">REGISTER: String</text><polygon fill="none" points="228.76,263.1152,232.76,267.1152,228.76,271.1152,224.76,267.1152" style="stroke:#B38D22;stroke-width:1.0;"/><text fill="#000000" font-family="sans-serif" font-size="14" lengthAdjust="spacing" text-decoration="underline" textLength="110" x="237.76" y="271.9063">OPTIONS: String</text><polygon fill="none" points="228.76,279.6035,232.76,283.6035,228.76,287.6035,224.76,283.6035" style="stroke:#B38D22;stroke-width:1.0;"/><text fill="#000000" font-family="sans-serif" font-size="14" lengthAdjust="spacing" text-decoration="underline" textLength="95" x="237.76" y="288.3945">PRACK: String</text><polygon fill="none" points="228.76,296.0918,232.76,300.0918,228.76,304.0918,224.76,300.0918" style="stroke:#B38D22;stroke-width:1.0;"/><text fill="#000000" font-family="sans-serif" font-size="14" lengthAdjust="spacing" text-decoration="underline" textLength="122" x="237.76" y="304.8828">SUBSCRIBE: String</text><polygon fill="none" points="228.76,312.5801,232.76,316.5801,228.76,320.5801,224.76,316.5801" style="stroke:#B38D22;stroke-width:1.0;"/><text fill="#000000" font-family="sans-serif" font-size="14" lengthAdjust="spacing" text-decoration="underline" textLength="100" x="237.76" y="321.3711">NOTIFY: String</text><polygon fill="none" points="228.76,329.0684,232.76,333.0684,228.76,337.0684,224.76,333.0684" style="stroke:#B38D22;stroke-width:1.0;"/><text fill="#000000" font-family="sans-serif" font-size="14" lengthAdjust="spacing" text-decoration="underline" textLength="104" x="237.76" y="337.8594">PUBLISH: String</text><polygon fill="none" points="228.76,345.5566,232.76,349.5566,228.76,353.5566,224.76,349.5566" style="stroke:#B38D22;stroke-width:1.0;"/><text fill="#000000" font-family="sans-serif" font-size="14" lengthAdjust="spacing" text-decoration="underline" textLength="82" x="237.76" y="354.3477">INFO: String</text><polygon fill="none" points="228.76,362.0449,232.76,366.0449,228.76,370.0449,224.76,366.0449" style="stroke:#B38D22;stroke-width:1.0;"/><text fill="#000000" font-family="sans-serif" font-size="14" lengthAdjust="spacing" text-decoration="underline" textLength="104" x="237.76" y="370.8359">UPDATE: String</text><polygon fill="none" points="228.76,378.5332,232.76,382.5332,228.76,386.5332,224.76,382.5332" style="stroke:#B38D22;stroke-width:1.0;"/><text fill="#000000" font-family="sans-serif" font-size="14" lengthAdjust="spacing" text-decoration="underline" textLength="91" x="237.76" y="387.3242">REFER: String</text><polygon fill="none" points="228.76,395.0215,232.76,399.0215,228.76,403.0215,224.76,399.0215" style="stroke:#B38D22;stroke-width:1.0;"/><text fill="#000000" font-family="sans-serif" font-size="14" lengthAdjust="spacing" text-decoration="underline" textLength="69" x="237.76" y="403.8125">SIP: String</text><polygon fill="none" points="228.76,411.5098,232.76,415.5098,228.76,419.5098,224.76,415.5098" style="stroke:#B38D22;stroke-width:1.0;"/><text fill="#000000" font-family="sans-serif" font-size="14" lengthAdjust="spacing" text-decoration="underline" textLength="102" x="237.76" y="420.3008">Contact: String</text><polygon fill="none" points="228.76,427.998,232.76,431.998,228.76,435.998,224.76,431.998" style="stroke:#B38D22;stroke-width:1.0;"/><text fill="#000000" font-family="sans-serif" font-size="14" lengthAdjust="spacing" text-decoration="underline" textLength="110" x="237.76" y="436.7891">RELIABLE: String</text><polygon fill="none" points="228.76,444.4863,232.76,448.4863,228.76,452.4863,224.76,448.4863" style="stroke:#B38D22;stroke-width:1.0;"/><text fill="#000000" font-family="sans-serif" font-size="14" lengthAdjust="spacing" text-decoration="underline" textLength="197" x="237.76" y="453.2773">REQUEST_CALLBACK_: String</text><polygon fill="none" points="228.76,460.9746,232.76,464.9746,228.76,468.9746,224.76,464.9746" style="stroke:#B38D22;stroke-width:1.0;"/><text fill="#000000" font-family="sans-serif" font-size="14" lengthAdjust="spacing" text-decoration="underline" textLength="204" x="237.76" y="469.7656">RESPONSE_CALLBACK_: String</text><polygon fill="none" points="228.76,477.4629,232.76,481.4629,228.76,485.4629,224.76,481.4629" style="stroke:#B38D22;stroke-width:1.0;"/><text fill="#000000" font-family="sans-serif" font-size="14" lengthAdjust="spacing" text-decoration="underline" textLength="161" x="237.76" y="486.2539">LINKED_SESSION: String</text><polygon fill="none" points="228.76,493.9512,232.76,497.9512,228.76,501.9512,224.76,497.9512" style="stroke:#B38D22;stroke-width:1.0;"/><text fill="#000000" font-family="sans-serif" font-size="14" lengthAdjust="spacing" text-decoration="underline" textLength="181" x="237.76" y="502.7422">DELAYED_REQUEST: String</text><polygon fill="none" points="228.76,510.4395,232.76,514.4395,228.76,518.4395,224.76,514.4395" style="stroke:#B38D22;stroke-width:1.0;"/><text fill="#000000" font-family="sans-serif" font-size="14" lengthAdjust="spacing" text-decoration="underline" textLength="199" x="237.76" y="519.2305">WITHHOLD_RESPONSE: String</text><line style="stroke:#181818;stroke-width:0.5;" x1="218.76" x2="507.76" y1="526.1836" y2="526.1836"/><ellipse cx="228.76" cy="539.9277" fill="#84BE84" rx="3" ry="3" style="stroke:#038048;stroke-width:1.0;"/><text fill="#000000" font-family="sans-serif" font-size="14" font-style="italic" lengthAdjust="spacing" textLength="222" x="237.76" y="543.7188">process(SipServletRequest): void</text></g></a><!--reverse link Callflow to InitialInvite--><g id="link_Callflow_InitialInvite"><path codeLine="70" d="M202.6491,391.1998 C132.7391,440.1898 70.73,498.62 32.26,582.67 C6,640.06 24.56,698.18 60.72,750.02 " fill="none" id="Callflow-backto-InitialInvite" style="stroke:#181818;stroke-width:1.0;"/><polygon fill="none" points="217.39,380.87,199.2058,386.2862,206.0924,396.1135,217.39,380.87" style="stroke:#181818;stroke-width:1.0;"/></g><!--reverse link CallflowListener to InitialInvite--><g id="link_CallflowListener_InitialInvite"><path codeLine="71" d="M271.26,708.52 C271.26,724.43 271.26,727.12 271.26,749.67 " fill="none" id="CallflowListener-backto-InitialInvite" style="stroke:#181818;stroke-width:1.0;stroke-dasharray:7.0,7.0;"/><polygon fill="none" points="271.26,690.52,265.26,708.52,277.26,708.52,271.26,690.52" style="stroke:#181818;stroke-width:1.0;"/></g><!--reverse link Callflow to AsyncB2bua--><g id="link_Callflow_AsyncB2bua"><path codeLine="72" d="M520.4033,493.3066 C565.5633,549.7666 599.23,591.86 626.12,625.48 " fill="none" id="Callflow-backto-AsyncB2bua" style="stroke:#181818;stroke-width:1.0;"/><polygon fill="none" points="509.16,479.25,515.7178,497.0544,525.0888,489.5588,509.16,479.25" style="stroke:#181818;stroke-width:1.0;"/></g><text fill="#888888" font-family="sans-serif" font-size="10" lengthAdjust="spacing" textLength="176" x="304.13" y="1143.108">UMLDoclet 2.1.2, PlantUML 1.2024.3</text><!--SRC=[jLPjRzem4Fw-Ns5fcbJK9MXyZ3fD4C8QDOMCGAUggYed66erZJFReQ_ij-_o0YIGr5Jg8Y5Y-xbx7jzTpaO88K4a_6BCiMGS6SQdJp29OXpSuGL1Z2_q9UCn3dK_n3EY2yAND2123tWow-X-nqymUicDqeT6al0v3WWoSHZEG_RWK259H3YwkjgTqc_bVNXz3VQezBnWNqYE0xb2ny_F9YTO4ZkYak9mJFuaHCWZZyOU20c9B6PQ1jgRspXTRUK58HO25TxiQ4ab0LsLSOCe8R6amGhzXGW0ze9mGLaqjVi62bcqg80r74AC2XblASl0FlCFXgRXNaVFGBtoi8gSiI6JBcUGAc4Wdx6GuAW2EQxi-gZrrcA5g5KVc6Ee90_O82hMOqoXdk2jbAbpM8EIWamj6PrLsU9SgCaYIQC4nBm1gat-Fdf1f1tvB8bcww9fgSARxc37fewh4fezqb4Yty-wQ_H-sag6KjBcsaW9g_1gUkkYIKM_L52f_zgI0iyLN06gTVb_FkskU8g2R3_mNMy7zH_ruILLyAmKtN7EyJrvOFnE3ufMLs9SjxL2wRePWivRAMDXjDkvhuX8VK7bRUBhbBKpnyMAbWsqaFeSyoTjmzO68GMam6-NraBQQxui53-eqCWZjEe8XzybJqXpmzCEQ7WRy6T1um7iaV6dB6t5UpDuAcbO93Xh7IATQ81BUa-ubnz01fgKHit-7RPOfAqo_s_2vTmkJgC6GO6EwUrEDPZQmmjxOW5USjeObAvvfa3qBbK-pExGj1m5Q6pzjBs9DLR0Hkx47Wqz1SeTgtLxqvvdZksUIlrmDB47boh2QS-nlLC5oXuEHWh8rErtbKaPMmDbe3pRLQK5ZYoeSIMNOtTxZbhIhwdbJMxChkFq8FWtIhpdGXwjWmqSUtXczMyyo_EW01JWlkLqBm5Tg5AWVzkJqzEHay9pKVNuqjtk7Sstr7iFwBc6iUcj9w-QTjWbrZ3s3zW33VTkkYUlklw1h1-sm-rvc1459BsiepbZwT_qtEcp0BA0EletlVCLkI6E9CoYBykyzn-r_W40]--></g></svg>