<?xml version="1.0" encoding="us-ascii" standalone="no"?><svg xmlns="http://www.w3.org/2000/svg" xmlns:xlink="http://www.w3.org/1999/xlink" contentStyleType="text/css" height="300px" preserveAspectRatio="none" style="width:303px;height:300px;background:#FFFFFF;" version="1.1" viewBox="0 0 303 300" width="303px" zoomAndPan="magnify"><defs/><g><!--class org.vorpal.blade.services.crud.Delete--><a href="Delete.html" target="_top" title="Delete.html" xlink:actuate="onRequest" xlink:href="Delete.html" xlink:show="new" xlink:title="Delete.html" xlink:type="simple"><g id="elem_org.vorpal.blade.services.crud.Delete"><rect codeLine="5" fill="#F1F1F1" height="169.6836" id="org.vorpal.blade.services.crud.Delete" rx="2.5" ry="2.5" style="stroke:#181818;stroke-width:0.5;" width="289" x="7" y="105.27"/><ellipse cx="74.75" cy="124.4028" fill="#ADD1B2" rx="11" ry="11" style="stroke:#181818;stroke-width:1.0;"/><path d="M77.2231,130.5459 Q76.6421,130.8447 76.0029,130.9941 Q75.3638,131.1435 74.6582,131.1435 Q72.1514,131.1435 70.8315,129.4917 Q69.5117,127.8398 69.5117,124.7187 Q69.5117,121.5893 70.8315,119.9375 Q72.1514,118.2856 74.6582,118.2856 Q75.3638,118.2856 76.0112,118.435 Q76.6587,118.5845 77.2231,118.8833 L77.2231,121.6059 Q76.5923,121.0249 75.9988,120.7551 Q75.4053,120.4853 74.7744,120.4853 Q73.4297,120.4853 72.7449,121.552 Q72.0601,122.6186 72.0601,124.7187 Q72.0601,126.8105 72.7449,127.8772 Q73.4297,128.9438 74.7744,128.9438 Q75.4053,128.9438 75.9988,128.6741 Q76.5923,128.4043 77.2231,127.8232 Z " fill="#000000"/><text fill="#000000" font-family="sans-serif" font-size="14" lengthAdjust="spacing" textLength="43" x="146.25" y="123.8052">Delete</text><text fill="#000000" font-family="sans-serif" font-size="10" lengthAdjust="spacing" textLength="145" x="95.25" y="136.4262">org.vorpal.blade.services.crud</text><line style="stroke:#181818;stroke-width:0.5;" x1="8" x2="295" y1="143.5356" y2="143.5356"/><ellipse cx="18" cy="157.2798" fill="none" rx="3" ry="3" style="stroke:#038048;stroke-width:1.0;"/><text fill="#000000" font-family="sans-serif" font-size="14" lengthAdjust="spacing" textLength="62" x="27" y="161.0708">id: String</text><rect fill="none" height="6" style="stroke:#C82930;stroke-width:1.0;" width="6" x="15" y="170.768"/><text fill="#000000" font-family="sans-serif" font-size="14" lengthAdjust="spacing" textLength="107" x="27" y="177.5591">pattern: Pattern</text><ellipse cx="18" cy="190.2563" fill="none" rx="3" ry="3" style="stroke:#038048;stroke-width:1.0;"/><text fill="#000000" font-family="sans-serif" font-size="14" lengthAdjust="spacing" textLength="108" x="27" y="194.0473">attribute: String</text><ellipse cx="18" cy="206.7446" fill="none" rx="3" ry="3" style="stroke:#038048;stroke-width:1.0;"/><text fill="#000000" font-family="sans-serif" font-size="14" lengthAdjust="spacing" textLength="125" x="27" y="210.5356">expression: String</text><line style="stroke:#181818;stroke-width:0.5;" x1="8" x2="295" y1="217.4887" y2="217.4887"/><ellipse cx="18" cy="231.2329" fill="#84BE84" rx="3" ry="3" style="stroke:#038048;stroke-width:1.0;"/><text fill="#000000" font-family="sans-serif" font-size="14" lengthAdjust="spacing" textLength="53" x="27" y="235.0239">Delete()</text><ellipse cx="18" cy="247.7212" fill="#84BE84" rx="3" ry="3" style="stroke:#038048;stroke-width:1.0;"/><text fill="#000000" font-family="sans-serif" font-size="14" lengthAdjust="spacing" textLength="143" x="27" y="251.5122">Delete(String, String)</text><ellipse cx="18" cy="264.2095" fill="#84BE84" rx="3" ry="3" style="stroke:#038048;stroke-width:1.0;"/><text fill="#000000" font-family="sans-serif" font-size="14" lengthAdjust="spacing" textLength="263" x="27" y="268.0005">process(Map, SipServletMessage): void</text></g></a><!--class java.io.Serializable--><a href="https://docs.oracle.com/en/java/javase/11/docs/api/java.base/java/io/Serializable.html?is-external=true" target="_top" title="https://docs.oracle.com/en/java/javase/11/docs/api/java.base/java/io/Serializable.html?is-external=true" xlink:actuate="onRequest" xlink:href="https://docs.oracle.com/en/java/javase/11/docs/api/java.base/java/io/Serializable.html?is-external=true" xlink:show="new" xlink:title="https://docs.oracle.com/en/java/javase/11/docs/api/java.base/java/io/Serializable.html?is-external=true" xlink:type="simple"><g id="elem_java.io.Serializable"><rect codeLine="15" fill="#F1F1F1" height="38.2656" id="java.io.Serializable" rx="2.5" ry="2.5" style="stroke:#181818;stroke-width:0.5;" width="111" x="96" y="7"/><ellipse cx="111" cy="26.1328" fill="#B4A7E5" rx="11" ry="11" style="stroke:#181818;stroke-width:1.0;"/><path d="M107.4277,22.3979 L107.4277,20.2397 L114.8071,20.2397 L114.8071,22.3979 L112.3418,22.3979 L112.3418,30.4746 L114.8071,30.4746 L114.8071,32.6328 L107.4277,32.6328 L107.4277,30.4746 L109.8931,30.4746 L109.8931,22.3979 Z " fill="#000000"/><text fill="#000000" font-family="sans-serif" font-size="14" font-style="italic" lengthAdjust="spacing" textLength="79" x="125" y="25.5352">Serializable</text><text fill="#000000" font-family="sans-serif" font-size="10" font-style="italic" lengthAdjust="spacing" textLength="32" x="148.5" y="38.1563">java.io</text></g></a><!--reverse link java.io.Serializable to org.vorpal.blade.services.crud.Delete--><g id="link_java.io.Serializable_org.vorpal.blade.services.crud.Delete"><path codeLine="17" d="M151.5,63.71 C151.5,78.59 151.5,82.59 151.5,104.91 " fill="none" id="java.io.Serializable-backto-org.vorpal.blade.services.crud.Delete" style="stroke:#181818;stroke-width:1.0;stroke-dasharray:7.0,7.0;"/><polygon fill="none" points="151.5,45.71,145.5,63.71,157.5,63.71,151.5,45.71" style="stroke:#181818;stroke-width:1.0;"/></g><text fill="#888888" font-family="sans-serif" font-size="10" lengthAdjust="spacing" textLength="176" x="56.5" y="290.6216">UMLDoclet 2.1.2, PlantUML 1.2024.3</text><!--SRC=[ZPB1JiCm38RlF8M5XBHfMqedJjKObnsPD6dYD7hmMcyrIfCeoQenuDr9qmagXX0zjExdtudpEm00ZZmehCaPB6XD1YrwRK5fHLSX3HMN15GR_mex9bcwdxGcN-c08oyaEWVNCySdojAx-O8aUNfMPt0xrtOl6cqDIh6LM99mP1iko8d27ifhG0T_IqIt96msNI0gNyiyXxUuV_kCkCnWxIsh_HUR6FIUhCfWrGNVwl1lUNlmT54qegEnv1nhTPdhTXyCBqWd79yBUdbZTJY46opHX2oRTJXMg5W6XdiQPj1eBgFyepEJLUXq5yRICpGKCKe-uLRsRNt11WNhwDyv5drfiAlothWiIKfTEA4j5f94eUk4LD9Mn9UZ94sZ8a734ObjIwE2TT9VCph_m6v2nzPHbFVU7YZFk-P_xMBsBiJ_vjlT9ceTW9tMxUTf-RZGeMiFKv6AwHXM4fKF56uQiksK1iDF]--></g></svg>