<?xml version="1.0" encoding="us-ascii" standalone="no"?><svg xmlns="http://www.w3.org/2000/svg" xmlns:xlink="http://www.w3.org/1999/xlink" contentStyleType="text/css" height="701px" preserveAspectRatio="none" style="width:1525px;height:701px;background:#FFFFFF;" version="1.1" viewBox="0 0 1525 701" width="1525px" zoomAndPan="magnify"><defs/><g><!--cluster org.vorpal.blade.applications.console.config.test--><g id="cluster_org.vorpal.blade.applications.console.config.test"><path d="M8.5,170.98 L351.5,170.98 A3.75,3.75 0 0 1 354,173.48 L361,193.4683 L1515.5,193.4683 A2.5,2.5 0 0 1 1518,195.9683 L1518,672.78 A2.5,2.5 0 0 1 1515.5,675.28 L8.5,675.28 A2.5,2.5 0 0 1 6,672.78 L6,173.48 A2.5,2.5 0 0 1 8.5,170.98 " fill="none" style="stroke:#000000;stroke-width:1.5;"/><line style="stroke:#000000;stroke-width:1.5;" x1="6" x2="361" y1="193.4683" y2="193.4683"/><text fill="#000000" font-family="sans-serif" font-size="14" font-weight="bold" lengthAdjust="spacing" textLength="342" x="10" y="186.5152">org.vorpal.blade.applications.console.config.test</text></g><!--cluster javax.servlet--><g id="cluster_javax.servlet"><path d="M8.5,6 L98.5,6 A3.75,3.75 0 0 1 101,8.5 L108,28.4883 L367.5,28.4883 A2.5,2.5 0 0 1 370,30.9883 L370,135.48 A2.5,2.5 0 0 1 367.5,137.98 L8.5,137.98 A2.5,2.5 0 0 1 6,135.48 L6,8.5 A2.5,2.5 0 0 1 8.5,6 " fill="none" style="stroke:#000000;stroke-width:1.5;"/><line style="stroke:#000000;stroke-width:1.5;" x1="6" x2="108" y1="28.4883" y2="28.4883"/><text fill="#000000" font-family="sans-serif" font-size="14" font-weight="bold" lengthAdjust="spacing" textLength="89" x="10" y="21.5352">javax.servlet</text></g><!--class BladeConsoleListener--><a href="BladeConsoleListener.html" target="_top" title="BladeConsoleListener.html" xlink:actuate="onRequest" xlink:href="BladeConsoleListener.html" xlink:show="new" xlink:title="BladeConsoleListener.html" xlink:type="simple"><g id="elem_BladeConsoleListener"><rect codeLine="5" fill="#F1F1F1" height="130.4414" id="BladeConsoleListener" rx="2.5" ry="2.5" style="stroke:#181818;stroke-width:0.5;" width="332" x="22" y="280.18"/><ellipse cx="110.25" cy="296.18" fill="#ADD1B2" rx="11" ry="11" style="stroke:#181818;stroke-width:1.0;"/><path d="M112.7231,302.3231 Q112.1421,302.6219 111.5029,302.7713 Q110.8638,302.9207 110.1582,302.9207 Q107.6514,302.9207 106.3315,301.2689 Q105.0117,299.617 105.0117,296.4959 Q105.0117,293.3665 106.3315,291.7147 Q107.6514,290.0628 110.1582,290.0628 Q110.8638,290.0628 111.5112,290.2122 Q112.1587,290.3616 112.7231,290.6605 L112.7231,293.3831 Q112.0923,292.8021 111.4988,292.5323 Q110.9053,292.2625 110.2744,292.2625 Q108.9297,292.2625 108.2449,293.3292 Q107.5601,294.3958 107.5601,296.4959 Q107.5601,298.5877 108.2449,299.6544 Q108.9297,300.721 110.2744,300.721 Q110.9053,300.721 111.4988,300.4512 Q112.0923,300.1815 112.7231,299.6004 Z " fill="#000000"/><text fill="#000000" font-family="sans-serif" font-size="14" lengthAdjust="spacing" textLength="147" x="130.75" y="301.471">BladeConsoleListener</text><line style="stroke:#181818;stroke-width:0.5;" x1="23" x2="353" y1="312.18" y2="312.18"/><rect fill="none" height="6" style="stroke:#C82930;stroke-width:1.0;" width="6" x="30" y="322.9241"/><text fill="#000000" font-family="sans-serif" font-size="14" lengthAdjust="spacing" textLength="122" x="42" y="329.7152">oi: ObjectInstance</text><rect fill="none" height="6" style="stroke:#C82930;stroke-width:1.0;" width="6" x="30" y="339.4124"/><text fill="#000000" font-family="sans-serif" font-size="14" lengthAdjust="spacing" textLength="138" x="42" y="346.2034">server: MBeanServer</text><rect fill="none" height="6" style="stroke:#C82930;stroke-width:1.0;" width="6" x="30" y="355.9007"/><text fill="#000000" font-family="sans-serif" font-size="14" lengthAdjust="spacing" textLength="172" x="42" y="362.6917">objectName: ObjectName</text><line style="stroke:#181818;stroke-width:0.5;" x1="23" x2="353" y1="369.6448" y2="369.6448"/><ellipse cx="33" cy="383.389" fill="#84BE84" rx="3" ry="3" style="stroke:#038048;stroke-width:1.0;"/><text fill="#000000" font-family="sans-serif" font-size="14" lengthAdjust="spacing" textLength="306" x="42" y="387.18">contextDestroyed(ServletContextEvent): void</text><ellipse cx="33" cy="399.8773" fill="#84BE84" rx="3" ry="3" style="stroke:#038048;stroke-width:1.0;"/><text fill="#000000" font-family="sans-serif" font-size="14" lengthAdjust="spacing" textLength="304" x="42" y="403.6683">contextInitialized(ServletContextEvent): void</text></g></a><!--class BladeConsoleMXBean--><a href="BladeConsoleMXBean.html" target="_top" title="BladeConsoleMXBean.html" xlink:actuate="onRequest" xlink:href="BladeConsoleMXBean.html" xlink:show="new" xlink:title="BladeConsoleMXBean.html" xlink:type="simple"><g id="elem_BladeConsoleMXBean"><rect codeLine="13" fill="#F1F1F1" height="97.4648" id="BladeConsoleMXBean" rx="2.5" ry="2.5" style="stroke:#181818;stroke-width:0.5;" width="265" x="389.5" y="296.66"/><ellipse cx="444.25" cy="312.66" fill="#B4A7E5" rx="11" ry="11" style="stroke:#181818;stroke-width:1.0;"/><path d="M440.6777,308.9251 L440.6777,306.7669 L448.0571,306.7669 L448.0571,308.9251 L445.5918,308.9251 L445.5918,317.0018 L448.0571,317.0018 L448.0571,319.16 L440.6777,319.16 L440.6777,317.0018 L443.1431,317.0018 L443.1431,308.9251 Z " fill="#000000"/><text fill="#000000" font-family="sans-serif" font-size="14" font-style="italic" lengthAdjust="spacing" textLength="147" x="464.75" y="317.951">BladeConsoleMXBean</text><line style="stroke:#181818;stroke-width:0.5;" x1="390.5" x2="653.5" y1="328.66" y2="328.66"/><line style="stroke:#181818;stroke-width:0.5;" x1="390.5" x2="653.5" y1="336.66" y2="336.66"/><ellipse cx="400.5" cy="350.4041" fill="#84BE84" rx="3" ry="3" style="stroke:#038048;stroke-width:1.0;"/><text fill="#000000" font-family="sans-serif" font-size="14" font-style="italic" lengthAdjust="spacing" textLength="151" x="409.5" y="354.1952">getJson(String): String</text><ellipse cx="400.5" cy="366.8924" fill="#84BE84" rx="3" ry="3" style="stroke:#038048;stroke-width:1.0;"/><text fill="#000000" font-family="sans-serif" font-size="14" font-style="italic" lengthAdjust="spacing" textLength="236" x="409.5" y="370.6834">setSampleJson(String, String): void</text><ellipse cx="400.5" cy="383.3807" fill="#84BE84" rx="3" ry="3" style="stroke:#038048;stroke-width:1.0;"/><text fill="#000000" font-family="sans-serif" font-size="14" font-style="italic" lengthAdjust="spacing" textLength="239" x="409.5" y="387.1717">setJsonSchema(String, String): void</text></g></a><!--class BladeConsole--><a href="BladeConsole.html" target="_top" title="BladeConsole.html" xlink:actuate="onRequest" xlink:href="BladeConsole.html" xlink:show="new" xlink:title="BladeConsole.html" xlink:type="simple"><g id="elem_BladeConsole"><rect codeLine="19" fill="#F1F1F1" height="97.4648" id="BladeConsole" rx="2.5" ry="2.5" style="stroke:#181818;stroke-width:0.5;" width="265" x="192.5" y="561.82"/><ellipse cx="274.25" cy="577.82" fill="#ADD1B2" rx="11" ry="11" style="stroke:#181818;stroke-width:1.0;"/><path d="M276.7231,583.9631 Q276.1421,584.2619 275.5029,584.4113 Q274.8638,584.5607 274.1582,584.5607 Q271.6514,584.5607 270.3315,582.9089 Q269.0117,581.257 269.0117,578.1359 Q269.0117,575.0065 270.3315,573.3547 Q271.6514,571.7028 274.1582,571.7028 Q274.8638,571.7028 275.5112,571.8522 Q276.1587,572.0016 276.7231,572.3005 L276.7231,575.0231 Q276.0923,574.4421 275.4988,574.1723 Q274.9053,573.9025 274.2744,573.9025 Q272.9297,573.9025 272.2449,574.9692 Q271.5601,576.0358 271.5601,578.1359 Q271.5601,580.2277 272.2449,581.2944 Q272.9297,582.361 274.2744,582.361 Q274.9053,582.361 275.4988,582.0912 Q276.0923,581.8215 276.7231,581.2404 Z " fill="#000000"/><text fill="#000000" font-family="sans-serif" font-size="14" lengthAdjust="spacing" textLength="93" x="294.75" y="583.111">BladeConsole</text><line style="stroke:#181818;stroke-width:0.5;" x1="193.5" x2="456.5" y1="593.82" y2="593.82"/><line style="stroke:#181818;stroke-width:0.5;" x1="193.5" x2="456.5" y1="601.82" y2="601.82"/><ellipse cx="203.5" cy="615.5641" fill="#84BE84" rx="3" ry="3" style="stroke:#038048;stroke-width:1.0;"/><text fill="#000000" font-family="sans-serif" font-size="14" lengthAdjust="spacing" textLength="151" x="212.5" y="619.3552">getJson(String): String</text><ellipse cx="203.5" cy="632.0524" fill="#84BE84" rx="3" ry="3" style="stroke:#038048;stroke-width:1.0;"/><text fill="#000000" font-family="sans-serif" font-size="14" lengthAdjust="spacing" textLength="236" x="212.5" y="635.8434">setSampleJson(String, String): void</text><ellipse cx="203.5" cy="648.5407" fill="#84BE84" rx="3" ry="3" style="stroke:#038048;stroke-width:1.0;"/><text fill="#000000" font-family="sans-serif" font-size="14" lengthAdjust="spacing" textLength="239" x="212.5" y="652.3317">setJsonSchema(String, String): void</text></g></a><!--class HelloWorld--><a href="HelloWorld.html" target="_top" title="HelloWorld.html" xlink:actuate="onRequest" xlink:href="HelloWorld.html" xlink:show="new" xlink:title="HelloWorld.html" xlink:type="simple"><g id="elem_HelloWorld"><rect codeLine="25" fill="#F1F1F1" height="64.4883" id="HelloWorld" rx="2.5" ry="2.5" style="stroke:#181818;stroke-width:0.5;" width="182" x="690" y="313.15"/><ellipse cx="739.25" cy="329.15" fill="#B4A7E5" rx="11" ry="11" style="stroke:#181818;stroke-width:1.0;"/><path d="M735.6777,325.4151 L735.6777,323.2569 L743.0571,323.2569 L743.0571,325.4151 L740.5918,325.4151 L740.5918,333.4918 L743.0571,333.4918 L743.0571,335.65 L735.6777,335.65 L735.6777,333.4918 L738.1431,333.4918 L738.1431,325.4151 Z " fill="#000000"/><text fill="#000000" font-family="sans-serif" font-size="14" font-style="italic" lengthAdjust="spacing" textLength="75" x="759.75" y="334.441">HelloWorld</text><line style="stroke:#181818;stroke-width:0.5;" x1="691" x2="871" y1="345.15" y2="345.15"/><line style="stroke:#181818;stroke-width:0.5;" x1="691" x2="871" y1="353.15" y2="353.15"/><ellipse cx="701" cy="366.8941" fill="#84BE84" rx="3" ry="3" style="stroke:#038048;stroke-width:1.0;"/><text fill="#000000" font-family="sans-serif" font-size="14" font-style="italic" lengthAdjust="spacing" textLength="156" x="710" y="370.6852">getHelloWorld(): String</text></g></a><!--class HelloWorldBean--><a href="HelloWorldBean.html" target="_top" title="HelloWorldBean.html" xlink:actuate="onRequest" xlink:href="HelloWorldBean.html" xlink:show="new" xlink:title="HelloWorldBean.html" xlink:type="simple"><g id="elem_HelloWorldBean"><rect codeLine="29" fill="#F1F1F1" height="64.4883" id="HelloWorldBean" rx="2.5" ry="2.5" style="stroke:#181818;stroke-width:0.5;" width="182" x="690" y="578.3"/><ellipse cx="723.9" cy="594.3" fill="#ADD1B2" rx="11" ry="11" style="stroke:#181818;stroke-width:1.0;"/><path d="M726.3731,600.4431 Q725.7921,600.7419 725.1529,600.8913 Q724.5138,601.0407 723.8082,601.0407 Q721.3014,601.0407 719.9815,599.3889 Q718.6617,597.737 718.6617,594.6159 Q718.6617,591.4865 719.9815,589.8347 Q721.3014,588.1828 723.8082,588.1828 Q724.5138,588.1828 725.1612,588.3322 Q725.8087,588.4816 726.3731,588.7805 L726.3731,591.5031 Q725.7423,590.9221 725.1488,590.6523 Q724.5553,590.3825 723.9244,590.3825 Q722.5797,590.3825 721.8949,591.4492 Q721.2101,592.5158 721.2101,594.6159 Q721.2101,596.7077 721.8949,597.7744 Q722.5797,598.841 723.9244,598.841 Q724.5553,598.841 725.1488,598.5712 Q725.7423,598.3015 726.3731,597.7204 Z " fill="#000000"/><text fill="#000000" font-family="sans-serif" font-size="14" lengthAdjust="spacing" textLength="108" x="742.1" y="599.591">HelloWorldBean</text><line style="stroke:#181818;stroke-width:0.5;" x1="691" x2="871" y1="610.3" y2="610.3"/><line style="stroke:#181818;stroke-width:0.5;" x1="691" x2="871" y1="618.3" y2="618.3"/><ellipse cx="701" cy="632.0441" fill="#84BE84" rx="3" ry="3" style="stroke:#038048;stroke-width:1.0;"/><text fill="#000000" font-family="sans-serif" font-size="14" lengthAdjust="spacing" textLength="156" x="710" y="635.8352">getHelloWorld(): String</text></g></a><!--class HelloBean--><a href="HelloBean.html" target="_top" title="HelloBean.html" xlink:actuate="onRequest" xlink:href="HelloBean.html" xlink:show="new" xlink:title="HelloBean.html" xlink:type="simple"><g id="elem_HelloBean"><rect codeLine="33" fill="#F1F1F1" height="64.4883" id="HelloBean" rx="2.5" ry="2.5" style="stroke:#181818;stroke-width:0.5;" width="247" x="907.5" y="313.15"/><ellipse cx="992.75" cy="329.15" fill="#ADD1B2" rx="11" ry="11" style="stroke:#181818;stroke-width:1.0;"/><path d="M995.2231,335.2931 Q994.6421,335.5919 994.0029,335.7413 Q993.3638,335.8907 992.6582,335.8907 Q990.1514,335.8907 988.8315,334.2389 Q987.5117,332.587 987.5117,329.4659 Q987.5117,326.3365 988.8315,324.6847 Q990.1514,323.0328 992.6582,323.0328 Q993.3638,323.0328 994.0112,323.1822 Q994.6587,323.3316 995.2231,323.6305 L995.2231,326.3531 Q994.5923,325.7721 993.9988,325.5023 Q993.4053,325.2325 992.7744,325.2325 Q991.4297,325.2325 990.7449,326.2992 Q990.0601,327.3658 990.0601,329.4659 Q990.0601,331.5577 990.7449,332.6244 Q991.4297,333.691 992.7744,333.691 Q993.4053,333.691 993.9988,333.4212 Q994.5923,333.1515 995.2231,332.5704 Z " fill="#000000"/><text fill="#000000" font-family="sans-serif" font-size="14" lengthAdjust="spacing" textLength="68" x="1013.25" y="334.441">HelloBean</text><line style="stroke:#181818;stroke-width:0.5;" x1="908.5" x2="1153.5" y1="345.15" y2="345.15"/><line style="stroke:#181818;stroke-width:0.5;" x1="908.5" x2="1153.5" y1="353.15" y2="353.15"/><ellipse cx="918.5" cy="366.8941" fill="#84BE84" rx="3" ry="3" style="stroke:#038048;stroke-width:1.0;"/><text fill="#000000" font-family="sans-serif" font-size="14" lengthAdjust="spacing" textLength="221" x="927.5" y="370.6852">sayHelloFromServiceBean(): void</text></g></a><!--class ConfigHelper--><a href="ConfigHelper.html" target="_top" title="ConfigHelper.html" xlink:actuate="onRequest" xlink:href="ConfigHelper.html" xlink:show="new" xlink:title="ConfigHelper.html" xlink:type="simple"><g id="elem_ConfigHelper"><rect codeLine="37" fill="#F1F1F1" height="278.8359" id="ConfigHelper" rx="2.5" ry="2.5" style="stroke:#181818;stroke-width:0.5;" width="313" x="1189.5" y="205.98"/><ellipse cx="1296.25" cy="221.98" fill="#ADD1B2" rx="11" ry="11" style="stroke:#181818;stroke-width:1.0;"/><path d="M1298.7231,228.1231 Q1298.1421,228.4219 1297.5029,228.5713 Q1296.8638,228.7207 1296.1582,228.7207 Q1293.6514,228.7207 1292.3315,227.0689 Q1291.0117,225.417 1291.0117,222.2959 Q1291.0117,219.1665 1292.3315,217.5147 Q1293.6514,215.8628 1296.1582,215.8628 Q1296.8638,215.8628 1297.5112,216.0122 Q1298.1587,216.1616 1298.7231,216.4605 L1298.7231,219.1831 Q1298.0923,218.6021 1297.4988,218.3323 Q1296.9053,218.0625 1296.2744,218.0625 Q1294.9297,218.0625 1294.2449,219.1292 Q1293.5601,220.1958 1293.5601,222.2959 Q1293.5601,224.3877 1294.2449,225.4544 Q1294.9297,226.521 1296.2744,226.521 Q1296.9053,226.521 1297.4988,226.2512 Q1298.0923,225.9815 1298.7231,225.4004 Z " fill="#000000"/><text fill="#000000" font-family="sans-serif" font-size="14" lengthAdjust="spacing" textLength="91" x="1316.75" y="227.271">ConfigHelper</text><line style="stroke:#181818;stroke-width:0.5;" x1="1190.5" x2="1501.5" y1="237.98" y2="237.98"/><rect fill="none" height="6" style="stroke:#C82930;stroke-width:1.0;" width="6" x="1197.5" y="248.7241"/><text fill="#000000" font-family="sans-serif" font-size="14" lengthAdjust="spacing" textLength="120" x="1209.5" y="255.5152">schemaPath: Path</text><rect fill="none" height="6" style="stroke:#C82930;stroke-width:1.0;" width="6" x="1197.5" y="265.2124"/><text fill="#000000" font-family="sans-serif" font-size="14" lengthAdjust="spacing" textLength="120" x="1209.5" y="272.0034">domainPath: Path</text><rect fill="none" height="6" style="stroke:#C82930;stroke-width:1.0;" width="6" x="1197.5" y="281.7007"/><text fill="#000000" font-family="sans-serif" font-size="14" lengthAdjust="spacing" textLength="114" x="1209.5" y="288.4917">clusterPath: Path</text><rect fill="none" height="6" style="stroke:#C82930;stroke-width:1.0;" width="6" x="1197.5" y="298.189"/><text fill="#000000" font-family="sans-serif" font-size="14" lengthAdjust="spacing" textLength="110" x="1209.5" y="304.98">serverPath: Path</text><line style="stroke:#181818;stroke-width:0.5;" x1="1190.5" x2="1501.5" y1="311.9331" y2="311.9331"/><ellipse cx="1200.5" cy="325.6773" fill="#84BE84" rx="3" ry="3" style="stroke:#038048;stroke-width:1.0;"/><text fill="#000000" font-family="sans-serif" font-size="14" lengthAdjust="spacing" textLength="142" x="1209.5" y="329.4683">ConfigHelper(String)</text><ellipse cx="1200.5" cy="342.1655" fill="#84BE84" rx="3" ry="3" style="stroke:#038048;stroke-width:1.0;"/><text fill="#000000" font-family="sans-serif" font-size="14" lengthAdjust="spacing" textLength="171" x="1209.5" y="345.9566">loadDomainJson(): String</text><ellipse cx="1200.5" cy="358.6538" fill="#84BE84" rx="3" ry="3" style="stroke:#038048;stroke-width:1.0;"/><text fill="#000000" font-family="sans-serif" font-size="14" lengthAdjust="spacing" textLength="200" x="1209.5" y="362.4448">saveDomainJson(String): void</text><ellipse cx="1200.5" cy="375.1421" fill="#84BE84" rx="3" ry="3" style="stroke:#038048;stroke-width:1.0;"/><text fill="#000000" font-family="sans-serif" font-size="14" lengthAdjust="spacing" textLength="167" x="1209.5" y="378.9331">loadClusterJson(): String</text><ellipse cx="1200.5" cy="391.6304" fill="#84BE84" rx="3" ry="3" style="stroke:#038048;stroke-width:1.0;"/><text fill="#000000" font-family="sans-serif" font-size="14" lengthAdjust="spacing" textLength="196" x="1209.5" y="395.4214">saveClusterJson(String): void</text><ellipse cx="1200.5" cy="408.1187" fill="#84BE84" rx="3" ry="3" style="stroke:#038048;stroke-width:1.0;"/><text fill="#000000" font-family="sans-serif" font-size="14" lengthAdjust="spacing" textLength="161" x="1209.5" y="411.9097">loadServerJson(): String</text><ellipse cx="1200.5" cy="424.607" fill="#84BE84" rx="3" ry="3" style="stroke:#038048;stroke-width:1.0;"/><text fill="#000000" font-family="sans-serif" font-size="14" lengthAdjust="spacing" textLength="190" x="1209.5" y="428.398">saveServerJson(String): void</text><ellipse cx="1200.5" cy="441.0952" fill="#84BE84" rx="3" ry="3" style="stroke:#038048;stroke-width:1.0;"/><text fill="#000000" font-family="sans-serif" font-size="14" lengthAdjust="spacing" textLength="171" x="1209.5" y="444.8862">loadJsonSchema(): String</text><ellipse cx="1200.5" cy="457.5835" fill="#84BE84" rx="3" ry="3" style="stroke:#038048;stroke-width:1.0;"/><text fill="#000000" font-family="sans-serif" font-size="14" lengthAdjust="spacing" textLength="200" x="1209.5" y="461.3745">saveJsonSchema(String): void</text><ellipse cx="1200.5" cy="474.0718" fill="#84BE84" rx="3" ry="3" style="stroke:#038048;stroke-width:1.0;"/><text fill="#000000" font-family="sans-serif" font-size="14" lengthAdjust="spacing" textLength="287" x="1209.5" y="477.8628">listFilesUsingFilesList(String): Set&lt;String&gt;</text></g></a><!--class ServletContextListener--><a href="https://javaee.github.io/javaee-spec/javadocs/javax/servlet/ServletContextListener.html?is-external=true" target="_top" title="https://javaee.github.io/javaee-spec/javadocs/javax/servlet/ServletContextListener.html?is-external=true" xlink:actuate="onRequest" xlink:href="https://javaee.github.io/javaee-spec/javadocs/javax/servlet/ServletContextListener.html?is-external=true" xlink:show="new" xlink:title="https://javaee.github.io/javaee-spec/javadocs/javax/servlet/ServletContextListener.html?is-external=true" xlink:type="simple"><g id="elem_ServletContextListener"><rect codeLine="57" fill="#F1F1F1" height="80.9766" id="ServletContextListener" rx="2.5" ry="2.5" style="stroke:#181818;stroke-width:0.5;" width="332" x="22" y="41"/><ellipse cx="106.25" cy="57" fill="#B4A7E5" rx="11" ry="11" style="stroke:#181818;stroke-width:1.0;"/><path d="M102.6777,53.2651 L102.6777,51.1069 L110.0571,51.1069 L110.0571,53.2651 L107.5918,53.2651 L107.5918,61.3418 L110.0571,61.3418 L110.0571,63.5 L102.6777,63.5 L102.6777,61.3418 L105.1431,61.3418 L105.1431,53.2651 Z " fill="#000000"/><text fill="#000000" font-family="sans-serif" font-size="14" font-style="italic" lengthAdjust="spacing" textLength="155" x="126.75" y="62.291">ServletContextListener</text><line style="stroke:#181818;stroke-width:0.5;" x1="23" x2="353" y1="73" y2="73"/><line style="stroke:#181818;stroke-width:0.5;" x1="23" x2="353" y1="81" y2="81"/><ellipse cx="33" cy="94.7441" fill="#84BE84" rx="3" ry="3" style="stroke:#038048;stroke-width:1.0;"/><text fill="#000000" font-family="sans-serif" font-size="14" lengthAdjust="spacing" textLength="304" x="42" y="98.5352">contextInitialized(ServletContextEvent): void</text><ellipse cx="33" cy="111.2324" fill="#84BE84" rx="3" ry="3" style="stroke:#038048;stroke-width:1.0;"/><text fill="#000000" font-family="sans-serif" font-size="14" lengthAdjust="spacing" textLength="306" x="42" y="115.0234">contextDestroyed(ServletContextEvent): void</text></g></a><!--reverse link ServletContextListener to BladeConsoleListener--><g id="link_ServletContextListener_BladeConsoleListener"><path codeLine="63" d="M188,140.27 C188,182.05 188,230.43 188,279.75 " fill="none" id="ServletContextListener-backto-BladeConsoleListener" style="stroke:#181818;stroke-width:1.0;stroke-dasharray:7.0,7.0;"/><polygon fill="none" points="188,122.27,182,140.27,194,140.27,188,122.27" style="stroke:#181818;stroke-width:1.0;"/></g><!--link BladeConsoleListener to BladeConsole--><g id="link_BladeConsoleListener_BladeConsole"><path codeLine="64" d="M221.69,411.11 C245.93,457.68 275.3293,514.1381 297.2893,556.3181 " fill="none" id="BladeConsoleListener-to-BladeConsole" style="stroke:#181818;stroke-width:1.0;"/><polygon fill="#181818" points="300.06,561.64,299.4519,551.8099,297.7511,557.2051,292.3559,555.5043,300.06,561.64" style="stroke:#181818;stroke-width:1.0;"/><text fill="#000000" font-family="sans-serif" font-size="13" lengthAdjust="spacing" textLength="85" x="285" y="528.3884">bladeConsole</text></g><!--reverse link BladeConsoleMXBean to BladeConsole--><g id="link_BladeConsoleMXBean_BladeConsole"><path codeLine="65" d="M475.3117,408.7687 C439.7917,456.2087 396.53,513.99 360.99,561.47 " fill="none" id="BladeConsoleMXBean-backto-BladeConsole" style="stroke:#181818;stroke-width:1.0;stroke-dasharray:7.0,7.0;"/><polygon fill="none" points="486.1,394.36,470.5088,405.1726,480.1146,412.3649,486.1,394.36" style="stroke:#181818;stroke-width:1.0;"/></g><!--reverse link HelloWorld to HelloWorldBean--><g id="link_HelloWorld_HelloWorldBean"><path codeLine="66" d="M781,396.14 C781,446.85 781,527.58 781,578.1 " fill="none" id="HelloWorld-backto-HelloWorldBean" style="stroke:#181818;stroke-width:1.0;stroke-dasharray:7.0,7.0;"/><polygon fill="none" points="781,378.14,775,396.14,787,396.14,781,378.14" style="stroke:#181818;stroke-width:1.0;"/></g><text fill="#888888" font-family="sans-serif" font-size="10" lengthAdjust="spacing" textLength="176" x="667.5" y="690.948">UMLDoclet 2.1.2, PlantUML 1.2024.3</text><!--SRC=[hLPHRzem47xlh_3B92QAqVeOTPrKMBLEPQk4gasg-d0ur-3EYIFR8BgE_pxReOi32Q4PaKZiytUVxyxdEmWXHAEnlnmK6Ab859sSM279WVs218bK2LrAbOEWCm4nKiXpmHaOBZDDcNr9WUxxo1DgK1loKX2uXmdGcbmwlL61lE7QO8QAtD_NYUdSfEBXmNAGu1b87f7lioTavZhJ1ZA6rNMDQeag8fDBX6pg9ri4NlaRfFXAvCOLJD_wO71bnjO79PynxZaYWMPKo3ylCJFl8xAKFAvLlCwuuI3uxyDKrsMOk4MfHs1O2TNaf_DcAr25i3vCBp2pfWCpQz9Fq7pLCkjDZU9POlSk1erucmHJI7E1WTOf-QUzu_IMhjEQiZccqAAxtfSSMxxMUtcGQs_sfwiJvT5zGI7a3wb4RDqe9mSTLGdlxVgp4x8IlKcGgg0vR1ss2NVOGwxXsKEkb4nTxdE63jrhFVwHBnnMD_Sr8Pmsr0BjJ-WMp3mYxbrTZMKAF6jQPM9XwungMYxAICDgFxJjDVcg224X7di3VDOrfIOiCK3joKd7DofCRYCCOIsCHNri8mnGBNp1jTd3jtEvwlbi7xZY0lMTjX0_SgqXkEjepel9nNPIhQkDwmcMiAAwACH14fKtjbgaWyuqDoRNqN3eA11fmiryCQDSRWG3dIFpurWoxGUhuMQZOJsfp-LFN0-i35K6ugDH2zozHzrQIUVsjGu3LmbO53L4v_mFfM__Kn15TTtURtiaBZ8ONFmlLqHcmUmOrcrw-362rjMSe2zrDQFQNxmX3Dqr8ezIki_Tv6OicRjdP_G3FJibjm8oOwNadIqYchjIynS0]--></g></svg>