<?xml version="1.0" encoding="us-ascii" standalone="no"?><svg xmlns="http://www.w3.org/2000/svg" xmlns:xlink="http://www.w3.org/1999/xlink" contentStyleType="text/css" height="490px" preserveAspectRatio="none" style="width:2692px;height:490px;" version="1.1" viewBox="0 0 2692 490" width="2692px" zoomAndPan="magnify"><defs/><g><!--class org.vorpal.blade.framework--><a href="org/vorpal/blade/framework/package-summary.html" target="_top" title="org/vorpal/blade/framework/package-summary.html" xlink:actuate="onRequest" xlink:href="org/vorpal/blade/framework/package-summary.html" xlink:show="new" xlink:title="org/vorpal/blade/framework/package-summary.html" xlink:type="simple"><g id="elem_org.vorpal.blade.framework"><rect codeLine="34" fill="#F1F1F1" height="26.4883" id="org.vorpal.blade.framework" rx="2.5" ry="2.5" style="stroke:#181818;stroke-width:0.5;" width="197" x="1927" y="179.98"/><text fill="#000000" font-family="sans-serif" font-size="14" lengthAdjust="spacing" textLength="191" x="1930" y="198.5152">org.vorpal.blade.framework</text></g></a><!--class org.vorpal.blade.framework.logging--><a href="org/vorpal/blade/framework/logging/package-summary.html" target="_top" title="org/vorpal/blade/framework/logging/package-summary.html" xlink:actuate="onRequest" xlink:href="org/vorpal/blade/framework/logging/package-summary.html" xlink:show="new" xlink:title="org/vorpal/blade/framework/logging/package-summary.html" xlink:type="simple"><g id="elem_org.vorpal.blade.framework.logging"><rect codeLine="36" fill="#F1F1F1" height="26.4883" id="org.vorpal.blade.framework.logging" rx="2.5" ry="2.5" style="stroke:#181818;stroke-width:0.5;" width="254" x="2431.5" y="439.44"/><text fill="#000000" font-family="sans-serif" font-size="14" lengthAdjust="spacing" textLength="248" x="2434.5" y="457.9752">org.vorpal.blade.framework.logging</text></g></a><!--class org.vorpal.blade.framework.config--><a href="org/vorpal/blade/framework/config/package-summary.html" target="_top" title="org/vorpal/blade/framework/config/package-summary.html" xlink:actuate="onRequest" xlink:href="org/vorpal/blade/framework/config/package-summary.html" xlink:show="new" xlink:title="org/vorpal/blade/framework/config/package-summary.html" xlink:type="simple"><g id="elem_org.vorpal.blade.framework.config"><rect codeLine="38" fill="#F1F1F1" height="26.4883" id="org.vorpal.blade.framework.config" rx="2.5" ry="2.5" style="stroke:#181818;stroke-width:0.5;" width="244" x="1591.5" y="352.95"/><text fill="#000000" font-family="sans-serif" font-size="14" lengthAdjust="spacing" textLength="238" x="1594.5" y="371.4852">org.vorpal.blade.framework.config</text></g></a><!--class org.vorpal.blade.framework.callflow--><a href="org/vorpal/blade/framework/callflow/package-summary.html" target="_top" title="org/vorpal/blade/framework/callflow/package-summary.html" xlink:actuate="onRequest" xlink:href="org/vorpal/blade/framework/callflow/package-summary.html" xlink:show="new" xlink:title="org/vorpal/blade/framework/callflow/package-summary.html" xlink:type="simple"><g id="elem_org.vorpal.blade.framework.callflow"><rect codeLine="40" fill="#F1F1F1" height="26.4883" id="org.vorpal.blade.framework.callflow" rx="2.5" ry="2.5" style="stroke:#181818;stroke-width:0.5;" width="253" x="2136" y="266.47"/><text fill="#000000" font-family="sans-serif" font-size="14" lengthAdjust="spacing" textLength="247" x="2139" y="285.0052">org.vorpal.blade.framework.callflow</text></g></a><!--class org.vorpal.blade.framework.b2bua--><a href="org/vorpal/blade/framework/b2bua/package-summary.html" target="_top" title="org/vorpal/blade/framework/b2bua/package-summary.html" xlink:actuate="onRequest" xlink:href="org/vorpal/blade/framework/b2bua/package-summary.html" xlink:show="new" xlink:title="org/vorpal/blade/framework/b2bua/package-summary.html" xlink:type="simple"><g id="elem_org.vorpal.blade.framework.b2bua"><rect codeLine="42" fill="#F1F1F1" height="26.4883" id="org.vorpal.blade.framework.b2bua" rx="2.5" ry="2.5" style="stroke:#181818;stroke-width:0.5;" width="245" x="1821" y="93.49"/><text fill="#000000" font-family="sans-serif" font-size="14" lengthAdjust="spacing" textLength="239" x="1824" y="112.0252">org.vorpal.blade.framework.b2bua</text></g></a><!--class org.vorpal.blade.framework.proxy--><a href="org/vorpal/blade/framework/proxy/package-summary.html" target="_top" title="org/vorpal/blade/framework/proxy/package-summary.html" xlink:actuate="onRequest" xlink:href="org/vorpal/blade/framework/proxy/package-summary.html" xlink:show="new" xlink:title="org/vorpal/blade/framework/proxy/package-summary.html" xlink:type="simple"><g id="elem_org.vorpal.blade.framework.proxy"><rect codeLine="44" fill="#F1F1F1" height="26.4883" id="org.vorpal.blade.framework.proxy" rx="2.5" ry="2.5" style="stroke:#181818;stroke-width:0.5;" width="241" x="2142" y="352.95"/><text fill="#000000" font-family="sans-serif" font-size="14" lengthAdjust="spacing" textLength="235" x="2145" y="371.4852">org.vorpal.blade.framework.proxy</text></g></a><!--class com.fasterxml.jackson.databind--><g id="elem_com.fasterxml.jackson.databind"><rect fill="#F1F1F1" height="26.4883" id="com.fasterxml.jackson.databind" rx="2.5" ry="2.5" style="stroke:#181818;stroke-width:0.5;" width="225" x="7" y="439.44"/><text fill="#000000" font-family="sans-serif" font-size="14" lengthAdjust="spacing" textLength="219" x="10" y="457.9752">com.fasterxml.jackson.databind</text></g><!--class com.fasterxml.jackson.core--><g id="elem_com.fasterxml.jackson.core"><rect fill="#F1F1F1" height="26.4883" id="com.fasterxml.jackson.core" rx="2.5" ry="2.5" style="stroke:#181818;stroke-width:0.5;" width="194" x="266.5" y="439.44"/><text fill="#000000" font-family="sans-serif" font-size="14" lengthAdjust="spacing" textLength="188" x="269.5" y="457.9752">com.fasterxml.jackson.core</text></g><!--class com.fasterxml.jackson.databind.ser.std--><g id="elem_com.fasterxml.jackson.databind.ser.std"><rect fill="#F1F1F1" height="26.4883" id="com.fasterxml.jackson.databind.ser.std" rx="2.5" ry="2.5" style="stroke:#181818;stroke-width:0.5;" width="275" x="495" y="439.44"/><text fill="#000000" font-family="sans-serif" font-size="14" lengthAdjust="spacing" textLength="269" x="498" y="457.9752">com.fasterxml.jackson.databind.ser.std</text></g><!--class com.fasterxml.jackson.databind.jsonFormatVisitors--><g id="elem_com.fasterxml.jackson.databind.jsonFormatVisitors"><rect fill="#F1F1F1" height="26.4883" id="com.fasterxml.jackson.databind.jsonFormatVisitors" rx="2.5" ry="2.5" style="stroke:#181818;stroke-width:0.5;" width="358" x="804.5" y="439.44"/><text fill="#000000" font-family="sans-serif" font-size="14" lengthAdjust="spacing" textLength="352" x="807.5" y="457.9752">com.fasterxml.jackson.databind.jsonFormatVisitors</text></g><!--class com.fasterxml.jackson.databind.deser.std--><g id="elem_com.fasterxml.jackson.databind.deser.std"><rect fill="#F1F1F1" height="26.4883" id="com.fasterxml.jackson.databind.deser.std" rx="2.5" ry="2.5" style="stroke:#181818;stroke-width:0.5;" width="292" x="1197.5" y="439.44"/><text fill="#000000" font-family="sans-serif" font-size="14" lengthAdjust="spacing" textLength="286" x="1200.5" y="457.9752">com.fasterxml.jackson.databind.deser.std</text></g><!--class inet.ipaddr.ipv6--><g id="elem_inet.ipaddr.ipv6"><rect fill="#F1F1F1" height="26.4883" id="inet.ipaddr.ipv6" rx="2.5" ry="2.5" style="stroke:#181818;stroke-width:0.5;" width="114" x="1524.5" y="439.44"/><text fill="#000000" font-family="sans-serif" font-size="14" lengthAdjust="spacing" textLength="108" x="1527.5" y="457.9752">inet.ipaddr.ipv6</text></g><!--class inet.ipaddr--><g id="elem_inet.ipaddr"><rect fill="#F1F1F1" height="26.4883" id="inet.ipaddr" rx="2.5" ry="2.5" style="stroke:#181818;stroke-width:0.5;" width="81" x="1673" y="439.44"/><text fill="#000000" font-family="sans-serif" font-size="14" lengthAdjust="spacing" textLength="75" x="1676" y="457.9752">inet.ipaddr</text></g><!--class inet.ipaddr.ipv4--><g id="elem_inet.ipaddr.ipv4"><rect fill="#F1F1F1" height="26.4883" id="inet.ipaddr.ipv4" rx="2.5" ry="2.5" style="stroke:#181818;stroke-width:0.5;" width="114" x="1788.5" y="439.44"/><text fill="#000000" font-family="sans-serif" font-size="14" lengthAdjust="spacing" textLength="108" x="1791.5" y="457.9752">inet.ipaddr.ipv4</text></g><!--class org.apache.commons.collections4.trie--><g id="elem_org.apache.commons.collections4.trie"><rect fill="#F1F1F1" height="26.4883" id="org.apache.commons.collections4.trie" rx="2.5" ry="2.5" style="stroke:#181818;stroke-width:0.5;" width="267" x="1937" y="439.44"/><text fill="#000000" font-family="sans-serif" font-size="14" lengthAdjust="spacing" textLength="261" x="1940" y="457.9752">org.apache.commons.collections4.trie</text></g><!--class inet.ipaddr.format.util--><g id="elem_inet.ipaddr.format.util"><rect fill="#F1F1F1" height="26.4883" id="inet.ipaddr.format.util" rx="2.5" ry="2.5" style="stroke:#181818;stroke-width:0.5;" width="157" x="2239" y="439.44"/><text fill="#000000" font-family="sans-serif" font-size="14" lengthAdjust="spacing" textLength="151" x="2242" y="457.9752">inet.ipaddr.format.util</text></g><!--class org.vorpal.blade.framework.deprecated.proxy--><a href="org/vorpal/blade/framework/deprecated/proxy/package-summary.html" target="_top" title="org/vorpal/blade/framework/deprecated/proxy/package-summary.html" xlink:actuate="onRequest" xlink:href="org/vorpal/blade/framework/deprecated/proxy/package-summary.html" xlink:show="new" xlink:title="org/vorpal/blade/framework/deprecated/proxy/package-summary.html" xlink:type="simple"><g id="elem_org.vorpal.blade.framework.deprecated.proxy"><rect codeLine="46" fill="#F1F1F1" height="26.4883" id="org.vorpal.blade.framework.deprecated.proxy" rx="2.5" ry="2.5" style="stroke:#181818;stroke-width:0.5;" width="322" x="2101.5" y="93.49"/><text fill="#000000" font-family="sans-serif" font-size="14" lengthAdjust="spacing" textLength="316" x="2104.5" y="112.0252">org.vorpal.blade.framework.deprecated.proxy</text></g></a><!--class org.vorpal.blade.framework.deprecated.proxy.callflows--><a href="org/vorpal/blade/framework/deprecated/proxy/callflows/package-summary.html" target="_top" title="org/vorpal/blade/framework/deprecated/proxy/callflows/package-summary.html" xlink:actuate="onRequest" xlink:href="org/vorpal/blade/framework/deprecated/proxy/callflows/package-summary.html" xlink:show="new" xlink:title="org/vorpal/blade/framework/deprecated/proxy/callflows/package-summary.html" xlink:type="simple"><g id="elem_org.vorpal.blade.framework.deprecated.proxy.callflows"><rect codeLine="48" fill="#F1F1F1" height="26.4883" id="org.vorpal.blade.framework.deprecated.proxy.callflows" rx="2.5" ry="2.5" style="stroke:#181818;stroke-width:0.5;" width="385" x="2177" y="7"/><text fill="#000000" font-family="sans-serif" font-size="14" lengthAdjust="spacing" textLength="379" x="2180" y="25.5352">org.vorpal.blade.framework.deprecated.proxy.callflows</text></g></a><!--link org.vorpal.blade.framework to org.vorpal.blade.framework.logging--><g id="link_org.vorpal.blade.framework_org.vorpal.blade.framework.logging"><path codeLine="7" d="M2028.19,206.9 C2036.17,241.04 2063.03,335.33 2124.5,379.44 C2150.78,398.3 2326.3072,423.0788 2446.1272,438.1988 " fill="none" id="org.vorpal.blade.framework-to-org.vorpal.blade.framework.logging" style="stroke:#181818;stroke-width:1.0;"/><polygon fill="#181818" points="2452.08,438.95,2443.6516,433.8547,2447.1193,438.324,2442.65,441.7918,2452.08,438.95" style="stroke:#181818;stroke-width:1.0;"/></g><!--link org.vorpal.blade.framework to org.vorpal.blade.framework.config--><g id="link_org.vorpal.blade.framework_org.vorpal.blade.framework.config"><path codeLine="8" d="M2002.3,206.93 C1944.4,238.66 1799.3017,318.1766 1741.6917,349.7466 " fill="none" id="org.vorpal.blade.framework-to-org.vorpal.blade.framework.config" style="stroke:#181818;stroke-width:1.0;"/><polygon fill="#181818" points="1736.43,352.63,1746.2449,351.8127,1740.8148,350.2272,1742.4003,344.7971,1736.43,352.63" style="stroke:#181818;stroke-width:1.0;"/></g><!--link org.vorpal.blade.framework to org.vorpal.blade.framework.callflow--><g id="link_org.vorpal.blade.framework_org.vorpal.blade.framework.callflow"><path codeLine="9" d="M2061.24,206.96 C2105.98,222.91 2176.5082,248.0558 2221.2082,263.9858 " fill="none" id="org.vorpal.blade.framework-to-org.vorpal.blade.framework.callflow" style="stroke:#181818;stroke-width:1.0;"/><polygon fill="#181818" points="2226.86,266,2219.725,259.2109,2222.1501,264.3215,2217.0395,266.7466,2226.86,266" style="stroke:#181818;stroke-width:1.0;"/></g><!--link org.vorpal.blade.framework.b2bua to org.vorpal.blade.framework.callflow--><g id="link_org.vorpal.blade.framework.b2bua_org.vorpal.blade.framework.callflow"><path codeLine="10" d="M1991.86,120.44 C2033.21,132.43 2093.47,152.66 2141.5,179.98 C2185.34,204.91 2225.0736,241.5214 2245.8636,261.9814 " fill="none" id="org.vorpal.blade.framework.b2bua-to-org.vorpal.blade.framework.callflow" style="stroke:#181818;stroke-width:1.0;"/><polygon fill="#181818" points="2250.14,266.19,2246.531,257.0262,2246.5763,262.6829,2240.9196,262.7281,2250.14,266.19" style="stroke:#181818;stroke-width:1.0;"/></g><!--link org.vorpal.blade.framework.b2bua to org.vorpal.blade.framework--><g id="link_org.vorpal.blade.framework.b2bua_org.vorpal.blade.framework"><path codeLine="11" d="M1955.6,120.2 C1971.1,136.17 1993.6411,159.3946 2009.1711,175.3946 " fill="none" id="org.vorpal.blade.framework.b2bua-to-org.vorpal.blade.framework" style="stroke:#181818;stroke-width:1.0;"/><polygon fill="#181818" points="2013.35,179.7,2009.9519,170.4559,2009.8676,176.1122,2004.2113,176.0278,2013.35,179.7" style="stroke:#181818;stroke-width:1.0;"/></g><!--link org.vorpal.blade.framework.callflow to org.vorpal.blade.framework.logging--><g id="link_org.vorpal.blade.framework.callflow_org.vorpal.blade.framework.logging"><path codeLine="12" d="M2288.25,293.45 C2316.21,307.45 2362.02,330.9 2400.5,352.95 C2451.58,382.22 2504.869,416.4952 2534.309,435.7552 " fill="none" id="org.vorpal.blade.framework.callflow-to-org.vorpal.blade.framework.logging" style="stroke:#181818;stroke-width:1.0;"/><polygon fill="#181818" points="2539.33,439.04,2533.9884,430.7655,2535.1459,436.3027,2529.6087,437.4601,2539.33,439.04" style="stroke:#181818;stroke-width:1.0;"/></g><!--link org.vorpal.blade.framework.callflow to org.vorpal.blade.framework.config--><g id="link_org.vorpal.blade.framework.callflow_org.vorpal.blade.framework.config"><path codeLine="13" d="M2179.71,293.45 C2076.07,309.4 1905.5302,335.6476 1801.9902,351.5776 " fill="none" id="org.vorpal.blade.framework.callflow-to-org.vorpal.blade.framework.config" style="stroke:#181818;stroke-width:1.0;"/><polygon fill="#181818" points="1796.06,352.49,1805.5636,355.0749,1801.0019,351.7297,1804.3471,347.1679,1796.06,352.49" style="stroke:#181818;stroke-width:1.0;"/></g><!--link org.vorpal.blade.framework.callflow to org.vorpal.blade.framework.proxy--><g id="link_org.vorpal.blade.framework.callflow_org.vorpal.blade.framework.proxy"><path codeLine="14" d="M2252.86,293.18 C2248.22,309.15 2246.5389,330.9174 2251.1789,346.9174 " fill="none" id="org.vorpal.blade.framework.callflow-to-org.vorpal.blade.framework.proxy" style="stroke:#181818;stroke-width:1.0;"/><polygon fill="#181818" points="2252.85,352.68,2254.185,342.922,2251.4574,347.8779,2246.5016,345.1502,2252.85,352.68" style="stroke:#181818;stroke-width:1.0;"/></g><!--link org.vorpal.blade.framework.proxy to org.vorpal.blade.framework.callflow--><g id="link_org.vorpal.blade.framework.proxy_org.vorpal.blade.framework.callflow"><path codeLine="31" d="M2272.15,352.68 C2276.79,336.68 2278.454,314.9117 2273.814,298.9417 " fill="none" id="org.vorpal.blade.framework.proxy-to-org.vorpal.blade.framework.callflow" style="stroke:#181818;stroke-width:1.0;"/><polygon fill="#181818" points="2272.14,293.18,2270.8099,302.9386,2273.535,297.9814,2278.4922,300.7066,2272.14,293.18" style="stroke:#181818;stroke-width:1.0;"/></g><!--link org.vorpal.blade.framework.config to com.fasterxml.jackson.databind--><g id="link_org.vorpal.blade.framework.config_com.fasterxml.jackson.databind"><path codeLine="15" d="M1591.44,371.38 C1340.11,380.4 746.68,403.78 249.5,439.44 C243.85,439.85 244.0407,439.8095 238.1907,440.2795 " fill="none" id="org.vorpal.blade.framework.config-to-com.fasterxml.jackson.databind" style="stroke:#181818;stroke-width:1.0;"/><polygon fill="#181818" points="232.21,440.76,241.5014,444.0264,237.1939,440.3596,240.8608,436.0521,232.21,440.76" style="stroke:#181818;stroke-width:1.0;"/></g><!--link org.vorpal.blade.framework.config to org.vorpal.blade.framework.logging--><g id="link_org.vorpal.blade.framework.config_org.vorpal.blade.framework.logging"><path codeLine="16" d="M1835.92,379.44 C1994.63,395.31 2264.1398,422.2529 2425.2198,438.3629 " fill="none" id="org.vorpal.blade.framework.config-to-org.vorpal.blade.framework.logging" style="stroke:#181818;stroke-width:1.0;"/><polygon fill="#181818" points="2431.19,438.96,2422.6327,434.0842,2426.2148,438.4624,2421.8366,442.0445,2431.19,438.96" style="stroke:#181818;stroke-width:1.0;"/></g><!--link org.vorpal.blade.framework.config to com.fasterxml.jackson.core--><g id="link_org.vorpal.blade.framework.config_com.fasterxml.jackson.core"><path codeLine="17" d="M1591.43,372.36 C1369.48,382.19 885.04,405.67 477.5,439.44 C472.04,439.89 472.4238,439.8296 466.7738,440.3596 " fill="none" id="org.vorpal.blade.framework.config-to-com.fasterxml.jackson.core" style="stroke:#181818;stroke-width:1.0;"/><polygon fill="#181818" points="460.8,440.92,470.1342,444.062,465.7781,440.453,469.3871,436.0969,460.8,440.92" style="stroke:#181818;stroke-width:1.0;"/></g><!--link org.vorpal.blade.framework.config to com.fasterxml.jackson.databind.ser.std--><g id="link_org.vorpal.blade.framework.config_com.fasterxml.jackson.databind.ser.std"><path codeLine="18" d="M1591.04,376.71 C1413.8,390.49 1075.46,416.84 787.5,439.44 C781.85,439.89 782.0613,439.8672 776.2413,440.3272 " fill="none" id="org.vorpal.blade.framework.config-to-com.fasterxml.jackson.databind.ser.std" style="stroke:#181818;stroke-width:1.0;"/><polygon fill="#181818" points="770.26,440.8,779.5472,444.0784,775.2445,440.406,778.9169,436.1033,770.26,440.8" style="stroke:#181818;stroke-width:1.0;"/></g><!--link org.vorpal.blade.framework.config to com.fasterxml.jackson.databind.jsonFormatVisitors--><g id="link_org.vorpal.blade.framework.config_com.fasterxml.jackson.databind.jsonFormatVisitors"><path codeLine="19" d="M1603.42,379.94 C1465.71,395.88 1237.2502,422.3201 1099.5402,438.2601 " fill="none" id="org.vorpal.blade.framework.config-to-com.fasterxml.jackson.databind.jsonFormatVisitors" style="stroke:#181818;stroke-width:1.0;"/><polygon fill="#181818" points="1093.58,438.95,1102.9802,441.8886,1098.5468,438.3751,1102.0604,433.9417,1093.58,438.95" style="stroke:#181818;stroke-width:1.0;"/></g><!--link org.vorpal.blade.framework.config to com.fasterxml.jackson.databind.deser.std--><g id="link_org.vorpal.blade.framework.config_com.fasterxml.jackson.databind.deser.std"><path codeLine="20" d="M1657.71,379.94 C1587.86,395.89 1474.7695,421.7146 1404.9895,437.6446 " fill="none" id="org.vorpal.blade.framework.config-to-com.fasterxml.jackson.databind.deser.std" style="stroke:#181818;stroke-width:1.0;"/><polygon fill="#181818" points="1399.14,438.98,1408.8045,440.8766,1404.0146,437.8672,1407.024,433.0773,1399.14,438.98" style="stroke:#181818;stroke-width:1.0;"/></g><!--link org.vorpal.blade.framework.config to inet.ipaddr.ipv6--><g id="link_org.vorpal.blade.framework.config_inet.ipaddr.ipv6"><path codeLine="21" d="M1693.74,379.85 C1668.85,395.77 1631.4034,419.7454 1606.4534,435.7154 " fill="none" id="org.vorpal.blade.framework.config-to-inet.ipaddr.ipv6" style="stroke:#181818;stroke-width:1.0;"/><polygon fill="#181818" points="1601.4,438.95,1611.1366,437.467,1605.6112,436.2545,1606.8238,430.7291,1601.4,438.95" style="stroke:#181818;stroke-width:1.0;"/></g><!--link org.vorpal.blade.framework.config to inet.ipaddr--><g id="link_org.vorpal.blade.framework.config_inet.ipaddr"><path codeLine="22" d="M1713.5,379.66 C1713.5,395.64 1713.5,417.17 1713.5,433.17 " fill="none" id="org.vorpal.blade.framework.config-to-inet.ipaddr" style="stroke:#181818;stroke-width:1.0;"/><polygon fill="#181818" points="1713.5,439.17,1717.5,430.17,1713.5,434.17,1709.5,430.17,1713.5,439.17" style="stroke:#181818;stroke-width:1.0;"/></g><!--link org.vorpal.blade.framework.config to inet.ipaddr.ipv4--><g id="link_org.vorpal.blade.framework.config_inet.ipaddr.ipv4"><path codeLine="23" d="M1733.26,379.85 C1758.15,395.77 1795.5966,419.7454 1820.5466,435.7154 " fill="none" id="org.vorpal.blade.framework.config-to-inet.ipaddr.ipv4" style="stroke:#181818;stroke-width:1.0;"/><polygon fill="#181818" points="1825.6,438.95,1820.1762,430.7291,1821.3888,436.2545,1815.8634,437.467,1825.6,438.95" style="stroke:#181818;stroke-width:1.0;"/></g><!--link org.vorpal.blade.framework.config to org.apache.commons.collections4.trie--><g id="link_org.vorpal.blade.framework.config_org.apache.commons.collections4.trie"><path codeLine="24" d="M1767.33,379.94 C1834.73,395.89 1943.6512,421.6684 2010.9712,437.5984 " fill="none" id="org.vorpal.blade.framework.config-to-org.apache.commons.collections4.trie" style="stroke:#181818;stroke-width:1.0;"/><polygon fill="#181818" points="2016.81,438.98,2008.973,433.015,2011.9444,437.8286,2007.1308,440.8001,2016.81,438.98" style="stroke:#181818;stroke-width:1.0;"/></g><!--link org.vorpal.blade.framework.config to inet.ipaddr.format.util--><g id="link_org.vorpal.blade.framework.config_inet.ipaddr.format.util"><path codeLine="25" d="M1804.58,379.94 C1922.72,396.46 2120.9479,424.1887 2232.7479,439.8287 " fill="none" id="org.vorpal.blade.framework.config-to-inet.ipaddr.format.util" style="stroke:#181818;stroke-width:1.0;"/><polygon fill="#181818" points="2238.69,440.66,2230.331,435.4517,2233.7382,439.9673,2229.2226,443.3745,2238.69,440.66" style="stroke:#181818;stroke-width:1.0;"/></g><!--link org.vorpal.blade.framework.deprecated.proxy to org.vorpal.blade.framework--><g id="link_org.vorpal.blade.framework.deprecated.proxy_org.vorpal.blade.framework"><path codeLine="26" d="M2226.76,120.47 C2182.02,136.42 2111.4914,161.5647 2066.7914,177.5047 " fill="none" id="org.vorpal.blade.framework.deprecated.proxy-to-org.vorpal.blade.framework" style="stroke:#181818;stroke-width:1.0;"/><polygon fill="#181818" points="2061.14,179.52,2070.9607,180.2647,2065.8495,177.8406,2068.2736,172.7294,2061.14,179.52" style="stroke:#181818;stroke-width:1.0;"/></g><!--link org.vorpal.blade.framework.deprecated.proxy to org.vorpal.blade.framework.callflow--><g id="link_org.vorpal.blade.framework.deprecated.proxy_org.vorpal.blade.framework.callflow"><path codeLine="27" d="M2262.5,120.3 C2262.5,151.92 2262.5,228.48 2262.5,260.12 " fill="none" id="org.vorpal.blade.framework.deprecated.proxy-to-org.vorpal.blade.framework.callflow" style="stroke:#181818;stroke-width:1.0;"/><polygon fill="#181818" points="2262.5,266.12,2266.5,257.12,2262.5,261.12,2258.5,257.12,2262.5,266.12" style="stroke:#181818;stroke-width:1.0;"/></g><!--link org.vorpal.blade.framework.deprecated.proxy.callflows to org.vorpal.blade.framework.callflow--><g id="link_org.vorpal.blade.framework.deprecated.proxy.callflows_org.vorpal.blade.framework.callflow"><path codeLine="28" d="M2389.98,33.91 C2415.99,51.73 2455.78,85.87 2440.5,119.98 C2408.67,191.01 2332.8294,240.3961 2292.0094,263.1761 " fill="none" id="org.vorpal.blade.framework.deprecated.proxy.callflows-to-org.vorpal.blade.framework.callflow" style="stroke:#181818;stroke-width:1.0;"/><polygon fill="#181818" points="2286.77,266.1,2296.5783,265.2071,2291.1361,263.6634,2292.6798,258.2213,2286.77,266.1" style="stroke:#181818;stroke-width:1.0;"/></g><!--link org.vorpal.blade.framework.deprecated.proxy.callflows to org.vorpal.blade.framework.deprecated.proxy--><g id="link_org.vorpal.blade.framework.deprecated.proxy.callflows_org.vorpal.blade.framework.deprecated.proxy"><path codeLine="29" d="M2353.71,33.71 C2333.48,49.68 2303.3198,73.5028 2283.0598,89.4928 " fill="none" id="org.vorpal.blade.framework.deprecated.proxy.callflows-to-org.vorpal.blade.framework.deprecated.proxy" style="stroke:#181818;stroke-width:1.0;"/><polygon fill="#181818" points="2278.35,93.21,2287.8929,90.7741,2282.2749,90.1123,2282.9366,84.4943,2278.35,93.21" style="stroke:#181818;stroke-width:1.0;"/></g><!--link org.vorpal.blade.framework.proxy to org.vorpal.blade.framework--><g id="link_org.vorpal.blade.framework.proxy_org.vorpal.blade.framework"><path codeLine="30" d="M2229.47,352.55 C2199.02,340.01 2153.38,318.93 2118.5,292.95 C2083.56,266.93 2054.2237,231.7038 2038.6037,211.5338 " fill="none" id="org.vorpal.blade.framework.proxy-to-org.vorpal.blade.framework" style="stroke:#181818;stroke-width:1.0;"/><polygon fill="#181818" points="2034.93,206.79,2037.278,216.3549,2037.9914,210.7432,2043.6031,211.4566,2034.93,206.79" style="stroke:#181818;stroke-width:1.0;"/></g><text fill="#888888" font-family="sans-serif" font-size="10" lengthAdjust="spacing" textLength="176" x="1251.25" y="480.5963">UMLDoclet 2.1.2, PlantUML 1.2024.3</text><!--SRC=[nPR1RXCn48RlFCMe4W8aueYeuiW9SGAf4e9BrSEiFRjnOtjMjfCsGhmxZZTDKQJYtSIq9sTdnjy_cVNC6W0WhBJhqQE51kMgyxnsIh9X3z6Z2yb5Bhw2NIH5S6WfsIHzfzsccC8SEyh-fLO4Kdjf_decsySjj9gC2iTMIt79oPpjx3knOT-Z4Or1HQ9DET4T-nNCPf_-uHQ6kqwxxaoAPDVgio5eJ6luhe0HpQ9PutF2Iem7hJgr7eqRLVJHjDxp_RO8ov8P9TcA5aCaVs-Dk4t7Fx0J2YCssga9e0e5AsKbsLErloO2UH6YgWUyJKzVs5kCFtNGQIo4Ucn5qzFLZgBGFIhbqxBvUDhMqmKl9vuUJ3DrISbgBRkGLcD8Hfr-NuheDPsOIPjVYLX7RKe4HRqdYP7Kq4Td3fI9kD73xfXxs1XUNk5uPqcfHfsd5JVJti1LQZ7i28nsgw5HfS4GuE9fnWLSNoVlVF3EitT-yCxxWJWBQslHRyKoMdDp0xyo_FSuYOTPMP3QHzMH7Fgce3W4LHBSlugIv3wiZcY-8HGKSqmTkNmcImTc5rD7xhZj2igFuVypYSUfCJMTmyPHYQNBENbecNVBZszVFtEwVaTOY0zYyHwk3BgOhF1wGpwapydRTty0]--></g></svg>