<?xml version="1.0" encoding="us-ascii" standalone="no"?><svg xmlns="http://www.w3.org/2000/svg" xmlns:xlink="http://www.w3.org/1999/xlink" contentStyleType="text/css" height="193px" preserveAspectRatio="none" style="width:360px;height:193px;background:#FFFFFF;" version="1.1" viewBox="0 0 360 193" width="360px" zoomAndPan="magnify"><defs/><g><!--class org.vorpal.blade.services.crud2.config.CrudConfiguration--><a href="CrudConfiguration.html" target="_top" title="CrudConfiguration.html" xlink:actuate="onRequest" xlink:href="CrudConfiguration.html" xlink:show="new" xlink:title="CrudConfiguration.html" xlink:type="simple"><g id="elem_org.vorpal.blade.services.crud2.config.CrudConfiguration"><rect codeLine="5" fill="#F1F1F1" height="62.7539" id="org.vorpal.blade.services.crud2.config.CrudConfiguration" rx="2.5" ry="2.5" style="stroke:#181818;stroke-width:0.5;" width="240" x="82" y="105.27"/><ellipse cx="107.8" cy="124.4028" fill="#ADD1B2" rx="11" ry="11" style="stroke:#181818;stroke-width:1.0;"/><path d="M110.2731,130.5459 Q109.6921,130.8447 109.0529,130.9941 Q108.4138,131.1435 107.7082,131.1435 Q105.2014,131.1435 103.8815,129.4917 Q102.5617,127.8398 102.5617,124.7187 Q102.5617,121.5893 103.8815,119.9375 Q105.2014,118.2856 107.7082,118.2856 Q108.4138,118.2856 109.0612,118.435 Q109.7087,118.5845 110.2731,118.8833 L110.2731,121.6059 Q109.6423,121.0249 109.0488,120.7551 Q108.4553,120.4853 107.8244,120.4853 Q106.4797,120.4853 105.7949,121.552 Q105.1101,122.6186 105.1101,124.7187 Q105.1101,126.8105 105.7949,127.8772 Q106.4797,128.9438 107.8244,128.9438 Q108.4553,128.9438 109.0488,128.6741 Q109.6423,128.4043 110.2731,127.8232 Z " fill="#000000"/><text fill="#000000" font-family="sans-serif" font-size="14" lengthAdjust="spacing" textLength="130" x="151.2" y="123.8052">CrudConfiguration</text><text fill="#000000" font-family="sans-serif" font-size="10" lengthAdjust="spacing" textLength="184" x="124.2" y="136.4263">org.vorpal.blade.services.crud2.config</text><line style="stroke:#181818;stroke-width:0.5;" x1="83" x2="321" y1="143.5356" y2="143.5356"/><ellipse cx="93" cy="157.2798" fill="none" rx="3" ry="3" style="stroke:#038048;stroke-width:1.0;"/><text fill="#000000" font-family="sans-serif" font-size="14" lengthAdjust="spacing" textLength="214" x="102" y="161.0708">ruleSets: Map&lt;String, RuleSet&gt;</text></g></a><!--class org.vorpal.blade.framework.config.RouterConfig--><a href="https://vorpalnet.github.io/blade/vorpal-blade-library-framework/org/vorpal/blade/framework/config/RouterConfig.html?is-external=true" target="_top" title="https://vorpalnet.github.io/blade/vorpal-blade-library-framework/org/vorpal/blade/framework/config/RouterConfig.html?is-external=true" xlink:actuate="onRequest" xlink:href="https://vorpalnet.github.io/blade/vorpal-blade-library-framework/org/vorpal/blade/framework/config/RouterConfig.html?is-external=true" xlink:show="new" xlink:title="https://vorpalnet.github.io/blade/vorpal-blade-library-framework/org/vorpal/blade/framework/config/RouterConfig.html?is-external=true" xlink:type="simple"><g id="elem_org.vorpal.blade.framework.config.RouterConfig"><rect codeLine="9" fill="#F1F1F1" height="38.2656" id="org.vorpal.blade.framework.config.RouterConfig" rx="2.5" ry="2.5" style="stroke:#181818;stroke-width:0.5;" width="200" x="7" y="7"/><ellipse cx="22" cy="26.1328" fill="#ADD1B2" rx="11" ry="11" style="stroke:#181818;stroke-width:1.0;"/><path d="M24.4731,32.2759 Q23.8921,32.5747 23.2529,32.7241 Q22.6138,32.8735 21.9082,32.8735 Q19.4014,32.8735 18.0815,31.2217 Q16.7617,29.5698 16.7617,26.4487 Q16.7617,23.3193 18.0815,21.6675 Q19.4014,20.0156 21.9082,20.0156 Q22.6138,20.0156 23.2612,20.165 Q23.9087,20.3145 24.4731,20.6133 L24.4731,23.3359 Q23.8423,22.7549 23.2488,22.4851 Q22.6553,22.2153 22.0244,22.2153 Q20.6797,22.2153 19.9949,23.282 Q19.3101,24.3486 19.3101,26.4487 Q19.3101,28.5405 19.9949,29.6072 Q20.6797,30.6738 22.0244,30.6738 Q22.6553,30.6738 23.2488,30.4041 Q23.8423,30.1343 24.4731,29.5532 Z " fill="#000000"/><text fill="#000000" font-family="sans-serif" font-size="14" lengthAdjust="spacing" textLength="92" x="74" y="25.5352">RouterConfig</text><text fill="#000000" font-family="sans-serif" font-size="10" lengthAdjust="spacing" textLength="168" x="36" y="38.1563">org.vorpal.blade.framework.config</text></g></a><!--class java.io.Serializable--><a href="https://docs.oracle.com/en/java/javase/11/docs/api/java.base/java/io/Serializable.html?is-external=true" target="_top" title="https://docs.oracle.com/en/java/javase/11/docs/api/java.base/java/io/Serializable.html?is-external=true" xlink:actuate="onRequest" xlink:href="https://docs.oracle.com/en/java/javase/11/docs/api/java.base/java/io/Serializable.html?is-external=true" xlink:show="new" xlink:title="https://docs.oracle.com/en/java/javase/11/docs/api/java.base/java/io/Serializable.html?is-external=true" xlink:type="simple"><g id="elem_java.io.Serializable"><rect codeLine="10" fill="#F1F1F1" height="38.2656" id="java.io.Serializable" rx="2.5" ry="2.5" style="stroke:#181818;stroke-width:0.5;" width="111" x="242.5" y="7"/><ellipse cx="257.5" cy="26.1328" fill="#B4A7E5" rx="11" ry="11" style="stroke:#181818;stroke-width:1.0;"/><path d="M253.9277,22.3979 L253.9277,20.2397 L261.3071,20.2397 L261.3071,22.3979 L258.8418,22.3979 L258.8418,30.4746 L261.3071,30.4746 L261.3071,32.6328 L253.9277,32.6328 L253.9277,30.4746 L256.3931,30.4746 L256.3931,22.3979 Z " fill="#000000"/><text fill="#000000" font-family="sans-serif" font-size="14" font-style="italic" lengthAdjust="spacing" textLength="79" x="271.5" y="25.5352">Serializable</text><text fill="#000000" font-family="sans-serif" font-size="10" font-style="italic" lengthAdjust="spacing" textLength="32" x="295" y="38.1563">java.io</text></g></a><!--reverse link org.vorpal.blade.framework.config.RouterConfig to org.vorpal.blade.services.crud2.config.CrudConfiguration--><g id="link_org.vorpal.blade.framework.config.RouterConfig_org.vorpal.blade.services.crud2.config.CrudConfiguration"><path codeLine="12" d="M134.9713,59.0879 C149.1513,75.2979 158.25,85.67 175,104.8 " fill="none" id="org.vorpal.blade.framework.config.RouterConfig-backto-org.vorpal.blade.services.crud2.config.CrudConfiguration" style="stroke:#181818;stroke-width:1.0;"/><polygon fill="none" points="123.12,45.54,130.4553,63.0384,139.4873,55.1375,123.12,45.54" style="stroke:#181818;stroke-width:1.0;"/></g><!--reverse link java.io.Serializable to org.vorpal.blade.services.crud2.config.CrudConfiguration--><g id="link_java.io.Serializable_org.vorpal.blade.services.crud2.config.CrudConfiguration"><path codeLine="13" d="M269.7882,59.0259 C255.4582,75.2359 246.21,85.67 229.29,104.8 " fill="none" id="java.io.Serializable-backto-org.vorpal.blade.services.crud2.config.CrudConfiguration" style="stroke:#181818;stroke-width:1.0;stroke-dasharray:7.0,7.0;"/><polygon fill="none" points="281.71,45.54,265.2929,55.052,274.2835,62.9999,281.71,45.54" style="stroke:#181818;stroke-width:1.0;"/></g><text fill="#888888" font-family="sans-serif" font-size="10" lengthAdjust="spacing" textLength="176" x="85.25" y="183.6919">UMLDoclet 2.1.2, PlantUML 1.2024.3</text><!--SRC=[fL9DRzD04BtpAqQLa43KioJY5ANXK8vKGequbHp6zZXUMEzQi-j0I_dlZ3SMM6sfeFZWZpTltinxNW20o0ayTHnxgdZBFGcb8E23vsTQXjRM3DprwHeQowwETz6EKniKpdZbA4OuMKTxmwl5cysv3FLvy8tT3wfhW__afzhhJP0z7eBqvB1qL3D6beEjE6AbNKkiSjy9K8I_e-AzQN1rTG_3DdLkjuFlUU7nUYM3K-ifhk22-lKsYVNxKxWyeflC-_6mlyim99QZ_cFM6j68lmRvygYhkooSowkNDgK-hemvDdbEkBUf7KgqmMI5gLBaZyBPKaYkYr-oHYTEb8d_ktISQEOJSr9lRIpucsAUt5cIWNUxd8JrYZLwPcPfR5aiENj3fUDP6f_fGBfYzZozuvmwSrQ7Ac8GgXnh1frXRyQEV8ji5elCCDJR364vefcX4Smr_xXxNluVar_V5iMJps0U-A3jzItY_ybMFFu5Q48O7nylthyBcbo29IvmUGeV7FcaA3m_i4HjUl7o9m00]--></g></svg>