<?xml version="1.0" encoding="us-ascii" standalone="no"?><svg xmlns="http://www.w3.org/2000/svg" xmlns:xlink="http://www.w3.org/1999/xlink" contentStyleType="text/css" height="460px" preserveAspectRatio="none" style="width:487px;height:460px;background:#FFFFFF;" version="1.1" viewBox="0 0 487 460" width="487px" zoomAndPan="magnify"><defs/><g><!--cluster org.vorpal.blade.services.crud2.config--><g id="cluster_org.vorpal.blade.services.crud2.config"><path d="M110.5,211.44 L377.5,211.44 A3.75,3.75 0 0 1 380,213.94 L387,233.9283 L387.5,233.9283 A2.5,2.5 0 0 1 390,236.4283 L390,432.43 A2.5,2.5 0 0 1 387.5,434.93 L110.5,434.93 A2.5,2.5 0 0 1 108,432.43 L108,213.94 A2.5,2.5 0 0 1 110.5,211.44 " fill="none" style="stroke:#000000;stroke-width:1.5;"/><line style="stroke:#000000;stroke-width:1.5;" x1="108" x2="387" y1="233.9283" y2="233.9283"/><text fill="#000000" font-family="sans-serif" font-size="14" font-weight="bold" lengthAdjust="spacing" textLength="266" x="112" y="226.9752">org.vorpal.blade.services.crud2.config</text></g><!--cluster org.vorpal.blade.framework.config--><g id="cluster_org.vorpal.blade.framework.config"><path d="M8.5,6 L252.5,6 A3.75,3.75 0 0 1 255,8.5 L262,28.4883 L309.5,28.4883 A2.5,2.5 0 0 1 312,30.9883 L312,184.94 A2.5,2.5 0 0 1 309.5,187.44 L8.5,187.44 A2.5,2.5 0 0 1 6,184.94 L6,8.5 A2.5,2.5 0 0 1 8.5,6 " fill="none" style="stroke:#000000;stroke-width:1.5;"/><line style="stroke:#000000;stroke-width:1.5;" x1="6" x2="262" y1="28.4883" y2="28.4883"/><text fill="#000000" font-family="sans-serif" font-size="14" font-weight="bold" lengthAdjust="spacing" textLength="243" x="10" y="21.5352">org.vorpal.blade.framework.config</text></g><!--cluster java.io--><g id="cluster_java.io"><path d="M338.5,47.22 L385.5,47.22 A3.75,3.75 0 0 1 388,49.72 L395,69.7083 L477.5,69.7083 A2.5,2.5 0 0 1 480,72.2083 L480,143.72 A2.5,2.5 0 0 1 477.5,146.22 L338.5,146.22 A2.5,2.5 0 0 1 336,143.72 L336,49.72 A2.5,2.5 0 0 1 338.5,47.22 " fill="none" style="stroke:#000000;stroke-width:1.5;"/><line style="stroke:#000000;stroke-width:1.5;" x1="336" x2="395" y1="69.7083" y2="69.7083"/><text fill="#000000" font-family="sans-serif" font-size="14" font-weight="bold" lengthAdjust="spacing" textLength="46" x="340" y="62.7552">java.io</text></g><!--class CrudConfiguration--><a href="CrudConfiguration.html" target="_top" title="CrudConfiguration.html" xlink:actuate="onRequest" xlink:href="CrudConfiguration.html" xlink:show="new" xlink:title="CrudConfiguration.html" xlink:type="simple"><g id="elem_CrudConfiguration"><rect codeLine="5" fill="#F1F1F1" height="64.4883" id="CrudConfiguration" rx="2.5" ry="2.5" style="stroke:#181818;stroke-width:0.5;" width="240" x="129" y="246.44"/><ellipse cx="179.75" cy="262.44" fill="#ADD1B2" rx="11" ry="11" style="stroke:#181818;stroke-width:1.0;"/><path d="M182.2231,268.5831 Q181.6421,268.8819 181.0029,269.0313 Q180.3638,269.1807 179.6582,269.1807 Q177.1514,269.1807 175.8315,267.5289 Q174.5117,265.877 174.5117,262.7559 Q174.5117,259.6265 175.8315,257.9747 Q177.1514,256.3228 179.6582,256.3228 Q180.3638,256.3228 181.0112,256.4722 Q181.6587,256.6216 182.2231,256.9205 L182.2231,259.6431 Q181.5923,259.0621 180.9988,258.7923 Q180.4053,258.5225 179.7744,258.5225 Q178.4297,258.5225 177.7449,259.5892 Q177.0601,260.6558 177.0601,262.7559 Q177.0601,264.8477 177.7449,265.9144 Q178.4297,266.981 179.7744,266.981 Q180.4053,266.981 180.9988,266.7112 Q181.5923,266.4415 182.2231,265.8604 Z " fill="#000000"/><text fill="#000000" font-family="sans-serif" font-size="14" lengthAdjust="spacing" textLength="130" x="200.25" y="267.731">CrudConfiguration</text><line style="stroke:#181818;stroke-width:0.5;" x1="130" x2="368" y1="278.44" y2="278.44"/><ellipse cx="140" cy="292.1841" fill="none" rx="3" ry="3" style="stroke:#038048;stroke-width:1.0;"/><text fill="#000000" font-family="sans-serif" font-size="14" lengthAdjust="spacing" textLength="214" x="149" y="295.9752">ruleSets: Map&lt;String, RuleSet&gt;</text><line style="stroke:#181818;stroke-width:0.5;" x1="130" x2="368" y1="302.9283" y2="302.9283"/></g></a><!--class CrudConfigurationSample--><a href="CrudConfigurationSample.html" target="_top" title="CrudConfigurationSample.html" xlink:actuate="onRequest" xlink:href="CrudConfigurationSample.html" xlink:show="new" xlink:title="CrudConfigurationSample.html" xlink:type="simple"><g id="elem_CrudConfigurationSample"><rect codeLine="9" fill="#F1F1F1" height="48" id="CrudConfigurationSample" rx="2.5" ry="2.5" style="stroke:#181818;stroke-width:0.5;" width="212" x="143" y="370.93"/><ellipse cx="158" cy="386.93" fill="#ADD1B2" rx="11" ry="11" style="stroke:#181818;stroke-width:1.0;"/><path d="M160.4731,393.0731 Q159.8921,393.3719 159.2529,393.5213 Q158.6138,393.6707 157.9082,393.6707 Q155.4014,393.6707 154.0815,392.0189 Q152.7617,390.367 152.7617,387.2459 Q152.7617,384.1165 154.0815,382.4647 Q155.4014,380.8128 157.9082,380.8128 Q158.6138,380.8128 159.2612,380.9622 Q159.9087,381.1116 160.4731,381.4105 L160.4731,384.1331 Q159.8423,383.5521 159.2488,383.2823 Q158.6553,383.0125 158.0244,383.0125 Q156.6797,383.0125 155.9949,384.0792 Q155.3101,385.1458 155.3101,387.2459 Q155.3101,389.3377 155.9949,390.4044 Q156.6797,391.471 158.0244,391.471 Q158.6553,391.471 159.2488,391.2012 Q159.8423,390.9315 160.4731,390.3504 Z " fill="#000000"/><text fill="#000000" font-family="sans-serif" font-size="14" lengthAdjust="spacing" textLength="180" x="172" y="392.221">CrudConfigurationSample</text><line style="stroke:#181818;stroke-width:0.5;" x1="144" x2="354" y1="402.93" y2="402.93"/><line style="stroke:#181818;stroke-width:0.5;" x1="144" x2="354" y1="410.93" y2="410.93"/></g></a><!--class RouterConfig--><a href="https://vorpalnet.github.io/blade/vorpal-blade-library-framework/org/vorpal/blade/framework/config/RouterConfig.html?is-external=true" target="_top" title="https://vorpalnet.github.io/blade/vorpal-blade-library-framework/org/vorpal/blade/framework/config/RouterConfig.html?is-external=true" xlink:actuate="onRequest" xlink:href="https://vorpalnet.github.io/blade/vorpal-blade-library-framework/org/vorpal/blade/framework/config/RouterConfig.html?is-external=true" xlink:show="new" xlink:title="https://vorpalnet.github.io/blade/vorpal-blade-library-framework/org/vorpal/blade/framework/config/RouterConfig.html?is-external=true" xlink:type="simple"><g id="elem_RouterConfig"><rect codeLine="14" fill="#F1F1F1" height="130.4414" id="RouterConfig" rx="2.5" ry="2.5" style="stroke:#181818;stroke-width:0.5;" width="275" x="21.5" y="41"/><ellipse cx="108.75" cy="57" fill="#ADD1B2" rx="11" ry="11" style="stroke:#181818;stroke-width:1.0;"/><path d="M111.2231,63.1431 Q110.6421,63.4419 110.0029,63.5913 Q109.3638,63.7407 108.6582,63.7407 Q106.1514,63.7407 104.8315,62.0889 Q103.5117,60.437 103.5117,57.3159 Q103.5117,54.1865 104.8315,52.5347 Q106.1514,50.8828 108.6582,50.8828 Q109.3638,50.8828 110.0112,51.0322 Q110.6587,51.1816 111.2231,51.4805 L111.2231,54.2031 Q110.5923,53.6221 109.9988,53.3523 Q109.4053,53.0825 108.7744,53.0825 Q107.4297,53.0825 106.7449,54.1492 Q106.0601,55.2158 106.0601,57.3159 Q106.0601,59.4077 106.7449,60.4744 Q107.4297,61.541 108.7744,61.541 Q109.4053,61.541 109.9988,61.2712 Q110.5923,61.0015 111.2231,60.4204 Z " fill="#000000"/><text fill="#000000" font-family="sans-serif" font-size="14" lengthAdjust="spacing" textLength="92" x="129.25" y="62.291">RouterConfig</text><line style="stroke:#181818;stroke-width:0.5;" x1="22.5" x2="295.5" y1="73" y2="73"/><rect fill="none" height="6" style="stroke:#C82930;stroke-width:1.0;" width="6" x="29.5" y="83.7441"/><text fill="#000000" font-family="sans-serif" font-size="14" lengthAdjust="spacing" text-decoration="underline" textLength="152" x="41.5" y="90.5352">serialVersionUID: long</text><ellipse cx="32.5" cy="103.2324" fill="none" rx="3" ry="3" style="stroke:#038048;stroke-width:1.0;"/><text fill="#000000" font-family="sans-serif" font-size="14" lengthAdjust="spacing" textLength="214" x="41.5" y="107.0234">selectors: LinkedList&lt;Selector&gt;</text><ellipse cx="32.5" cy="119.7207" fill="none" rx="3" ry="3" style="stroke:#038048;stroke-width:1.0;"/><text fill="#000000" font-family="sans-serif" font-size="14" lengthAdjust="spacing" textLength="249" x="41.5" y="123.5117">maps: LinkedList&lt;TranslationsMap&gt;</text><ellipse cx="32.5" cy="136.209" fill="none" rx="3" ry="3" style="stroke:#038048;stroke-width:1.0;"/><text fill="#000000" font-family="sans-serif" font-size="14" lengthAdjust="spacing" textLength="242" x="41.5" y="140">plan: LinkedList&lt;TranslationsMap&gt;</text><ellipse cx="32.5" cy="152.6973" fill="none" rx="3" ry="3" style="stroke:#038048;stroke-width:1.0;"/><text fill="#000000" font-family="sans-serif" font-size="14" lengthAdjust="spacing" textLength="174" x="41.5" y="156.4883">defaultRoute: Translation</text><line style="stroke:#181818;stroke-width:0.5;" x1="22.5" x2="295.5" y1="163.4414" y2="163.4414"/></g></a><!--class Serializable--><a href="https://docs.oracle.com/en/java/javase/11/docs/api/java.base/java/io/Serializable.html?is-external=true" target="_top" title="https://docs.oracle.com/en/java/javase/11/docs/api/java.base/java/io/Serializable.html?is-external=true" xlink:actuate="onRequest" xlink:href="https://docs.oracle.com/en/java/javase/11/docs/api/java.base/java/io/Serializable.html?is-external=true" xlink:show="new" xlink:title="https://docs.oracle.com/en/java/javase/11/docs/api/java.base/java/io/Serializable.html?is-external=true" xlink:type="simple"><g id="elem_Serializable"><rect codeLine="24" fill="#F1F1F1" height="48" id="Serializable" rx="2.5" ry="2.5" style="stroke:#181818;stroke-width:0.5;" width="111" x="352.5" y="82.22"/><ellipse cx="367.5" cy="98.22" fill="#B4A7E5" rx="11" ry="11" style="stroke:#181818;stroke-width:1.0;"/><path d="M363.9277,94.4851 L363.9277,92.3269 L371.3071,92.3269 L371.3071,94.4851 L368.8418,94.4851 L368.8418,102.5618 L371.3071,102.5618 L371.3071,104.72 L363.9277,104.72 L363.9277,102.5618 L366.3931,102.5618 L366.3931,94.4851 Z " fill="#000000"/><text fill="#000000" font-family="sans-serif" font-size="14" font-style="italic" lengthAdjust="spacing" textLength="79" x="381.5" y="103.511">Serializable</text><line style="stroke:#181818;stroke-width:0.5;" x1="353.5" x2="462.5" y1="114.22" y2="114.22"/><line style="stroke:#181818;stroke-width:0.5;" x1="353.5" x2="462.5" y1="122.22" y2="122.22"/></g></a><!--reverse link RouterConfig to CrudConfiguration--><g id="link_RouterConfig_CrudConfiguration"><path codeLine="27" d="M201.4356,187.5868 C214.8756,213.0368 221.3,225.21 232.31,246.08 " fill="none" id="RouterConfig-backto-CrudConfiguration" style="stroke:#181818;stroke-width:1.0;"/><polygon fill="none" points="193.03,171.67,196.13,190.3887,206.7412,184.785,193.03,171.67" style="stroke:#181818;stroke-width:1.0;"/></g><!--reverse link Serializable to CrudConfiguration--><g id="link_Serializable_CrudConfiguration"><path codeLine="28" d="M373.9506,143.7312 C345.9606,173.7312 309.56,212.76 278.34,246.23 " fill="none" id="Serializable-backto-CrudConfiguration" style="stroke:#181818;stroke-width:1.0;stroke-dasharray:7.0,7.0;"/><polygon fill="none" points="386.23,130.57,369.5636,139.6381,378.3377,147.8243,386.23,130.57" style="stroke:#181818;stroke-width:1.0;"/></g><!--reverse link CrudConfiguration to CrudConfigurationSample--><g id="link_CrudConfiguration_CrudConfigurationSample"><path codeLine="29" d="M249,329.21 C249,347.96 249,353.36 249,370.49 " fill="none" id="CrudConfiguration-backto-CrudConfigurationSample" style="stroke:#181818;stroke-width:1.0;"/><polygon fill="none" points="249,311.21,243,329.21,255,329.21,249,311.21" style="stroke:#181818;stroke-width:1.0;"/></g><text fill="#888888" font-family="sans-serif" font-size="10" lengthAdjust="spacing" textLength="176" x="148.5" y="450.598">UMLDoclet 2.1.2, PlantUML 1.2024.3</text><!--SRC=[fLFBRjim4BpdA_PIe4KZ2lQHSDD3SYdW04NKz1BaiA9NCckA54ZAVIJ-zwufDP7g54uQ0RRXtU4ETsO4010eygT5Zz5vaFBaX8lGejfWJU1yBRREjsX4QN158f3VQaL1AD-jva8vM-aQxlfJ-qSP307EkNkUUXqFrix2pSr1JQnZOsvl-JICdlU-CrHG318kiLqKqMjRdy9LNprxmEwESXROj8QUOkux0ty_PtTaySfZGz-TtppkFAM_SbqatzCmvph6DiWyxuTOYgBMSTsLGhiyJHmwMVgJ6Lrwz3-p1vgSRp101lnZgxz1FcPCktpK8QCVNBDeFaJVqO6uTo6o06e76HkfqNmb7rYFwqyN4eopzTI9G8OKnuAjM6gxeTLIXxWeXkhP5DnWEyLzyMY3INe7Tl8lU6lGlW2-eWex4zFA4aROKHwUiF4RRf4L7wcWBUjJeI8eaWBw5vOf97yCMpaLXFEeE23ADJdPV3ybVGNAPxE4oB7LgIJAVJKXsDdnp7zPChxdqPX9ESdLuZxBdlbIIdaG-qGvI2BbPF_5lH2l7FpVfr-vLVyofoieshiBbNFxd-lBvOLZ6oFCnKpCJ-4pPovo5Tvi-zo_VVSR]--></g></svg>