<?xml version="1.0" encoding="us-ascii" standalone="no"?><svg xmlns="http://www.w3.org/2000/svg" xmlns:xlink="http://www.w3.org/1999/xlink" contentStyleType="text/css" height="473px" preserveAspectRatio="none" style="width:479px;height:473px;background:#FFFFFF;" version="1.1" viewBox="0 0 479 473" width="479px" zoomAndPan="magnify"><defs/><g><!--class org.vorpal.blade.framework.deprecated.proxy.ProxyInvite--><a href="ProxyInvite.html" target="_top" title="ProxyInvite.html" xlink:actuate="onRequest" xlink:href="ProxyInvite.html" xlink:show="new" xlink:title="ProxyInvite.html" xlink:type="simple"><g id="elem_org.vorpal.blade.framework.deprecated.proxy.ProxyInvite"><rect codeLine="5" fill="#F1F1F1" height="318.0781" id="org.vorpal.blade.framework.deprecated.proxy.ProxyInvite" rx="2.5" ry="2.5" style="stroke:#181818;stroke-width:0.5;" width="463" x="9" y="129.75"/><ellipse cx="124.75" cy="148.8828" fill="#ADD1B2" rx="11" ry="11" style="stroke:#181818;stroke-width:1.0;"/><path d="M127.2231,155.0259 Q126.6421,155.3247 126.0029,155.4741 Q125.3638,155.6235 124.6582,155.6235 Q122.1514,155.6235 120.8315,153.9717 Q119.5117,152.3198 119.5117,149.1987 Q119.5117,146.0693 120.8315,144.4175 Q122.1514,142.7656 124.6582,142.7656 Q125.3638,142.7656 126.0112,142.915 Q126.6587,143.0645 127.2231,143.3633 L127.2231,146.0859 Q126.5923,145.5049 125.9988,145.2351 Q125.4053,144.9653 124.7744,144.9653 Q123.4297,144.9653 122.7449,146.032 Q122.0601,147.0986 122.0601,149.1987 Q122.0601,151.2905 122.7449,152.3572 Q123.4297,153.4238 124.7744,153.4238 Q125.4053,153.4238 125.9988,153.1541 Q126.5923,152.8843 127.2231,152.3032 Z " fill="#000000"/><text fill="#000000" font-family="sans-serif" font-size="14" lengthAdjust="spacing" textLength="76" x="218.75" y="148.2852">ProxyInvite</text><text fill="#000000" font-family="sans-serif" font-size="10" lengthAdjust="spacing" textLength="223" x="145.25" y="160.9063">org.vorpal.blade.framework.deprecated.proxy</text><line style="stroke:#181818;stroke-width:0.5;" x1="10" x2="471" y1="168.0156" y2="168.0156"/><rect fill="none" height="6" style="stroke:#C82930;stroke-width:1.0;" width="6" x="17" y="178.7598"/><text fill="#000000" font-family="sans-serif" font-size="14" lengthAdjust="spacing" text-decoration="underline" textLength="152" x="29" y="185.5508">serialVersionUID: long</text><rect fill="none" height="6" style="stroke:#C82930;stroke-width:1.0;" width="6" x="17" y="195.248"/><text fill="#000000" font-family="sans-serif" font-size="14" lengthAdjust="spacing" textLength="152" x="29" y="202.0391">listener: ProxyListener</text><rect fill="none" height="6" style="stroke:#C82930;stroke-width:1.0;" width="6" x="17" y="211.7363"/><text fill="#000000" font-family="sans-serif" font-size="14" lengthAdjust="spacing" textLength="216" x="29" y="218.5273">aliceRequest: SipServletRequest</text><rect fill="none" height="6" style="stroke:#C82930;stroke-width:1.0;" width="6" x="17" y="228.2246"/><text fill="#000000" font-family="sans-serif" font-size="14" lengthAdjust="spacing" textLength="238" x="29" y="235.0156">aliceResponse: SipServletResponse</text><rect fill="none" height="6" style="stroke:#C82930;stroke-width:1.0;" width="6" x="17" y="244.7129"/><text fill="#000000" font-family="sans-serif" font-size="14" lengthAdjust="spacing" textLength="212" x="29" y="251.5039">bobRequest: SipServletRequest</text><rect fill="none" height="6" style="stroke:#C82930;stroke-width:1.0;" width="6" x="17" y="261.2012"/><text fill="#000000" font-family="sans-serif" font-size="14" lengthAdjust="spacing" textLength="234" x="29" y="267.9922">bobResponse: SipServletResponse</text><polygon fill="none" points="20,276.6895,16,282.6895,24,282.6895" style="stroke:#1963A0;stroke-width:1.0;"/><text fill="#000000" font-family="sans-serif" font-size="14" lengthAdjust="spacing" textLength="225" x="29" y="284.4805">proxyRequest: SipServletRequest</text><rect fill="none" height="6" style="stroke:#C82930;stroke-width:1.0;" width="6" x="17" y="294.1777"/><text fill="#000000" font-family="sans-serif" font-size="14" lengthAdjust="spacing" textLength="141" x="29" y="300.9688">proxyTier: ProxyTier</text><polygon fill="none" points="20,309.666,16,315.666,24,315.666" style="stroke:#1963A0;stroke-width:1.0;"/><text fill="#000000" font-family="sans-serif" font-size="14" lengthAdjust="spacing" textLength="277" x="29" y="317.457">proxyRequests: List&lt;SipServletRequest&gt;</text><polygon fill="none" points="20,326.1543,16,332.1543,24,332.1543" style="stroke:#1963A0;stroke-width:1.0;"/><text fill="#000000" font-family="sans-serif" font-size="14" lengthAdjust="spacing" textLength="297" x="29" y="333.9453">failedResponses: List&lt;SipServletResponse&gt;</text><line style="stroke:#181818;stroke-width:0.5;" x1="10" x2="471" y1="340.8984" y2="340.8984"/><ellipse cx="20" cy="354.6426" fill="#84BE84" rx="3" ry="3" style="stroke:#038048;stroke-width:1.0;"/><text fill="#000000" font-family="sans-serif" font-size="14" lengthAdjust="spacing" textLength="179" x="29" y="358.4336">ProxyInvite(ProxyListener)</text><ellipse cx="20" cy="371.1309" fill="#84BE84" rx="3" ry="3" style="stroke:#038048;stroke-width:1.0;"/><text fill="#000000" font-family="sans-serif" font-size="14" lengthAdjust="spacing" textLength="173" x="29" y="374.9219">proxyOn(ProxyTier): void</text><ellipse cx="20" cy="387.6191" fill="#84BE84" rx="3" ry="3" style="stroke:#038048;stroke-width:1.0;"/><text fill="#000000" font-family="sans-serif" font-size="14" lengthAdjust="spacing" textLength="231" x="29" y="391.4102">proxyParallel(int, List&lt;URI&gt;): void</text><ellipse cx="20" cy="404.1074" fill="#84BE84" rx="3" ry="3" style="stroke:#038048;stroke-width:1.0;"/><text fill="#000000" font-family="sans-serif" font-size="14" lengthAdjust="spacing" textLength="219" x="29" y="407.8984">proxySerial(int, List&lt;URI&gt;): void</text><ellipse cx="20" cy="420.5957" fill="#84BE84" rx="3" ry="3" style="stroke:#038048;stroke-width:1.0;"/><text fill="#000000" font-family="sans-serif" font-size="14" lengthAdjust="spacing" textLength="222" x="29" y="424.3867">process(SipServletRequest): void</text><ellipse cx="20" cy="437.084" fill="#84BE84" rx="3" ry="3" style="stroke:#038048;stroke-width:1.0;"/><text fill="#000000" font-family="sans-serif" font-size="14" lengthAdjust="spacing" textLength="437" x="29" y="440.875">cancelOutstandingRequests(SipApplicationSession, String): void</text></g></a><!--class org.vorpal.blade.framework.callflow.Callflow--><a href="../../callflow/Callflow.html" target="_top" title="../../callflow/Callflow.html" xlink:actuate="onRequest" xlink:href="../../callflow/Callflow.html" xlink:show="new" xlink:title="../../callflow/Callflow.html" xlink:type="simple"><g id="elem_org.vorpal.blade.framework.callflow.Callflow"><rect codeLine="24" fill="#F1F1F1" height="62.7539" id="org.vorpal.blade.framework.callflow.Callflow" rx="2.5" ry="2.5" style="stroke:#181818;stroke-width:0.5;" width="248" x="116.5" y="7"/><ellipse cx="149.5" cy="26.1328" fill="#A9DCDF" rx="11" ry="11" style="stroke:#181818;stroke-width:1.0;"/><path d="M149.3633,21.481 L148.2095,26.5527 L150.5254,26.5527 Z M147.8691,19.2397 L150.8657,19.2397 L154.2109,31.6328 L151.7622,31.6328 L150.9985,28.5698 L147.7197,28.5698 L146.9727,31.6328 L144.5239,31.6328 Z " fill="#000000"/><text fill="#000000" font-family="sans-serif" font-size="14" font-style="italic" lengthAdjust="spacing" textLength="55" x="228" y="25.5352">Callflow</text><text fill="#000000" font-family="sans-serif" font-size="10" font-style="italic" lengthAdjust="spacing" textLength="176" x="167.5" y="38.1563">org.vorpal.blade.framework.callflow</text><line style="stroke:#181818;stroke-width:0.5;" x1="117.5" x2="363.5" y1="45.2656" y2="45.2656"/><ellipse cx="127.5" cy="59.0098" fill="#84BE84" rx="3" ry="3" style="stroke:#038048;stroke-width:1.0;"/><text fill="#000000" font-family="sans-serif" font-size="14" font-style="italic" lengthAdjust="spacing" textLength="222" x="136.5" y="62.8008">process(SipServletRequest): void</text></g></a><!--reverse link org.vorpal.blade.framework.callflow.Callflow to org.vorpal.blade.framework.deprecated.proxy.ProxyInvite--><g id="link_org.vorpal.blade.framework.callflow.Callflow_org.vorpal.blade.framework.deprecated.proxy.ProxyInvite"><path codeLine="28" d="M240.5,88.08 C240.5,104.05 240.5,106.91 240.5,129.39 " fill="none" id="org.vorpal.blade.framework.callflow.Callflow-backto-org.vorpal.blade.framework.deprecated.proxy.ProxyInvite" style="stroke:#181818;stroke-width:1.0;"/><polygon fill="none" points="240.5,70.08,234.5,88.08,246.5,88.08,240.5,70.08" style="stroke:#181818;stroke-width:1.0;"/></g><text fill="#888888" font-family="sans-serif" font-size="10" lengthAdjust="spacing" textLength="176" x="144.5" y="463.4961">UMLDoclet 2.1.2, PlantUML 1.2024.3</text><!--SRC=[dPJVJzim4CVV-IjEI4YfQCr0F4LLfMcyL6AY8YilXGVNkRJMNDkpZp36khyTvrTJIAK5eaYEpnz_VNUvCm20HmBDD-Wj5vYWvOwJSQ2DngEm36kP8k36qZDa4bNgtritI6iJpALTAEuz78-z_8Fn-ULaviplvwdE9U6zhgrV9iQjM6wSvOej5K-HPIvuy6JSJvQYTIWuOSfiiVSOk8SFy6plH5WizcPiJHlry00lfQF5y-A9anHR67bqagixT5uQFPzUnQ2CNkt0aPAUKAEBeHIyhgSjm9KKU8k_7j5J38cq2RfS8TMc3kYjqHxVafMjHPTcsKUnn7he_IlpqqUn17_8NRZ5vs4P7qEHYt57RDBo6PSAqyQTGpkgbNRBwTvVYzuaVD0ofHitEjfvE8WXDp9zHyn2FIk5AfAQXjNHyzlfv32Sb6NG0nNeVTG9kaCAhWMgcqSAXQPJgLTDsegzNwqDjH0AqEWao8LX20cvGEthRAk-uajFZWlgDDYt45scp5E_xX8r_R-kQZZMo8TMOkmilCtAMRDoeAqQPxSzSrN7-25_ndz7ey_U2zLDXPhGGMPCCSo_NryP4To32tREBeOmKrnJiC99NjqAqU0L]--></g></svg>