<?xml version="1.0" encoding="us-ascii" standalone="no"?><svg xmlns="http://www.w3.org/2000/svg" xmlns:xlink="http://www.w3.org/1999/xlink" contentStyleType="text/css" height="480px" preserveAspectRatio="none" style="width:283px;height:480px;background:#FFFFFF;" version="1.1" viewBox="0 0 283 480" width="283px" zoomAndPan="magnify"><defs/><g><!--class org.vorpal.blade.framework.deprecated.proxy.ProxyTier--><a href="ProxyTier.html" target="_top" title="ProxyTier.html" xlink:actuate="onRequest" xlink:href="ProxyTier.html" xlink:show="new" xlink:title="ProxyTier.html" xlink:type="simple"><g id="elem_org.vorpal.blade.framework.deprecated.proxy.ProxyTier"><rect codeLine="5" fill="#F1F1F1" height="252.125" id="org.vorpal.blade.framework.deprecated.proxy.ProxyTier" rx="2.5" ry="2.5" style="stroke:#181818;stroke-width:0.5;" width="267" x="9" y="105.27"/><ellipse cx="29.4" cy="124.4028" fill="#ADD1B2" rx="11" ry="11" style="stroke:#181818;stroke-width:1.0;"/><path d="M31.8731,130.5459 Q31.2921,130.8447 30.6529,130.9941 Q30.0138,131.1435 29.3082,131.1435 Q26.8014,131.1435 25.4815,129.4917 Q24.1617,127.8398 24.1617,124.7187 Q24.1617,121.5893 25.4815,119.9375 Q26.8014,118.2856 29.3082,118.2856 Q30.0138,118.2856 30.6612,118.435 Q31.3087,118.5845 31.8731,118.8833 L31.8731,121.6059 Q31.2423,121.0249 30.6488,120.7551 Q30.0553,120.4853 29.4244,120.4853 Q28.0797,120.4853 27.3949,121.552 Q26.7101,122.6186 26.7101,124.7187 Q26.7101,126.8105 27.3949,127.8772 Q28.0797,128.9438 29.4244,128.9438 Q30.0553,128.9438 30.6488,128.6741 Q31.2423,128.4043 31.8731,127.8232 Z " fill="#000000"/><text fill="#000000" font-family="sans-serif" font-size="14" lengthAdjust="spacing" textLength="66" x="123.1" y="123.8052">ProxyTier</text><text fill="#000000" font-family="sans-serif" font-size="10" lengthAdjust="spacing" textLength="223" x="44.6" y="136.4263">org.vorpal.blade.framework.deprecated.proxy</text><line style="stroke:#181818;stroke-width:0.5;" x1="10" x2="275" y1="143.5356" y2="143.5356"/><rect fill="none" height="6" style="stroke:#C82930;stroke-width:1.0;" width="6" x="17" y="154.2798"/><text fill="#000000" font-family="sans-serif" font-size="14" lengthAdjust="spacing" text-decoration="underline" textLength="152" x="29" y="161.0708">serialVersionUID: long</text><polygon fill="none" points="20,169.768,16,175.768,24,175.768" style="stroke:#1963A0;stroke-width:1.0;"/><text fill="#000000" font-family="sans-serif" font-size="14" lengthAdjust="spacing" textLength="85" x="29" y="177.5591">mode: Mode</text><polygon fill="none" points="20,186.2563,16,192.2563,24,192.2563" style="stroke:#1963A0;stroke-width:1.0;"/><text fill="#000000" font-family="sans-serif" font-size="14" lengthAdjust="spacing" textLength="110" x="29" y="194.0473">timeout: Integer</text><polygon fill="none" points="20,202.7446,16,208.7446,24,208.7446" style="stroke:#1963A0;stroke-width:1.0;"/><text fill="#000000" font-family="sans-serif" font-size="14" lengthAdjust="spacing" textLength="182" x="29" y="210.5356">endpoints: ArrayList&lt;URI&gt;</text><line style="stroke:#181818;stroke-width:0.5;" x1="10" x2="275" y1="217.4888" y2="217.4888"/><ellipse cx="20" cy="231.2329" fill="#84BE84" rx="3" ry="3" style="stroke:#038048;stroke-width:1.0;"/><text fill="#000000" font-family="sans-serif" font-size="14" lengthAdjust="spacing" textLength="76" x="29" y="235.0239">ProxyTier()</text><ellipse cx="20" cy="247.7212" fill="#84BE84" rx="3" ry="3" style="stroke:#038048;stroke-width:1.0;"/><text fill="#000000" font-family="sans-serif" font-size="14" lengthAdjust="spacing" textLength="142" x="29" y="251.5122">ProxyTier(ProxyTier)</text><ellipse cx="20" cy="264.2095" fill="#84BE84" rx="3" ry="3" style="stroke:#038048;stroke-width:1.0;"/><text fill="#000000" font-family="sans-serif" font-size="14" lengthAdjust="spacing" textLength="116" x="29" y="268.0005">getMode(): Mode</text><ellipse cx="20" cy="280.6977" fill="#84BE84" rx="3" ry="3" style="stroke:#038048;stroke-width:1.0;"/><text fill="#000000" font-family="sans-serif" font-size="14" lengthAdjust="spacing" textLength="143" x="29" y="284.4888">setMode(Mode): void</text><ellipse cx="20" cy="297.186" fill="#84BE84" rx="3" ry="3" style="stroke:#038048;stroke-width:1.0;"/><text fill="#000000" font-family="sans-serif" font-size="14" lengthAdjust="spacing" textLength="146" x="29" y="300.977">getTimeout(): Integer</text><ellipse cx="20" cy="313.6743" fill="#84BE84" rx="3" ry="3" style="stroke:#038048;stroke-width:1.0;"/><text fill="#000000" font-family="sans-serif" font-size="14" lengthAdjust="spacing" textLength="173" x="29" y="317.4653">setTimeout(Integer): void</text><ellipse cx="20" cy="330.1626" fill="#84BE84" rx="3" ry="3" style="stroke:#038048;stroke-width:1.0;"/><text fill="#000000" font-family="sans-serif" font-size="14" lengthAdjust="spacing" textLength="214" x="29" y="333.9536">getEndpoints(): ArrayList&lt;URI&gt;</text><ellipse cx="20" cy="346.6509" fill="#84BE84" rx="3" ry="3" style="stroke:#038048;stroke-width:1.0;"/><text fill="#000000" font-family="sans-serif" font-size="14" lengthAdjust="spacing" textLength="241" x="29" y="350.4419">setEndpoints(ArrayList&lt;URI&gt;): void</text></g></a><!--class java.io.Serializable--><a href="https://docs.oracle.com/en/java/javase/11/docs/api/java.base/java/io/Serializable.html?is-external=true" target="_top" title="https://docs.oracle.com/en/java/javase/11/docs/api/java.base/java/io/Serializable.html?is-external=true" xlink:actuate="onRequest" xlink:href="https://docs.oracle.com/en/java/javase/11/docs/api/java.base/java/io/Serializable.html?is-external=true" xlink:show="new" xlink:title="https://docs.oracle.com/en/java/javase/11/docs/api/java.base/java/io/Serializable.html?is-external=true" xlink:type="simple"><g id="elem_java.io.Serializable"><rect codeLine="20" fill="#F1F1F1" height="38.2656" id="java.io.Serializable" rx="2.5" ry="2.5" style="stroke:#181818;stroke-width:0.5;" width="111" x="87" y="7"/><ellipse cx="102" cy="26.1328" fill="#B4A7E5" rx="11" ry="11" style="stroke:#181818;stroke-width:1.0;"/><path d="M98.4277,22.3979 L98.4277,20.2397 L105.8071,20.2397 L105.8071,22.3979 L103.3418,22.3979 L103.3418,30.4746 L105.8071,30.4746 L105.8071,32.6328 L98.4277,32.6328 L98.4277,30.4746 L100.8931,30.4746 L100.8931,22.3979 Z " fill="#000000"/><text fill="#000000" font-family="sans-serif" font-size="14" font-style="italic" lengthAdjust="spacing" textLength="79" x="116" y="25.5352">Serializable</text><text fill="#000000" font-family="sans-serif" font-size="10" font-style="italic" lengthAdjust="spacing" textLength="32" x="139.5" y="38.1563">java.io</text></g></a><!--class org.vorpal.blade.framework.deprecated.proxy.ProxyTier.Mode--><a href="ProxyTier.Mode.html" target="_top" title="ProxyTier.Mode.html" xlink:actuate="onRequest" xlink:href="ProxyTier.Mode.html" xlink:show="new" xlink:title="ProxyTier.Mode.html" xlink:type="simple"><g id="elem_org.vorpal.blade.framework.deprecated.proxy.ProxyTier.Mode"><rect codeLine="21" fill="#F1F1F1" height="38.2656" id="org.vorpal.blade.framework.deprecated.proxy.ProxyTier.Mode" rx="2.5" ry="2.5" style="stroke:#181818;stroke-width:0.5;" width="255" x="15" y="417.39"/><ellipse cx="30" cy="436.5228" fill="#EB937F" rx="11" ry="11" style="stroke:#181818;stroke-width:1.0;"/><path d="M33.6143,443.0228 L25.8945,443.0228 L25.8945,430.6297 L33.6143,430.6297 L33.6143,432.7879 L28.3433,432.7879 L28.3433,435.4608 L33.1162,435.4608 L33.1162,437.619 L28.3433,437.619 L28.3433,440.8646 L33.6143,440.8646 Z " fill="#000000"/><text fill="#000000" font-family="sans-serif" font-size="14" lengthAdjust="spacing" textLength="108" x="101.5" y="435.9252">ProxyTier.Mode</text><text fill="#000000" font-family="sans-serif" font-size="10" lengthAdjust="spacing" textLength="223" x="44" y="448.5463">org.vorpal.blade.framework.deprecated.proxy</text></g></a><!--reverse link java.io.Serializable to org.vorpal.blade.framework.deprecated.proxy.ProxyTier--><g id="link_java.io.Serializable_org.vorpal.blade.framework.deprecated.proxy.ProxyTier"><path codeLine="23" d="M142.5,63.53 C142.5,77.99 142.5,81.53 142.5,104.85 " fill="none" id="java.io.Serializable-backto-org.vorpal.blade.framework.deprecated.proxy.ProxyTier" style="stroke:#181818;stroke-width:1.0;stroke-dasharray:7.0,7.0;"/><polygon fill="none" points="142.5,45.53,136.5,63.53,148.5,63.53,142.5,45.53" style="stroke:#181818;stroke-width:1.0;"/></g><!--reverse link org.vorpal.blade.framework.deprecated.proxy.ProxyTier to org.vorpal.blade.framework.deprecated.proxy.ProxyTier.Mode--><g id="link_org.vorpal.blade.framework.deprecated.proxy.ProxyTier_org.vorpal.blade.framework.deprecated.proxy.ProxyTier.Mode"><path codeLine="24" d="M142.5,373.84 C142.5,397.13 142.5,402.64 142.5,417.09 " fill="none" id="org.vorpal.blade.framework.deprecated.proxy.ProxyTier-backto-org.vorpal.blade.framework.deprecated.proxy.ProxyTier.Mode" style="stroke:#181818;stroke-width:1.0;"/><ellipse cx="142.5" cy="365.84" fill="#FFFFFF" rx="8" ry="8" style="stroke:#181818;stroke-width:1.0;"/><line style="stroke:#181818;stroke-width:1.0;" x1="142.5" x2="142.5" y1="373.84" y2="357.84"/><line style="stroke:#181818;stroke-width:1.0;" x1="134.5" x2="150.5" y1="365.84" y2="365.84"/></g><text fill="#888888" font-family="sans-serif" font-size="10" lengthAdjust="spacing" textLength="176" x="46.5" y="470.3236">UMLDoclet 2.1.2, PlantUML 1.2024.3</text><!--SRC=[lLJ1Rjim3BtlAuW20n9aaPTY9oFBCA0x16Y1OcrswN9WB2RH9ek6f6HDk-xR9yckwmJfeHqm7sJXyP5yCfyC0E38Wy6IN8K5NL655ZrRC6peJGZ3Maa2AYk_WwKYBTqXMf9VSu0JNcXq3ax6JjrHFlemkRHykxjMPB-R1di_ORiIMxOLQh7GA4aiRUZ_Y-rF8QcoLA0dAQgOUGBeu0LyqVQ3cvjsBzQ-rFCvt2U9yRbt7hqg7c3eo2hKtyWwnMOsFSj1ircrn3ybIyhX8gnFc5SbySRdC3MULcIV8cHanSfubyDdQt5thfmVpxvE9orbqAhgzO-1xQuJNP6F0dhz0o43rmJY4e9RLd8lwxeM6XCFfSRSnt0JErRXo-E1OetdZkIwl7rIj-P3RP708hiCPklOv2fDGTtXGbF7AJzmYq9nSa6p5rrg6FBQ-yhbMIQvS88j5ff4mML69eiPQN6KZKQ9aM6b4YGM4KqCnLctPZBB9-M6T1jq6jGVlTtGV9wqazcKnzmjuWJ-jyLJqpsVHw0nU_sjZtwqyMyXNjSnrNpTTHmCX_zmolhVGj4vi6IEhzd5-Hc7QNiu5IDn-WukDHeVK7YxhMzph_yN]--></g></svg>