<?xml version="1.0" encoding="us-ascii" standalone="no"?><svg xmlns="http://www.w3.org/2000/svg" xmlns:xlink="http://www.w3.org/1999/xlink" contentStyleType="text/css" height="1676px" preserveAspectRatio="none" style="width:1132px;height:1676px;background:#FFFFFF;" version="1.1" viewBox="0 0 1132 1676" width="1132px" zoomAndPan="magnify"><defs/><g><!--cluster org.vorpal.blade.framework.proxy--><g id="cluster_org.vorpal.blade.framework.proxy"><path d="M8.5,599.67 L247.5,599.67 A3.75,3.75 0 0 1 250,602.17 L257,622.1583 L670.5,622.1583 A2.5,2.5 0 0 1 673,624.6583 L673,1648.26 A2.5,2.5 0 0 1 670.5,1650.76 L8.5,1650.76 A2.5,2.5 0 0 1 6,1648.26 L6,602.17 A2.5,2.5 0 0 1 8.5,599.67 " fill="none" style="stroke:#000000;stroke-width:1.5;"/><line style="stroke:#000000;stroke-width:1.5;" x1="6" x2="257" y1="622.1583" y2="622.1583"/><text fill="#000000" font-family="sans-serif" font-size="14" font-weight="bold" lengthAdjust="spacing" textLength="238" x="10" y="615.2052">org.vorpal.blade.framework.proxy</text></g><!--cluster java.io--><g id="cluster_java.io"><path d="M699.5,632.65 L746.5,632.65 A3.75,3.75 0 0 1 749,635.15 L756,655.1383 L838.5,655.1383 A2.5,2.5 0 0 1 841,657.6383 L841,729.15 A2.5,2.5 0 0 1 838.5,731.65 L699.5,731.65 A2.5,2.5 0 0 1 697,729.15 L697,635.15 A2.5,2.5 0 0 1 699.5,632.65 " fill="none" style="stroke:#000000;stroke-width:1.5;"/><line style="stroke:#000000;stroke-width:1.5;" x1="697" x2="756" y1="655.1383" y2="655.1383"/><text fill="#000000" font-family="sans-serif" font-size="14" font-weight="bold" lengthAdjust="spacing" textLength="46" x="701" y="648.1852">java.io</text></g><!--cluster org.vorpal.blade.framework--><g id="cluster_org.vorpal.blade.framework"><path d="M749.5,831.84 L945.5,831.84 A3.75,3.75 0 0 1 948,834.34 L955,854.3283 L1122.5,854.3283 A2.5,2.5 0 0 1 1125,856.8283 L1125,1109.72 A2.5,2.5 0 0 1 1122.5,1112.22 L749.5,1112.22 A2.5,2.5 0 0 1 747,1109.72 L747,834.34 A2.5,2.5 0 0 1 749.5,831.84 " fill="none" style="stroke:#000000;stroke-width:1.5;"/><line style="stroke:#000000;stroke-width:1.5;" x1="747" x2="955" y1="854.3283" y2="854.3283"/><text fill="#000000" font-family="sans-serif" font-size="14" font-weight="bold" lengthAdjust="spacing" textLength="195" x="751" y="847.3752">org.vorpal.blade.framework</text></g><!--cluster org.vorpal.blade.framework.callflow--><g id="cluster_org.vorpal.blade.framework.callflow"><path d="M107.5,6 L363.5,6 A3.75,3.75 0 0 1 366,8.5 L373,28.4883 L426.5,28.4883 A2.5,2.5 0 0 1 429,30.9883 L429,564.17 A2.5,2.5 0 0 1 426.5,566.67 L107.5,566.67 A2.5,2.5 0 0 1 105,564.17 L105,8.5 A2.5,2.5 0 0 1 107.5,6 " fill="none" style="stroke:#000000;stroke-width:1.5;"/><line style="stroke:#000000;stroke-width:1.5;" x1="105" x2="373" y1="28.4883" y2="28.4883"/><text fill="#000000" font-family="sans-serif" font-size="14" font-weight="bold" lengthAdjust="spacing" textLength="255" x="109" y="21.5352">org.vorpal.blade.framework.callflow</text></g><!--class ProxyTier--><a href="ProxyTier.html" target="_top" title="ProxyTier.html" xlink:actuate="onRequest" xlink:href="ProxyTier.html" xlink:show="new" xlink:title="ProxyTier.html" xlink:type="simple"><g id="elem_ProxyTier"><rect codeLine="5" fill="#F1F1F1" height="262.3477" id="ProxyTier" rx="2.5" ry="2.5" style="stroke:#181818;stroke-width:0.5;" width="230" x="44" y="1214.44"/><ellipse cx="121.75" cy="1230.44" fill="#ADD1B2" rx="11" ry="11" style="stroke:#181818;stroke-width:1.0;"/><path d="M124.2231,1236.5831 Q123.6421,1236.8819 123.0029,1237.0313 Q122.3638,1237.1807 121.6582,1237.1807 Q119.1514,1237.1807 117.8315,1235.5289 Q116.5117,1233.877 116.5117,1230.7559 Q116.5117,1227.6265 117.8315,1225.9747 Q119.1514,1224.3228 121.6582,1224.3228 Q122.3638,1224.3228 123.0112,1224.4722 Q123.6587,1224.6216 124.2231,1224.9205 L124.2231,1227.6431 Q123.5923,1227.0621 122.9988,1226.7923 Q122.4053,1226.5225 121.7744,1226.5225 Q120.4297,1226.5225 119.7449,1227.5892 Q119.0601,1228.6558 119.0601,1230.7559 Q119.0601,1232.8477 119.7449,1233.9144 Q120.4297,1234.981 121.7744,1234.981 Q122.4053,1234.981 122.9988,1234.7112 Q123.5923,1234.4415 124.2231,1233.8604 Z " fill="#000000"/><text fill="#000000" font-family="sans-serif" font-size="14" lengthAdjust="spacing" textLength="66" x="142.25" y="1235.731">ProxyTier</text><line style="stroke:#181818;stroke-width:0.5;" x1="45" x2="273" y1="1246.44" y2="1246.44"/><rect fill="none" height="6" style="stroke:#C82930;stroke-width:1.0;" width="6" x="52" y="1257.1841"/><text fill="#000000" font-family="sans-serif" font-size="14" lengthAdjust="spacing" text-decoration="underline" textLength="152" x="64" y="1263.9752">serialVersionUID: long</text><rect fill="none" height="6" style="stroke:#C82930;stroke-width:1.0;" width="6" x="52" y="1273.6724"/><text fill="#000000" font-family="sans-serif" font-size="14" lengthAdjust="spacing" textLength="62" x="64" y="1280.4634">id: String</text><rect fill="none" height="6" style="stroke:#C82930;stroke-width:1.0;" width="6" x="52" y="1290.1607"/><text fill="#000000" font-family="sans-serif" font-size="14" lengthAdjust="spacing" textLength="110" x="64" y="1296.9517">timeout: Integer</text><rect fill="none" height="6" style="stroke:#C82930;stroke-width:1.0;" width="6" x="52" y="1306.649"/><text fill="#000000" font-family="sans-serif" font-size="14" lengthAdjust="spacing" textLength="145" x="64" y="1313.44">endpoints: List&lt;URI&gt;</text><line style="stroke:#181818;stroke-width:0.5;" x1="45" x2="273" y1="1320.3931" y2="1320.3931"/><ellipse cx="55" cy="1334.1373" fill="#84BE84" rx="3" ry="3" style="stroke:#038048;stroke-width:1.0;"/><text fill="#000000" font-family="sans-serif" font-size="14" lengthAdjust="spacing" textLength="76" x="64" y="1337.9283">ProxyTier()</text><ellipse cx="55" cy="1350.6255" fill="#84BE84" rx="3" ry="3" style="stroke:#038048;stroke-width:1.0;"/><text fill="#000000" font-family="sans-serif" font-size="14" lengthAdjust="spacing" textLength="142" x="64" y="1354.4166">ProxyTier(ProxyTier)</text><ellipse cx="55" cy="1367.1138" fill="#84BE84" rx="3" ry="3" style="stroke:#038048;stroke-width:1.0;"/><text fill="#000000" font-family="sans-serif" font-size="14" lengthAdjust="spacing" textLength="94" x="64" y="1370.9048">getId(): String</text><ellipse cx="55" cy="1383.6021" fill="#84BE84" rx="3" ry="3" style="stroke:#038048;stroke-width:1.0;"/><text fill="#000000" font-family="sans-serif" font-size="14" lengthAdjust="spacing" textLength="121" x="64" y="1387.3931">setId(String): void</text><ellipse cx="55" cy="1400.0904" fill="#84BE84" rx="3" ry="3" style="stroke:#038048;stroke-width:1.0;"/><text fill="#000000" font-family="sans-serif" font-size="14" lengthAdjust="spacing" textLength="146" x="64" y="1403.8814">getTimeout(): Integer</text><ellipse cx="55" cy="1416.5787" fill="#84BE84" rx="3" ry="3" style="stroke:#038048;stroke-width:1.0;"/><text fill="#000000" font-family="sans-serif" font-size="14" lengthAdjust="spacing" textLength="173" x="64" y="1420.3697">setTimeout(Integer): void</text><ellipse cx="55" cy="1433.067" fill="#84BE84" rx="3" ry="3" style="stroke:#038048;stroke-width:1.0;"/><text fill="#000000" font-family="sans-serif" font-size="14" lengthAdjust="spacing" textLength="177" x="64" y="1436.858">getEndpoints(): List&lt;URI&gt;</text><ellipse cx="55" cy="1449.5552" fill="#84BE84" rx="3" ry="3" style="stroke:#038048;stroke-width:1.0;"/><text fill="#000000" font-family="sans-serif" font-size="14" lengthAdjust="spacing" textLength="204" x="64" y="1453.3463">setEndpoints(List&lt;URI&gt;): void</text><ellipse cx="55" cy="1466.0435" fill="#84BE84" rx="3" ry="3" style="stroke:#038048;stroke-width:1.0;"/><text fill="#000000" font-family="sans-serif" font-size="14" lengthAdjust="spacing" textLength="152" x="64" y="1469.8345">addEndpoint(URI): URI</text></g></a><!--class ProxyTier.Mode--><a href="ProxyTier.Mode.html" target="_top" title="ProxyTier.Mode.html" xlink:actuate="onRequest" xlink:href="ProxyTier.Mode.html" xlink:show="new" xlink:title="ProxyTier.Mode.html" xlink:type="simple"><g id="elem_ProxyTier.Mode"><rect codeLine="21" fill="#F1F1F1" height="80.9766" id="ProxyTier.Mode" rx="2.5" ry="2.5" style="stroke:#181818;stroke-width:0.5;" width="140" x="88" y="1553.78"/><ellipse cx="103" cy="1569.78" fill="#EB937F" rx="11" ry="11" style="stroke:#181818;stroke-width:1.0;"/><path d="M106.6143,1576.28 L98.8945,1576.28 L98.8945,1563.8869 L106.6143,1563.8869 L106.6143,1566.0451 L101.3433,1566.0451 L101.3433,1568.718 L106.1162,1568.718 L106.1162,1570.8762 L101.3433,1570.8762 L101.3433,1574.1218 L106.6143,1574.1218 Z " fill="#000000"/><text fill="#000000" font-family="sans-serif" font-size="14" lengthAdjust="spacing" textLength="108" x="117" y="1575.071">ProxyTier.Mode</text><line style="stroke:#181818;stroke-width:0.5;" x1="89" x2="227" y1="1585.78" y2="1585.78"/><ellipse cx="99" cy="1599.5241" fill="none" rx="3" ry="3" style="stroke:#038048;stroke-width:1.0;"/><text fill="#000000" font-family="sans-serif" font-size="14" lengthAdjust="spacing" text-decoration="underline" textLength="51" x="108" y="1603.3152">parallel</text><ellipse cx="99" cy="1616.0124" fill="none" rx="3" ry="3" style="stroke:#038048;stroke-width:1.0;"/><text fill="#000000" font-family="sans-serif" font-size="14" lengthAdjust="spacing" text-decoration="underline" textLength="37" x="108" y="1619.8034">serial</text><line style="stroke:#181818;stroke-width:0.5;" x1="89" x2="227" y1="1626.7566" y2="1626.7566"/></g></a><!--class ProxyServlet--><a href="ProxyServlet.html" target="_top" title="ProxyServlet.html" xlink:actuate="onRequest" xlink:href="ProxyServlet.html" xlink:show="new" xlink:title="ProxyServlet.html" xlink:type="simple"><g id="elem_ProxyServlet"><rect codeLine="26" fill="#F1F1F1" height="80.9766" id="ProxyServlet" rx="2.5" ry="2.5" style="stroke:#181818;stroke-width:0.5;" width="325" x="320.5" y="1305.12"/><ellipse cx="436.25" cy="1321.12" fill="#A9DCDF" rx="11" ry="11" style="stroke:#181818;stroke-width:1.0;"/><path d="M436.1133,1316.4681 L434.9595,1321.5399 L437.2754,1321.5399 Z M434.6191,1314.2269 L437.6157,1314.2269 L440.9609,1326.62 L438.5122,1326.62 L437.7485,1323.557 L434.4697,1323.557 L433.7227,1326.62 L431.2739,1326.62 Z " fill="#000000"/><text fill="#000000" font-family="sans-serif" font-size="14" font-style="italic" lengthAdjust="spacing" textLength="85" x="456.75" y="1326.411">ProxyServlet</text><line style="stroke:#181818;stroke-width:0.5;" x1="321.5" x2="644.5" y1="1337.12" y2="1337.12"/><rect fill="none" height="6" style="stroke:#C82930;stroke-width:1.0;" width="6" x="328.5" y="1347.8641"/><text fill="#000000" font-family="sans-serif" font-size="14" lengthAdjust="spacing" text-decoration="underline" textLength="152" x="340.5" y="1354.6552">serialVersionUID: long</text><line style="stroke:#181818;stroke-width:0.5;" x1="321.5" x2="644.5" y1="1361.6083" y2="1361.6083"/><polygon fill="#FFFF44" points="331.5,1370.3524,335.5,1374.3524,331.5,1378.3524,327.5,1374.3524" style="stroke:#B38D22;stroke-width:1.0;"/><text fill="#000000" font-family="sans-serif" font-size="14" lengthAdjust="spacing" textLength="299" x="340.5" y="1379.1434">chooseCallflow(SipServletRequest): Callflow</text></g></a><!--class ProxyPlan--><a href="ProxyPlan.html" target="_top" title="ProxyPlan.html" xlink:actuate="onRequest" xlink:href="ProxyPlan.html" xlink:show="new" xlink:title="ProxyPlan.html" xlink:type="simple"><g id="elem_ProxyPlan"><rect codeLine="31" fill="#F1F1F1" height="311.8125" id="ProxyPlan" rx="2.5" ry="2.5" style="stroke:#181818;stroke-width:0.5;" width="212" x="22" y="825.62"/><ellipse cx="89.75" cy="841.62" fill="#ADD1B2" rx="11" ry="11" style="stroke:#181818;stroke-width:1.0;"/><path d="M92.2231,847.7631 Q91.6421,848.0619 91.0029,848.2113 Q90.3638,848.3607 89.6582,848.3607 Q87.1514,848.3607 85.8315,846.7089 Q84.5117,845.057 84.5117,841.9359 Q84.5117,838.8065 85.8315,837.1547 Q87.1514,835.5028 89.6582,835.5028 Q90.3638,835.5028 91.0112,835.6522 Q91.6587,835.8016 92.2231,836.1005 L92.2231,838.8231 Q91.5923,838.2421 90.9988,837.9723 Q90.4053,837.7025 89.7744,837.7025 Q88.4297,837.7025 87.7449,838.7692 Q87.0601,839.8358 87.0601,841.9359 Q87.0601,844.0277 87.7449,845.0944 Q88.4297,846.161 89.7744,846.161 Q90.4053,846.161 90.9988,845.8912 Q91.5923,845.6215 92.2231,845.0404 Z " fill="#000000"/><text fill="#000000" font-family="sans-serif" font-size="14" lengthAdjust="spacing" textLength="68" x="110.25" y="846.911">ProxyPlan</text><line style="stroke:#181818;stroke-width:0.5;" x1="23" x2="233" y1="857.62" y2="857.62"/><rect fill="none" height="6" style="stroke:#C82930;stroke-width:1.0;" width="6" x="30" y="868.3641"/><text fill="#000000" font-family="sans-serif" font-size="14" lengthAdjust="spacing" text-decoration="underline" textLength="152" x="42" y="875.1552">serialVersionUID: long</text><rect fill="none" height="6" style="stroke:#C82930;stroke-width:1.0;" width="6" x="30" y="884.8524"/><text fill="#000000" font-family="sans-serif" font-size="14" lengthAdjust="spacing" textLength="62" x="42" y="891.6434">id: String</text><rect fill="none" height="6" style="stroke:#C82930;stroke-width:1.0;" width="6" x="30" y="901.3407"/><text fill="#000000" font-family="sans-serif" font-size="14" lengthAdjust="spacing" textLength="126" x="42" y="908.1317">description: String</text><rect fill="none" height="6" style="stroke:#C82930;stroke-width:1.0;" width="6" x="30" y="917.829"/><text fill="#000000" font-family="sans-serif" font-size="14" lengthAdjust="spacing" textLength="104" x="42" y="924.62">context: Object</text><line style="stroke:#181818;stroke-width:0.5;" x1="23" x2="233" y1="931.5731" y2="931.5731"/><ellipse cx="33" cy="945.3173" fill="#84BE84" rx="3" ry="3" style="stroke:#038048;stroke-width:1.0;"/><text fill="#000000" font-family="sans-serif" font-size="14" lengthAdjust="spacing" textLength="78" x="42" y="949.1083">ProxyPlan()</text><ellipse cx="33" cy="961.8055" fill="#84BE84" rx="3" ry="3" style="stroke:#038048;stroke-width:1.0;"/><text fill="#000000" font-family="sans-serif" font-size="14" lengthAdjust="spacing" textLength="119" x="42" y="965.5966">ProxyPlan(String)</text><ellipse cx="33" cy="978.2938" fill="#84BE84" rx="3" ry="3" style="stroke:#038048;stroke-width:1.0;"/><text fill="#000000" font-family="sans-serif" font-size="14" lengthAdjust="spacing" textLength="146" x="42" y="982.0848">ProxyPlan(ProxyPlan)</text><ellipse cx="33" cy="994.7821" fill="#84BE84" rx="3" ry="3" style="stroke:#038048;stroke-width:1.0;"/><text fill="#000000" font-family="sans-serif" font-size="14" lengthAdjust="spacing" textLength="186" x="42" y="998.5731">copy(ProxyPlan): ProxyPlan</text><ellipse cx="33" cy="1011.2704" fill="#84BE84" rx="3" ry="3" style="stroke:#038048;stroke-width:1.0;"/><text fill="#000000" font-family="sans-serif" font-size="14" lengthAdjust="spacing" textLength="127" x="42" y="1015.0614">isEmpty(): boolean</text><ellipse cx="33" cy="1027.7587" fill="#84BE84" rx="3" ry="3" style="stroke:#038048;stroke-width:1.0;"/><text fill="#000000" font-family="sans-serif" font-size="14" lengthAdjust="spacing" textLength="94" x="42" y="1031.5497">getId(): String</text><ellipse cx="33" cy="1044.247" fill="#84BE84" rx="3" ry="3" style="stroke:#038048;stroke-width:1.0;"/><text fill="#000000" font-family="sans-serif" font-size="14" lengthAdjust="spacing" textLength="121" x="42" y="1048.038">setId(String): void</text><ellipse cx="33" cy="1060.7352" fill="#84BE84" rx="3" ry="3" style="stroke:#038048;stroke-width:1.0;"/><text fill="#000000" font-family="sans-serif" font-size="14" lengthAdjust="spacing" textLength="80" x="42" y="1064.5263">clear(): void</text><ellipse cx="33" cy="1077.2235" fill="#84BE84" rx="3" ry="3" style="stroke:#038048;stroke-width:1.0;"/><text fill="#000000" font-family="sans-serif" font-size="14" lengthAdjust="spacing" textLength="159" x="42" y="1081.0145">getDescription(): String</text><ellipse cx="33" cy="1093.7118" fill="#84BE84" rx="3" ry="3" style="stroke:#038048;stroke-width:1.0;"/><text fill="#000000" font-family="sans-serif" font-size="14" lengthAdjust="spacing" textLength="186" x="42" y="1097.5028">setDescription(String): void</text><ellipse cx="33" cy="1110.2001" fill="#84BE84" rx="3" ry="3" style="stroke:#038048;stroke-width:1.0;"/><text fill="#000000" font-family="sans-serif" font-size="14" lengthAdjust="spacing" textLength="139" x="42" y="1113.9911">getContext(): Object</text><ellipse cx="33" cy="1126.6884" fill="#84BE84" rx="3" ry="3" style="stroke:#038048;stroke-width:1.0;"/><text fill="#000000" font-family="sans-serif" font-size="14" lengthAdjust="spacing" textLength="166" x="42" y="1130.4794">setContext(Object): void</text></g></a><!--class ProxyListener--><a href="ProxyListener.html" target="_top" title="ProxyListener.html" xlink:actuate="onRequest" xlink:href="ProxyListener.html" xlink:show="new" xlink:title="ProxyListener.html" xlink:type="simple"><g id="elem_ProxyListener"><rect codeLine="50" fill="#F1F1F1" height="80.9766" id="ProxyListener" rx="2.5" ry="2.5" style="stroke:#181818;stroke-width:0.5;" width="388" x="269" y="941.04"/><ellipse cx="412.25" cy="957.04" fill="#B4A7E5" rx="11" ry="11" style="stroke:#181818;stroke-width:1.0;"/><path d="M408.6777,953.3051 L408.6777,951.1469 L416.0571,951.1469 L416.0571,953.3051 L413.5918,953.3051 L413.5918,961.3818 L416.0571,961.3818 L416.0571,963.54 L408.6777,963.54 L408.6777,961.3818 L411.1431,961.3818 L411.1431,953.3051 Z " fill="#000000"/><text fill="#000000" font-family="sans-serif" font-size="14" font-style="italic" lengthAdjust="spacing" textLength="93" x="432.75" y="962.331">ProxyListener</text><line style="stroke:#181818;stroke-width:0.5;" x1="270" x2="656" y1="973.04" y2="973.04"/><line style="stroke:#181818;stroke-width:0.5;" x1="270" x2="656" y1="981.04" y2="981.04"/><ellipse cx="280" cy="994.7841" fill="#84BE84" rx="3" ry="3" style="stroke:#038048;stroke-width:1.0;"/><text fill="#000000" font-family="sans-serif" font-size="14" font-style="italic" lengthAdjust="spacing" textLength="340" x="289" y="998.5752">proxyRequest(SipServletRequest, ProxyPlan): void</text><ellipse cx="280" cy="1011.2724" fill="#84BE84" rx="3" ry="3" style="stroke:#038048;stroke-width:1.0;"/><text fill="#000000" font-family="sans-serif" font-size="14" font-style="italic" lengthAdjust="spacing" textLength="362" x="289" y="1015.0634">proxyResponse(SipServletResponse, ProxyPlan): void</text></g></a><!--class ProxyInvite--><a href="ProxyInvite.html" target="_top" title="ProxyInvite.html" xlink:actuate="onRequest" xlink:href="ProxyInvite.html" xlink:show="new" xlink:title="ProxyInvite.html" xlink:type="simple"><g id="elem_ProxyInvite"><rect codeLine="55" fill="#F1F1F1" height="113.9531" id="ProxyInvite" rx="2.5" ry="2.5" style="stroke:#181818;stroke-width:0.5;" width="281" x="126.5" y="634.67"/><ellipse cx="224.75" cy="650.67" fill="#ADD1B2" rx="11" ry="11" style="stroke:#181818;stroke-width:1.0;"/><path d="M227.2231,656.8131 Q226.6421,657.1119 226.0029,657.2613 Q225.3638,657.4107 224.6582,657.4107 Q222.1514,657.4107 220.8315,655.7589 Q219.5117,654.107 219.5117,650.9859 Q219.5117,647.8565 220.8315,646.2047 Q222.1514,644.5528 224.6582,644.5528 Q225.3638,644.5528 226.0112,644.7022 Q226.6587,644.8516 227.2231,645.1505 L227.2231,647.8731 Q226.5923,647.2921 225.9988,647.0223 Q225.4053,646.7525 224.7744,646.7525 Q223.4297,646.7525 222.7449,647.8192 Q222.0601,648.8858 222.0601,650.9859 Q222.0601,653.0777 222.7449,654.1444 Q223.4297,655.211 224.7744,655.211 Q225.4053,655.211 225.9988,654.9412 Q226.5923,654.6715 227.2231,654.0904 Z " fill="#000000"/><text fill="#000000" font-family="sans-serif" font-size="14" lengthAdjust="spacing" textLength="76" x="245.25" y="655.961">ProxyInvite</text><line style="stroke:#181818;stroke-width:0.5;" x1="127.5" x2="406.5" y1="666.67" y2="666.67"/><rect fill="none" height="6" style="stroke:#C82930;stroke-width:1.0;" width="6" x="134.5" y="677.4141"/><text fill="#000000" font-family="sans-serif" font-size="14" lengthAdjust="spacing" text-decoration="underline" textLength="152" x="146.5" y="684.2052">serialVersionUID: long</text><rect fill="none" height="6" style="stroke:#C82930;stroke-width:1.0;" width="6" x="134.5" y="693.9024"/><text fill="#000000" font-family="sans-serif" font-size="14" lengthAdjust="spacing" textLength="243" x="146.5" y="700.6934">inboundRequest: SipServletRequest</text><line style="stroke:#181818;stroke-width:0.5;" x1="127.5" x2="406.5" y1="707.6466" y2="707.6466"/><ellipse cx="137.5" cy="721.3907" fill="#84BE84" rx="3" ry="3" style="stroke:#038048;stroke-width:1.0;"/><text fill="#000000" font-family="sans-serif" font-size="14" lengthAdjust="spacing" textLength="255" x="146.5" y="725.1817">ProxyInvite(ProxyListener, ProxyPlan)</text><ellipse cx="137.5" cy="737.879" fill="#84BE84" rx="3" ry="3" style="stroke:#038048;stroke-width:1.0;"/><text fill="#000000" font-family="sans-serif" font-size="14" lengthAdjust="spacing" textLength="222" x="146.5" y="741.67">process(SipServletRequest): void</text></g></a><!--class Serializable--><a href="https://docs.oracle.com/en/java/javase/11/docs/api/java.base/java/io/Serializable.html?is-external=true" target="_top" title="https://docs.oracle.com/en/java/javase/11/docs/api/java.base/java/io/Serializable.html?is-external=true" xlink:actuate="onRequest" xlink:href="https://docs.oracle.com/en/java/javase/11/docs/api/java.base/java/io/Serializable.html?is-external=true" xlink:show="new" xlink:title="https://docs.oracle.com/en/java/javase/11/docs/api/java.base/java/io/Serializable.html?is-external=true" xlink:type="simple"><g id="elem_Serializable"><rect codeLine="65" fill="#F1F1F1" height="48" id="Serializable" rx="2.5" ry="2.5" style="stroke:#181818;stroke-width:0.5;" width="111" x="713.5" y="667.65"/><ellipse cx="728.5" cy="683.65" fill="#B4A7E5" rx="11" ry="11" style="stroke:#181818;stroke-width:1.0;"/><path d="M724.9277,679.9151 L724.9277,677.7569 L732.3071,677.7569 L732.3071,679.9151 L729.8418,679.9151 L729.8418,687.9918 L732.3071,687.9918 L732.3071,690.15 L724.9277,690.15 L724.9277,687.9918 L727.3931,687.9918 L727.3931,679.9151 Z " fill="#000000"/><text fill="#000000" font-family="sans-serif" font-size="14" font-style="italic" lengthAdjust="spacing" textLength="79" x="742.5" y="688.941">Serializable</text><line style="stroke:#181818;stroke-width:0.5;" x1="714.5" x2="823.5" y1="699.65" y2="699.65"/><line style="stroke:#181818;stroke-width:0.5;" x1="714.5" x2="823.5" y1="707.65" y2="707.65"/></g></a><!--class AsyncSipServlet--><a href="../AsyncSipServlet.html" target="_top" title="../AsyncSipServlet.html" xlink:actuate="onRequest" xlink:href="../AsyncSipServlet.html" xlink:show="new" xlink:title="../AsyncSipServlet.html" xlink:type="simple"><g id="elem_AsyncSipServlet"><rect codeLine="69" fill="#F1F1F1" height="229.3711" id="AsyncSipServlet" rx="2.5" ry="2.5" style="stroke:#181818;stroke-width:0.5;" width="346" x="763" y="866.84"/><ellipse cx="878.25" cy="882.84" fill="#A9DCDF" rx="11" ry="11" style="stroke:#181818;stroke-width:1.0;"/><path d="M878.1133,878.1881 L876.9595,883.2599 L879.2754,883.2599 Z M876.6191,875.9469 L879.6157,875.9469 L882.9609,888.34 L880.5122,888.34 L879.7485,885.277 L876.4697,885.277 L875.7227,888.34 L873.2739,888.34 Z " fill="#000000"/><text fill="#000000" font-family="sans-serif" font-size="14" font-style="italic" lengthAdjust="spacing" textLength="107" x="898.75" y="888.131">AsyncSipServlet</text><line style="stroke:#181818;stroke-width:0.5;" x1="764" x2="1108" y1="898.84" y2="898.84"/><rect fill="none" height="6" style="stroke:#C82930;stroke-width:1.0;" width="6" x="771" y="909.5841"/><text fill="#000000" font-family="sans-serif" font-size="14" lengthAdjust="spacing" text-decoration="underline" textLength="152" x="783" y="916.3752">serialVersionUID: long</text><rect fill="none" height="6" style="stroke:#C82930;stroke-width:1.0;" width="6" x="771" y="926.0724"/><text fill="#000000" font-family="sans-serif" font-size="14" lengthAdjust="spacing" textLength="204" x="783" y="932.8634">event: SipServletContextEvent</text><polygon fill="none" points="774,940.5607,778,944.5607,774,948.5607,770,944.5607" style="stroke:#B38D22;stroke-width:1.0;"/><text fill="#000000" font-family="sans-serif" font-size="14" lengthAdjust="spacing" text-decoration="underline" textLength="124" x="783" y="949.3517">sipLogger: Logger</text><polygon fill="none" points="774,957.049,778,961.049,774,965.049,770,961.049" style="stroke:#B38D22;stroke-width:1.0;"/><text fill="#000000" font-family="sans-serif" font-size="14" lengthAdjust="spacing" text-decoration="underline" textLength="149" x="783" y="965.84">sipFactory: SipFactory</text><polygon fill="none" points="774,973.5373,778,977.5373,774,981.5373,770,977.5373" style="stroke:#B38D22;stroke-width:1.0;"/><text fill="#000000" font-family="sans-serif" font-size="14" lengthAdjust="spacing" text-decoration="underline" textLength="154" x="783" y="982.3283">sipUtil: SipSessionsUtil</text><polygon fill="none" points="774,990.0255,778,994.0255,774,998.0255,770,994.0255" style="stroke:#B38D22;stroke-width:1.0;"/><text fill="#000000" font-family="sans-serif" font-size="14" lengthAdjust="spacing" text-decoration="underline" textLength="180" x="783" y="998.8166">timerService: TimerService</text><polygon fill="none" points="774,1006.5138,778,1010.5138,774,1014.5138,770,1010.5138" style="stroke:#B38D22;stroke-width:1.0;"/><text fill="#000000" font-family="sans-serif" font-size="14" lengthAdjust="spacing" text-decoration="underline" textLength="265" x="783" y="1015.3048">sessionParameters: SessionParameters</text><rect fill="none" height="6" style="stroke:#C82930;stroke-width:1.0;" width="6" x="771" y="1025.0021"/><text fill="#000000" font-family="sans-serif" font-size="14" lengthAdjust="spacing" text-decoration="underline" textLength="248" x="783" y="1031.7931">RESPONSE_CALLBACK_INVITE: String</text><line style="stroke:#181818;stroke-width:0.5;" x1="764" x2="1108" y1="1038.7463" y2="1038.7463"/><polygon fill="#FFFF44" points="774,1047.4904,778,1051.4904,774,1055.4904,770,1051.4904" style="stroke:#B38D22;stroke-width:1.0;"/><text fill="#000000" font-family="sans-serif" font-size="14" font-style="italic" lengthAdjust="spacing" textLength="305" x="783" y="1056.2814">servletCreated(SipServletContextEvent): void</text><polygon fill="#FFFF44" points="774,1063.9787,778,1067.9787,774,1071.9787,770,1067.9787" style="stroke:#B38D22;stroke-width:1.0;"/><text fill="#000000" font-family="sans-serif" font-size="14" font-style="italic" lengthAdjust="spacing" textLength="320" x="783" y="1072.7697">servletDestroyed(SipServletContextEvent): void</text><polygon fill="#FFFF44" points="774,1080.467,778,1084.467,774,1088.467,770,1084.467" style="stroke:#B38D22;stroke-width:1.0;"/><text fill="#000000" font-family="sans-serif" font-size="14" font-style="italic" lengthAdjust="spacing" textLength="299" x="783" y="1089.258">chooseCallflow(SipServletRequest): Callflow</text></g></a><!--class Callflow--><a href="../callflow/Callflow.html" target="_top" title="../callflow/Callflow.html" xlink:actuate="onRequest" xlink:href="../callflow/Callflow.html" xlink:show="new" xlink:title="../callflow/Callflow.html" xlink:type="simple"><g id="elem_Callflow"><rect codeLine="85" fill="#F1F1F1" height="509.6719" id="Callflow" rx="2.5" ry="2.5" style="stroke:#181818;stroke-width:0.5;" width="291" x="121.5" y="41"/><ellipse cx="235.25" cy="57" fill="#A9DCDF" rx="11" ry="11" style="stroke:#181818;stroke-width:1.0;"/><path d="M235.1133,52.3481 L233.9595,57.4199 L236.2754,57.4199 Z M233.6191,50.1069 L236.6157,50.1069 L239.9609,62.5 L237.5122,62.5 L236.7485,59.437 L233.4697,59.437 L232.7227,62.5 L230.2739,62.5 Z " fill="#000000"/><text fill="#000000" font-family="sans-serif" font-size="14" font-style="italic" lengthAdjust="spacing" textLength="55" x="255.75" y="62.291">Callflow</text><line style="stroke:#181818;stroke-width:0.5;" x1="122.5" x2="411.5" y1="73" y2="73"/><rect fill="none" height="6" style="stroke:#C82930;stroke-width:1.0;" width="6" x="129.5" y="83.7441"/><text fill="#000000" font-family="sans-serif" font-size="14" lengthAdjust="spacing" text-decoration="underline" textLength="152" x="141.5" y="90.5352">serialVersionUID: long</text><polygon fill="none" points="132.5,98.2324,136.5,102.2324,132.5,106.2324,128.5,102.2324" style="stroke:#B38D22;stroke-width:1.0;"/><text fill="#000000" font-family="sans-serif" font-size="14" lengthAdjust="spacing" text-decoration="underline" textLength="149" x="141.5" y="107.0234">sipFactory: SipFactory</text><polygon fill="none" points="132.5,114.7207,136.5,118.7207,132.5,122.7207,128.5,118.7207" style="stroke:#B38D22;stroke-width:1.0;"/><text fill="#000000" font-family="sans-serif" font-size="14" lengthAdjust="spacing" text-decoration="underline" textLength="154" x="141.5" y="123.5117">sipUtil: SipSessionsUtil</text><polygon fill="none" points="132.5,131.209,136.5,135.209,132.5,139.209,128.5,135.209" style="stroke:#B38D22;stroke-width:1.0;"/><text fill="#000000" font-family="sans-serif" font-size="14" lengthAdjust="spacing" text-decoration="underline" textLength="180" x="141.5" y="140">timerService: TimerService</text><polygon fill="none" points="132.5,147.6973,136.5,151.6973,132.5,155.6973,128.5,151.6973" style="stroke:#B38D22;stroke-width:1.0;"/><text fill="#000000" font-family="sans-serif" font-size="14" lengthAdjust="spacing" text-decoration="underline" textLength="124" x="141.5" y="156.4883">sipLogger: Logger</text><polygon fill="none" points="132.5,164.1855,136.5,168.1855,132.5,172.1855,128.5,168.1855" style="stroke:#B38D22;stroke-width:1.0;"/><text fill="#000000" font-family="sans-serif" font-size="14" lengthAdjust="spacing" text-decoration="underline" textLength="265" x="141.5" y="172.9766">sessionParameters: SessionParameters</text><polygon fill="none" points="132.5,180.6738,136.5,184.6738,132.5,188.6738,128.5,184.6738" style="stroke:#B38D22;stroke-width:1.0;"/><text fill="#000000" font-family="sans-serif" font-size="14" lengthAdjust="spacing" text-decoration="underline" textLength="93" x="141.5" y="189.4648">INVITE: String</text><polygon fill="none" points="132.5,197.1621,136.5,201.1621,132.5,205.1621,128.5,201.1621" style="stroke:#B38D22;stroke-width:1.0;"/><text fill="#000000" font-family="sans-serif" font-size="14" lengthAdjust="spacing" text-decoration="underline" textLength="78" x="141.5" y="205.9531">ACK: String</text><polygon fill="none" points="132.5,213.6504,136.5,217.6504,132.5,221.6504,128.5,217.6504" style="stroke:#B38D22;stroke-width:1.0;"/><text fill="#000000" font-family="sans-serif" font-size="14" lengthAdjust="spacing" text-decoration="underline" textLength="74" x="141.5" y="222.4414">BYE: String</text><polygon fill="none" points="132.5,230.1387,136.5,234.1387,132.5,238.1387,128.5,234.1387" style="stroke:#B38D22;stroke-width:1.0;"/><text fill="#000000" font-family="sans-serif" font-size="14" lengthAdjust="spacing" text-decoration="underline" textLength="104" x="141.5" y="238.9297">CANCEL: String</text><polygon fill="none" points="132.5,246.627,136.5,250.627,132.5,254.627,128.5,250.627" style="stroke:#B38D22;stroke-width:1.0;"/><text fill="#000000" font-family="sans-serif" font-size="14" lengthAdjust="spacing" text-decoration="underline" textLength="114" x="141.5" y="255.418">REGISTER: String</text><polygon fill="none" points="132.5,263.1152,136.5,267.1152,132.5,271.1152,128.5,267.1152" style="stroke:#B38D22;stroke-width:1.0;"/><text fill="#000000" font-family="sans-serif" font-size="14" lengthAdjust="spacing" text-decoration="underline" textLength="110" x="141.5" y="271.9063">OPTIONS: String</text><polygon fill="none" points="132.5,279.6035,136.5,283.6035,132.5,287.6035,128.5,283.6035" style="stroke:#B38D22;stroke-width:1.0;"/><text fill="#000000" font-family="sans-serif" font-size="14" lengthAdjust="spacing" text-decoration="underline" textLength="95" x="141.5" y="288.3945">PRACK: String</text><polygon fill="none" points="132.5,296.0918,136.5,300.0918,132.5,304.0918,128.5,300.0918" style="stroke:#B38D22;stroke-width:1.0;"/><text fill="#000000" font-family="sans-serif" font-size="14" lengthAdjust="spacing" text-decoration="underline" textLength="122" x="141.5" y="304.8828">SUBSCRIBE: String</text><polygon fill="none" points="132.5,312.5801,136.5,316.5801,132.5,320.5801,128.5,316.5801" style="stroke:#B38D22;stroke-width:1.0;"/><text fill="#000000" font-family="sans-serif" font-size="14" lengthAdjust="spacing" text-decoration="underline" textLength="100" x="141.5" y="321.3711">NOTIFY: String</text><polygon fill="none" points="132.5,329.0684,136.5,333.0684,132.5,337.0684,128.5,333.0684" style="stroke:#B38D22;stroke-width:1.0;"/><text fill="#000000" font-family="sans-serif" font-size="14" lengthAdjust="spacing" text-decoration="underline" textLength="104" x="141.5" y="337.8594">PUBLISH: String</text><polygon fill="none" points="132.5,345.5566,136.5,349.5566,132.5,353.5566,128.5,349.5566" style="stroke:#B38D22;stroke-width:1.0;"/><text fill="#000000" font-family="sans-serif" font-size="14" lengthAdjust="spacing" text-decoration="underline" textLength="82" x="141.5" y="354.3477">INFO: String</text><polygon fill="none" points="132.5,362.0449,136.5,366.0449,132.5,370.0449,128.5,366.0449" style="stroke:#B38D22;stroke-width:1.0;"/><text fill="#000000" font-family="sans-serif" font-size="14" lengthAdjust="spacing" text-decoration="underline" textLength="104" x="141.5" y="370.8359">UPDATE: String</text><polygon fill="none" points="132.5,378.5332,136.5,382.5332,132.5,386.5332,128.5,382.5332" style="stroke:#B38D22;stroke-width:1.0;"/><text fill="#000000" font-family="sans-serif" font-size="14" lengthAdjust="spacing" text-decoration="underline" textLength="91" x="141.5" y="387.3242">REFER: String</text><polygon fill="none" points="132.5,395.0215,136.5,399.0215,132.5,403.0215,128.5,399.0215" style="stroke:#B38D22;stroke-width:1.0;"/><text fill="#000000" font-family="sans-serif" font-size="14" lengthAdjust="spacing" text-decoration="underline" textLength="69" x="141.5" y="403.8125">SIP: String</text><polygon fill="none" points="132.5,411.5098,136.5,415.5098,132.5,419.5098,128.5,415.5098" style="stroke:#B38D22;stroke-width:1.0;"/><text fill="#000000" font-family="sans-serif" font-size="14" lengthAdjust="spacing" text-decoration="underline" textLength="102" x="141.5" y="420.3008">Contact: String</text><polygon fill="none" points="132.5,427.998,136.5,431.998,132.5,435.998,128.5,431.998" style="stroke:#B38D22;stroke-width:1.0;"/><text fill="#000000" font-family="sans-serif" font-size="14" lengthAdjust="spacing" text-decoration="underline" textLength="110" x="141.5" y="436.7891">RELIABLE: String</text><polygon fill="none" points="132.5,444.4863,136.5,448.4863,132.5,452.4863,128.5,448.4863" style="stroke:#B38D22;stroke-width:1.0;"/><text fill="#000000" font-family="sans-serif" font-size="14" lengthAdjust="spacing" text-decoration="underline" textLength="197" x="141.5" y="453.2773">REQUEST_CALLBACK_: String</text><polygon fill="none" points="132.5,460.9746,136.5,464.9746,132.5,468.9746,128.5,464.9746" style="stroke:#B38D22;stroke-width:1.0;"/><text fill="#000000" font-family="sans-serif" font-size="14" lengthAdjust="spacing" text-decoration="underline" textLength="204" x="141.5" y="469.7656">RESPONSE_CALLBACK_: String</text><polygon fill="none" points="132.5,477.4629,136.5,481.4629,132.5,485.4629,128.5,481.4629" style="stroke:#B38D22;stroke-width:1.0;"/><text fill="#000000" font-family="sans-serif" font-size="14" lengthAdjust="spacing" text-decoration="underline" textLength="161" x="141.5" y="486.2539">LINKED_SESSION: String</text><polygon fill="none" points="132.5,493.9512,136.5,497.9512,132.5,501.9512,128.5,497.9512" style="stroke:#B38D22;stroke-width:1.0;"/><text fill="#000000" font-family="sans-serif" font-size="14" lengthAdjust="spacing" text-decoration="underline" textLength="181" x="141.5" y="502.7422">DELAYED_REQUEST: String</text><polygon fill="none" points="132.5,510.4395,136.5,514.4395,132.5,518.4395,128.5,514.4395" style="stroke:#B38D22;stroke-width:1.0;"/><text fill="#000000" font-family="sans-serif" font-size="14" lengthAdjust="spacing" text-decoration="underline" textLength="199" x="141.5" y="519.2305">WITHHOLD_RESPONSE: String</text><line style="stroke:#181818;stroke-width:0.5;" x1="122.5" x2="411.5" y1="526.1836" y2="526.1836"/><ellipse cx="132.5" cy="539.9277" fill="#84BE84" rx="3" ry="3" style="stroke:#038048;stroke-width:1.0;"/><text fill="#000000" font-family="sans-serif" font-size="14" font-style="italic" lengthAdjust="spacing" textLength="222" x="141.5" y="543.7188">process(SipServletRequest): void</text></g></a><!--reverse link Serializable to ProxyTier--><g id="link_Serializable_ProxyTier"><path codeLine="117" d="M761.5924,733.6719 C745.4024,823.0719 690.36,1122.14 675,1137.44 C555.37,1256.57 453.56,1138.04 303,1214.44 C293.23,1219.39 283.62,1225.19 274.29,1231.53 " fill="none" id="Serializable-backto-ProxyTier" style="stroke:#181818;stroke-width:1.0;stroke-dasharray:7.0,7.0;"/><polygon fill="none" points="764.8,715.96,755.6885,732.6027,767.4964,734.7411,764.8,715.96" style="stroke:#181818;stroke-width:1.0;"/></g><!--link ProxyTier to ProxyTier.Mode--><g id="link_ProxyTier_ProxyTier.Mode"><path codeLine="118" d="M131.47,1476.87 C130.83,1492.69 131.45,1508.62 134,1523.78 C135.65,1533.6 136.6137,1538.2009 139.8137,1547.7509 " fill="none" id="ProxyTier-to-ProxyTier.Mode" style="stroke:#181818;stroke-width:1.0;"/><polygon fill="#181818" points="141.72,1553.44,142.6533,1543.6355,140.1314,1548.6991,135.0678,1546.1772,141.72,1553.44" style="stroke:#181818;stroke-width:1.0;"/><text fill="#000000" font-family="sans-serif" font-size="13" lengthAdjust="spacing" textLength="35" x="135" y="1520.3484">mode</text></g><!--reverse link ProxyTier to ProxyTier.Mode--><g id="link_ProxyTier_ProxyTier.Mode"><path codeLine="119" d="M177.3538,1492.8463 C177.6938,1508.6663 176.83,1508.61 175,1523.78 C173.83,1533.52 171.76,1543.87 169.46,1553.52 " fill="none" id="ProxyTier-backto-ProxyTier.Mode" style="stroke:#181818;stroke-width:1.0;"/><ellipse cx="177.1819" cy="1484.8482" fill="#FFFFFF" rx="8" ry="8" style="stroke:#181818;stroke-width:1.0;"/><line style="stroke:#181818;stroke-width:1.0;" x1="177.3538" x2="177.01" y1="1492.8463" y2="1476.85"/><line style="stroke:#181818;stroke-width:1.0;" x1="169.1837" x2="185.18" y1="1485.02" y2="1484.6763"/></g><!--reverse link AsyncSipServlet to ProxyServlet--><g id="link_AsyncSipServlet_ProxyServlet"><path codeLine="120" d="M819.3682,1109.2637 C789.6282,1139.3137 768.97,1157.92 736,1184.44 C678.78,1230.45 607.68,1274.45 555.44,1304.65 " fill="none" id="AsyncSipServlet-backto-ProxyServlet" style="stroke:#181818;stroke-width:1.0;"/><polygon fill="none" points="832.03,1096.47,815.1037,1105.0432,823.6328,1113.4843,832.03,1096.47" style="stroke:#181818;stroke-width:1.0;"/></g><!--reverse link ProxyListener to ProxyServlet--><g id="link_ProxyListener_ProxyServlet"><path codeLine="121" d="M466.1912,1040.2827 C470.0312,1109.9127 476.95,1235.09 480.8,1304.76 " fill="none" id="ProxyListener-backto-ProxyServlet" style="stroke:#181818;stroke-width:1.0;stroke-dasharray:7.0,7.0;"/><polygon fill="none" points="465.2,1022.31,460.2003,1040.6131,472.1821,1039.9523,465.2,1022.31" style="stroke:#181818;stroke-width:1.0;"/></g><!--reverse link Serializable to ProxyPlan--><g id="link_Serializable_ProxyPlan"><path codeLine="122" d="M720.1245,725.7657 C702.3245,737.1457 694.85,740.4 673,748.62 C570.45,787.21 538.92,776.69 431,795.62 C351.24,809.62 320.85,782.88 251,823.84 C245.33,827.17 239.83,830.86 234.49,834.85 " fill="none" id="Serializable-backto-ProxyPlan" style="stroke:#181818;stroke-width:1.0;stroke-dasharray:7.0,7.0;"/><polygon fill="none" points="735.29,716.07,716.8926,720.7105,723.3564,730.8209,735.29,716.07" style="stroke:#181818;stroke-width:1.0;"/></g><!--link ProxyPlan to ProxyTier--><g id="link_ProxyPlan_ProxyTier"><path codeLine="123" d="M141.3,1137.92 C143.48,1163.34 145.1975,1183.4619 147.3175,1208.1919 " fill="none" id="ProxyPlan-to-ProxyTier" style="stroke:#181818;stroke-width:1.0;"/><polygon fill="#181818" points="147.83,1214.17,151.0467,1204.8612,147.4029,1209.1883,143.0759,1205.5445,147.83,1214.17" style="stroke:#181818;stroke-width:1.0;"/><text fill="#000000" font-family="sans-serif" font-size="13" lengthAdjust="spacing" textLength="28" x="146" y="1181.0084">tiers</text><text fill="#000000" font-family="sans-serif" font-size="13" lengthAdjust="spacing" textLength="6" x="141.0108" y="1203.7146">*</text></g><!--reverse link Callflow to ProxyInvite--><g id="link_Callflow_ProxyInvite"><path codeLine="124" d="M267,568.97 C267,600.03 267,611 267,634.42 " fill="none" id="Callflow-backto-ProxyInvite" style="stroke:#181818;stroke-width:1.0;"/><polygon fill="none" points="267,550.97,261,568.97,273,568.97,267,550.97" style="stroke:#181818;stroke-width:1.0;"/></g><!--link ProxyInvite to ProxyListener--><g id="link_ProxyInvite_ProxyListener"><path codeLine="125" d="M305.26,748.84 C343.69,805.29 398.5733,885.9004 432.4933,935.7204 " fill="none" id="ProxyInvite-to-ProxyListener" style="stroke:#181818;stroke-width:1.0;"/><polygon fill="#181818" points="435.87,940.68,434.1113,930.9894,433.056,936.547,427.4985,935.4918,435.87,940.68" style="stroke:#181818;stroke-width:1.0;"/><text fill="#000000" font-family="sans-serif" font-size="13" lengthAdjust="spacing" textLength="86" x="336" y="792.1884">proxyListener</text></g><!--link ProxyInvite to ProxyPlan--><g id="link_ProxyInvite_ProxyPlan"><path codeLine="126" d="M239.87,748.84 C229.12,771.09 218.7979,792.4664 205.6079,819.7964 " fill="none" id="ProxyInvite-to-ProxyPlan" style="stroke:#181818;stroke-width:1.0;"/><polygon fill="#181818" points="203,825.2,210.5142,818.8332,205.1732,820.697,203.3094,815.356,203,825.2" style="stroke:#181818;stroke-width:1.0;"/><text fill="#000000" font-family="sans-serif" font-size="13" lengthAdjust="spacing" textLength="62" x="223" y="792.1884">proxyPlan</text></g><text fill="#888888" font-family="sans-serif" font-size="10" lengthAdjust="spacing" textLength="176" x="471" y="1666.428">UMLDoclet 2.1.2, PlantUML 1.2024.3</text><!--SRC=[pLXRRzis57xlho0Q372MMKRwI6GTV54MeQhjMNQ7e0W2MZfnsCgYHZ9klJR_VQHkbXGfZD8Kc87OqZcVplKx91M4418WrLzCE96C8unVlL9251F_Cza0OdnZxHYFIMYjGnA0TSF95hum_jcAEVkwHzzIlFxu8H42pRLuIO6ZZn-BQ-jMRiEhAuL6fSyt8Oca_Ztg2-2KX1-02ygYbJF1A6JHfWBkqm0ZJt9Qbqkw1NOdCN8Y2HlWLIr4GSne90L6BXNoRBLmtbOG9qMGlUCsHN5LGsn0Ea7lk36k4v4eKus2x1WD7ZozJ6FN9fgYrpPoIAPlisJdUMfRBPcACgp0D5eaGP13UmgaCEgxWDmVcWxHtVRGS-iz2w3IU2qmTFz4aoyC8MnHf-HeSaxMGdBYopBrFE2xK74w2oAxVG427lctZ0aOgr1lGlQbvz4uCxw0V-v0I5MaNDaKR2d6UKYYF41z_JF78m3XSnfBzMGpm6UAML_L_CpMdy2N3JEWGsmSZaIHCRnDNLpL43wBzoKbFbIcYgF2tiPohsczPYo4klx7Pj1N1dclRQWcXzezug6CUdpSnscfjQscOei38bNNxPJOf0OJ-0tn8QsRdcQ83ejkVj_2h7nmzF1fUCRWXvp-3PLRz22f1aCYPf60YgLKz8YfvYbneXsLnMgItht8f4HhTXS5MOQghVMa6wYSUkzLQbjEgFg8AeKFGZGk4Ks9trSttKzaHopAIaaUkkqb2T9_oJhKfRcLCXPuC0YOBoocEX62vRFj0AA1jf9y2HYSdYQ80Obf8hBMMfeWA1kKRIO5_eEAlc8Xy8Y4lqj-1rTNJN6s7mvAeTVMwA7OH_wXBYe5onhKX2_HPDX1LEbjDbcsbZVRFH8qTjb6RR9g1qr-st7dAYF6zuc3xBeTl98qp48HEcIX1IrmVPhXEcJg0qRBqbsR_TJcdEZQgvQfWuvN5xNKSM5xyzdKiw_7GzST3SVlhftf1sTfDwvqfL5NFjEISY0IWbvpaGthHMv4hPwIi_sppJnlL-x4PilF3BJJEdUHyZd73tBn2p3w_qg_fyxCisbwz1Wf2v1Yhm4nkZJP60-dOzirW1Rsduwtj1S6s6o-TDHi6L3pXJbkRpNonWjdP8f-EbiwvvScXwkHwtWN1fGpFPyP8AlvP6Xioi8-DnRAS-QcjgZLG77SwCjrXYFN7D9VAzjR7fOy8xw-HXeUS9tfEtjoxTcUfmXW04ziTtYfq5bK1lJVplBYOkPgU1gKQQ7kSX0fhOZP-GFZoc7ZxBjb6VyVW77nwfUOwe17_VxRBlZarHAZhVhkxEgat-_iok04u_hHvkpxqxraptH9f3ZoTsbCsS-FjxbuM-k0Jzhy-jVNNUgFaQJv_l24RHhZOZlkqeFqZDybd-mDfGDnywPX59TlVwvJNVRCOT4n7_Gh1RfXJF-ithiJvclIlh5EhJVgpKRXf9AYNtRfeQHt_1y0]--></g></svg>