<?xml version="1.0" encoding="us-ascii" standalone="no"?><svg xmlns="http://www.w3.org/2000/svg" xmlns:xlink="http://www.w3.org/1999/xlink" contentStyleType="text/css" height="663px" preserveAspectRatio="none" style="width:383px;height:663px;background:#FFFFFF;" version="1.1" viewBox="0 0 383 663" width="383px" zoomAndPan="magnify"><defs/><g><!--class org.vorpal.blade.framework.config.Translation--><a href="Translation.html" target="_top" title="Translation.html" xlink:actuate="onRequest" xlink:href="Translation.html" xlink:show="new" xlink:title="Translation.html" xlink:type="simple"><g id="elem_org.vorpal.blade.framework.config.Translation"><rect codeLine="5" fill="#F1F1F1" height="532.4258" id="org.vorpal.blade.framework.config.Translation" rx="2.5" ry="2.5" style="stroke:#181818;stroke-width:0.5;" width="369" x="7" y="105.26"/><ellipse cx="103.25" cy="124.3928" fill="#ADD1B2" rx="11" ry="11" style="stroke:#181818;stroke-width:1.0;"/><path d="M105.7231,130.5359 Q105.1421,130.8347 104.5029,130.9841 Q103.8638,131.1335 103.1582,131.1335 Q100.6514,131.1335 99.3315,129.4817 Q98.0117,127.8298 98.0117,124.7087 Q98.0117,121.5793 99.3315,119.9275 Q100.6514,118.2756 103.1582,118.2756 Q103.8638,118.2756 104.5112,118.425 Q105.1587,118.5745 105.7231,118.8733 L105.7231,121.5959 Q105.0923,121.0149 104.4988,120.7451 Q103.9053,120.4753 103.2744,120.4753 Q101.9297,120.4753 101.2449,121.542 Q100.5601,122.6086 100.5601,124.7087 Q100.5601,126.8005 101.2449,127.8672 Q101.9297,128.9338 103.2744,128.9338 Q103.9053,128.9338 104.4988,128.6641 Q105.0923,128.3943 105.7231,127.8132 Z " fill="#000000"/><text fill="#000000" font-family="sans-serif" font-size="14" lengthAdjust="spacing" textLength="78" x="168.75" y="123.7952">Translation</text><text fill="#000000" font-family="sans-serif" font-size="10" lengthAdjust="spacing" textLength="168" x="123.75" y="136.4163">org.vorpal.blade.framework.config</text><line style="stroke:#181818;stroke-width:0.5;" x1="8" x2="375" y1="143.5256" y2="143.5256"/><rect fill="none" height="6" style="stroke:#C82930;stroke-width:1.0;" width="6" x="15" y="154.2698"/><text fill="#000000" font-family="sans-serif" font-size="14" lengthAdjust="spacing" textLength="62" x="27" y="161.0608">id: String</text><rect fill="none" height="6" style="stroke:#C82930;stroke-width:1.0;" width="6" x="15" y="170.758"/><text fill="#000000" font-family="sans-serif" font-size="14" lengthAdjust="spacing" textLength="126" x="27" y="177.5491">description: String</text><rect fill="none" height="6" style="stroke:#C82930;stroke-width:1.0;" width="6" x="15" y="187.2463"/><text fill="#000000" font-family="sans-serif" font-size="14" lengthAdjust="spacing" textLength="232" x="27" y="194.0373">list: LinkedList&lt;TranslationsMap&gt;</text><rect fill="none" height="6" style="stroke:#C82930;stroke-width:1.0;" width="6" x="15" y="203.7346"/><text fill="#000000" font-family="sans-serif" font-size="14" lengthAdjust="spacing" textLength="121" x="27" y="210.5256">requestUri: String</text><rect fill="none" height="6" style="stroke:#C82930;stroke-width:1.0;" width="6" x="15" y="220.2229"/><text fill="#000000" font-family="sans-serif" font-size="14" lengthAdjust="spacing" textLength="96" x="27" y="227.0139">route: String[]</text><rect fill="none" height="6" style="stroke:#C82930;stroke-width:1.0;" width="6" x="15" y="236.7112"/><text fill="#000000" font-family="sans-serif" font-size="14" lengthAdjust="spacing" textLength="127" x="27" y="243.5022">routeBack: String[]</text><rect fill="none" height="6" style="stroke:#C82930;stroke-width:1.0;" width="6" x="15" y="253.1995"/><text fill="#000000" font-family="sans-serif" font-size="14" lengthAdjust="spacing" textLength="129" x="27" y="259.9905">routeFinal: String[]</text><rect fill="none" height="6" style="stroke:#C82930;stroke-width:1.0;" width="6" x="15" y="269.6877"/><text fill="#000000" font-family="sans-serif" font-size="14" lengthAdjust="spacing" textLength="218" x="27" y="276.4788">attributes: Map&lt;String, Object&gt;</text><line style="stroke:#181818;stroke-width:0.5;" x1="8" x2="375" y1="283.4319" y2="283.4319"/><ellipse cx="18" cy="297.176" fill="#84BE84" rx="3" ry="3" style="stroke:#038048;stroke-width:1.0;"/><text fill="#000000" font-family="sans-serif" font-size="14" lengthAdjust="spacing" textLength="88" x="27" y="300.967">Translation()</text><ellipse cx="18" cy="313.6643" fill="#84BE84" rx="3" ry="3" style="stroke:#038048;stroke-width:1.0;"/><text fill="#000000" font-family="sans-serif" font-size="14" lengthAdjust="spacing" textLength="129" x="27" y="317.4553">Translation(String)</text><ellipse cx="18" cy="330.1526" fill="#84BE84" rx="3" ry="3" style="stroke:#038048;stroke-width:1.0;"/><text fill="#000000" font-family="sans-serif" font-size="14" lengthAdjust="spacing" textLength="166" x="27" y="333.9436">Translation(Translation)</text><ellipse cx="18" cy="346.6409" fill="#84BE84" rx="3" ry="3" style="stroke:#038048;stroke-width:1.0;"/><text fill="#000000" font-family="sans-serif" font-size="14" lengthAdjust="spacing" textLength="159" x="27" y="350.4319">getDescription(): String</text><ellipse cx="18" cy="363.1291" fill="#84BE84" rx="3" ry="3" style="stroke:#038048;stroke-width:1.0;"/><text fill="#000000" font-family="sans-serif" font-size="14" lengthAdjust="spacing" textLength="235" x="27" y="366.9202">setDescription(String): Translation</text><ellipse cx="18" cy="379.6174" fill="#84BE84" rx="3" ry="3" style="stroke:#038048;stroke-width:1.0;"/><text fill="#000000" font-family="sans-serif" font-size="14" lengthAdjust="spacing" textLength="94" x="27" y="383.4084">getId(): String</text><ellipse cx="18" cy="396.1057" fill="#84BE84" rx="3" ry="3" style="stroke:#038048;stroke-width:1.0;"/><text fill="#000000" font-family="sans-serif" font-size="14" lengthAdjust="spacing" textLength="170" x="27" y="399.8967">setId(String): Translation</text><ellipse cx="18" cy="412.594" fill="#84BE84" rx="3" ry="3" style="stroke:#038048;stroke-width:1.0;"/><text fill="#000000" font-family="sans-serif" font-size="14" lengthAdjust="spacing" textLength="267" x="27" y="416.385">getList(): LinkedList&lt;TranslationsMap&gt;</text><ellipse cx="18" cy="429.0823" fill="#84BE84" rx="3" ry="3" style="stroke:#038048;stroke-width:1.0;"/><text fill="#000000" font-family="sans-serif" font-size="14" lengthAdjust="spacing" textLength="343" x="27" y="432.8733">setList(LinkedList&lt;TranslationsMap&gt;): Translation</text><ellipse cx="18" cy="445.5705" fill="#84BE84" rx="3" ry="3" style="stroke:#038048;stroke-width:1.0;"/><text fill="#000000" font-family="sans-serif" font-size="14" lengthAdjust="spacing" textLength="156" x="27" y="449.3616">getRequestUri(): String</text><ellipse cx="18" cy="462.0588" fill="#84BE84" rx="3" ry="3" style="stroke:#038048;stroke-width:1.0;"/><text fill="#000000" font-family="sans-serif" font-size="14" lengthAdjust="spacing" textLength="232" x="27" y="465.8498">setRequestUri(String): Translation</text><ellipse cx="18" cy="478.5471" fill="#84BE84" rx="3" ry="3" style="stroke:#038048;stroke-width:1.0;"/><text fill="#000000" font-family="sans-serif" font-size="14" lengthAdjust="spacing" textLength="131" x="27" y="482.3381">getRoute(): String[]</text><ellipse cx="18" cy="495.0354" fill="#84BE84" rx="3" ry="3" style="stroke:#038048;stroke-width:1.0;"/><text fill="#000000" font-family="sans-serif" font-size="14" lengthAdjust="spacing" textLength="207" x="27" y="498.8264">setRoute(String[]): Translation</text><ellipse cx="18" cy="511.5237" fill="#84BE84" rx="3" ry="3" style="stroke:#038048;stroke-width:1.0;"/><text fill="#000000" font-family="sans-serif" font-size="14" lengthAdjust="spacing" textLength="162" x="27" y="515.3147">getRouteBack(): String[]</text><ellipse cx="18" cy="528.012" fill="#84BE84" rx="3" ry="3" style="stroke:#038048;stroke-width:1.0;"/><text fill="#000000" font-family="sans-serif" font-size="14" lengthAdjust="spacing" textLength="238" x="27" y="531.803">setRouteBack(String[]): Translation</text><ellipse cx="18" cy="544.5002" fill="#84BE84" rx="3" ry="3" style="stroke:#038048;stroke-width:1.0;"/><text fill="#000000" font-family="sans-serif" font-size="14" lengthAdjust="spacing" textLength="164" x="27" y="548.2913">getRouteFinal(): String[]</text><ellipse cx="18" cy="560.9885" fill="#84BE84" rx="3" ry="3" style="stroke:#038048;stroke-width:1.0;"/><text fill="#000000" font-family="sans-serif" font-size="14" lengthAdjust="spacing" textLength="240" x="27" y="564.7795">setRouteFinal(String[]): Translation</text><ellipse cx="18" cy="577.4768" fill="#84BE84" rx="3" ry="3" style="stroke:#038048;stroke-width:1.0;"/><text fill="#000000" font-family="sans-serif" font-size="14" lengthAdjust="spacing" textLength="252" x="27" y="581.2678">getAttributes(): Map&lt;String, Object&gt;</text><ellipse cx="18" cy="593.9651" fill="#84BE84" rx="3" ry="3" style="stroke:#038048;stroke-width:1.0;"/><text fill="#000000" font-family="sans-serif" font-size="14" lengthAdjust="spacing" textLength="276" x="27" y="597.7561">setAttributes(Map&lt;String, String&gt;): void</text><ellipse cx="18" cy="610.4534" fill="#84BE84" rx="3" ry="3" style="stroke:#038048;stroke-width:1.0;"/><text fill="#000000" font-family="sans-serif" font-size="14" lengthAdjust="spacing" textLength="276" x="27" y="614.2444">addAttribute(String, Object): Translation</text><ellipse cx="18" cy="626.9416" fill="#84BE84" rx="3" ry="3" style="stroke:#038048;stroke-width:1.0;"/><text fill="#000000" font-family="sans-serif" font-size="14" lengthAdjust="spacing" textLength="186" x="27" y="630.7327">getAttribute(String): Object</text></g></a><!--class java.io.Serializable--><a href="https://docs.oracle.com/en/java/javase/11/docs/api/java.base/java/io/Serializable.html?is-external=true" target="_top" title="https://docs.oracle.com/en/java/javase/11/docs/api/java.base/java/io/Serializable.html?is-external=true" xlink:actuate="onRequest" xlink:href="https://docs.oracle.com/en/java/javase/11/docs/api/java.base/java/io/Serializable.html?is-external=true" xlink:show="new" xlink:title="https://docs.oracle.com/en/java/javase/11/docs/api/java.base/java/io/Serializable.html?is-external=true" xlink:type="simple"><g id="elem_java.io.Serializable"><rect codeLine="37" fill="#F1F1F1" height="38.2656" id="java.io.Serializable" rx="2.5" ry="2.5" style="stroke:#181818;stroke-width:0.5;" width="111" x="136" y="7"/><ellipse cx="151" cy="26.1328" fill="#B4A7E5" rx="11" ry="11" style="stroke:#181818;stroke-width:1.0;"/><path d="M147.4277,22.3979 L147.4277,20.2397 L154.8071,20.2397 L154.8071,22.3979 L152.3418,22.3979 L152.3418,30.4746 L154.8071,30.4746 L154.8071,32.6328 L147.4277,32.6328 L147.4277,30.4746 L149.8931,30.4746 L149.8931,22.3979 Z " fill="#000000"/><text fill="#000000" font-family="sans-serif" font-size="14" font-style="italic" lengthAdjust="spacing" textLength="79" x="165" y="25.5352">Serializable</text><text fill="#000000" font-family="sans-serif" font-size="10" font-style="italic" lengthAdjust="spacing" textLength="32" x="188.5" y="38.1563">java.io</text></g></a><!--reverse link java.io.Serializable to org.vorpal.blade.framework.config.Translation--><g id="link_java.io.Serializable_org.vorpal.blade.framework.config.Translation"><path codeLine="39" d="M191.5,63.59 C191.5,77.52 191.5,80.4 191.5,104.99 " fill="none" id="java.io.Serializable-backto-org.vorpal.blade.framework.config.Translation" style="stroke:#181818;stroke-width:1.0;stroke-dasharray:7.0,7.0;"/><polygon fill="none" points="191.5,45.59,185.5,63.59,197.5,63.59,191.5,45.59" style="stroke:#181818;stroke-width:1.0;"/></g><text fill="#888888" font-family="sans-serif" font-size="10" lengthAdjust="spacing" textLength="176" x="96.5" y="653.3538">UMLDoclet 2.1.2, PlantUML 1.2024.3</text><!--SRC=[bLJHRjem57tVLrnLcaJLrXdLdYB6jAcQD8bgKrcV60-N-08kZftPXcrTz- -p7KfCWS3oa3ZdddjyaciT001B3XIMP2iiQ4WL6dJQWDAANlaop0KdeB9ols4gI7Bx4Yt9pRM78rv8j1REUbOyKjvzs_zcK5c9JcZrNQtHDtrjPcobJOMIJIHoObFZ7VpKPi4AhQPYTWPeuIYB9Uem6YLlREvAEHx3dsWgN5U2vp1qHgXPWt6oXH5LwDWjIc5T3WEX5iG7VjrBzEqjLls6QkZ7agoxDs9NnkYbesTuD7vH-8Z5uc3nar0ezrNHUMZY6JO7xwHNCoxXo-I12jSOkqWiTyxtmtNlWMAoJXWpSZVDd-kSxtpqXTrchFV88T7RallC3wZumj7cC9pGVigeWcRajv1RjhhR3Fg0tuHmrFTTc76ZammuAiNgS-cOJ3X7xLAHSQfSF7djUZNb1C4FcyCQ15kFgzrYfzJw6KQpqe8t7SZvfgEphNkAfMP8TKza_QsZJ2X7Pkf3COcp8Hc1KZpYH5AIPm-uGYPqJAtrcgLK7qvpvogRPndNXMNQO279frYPaSf2HxnPohhToCYm4X5Yau16Xj1PgXaZxhsmL_JB-_IpUEVCaiRZslnU5xqdnlulLUjCf_0dOAfrUDpV3cwqT-_WcdNPzILybQYSH-7rYeoDWV0F]--></g></svg>