<?xml version="1.0" encoding="us-ascii" standalone="no"?><svg xmlns="http://www.w3.org/2000/svg" xmlns:xlink="http://www.w3.org/1999/xlink" contentStyleType="text/css" height="447px" preserveAspectRatio="none" style="width:392px;height:447px;background:#FFFFFF;" version="1.1" viewBox="0 0 392 447" width="392px" zoomAndPan="magnify"><defs/><g><!--class org.vorpal.blade.services.transfer.TransferSettings--><a href="TransferSettings.html" target="_top" title="TransferSettings.html" xlink:actuate="onRequest" xlink:href="TransferSettings.html" xlink:show="new" xlink:title="TransferSettings.html" xlink:type="simple"><g id="elem_org.vorpal.blade.services.transfer.TransferSettings"><rect codeLine="5" fill="#F1F1F1" height="219.1484" id="org.vorpal.blade.services.transfer.TransferSettings" rx="2.5" ry="2.5" style="stroke:#181818;stroke-width:0.5;" width="367" x="18.5" y="105.27"/><ellipse cx="116.25" cy="124.4028" fill="#ADD1B2" rx="11" ry="11" style="stroke:#181818;stroke-width:1.0;"/><path d="M118.7231,130.5459 Q118.1421,130.8447 117.5029,130.9941 Q116.8638,131.1435 116.1582,131.1435 Q113.6514,131.1435 112.3315,129.4917 Q111.0117,127.8398 111.0117,124.7187 Q111.0117,121.5893 112.3315,119.9375 Q113.6514,118.2856 116.1582,118.2856 Q116.8638,118.2856 117.5112,118.435 Q118.1587,118.5845 118.7231,118.8833 L118.7231,121.6059 Q118.0923,121.0249 117.4988,120.7551 Q116.9053,120.4853 116.2744,120.4853 Q114.9297,120.4853 114.2449,121.552 Q113.5601,122.6186 113.5601,124.7187 Q113.5601,126.8105 114.2449,127.8772 Q114.9297,128.9438 116.2744,128.9438 Q116.9053,128.9438 117.4988,128.6741 Q118.0923,128.4043 118.7231,127.8232 Z " fill="#000000"/><text fill="#000000" font-family="sans-serif" font-size="14" lengthAdjust="spacing" textLength="113" x="161.75" y="123.8052">TransferSettings</text><text fill="#000000" font-family="sans-serif" font-size="10" lengthAdjust="spacing" textLength="163" x="136.75" y="136.4262">org.vorpal.blade.services.transfer</text><line style="stroke:#181818;stroke-width:0.5;" x1="19.5" x2="384.5" y1="143.5356" y2="143.5356"/><rect fill="none" height="6" style="stroke:#C82930;stroke-width:1.0;" width="6" x="26.5" y="154.2798"/><text fill="#000000" font-family="sans-serif" font-size="14" lengthAdjust="spacing" text-decoration="underline" textLength="152" x="38.5" y="161.0708">serialVersionUID: long</text><polygon fill="none" points="29.5,168.768,33.5,172.768,29.5,176.768,25.5,172.768" style="stroke:#B38D22;stroke-width:1.0;"/><text fill="#000000" font-family="sans-serif" font-size="14" lengthAdjust="spacing" textLength="85" x="38.5" y="177.5591">allow: String</text><polygon fill="none" points="29.5,185.2563,33.5,189.2563,29.5,193.2563,25.5,189.2563" style="stroke:#B38D22;stroke-width:1.0;"/><text fill="#000000" font-family="sans-serif" font-size="14" lengthAdjust="spacing" textLength="283" x="38.5" y="194.0473">preserveInviteHeaders: ArrayList&lt;String&gt;</text><polygon fill="none" points="29.5,201.7446,33.5,205.7446,29.5,209.7446,25.5,205.7446" style="stroke:#B38D22;stroke-width:1.0;"/><text fill="#000000" font-family="sans-serif" font-size="14" lengthAdjust="spacing" textLength="282" x="38.5" y="210.5356">preserveReferHeaders: ArrayList&lt;String&gt;</text><line style="stroke:#181818;stroke-width:0.5;" x1="19.5" x2="384.5" y1="217.4887" y2="217.4887"/><ellipse cx="29.5" cy="231.2329" fill="#84BE84" rx="3" ry="3" style="stroke:#038048;stroke-width:1.0;"/><text fill="#000000" font-family="sans-serif" font-size="14" lengthAdjust="spacing" textLength="313" x="38.5" y="235.0239">getPreserveReferHeaders(): ArrayList&lt;String&gt;</text><ellipse cx="29.5" cy="247.7212" fill="#84BE84" rx="3" ry="3" style="stroke:#038048;stroke-width:1.0;"/><text fill="#000000" font-family="sans-serif" font-size="14" lengthAdjust="spacing" textLength="340" x="38.5" y="251.5122">setPreserveReferHeaders(ArrayList&lt;String&gt;): void</text><ellipse cx="29.5" cy="264.2095" fill="#84BE84" rx="3" ry="3" style="stroke:#038048;stroke-width:1.0;"/><text fill="#000000" font-family="sans-serif" font-size="14" lengthAdjust="spacing" textLength="314" x="38.5" y="268.0005">getPreserveInviteHeaders(): ArrayList&lt;String&gt;</text><ellipse cx="29.5" cy="280.6977" fill="#84BE84" rx="3" ry="3" style="stroke:#038048;stroke-width:1.0;"/><text fill="#000000" font-family="sans-serif" font-size="14" lengthAdjust="spacing" textLength="341" x="38.5" y="284.4888">setPreserveInviteHeaders(ArrayList&lt;String&gt;): void</text><ellipse cx="29.5" cy="297.186" fill="#84BE84" rx="3" ry="3" style="stroke:#038048;stroke-width:1.0;"/><text fill="#000000" font-family="sans-serif" font-size="14" lengthAdjust="spacing" textLength="119" x="38.5" y="300.977">getAllow(): String</text><ellipse cx="29.5" cy="313.6743" fill="#84BE84" rx="3" ry="3" style="stroke:#038048;stroke-width:1.0;"/><text fill="#000000" font-family="sans-serif" font-size="14" lengthAdjust="spacing" textLength="230" x="38.5" y="317.4653">setAllow(String): TransferSettings</text></g></a><!--class org.vorpal.blade.framework.config.RouterConfig--><a href="https://vorpalnet.github.io/blade/vorpal-blade-library-framework/org/vorpal/blade/framework/config/RouterConfig.html?is-external=true" target="_top" title="https://vorpalnet.github.io/blade/vorpal-blade-library-framework/org/vorpal/blade/framework/config/RouterConfig.html?is-external=true" xlink:actuate="onRequest" xlink:href="https://vorpalnet.github.io/blade/vorpal-blade-library-framework/org/vorpal/blade/framework/config/RouterConfig.html?is-external=true" xlink:show="new" xlink:title="https://vorpalnet.github.io/blade/vorpal-blade-library-framework/org/vorpal/blade/framework/config/RouterConfig.html?is-external=true" xlink:type="simple"><g id="elem_org.vorpal.blade.framework.config.RouterConfig"><rect codeLine="18" fill="#F1F1F1" height="38.2656" id="org.vorpal.blade.framework.config.RouterConfig" rx="2.5" ry="2.5" style="stroke:#181818;stroke-width:0.5;" width="200" x="7" y="7"/><ellipse cx="22" cy="26.1328" fill="#ADD1B2" rx="11" ry="11" style="stroke:#181818;stroke-width:1.0;"/><path d="M24.4731,32.2759 Q23.8921,32.5747 23.2529,32.7241 Q22.6138,32.8735 21.9082,32.8735 Q19.4014,32.8735 18.0815,31.2217 Q16.7617,29.5698 16.7617,26.4487 Q16.7617,23.3193 18.0815,21.6675 Q19.4014,20.0156 21.9082,20.0156 Q22.6138,20.0156 23.2612,20.165 Q23.9087,20.3145 24.4731,20.6133 L24.4731,23.3359 Q23.8423,22.7549 23.2488,22.4851 Q22.6553,22.2153 22.0244,22.2153 Q20.6797,22.2153 19.9949,23.282 Q19.3101,24.3486 19.3101,26.4487 Q19.3101,28.5405 19.9949,29.6072 Q20.6797,30.6738 22.0244,30.6738 Q22.6553,30.6738 23.2488,30.4041 Q23.8423,30.1343 24.4731,29.5532 Z " fill="#000000"/><text fill="#000000" font-family="sans-serif" font-size="14" lengthAdjust="spacing" textLength="92" x="74" y="25.5352">RouterConfig</text><text fill="#000000" font-family="sans-serif" font-size="10" lengthAdjust="spacing" textLength="168" x="36" y="38.1563">org.vorpal.blade.framework.config</text></g></a><!--class java.io.Serializable--><a href="https://docs.oracle.com/en/java/javase/11/docs/api/java.base/java/io/Serializable.html?is-external=true" target="_top" title="https://docs.oracle.com/en/java/javase/11/docs/api/java.base/java/io/Serializable.html?is-external=true" xlink:actuate="onRequest" xlink:href="https://docs.oracle.com/en/java/javase/11/docs/api/java.base/java/io/Serializable.html?is-external=true" xlink:show="new" xlink:title="https://docs.oracle.com/en/java/javase/11/docs/api/java.base/java/io/Serializable.html?is-external=true" xlink:type="simple"><g id="elem_java.io.Serializable"><rect codeLine="19" fill="#F1F1F1" height="38.2656" id="java.io.Serializable" rx="2.5" ry="2.5" style="stroke:#181818;stroke-width:0.5;" width="111" x="242.5" y="7"/><ellipse cx="257.5" cy="26.1328" fill="#B4A7E5" rx="11" ry="11" style="stroke:#181818;stroke-width:1.0;"/><path d="M253.9277,22.3979 L253.9277,20.2397 L261.3071,20.2397 L261.3071,22.3979 L258.8418,22.3979 L258.8418,30.4746 L261.3071,30.4746 L261.3071,32.6328 L253.9277,32.6328 L253.9277,30.4746 L256.3931,30.4746 L256.3931,22.3979 Z " fill="#000000"/><text fill="#000000" font-family="sans-serif" font-size="14" font-style="italic" lengthAdjust="spacing" textLength="79" x="271.5" y="25.5352">Serializable</text><text fill="#000000" font-family="sans-serif" font-size="10" font-style="italic" lengthAdjust="spacing" textLength="32" x="295" y="38.1563">java.io</text></g></a><!--class org.vorpal.blade.services.transfer.TransferSettings.TransferStyle--><a href="TransferSettings.TransferStyle.html" target="_top" title="TransferSettings.TransferStyle.html" xlink:actuate="onRequest" xlink:href="TransferSettings.TransferStyle.html" xlink:show="new" xlink:title="TransferSettings.TransferStyle.html" xlink:type="simple"><g id="elem_org.vorpal.blade.services.transfer.TransferSettings.TransferStyle"><rect codeLine="20" fill="#F1F1F1" height="38.2656" id="org.vorpal.blade.services.transfer.TransferSettings.TransferStyle" rx="2.5" ry="2.5" style="stroke:#181818;stroke-width:0.5;" width="239" x="82.5" y="384.41"/><ellipse cx="97.5" cy="403.5428" fill="#EB937F" rx="11" ry="11" style="stroke:#181818;stroke-width:1.0;"/><path d="M101.1143,410.0428 L93.3945,410.0428 L93.3945,397.6497 L101.1143,397.6497 L101.1143,399.8079 L95.8433,399.8079 L95.8433,402.4808 L100.6162,402.4808 L100.6162,404.639 L95.8433,404.639 L95.8433,407.8846 L101.1143,407.8846 Z " fill="#000000"/><text fill="#000000" font-family="sans-serif" font-size="14" lengthAdjust="spacing" textLength="207" x="111.5" y="402.9452">TransferSettings.TransferStyle</text><text fill="#000000" font-family="sans-serif" font-size="10" lengthAdjust="spacing" textLength="163" x="133.5" y="415.5663">org.vorpal.blade.services.transfer</text></g></a><!--reverse link org.vorpal.blade.framework.config.RouterConfig to org.vorpal.blade.services.transfer.TransferSettings--><g id="link_org.vorpal.blade.framework.config.RouterConfig_org.vorpal.blade.services.transfer.TransferSettings"><path codeLine="22" d="M124.6198,61.7643 C132.0298,76.3343 134.86,81.88 146.5,104.77 " fill="none" id="org.vorpal.blade.framework.config.RouterConfig-backto-org.vorpal.blade.services.transfer.TransferSettings" style="stroke:#181818;stroke-width:1.0;"/><polygon fill="none" points="116.46,45.72,119.2717,64.4842,129.9679,59.0443,116.46,45.72" style="stroke:#181818;stroke-width:1.0;"/></g><!--reverse link java.io.Serializable to org.vorpal.blade.services.transfer.TransferSettings--><g id="link_java.io.Serializable_org.vorpal.blade.services.transfer.TransferSettings"><path codeLine="23" d="M280.2105,61.7286 C272.7205,76.2986 269.85,81.88 258.08,104.77 " fill="none" id="java.io.Serializable-backto-org.vorpal.blade.services.transfer.TransferSettings" style="stroke:#181818;stroke-width:1.0;stroke-dasharray:7.0,7.0;"/><polygon fill="none" points="288.44,45.72,274.8743,58.9854,285.5467,64.4718,288.44,45.72" style="stroke:#181818;stroke-width:1.0;"/></g><!--reverse link org.vorpal.blade.services.transfer.TransferSettings to org.vorpal.blade.services.transfer.TransferSettings.TransferStyle--><g id="link_org.vorpal.blade.services.transfer.TransferSettings_org.vorpal.blade.services.transfer.TransferSettings.TransferStyle"><path codeLine="24" d="M202,340.72 C202,363.76 202,369.51 202,384.12 " fill="none" id="org.vorpal.blade.services.transfer.TransferSettings-backto-org.vorpal.blade.services.transfer.TransferSettings.TransferStyle" style="stroke:#181818;stroke-width:1.0;"/><ellipse cx="202" cy="332.72" fill="#FFFFFF" rx="8" ry="8" style="stroke:#181818;stroke-width:1.0;"/><line style="stroke:#181818;stroke-width:1.0;" x1="202" x2="202" y1="340.72" y2="324.72"/><line style="stroke:#181818;stroke-width:1.0;" x1="194" x2="210" y1="332.72" y2="332.72"/></g><text fill="#888888" font-family="sans-serif" font-size="10" lengthAdjust="spacing" textLength="176" x="101.25" y="437.3436">UMLDoclet 2.1.2, PlantUML 1.2024.3</text><!--SRC=[jLHDRzD04BtpAqP5IAsArwJY58MWYXweLAIgeLnA3XDdx2oiTwtTYKlwyTzPhwtMTaq8aSWXSMRUcpSxVZi008uODERa2aneHWLQP6D16qslV1fMSab0US4RI2MffUj7S-ALyU4GJnGw1mSJ9-zeF7e__MfHkvJiZ9YbpjnttQJUJOtDH6biWKei52v9EBAbJCW9RaW7W0x-3XDz4RYvwOV4YdCrdyDzwBBwt3j6biaZHBwWHFMDh9D6Nv-VZK4PdJq1NwDIvdOCCxQo7IuiLQtGkIubqsVolLatXbDhSNCX7KzgmlGbuufyPpiGZZFYom7EuT5Mbli3wmN5bocDN0xgTKwrks2NjfFYQJNUIg4tuAfidQiJ7j5_gm7xEEoyAxDcif-CJcMspNMfzUQ_DVQdI09ss7Hzb6YNztvRCHTk7CSrIHEBJF9glH3InA52aud2dqZ9XKMxYPxAnbwnWJJuvrIj6BSLWvq_IXVHBn_Jg3wmNTDy7YOXjO-b_ZQtfZ4B7fTtk53KciOFBD6t6CxSF8isj7MofKcSC1OJHNu6UKmwhXZXor4y6WL4Z8KC8R6eeW7XHz2kkRLtqkjyo_fulkgywHpa_osJhkJGQka0caLJU_8VRJHvYA9zMWnQWwzlyY34tXNtsRp7-vsWEyFwFbDbOqYDgNwklroS6MyzXXCn4YTluLAXPX-5DsMzk0-FVWC0]--></g></svg>