<?xml version="1.0" encoding="us-ascii" standalone="no"?><svg xmlns="http://www.w3.org/2000/svg" xmlns:xlink="http://www.w3.org/1999/xlink" contentStyleType="text/css" height="300px" preserveAspectRatio="none" style="width:228px;height:300px;background:#FFFFFF;" version="1.1" viewBox="0 0 228 300" width="228px" zoomAndPan="magnify"><defs/><g><!--class org.vorpal.blade.services.keepalive.KeepAliveConfig--><a href="KeepAliveConfig.html" target="_top" title="KeepAliveConfig.html" xlink:actuate="onRequest" xlink:href="KeepAliveConfig.html" xlink:show="new" xlink:title="KeepAliveConfig.html" xlink:type="simple"><g id="elem_org.vorpal.blade.services.keepalive.KeepAliveConfig"><rect codeLine="5" fill="#F1F1F1" height="169.6836" id="org.vorpal.blade.services.keepalive.KeepAliveConfig" rx="2.5" ry="2.5" style="stroke:#181818;stroke-width:0.5;" width="214" x="7" y="105.27"/><ellipse cx="26.95" cy="124.4028" fill="#ADD1B2" rx="11" ry="11" style="stroke:#181818;stroke-width:1.0;"/><path d="M29.4231,130.5459 Q28.8421,130.8447 28.2029,130.9941 Q27.5638,131.1435 26.8582,131.1435 Q24.3514,131.1435 23.0315,129.4917 Q21.7117,127.8398 21.7117,124.7187 Q21.7117,121.5893 23.0315,119.9375 Q24.3514,118.2856 26.8582,118.2856 Q27.5638,118.2856 28.2112,118.435 Q28.8587,118.5845 29.4231,118.8833 L29.4231,121.6059 Q28.7923,121.0249 28.1988,120.7551 Q27.6053,120.4853 26.9744,120.4853 Q25.6297,120.4853 24.9449,121.552 Q24.2601,122.6186 24.2601,124.7187 Q24.2601,126.8105 24.9449,127.8772 Q25.6297,128.9438 26.9744,128.9438 Q27.6053,128.9438 28.1988,128.6741 Q28.7923,128.4043 29.4231,127.8232 Z " fill="#000000"/><text fill="#000000" font-family="sans-serif" font-size="14" lengthAdjust="spacing" textLength="113" x="71.05" y="123.8052">KeepAliveConfig</text><text fill="#000000" font-family="sans-serif" font-size="10" lengthAdjust="spacing" textLength="171" x="42.05" y="136.4262">org.vorpal.blade.services.keepalive</text><line style="stroke:#181818;stroke-width:0.5;" x1="8" x2="220" y1="143.5356" y2="143.5356"/><rect fill="none" height="6" style="stroke:#C82930;stroke-width:1.0;" width="6" x="15" y="154.2798"/><text fill="#000000" font-family="sans-serif" font-size="14" lengthAdjust="spacing" text-decoration="underline" textLength="152" x="27" y="161.0708">serialVersionUID: long</text><rect fill="none" height="6" style="stroke:#C82930;stroke-width:1.0;" width="6" x="15" y="170.768"/><text fill="#000000" font-family="sans-serif" font-size="14" lengthAdjust="spacing" textLength="128" x="27" y="177.5591">sessionExpires: int</text><rect fill="none" height="6" style="stroke:#C82930;stroke-width:1.0;" width="6" x="15" y="187.2563"/><text fill="#000000" font-family="sans-serif" font-size="14" lengthAdjust="spacing" textLength="68" x="27" y="194.0473">minSE: int</text><line style="stroke:#181818;stroke-width:0.5;" x1="8" x2="220" y1="201.0005" y2="201.0005"/><ellipse cx="18" cy="214.7446" fill="#84BE84" rx="3" ry="3" style="stroke:#038048;stroke-width:1.0;"/><text fill="#000000" font-family="sans-serif" font-size="14" lengthAdjust="spacing" textLength="161" x="27" y="218.5356">getSessionExpires(): int</text><ellipse cx="18" cy="231.2329" fill="#84BE84" rx="3" ry="3" style="stroke:#038048;stroke-width:1.0;"/><text fill="#000000" font-family="sans-serif" font-size="14" lengthAdjust="spacing" textLength="188" x="27" y="235.0239">setSessionExpires(int): void</text><ellipse cx="18" cy="247.7212" fill="#84BE84" rx="3" ry="3" style="stroke:#038048;stroke-width:1.0;"/><text fill="#000000" font-family="sans-serif" font-size="14" lengthAdjust="spacing" textLength="99" x="27" y="251.5122">getMinSE(): int</text><ellipse cx="18" cy="264.2095" fill="#84BE84" rx="3" ry="3" style="stroke:#038048;stroke-width:1.0;"/><text fill="#000000" font-family="sans-serif" font-size="14" lengthAdjust="spacing" textLength="126" x="27" y="268.0005">setMinSE(int): void</text></g></a><!--class java.io.Serializable--><a href="https://docs.oracle.com/en/java/javase/11/docs/api/java.base/java/io/Serializable.html?is-external=true" target="_top" title="https://docs.oracle.com/en/java/javase/11/docs/api/java.base/java/io/Serializable.html?is-external=true" xlink:actuate="onRequest" xlink:href="https://docs.oracle.com/en/java/javase/11/docs/api/java.base/java/io/Serializable.html?is-external=true" xlink:show="new" xlink:title="https://docs.oracle.com/en/java/javase/11/docs/api/java.base/java/io/Serializable.html?is-external=true" xlink:type="simple"><g id="elem_java.io.Serializable"><rect codeLine="15" fill="#F1F1F1" height="38.2656" id="java.io.Serializable" rx="2.5" ry="2.5" style="stroke:#181818;stroke-width:0.5;" width="111" x="58.5" y="7"/><ellipse cx="73.5" cy="26.1328" fill="#B4A7E5" rx="11" ry="11" style="stroke:#181818;stroke-width:1.0;"/><path d="M69.9277,22.3979 L69.9277,20.2397 L77.3071,20.2397 L77.3071,22.3979 L74.8418,22.3979 L74.8418,30.4746 L77.3071,30.4746 L77.3071,32.6328 L69.9277,32.6328 L69.9277,30.4746 L72.3931,30.4746 L72.3931,22.3979 Z " fill="#000000"/><text fill="#000000" font-family="sans-serif" font-size="14" font-style="italic" lengthAdjust="spacing" textLength="79" x="87.5" y="25.5352">Serializable</text><text fill="#000000" font-family="sans-serif" font-size="10" font-style="italic" lengthAdjust="spacing" textLength="32" x="111" y="38.1563">java.io</text></g></a><!--reverse link java.io.Serializable to org.vorpal.blade.services.keepalive.KeepAliveConfig--><g id="link_java.io.Serializable_org.vorpal.blade.services.keepalive.KeepAliveConfig"><path codeLine="17" d="M114,63.71 C114,78.59 114,82.59 114,104.91 " fill="none" id="java.io.Serializable-backto-org.vorpal.blade.services.keepalive.KeepAliveConfig" style="stroke:#181818;stroke-width:1.0;stroke-dasharray:7.0,7.0;"/><polygon fill="none" points="114,45.71,108,63.71,120,63.71,114,45.71" style="stroke:#181818;stroke-width:1.0;"/></g><text fill="#888888" font-family="sans-serif" font-size="10" lengthAdjust="spacing" textLength="176" x="19" y="290.6216">UMLDoclet 2.1.2, PlantUML 1.2024.3</text><!--SRC=[dL9BIyD04BxxAmP1KDID5K_51w8UH0MXwANsC4scxUXc9-oiGQtzxsusectq8EQGBDzZCZlV000e1N1OabQOqu0gz1Z4WnD7Qv666HS4L5RX5IPCjj0kMbAOIOGJdbjKXVL3vJVgzmwEhuYgKyirdOcRyFJ1VJ9xn-AdfXPVeJLZYmKP9LzpJcgUeWSRppgWmXzqflCN60uxY9c5qev6C4zDDizS0mRE5x0Rwp7QU_BAukukp_jWnKs_X97NXhbugTYJze5T-2PBTeEBLMnxIc6mujdSwYZqXoBIKLGB5ojrRfholzbRekDQj1b4bFmafhcKmo1TajzmR6afX4UiqR2aGN-UpR8qJd8MGgNzB2iaLoCUSqicbp8ZbpMEz5BAUhsaoB3Y19bnWoO5IxPSCsLnmhfBBx5FX_Oe-6SQZThcV-tYyDsO_on2kvBKp0Cc8itdxkRwNE8T0koRdjdVWLkBBaGKDkfs1JQtFW00]--></g></svg>