<?xml version="1.0" encoding="us-ascii" standalone="no"?><svg xmlns="http://www.w3.org/2000/svg" xmlns:xlink="http://www.w3.org/1999/xlink" contentStyleType="text/css" height="1028px" preserveAspectRatio="none" style="width:1005px;height:1028px;background:#FFFFFF;" version="1.1" viewBox="0 0 1005 1028" width="1005px" zoomAndPan="magnify"><defs/><g><!--cluster org.vorpal.blade.services.options--><g id="cluster_org.vorpal.blade.services.options"><path d="M8.5,590.67 L242.5,590.67 A3.75,3.75 0 0 1 245,593.17 L252,613.1583 L995.5,613.1583 A2.5,2.5 0 0 1 998,615.6583 L998,1000.45 A2.5,2.5 0 0 1 995.5,1002.95 L8.5,1002.95 A2.5,2.5 0 0 1 6,1000.45 L6,593.17 A2.5,2.5 0 0 1 8.5,590.67 " fill="none" style="stroke:#000000;stroke-width:1.5;"/><line style="stroke:#000000;stroke-width:1.5;" x1="6" x2="252" y1="613.1583" y2="613.1583"/><text fill="#000000" font-family="sans-serif" font-size="14" font-weight="bold" lengthAdjust="spacing" textLength="233" x="10" y="606.2052">org.vorpal.blade.services.options</text></g><!--cluster java.io--><g id="cluster_java.io"><path d="M76.5,236.84 L123.5,236.84 A3.75,3.75 0 0 1 126,239.34 L133,259.3283 L215.5,259.3283 A2.5,2.5 0 0 1 218,261.8283 L218,333.34 A2.5,2.5 0 0 1 215.5,335.84 L76.5,335.84 A2.5,2.5 0 0 1 74,333.34 L74,239.34 A2.5,2.5 0 0 1 76.5,236.84 " fill="none" style="stroke:#000000;stroke-width:1.5;"/><line style="stroke:#000000;stroke-width:1.5;" x1="74" x2="133" y1="259.3283" y2="259.3283"/><text fill="#000000" font-family="sans-serif" font-size="14" font-weight="bold" lengthAdjust="spacing" textLength="46" x="78" y="252.3752">java.io</text></g><!--cluster org.vorpal.blade.framework.callflow--><g id="cluster_org.vorpal.blade.framework.callflow"><path d="M259.5,6 L515.5,6 A3.75,3.75 0 0 1 518,8.5 L525,28.4883 L578.5,28.4883 A2.5,2.5 0 0 1 581,30.9883 L581,564.17 A2.5,2.5 0 0 1 578.5,566.67 L259.5,566.67 A2.5,2.5 0 0 1 257,564.17 L257,8.5 A2.5,2.5 0 0 1 259.5,6 " fill="none" style="stroke:#000000;stroke-width:1.5;"/><line style="stroke:#000000;stroke-width:1.5;" x1="257" x2="525" y1="28.4883" y2="28.4883"/><text fill="#000000" font-family="sans-serif" font-size="14" font-weight="bold" lengthAdjust="spacing" textLength="255" x="261" y="21.5352">org.vorpal.blade.framework.callflow</text></g><!--cluster org.vorpal.blade.framework--><g id="cluster_org.vorpal.blade.framework"><path d="M607.5,146.15 L803.5,146.15 A3.75,3.75 0 0 1 806,148.65 L813,168.6383 L980.5,168.6383 A2.5,2.5 0 0 1 983,171.1383 L983,424.02 A2.5,2.5 0 0 1 980.5,426.52 L607.5,426.52 A2.5,2.5 0 0 1 605,424.02 L605,148.65 A2.5,2.5 0 0 1 607.5,146.15 " fill="none" style="stroke:#000000;stroke-width:1.5;"/><line style="stroke:#000000;stroke-width:1.5;" x1="605" x2="813" y1="168.6383" y2="168.6383"/><text fill="#000000" font-family="sans-serif" font-size="14" font-weight="bold" lengthAdjust="spacing" textLength="195" x="609" y="161.6852">org.vorpal.blade.framework</text></g><!--class OptionsSettings--><a href="OptionsSettings.html" target="_top" title="OptionsSettings.html" xlink:actuate="onRequest" xlink:href="OptionsSettings.html" xlink:show="new" xlink:title="OptionsSettings.html" xlink:type="simple"><g id="elem_OptionsSettings"><rect codeLine="5" fill="#F1F1F1" height="361.2773" id="OptionsSettings" rx="2.5" ry="2.5" style="stroke:#181818;stroke-width:0.5;" width="247" x="22.5" y="625.67"/><ellipse cx="87.25" cy="641.67" fill="#ADD1B2" rx="11" ry="11" style="stroke:#181818;stroke-width:1.0;"/><path d="M89.7231,647.8131 Q89.1421,648.1119 88.5029,648.2613 Q87.8638,648.4107 87.1582,648.4107 Q84.6514,648.4107 83.3315,646.7589 Q82.0117,645.107 82.0117,641.9859 Q82.0117,638.8565 83.3315,637.2047 Q84.6514,635.5528 87.1582,635.5528 Q87.8638,635.5528 88.5112,635.7022 Q89.1587,635.8516 89.7231,636.1505 L89.7231,638.8731 Q89.0923,638.2921 88.4988,638.0223 Q87.9053,637.7525 87.2744,637.7525 Q85.9297,637.7525 85.2449,638.8192 Q84.5601,639.8858 84.5601,641.9859 Q84.5601,644.0777 85.2449,645.1444 Q85.9297,646.211 87.2744,646.211 Q87.9053,646.211 88.4988,645.9412 Q89.0923,645.6715 89.7231,645.0904 Z " fill="#000000"/><text fill="#000000" font-family="sans-serif" font-size="14" lengthAdjust="spacing" textLength="109" x="107.75" y="646.961">OptionsSettings</text><line style="stroke:#181818;stroke-width:0.5;" x1="23.5" x2="268.5" y1="657.67" y2="657.67"/><rect fill="none" height="6" style="stroke:#C82930;stroke-width:1.0;" width="6" x="30.5" y="668.4141"/><text fill="#000000" font-family="sans-serif" font-size="14" lengthAdjust="spacing" text-decoration="underline" textLength="152" x="42.5" y="675.2052">serialVersionUID: long</text><rect fill="none" height="6" style="stroke:#C82930;stroke-width:1.0;" width="6" x="30.5" y="684.9024"/><text fill="#000000" font-family="sans-serif" font-size="14" lengthAdjust="spacing" textLength="93" x="42.5" y="691.6934">accept: String</text><rect fill="none" height="6" style="stroke:#C82930;stroke-width:1.0;" width="6" x="30.5" y="701.3907"/><text fill="#000000" font-family="sans-serif" font-size="14" lengthAdjust="spacing" textLength="160" x="42.5" y="708.1817">acceptLanguage: String</text><rect fill="none" height="6" style="stroke:#C82930;stroke-width:1.0;" width="6" x="30.5" y="717.879"/><text fill="#000000" font-family="sans-serif" font-size="14" lengthAdjust="spacing" textLength="85" x="42.5" y="724.67">allow: String</text><rect fill="none" height="6" style="stroke:#C82930;stroke-width:1.0;" width="6" x="30.5" y="734.3673"/><text fill="#000000" font-family="sans-serif" font-size="14" lengthAdjust="spacing" textLength="120" x="42.5" y="741.1583">supported: String</text><rect fill="none" height="6" style="stroke:#C82930;stroke-width:1.0;" width="6" x="30.5" y="750.8555"/><text fill="#000000" font-family="sans-serif" font-size="14" lengthAdjust="spacing" textLength="120" x="42.5" y="757.6466">userAgent: String</text><rect fill="none" height="6" style="stroke:#C82930;stroke-width:1.0;" width="6" x="30.5" y="767.3438"/><text fill="#000000" font-family="sans-serif" font-size="14" lengthAdjust="spacing" textLength="129" x="42.5" y="774.1348">allowEvents: String</text><line style="stroke:#181818;stroke-width:0.5;" x1="23.5" x2="268.5" y1="781.088" y2="781.088"/><ellipse cx="33.5" cy="794.8321" fill="#84BE84" rx="3" ry="3" style="stroke:#038048;stroke-width:1.0;"/><text fill="#000000" font-family="sans-serif" font-size="14" lengthAdjust="spacing" textLength="119" x="42.5" y="798.6231">getAllow(): String</text><ellipse cx="33.5" cy="811.3204" fill="#84BE84" rx="3" ry="3" style="stroke:#038048;stroke-width:1.0;"/><text fill="#000000" font-family="sans-serif" font-size="14" lengthAdjust="spacing" textLength="146" x="42.5" y="815.1114">setAllow(String): void</text><ellipse cx="33.5" cy="827.8087" fill="#84BE84" rx="3" ry="3" style="stroke:#038048;stroke-width:1.0;"/><text fill="#000000" font-family="sans-serif" font-size="14" lengthAdjust="spacing" textLength="127" x="42.5" y="831.5997">getAccept(): String</text><ellipse cx="33.5" cy="844.297" fill="#84BE84" rx="3" ry="3" style="stroke:#038048;stroke-width:1.0;"/><text fill="#000000" font-family="sans-serif" font-size="14" lengthAdjust="spacing" textLength="154" x="42.5" y="848.088">setAccept(String): void</text><ellipse cx="33.5" cy="860.7852" fill="#84BE84" rx="3" ry="3" style="stroke:#038048;stroke-width:1.0;"/><text fill="#000000" font-family="sans-serif" font-size="14" lengthAdjust="spacing" textLength="194" x="42.5" y="864.5763">getAcceptLanguage(): String</text><ellipse cx="33.5" cy="877.2735" fill="#84BE84" rx="3" ry="3" style="stroke:#038048;stroke-width:1.0;"/><text fill="#000000" font-family="sans-serif" font-size="14" lengthAdjust="spacing" textLength="221" x="42.5" y="881.0645">setAcceptLanguage(String): void</text><ellipse cx="33.5" cy="893.7618" fill="#84BE84" rx="3" ry="3" style="stroke:#038048;stroke-width:1.0;"/><text fill="#000000" font-family="sans-serif" font-size="14" lengthAdjust="spacing" textLength="153" x="42.5" y="897.5528">getSupported(): String</text><ellipse cx="33.5" cy="910.2501" fill="#84BE84" rx="3" ry="3" style="stroke:#038048;stroke-width:1.0;"/><text fill="#000000" font-family="sans-serif" font-size="14" lengthAdjust="spacing" textLength="180" x="42.5" y="914.0411">setSupported(String): void</text><ellipse cx="33.5" cy="926.7384" fill="#84BE84" rx="3" ry="3" style="stroke:#038048;stroke-width:1.0;"/><text fill="#000000" font-family="sans-serif" font-size="14" lengthAdjust="spacing" textLength="153" x="42.5" y="930.5294">getUserAgent(): String</text><ellipse cx="33.5" cy="943.2266" fill="#84BE84" rx="3" ry="3" style="stroke:#038048;stroke-width:1.0;"/><text fill="#000000" font-family="sans-serif" font-size="14" lengthAdjust="spacing" textLength="180" x="42.5" y="947.0177">setUserAgent(String): void</text><ellipse cx="33.5" cy="959.7149" fill="#84BE84" rx="3" ry="3" style="stroke:#038048;stroke-width:1.0;"/><text fill="#000000" font-family="sans-serif" font-size="14" lengthAdjust="spacing" textLength="163" x="42.5" y="963.5059">getAllowEvents(): String</text><ellipse cx="33.5" cy="976.2032" fill="#84BE84" rx="3" ry="3" style="stroke:#038048;stroke-width:1.0;"/><text fill="#000000" font-family="sans-serif" font-size="14" lengthAdjust="spacing" textLength="190" x="42.5" y="979.9942">setAllowEvents(String): void</text></g></a><!--class OptionsCallflow--><a href="OptionsCallflow.html" target="_top" title="OptionsCallflow.html" xlink:actuate="onRequest" xlink:href="OptionsCallflow.html" xlink:show="new" xlink:title="OptionsCallflow.html" xlink:type="simple"><g id="elem_OptionsCallflow"><rect codeLine="27" fill="#F1F1F1" height="80.9766" id="OptionsCallflow" rx="2.5" ry="2.5" style="stroke:#181818;stroke-width:0.5;" width="248" x="305" y="765.82"/><ellipse cx="370.25" cy="781.82" fill="#ADD1B2" rx="11" ry="11" style="stroke:#181818;stroke-width:1.0;"/><path d="M372.7231,787.9631 Q372.1421,788.2619 371.5029,788.4113 Q370.8638,788.5607 370.1582,788.5607 Q367.6514,788.5607 366.3315,786.9089 Q365.0117,785.257 365.0117,782.1359 Q365.0117,779.0065 366.3315,777.3547 Q367.6514,775.7028 370.1582,775.7028 Q370.8638,775.7028 371.5112,775.8522 Q372.1587,776.0016 372.7231,776.3005 L372.7231,779.0231 Q372.0923,778.4421 371.4988,778.1723 Q370.9053,777.9025 370.2744,777.9025 Q368.9297,777.9025 368.2449,778.9692 Q367.5601,780.0358 367.5601,782.1359 Q367.5601,784.2277 368.2449,785.2944 Q368.9297,786.361 370.2744,786.361 Q370.9053,786.361 371.4988,786.0912 Q372.0923,785.8215 372.7231,785.2404 Z " fill="#000000"/><text fill="#000000" font-family="sans-serif" font-size="14" lengthAdjust="spacing" textLength="109" x="390.75" y="787.111">OptionsCallflow</text><line style="stroke:#181818;stroke-width:0.5;" x1="306" x2="552" y1="797.82" y2="797.82"/><rect fill="none" height="6" style="stroke:#C82930;stroke-width:1.0;" width="6" x="313" y="808.5641"/><text fill="#000000" font-family="sans-serif" font-size="14" lengthAdjust="spacing" text-decoration="underline" textLength="152" x="325" y="815.3552">serialVersionUID: long</text><line style="stroke:#181818;stroke-width:0.5;" x1="306" x2="552" y1="822.3083" y2="822.3083"/><ellipse cx="316" cy="836.0524" fill="#84BE84" rx="3" ry="3" style="stroke:#038048;stroke-width:1.0;"/><text fill="#000000" font-family="sans-serif" font-size="14" lengthAdjust="spacing" textLength="222" x="325" y="839.8434">process(SipServletRequest): void</text></g></a><!--class OptionsSipServlet--><a href="OptionsSipServlet.html" target="_top" title="OptionsSipServlet.html" xlink:actuate="onRequest" xlink:href="OptionsSipServlet.html" xlink:show="new" xlink:title="OptionsSipServlet.html" xlink:type="simple"><g id="elem_OptionsSipServlet"><rect codeLine="32" fill="#F1F1F1" height="146.9297" id="OptionsSipServlet" rx="2.5" ry="2.5" style="stroke:#181818;stroke-width:0.5;" width="394" x="588" y="732.85"/><ellipse cx="720.25" cy="748.85" fill="#ADD1B2" rx="11" ry="11" style="stroke:#181818;stroke-width:1.0;"/><path d="M722.7231,754.9931 Q722.1421,755.2919 721.5029,755.4413 Q720.8638,755.5907 720.1582,755.5907 Q717.6514,755.5907 716.3315,753.9389 Q715.0117,752.287 715.0117,749.1659 Q715.0117,746.0365 716.3315,744.3847 Q717.6514,742.7328 720.1582,742.7328 Q720.8638,742.7328 721.5112,742.8822 Q722.1587,743.0316 722.7231,743.3305 L722.7231,746.0531 Q722.0923,745.4721 721.4988,745.2023 Q720.9053,744.9325 720.2744,744.9325 Q718.9297,744.9325 718.2449,745.9992 Q717.5601,747.0658 717.5601,749.1659 Q717.5601,751.2577 718.2449,752.3244 Q718.9297,753.391 720.2744,753.391 Q720.9053,753.391 721.4988,753.1212 Q722.0923,752.8515 722.7231,752.2704 Z " fill="#000000"/><text fill="#000000" font-family="sans-serif" font-size="14" lengthAdjust="spacing" textLength="121" x="740.75" y="754.141">OptionsSipServlet</text><line style="stroke:#181818;stroke-width:0.5;" x1="589" x2="981" y1="764.85" y2="764.85"/><rect fill="none" height="6" style="stroke:#C82930;stroke-width:1.0;" width="6" x="596" y="775.5941"/><text fill="#000000" font-family="sans-serif" font-size="14" lengthAdjust="spacing" text-decoration="underline" textLength="152" x="608" y="782.3852">serialVersionUID: long</text><ellipse cx="599" cy="795.0824" fill="none" rx="3" ry="3" style="stroke:#038048;stroke-width:1.0;"/><text fill="#000000" font-family="sans-serif" font-size="14" lengthAdjust="spacing" text-decoration="underline" textLength="368" x="608" y="798.8734">settingsManager: SettingsManager&lt;OptionsSettings&gt;</text><line style="stroke:#181818;stroke-width:0.5;" x1="589" x2="981" y1="805.8266" y2="805.8266"/><ellipse cx="599" cy="819.5707" fill="#84BE84" rx="3" ry="3" style="stroke:#038048;stroke-width:1.0;"/><text fill="#000000" font-family="sans-serif" font-size="14" lengthAdjust="spacing" text-decoration="underline" textLength="256" x="608" y="823.3617">sessionKey(SipServletRequest): String</text><polygon fill="#FFFF44" points="599,831.059,603,835.059,599,839.059,595,835.059" style="stroke:#B38D22;stroke-width:1.0;"/><text fill="#000000" font-family="sans-serif" font-size="14" lengthAdjust="spacing" textLength="305" x="608" y="839.85">servletCreated(SipServletContextEvent): void</text><polygon fill="#FFFF44" points="599,847.5473,603,851.5473,599,855.5473,595,851.5473" style="stroke:#B38D22;stroke-width:1.0;"/><text fill="#000000" font-family="sans-serif" font-size="14" lengthAdjust="spacing" textLength="320" x="608" y="856.3383">servletDestroyed(SipServletContextEvent): void</text><polygon fill="#FFFF44" points="599,864.0355,603,868.0355,599,872.0355,595,868.0355" style="stroke:#B38D22;stroke-width:1.0;"/><text fill="#000000" font-family="sans-serif" font-size="14" lengthAdjust="spacing" textLength="299" x="608" y="872.8266">chooseCallflow(SipServletRequest): Callflow</text></g></a><!--class Serializable--><a href="https://docs.oracle.com/en/java/javase/11/docs/api/java.base/java/io/Serializable.html?is-external=true" target="_top" title="https://docs.oracle.com/en/java/javase/11/docs/api/java.base/java/io/Serializable.html?is-external=true" xlink:actuate="onRequest" xlink:href="https://docs.oracle.com/en/java/javase/11/docs/api/java.base/java/io/Serializable.html?is-external=true" xlink:show="new" xlink:title="https://docs.oracle.com/en/java/javase/11/docs/api/java.base/java/io/Serializable.html?is-external=true" xlink:type="simple"><g id="elem_Serializable"><rect codeLine="44" fill="#F1F1F1" height="48" id="Serializable" rx="2.5" ry="2.5" style="stroke:#181818;stroke-width:0.5;" width="111" x="90.5" y="271.84"/><ellipse cx="105.5" cy="287.84" fill="#B4A7E5" rx="11" ry="11" style="stroke:#181818;stroke-width:1.0;"/><path d="M101.9277,284.1051 L101.9277,281.9469 L109.3071,281.9469 L109.3071,284.1051 L106.8418,284.1051 L106.8418,292.1818 L109.3071,292.1818 L109.3071,294.34 L101.9277,294.34 L101.9277,292.1818 L104.3931,292.1818 L104.3931,284.1051 Z " fill="#000000"/><text fill="#000000" font-family="sans-serif" font-size="14" font-style="italic" lengthAdjust="spacing" textLength="79" x="119.5" y="293.131">Serializable</text><line style="stroke:#181818;stroke-width:0.5;" x1="91.5" x2="200.5" y1="303.84" y2="303.84"/><line style="stroke:#181818;stroke-width:0.5;" x1="91.5" x2="200.5" y1="311.84" y2="311.84"/></g></a><!--class Callflow--><a href="https://vorpalnet.github.io/blade/vorpal-blade-library-framework/org/vorpal/blade/framework/callflow/Callflow.html?is-external=true" target="_top" title="https://vorpalnet.github.io/blade/vorpal-blade-library-framework/org/vorpal/blade/framework/callflow/Callflow.html?is-external=true" xlink:actuate="onRequest" xlink:href="https://vorpalnet.github.io/blade/vorpal-blade-library-framework/org/vorpal/blade/framework/callflow/Callflow.html?is-external=true" xlink:show="new" xlink:title="https://vorpalnet.github.io/blade/vorpal-blade-library-framework/org/vorpal/blade/framework/callflow/Callflow.html?is-external=true" xlink:type="simple"><g id="elem_Callflow"><rect codeLine="48" fill="#F1F1F1" height="509.6719" id="Callflow" rx="2.5" ry="2.5" style="stroke:#181818;stroke-width:0.5;" width="291" x="273.5" y="41"/><ellipse cx="387.25" cy="57" fill="#A9DCDF" rx="11" ry="11" style="stroke:#181818;stroke-width:1.0;"/><path d="M387.1133,52.3481 L385.9595,57.4199 L388.2754,57.4199 Z M385.6191,50.1069 L388.6157,50.1069 L391.9609,62.5 L389.5122,62.5 L388.7485,59.437 L385.4697,59.437 L384.7227,62.5 L382.2739,62.5 Z " fill="#000000"/><text fill="#000000" font-family="sans-serif" font-size="14" font-style="italic" lengthAdjust="spacing" textLength="55" x="407.75" y="62.291">Callflow</text><line style="stroke:#181818;stroke-width:0.5;" x1="274.5" x2="563.5" y1="73" y2="73"/><rect fill="none" height="6" style="stroke:#C82930;stroke-width:1.0;" width="6" x="281.5" y="83.7441"/><text fill="#000000" font-family="sans-serif" font-size="14" lengthAdjust="spacing" text-decoration="underline" textLength="152" x="293.5" y="90.5352">serialVersionUID: long</text><polygon fill="none" points="284.5,98.2324,288.5,102.2324,284.5,106.2324,280.5,102.2324" style="stroke:#B38D22;stroke-width:1.0;"/><text fill="#000000" font-family="sans-serif" font-size="14" lengthAdjust="spacing" text-decoration="underline" textLength="149" x="293.5" y="107.0234">sipFactory: SipFactory</text><polygon fill="none" points="284.5,114.7207,288.5,118.7207,284.5,122.7207,280.5,118.7207" style="stroke:#B38D22;stroke-width:1.0;"/><text fill="#000000" font-family="sans-serif" font-size="14" lengthAdjust="spacing" text-decoration="underline" textLength="154" x="293.5" y="123.5117">sipUtil: SipSessionsUtil</text><polygon fill="none" points="284.5,131.209,288.5,135.209,284.5,139.209,280.5,135.209" style="stroke:#B38D22;stroke-width:1.0;"/><text fill="#000000" font-family="sans-serif" font-size="14" lengthAdjust="spacing" text-decoration="underline" textLength="180" x="293.5" y="140">timerService: TimerService</text><polygon fill="none" points="284.5,147.6973,288.5,151.6973,284.5,155.6973,280.5,151.6973" style="stroke:#B38D22;stroke-width:1.0;"/><text fill="#000000" font-family="sans-serif" font-size="14" lengthAdjust="spacing" text-decoration="underline" textLength="124" x="293.5" y="156.4883">sipLogger: Logger</text><polygon fill="none" points="284.5,164.1855,288.5,168.1855,284.5,172.1855,280.5,168.1855" style="stroke:#B38D22;stroke-width:1.0;"/><text fill="#000000" font-family="sans-serif" font-size="14" lengthAdjust="spacing" text-decoration="underline" textLength="265" x="293.5" y="172.9766">sessionParameters: SessionParameters</text><polygon fill="none" points="284.5,180.6738,288.5,184.6738,284.5,188.6738,280.5,184.6738" style="stroke:#B38D22;stroke-width:1.0;"/><text fill="#000000" font-family="sans-serif" font-size="14" lengthAdjust="spacing" text-decoration="underline" textLength="93" x="293.5" y="189.4648">INVITE: String</text><polygon fill="none" points="284.5,197.1621,288.5,201.1621,284.5,205.1621,280.5,201.1621" style="stroke:#B38D22;stroke-width:1.0;"/><text fill="#000000" font-family="sans-serif" font-size="14" lengthAdjust="spacing" text-decoration="underline" textLength="78" x="293.5" y="205.9531">ACK: String</text><polygon fill="none" points="284.5,213.6504,288.5,217.6504,284.5,221.6504,280.5,217.6504" style="stroke:#B38D22;stroke-width:1.0;"/><text fill="#000000" font-family="sans-serif" font-size="14" lengthAdjust="spacing" text-decoration="underline" textLength="74" x="293.5" y="222.4414">BYE: String</text><polygon fill="none" points="284.5,230.1387,288.5,234.1387,284.5,238.1387,280.5,234.1387" style="stroke:#B38D22;stroke-width:1.0;"/><text fill="#000000" font-family="sans-serif" font-size="14" lengthAdjust="spacing" text-decoration="underline" textLength="104" x="293.5" y="238.9297">CANCEL: String</text><polygon fill="none" points="284.5,246.627,288.5,250.627,284.5,254.627,280.5,250.627" style="stroke:#B38D22;stroke-width:1.0;"/><text fill="#000000" font-family="sans-serif" font-size="14" lengthAdjust="spacing" text-decoration="underline" textLength="114" x="293.5" y="255.418">REGISTER: String</text><polygon fill="none" points="284.5,263.1152,288.5,267.1152,284.5,271.1152,280.5,267.1152" style="stroke:#B38D22;stroke-width:1.0;"/><text fill="#000000" font-family="sans-serif" font-size="14" lengthAdjust="spacing" text-decoration="underline" textLength="110" x="293.5" y="271.9063">OPTIONS: String</text><polygon fill="none" points="284.5,279.6035,288.5,283.6035,284.5,287.6035,280.5,283.6035" style="stroke:#B38D22;stroke-width:1.0;"/><text fill="#000000" font-family="sans-serif" font-size="14" lengthAdjust="spacing" text-decoration="underline" textLength="95" x="293.5" y="288.3945">PRACK: String</text><polygon fill="none" points="284.5,296.0918,288.5,300.0918,284.5,304.0918,280.5,300.0918" style="stroke:#B38D22;stroke-width:1.0;"/><text fill="#000000" font-family="sans-serif" font-size="14" lengthAdjust="spacing" text-decoration="underline" textLength="122" x="293.5" y="304.8828">SUBSCRIBE: String</text><polygon fill="none" points="284.5,312.5801,288.5,316.5801,284.5,320.5801,280.5,316.5801" style="stroke:#B38D22;stroke-width:1.0;"/><text fill="#000000" font-family="sans-serif" font-size="14" lengthAdjust="spacing" text-decoration="underline" textLength="100" x="293.5" y="321.3711">NOTIFY: String</text><polygon fill="none" points="284.5,329.0684,288.5,333.0684,284.5,337.0684,280.5,333.0684" style="stroke:#B38D22;stroke-width:1.0;"/><text fill="#000000" font-family="sans-serif" font-size="14" lengthAdjust="spacing" text-decoration="underline" textLength="104" x="293.5" y="337.8594">PUBLISH: String</text><polygon fill="none" points="284.5,345.5566,288.5,349.5566,284.5,353.5566,280.5,349.5566" style="stroke:#B38D22;stroke-width:1.0;"/><text fill="#000000" font-family="sans-serif" font-size="14" lengthAdjust="spacing" text-decoration="underline" textLength="82" x="293.5" y="354.3477">INFO: String</text><polygon fill="none" points="284.5,362.0449,288.5,366.0449,284.5,370.0449,280.5,366.0449" style="stroke:#B38D22;stroke-width:1.0;"/><text fill="#000000" font-family="sans-serif" font-size="14" lengthAdjust="spacing" text-decoration="underline" textLength="104" x="293.5" y="370.8359">UPDATE: String</text><polygon fill="none" points="284.5,378.5332,288.5,382.5332,284.5,386.5332,280.5,382.5332" style="stroke:#B38D22;stroke-width:1.0;"/><text fill="#000000" font-family="sans-serif" font-size="14" lengthAdjust="spacing" text-decoration="underline" textLength="91" x="293.5" y="387.3242">REFER: String</text><polygon fill="none" points="284.5,395.0215,288.5,399.0215,284.5,403.0215,280.5,399.0215" style="stroke:#B38D22;stroke-width:1.0;"/><text fill="#000000" font-family="sans-serif" font-size="14" lengthAdjust="spacing" text-decoration="underline" textLength="69" x="293.5" y="403.8125">SIP: String</text><polygon fill="none" points="284.5,411.5098,288.5,415.5098,284.5,419.5098,280.5,415.5098" style="stroke:#B38D22;stroke-width:1.0;"/><text fill="#000000" font-family="sans-serif" font-size="14" lengthAdjust="spacing" text-decoration="underline" textLength="102" x="293.5" y="420.3008">Contact: String</text><polygon fill="none" points="284.5,427.998,288.5,431.998,284.5,435.998,280.5,431.998" style="stroke:#B38D22;stroke-width:1.0;"/><text fill="#000000" font-family="sans-serif" font-size="14" lengthAdjust="spacing" text-decoration="underline" textLength="110" x="293.5" y="436.7891">RELIABLE: String</text><polygon fill="none" points="284.5,444.4863,288.5,448.4863,284.5,452.4863,280.5,448.4863" style="stroke:#B38D22;stroke-width:1.0;"/><text fill="#000000" font-family="sans-serif" font-size="14" lengthAdjust="spacing" text-decoration="underline" textLength="197" x="293.5" y="453.2773">REQUEST_CALLBACK_: String</text><polygon fill="none" points="284.5,460.9746,288.5,464.9746,284.5,468.9746,280.5,464.9746" style="stroke:#B38D22;stroke-width:1.0;"/><text fill="#000000" font-family="sans-serif" font-size="14" lengthAdjust="spacing" text-decoration="underline" textLength="204" x="293.5" y="469.7656">RESPONSE_CALLBACK_: String</text><polygon fill="none" points="284.5,477.4629,288.5,481.4629,284.5,485.4629,280.5,481.4629" style="stroke:#B38D22;stroke-width:1.0;"/><text fill="#000000" font-family="sans-serif" font-size="14" lengthAdjust="spacing" text-decoration="underline" textLength="161" x="293.5" y="486.2539">LINKED_SESSION: String</text><polygon fill="none" points="284.5,493.9512,288.5,497.9512,284.5,501.9512,280.5,497.9512" style="stroke:#B38D22;stroke-width:1.0;"/><text fill="#000000" font-family="sans-serif" font-size="14" lengthAdjust="spacing" text-decoration="underline" textLength="181" x="293.5" y="502.7422">DELAYED_REQUEST: String</text><polygon fill="none" points="284.5,510.4395,288.5,514.4395,284.5,518.4395,280.5,514.4395" style="stroke:#B38D22;stroke-width:1.0;"/><text fill="#000000" font-family="sans-serif" font-size="14" lengthAdjust="spacing" text-decoration="underline" textLength="199" x="293.5" y="519.2305">WITHHOLD_RESPONSE: String</text><line style="stroke:#181818;stroke-width:0.5;" x1="274.5" x2="563.5" y1="526.1836" y2="526.1836"/><ellipse cx="284.5" cy="539.9277" fill="#84BE84" rx="3" ry="3" style="stroke:#038048;stroke-width:1.0;"/><text fill="#000000" font-family="sans-serif" font-size="14" font-style="italic" lengthAdjust="spacing" textLength="222" x="293.5" y="543.7188">process(SipServletRequest): void</text></g></a><!--class AsyncSipServlet--><a href="https://vorpalnet.github.io/blade/vorpal-blade-library-framework/org/vorpal/blade/framework/AsyncSipServlet.html?is-external=true" target="_top" title="https://vorpalnet.github.io/blade/vorpal-blade-library-framework/org/vorpal/blade/framework/AsyncSipServlet.html?is-external=true" xlink:actuate="onRequest" xlink:href="https://vorpalnet.github.io/blade/vorpal-blade-library-framework/org/vorpal/blade/framework/AsyncSipServlet.html?is-external=true" xlink:show="new" xlink:title="https://vorpalnet.github.io/blade/vorpal-blade-library-framework/org/vorpal/blade/framework/AsyncSipServlet.html?is-external=true" xlink:type="simple"><g id="elem_AsyncSipServlet"><rect codeLine="81" fill="#F1F1F1" height="229.3711" id="AsyncSipServlet" rx="2.5" ry="2.5" style="stroke:#181818;stroke-width:0.5;" width="346" x="621" y="181.15"/><ellipse cx="736.25" cy="197.15" fill="#A9DCDF" rx="11" ry="11" style="stroke:#181818;stroke-width:1.0;"/><path d="M736.1133,192.4981 L734.9595,197.5699 L737.2754,197.5699 Z M734.6191,190.2569 L737.6157,190.2569 L740.9609,202.65 L738.5122,202.65 L737.7485,199.587 L734.4697,199.587 L733.7227,202.65 L731.2739,202.65 Z " fill="#000000"/><text fill="#000000" font-family="sans-serif" font-size="14" font-style="italic" lengthAdjust="spacing" textLength="107" x="756.75" y="202.441">AsyncSipServlet</text><line style="stroke:#181818;stroke-width:0.5;" x1="622" x2="966" y1="213.15" y2="213.15"/><rect fill="none" height="6" style="stroke:#C82930;stroke-width:1.0;" width="6" x="629" y="223.8941"/><text fill="#000000" font-family="sans-serif" font-size="14" lengthAdjust="spacing" text-decoration="underline" textLength="152" x="641" y="230.6852">serialVersionUID: long</text><rect fill="none" height="6" style="stroke:#C82930;stroke-width:1.0;" width="6" x="629" y="240.3824"/><text fill="#000000" font-family="sans-serif" font-size="14" lengthAdjust="spacing" textLength="204" x="641" y="247.1734">event: SipServletContextEvent</text><polygon fill="none" points="632,254.8707,636,258.8707,632,262.8707,628,258.8707" style="stroke:#B38D22;stroke-width:1.0;"/><text fill="#000000" font-family="sans-serif" font-size="14" lengthAdjust="spacing" text-decoration="underline" textLength="124" x="641" y="263.6617">sipLogger: Logger</text><polygon fill="none" points="632,271.359,636,275.359,632,279.359,628,275.359" style="stroke:#B38D22;stroke-width:1.0;"/><text fill="#000000" font-family="sans-serif" font-size="14" lengthAdjust="spacing" text-decoration="underline" textLength="149" x="641" y="280.15">sipFactory: SipFactory</text><polygon fill="none" points="632,287.8473,636,291.8473,632,295.8473,628,291.8473" style="stroke:#B38D22;stroke-width:1.0;"/><text fill="#000000" font-family="sans-serif" font-size="14" lengthAdjust="spacing" text-decoration="underline" textLength="154" x="641" y="296.6383">sipUtil: SipSessionsUtil</text><polygon fill="none" points="632,304.3355,636,308.3355,632,312.3355,628,308.3355" style="stroke:#B38D22;stroke-width:1.0;"/><text fill="#000000" font-family="sans-serif" font-size="14" lengthAdjust="spacing" text-decoration="underline" textLength="180" x="641" y="313.1266">timerService: TimerService</text><polygon fill="none" points="632,320.8238,636,324.8238,632,328.8238,628,324.8238" style="stroke:#B38D22;stroke-width:1.0;"/><text fill="#000000" font-family="sans-serif" font-size="14" lengthAdjust="spacing" text-decoration="underline" textLength="265" x="641" y="329.6148">sessionParameters: SessionParameters</text><rect fill="none" height="6" style="stroke:#C82930;stroke-width:1.0;" width="6" x="629" y="339.3121"/><text fill="#000000" font-family="sans-serif" font-size="14" lengthAdjust="spacing" text-decoration="underline" textLength="248" x="641" y="346.1031">RESPONSE_CALLBACK_INVITE: String</text><line style="stroke:#181818;stroke-width:0.5;" x1="622" x2="966" y1="353.0563" y2="353.0563"/><polygon fill="#FFFF44" points="632,361.8004,636,365.8004,632,369.8004,628,365.8004" style="stroke:#B38D22;stroke-width:1.0;"/><text fill="#000000" font-family="sans-serif" font-size="14" font-style="italic" lengthAdjust="spacing" textLength="305" x="641" y="370.5914">servletCreated(SipServletContextEvent): void</text><polygon fill="#FFFF44" points="632,378.2887,636,382.2887,632,386.2887,628,382.2887" style="stroke:#B38D22;stroke-width:1.0;"/><text fill="#000000" font-family="sans-serif" font-size="14" font-style="italic" lengthAdjust="spacing" textLength="320" x="641" y="387.0797">servletDestroyed(SipServletContextEvent): void</text><polygon fill="#FFFF44" points="632,394.777,636,398.777,632,402.777,628,398.777" style="stroke:#B38D22;stroke-width:1.0;"/><text fill="#000000" font-family="sans-serif" font-size="14" font-style="italic" lengthAdjust="spacing" textLength="299" x="641" y="403.568">chooseCallflow(SipServletRequest): Callflow</text></g></a><!--reverse link Serializable to OptionsSettings--><g id="link_Serializable_OptionsSettings"><path codeLine="96" d="M146,338.01 C146,391.63 146,510.46 146,625.21 " fill="none" id="Serializable-backto-OptionsSettings" style="stroke:#181818;stroke-width:1.0;stroke-dasharray:7.0,7.0;"/><polygon fill="none" points="146,320.01,140,338.01,152,338.01,146,320.01" style="stroke:#181818;stroke-width:1.0;"/></g><!--reverse link Callflow to OptionsCallflow--><g id="link_Callflow_OptionsCallflow"><path codeLine="97" d="M424.3538,569.0665 C425.9938,652.4965 427.28,717.92 428.22,765.41 " fill="none" id="Callflow-backto-OptionsCallflow" style="stroke:#181818;stroke-width:1.0;"/><polygon fill="none" points="424,551.07,418.3549,569.1844,430.3526,568.9486,424,551.07" style="stroke:#181818;stroke-width:1.0;"/></g><!--reverse link AsyncSipServlet to OptionsSipServlet--><g id="link_AsyncSipServlet_OptionsSipServlet"><path codeLine="98" d="M791.6617,428.9472 C789.9217,527.3272 787.78,648.42 786.29,732.43 " fill="none" id="AsyncSipServlet-backto-OptionsSipServlet" style="stroke:#181818;stroke-width:1.0;"/><polygon fill="none" points="791.98,410.95,785.6626,428.8411,797.6608,429.0533,791.98,410.95" style="stroke:#181818;stroke-width:1.0;"/></g><text fill="#888888" font-family="sans-serif" font-size="10" lengthAdjust="spacing" textLength="176" x="407.5" y="1018.618">UMLDoclet 2.1.2, PlantUML 1.2024.3</text><!--SRC=[pLV_Jzf05F_Tl-AIPOd6jOt-sBWj1UfihC0uS376cAEUzMRjTNS7Zgd_-rvRIW5R3fWc8m7atkTzthlthK-4499KmJiXWYWka6tlxC0XIaXmJqAAk0ZDCHS9YSnXH6weAQaOiu1AaoUAyLYYfrmXVGKHaH9rSW6cIh4ubEZoSkd4l5CFqTKLQAAvrvDKHB7W1HbWWf7ed0e9MWElPQE8n-42s211G1Db8wm4gvRv90v7S8KQJ1JnnsgH72K95uhUL8j7u9uJqbYj87R789ULWFsGAYV5xEvLosKXpuM06dDsyveZk-GgaXom3aiHAYtR3BYQ5HSHN45OObPp3Ofmh-0gCPhRbhdHHN-AgkPxgIdv9YJ_5fJBaYzEtg3aznF1eU_09vPWQCA8gXxzDQ9IhUjUgJZNaxEpDt1n1ax3cBNw6OcXN0J4Ul7WQ6aaVAdbaQcvKpgfl7P51Z_87DGKb6JLDLDhybZHtohBR5M559eju1PyifbkSCUvf4MwAvqjXCjvUbcSk3_9c9YCp-M1WMrnIm8AKKnpmFwGOKGXXtTA9TAsh1iUm3mM98Ye6V07YyPMof9zI6eT76G8YoGiEpA7wMc6ODoQvyngu2kJ1joLYfX4dvKOqQkhAZzVFHbk1NcWZrpScq7H1-KTo122IW8rhSYvJYakaNF5K8WXKtUZ8SJ0oeYd4YFxOKHiA8YO63Dh5ZWoXKpnfQXmn5hemueBladLVv0iEOOxSZ61qfpzNGyUA1PbI9oNkKmFQk2AFL21yuUlZVfpl-hvVHvcpPT_r-5osrsIHWs2aZwsbezgLBtskTTtAzkm13dDKmsYSQ7ZQ3hjfkjhG3ttcuVxRay3wtJxNgUDDQXkJ-yt7ZHmi-SrTDwtEttl-49dSD3mFNoYGNdjuuu6CkYs76rIUkwnDb3Ow-hI0bCHQbnho_USXgztwVl0nVthfkFx3GZ-jHQFkv17Tsq5tskVkgrhx68C1Q01jrpVkG3qr2iD-eVNFpdf-2ayTweQNmp1buqUvXlDtlgHwyX972oi0EyvUPUilSVSDUWuty8hdzB_EXN_gr6-zOWsNdV9gg5T5kZsQrG5oJORrJpDTilLNDzCTohRNbYWZfvDK_yFhcqlxQePunhRZstFjfoZPyFOmDB2PUejsVPoJszefzJCB0KqNJJHBUVfr-3CR_4WPJqq3yp3JwWRaLZ1AVeupjjoT-yl]--></g></svg>