<?xml version="1.0" encoding="us-ascii" standalone="no"?><svg xmlns="http://www.w3.org/2000/svg" xmlns:xlink="http://www.w3.org/1999/xlink" contentStyleType="text/css" height="275px" preserveAspectRatio="none" style="width:724px;height:275px;background:#FFFFFF;" version="1.1" viewBox="0 0 724 275" width="724px" zoomAndPan="magnify"><defs/><g><!--class org.vorpal.blade.framework.deprecated.proxy.ProxyServlet--><a href="ProxyServlet.html" target="_top" title="ProxyServlet.html" xlink:actuate="onRequest" xlink:href="ProxyServlet.html" xlink:show="new" xlink:title="ProxyServlet.html" xlink:type="simple"><g id="elem_org.vorpal.blade.framework.deprecated.proxy.ProxyServlet"><rect codeLine="5" fill="#F1F1F1" height="87.2422" id="org.vorpal.blade.framework.deprecated.proxy.ProxyServlet" rx="2.5" ry="2.5" style="stroke:#181818;stroke-width:0.5;" width="325" x="205.5" y="162.73"/><ellipse cx="252.25" cy="181.8628" fill="#A9DCDF" rx="11" ry="11" style="stroke:#181818;stroke-width:1.0;"/><path d="M252.1133,177.211 L250.9595,182.2827 L253.2754,182.2827 Z M250.6191,174.9697 L253.6157,174.9697 L256.9609,187.3628 L254.5122,187.3628 L253.7485,184.2998 L250.4697,184.2998 L249.7227,187.3628 L247.2739,187.3628 Z " fill="#000000"/><text fill="#000000" font-family="sans-serif" font-size="14" font-style="italic" lengthAdjust="spacing" textLength="85" x="341.75" y="181.2652">ProxyServlet</text><text fill="#000000" font-family="sans-serif" font-size="10" font-style="italic" lengthAdjust="spacing" textLength="223" x="272.75" y="193.8863">org.vorpal.blade.framework.deprecated.proxy</text><line style="stroke:#181818;stroke-width:0.5;" x1="206.5" x2="529.5" y1="200.9956" y2="200.9956"/><rect fill="none" height="6" style="stroke:#C82930;stroke-width:1.0;" width="6" x="213.5" y="211.7398"/><text fill="#000000" font-family="sans-serif" font-size="14" lengthAdjust="spacing" text-decoration="underline" textLength="152" x="225.5" y="218.5308">serialVersionUID: long</text><line style="stroke:#181818;stroke-width:0.5;" x1="206.5" x2="529.5" y1="225.4839" y2="225.4839"/><polygon fill="#FFFF44" points="216.5,234.228,220.5,238.228,216.5,242.228,212.5,238.228" style="stroke:#B38D22;stroke-width:1.0;"/><text fill="#000000" font-family="sans-serif" font-size="14" lengthAdjust="spacing" textLength="299" x="225.5" y="243.0191">chooseCallflow(SipServletRequest): Callflow</text></g></a><!--class org.vorpal.blade.framework.AsyncSipServlet--><a href="../../AsyncSipServlet.html" target="_top" title="../../AsyncSipServlet.html" xlink:actuate="onRequest" xlink:href="../../AsyncSipServlet.html" xlink:show="new" xlink:title="../../AsyncSipServlet.html" xlink:type="simple"><g id="elem_org.vorpal.blade.framework.AsyncSipServlet"><rect codeLine="10" fill="#F1F1F1" height="95.7305" id="org.vorpal.blade.framework.AsyncSipServlet" rx="2.5" ry="2.5" style="stroke:#181818;stroke-width:0.5;" width="346" x="9" y="7"/><ellipse cx="110.25" cy="26.1328" fill="#A9DCDF" rx="11" ry="11" style="stroke:#181818;stroke-width:1.0;"/><path d="M110.1133,21.481 L108.9595,26.5527 L111.2754,26.5527 Z M108.6191,19.2397 L111.6157,19.2397 L114.9609,31.6328 L112.5122,31.6328 L111.7485,28.5698 L108.4697,28.5698 L107.7227,31.6328 L105.2739,31.6328 Z " fill="#000000"/><text fill="#000000" font-family="sans-serif" font-size="14" font-style="italic" lengthAdjust="spacing" textLength="107" x="144.75" y="25.5352">AsyncSipServlet</text><text fill="#000000" font-family="sans-serif" font-size="10" font-style="italic" lengthAdjust="spacing" textLength="135" x="130.75" y="38.1563">org.vorpal.blade.framework</text><line style="stroke:#181818;stroke-width:0.5;" x1="10" x2="354" y1="45.2656" y2="45.2656"/><polygon fill="#FFFF44" points="20,54.0098,24,58.0098,20,62.0098,16,58.0098" style="stroke:#B38D22;stroke-width:1.0;"/><text fill="#000000" font-family="sans-serif" font-size="14" font-style="italic" lengthAdjust="spacing" textLength="305" x="29" y="62.8008">servletCreated(SipServletContextEvent): void</text><polygon fill="#FFFF44" points="20,70.498,24,74.498,20,78.498,16,74.498" style="stroke:#B38D22;stroke-width:1.0;"/><text fill="#000000" font-family="sans-serif" font-size="14" font-style="italic" lengthAdjust="spacing" textLength="320" x="29" y="79.2891">servletDestroyed(SipServletContextEvent): void</text><polygon fill="#FFFF44" points="20,86.9863,24,90.9863,20,94.9863,16,90.9863" style="stroke:#B38D22;stroke-width:1.0;"/><text fill="#000000" font-family="sans-serif" font-size="14" font-style="italic" lengthAdjust="spacing" textLength="299" x="29" y="95.7773">chooseCallflow(SipServletRequest): Callflow</text></g></a><!--class org.vorpal.blade.framework.deprecated.proxy.ProxyListener--><a href="ProxyListener.html" target="_top" title="ProxyListener.html" xlink:actuate="onRequest" xlink:href="ProxyListener.html" xlink:show="new" xlink:title="ProxyListener.html" xlink:type="simple"><g id="elem_org.vorpal.blade.framework.deprecated.proxy.ProxyListener"><rect codeLine="15" fill="#F1F1F1" height="79.2422" id="org.vorpal.blade.framework.deprecated.proxy.ProxyListener" rx="2.5" ry="2.5" style="stroke:#181818;stroke-width:0.5;" width="327" x="390.5" y="15.24"/><ellipse cx="438.25" cy="34.3728" fill="#B4A7E5" rx="11" ry="11" style="stroke:#181818;stroke-width:1.0;"/><path d="M434.6777,30.6379 L434.6777,28.4797 L442.0571,28.4797 L442.0571,30.6379 L439.5918,30.6379 L439.5918,38.7146 L442.0571,38.7146 L442.0571,40.8728 L434.6777,40.8728 L434.6777,38.7146 L437.1431,38.7146 L437.1431,30.6379 Z " fill="#000000"/><text fill="#000000" font-family="sans-serif" font-size="14" font-style="italic" lengthAdjust="spacing" textLength="93" x="523.75" y="33.7752">ProxyListener</text><text fill="#000000" font-family="sans-serif" font-size="10" font-style="italic" lengthAdjust="spacing" textLength="223" x="458.75" y="46.3963">org.vorpal.blade.framework.deprecated.proxy</text><line style="stroke:#181818;stroke-width:0.5;" x1="391.5" x2="716.5" y1="53.5056" y2="53.5056"/><ellipse cx="401.5" cy="67.2498" fill="#84BE84" rx="3" ry="3" style="stroke:#038048;stroke-width:1.0;"/><text fill="#000000" font-family="sans-serif" font-size="14" font-style="italic" lengthAdjust="spacing" textLength="301" x="410.5" y="71.0408">proxyRequest(SipServletRequest): ProxyTier</text><ellipse cx="401.5" cy="83.738" fill="#84BE84" rx="3" ry="3" style="stroke:#038048;stroke-width:1.0;"/><text fill="#000000" font-family="sans-serif" font-size="14" font-style="italic" lengthAdjust="spacing" textLength="286" x="410.5" y="87.5291">proxyResponse(SipServletResponse): void</text></g></a><!--reverse link org.vorpal.blade.framework.AsyncSipServlet to org.vorpal.blade.framework.deprecated.proxy.ProxyServlet--><g id="link_org.vorpal.blade.framework.AsyncSipServlet_org.vorpal.blade.framework.deprecated.proxy.ProxyServlet"><path codeLine="20" d="M254.8807,114.4356 C278.5107,133.4256 291.52,143.88 314.58,162.41 " fill="none" id="org.vorpal.blade.framework.AsyncSipServlet-backto-org.vorpal.blade.framework.deprecated.proxy.ProxyServlet" style="stroke:#181818;stroke-width:1.0;"/><polygon fill="none" points="240.85,103.16,251.1222,119.1125,258.6392,109.7587,240.85,103.16" style="stroke:#181818;stroke-width:1.0;"/></g><!--reverse link org.vorpal.blade.framework.deprecated.proxy.ProxyListener to org.vorpal.blade.framework.deprecated.proxy.ProxyServlet--><g id="link_org.vorpal.blade.framework.deprecated.proxy.ProxyListener_org.vorpal.blade.framework.deprecated.proxy.ProxyServlet"><path codeLine="21" d="M491.5877,106.0236 C465.7477,126.7836 447.93,141.11 421.38,162.45 " fill="none" id="org.vorpal.blade.framework.deprecated.proxy.ProxyListener-backto-org.vorpal.blade.framework.deprecated.proxy.ProxyServlet" style="stroke:#181818;stroke-width:1.0;stroke-dasharray:7.0,7.0;"/><polygon fill="none" points="505.62,94.75,487.8298,101.3462,495.3456,110.7011,505.62,94.75" style="stroke:#181818;stroke-width:1.0;"/></g><text fill="#888888" font-family="sans-serif" font-size="10" lengthAdjust="spacing" textLength="176" x="267.25" y="265.6402">UMLDoclet 2.1.2, PlantUML 1.2024.3</text><!--SRC=[lLHDIyD04BtxAmP5g6ZN3poL8aZhGQXGh7fH3-jcOXUtEt5cJQtQ_-ucRRGMQQs28IJisvqtynul0G0G3E3r02NJ1dkOQTQ163nvN8lRqBS90WwoC8BKeaja7XrWw5E4IrpVIM1j0XYdHM2zAVO56_k7Hrscvr4FENSORlmKtZiYlbSvSQQTkdCwGPLod6L8_A0Ip1YD3fYeh2XU1osmmdarsnAkhsUNgXy6xlOMNikXY-jLWWxMZA4ko5QxAsInv2zFsmrmvEy_3cwOFf5WIpkNEXhMUZQRafxZunDAs6f0jLaMZPSuSomZRpvPVcJECY_cEADwfNRZFOT_OqCrvXWsP7AenLYOEYEqHJxWSpZ9qHTgSxB98e9sD8Lfz2kArSqkdZQISnhpF1_0ZfM07la_4rZrh29OhHUQlrqIJ4L-Axlakh38Yyeb8o_ufNu2pNe-3UWASMg-rUk__XINDLlYOlDDgR_rDbZ40rAYudLvrccJALGTg7rri0DTfts8A6pcatz0RUiT]--></g></svg>