<?xml version="1.0" encoding="us-ascii" standalone="no"?><svg xmlns="http://www.w3.org/2000/svg" xmlns:xlink="http://www.w3.org/1999/xlink" contentStyleType="text/css" height="333px" preserveAspectRatio="none" style="width:269px;height:333px;background:#FFFFFF;" version="1.1" viewBox="0 0 269 333" width="269px" zoomAndPan="magnify"><defs/><g><!--class org.vorpal.blade.framework.deprecated.proxy.ProxyRule--><a href="ProxyRule.html" target="_top" title="ProxyRule.html" xlink:actuate="onRequest" xlink:href="ProxyRule.html" xlink:show="new" xlink:title="ProxyRule.html" xlink:type="simple"><g id="elem_org.vorpal.blade.framework.deprecated.proxy.ProxyRule"><rect codeLine="5" fill="#F1F1F1" height="202.6602" id="org.vorpal.blade.framework.deprecated.proxy.ProxyRule" rx="2.5" ry="2.5" style="stroke:#181818;stroke-width:0.5;" width="255" x="7" y="105.27"/><ellipse cx="22" cy="124.4028" fill="#ADD1B2" rx="11" ry="11" style="stroke:#181818;stroke-width:1.0;"/><path d="M24.4731,130.5459 Q23.8921,130.8447 23.2529,130.9941 Q22.6138,131.1435 21.9082,131.1435 Q19.4014,131.1435 18.0815,129.4917 Q16.7617,127.8398 16.7617,124.7187 Q16.7617,121.5893 18.0815,119.9375 Q19.4014,118.2856 21.9082,118.2856 Q22.6138,118.2856 23.2612,118.435 Q23.9087,118.5845 24.4731,118.8833 L24.4731,121.6059 Q23.8423,121.0249 23.2488,120.7551 Q22.6553,120.4853 22.0244,120.4853 Q20.6797,120.4853 19.9949,121.552 Q19.3101,122.6186 19.3101,124.7187 Q19.3101,126.8105 19.9949,127.8772 Q20.6797,128.9438 22.0244,128.9438 Q22.6553,128.9438 23.2488,128.6741 Q23.8423,128.4043 24.4731,127.8232 Z " fill="#000000"/><text fill="#000000" font-family="sans-serif" font-size="14" lengthAdjust="spacing" textLength="69" x="113" y="123.8052">ProxyRule</text><text fill="#000000" font-family="sans-serif" font-size="10" lengthAdjust="spacing" textLength="223" x="36" y="136.4263">org.vorpal.blade.framework.deprecated.proxy</text><line style="stroke:#181818;stroke-width:0.5;" x1="8" x2="261" y1="143.5356" y2="143.5356"/><rect fill="none" height="6" style="stroke:#C82930;stroke-width:1.0;" width="6" x="15" y="154.2798"/><text fill="#000000" font-family="sans-serif" font-size="14" lengthAdjust="spacing" text-decoration="underline" textLength="152" x="27" y="161.0708">serialVersionUID: long</text><rect fill="none" height="6" style="stroke:#C82930;stroke-width:1.0;" width="6" x="15" y="170.768"/><text fill="#000000" font-family="sans-serif" font-size="14" lengthAdjust="spacing" textLength="62" x="27" y="177.5591">id: String</text><rect fill="none" height="6" style="stroke:#C82930;stroke-width:1.0;" width="6" x="15" y="187.2563"/><text fill="#000000" font-family="sans-serif" font-size="14" lengthAdjust="spacing" textLength="149" x="27" y="194.0473">tiers: List&lt;ProxyTier&gt;</text><line style="stroke:#181818;stroke-width:0.5;" x1="8" x2="261" y1="201.0005" y2="201.0005"/><ellipse cx="18" cy="214.7446" fill="#84BE84" rx="3" ry="3" style="stroke:#038048;stroke-width:1.0;"/><text fill="#000000" font-family="sans-serif" font-size="14" lengthAdjust="spacing" textLength="79" x="27" y="218.5356">ProxyRule()</text><ellipse cx="18" cy="231.2329" fill="#84BE84" rx="3" ry="3" style="stroke:#038048;stroke-width:1.0;"/><text fill="#000000" font-family="sans-serif" font-size="14" lengthAdjust="spacing" textLength="148" x="27" y="235.0239">ProxyRule(ProxyRule)</text><ellipse cx="18" cy="247.7212" fill="#84BE84" rx="3" ry="3" style="stroke:#038048;stroke-width:1.0;"/><text fill="#000000" font-family="sans-serif" font-size="14" lengthAdjust="spacing" textLength="94" x="27" y="251.5122">getId(): String</text><ellipse cx="18" cy="264.2095" fill="#84BE84" rx="3" ry="3" style="stroke:#038048;stroke-width:1.0;"/><text fill="#000000" font-family="sans-serif" font-size="14" lengthAdjust="spacing" textLength="121" x="27" y="268.0005">setId(String): void</text><ellipse cx="18" cy="280.6977" fill="#84BE84" rx="3" ry="3" style="stroke:#038048;stroke-width:1.0;"/><text fill="#000000" font-family="sans-serif" font-size="14" lengthAdjust="spacing" textLength="185" x="27" y="284.4888">getTiers(): List&lt;ProxyTier&gt;</text><ellipse cx="18" cy="297.186" fill="#84BE84" rx="3" ry="3" style="stroke:#038048;stroke-width:1.0;"/><text fill="#000000" font-family="sans-serif" font-size="14" lengthAdjust="spacing" textLength="212" x="27" y="300.977">setTiers(List&lt;ProxyTier&gt;): void</text></g></a><!--class java.io.Serializable--><a href="https://docs.oracle.com/en/java/javase/11/docs/api/java.base/java/io/Serializable.html?is-external=true" target="_top" title="https://docs.oracle.com/en/java/javase/11/docs/api/java.base/java/io/Serializable.html?is-external=true" xlink:actuate="onRequest" xlink:href="https://docs.oracle.com/en/java/javase/11/docs/api/java.base/java/io/Serializable.html?is-external=true" xlink:show="new" xlink:title="https://docs.oracle.com/en/java/javase/11/docs/api/java.base/java/io/Serializable.html?is-external=true" xlink:type="simple"><g id="elem_java.io.Serializable"><rect codeLine="17" fill="#F1F1F1" height="38.2656" id="java.io.Serializable" rx="2.5" ry="2.5" style="stroke:#181818;stroke-width:0.5;" width="111" x="79" y="7"/><ellipse cx="94" cy="26.1328" fill="#B4A7E5" rx="11" ry="11" style="stroke:#181818;stroke-width:1.0;"/><path d="M90.4277,22.3979 L90.4277,20.2397 L97.8071,20.2397 L97.8071,22.3979 L95.3418,22.3979 L95.3418,30.4746 L97.8071,30.4746 L97.8071,32.6328 L90.4277,32.6328 L90.4277,30.4746 L92.8931,30.4746 L92.8931,22.3979 Z " fill="#000000"/><text fill="#000000" font-family="sans-serif" font-size="14" font-style="italic" lengthAdjust="spacing" textLength="79" x="108" y="25.5352">Serializable</text><text fill="#000000" font-family="sans-serif" font-size="10" font-style="italic" lengthAdjust="spacing" textLength="32" x="131.5" y="38.1563">java.io</text></g></a><!--reverse link java.io.Serializable to org.vorpal.blade.framework.deprecated.proxy.ProxyRule--><g id="link_java.io.Serializable_org.vorpal.blade.framework.deprecated.proxy.ProxyRule"><path codeLine="19" d="M134.5,63.56 C134.5,78.26 134.5,82.1 134.5,104.96 " fill="none" id="java.io.Serializable-backto-org.vorpal.blade.framework.deprecated.proxy.ProxyRule" style="stroke:#181818;stroke-width:1.0;stroke-dasharray:7.0,7.0;"/><polygon fill="none" points="134.5,45.56,128.5,63.56,140.5,63.56,134.5,45.56" style="stroke:#181818;stroke-width:1.0;"/></g><text fill="#888888" font-family="sans-serif" font-size="10" lengthAdjust="spacing" textLength="176" x="39.5" y="323.5981">UMLDoclet 2.1.2, PlantUML 1.2024.3</text><!--SRC=[dL9DJnj13BtpAomaf4GqimtYj4h3XGiIbL1JUe4Sd1qd6PWThyOcvQFyzyxEmcgXzD3kOTPwVfxdyJC0W912m9gamOeMr614vGY10-sbD6oT9Q2wqGTOE_9MtgCrwPOJdF7AemZipyGzKZazdbz4ld_uTkVfEhnWd-SSDsR7iK5lLXujcNLC-ZyvtXfBJQGAbQnfsifzG85_u9jU3wwk-jXijVRB9Jpb5jllIHJLLSym4OeE_G-AuZXSdfsMu3biUkB4sH8M6jqGKvVe9PmxqLaM-Pw0UPy_x8L7uu_0FXfaDwHdTZJ-G-jGSg93Kth7phwfQgMbBVnhD_9AUiSOtlRSkUU2KbodFHWukCW3Se-uUcFY3UxGECu6lSHcI4tptwesKXQ5vKeCHwoI4nNN1OMYhSY7K36TPaQ1ZSkGMRLePZWkXdTc7q-SJEW-zHdGVz5uHyjbr_o7NSn-6VD_2zIjCxKJWJLp-xlyUdxAwHKAHsPgZZx1XSUW2OM3NRT0e_5l]--></g></svg>