<?xml version="1.0" encoding="us-ascii" standalone="no"?><svg xmlns="http://www.w3.org/2000/svg" xmlns:xlink="http://www.w3.org/1999/xlink" contentStyleType="text/css" height="251px" preserveAspectRatio="none" style="width:812px;height:251px;background:#FFFFFF;" version="1.1" viewBox="0 0 812 251" width="812px" zoomAndPan="magnify"><defs/><g><!--class org.vorpal.blade.services.tpcc.CorsFilter--><a href="CorsFilter.html" target="_top" title="CorsFilter.html" xlink:actuate="onRequest" xlink:href="CorsFilter.html" xlink:show="new" xlink:title="CorsFilter.html" xlink:type="simple"><g id="elem_org.vorpal.blade.services.tpcc.CorsFilter"><rect codeLine="5" fill="#F1F1F1" height="95.7305" id="org.vorpal.blade.services.tpcc.CorsFilter" rx="2.5" ry="2.5" style="stroke:#181818;stroke-width:0.5;" width="480" x="116.5" y="129.75"/><ellipse cx="280.25" cy="148.8828" fill="#ADD1B2" rx="11" ry="11" style="stroke:#181818;stroke-width:1.0;"/><path d="M282.7231,155.0259 Q282.1421,155.3247 281.5029,155.4741 Q280.8638,155.6235 280.1582,155.6235 Q277.6514,155.6235 276.3315,153.9717 Q275.0117,152.3198 275.0117,149.1987 Q275.0117,146.0693 276.3315,144.4175 Q277.6514,142.7656 280.1582,142.7656 Q280.8638,142.7656 281.5112,142.915 Q282.1587,143.0645 282.7231,143.3633 L282.7231,146.0859 Q282.0923,145.5049 281.4988,145.2351 Q280.9053,144.9653 280.2744,144.9653 Q278.9297,144.9653 278.2449,146.032 Q277.5601,147.0986 277.5601,149.1987 Q277.5601,151.2905 278.2449,152.3572 Q278.9297,153.4238 280.2744,153.4238 Q280.9053,153.4238 281.4988,153.1541 Q282.0923,152.8843 282.7231,152.3032 Z " fill="#000000"/><text fill="#000000" font-family="sans-serif" font-size="14" lengthAdjust="spacing" textLength="67" x="339.25" y="148.2852">CorsFilter</text><text fill="#000000" font-family="sans-serif" font-size="10" lengthAdjust="spacing" textLength="144" x="300.75" y="160.9062">org.vorpal.blade.services.tpcc</text><line style="stroke:#181818;stroke-width:0.5;" x1="117.5" x2="595.5" y1="168.0156" y2="168.0156"/><ellipse cx="127.5" cy="181.7598" fill="#84BE84" rx="3" ry="3" style="stroke:#038048;stroke-width:1.0;"/><text fill="#000000" font-family="sans-serif" font-size="14" lengthAdjust="spacing" textLength="257" x="136.5" y="185.5508">filter(ContainerRequestContext): void</text><rect fill="#F24D5C" height="6" style="stroke:#C82930;stroke-width:1.0;" width="6" x="124.5" y="195.248"/><text fill="#000000" font-family="sans-serif" font-size="14" lengthAdjust="spacing" text-decoration="underline" textLength="376" x="136.5" y="202.0391">isPreflightRequest(ContainerRequestContext): boolean</text><ellipse cx="127.5" cy="214.7363" fill="#84BE84" rx="3" ry="3" style="stroke:#038048;stroke-width:1.0;"/><text fill="#000000" font-family="sans-serif" font-size="14" lengthAdjust="spacing" textLength="454" x="136.5" y="218.5273">filter(ContainerRequestContext, ContainerResponseContext): void</text></g></a><!--class javax.ws.rs.container.ContainerRequestFilter--><a href="https://javaee.github.io/javaee-spec/javadocs/javax/ws/rs/container/ContainerRequestFilter.html?is-external=true" target="_top" title="https://javaee.github.io/javaee-spec/javadocs/javax/ws/rs/container/ContainerRequestFilter.html?is-external=true" xlink:actuate="onRequest" xlink:href="https://javaee.github.io/javaee-spec/javadocs/javax/ws/rs/container/ContainerRequestFilter.html?is-external=true" xlink:show="new" xlink:title="https://javaee.github.io/javaee-spec/javadocs/javax/ws/rs/container/ContainerRequestFilter.html?is-external=true" xlink:type="simple"><g id="elem_javax.ws.rs.container.ContainerRequestFilter"><rect codeLine="11" fill="#F1F1F1" height="62.7539" id="javax.ws.rs.container.ContainerRequestFilter" rx="2.5" ry="2.5" style="stroke:#181818;stroke-width:0.5;" width="283" x="7" y="7"/><ellipse cx="65.25" cy="26.1328" fill="#B4A7E5" rx="11" ry="11" style="stroke:#181818;stroke-width:1.0;"/><path d="M61.6777,22.3979 L61.6777,20.2397 L69.0571,20.2397 L69.0571,22.3979 L66.5918,22.3979 L66.5918,30.4746 L69.0571,30.4746 L69.0571,32.6328 L61.6777,32.6328 L61.6777,30.4746 L64.1431,30.4746 L64.1431,22.3979 Z " fill="#000000"/><text fill="#000000" font-family="sans-serif" font-size="14" font-style="italic" lengthAdjust="spacing" textLength="158" x="85.75" y="25.5352">ContainerRequestFilter</text><text fill="#000000" font-family="sans-serif" font-size="10" font-style="italic" lengthAdjust="spacing" textLength="103" x="113.25" y="38.1563">javax.ws.rs.container</text><line style="stroke:#181818;stroke-width:0.5;" x1="8" x2="289" y1="45.2656" y2="45.2656"/><ellipse cx="18" cy="59.0098" fill="#84BE84" rx="3" ry="3" style="stroke:#038048;stroke-width:1.0;"/><text fill="#000000" font-family="sans-serif" font-size="14" font-style="italic" lengthAdjust="spacing" textLength="257" x="27" y="62.8008">filter(ContainerRequestContext): void</text></g></a><!--class javax.ws.rs.container.ContainerResponseFilter--><a href="https://javaee.github.io/javaee-spec/javadocs/javax/ws/rs/container/ContainerResponseFilter.html?is-external=true" target="_top" title="https://javaee.github.io/javaee-spec/javadocs/javax/ws/rs/container/ContainerResponseFilter.html?is-external=true" xlink:actuate="onRequest" xlink:href="https://javaee.github.io/javaee-spec/javadocs/javax/ws/rs/container/ContainerResponseFilter.html?is-external=true" xlink:show="new" xlink:title="https://javaee.github.io/javaee-spec/javadocs/javax/ws/rs/container/ContainerResponseFilter.html?is-external=true" xlink:type="simple"><g id="elem_javax.ws.rs.container.ContainerResponseFilter"><rect codeLine="14" fill="#F1F1F1" height="62.7539" id="javax.ws.rs.container.ContainerResponseFilter" rx="2.5" ry="2.5" style="stroke:#181818;stroke-width:0.5;" width="480" x="325.5" y="7"/><ellipse cx="476.75" cy="26.1328" fill="#B4A7E5" rx="11" ry="11" style="stroke:#181818;stroke-width:1.0;"/><path d="M473.1777,22.3979 L473.1777,20.2397 L480.5571,20.2397 L480.5571,22.3979 L478.0918,22.3979 L478.0918,30.4746 L480.5571,30.4746 L480.5571,32.6328 L473.1777,32.6328 L473.1777,30.4746 L475.6431,30.4746 L475.6431,22.3979 Z " fill="#000000"/><text fill="#000000" font-family="sans-serif" font-size="14" font-style="italic" lengthAdjust="spacing" textLength="169" x="497.25" y="25.5352">ContainerResponseFilter</text><text fill="#000000" font-family="sans-serif" font-size="10" font-style="italic" lengthAdjust="spacing" textLength="103" x="530.25" y="38.1563">javax.ws.rs.container</text><line style="stroke:#181818;stroke-width:0.5;" x1="326.5" x2="804.5" y1="45.2656" y2="45.2656"/><ellipse cx="336.5" cy="59.0098" fill="#84BE84" rx="3" ry="3" style="stroke:#038048;stroke-width:1.0;"/><text fill="#000000" font-family="sans-serif" font-size="14" font-style="italic" lengthAdjust="spacing" textLength="454" x="345.5" y="62.8008">filter(ContainerRequestContext, ContainerResponseContext): void</text></g></a><!--reverse link javax.ws.rs.container.ContainerRequestFilter to org.vorpal.blade.services.tpcc.CorsFilter--><g id="link_javax.ws.rs.container.ContainerRequestFilter_org.vorpal.blade.services.tpcc.CorsFilter"><path codeLine="18" d="M210.203,80.0851 C236.673,97.5551 255.33,109.86 285.05,129.47 " fill="none" id="javax.ws.rs.container.ContainerRequestFilter-backto-org.vorpal.blade.services.tpcc.CorsFilter" style="stroke:#181818;stroke-width:1.0;stroke-dasharray:7.0,7.0;"/><polygon fill="none" points="195.18,70.17,206.898,85.0928,213.508,75.0774,195.18,70.17" style="stroke:#181818;stroke-width:1.0;"/></g><!--reverse link javax.ws.rs.container.ContainerResponseFilter to org.vorpal.blade.services.tpcc.CorsFilter--><g id="link_javax.ws.rs.container.ContainerResponseFilter_org.vorpal.blade.services.tpcc.CorsFilter"><path codeLine="19" d="M503.5547,80.0513 C476.9547,97.5213 458.16,109.86 428.29,129.47 " fill="none" id="javax.ws.rs.container.ContainerResponseFilter-backto-org.vorpal.blade.services.tpcc.CorsFilter" style="stroke:#181818;stroke-width:1.0;stroke-dasharray:7.0,7.0;"/><polygon fill="none" points="518.6,70.17,500.261,75.0362,506.8485,85.0663,518.6,70.17" style="stroke:#181818;stroke-width:1.0;"/></g><text fill="#888888" font-family="sans-serif" font-size="10" lengthAdjust="spacing" textLength="176" x="311.25" y="241.1484">UMLDoclet 2.1.2, PlantUML 1.2024.3</text><!--SRC=[hPHDJyCm38Rl_0eB2Ga4IndYDF5n07422O4u0GSlTTUWB2wnrmt6_Zjj6R31X3QqNfgyTjwaZvq200Wf1EoJ56ZfbWgCg1mXSA2DAWovImceN-WBP8vyAZ_LFcdEbTpergC8R1w9UwLE-_3aZADSEAyK7y9Kt3_Xs3CbnmAzwNfCoGZ5qbaIeuMrcu02VwUORrkul_-Uc5px_l4HnirPwcStQmBRPnmKNQ1uGyy34gtdDDAT3fJiqg_qiIYginDeERcEb7dNotMwv0-FBhCd3ClkkWSp0Iau22qup-I3gAi2CQjgCqTrtlSNuISiSMI6Og8O-vdSW5qOCOiDAxQvQY6T9AcN4PcUqtpGDOwdGaiAiiquPIlDO9GC9OcIV9adYysRMfqwQLMVJJ6WFzOueBdYZR4h6j7gP9KwJfR1za5zdTnc7TSFRjPzhUHMwiMLckVepPZbx_5o_dEG_x61fRej86EkNtTNb-TiVVK3F31jSx07rnw3LYfibHJ5STZUUGS0]--></g></svg>