<?xml version="1.0" encoding="us-ascii" standalone="no"?><svg xmlns="http://www.w3.org/2000/svg" xmlns:xlink="http://www.w3.org/1999/xlink" contentStyleType="text/css" height="889px" preserveAspectRatio="none" style="width:2367px;height:889px;background:#FFFFFF;" version="1.1" viewBox="0 0 2367 889" width="2367px" zoomAndPan="magnify"><defs/><g><!--cluster org.vorpal.blade.services.tpcc--><g id="cluster_org.vorpal.blade.services.tpcc"><path d="M801.5,343.34 L1009.5,343.34 A3.75,3.75 0 0 1 1012,345.84 L1019,365.8283 L1934.5,365.8283 A2.5,2.5 0 0 1 1937,368.3283 L1937,861.12 A2.5,2.5 0 0 1 1934.5,863.62 L801.5,863.62 A2.5,2.5 0 0 1 799,861.12 L799,345.84 A2.5,2.5 0 0 1 801.5,343.34 " fill="none" style="stroke:#000000;stroke-width:1.5;"/><line style="stroke:#000000;stroke-width:1.5;" x1="799" x2="1019" y1="365.8283" y2="365.8283"/><text fill="#000000" font-family="sans-serif" font-size="14" font-weight="bold" lengthAdjust="spacing" textLength="207" x="803" y="358.8752">org.vorpal.blade.services.tpcc</text></g><!--cluster org.vorpal.blade.framework.b2bua--><g id="cluster_org.vorpal.blade.framework.b2bua"><path d="M8.5,55.46 L251.5,55.46 A3.75,3.75 0 0 1 254,57.96 L261,77.9483 L333.5,77.9483 A2.5,2.5 0 0 1 336,80.4483 L336,267.38 A2.5,2.5 0 0 1 333.5,269.88 L8.5,269.88 A2.5,2.5 0 0 1 6,267.38 L6,57.96 A2.5,2.5 0 0 1 8.5,55.46 " fill="none" style="stroke:#000000;stroke-width:1.5;"/><line style="stroke:#000000;stroke-width:1.5;" x1="6" x2="261" y1="77.9483" y2="77.9483"/><text fill="#000000" font-family="sans-serif" font-size="14" font-weight="bold" lengthAdjust="spacing" textLength="242" x="10" y="70.9952">org.vorpal.blade.framework.b2bua</text></g><!--cluster javax.servlet.sip--><g id="cluster_javax.servlet.sip"><path d="M362.5,80.19 L477.5,80.19 A3.75,3.75 0 0 1 480,82.69 L487,102.6783 L1219.5,102.6783 A2.5,2.5 0 0 1 1222,105.1783 L1222,242.65 A2.5,2.5 0 0 1 1219.5,245.15 L362.5,245.15 A2.5,2.5 0 0 1 360,242.65 L360,82.69 A2.5,2.5 0 0 1 362.5,80.19 " fill="none" style="stroke:#000000;stroke-width:1.5;"/><line style="stroke:#000000;stroke-width:1.5;" x1="360" x2="487" y1="102.6783" y2="102.6783"/><text fill="#000000" font-family="sans-serif" font-size="14" font-weight="bold" lengthAdjust="spacing" textLength="114" x="364" y="95.7252">javax.servlet.sip</text></g><!--cluster org.vorpal.blade.framework.config--><g id="cluster_org.vorpal.blade.framework.config"><path d="M1248.5,6 L1492.5,6 A3.75,3.75 0 0 1 1495,8.5 L1502,28.4883 L1502.5,28.4883 A2.5,2.5 0 0 1 1505,30.9883 L1505,316.84 A2.5,2.5 0 0 1 1502.5,319.34 L1248.5,319.34 A2.5,2.5 0 0 1 1246,316.84 L1246,8.5 A2.5,2.5 0 0 1 1248.5,6 " fill="none" style="stroke:#000000;stroke-width:1.5;"/><line style="stroke:#000000;stroke-width:1.5;" x1="1246" x2="1502" y1="28.4883" y2="28.4883"/><text fill="#000000" font-family="sans-serif" font-size="14" font-weight="bold" lengthAdjust="spacing" textLength="243" x="1250" y="21.5352">org.vorpal.blade.framework.config</text></g><!--cluster javax.ws.rs.container--><g id="cluster_javax.ws.rs.container"><path d="M1531.5,104.92 L1679.5,104.92 A3.75,3.75 0 0 1 1682,107.42 L1689,127.4083 L2357.5,127.4083 A2.5,2.5 0 0 1 2360,129.9083 L2360,217.91 A2.5,2.5 0 0 1 2357.5,220.41 L1531.5,220.41 A2.5,2.5 0 0 1 1529,217.91 L1529,107.42 A2.5,2.5 0 0 1 1531.5,104.92 " fill="none" style="stroke:#000000;stroke-width:1.5;"/><line style="stroke:#000000;stroke-width:1.5;" x1="1529" x2="1689" y1="127.4083" y2="127.4083"/><text fill="#000000" font-family="sans-serif" font-size="14" font-weight="bold" lengthAdjust="spacing" textLength="147" x="1533" y="120.4552">javax.ws.rs.container</text></g><!--class TpccServlet--><a href="TpccServlet.html" target="_top" title="TpccServlet.html" xlink:actuate="onRequest" xlink:href="TpccServlet.html" xlink:show="new" xlink:title="TpccServlet.html" xlink:type="simple"><g id="elem_TpccServlet"><rect codeLine="5" fill="#F1F1F1" height="344.7891" id="TpccServlet" rx="2.5" ry="2.5" style="stroke:#181818;stroke-width:0.5;" width="437" x="814.5" y="378.34"/><ellipse cx="989.75" cy="394.34" fill="#ADD1B2" rx="11" ry="11" style="stroke:#181818;stroke-width:1.0;"/><path d="M992.2231,400.4831 Q991.6421,400.7819 991.0029,400.9313 Q990.3638,401.0807 989.6582,401.0807 Q987.1514,401.0807 985.8315,399.4289 Q984.5117,397.777 984.5117,394.6559 Q984.5117,391.5265 985.8315,389.8747 Q987.1514,388.2228 989.6582,388.2228 Q990.3638,388.2228 991.0112,388.3722 Q991.6587,388.5216 992.2231,388.8205 L992.2231,391.5431 Q991.5923,390.9621 990.9988,390.6923 Q990.4053,390.4225 989.7744,390.4225 Q988.4297,390.4225 987.7449,391.4892 Q987.0601,392.5558 987.0601,394.6559 Q987.0601,396.7477 987.7449,397.8144 Q988.4297,398.881 989.7744,398.881 Q990.4053,398.881 990.9988,398.6112 Q991.5923,398.3415 992.2231,397.7604 Z " fill="#000000"/><text fill="#000000" font-family="sans-serif" font-size="14" lengthAdjust="spacing" textLength="78" x="1010.25" y="399.631">TpccServlet</text><line style="stroke:#181818;stroke-width:0.5;" x1="815.5" x2="1250.5" y1="410.34" y2="410.34"/><rect fill="none" height="6" style="stroke:#C82930;stroke-width:1.0;" width="6" x="822.5" y="421.0841"/><text fill="#000000" font-family="sans-serif" font-size="14" lengthAdjust="spacing" text-decoration="underline" textLength="152" x="834.5" y="427.8752">serialVersionUID: long</text><ellipse cx="825.5" cy="440.5724" fill="none" rx="3" ry="3" style="stroke:#038048;stroke-width:1.0;"/><text fill="#000000" font-family="sans-serif" font-size="14" lengthAdjust="spacing" text-decoration="underline" textLength="346" x="834.5" y="444.3634">settingsManager: SettingsManager&lt;TpccSettings&gt;</text><ellipse cx="825.5" cy="457.0607" fill="none" rx="3" ry="3" style="stroke:#038048;stroke-width:1.0;"/><text fill="#000000" font-family="sans-serif" font-size="14" lengthAdjust="spacing" text-decoration="underline" textLength="306" x="834.5" y="460.8517">responseMap: Map&lt;String, AsyncResponse&gt;</text><line style="stroke:#181818;stroke-width:0.5;" x1="815.5" x2="1250.5" y1="467.8048" y2="467.8048"/><polygon fill="#FFFF44" points="825.5,476.549,829.5,480.549,825.5,484.549,821.5,480.549" style="stroke:#B38D22;stroke-width:1.0;"/><text fill="#000000" font-family="sans-serif" font-size="14" lengthAdjust="spacing" textLength="305" x="834.5" y="485.34">servletCreated(SipServletContextEvent): void</text><polygon fill="#FFFF44" points="825.5,493.0373,829.5,497.0373,825.5,501.0373,821.5,497.0373" style="stroke:#B38D22;stroke-width:1.0;"/><text fill="#000000" font-family="sans-serif" font-size="14" lengthAdjust="spacing" textLength="320" x="834.5" y="501.8283">servletDestroyed(SipServletContextEvent): void</text><ellipse cx="825.5" cy="514.5255" fill="#84BE84" rx="3" ry="3" style="stroke:#038048;stroke-width:1.0;"/><text fill="#000000" font-family="sans-serif" font-size="14" lengthAdjust="spacing" textLength="241" x="834.5" y="518.3166">callStarted(SipServletRequest): void</text><ellipse cx="825.5" cy="531.0138" fill="#84BE84" rx="3" ry="3" style="stroke:#038048;stroke-width:1.0;"/><text fill="#000000" font-family="sans-serif" font-size="14" lengthAdjust="spacing" textLength="271" x="834.5" y="534.8048">callAnswered(SipServletResponse): void</text><ellipse cx="825.5" cy="547.5021" fill="#84BE84" rx="3" ry="3" style="stroke:#038048;stroke-width:1.0;"/><text fill="#000000" font-family="sans-serif" font-size="14" lengthAdjust="spacing" textLength="266" x="834.5" y="551.2931">callConnected(SipServletRequest): void</text><ellipse cx="825.5" cy="563.9904" fill="#84BE84" rx="3" ry="3" style="stroke:#038048;stroke-width:1.0;"/><text fill="#000000" font-family="sans-serif" font-size="14" lengthAdjust="spacing" textLength="267" x="834.5" y="567.7814">callCompleted(SipServletRequest): void</text><ellipse cx="825.5" cy="580.4787" fill="#84BE84" rx="3" ry="3" style="stroke:#038048;stroke-width:1.0;"/><text fill="#000000" font-family="sans-serif" font-size="14" lengthAdjust="spacing" textLength="262" x="834.5" y="584.2697">callDeclined(SipServletResponse): void</text><ellipse cx="825.5" cy="596.967" fill="#84BE84" rx="3" ry="3" style="stroke:#038048;stroke-width:1.0;"/><text fill="#000000" font-family="sans-serif" font-size="14" lengthAdjust="spacing" textLength="272" x="834.5" y="600.758">callAbandoned(SipServletRequest): void</text><ellipse cx="825.5" cy="613.4552" fill="#84BE84" rx="3" ry="3" style="stroke:#038048;stroke-width:1.0;"/><text fill="#000000" font-family="sans-serif" font-size="14" lengthAdjust="spacing" textLength="340" x="834.5" y="617.2463">sessionCreated(SipApplicationSessionEvent): void</text><ellipse cx="825.5" cy="629.9435" fill="#84BE84" rx="3" ry="3" style="stroke:#038048;stroke-width:1.0;"/><text fill="#000000" font-family="sans-serif" font-size="14" lengthAdjust="spacing" textLength="355" x="834.5" y="633.7345">sessionDestroyed(SipApplicationSessionEvent): void</text><ellipse cx="825.5" cy="646.4318" fill="#84BE84" rx="3" ry="3" style="stroke:#038048;stroke-width:1.0;"/><text fill="#000000" font-family="sans-serif" font-size="14" lengthAdjust="spacing" textLength="339" x="834.5" y="650.2228">sessionExpired(SipApplicationSessionEvent): void</text><ellipse cx="825.5" cy="662.9201" fill="#84BE84" rx="3" ry="3" style="stroke:#038048;stroke-width:1.0;"/><text fill="#000000" font-family="sans-serif" font-size="14" lengthAdjust="spacing" textLength="411" x="834.5" y="666.7111">sessionReadyToInvalidate(SipApplicationSessionEvent): void</text><ellipse cx="825.5" cy="679.4084" fill="#84BE84" rx="3" ry="3" style="stroke:#038048;stroke-width:1.0;"/><text fill="#000000" font-family="sans-serif" font-size="14" lengthAdjust="spacing" textLength="262" x="834.5" y="683.1994">sessionCreated(SipSessionEvent): void</text><ellipse cx="825.5" cy="695.8966" fill="#84BE84" rx="3" ry="3" style="stroke:#038048;stroke-width:1.0;"/><text fill="#000000" font-family="sans-serif" font-size="14" lengthAdjust="spacing" textLength="277" x="834.5" y="699.6877">sessionDestroyed(SipSessionEvent): void</text><ellipse cx="825.5" cy="712.3849" fill="#84BE84" rx="3" ry="3" style="stroke:#038048;stroke-width:1.0;"/><text fill="#000000" font-family="sans-serif" font-size="14" lengthAdjust="spacing" textLength="333" x="834.5" y="716.1759">sessionReadyToInvalidate(SipSessionEvent): void</text></g></a><!--class TpccSettingsSample--><a href="TpccSettingsSample.html" target="_top" title="TpccSettingsSample.html" xlink:actuate="onRequest" xlink:href="TpccSettingsSample.html" xlink:show="new" xlink:title="TpccSettingsSample.html" xlink:type="simple"><g id="elem_TpccSettingsSample"><rect codeLine="26" fill="#F1F1F1" height="64.4883" id="TpccSettingsSample" rx="2.5" ry="2.5" style="stroke:#181818;stroke-width:0.5;" width="178" x="1257" y="783.13"/><ellipse cx="1276.05" cy="799.13" fill="#ADD1B2" rx="11" ry="11" style="stroke:#181818;stroke-width:1.0;"/><path d="M1278.5231,805.2731 Q1277.9421,805.5719 1277.3029,805.7213 Q1276.6638,805.8707 1275.9582,805.8707 Q1273.4514,805.8707 1272.1315,804.2189 Q1270.8117,802.567 1270.8117,799.4459 Q1270.8117,796.3165 1272.1315,794.6647 Q1273.4514,793.0128 1275.9582,793.0128 Q1276.6638,793.0128 1277.3112,793.1622 Q1277.9587,793.3116 1278.5231,793.6105 L1278.5231,796.3331 Q1277.8923,795.7521 1277.2988,795.4823 Q1276.7053,795.2125 1276.0744,795.2125 Q1274.7297,795.2125 1274.0449,796.2792 Q1273.3601,797.3458 1273.3601,799.4459 Q1273.3601,801.5377 1274.0449,802.6044 Q1274.7297,803.671 1276.0744,803.671 Q1276.7053,803.671 1277.2988,803.4012 Q1277.8923,803.1315 1278.5231,802.5504 Z " fill="#000000"/><text fill="#000000" font-family="sans-serif" font-size="14" lengthAdjust="spacing" textLength="137" x="1290.95" y="804.421">TpccSettingsSample</text><line style="stroke:#181818;stroke-width:0.5;" x1="1258" x2="1434" y1="815.13" y2="815.13"/><rect fill="none" height="6" style="stroke:#C82930;stroke-width:1.0;" width="6" x="1265" y="825.8741"/><text fill="#000000" font-family="sans-serif" font-size="14" lengthAdjust="spacing" text-decoration="underline" textLength="152" x="1277" y="832.6652">serialVersionUID: long</text><line style="stroke:#181818;stroke-width:0.5;" x1="1258" x2="1434" y1="839.6183" y2="839.6183"/></g></a><!--class TpccSettings--><a href="TpccSettings.html" target="_top" title="TpccSettings.html" xlink:actuate="onRequest" xlink:href="TpccSettings.html" xlink:show="new" xlink:title="TpccSettings.html" xlink:type="simple"><g id="elem_TpccSettings"><rect codeLine="30" fill="#F1F1F1" height="48" id="TpccSettings" rx="2.5" ry="2.5" style="stroke:#181818;stroke-width:0.5;" width="119" x="1286.5" y="526.74"/><ellipse cx="1301.5" cy="542.74" fill="#ADD1B2" rx="11" ry="11" style="stroke:#181818;stroke-width:1.0;"/><path d="M1303.9731,548.8831 Q1303.3921,549.1819 1302.7529,549.3313 Q1302.1138,549.4807 1301.4082,549.4807 Q1298.9014,549.4807 1297.5815,547.8289 Q1296.2617,546.177 1296.2617,543.0559 Q1296.2617,539.9265 1297.5815,538.2747 Q1298.9014,536.6228 1301.4082,536.6228 Q1302.1138,536.6228 1302.7612,536.7722 Q1303.4087,536.9216 1303.9731,537.2205 L1303.9731,539.9431 Q1303.3423,539.3621 1302.7488,539.0923 Q1302.1553,538.8225 1301.5244,538.8225 Q1300.1797,538.8225 1299.4949,539.8892 Q1298.8101,540.9558 1298.8101,543.0559 Q1298.8101,545.1477 1299.4949,546.2144 Q1300.1797,547.281 1301.5244,547.281 Q1302.1553,547.281 1302.7488,547.0112 Q1303.3423,546.7415 1303.9731,546.1604 Z " fill="#000000"/><text fill="#000000" font-family="sans-serif" font-size="14" lengthAdjust="spacing" textLength="87" x="1315.5" y="548.031">TpccSettings</text><line style="stroke:#181818;stroke-width:0.5;" x1="1287.5" x2="1404.5" y1="558.74" y2="558.74"/><line style="stroke:#181818;stroke-width:0.5;" x1="1287.5" x2="1404.5" y1="566.74" y2="566.74"/></g></a><!--class CorsFilter--><a href="CorsFilter.html" target="_top" title="CorsFilter.html" xlink:actuate="onRequest" xlink:href="CorsFilter.html" xlink:show="new" xlink:title="CorsFilter.html" xlink:type="simple"><g id="elem_CorsFilter"><rect codeLine="32" fill="#F1F1F1" height="97.4648" id="CorsFilter" rx="2.5" ry="2.5" style="stroke:#181818;stroke-width:0.5;" width="480" x="1441" y="502"/><ellipse cx="1643.25" cy="518" fill="#ADD1B2" rx="11" ry="11" style="stroke:#181818;stroke-width:1.0;"/><path d="M1645.7231,524.1431 Q1645.1421,524.4419 1644.5029,524.5913 Q1643.8638,524.7407 1643.1582,524.7407 Q1640.6514,524.7407 1639.3315,523.0889 Q1638.0117,521.437 1638.0117,518.3159 Q1638.0117,515.1865 1639.3315,513.5347 Q1640.6514,511.8828 1643.1582,511.8828 Q1643.8638,511.8828 1644.5112,512.0322 Q1645.1587,512.1816 1645.7231,512.4805 L1645.7231,515.2031 Q1645.0923,514.6221 1644.4988,514.3523 Q1643.9053,514.0825 1643.2744,514.0825 Q1641.9297,514.0825 1641.2449,515.1492 Q1640.5601,516.2158 1640.5601,518.3159 Q1640.5601,520.4077 1641.2449,521.4744 Q1641.9297,522.541 1643.2744,522.541 Q1643.9053,522.541 1644.4988,522.2712 Q1645.0923,522.0015 1645.7231,521.4204 Z " fill="#000000"/><text fill="#000000" font-family="sans-serif" font-size="14" lengthAdjust="spacing" textLength="67" x="1663.75" y="523.291">CorsFilter</text><line style="stroke:#181818;stroke-width:0.5;" x1="1442" x2="1920" y1="534" y2="534"/><line style="stroke:#181818;stroke-width:0.5;" x1="1442" x2="1920" y1="542" y2="542"/><ellipse cx="1452" cy="555.7441" fill="#84BE84" rx="3" ry="3" style="stroke:#038048;stroke-width:1.0;"/><text fill="#000000" font-family="sans-serif" font-size="14" lengthAdjust="spacing" textLength="257" x="1461" y="559.5352">filter(ContainerRequestContext): void</text><rect fill="#F24D5C" height="6" style="stroke:#C82930;stroke-width:1.0;" width="6" x="1449" y="569.2324"/><text fill="#000000" font-family="sans-serif" font-size="14" lengthAdjust="spacing" text-decoration="underline" textLength="376" x="1461" y="576.0234">isPreflightRequest(ContainerRequestContext): boolean</text><ellipse cx="1452" cy="588.7207" fill="#84BE84" rx="3" ry="3" style="stroke:#038048;stroke-width:1.0;"/><text fill="#000000" font-family="sans-serif" font-size="14" lengthAdjust="spacing" textLength="454" x="1461" y="592.5117">filter(ContainerRequestContext, ContainerResponseContext): void</text></g></a><!--class B2buaServlet--><g id="elem_B2buaServlet"><rect codeLine="41" fill="#F1F1F1" height="163.418" id="B2buaServlet" rx="2.5" ry="2.5" style="stroke:#181818;stroke-width:0.5;" width="298" x="22" y="90.46"/><ellipse cx="122.25" cy="106.46" fill="#A9DCDF" rx="11" ry="11" style="stroke:#181818;stroke-width:1.0;"/><path d="M122.1133,101.8081 L120.9595,106.8799 L123.2754,106.8799 Z M120.6191,99.5669 L123.6157,99.5669 L126.9609,111.96 L124.5122,111.96 L123.7485,108.897 L120.4697,108.897 L119.7227,111.96 L117.2739,111.96 Z " fill="#000000"/><text fill="#000000" font-family="sans-serif" font-size="14" font-style="italic" lengthAdjust="spacing" textLength="89" x="142.75" y="111.751">B2buaServlet</text><line style="stroke:#181818;stroke-width:0.5;" x1="23" x2="319" y1="122.46" y2="122.46"/><rect fill="none" height="6" style="stroke:#C82930;stroke-width:1.0;" width="6" x="30" y="133.2041"/><text fill="#000000" font-family="sans-serif" font-size="14" lengthAdjust="spacing" text-decoration="underline" textLength="152" x="42" y="139.9952">serialVersionUID: long</text><line style="stroke:#181818;stroke-width:0.5;" x1="23" x2="319" y1="146.9483" y2="146.9483"/><ellipse cx="33" cy="160.6924" fill="#84BE84" rx="3" ry="3" style="stroke:#038048;stroke-width:1.0;"/><text fill="#000000" font-family="sans-serif" font-size="14" font-style="italic" lengthAdjust="spacing" textLength="241" x="42" y="164.4834">callStarted(SipServletRequest): void</text><ellipse cx="33" cy="177.1807" fill="#84BE84" rx="3" ry="3" style="stroke:#038048;stroke-width:1.0;"/><text fill="#000000" font-family="sans-serif" font-size="14" font-style="italic" lengthAdjust="spacing" textLength="271" x="42" y="180.9717">callAnswered(SipServletResponse): void</text><ellipse cx="33" cy="193.669" fill="#84BE84" rx="3" ry="3" style="stroke:#038048;stroke-width:1.0;"/><text fill="#000000" font-family="sans-serif" font-size="14" font-style="italic" lengthAdjust="spacing" textLength="266" x="42" y="197.46">callConnected(SipServletRequest): void</text><ellipse cx="33" cy="210.1573" fill="#84BE84" rx="3" ry="3" style="stroke:#038048;stroke-width:1.0;"/><text fill="#000000" font-family="sans-serif" font-size="14" font-style="italic" lengthAdjust="spacing" textLength="267" x="42" y="213.9483">callCompleted(SipServletRequest): void</text><ellipse cx="33" cy="226.6455" fill="#84BE84" rx="3" ry="3" style="stroke:#038048;stroke-width:1.0;"/><text fill="#000000" font-family="sans-serif" font-size="14" font-style="italic" lengthAdjust="spacing" textLength="262" x="42" y="230.4366">callDeclined(SipServletResponse): void</text><ellipse cx="33" cy="243.1338" fill="#84BE84" rx="3" ry="3" style="stroke:#038048;stroke-width:1.0;"/><text fill="#000000" font-family="sans-serif" font-size="14" font-style="italic" lengthAdjust="spacing" textLength="272" x="42" y="246.9248">callAbandoned(SipServletRequest): void</text></g><!--class SipApplicationSessionListener--><a href="https://vorpalnet.github.io/jsr359/javax/servlet/sip/SipApplicationSessionListener.html?is-external=true" target="_top" title="https://vorpalnet.github.io/jsr359/javax/servlet/sip/SipApplicationSessionListener.html?is-external=true" xlink:actuate="onRequest" xlink:href="https://vorpalnet.github.io/jsr359/javax/servlet/sip/SipApplicationSessionListener.html?is-external=true" xlink:show="new" xlink:title="https://vorpalnet.github.io/jsr359/javax/servlet/sip/SipApplicationSessionListener.html?is-external=true" xlink:type="simple"><g id="elem_SipApplicationSessionListener"><rect codeLine="53" fill="#F1F1F1" height="113.9531" id="SipApplicationSessionListener" rx="2.5" ry="2.5" style="stroke:#181818;stroke-width:0.5;" width="437" x="375.5" y="115.19"/><ellipse cx="487.25" cy="131.19" fill="#B4A7E5" rx="11" ry="11" style="stroke:#181818;stroke-width:1.0;"/><path d="M483.6777,127.4551 L483.6777,125.2969 L491.0571,125.2969 L491.0571,127.4551 L488.5918,127.4551 L488.5918,135.5318 L491.0571,135.5318 L491.0571,137.69 L483.6777,137.69 L483.6777,135.5318 L486.1431,135.5318 L486.1431,127.4551 Z " fill="#000000"/><text fill="#000000" font-family="sans-serif" font-size="14" font-style="italic" lengthAdjust="spacing" textLength="205" x="507.75" y="136.481">SipApplicationSessionListener</text><line style="stroke:#181818;stroke-width:0.5;" x1="376.5" x2="811.5" y1="147.19" y2="147.19"/><line style="stroke:#181818;stroke-width:0.5;" x1="376.5" x2="811.5" y1="155.19" y2="155.19"/><ellipse cx="386.5" cy="168.9341" fill="#84BE84" rx="3" ry="3" style="stroke:#038048;stroke-width:1.0;"/><text fill="#000000" font-family="sans-serif" font-size="14" font-style="italic" lengthAdjust="spacing" textLength="340" x="395.5" y="172.7252">sessionCreated(SipApplicationSessionEvent): void</text><ellipse cx="386.5" cy="185.4224" fill="#84BE84" rx="3" ry="3" style="stroke:#038048;stroke-width:1.0;"/><text fill="#000000" font-family="sans-serif" font-size="14" font-style="italic" lengthAdjust="spacing" textLength="355" x="395.5" y="189.2134">sessionDestroyed(SipApplicationSessionEvent): void</text><ellipse cx="386.5" cy="201.9107" fill="#84BE84" rx="3" ry="3" style="stroke:#038048;stroke-width:1.0;"/><text fill="#000000" font-family="sans-serif" font-size="14" font-style="italic" lengthAdjust="spacing" textLength="339" x="395.5" y="205.7017">sessionExpired(SipApplicationSessionEvent): void</text><ellipse cx="386.5" cy="218.399" fill="#84BE84" rx="3" ry="3" style="stroke:#038048;stroke-width:1.0;"/><text fill="#000000" font-family="sans-serif" font-size="14" font-style="italic" lengthAdjust="spacing" textLength="411" x="395.5" y="222.19">sessionReadyToInvalidate(SipApplicationSessionEvent): void</text></g></a><!--class SipSessionListener--><a href="https://vorpalnet.github.io/jsr359/javax/servlet/sip/SipSessionListener.html?is-external=true" target="_top" title="https://vorpalnet.github.io/jsr359/javax/servlet/sip/SipSessionListener.html?is-external=true" xlink:actuate="onRequest" xlink:href="https://vorpalnet.github.io/jsr359/javax/servlet/sip/SipSessionListener.html?is-external=true" xlink:show="new" xlink:title="https://vorpalnet.github.io/jsr359/javax/servlet/sip/SipSessionListener.html?is-external=true" xlink:type="simple"><g id="elem_SipSessionListener"><rect codeLine="59" fill="#F1F1F1" height="97.4648" id="SipSessionListener" rx="2.5" ry="2.5" style="stroke:#181818;stroke-width:0.5;" width="359" x="847.5" y="123.44"/><ellipse cx="959.25" cy="139.44" fill="#B4A7E5" rx="11" ry="11" style="stroke:#181818;stroke-width:1.0;"/><path d="M955.6777,135.7051 L955.6777,133.5469 L963.0571,133.5469 L963.0571,135.7051 L960.5918,135.7051 L960.5918,143.7818 L963.0571,143.7818 L963.0571,145.94 L955.6777,145.94 L955.6777,143.7818 L958.1431,143.7818 L958.1431,135.7051 Z " fill="#000000"/><text fill="#000000" font-family="sans-serif" font-size="14" font-style="italic" lengthAdjust="spacing" textLength="127" x="979.75" y="144.731">SipSessionListener</text><line style="stroke:#181818;stroke-width:0.5;" x1="848.5" x2="1205.5" y1="155.44" y2="155.44"/><line style="stroke:#181818;stroke-width:0.5;" x1="848.5" x2="1205.5" y1="163.44" y2="163.44"/><ellipse cx="858.5" cy="177.1841" fill="#84BE84" rx="3" ry="3" style="stroke:#038048;stroke-width:1.0;"/><text fill="#000000" font-family="sans-serif" font-size="14" font-style="italic" lengthAdjust="spacing" textLength="262" x="867.5" y="180.9752">sessionCreated(SipSessionEvent): void</text><ellipse cx="858.5" cy="193.6724" fill="#84BE84" rx="3" ry="3" style="stroke:#038048;stroke-width:1.0;"/><text fill="#000000" font-family="sans-serif" font-size="14" font-style="italic" lengthAdjust="spacing" textLength="277" x="867.5" y="197.4634">sessionDestroyed(SipSessionEvent): void</text><ellipse cx="858.5" cy="210.1607" fill="#84BE84" rx="3" ry="3" style="stroke:#038048;stroke-width:1.0;"/><text fill="#000000" font-family="sans-serif" font-size="14" font-style="italic" lengthAdjust="spacing" textLength="333" x="867.5" y="213.9517">sessionReadyToInvalidate(SipSessionEvent): void</text></g></a><!--class Configuration--><a href="https://vorpalnet.github.io/blade/vorpal-blade-library-framework/org/vorpal/blade/framework/config/Configuration.html?is-external=true" target="_top" title="https://vorpalnet.github.io/blade/vorpal-blade-library-framework/org/vorpal/blade/framework/config/Configuration.html?is-external=true" xlink:actuate="onRequest" xlink:href="https://vorpalnet.github.io/blade/vorpal-blade-library-framework/org/vorpal/blade/framework/config/Configuration.html?is-external=true" xlink:show="new" xlink:title="https://vorpalnet.github.io/blade/vorpal-blade-library-framework/org/vorpal/blade/framework/config/Configuration.html?is-external=true" xlink:type="simple"><g id="elem_Configuration"><rect codeLine="67" fill="#F1F1F1" height="262.3477" id="Configuration" rx="2.5" ry="2.5" style="stroke:#181818;stroke-width:0.5;" width="214" x="1262" y="41"/><ellipse cx="1316.75" cy="57" fill="#ADD1B2" rx="11" ry="11" style="stroke:#181818;stroke-width:1.0;"/><path d="M1319.2231,63.1431 Q1318.6421,63.4419 1318.0029,63.5913 Q1317.3638,63.7407 1316.6582,63.7407 Q1314.1514,63.7407 1312.8315,62.0889 Q1311.5117,60.437 1311.5117,57.3159 Q1311.5117,54.1865 1312.8315,52.5347 Q1314.1514,50.8828 1316.6582,50.8828 Q1317.3638,50.8828 1318.0112,51.0322 Q1318.6587,51.1816 1319.2231,51.4805 L1319.2231,54.2031 Q1318.5923,53.6221 1317.9988,53.3523 Q1317.4053,53.0825 1316.7744,53.0825 Q1315.4297,53.0825 1314.7449,54.1492 Q1314.0601,55.2158 1314.0601,57.3159 Q1314.0601,59.4077 1314.7449,60.4744 Q1315.4297,61.541 1316.7744,61.541 Q1317.4053,61.541 1317.9988,61.2712 Q1318.5923,61.0015 1319.2231,60.4204 Z " fill="#000000"/><text fill="#000000" font-family="sans-serif" font-size="14" lengthAdjust="spacing" textLength="96" x="1337.25" y="62.291">Configuration</text><line style="stroke:#181818;stroke-width:0.5;" x1="1263" x2="1475" y1="73" y2="73"/><rect fill="none" height="6" style="stroke:#C82930;stroke-width:1.0;" width="6" x="1270" y="83.7441"/><text fill="#000000" font-family="sans-serif" font-size="14" lengthAdjust="spacing" text-decoration="underline" textLength="152" x="1282" y="90.5352">serialVersionUID: long</text><polygon fill="none" points="1273,98.2324,1277,102.2324,1273,106.2324,1269,102.2324" style="stroke:#B38D22;stroke-width:1.0;"/><text fill="#000000" font-family="sans-serif" font-size="14" lengthAdjust="spacing" textLength="163" x="1282" y="107.0234">logging: LogParameters</text><polygon fill="none" points="1273,114.7207,1277,118.7207,1273,122.7207,1269,118.7207" style="stroke:#B38D22;stroke-width:1.0;"/><text fill="#000000" font-family="sans-serif" font-size="14" lengthAdjust="spacing" textLength="188" x="1282" y="123.5117">session: SessionParameters</text><rect fill="none" height="6" style="stroke:#C82930;stroke-width:1.0;" width="6" x="1270" y="133.209"/><text fill="#000000" font-family="sans-serif" font-size="14" lengthAdjust="spacing" text-decoration="underline" textLength="168" x="1282" y="140">SECONDS_FACTOR: long</text><rect fill="none" height="6" style="stroke:#C82930;stroke-width:1.0;" width="6" x="1270" y="149.6973"/><text fill="#000000" font-family="sans-serif" font-size="14" lengthAdjust="spacing" text-decoration="underline" textLength="164" x="1282" y="156.4883">MINUTES_FACTOR: long</text><rect fill="none" height="6" style="stroke:#C82930;stroke-width:1.0;" width="6" x="1270" y="166.1855"/><text fill="#000000" font-family="sans-serif" font-size="14" lengthAdjust="spacing" text-decoration="underline" textLength="151" x="1282" y="172.9766">HOURS_FACTOR: long</text><rect fill="none" height="6" style="stroke:#C82930;stroke-width:1.0;" width="6" x="1270" y="182.6738"/><text fill="#000000" font-family="sans-serif" font-size="14" lengthAdjust="spacing" text-decoration="underline" textLength="140" x="1282" y="189.4648">DAYS_FACTOR: long</text><rect fill="none" height="6" style="stroke:#C82930;stroke-width:1.0;" width="6" x="1270" y="199.1621"/><text fill="#000000" font-family="sans-serif" font-size="14" lengthAdjust="spacing" text-decoration="underline" textLength="120" x="1282" y="205.9531">KB_FACTOR: long</text><rect fill="none" height="6" style="stroke:#C82930;stroke-width:1.0;" width="6" x="1270" y="215.6504"/><text fill="#000000" font-family="sans-serif" font-size="14" lengthAdjust="spacing" text-decoration="underline" textLength="124" x="1282" y="222.4414">KIB_FACTOR: long</text><rect fill="none" height="6" style="stroke:#C82930;stroke-width:1.0;" width="6" x="1270" y="232.1387"/><text fill="#000000" font-family="sans-serif" font-size="14" lengthAdjust="spacing" text-decoration="underline" textLength="123" x="1282" y="238.9297">MB_FACTOR: long</text><rect fill="none" height="6" style="stroke:#C82930;stroke-width:1.0;" width="6" x="1270" y="248.627"/><text fill="#000000" font-family="sans-serif" font-size="14" lengthAdjust="spacing" text-decoration="underline" textLength="127" x="1282" y="255.418">MIB_FACTOR: long</text><rect fill="none" height="6" style="stroke:#C82930;stroke-width:1.0;" width="6" x="1270" y="265.1152"/><text fill="#000000" font-family="sans-serif" font-size="14" lengthAdjust="spacing" text-decoration="underline" textLength="121" x="1282" y="271.9063">GB_FACTOR: long</text><rect fill="none" height="6" style="stroke:#C82930;stroke-width:1.0;" width="6" x="1270" y="281.6035"/><text fill="#000000" font-family="sans-serif" font-size="14" lengthAdjust="spacing" text-decoration="underline" textLength="125" x="1282" y="288.3945">GIB_FACTOR: long</text><line style="stroke:#181818;stroke-width:0.5;" x1="1263" x2="1475" y1="295.3477" y2="295.3477"/></g></a><!--class ContainerRequestFilter--><a href="https://javaee.github.io/javaee-spec/javadocs/javax/ws/rs/container/ContainerRequestFilter.html?is-external=true" target="_top" title="https://javaee.github.io/javaee-spec/javadocs/javax/ws/rs/container/ContainerRequestFilter.html?is-external=true" xlink:actuate="onRequest" xlink:href="https://javaee.github.io/javaee-spec/javadocs/javax/ws/rs/container/ContainerRequestFilter.html?is-external=true" xlink:show="new" xlink:title="https://javaee.github.io/javaee-spec/javadocs/javax/ws/rs/container/ContainerRequestFilter.html?is-external=true" xlink:type="simple"><g id="elem_ContainerRequestFilter"><rect codeLine="85" fill="#F1F1F1" height="64.4883" id="ContainerRequestFilter" rx="2.5" ry="2.5" style="stroke:#181818;stroke-width:0.5;" width="283" x="1545.5" y="139.92"/><ellipse cx="1603.75" cy="155.92" fill="#B4A7E5" rx="11" ry="11" style="stroke:#181818;stroke-width:1.0;"/><path d="M1600.1777,152.1851 L1600.1777,150.0269 L1607.5571,150.0269 L1607.5571,152.1851 L1605.0918,152.1851 L1605.0918,160.2618 L1607.5571,160.2618 L1607.5571,162.42 L1600.1777,162.42 L1600.1777,160.2618 L1602.6431,160.2618 L1602.6431,152.1851 Z " fill="#000000"/><text fill="#000000" font-family="sans-serif" font-size="14" font-style="italic" lengthAdjust="spacing" textLength="158" x="1624.25" y="161.211">ContainerRequestFilter</text><line style="stroke:#181818;stroke-width:0.5;" x1="1546.5" x2="1827.5" y1="171.92" y2="171.92"/><line style="stroke:#181818;stroke-width:0.5;" x1="1546.5" x2="1827.5" y1="179.92" y2="179.92"/><ellipse cx="1556.5" cy="193.6641" fill="#84BE84" rx="3" ry="3" style="stroke:#038048;stroke-width:1.0;"/><text fill="#000000" font-family="sans-serif" font-size="14" font-style="italic" lengthAdjust="spacing" textLength="257" x="1565.5" y="197.4552">filter(ContainerRequestContext): void</text></g></a><!--class ContainerResponseFilter--><a href="https://javaee.github.io/javaee-spec/javadocs/javax/ws/rs/container/ContainerResponseFilter.html?is-external=true" target="_top" title="https://javaee.github.io/javaee-spec/javadocs/javax/ws/rs/container/ContainerResponseFilter.html?is-external=true" xlink:actuate="onRequest" xlink:href="https://javaee.github.io/javaee-spec/javadocs/javax/ws/rs/container/ContainerResponseFilter.html?is-external=true" xlink:show="new" xlink:title="https://javaee.github.io/javaee-spec/javadocs/javax/ws/rs/container/ContainerResponseFilter.html?is-external=true" xlink:type="simple"><g id="elem_ContainerResponseFilter"><rect codeLine="88" fill="#F1F1F1" height="64.4883" id="ContainerResponseFilter" rx="2.5" ry="2.5" style="stroke:#181818;stroke-width:0.5;" width="480" x="1864" y="139.92"/><ellipse cx="2015.25" cy="155.92" fill="#B4A7E5" rx="11" ry="11" style="stroke:#181818;stroke-width:1.0;"/><path d="M2011.6777,152.1851 L2011.6777,150.0269 L2019.0571,150.0269 L2019.0571,152.1851 L2016.5918,152.1851 L2016.5918,160.2618 L2019.0571,160.2618 L2019.0571,162.42 L2011.6777,162.42 L2011.6777,160.2618 L2014.1431,160.2618 L2014.1431,152.1851 Z " fill="#000000"/><text fill="#000000" font-family="sans-serif" font-size="14" font-style="italic" lengthAdjust="spacing" textLength="169" x="2035.75" y="161.211">ContainerResponseFilter</text><line style="stroke:#181818;stroke-width:0.5;" x1="1865" x2="2343" y1="171.92" y2="171.92"/><line style="stroke:#181818;stroke-width:0.5;" x1="1865" x2="2343" y1="179.92" y2="179.92"/><ellipse cx="1875" cy="193.6641" fill="#84BE84" rx="3" ry="3" style="stroke:#038048;stroke-width:1.0;"/><text fill="#000000" font-family="sans-serif" font-size="14" font-style="italic" lengthAdjust="spacing" textLength="454" x="1884" y="197.4552">filter(ContainerRequestContext, ContainerResponseContext): void</text></g></a><!--reverse link B2buaServlet to TpccServlet--><g id="link_B2buaServlet_TpccServlet"><path codeLine="93" d="M270.2906,265.6656 C301.1406,291.7256 323.62,307.39 360,327.34 C502.95,405.76 678.22,462.58 814.05,499.15 " fill="none" id="B2buaServlet-backto-TpccServlet" style="stroke:#181818;stroke-width:1.0;"/><polygon fill="none" points="256.54,254.05,266.4187,270.2491,274.1624,261.082,256.54,254.05" style="stroke:#181818;stroke-width:1.0;"/></g><!--reverse link SipApplicationSessionListener to TpccServlet--><g id="link_SipApplicationSessionListener_TpccServlet"><path codeLine="94" d="M673.3829,241.2586 C719.5529,280.8586 770.29,324.39 832.62,377.85 " fill="none" id="SipApplicationSessionListener-backto-TpccServlet" style="stroke:#181818;stroke-width:1.0;stroke-dasharray:7.0,7.0;"/><polygon fill="none" points="659.72,229.54,669.4766,245.8129,677.2891,236.7043,659.72,229.54" style="stroke:#181818;stroke-width:1.0;"/></g><!--reverse link SipSessionListener to TpccServlet--><g id="link_SipSessionListener_TpccServlet"><path codeLine="95" d="M1028.0537,239.2378 C1028.6837,279.1978 1029.35,320.58 1030.26,377.91 " fill="none" id="SipSessionListener-backto-TpccServlet" style="stroke:#181818;stroke-width:1.0;stroke-dasharray:7.0,7.0;"/><polygon fill="none" points="1027.77,221.24,1022.0545,239.3323,1034.053,239.1432,1027.77,221.24" style="stroke:#181818;stroke-width:1.0;"/></g><!--reverse link TpccSettings to TpccSettingsSample--><g id="link_TpccSettings_TpccSettingsSample"><path codeLine="96" d="M1346,593.04 C1346,640.25 1346,729.19 1346,782.68 " fill="none" id="TpccSettings-backto-TpccSettingsSample" style="stroke:#181818;stroke-width:1.0;"/><polygon fill="none" points="1346,575.04,1340,593.04,1352,593.04,1346,575.04" style="stroke:#181818;stroke-width:1.0;"/></g><!--reverse link Configuration to TpccSettings--><g id="link_Configuration_TpccSettings"><path codeLine="97" d="M1359.9225,321.7865 C1354.9525,403.1465 1350.11,482.43 1347.43,526.26 " fill="none" id="Configuration-backto-TpccSettings" style="stroke:#181818;stroke-width:1.0;"/><polygon fill="none" points="1361.02,303.82,1353.9337,321.4207,1365.9113,322.1523,1361.02,303.82" style="stroke:#181818;stroke-width:1.0;"/></g><!--reverse link ContainerRequestFilter to CorsFilter--><g id="link_ContainerRequestFilter_CorsFilter"><path codeLine="98" d="M1686.2134,222.6277 C1685.1634,288.5577 1683.01,423.59 1681.76,501.82 " fill="none" id="ContainerRequestFilter-backto-CorsFilter" style="stroke:#181818;stroke-width:1.0;stroke-dasharray:7.0,7.0;"/><polygon fill="none" points="1686.5,204.63,1680.2141,222.5322,1692.2126,222.7233,1686.5,204.63" style="stroke:#181818;stroke-width:1.0;"/></g><!--reverse link ContainerResponseFilter to CorsFilter--><g id="link_ContainerResponseFilter_CorsFilter"><path codeLine="99" d="M2055.2155,216.5986 C1981.1555,282.5286 1822.7,423.59 1734.83,501.82 " fill="none" id="ContainerResponseFilter-backto-CorsFilter" style="stroke:#181818;stroke-width:1.0;stroke-dasharray:7.0,7.0;"/><polygon fill="none" points="2068.66,204.63,2051.226,212.1171,2059.2051,221.0801,2068.66,204.63" style="stroke:#181818;stroke-width:1.0;"/></g><text fill="#888888" font-family="sans-serif" font-size="10" lengthAdjust="spacing" textLength="176" x="1088.5" y="879.288">UMLDoclet 2.1.2, PlantUML 1.2024.3</text><!--SRC=[jLXjRzem4FxUNs6fcjIgJQ9rseT5R1C5kg6LjY8mQQggoHWJtBfsPXieQldlSrw098IG18h4I-oxvx7lpdTd0010OgNV7XHGSG5i- -X83m8FeYVeOi25Qqwvy20r1nGEiIcnc1A4fQayXC1hAEs_48LIWfuUTRG8rQZtzx4dSwoUwSE3rW2nrwjKK16q08R69P3-na8IplhjfWqePswsy9bUioBCbHt8z2A53PpaG2qa3iU-RG4HM7gSITo1dWtqHyrHGikVWxgSCzIDPfFQnpBSJKDWgF3mn25UjBy6Pmg_gDOKCtLgWoadmqpD9fPAy7aftJC4ANKK54dABlutqMXRDUfCph18gOIxsggZby8mAiVJuC-U5YkbqyI84bPkRVK1P4FE2lD8BFrWYlcgxdcK8Er_pfnmShlD8-s4lohejruy8YfhTp4SpdkypQQGag7UHaMSHBnMsFXUwyrJNcGdaF3aEj0Fh5KUYG_kcKvoQLE44LLQey65l29KOQ7brm_P2piR1PCd_ac7Ekv55BVHoSyowNelHDu9FAB47I_3FGTdm3d5a9LXFmUnYV0CRbbNPBR5ZXen4l0PpxXuCWSNWmcCsG8ET511f28RNlhJotAnJsLOuYugvCgqSicqcLOlcK4trKibqxHwoRowiVVYANQH5GgFS0fVpAZKcP9uCQyI7L9Y1146cJdicaY5MN2QnafvqhQiCAYOHdA96ay69k7MenIVFd-n0Y8h8h8qaPKB6fpAxqGQEgYnO91-LMA2D_D7p1nxLOyCeAg590EgMat90Dgdl2oo7NiuRxw72_Vrsw5ilDkmnNCiucn4t9WPblN97vw8m94xt110HZD6y61GCX1Gp8qLZwMN48b4ykkfS0bMWhAelyha-MFANLVNP1jSS_SE-lmQMwORxS2s_gKW-B55Ratij1gtDqtdxrMzqRljvbqyZ4xxfjzh5HBzUTll5X9irlyKaljrMKYgNKYiKqog6DYFObBRm78goKoQGleH7hOdcTKatTMich9bnFjG6CUpJZ1WI0-ZuFUG8ndbe9cqXBHMX5OsU8LSLAu1NEJlCopexxNHEFh1TrgcsOo5nQuUqxOJlMJjpJ1s_7TXsx5_9mAEZUR5jlCxbTgRQHw8vI3GnUIZIqu94yKlNhky4PO2sqwMdz9aCLEbSa00dNNW2vbiVL4ho90uQbKe4FPFC1Xnxd_rEzTDZlmGlJ0_cXVdu8v2flGe-30DAz_9wNy0]--></g></svg>