<?xml version="1.0" encoding="us-ascii" standalone="no"?><svg xmlns="http://www.w3.org/2000/svg" xmlns:xlink="http://www.w3.org/1999/xlink" contentStyleType="text/css" height="589px" preserveAspectRatio="none" style="width:1177px;height:589px;background:#FFFFFF;" version="1.1" viewBox="0 0 1177 589" width="1177px" zoomAndPan="magnify"><defs/><g><!--class org.vorpal.blade.services.tpcc.TpccServlet--><a href="TpccServlet.html" target="_top" title="TpccServlet.html" xlink:actuate="onRequest" xlink:href="TpccServlet.html" xlink:show="new" xlink:title="TpccServlet.html" xlink:type="simple"><g id="elem_org.vorpal.blade.services.tpcc.TpccServlet"><rect codeLine="5" fill="#F1F1F1" height="351.0547" id="org.vorpal.blade.services.tpcc.TpccServlet" rx="2.5" ry="2.5" style="stroke:#181818;stroke-width:0.5;" width="437" x="339.5" y="212.2"/><ellipse cx="481.75" cy="231.3328" fill="#ADD1B2" rx="11" ry="11" style="stroke:#181818;stroke-width:1.0;"/><path d="M484.2231,237.4759 Q483.6421,237.7747 483.0029,237.9241 Q482.3638,238.0735 481.6582,238.0735 Q479.1514,238.0735 477.8315,236.4217 Q476.5117,234.7698 476.5117,231.6487 Q476.5117,228.5193 477.8315,226.8675 Q479.1514,225.2156 481.6582,225.2156 Q482.3638,225.2156 483.0112,225.365 Q483.6587,225.5145 484.2231,225.8133 L484.2231,228.5359 Q483.5923,227.9549 482.9988,227.6851 Q482.4053,227.4153 481.7744,227.4153 Q480.4297,227.4153 479.7449,228.482 Q479.0601,229.5486 479.0601,231.6487 Q479.0601,233.7405 479.7449,234.8072 Q480.4297,235.8738 481.7744,235.8738 Q482.4053,235.8738 482.9988,235.6041 Q483.5923,235.3343 484.2231,234.7532 Z " fill="#000000"/><text fill="#000000" font-family="sans-serif" font-size="14" lengthAdjust="spacing" textLength="78" x="535.25" y="230.7352">TpccServlet</text><text fill="#000000" font-family="sans-serif" font-size="10" lengthAdjust="spacing" textLength="144" x="502.25" y="243.3563">org.vorpal.blade.services.tpcc</text><line style="stroke:#181818;stroke-width:0.5;" x1="340.5" x2="775.5" y1="250.4656" y2="250.4656"/><rect fill="none" height="6" style="stroke:#C82930;stroke-width:1.0;" width="6" x="347.5" y="261.2098"/><text fill="#000000" font-family="sans-serif" font-size="14" lengthAdjust="spacing" text-decoration="underline" textLength="152" x="359.5" y="268.0008">serialVersionUID: long</text><ellipse cx="350.5" cy="280.698" fill="none" rx="3" ry="3" style="stroke:#038048;stroke-width:1.0;"/><text fill="#000000" font-family="sans-serif" font-size="14" lengthAdjust="spacing" text-decoration="underline" textLength="346" x="359.5" y="284.4891">settingsManager: SettingsManager&lt;TpccSettings&gt;</text><ellipse cx="350.5" cy="297.1863" fill="none" rx="3" ry="3" style="stroke:#038048;stroke-width:1.0;"/><text fill="#000000" font-family="sans-serif" font-size="14" lengthAdjust="spacing" text-decoration="underline" textLength="306" x="359.5" y="300.9773">responseMap: Map&lt;String, AsyncResponse&gt;</text><line style="stroke:#181818;stroke-width:0.5;" x1="340.5" x2="775.5" y1="307.9305" y2="307.9305"/><polygon fill="#FFFF44" points="350.5,316.6746,354.5,320.6746,350.5,324.6746,346.5,320.6746" style="stroke:#B38D22;stroke-width:1.0;"/><text fill="#000000" font-family="sans-serif" font-size="14" lengthAdjust="spacing" textLength="305" x="359.5" y="325.4656">servletCreated(SipServletContextEvent): void</text><polygon fill="#FFFF44" points="350.5,333.1629,354.5,337.1629,350.5,341.1629,346.5,337.1629" style="stroke:#B38D22;stroke-width:1.0;"/><text fill="#000000" font-family="sans-serif" font-size="14" lengthAdjust="spacing" textLength="320" x="359.5" y="341.9539">servletDestroyed(SipServletContextEvent): void</text><ellipse cx="350.5" cy="354.6512" fill="#84BE84" rx="3" ry="3" style="stroke:#038048;stroke-width:1.0;"/><text fill="#000000" font-family="sans-serif" font-size="14" lengthAdjust="spacing" textLength="241" x="359.5" y="358.4422">callStarted(SipServletRequest): void</text><ellipse cx="350.5" cy="371.1395" fill="#84BE84" rx="3" ry="3" style="stroke:#038048;stroke-width:1.0;"/><text fill="#000000" font-family="sans-serif" font-size="14" lengthAdjust="spacing" textLength="271" x="359.5" y="374.9305">callAnswered(SipServletResponse): void</text><ellipse cx="350.5" cy="387.6277" fill="#84BE84" rx="3" ry="3" style="stroke:#038048;stroke-width:1.0;"/><text fill="#000000" font-family="sans-serif" font-size="14" lengthAdjust="spacing" textLength="266" x="359.5" y="391.4188">callConnected(SipServletRequest): void</text><ellipse cx="350.5" cy="404.116" fill="#84BE84" rx="3" ry="3" style="stroke:#038048;stroke-width:1.0;"/><text fill="#000000" font-family="sans-serif" font-size="14" lengthAdjust="spacing" textLength="267" x="359.5" y="407.907">callCompleted(SipServletRequest): void</text><ellipse cx="350.5" cy="420.6043" fill="#84BE84" rx="3" ry="3" style="stroke:#038048;stroke-width:1.0;"/><text fill="#000000" font-family="sans-serif" font-size="14" lengthAdjust="spacing" textLength="262" x="359.5" y="424.3953">callDeclined(SipServletResponse): void</text><ellipse cx="350.5" cy="437.0926" fill="#84BE84" rx="3" ry="3" style="stroke:#038048;stroke-width:1.0;"/><text fill="#000000" font-family="sans-serif" font-size="14" lengthAdjust="spacing" textLength="272" x="359.5" y="440.8836">callAbandoned(SipServletRequest): void</text><ellipse cx="350.5" cy="453.5809" fill="#84BE84" rx="3" ry="3" style="stroke:#038048;stroke-width:1.0;"/><text fill="#000000" font-family="sans-serif" font-size="14" lengthAdjust="spacing" textLength="340" x="359.5" y="457.3719">sessionCreated(SipApplicationSessionEvent): void</text><ellipse cx="350.5" cy="470.0691" fill="#84BE84" rx="3" ry="3" style="stroke:#038048;stroke-width:1.0;"/><text fill="#000000" font-family="sans-serif" font-size="14" lengthAdjust="spacing" textLength="355" x="359.5" y="473.8602">sessionDestroyed(SipApplicationSessionEvent): void</text><ellipse cx="350.5" cy="486.5574" fill="#84BE84" rx="3" ry="3" style="stroke:#038048;stroke-width:1.0;"/><text fill="#000000" font-family="sans-serif" font-size="14" lengthAdjust="spacing" textLength="339" x="359.5" y="490.3484">sessionExpired(SipApplicationSessionEvent): void</text><ellipse cx="350.5" cy="503.0457" fill="#84BE84" rx="3" ry="3" style="stroke:#038048;stroke-width:1.0;"/><text fill="#000000" font-family="sans-serif" font-size="14" lengthAdjust="spacing" textLength="411" x="359.5" y="506.8367">sessionReadyToInvalidate(SipApplicationSessionEvent): void</text><ellipse cx="350.5" cy="519.534" fill="#84BE84" rx="3" ry="3" style="stroke:#038048;stroke-width:1.0;"/><text fill="#000000" font-family="sans-serif" font-size="14" lengthAdjust="spacing" textLength="262" x="359.5" y="523.325">sessionCreated(SipSessionEvent): void</text><ellipse cx="350.5" cy="536.0223" fill="#84BE84" rx="3" ry="3" style="stroke:#038048;stroke-width:1.0;"/><text fill="#000000" font-family="sans-serif" font-size="14" lengthAdjust="spacing" textLength="277" x="359.5" y="539.8133">sessionDestroyed(SipSessionEvent): void</text><ellipse cx="350.5" cy="552.5105" fill="#84BE84" rx="3" ry="3" style="stroke:#038048;stroke-width:1.0;"/><text fill="#000000" font-family="sans-serif" font-size="14" lengthAdjust="spacing" textLength="333" x="359.5" y="556.3016">sessionReadyToInvalidate(SipSessionEvent): void</text></g></a><!--class org.vorpal.blade.framework.b2bua.B2buaServlet--><g id="elem_org.vorpal.blade.framework.b2bua.B2buaServlet"><rect codeLine="26" fill="#F1F1F1" height="145.1953" id="org.vorpal.blade.framework.b2bua.B2buaServlet" rx="2.5" ry="2.5" style="stroke:#181818;stroke-width:0.5;" width="298" x="7" y="7"/><ellipse cx="67.75" cy="26.1328" fill="#A9DCDF" rx="11" ry="11" style="stroke:#181818;stroke-width:1.0;"/><path d="M67.6133,21.481 L66.4595,26.5527 L68.7754,26.5527 Z M66.1191,19.2397 L69.1157,19.2397 L72.4609,31.6328 L70.0122,31.6328 L69.2485,28.5698 L65.9697,28.5698 L65.2227,31.6328 L62.7739,31.6328 Z " fill="#000000"/><text fill="#000000" font-family="sans-serif" font-size="14" font-style="italic" lengthAdjust="spacing" textLength="89" x="127.75" y="25.5352">B2buaServlet</text><text fill="#000000" font-family="sans-serif" font-size="10" font-style="italic" lengthAdjust="spacing" textLength="168" x="88.25" y="38.1563">org.vorpal.blade.framework.b2bua</text><line style="stroke:#181818;stroke-width:0.5;" x1="8" x2="304" y1="45.2656" y2="45.2656"/><ellipse cx="18" cy="59.0098" fill="#84BE84" rx="3" ry="3" style="stroke:#038048;stroke-width:1.0;"/><text fill="#000000" font-family="sans-serif" font-size="14" font-style="italic" lengthAdjust="spacing" textLength="241" x="27" y="62.8008">callStarted(SipServletRequest): void</text><ellipse cx="18" cy="75.498" fill="#84BE84" rx="3" ry="3" style="stroke:#038048;stroke-width:1.0;"/><text fill="#000000" font-family="sans-serif" font-size="14" font-style="italic" lengthAdjust="spacing" textLength="271" x="27" y="79.2891">callAnswered(SipServletResponse): void</text><ellipse cx="18" cy="91.9863" fill="#84BE84" rx="3" ry="3" style="stroke:#038048;stroke-width:1.0;"/><text fill="#000000" font-family="sans-serif" font-size="14" font-style="italic" lengthAdjust="spacing" textLength="266" x="27" y="95.7773">callConnected(SipServletRequest): void</text><ellipse cx="18" cy="108.4746" fill="#84BE84" rx="3" ry="3" style="stroke:#038048;stroke-width:1.0;"/><text fill="#000000" font-family="sans-serif" font-size="14" font-style="italic" lengthAdjust="spacing" textLength="267" x="27" y="112.2656">callCompleted(SipServletRequest): void</text><ellipse cx="18" cy="124.9629" fill="#84BE84" rx="3" ry="3" style="stroke:#038048;stroke-width:1.0;"/><text fill="#000000" font-family="sans-serif" font-size="14" font-style="italic" lengthAdjust="spacing" textLength="262" x="27" y="128.7539">callDeclined(SipServletResponse): void</text><ellipse cx="18" cy="141.4512" fill="#84BE84" rx="3" ry="3" style="stroke:#038048;stroke-width:1.0;"/><text fill="#000000" font-family="sans-serif" font-size="14" font-style="italic" lengthAdjust="spacing" textLength="272" x="27" y="145.2422">callAbandoned(SipServletRequest): void</text></g><!--class javax.servlet.sip.SipApplicationSessionListener--><g id="elem_javax.servlet.sip.SipApplicationSessionListener"><rect codeLine="34" fill="#F1F1F1" height="112.2188" id="javax.servlet.sip.SipApplicationSessionListener" rx="2.5" ry="2.5" style="stroke:#181818;stroke-width:0.5;" width="437" x="339.5" y="23.49"/><ellipse cx="451.25" cy="42.6228" fill="#B4A7E5" rx="11" ry="11" style="stroke:#181818;stroke-width:1.0;"/><path d="M447.6777,38.8879 L447.6777,36.7297 L455.0571,36.7297 L455.0571,38.8879 L452.5918,38.8879 L452.5918,46.9646 L455.0571,46.9646 L455.0571,49.1228 L447.6777,49.1228 L447.6777,46.9646 L450.1431,46.9646 L450.1431,38.8879 Z " fill="#000000"/><text fill="#000000" font-family="sans-serif" font-size="14" font-style="italic" lengthAdjust="spacing" textLength="205" x="471.75" y="42.0252">SipApplicationSessionListener</text><text fill="#000000" font-family="sans-serif" font-size="10" font-style="italic" lengthAdjust="spacing" textLength="79" x="534.75" y="54.6463">javax.servlet.sip</text><line style="stroke:#181818;stroke-width:0.5;" x1="340.5" x2="775.5" y1="61.7556" y2="61.7556"/><ellipse cx="350.5" cy="75.4998" fill="#84BE84" rx="3" ry="3" style="stroke:#038048;stroke-width:1.0;"/><text fill="#000000" font-family="sans-serif" font-size="14" font-style="italic" lengthAdjust="spacing" textLength="340" x="359.5" y="79.2908">sessionCreated(SipApplicationSessionEvent): void</text><ellipse cx="350.5" cy="91.988" fill="#84BE84" rx="3" ry="3" style="stroke:#038048;stroke-width:1.0;"/><text fill="#000000" font-family="sans-serif" font-size="14" font-style="italic" lengthAdjust="spacing" textLength="355" x="359.5" y="95.7791">sessionDestroyed(SipApplicationSessionEvent): void</text><ellipse cx="350.5" cy="108.4763" fill="#84BE84" rx="3" ry="3" style="stroke:#038048;stroke-width:1.0;"/><text fill="#000000" font-family="sans-serif" font-size="14" font-style="italic" lengthAdjust="spacing" textLength="339" x="359.5" y="112.2673">sessionExpired(SipApplicationSessionEvent): void</text><ellipse cx="350.5" cy="124.9646" fill="#84BE84" rx="3" ry="3" style="stroke:#038048;stroke-width:1.0;"/><text fill="#000000" font-family="sans-serif" font-size="14" font-style="italic" lengthAdjust="spacing" textLength="411" x="359.5" y="128.7556">sessionReadyToInvalidate(SipApplicationSessionEvent): void</text></g><!--class javax.servlet.sip.SipSessionListener--><g id="elem_javax.servlet.sip.SipSessionListener"><rect codeLine="40" fill="#F1F1F1" height="95.7305" id="javax.servlet.sip.SipSessionListener" rx="2.5" ry="2.5" style="stroke:#181818;stroke-width:0.5;" width="359" x="811.5" y="31.73"/><ellipse cx="923.25" cy="50.8628" fill="#B4A7E5" rx="11" ry="11" style="stroke:#181818;stroke-width:1.0;"/><path d="M919.6777,47.1279 L919.6777,44.9697 L927.0571,44.9697 L927.0571,47.1279 L924.5918,47.1279 L924.5918,55.2046 L927.0571,55.2046 L927.0571,57.3628 L919.6777,57.3628 L919.6777,55.2046 L922.1431,55.2046 L922.1431,47.1279 Z " fill="#000000"/><text fill="#000000" font-family="sans-serif" font-size="14" font-style="italic" lengthAdjust="spacing" textLength="127" x="943.75" y="50.2652">SipSessionListener</text><text fill="#000000" font-family="sans-serif" font-size="10" font-style="italic" lengthAdjust="spacing" textLength="79" x="967.75" y="62.8863">javax.servlet.sip</text><line style="stroke:#181818;stroke-width:0.5;" x1="812.5" x2="1169.5" y1="69.9956" y2="69.9956"/><ellipse cx="822.5" cy="83.7398" fill="#84BE84" rx="3" ry="3" style="stroke:#038048;stroke-width:1.0;"/><text fill="#000000" font-family="sans-serif" font-size="14" font-style="italic" lengthAdjust="spacing" textLength="262" x="831.5" y="87.5308">sessionCreated(SipSessionEvent): void</text><ellipse cx="822.5" cy="100.228" fill="#84BE84" rx="3" ry="3" style="stroke:#038048;stroke-width:1.0;"/><text fill="#000000" font-family="sans-serif" font-size="14" font-style="italic" lengthAdjust="spacing" textLength="277" x="831.5" y="104.0191">sessionDestroyed(SipSessionEvent): void</text><ellipse cx="822.5" cy="116.7163" fill="#84BE84" rx="3" ry="3" style="stroke:#038048;stroke-width:1.0;"/><text fill="#000000" font-family="sans-serif" font-size="14" font-style="italic" lengthAdjust="spacing" textLength="333" x="831.5" y="120.5073">sessionReadyToInvalidate(SipSessionEvent): void</text></g><!--reverse link org.vorpal.blade.framework.b2bua.B2buaServlet to org.vorpal.blade.services.tpcc.TpccServlet--><g id="link_org.vorpal.blade.framework.b2bua.B2buaServlet_org.vorpal.blade.services.tpcc.TpccServlet"><path codeLine="46" d="M264.8279,163.4686 C291.7479,183.9786 307.94,196.3 339.02,219.97 " fill="none" id="org.vorpal.blade.framework.b2bua.B2buaServlet-backto-org.vorpal.blade.services.tpcc.TpccServlet" style="stroke:#181818;stroke-width:1.0;"/><polygon fill="none" points="250.51,152.56,261.1917,168.2412,268.4641,158.696,250.51,152.56" style="stroke:#181818;stroke-width:1.0;"/></g><!--reverse link javax.servlet.sip.SipApplicationSessionListener to org.vorpal.blade.services.tpcc.TpccServlet--><g id="link_javax.servlet.sip.SipApplicationSessionListener_org.vorpal.blade.services.tpcc.TpccServlet"><path codeLine="47" d="M558,154.03 C558,175.92 558,184.37 558,211.77 " fill="none" id="javax.servlet.sip.SipApplicationSessionListener-backto-org.vorpal.blade.services.tpcc.TpccServlet" style="stroke:#181818;stroke-width:1.0;stroke-dasharray:7.0,7.0;"/><polygon fill="none" points="558,136.03,552,154.03,564,154.03,558,136.03" style="stroke:#181818;stroke-width:1.0;"/></g><!--reverse link javax.servlet.sip.SipSessionListener to org.vorpal.blade.services.tpcc.TpccServlet--><g id="link_javax.servlet.sip.SipSessionListener_org.vorpal.blade.services.tpcc.TpccServlet"><path codeLine="48" d="M909.5917,138.1504 C869.5017,166.4904 830.67,193.95 776.94,231.94 " fill="none" id="javax.servlet.sip.SipSessionListener-backto-org.vorpal.blade.services.tpcc.TpccServlet" style="stroke:#181818;stroke-width:1.0;stroke-dasharray:7.0,7.0;"/><polygon fill="none" points="924.29,127.76,906.1282,133.2509,913.0552,143.0498,924.29,127.76" style="stroke:#181818;stroke-width:1.0;"/></g><text fill="#888888" font-family="sans-serif" font-size="10" lengthAdjust="spacing" textLength="176" x="493.75" y="578.9227">UMLDoclet 2.1.2, PlantUML 1.2024.3</text><!--SRC=[hLPHRzem47xVhpXrcjIgnLghFI64nA0FbOeqaNOlNHyEvm1lnlPiDuMr_FSvX6aXILcImKCGv-_xxkppVGG0m947XKjo1Zb5PD2YrnQKLlGkBCD2n0IqD7uDCq4oTiNealn2X_0spYKw1oSz9tvHz_9J_yvm7f5D9FblQXVzsDTspX9j3KesbHWJSm4YE3dc0_u4qC5X2ClfmiD3xXTR-ALyV8INRJdfvyLvz89le1Ca1CglP9tGwlvcr0MfrRmCF0zdueMQkp4gd9FjGhGVw6K9irY_Gi26uzJAqHXD5yAZ5taRi1SmS6l59xlLlyptBgj-Q0aznQUHCBlz3BNojFBN2Ib_reL4YxZ46f7pLgzhyyuvIXbvjFkf9lJpAIXLeWVAFPCjmBDTLE93UaMyllvGBqs0rCQFY4kXwjSpcAAAjQgbxyYb5oJNYu4nKl3GMwsYRB7wN7VClNuqv5wlZB2jc1F2U7sdRrI2KiIXz1OQU_UluKPRr_WMSPDP2av34kI-v2sVhwPFMCDSPZROsxEsFzWqPLJRIm74yk9vC_bJpQRX51M93GQgI6qmMsLgxJ4hKXjCN6clzOPlitsAu5js5lwBSfsklCYtmdbIP7Ej_uu9hjZE5PaJPjlhKfGTr7kZswrTeKAaZK5Ko3JtYWgHjhPni5j7QL7RllnFCuvnUF_misRMqtljT1gy36qpDBtmlLV6ZfBZ6CASqYi5CwtJh_lnxKZpz22ks2Mxke0l4fKFKVYGPEznfsU_0G00]--></g></svg>