<?xml version="1.0" encoding="us-ascii" standalone="no"?><svg xmlns="http://www.w3.org/2000/svg" xmlns:xlink="http://www.w3.org/1999/xlink" contentStyleType="text/css" height="457px" preserveAspectRatio="none" style="width:431px;height:457px;background:#FFFFFF;" version="1.1" viewBox="0 0 431 457" width="431px" zoomAndPan="magnify"><defs/><g><!--class org.vorpal.blade.services.crud2.CrudServlet--><a href="CrudServlet.html" target="_top" title="CrudServlet.html" xlink:actuate="onRequest" xlink:href="CrudServlet.html" xlink:show="new" xlink:title="CrudServlet.html" xlink:type="simple"><g id="elem_org.vorpal.blade.services.crud2.CrudServlet"><rect codeLine="5" fill="#F1F1F1" height="219.1484" id="org.vorpal.blade.services.crud2.CrudServlet" rx="2.5" ry="2.5" style="stroke:#181818;stroke-width:0.5;" width="415" x="9" y="212.19"/><ellipse cx="136.75" cy="231.3228" fill="#ADD1B2" rx="11" ry="11" style="stroke:#181818;stroke-width:1.0;"/><path d="M139.2231,237.4659 Q138.6421,237.7647 138.0029,237.9141 Q137.3638,238.0635 136.6582,238.0635 Q134.1514,238.0635 132.8315,236.4117 Q131.5117,234.7598 131.5117,231.6387 Q131.5117,228.5093 132.8315,226.8575 Q134.1514,225.2056 136.6582,225.2056 Q137.3638,225.2056 138.0112,225.355 Q138.6587,225.5045 139.2231,225.8033 L139.2231,228.5259 Q138.5923,227.9449 137.9988,227.6751 Q137.4053,227.4053 136.7744,227.4053 Q135.4297,227.4053 134.7449,228.472 Q134.0601,229.5386 134.0601,231.6387 Q134.0601,233.7305 134.7449,234.7972 Q135.4297,235.8638 136.7744,235.8638 Q137.4053,235.8638 137.9988,235.5941 Q138.5923,235.3243 139.2231,234.7432 Z " fill="#000000"/><text fill="#000000" font-family="sans-serif" font-size="14" lengthAdjust="spacing" textLength="80" x="192.75" y="230.7252">CrudServlet</text><text fill="#000000" font-family="sans-serif" font-size="10" lengthAdjust="spacing" textLength="151" x="157.25" y="243.3462">org.vorpal.blade.services.crud2</text><line style="stroke:#181818;stroke-width:0.5;" x1="10" x2="423" y1="250.4556" y2="250.4556"/><ellipse cx="20" cy="264.1998" fill="none" rx="3" ry="3" style="stroke:#038048;stroke-width:1.0;"/><text fill="#000000" font-family="sans-serif" font-size="14" lengthAdjust="spacing" text-decoration="underline" textLength="389" x="29" y="267.9908">settingsManager: SettingsManager&lt;CrudConfiguration&gt;</text><line style="stroke:#181818;stroke-width:0.5;" x1="10" x2="423" y1="274.9439" y2="274.9439"/><polygon fill="#FFFF44" points="20,283.688,24,287.688,20,291.688,16,287.688" style="stroke:#B38D22;stroke-width:1.0;"/><text fill="#000000" font-family="sans-serif" font-size="14" lengthAdjust="spacing" textLength="305" x="29" y="292.4791">servletCreated(SipServletContextEvent): void</text><polygon fill="#FFFF44" points="20,300.1763,24,304.1763,20,308.1763,16,304.1763" style="stroke:#B38D22;stroke-width:1.0;"/><text fill="#000000" font-family="sans-serif" font-size="14" lengthAdjust="spacing" textLength="320" x="29" y="308.9673">servletDestroyed(SipServletContextEvent): void</text><polygon fill="#FFFF44" points="20,316.6646,24,320.6646,20,324.6646,16,320.6646" style="stroke:#B38D22;stroke-width:1.0;"/><text fill="#000000" font-family="sans-serif" font-size="14" lengthAdjust="spacing" textLength="299" x="29" y="325.4556">chooseCallflow(SipServletRequest): Callflow</text><ellipse cx="20" cy="338.1529" fill="#84BE84" rx="3" ry="3" style="stroke:#038048;stroke-width:1.0;"/><text fill="#000000" font-family="sans-serif" font-size="14" lengthAdjust="spacing" textLength="241" x="29" y="341.9439">callStarted(SipServletRequest): void</text><ellipse cx="20" cy="354.6412" fill="#84BE84" rx="3" ry="3" style="stroke:#038048;stroke-width:1.0;"/><text fill="#000000" font-family="sans-serif" font-size="14" lengthAdjust="spacing" textLength="271" x="29" y="358.4322">callAnswered(SipServletResponse): void</text><ellipse cx="20" cy="371.1295" fill="#84BE84" rx="3" ry="3" style="stroke:#038048;stroke-width:1.0;"/><text fill="#000000" font-family="sans-serif" font-size="14" lengthAdjust="spacing" textLength="266" x="29" y="374.9205">callConnected(SipServletRequest): void</text><ellipse cx="20" cy="387.6177" fill="#84BE84" rx="3" ry="3" style="stroke:#038048;stroke-width:1.0;"/><text fill="#000000" font-family="sans-serif" font-size="14" lengthAdjust="spacing" textLength="267" x="29" y="391.4087">callCompleted(SipServletRequest): void</text><ellipse cx="20" cy="404.106" fill="#84BE84" rx="3" ry="3" style="stroke:#038048;stroke-width:1.0;"/><text fill="#000000" font-family="sans-serif" font-size="14" lengthAdjust="spacing" textLength="262" x="29" y="407.897">callDeclined(SipServletResponse): void</text><ellipse cx="20" cy="420.5943" fill="#84BE84" rx="3" ry="3" style="stroke:#038048;stroke-width:1.0;"/><text fill="#000000" font-family="sans-serif" font-size="14" lengthAdjust="spacing" textLength="272" x="29" y="424.3853">callAbandoned(SipServletRequest): void</text></g></a><!--class org.vorpal.blade.framework.b2bua.B2buaServlet--><g id="elem_org.vorpal.blade.framework.b2bua.B2buaServlet"><rect codeLine="18" fill="#F1F1F1" height="145.1953" id="org.vorpal.blade.framework.b2bua.B2buaServlet" rx="2.5" ry="2.5" style="stroke:#181818;stroke-width:0.5;" width="298" x="67.5" y="7"/><ellipse cx="128.25" cy="26.1328" fill="#A9DCDF" rx="11" ry="11" style="stroke:#181818;stroke-width:1.0;"/><path d="M128.1133,21.481 L126.9595,26.5527 L129.2754,26.5527 Z M126.6191,19.2397 L129.6157,19.2397 L132.9609,31.6328 L130.5122,31.6328 L129.7485,28.5698 L126.4697,28.5698 L125.7227,31.6328 L123.2739,31.6328 Z " fill="#000000"/><text fill="#000000" font-family="sans-serif" font-size="14" font-style="italic" lengthAdjust="spacing" textLength="89" x="188.25" y="25.5352">B2buaServlet</text><text fill="#000000" font-family="sans-serif" font-size="10" font-style="italic" lengthAdjust="spacing" textLength="168" x="148.75" y="38.1563">org.vorpal.blade.framework.b2bua</text><line style="stroke:#181818;stroke-width:0.5;" x1="68.5" x2="364.5" y1="45.2656" y2="45.2656"/><ellipse cx="78.5" cy="59.0098" fill="#84BE84" rx="3" ry="3" style="stroke:#038048;stroke-width:1.0;"/><text fill="#000000" font-family="sans-serif" font-size="14" font-style="italic" lengthAdjust="spacing" textLength="241" x="87.5" y="62.8008">callStarted(SipServletRequest): void</text><ellipse cx="78.5" cy="75.498" fill="#84BE84" rx="3" ry="3" style="stroke:#038048;stroke-width:1.0;"/><text fill="#000000" font-family="sans-serif" font-size="14" font-style="italic" lengthAdjust="spacing" textLength="271" x="87.5" y="79.2891">callAnswered(SipServletResponse): void</text><ellipse cx="78.5" cy="91.9863" fill="#84BE84" rx="3" ry="3" style="stroke:#038048;stroke-width:1.0;"/><text fill="#000000" font-family="sans-serif" font-size="14" font-style="italic" lengthAdjust="spacing" textLength="266" x="87.5" y="95.7773">callConnected(SipServletRequest): void</text><ellipse cx="78.5" cy="108.4746" fill="#84BE84" rx="3" ry="3" style="stroke:#038048;stroke-width:1.0;"/><text fill="#000000" font-family="sans-serif" font-size="14" font-style="italic" lengthAdjust="spacing" textLength="267" x="87.5" y="112.2656">callCompleted(SipServletRequest): void</text><ellipse cx="78.5" cy="124.9629" fill="#84BE84" rx="3" ry="3" style="stroke:#038048;stroke-width:1.0;"/><text fill="#000000" font-family="sans-serif" font-size="14" font-style="italic" lengthAdjust="spacing" textLength="262" x="87.5" y="128.7539">callDeclined(SipServletResponse): void</text><ellipse cx="78.5" cy="141.4512" fill="#84BE84" rx="3" ry="3" style="stroke:#038048;stroke-width:1.0;"/><text fill="#000000" font-family="sans-serif" font-size="14" font-style="italic" lengthAdjust="spacing" textLength="272" x="87.5" y="145.2422">callAbandoned(SipServletRequest): void</text></g><!--reverse link org.vorpal.blade.framework.b2bua.B2buaServlet to org.vorpal.blade.services.crud2.CrudServlet--><g id="link_org.vorpal.blade.framework.b2bua.B2buaServlet_org.vorpal.blade.services.crud2.CrudServlet"><path codeLine="27" d="M216.5,170.65 C216.5,189.31 216.5,191.81 216.5,211.89 " fill="none" id="org.vorpal.blade.framework.b2bua.B2buaServlet-backto-org.vorpal.blade.services.crud2.CrudServlet" style="stroke:#181818;stroke-width:1.0;"/><polygon fill="none" points="216.5,152.65,210.5,170.65,222.5,170.65,216.5,152.65" style="stroke:#181818;stroke-width:1.0;"/></g><text fill="#888888" font-family="sans-serif" font-size="10" lengthAdjust="spacing" textLength="176" x="120.5" y="447.0064">UMLDoclet 2.1.2, PlantUML 1.2024.3</text><!--SRC=[bLJ1JkCm4Btp5IFGIY0M2ofELLK9qhs1jDg84t2OE9FMMiUJzRZfij1_nsc1JLCaaboYFB_tFCuR3m20K0279Kc5cbAgq6DW3uuT7SHbM9YSWCegF45XoERIHKiA2uxm1jSMHU1m8kOVZIykfubVvYdvsb9uS6_e-PJzNDNiAxGgivYJaaWncaJfo1yT0WfymL4jPxY_RtsfHIZjuoCyRmfgdcS968nUmsayR31kBhVeS4v-3EakC6by4dQ5cI_ZVp3ifXykHxBrJpnXeFmuDTNRZb4Gw6_uKPCB9sEesUHxgXb9yFpKNwSNp489MbjONhLKl-ZFCff5mVlYX-XKHoGDw7Vh-w_OsMB3ldAo8j-XIyLEw5D-hDcHxk-VS5b5Ic_-ZBGrhdyzLncwdDrN_kjjUs8MKq0TzlhqUfGjiKUZ5ZvUbHNxtofh59ztQeUaskRjjdolPZqmkAvmG8PTwO0uzwMza-rA1uIyTzP1UG-BPl9oTZPaxcmdNhoyvA5WRbvtjpSpretPI5seqNVuQT65YCAtchp4WN9yyWe0]--></g></svg>