<?xml version="1.0" encoding="us-ascii" standalone="no"?><svg xmlns="http://www.w3.org/2000/svg" xmlns:xlink="http://www.w3.org/1999/xlink" contentStyleType="text/css" height="797px" preserveAspectRatio="none" style="width:1298px;height:797px;background:#FFFFFF;" version="1.1" viewBox="0 0 1298 797" width="1298px" zoomAndPan="magnify"><defs/><g><!--cluster org.vorpal.blade.services.presence--><g id="cluster_org.vorpal.blade.services.presence"><path d="M8.5,590.67 L250.5,590.67 A3.75,3.75 0 0 1 253,593.17 L260,613.1583 L1288.5,613.1583 A2.5,2.5 0 0 1 1291,615.6583 L1291,769.61 A2.5,2.5 0 0 1 1288.5,772.11 L8.5,772.11 A2.5,2.5 0 0 1 6,769.61 L6,593.17 A2.5,2.5 0 0 1 8.5,590.67 " fill="none" style="stroke:#000000;stroke-width:1.5;"/><line style="stroke:#000000;stroke-width:1.5;" x1="6" x2="260" y1="613.1583" y2="613.1583"/><text fill="#000000" font-family="sans-serif" font-size="14" font-weight="bold" lengthAdjust="spacing" textLength="241" x="10" y="606.2052">org.vorpal.blade.services.presence</text></g><!--cluster org.vorpal.blade.framework.callflow--><g id="cluster_org.vorpal.blade.framework.callflow"><path d="M178.5,6 L434.5,6 A3.75,3.75 0 0 1 437,8.5 L444,28.4883 L497.5,28.4883 A2.5,2.5 0 0 1 500,30.9883 L500,564.17 A2.5,2.5 0 0 1 497.5,566.67 L178.5,566.67 A2.5,2.5 0 0 1 176,564.17 L176,8.5 A2.5,2.5 0 0 1 178.5,6 " fill="none" style="stroke:#000000;stroke-width:1.5;"/><line style="stroke:#000000;stroke-width:1.5;" x1="176" x2="444" y1="28.4883" y2="28.4883"/><text fill="#000000" font-family="sans-serif" font-size="14" font-weight="bold" lengthAdjust="spacing" textLength="255" x="180" y="21.5352">org.vorpal.blade.framework.callflow</text></g><!--cluster java.io--><g id="cluster_java.io"><path d="M695.5,236.83 L742.5,236.83 A3.75,3.75 0 0 1 745,239.33 L752,259.3183 L834.5,259.3183 A2.5,2.5 0 0 1 837,261.8183 L837,333.33 A2.5,2.5 0 0 1 834.5,335.83 L695.5,335.83 A2.5,2.5 0 0 1 693,333.33 L693,239.33 A2.5,2.5 0 0 1 695.5,236.83 " fill="none" style="stroke:#000000;stroke-width:1.5;"/><line style="stroke:#000000;stroke-width:1.5;" x1="693" x2="752" y1="259.3183" y2="259.3183"/><text fill="#000000" font-family="sans-serif" font-size="14" font-weight="bold" lengthAdjust="spacing" textLength="46" x="697" y="252.3652">java.io</text></g><!--cluster org.vorpal.blade.framework--><g id="cluster_org.vorpal.blade.framework"><path d="M888.5,146.15 L1084.5,146.15 A3.75,3.75 0 0 1 1087,148.65 L1094,168.6383 L1261.5,168.6383 A2.5,2.5 0 0 1 1264,171.1383 L1264,424.02 A2.5,2.5 0 0 1 1261.5,426.52 L888.5,426.52 A2.5,2.5 0 0 1 886,424.02 L886,148.65 A2.5,2.5 0 0 1 888.5,146.15 " fill="none" style="stroke:#000000;stroke-width:1.5;"/><line style="stroke:#000000;stroke-width:1.5;" x1="886" x2="1094" y1="168.6383" y2="168.6383"/><text fill="#000000" font-family="sans-serif" font-size="14" font-weight="bold" lengthAdjust="spacing" textLength="195" x="890" y="161.6852">org.vorpal.blade.framework</text></g><!--class PublishCallflow--><a href="PublishCallflow.html" target="_top" title="PublishCallflow.html" xlink:actuate="onRequest" xlink:href="PublishCallflow.html" xlink:show="new" xlink:title="PublishCallflow.html" xlink:type="simple"><g id="elem_PublishCallflow"><rect codeLine="5" fill="#F1F1F1" height="64.4883" id="PublishCallflow" rx="2.5" ry="2.5" style="stroke:#181818;stroke-width:0.5;" width="248" x="22" y="658.65"/><ellipse cx="89.25" cy="674.65" fill="#ADD1B2" rx="11" ry="11" style="stroke:#181818;stroke-width:1.0;"/><path d="M91.7231,680.7931 Q91.1421,681.0919 90.5029,681.2413 Q89.8638,681.3907 89.1582,681.3907 Q86.6514,681.3907 85.3315,679.7389 Q84.0117,678.087 84.0117,674.9659 Q84.0117,671.8365 85.3315,670.1847 Q86.6514,668.5328 89.1582,668.5328 Q89.8638,668.5328 90.5112,668.6822 Q91.1587,668.8316 91.7231,669.1305 L91.7231,671.8531 Q91.0923,671.2721 90.4988,671.0023 Q89.9053,670.7325 89.2744,670.7325 Q87.9297,670.7325 87.2449,671.7992 Q86.5601,672.8658 86.5601,674.9659 Q86.5601,677.0577 87.2449,678.1244 Q87.9297,679.191 89.2744,679.191 Q89.9053,679.191 90.4988,678.9212 Q91.0923,678.6515 91.7231,678.0704 Z " fill="#000000"/><text fill="#000000" font-family="sans-serif" font-size="14" lengthAdjust="spacing" textLength="105" x="109.75" y="679.941">PublishCallflow</text><line style="stroke:#181818;stroke-width:0.5;" x1="23" x2="269" y1="690.65" y2="690.65"/><line style="stroke:#181818;stroke-width:0.5;" x1="23" x2="269" y1="698.65" y2="698.65"/><ellipse cx="33" cy="712.3941" fill="#84BE84" rx="3" ry="3" style="stroke:#038048;stroke-width:1.0;"/><text fill="#000000" font-family="sans-serif" font-size="14" lengthAdjust="spacing" textLength="222" x="42" y="716.1852">process(SipServletRequest): void</text></g></a><!--class Event--><a href="Event.html" target="_top" title="Event.html" xlink:actuate="onRequest" xlink:href="Event.html" xlink:show="new" xlink:title="Event.html" xlink:type="simple"><g id="elem_Event"><rect codeLine="9" fill="#F1F1F1" height="48" id="Event" rx="2.5" ry="2.5" style="stroke:#181818;stroke-width:0.5;" width="69" x="304.5" y="666.89"/><ellipse cx="319.5" cy="682.89" fill="#ADD1B2" rx="11" ry="11" style="stroke:#181818;stroke-width:1.0;"/><path d="M321.9731,689.0331 Q321.3921,689.3319 320.7529,689.4813 Q320.1138,689.6307 319.4082,689.6307 Q316.9014,689.6307 315.5815,687.9789 Q314.2617,686.327 314.2617,683.2059 Q314.2617,680.0765 315.5815,678.4247 Q316.9014,676.7728 319.4082,676.7728 Q320.1138,676.7728 320.7612,676.9222 Q321.4087,677.0716 321.9731,677.3705 L321.9731,680.0931 Q321.3423,679.5121 320.7488,679.2423 Q320.1553,678.9725 319.5244,678.9725 Q318.1797,678.9725 317.4949,680.0392 Q316.8101,681.1058 316.8101,683.2059 Q316.8101,685.2977 317.4949,686.3644 Q318.1797,687.431 319.5244,687.431 Q320.1553,687.431 320.7488,687.1612 Q321.3423,686.8915 321.9731,686.3104 Z " fill="#000000"/><text fill="#000000" font-family="sans-serif" font-size="14" lengthAdjust="spacing" textLength="37" x="333.5" y="688.181">Event</text><line style="stroke:#181818;stroke-width:0.5;" x1="305.5" x2="372.5" y1="698.89" y2="698.89"/><line style="stroke:#181818;stroke-width:0.5;" x1="305.5" x2="372.5" y1="706.89" y2="706.89"/></g></a><!--class PresenceSettings--><a href="PresenceSettings.html" target="_top" title="PresenceSettings.html" xlink:actuate="onRequest" xlink:href="PresenceSettings.html" xlink:show="new" xlink:title="PresenceSettings.html" xlink:type="simple"><g id="elem_PresenceSettings"><rect codeLine="11" fill="#F1F1F1" height="64.4883" id="PresenceSettings" rx="2.5" ry="2.5" style="stroke:#181818;stroke-width:0.5;" width="148" x="691" y="658.65"/><ellipse cx="706" cy="674.65" fill="#ADD1B2" rx="11" ry="11" style="stroke:#181818;stroke-width:1.0;"/><path d="M708.4731,680.7931 Q707.8921,681.0919 707.2529,681.2413 Q706.6138,681.3907 705.9082,681.3907 Q703.4014,681.3907 702.0815,679.7389 Q700.7617,678.087 700.7617,674.9659 Q700.7617,671.8365 702.0815,670.1847 Q703.4014,668.5328 705.9082,668.5328 Q706.6138,668.5328 707.2612,668.6822 Q707.9087,668.8316 708.4731,669.1305 L708.4731,671.8531 Q707.8423,671.2721 707.2488,671.0023 Q706.6553,670.7325 706.0244,670.7325 Q704.6797,670.7325 703.9949,671.7992 Q703.3101,672.8658 703.3101,674.9659 Q703.3101,677.0577 703.9949,678.1244 Q704.6797,679.191 706.0244,679.191 Q706.6553,679.191 707.2488,678.9212 Q707.8423,678.6515 708.4731,678.0704 Z " fill="#000000"/><text fill="#000000" font-family="sans-serif" font-size="14" lengthAdjust="spacing" textLength="116" x="720" y="679.941">PresenceSettings</text><line style="stroke:#181818;stroke-width:0.5;" x1="692" x2="838" y1="690.65" y2="690.65"/><ellipse cx="702" cy="704.3941" fill="none" rx="3" ry="3" style="stroke:#038048;stroke-width:1.0;"/><text fill="#000000" font-family="sans-serif" font-size="14" lengthAdjust="spacing" textLength="105" x="711" y="708.1852">setting1: String</text><line style="stroke:#181818;stroke-width:0.5;" x1="692" x2="838" y1="715.1383" y2="715.1383"/></g></a><!--class SubscribeCallflow--><a href="SubscribeCallflow.html" target="_top" title="SubscribeCallflow.html" xlink:actuate="onRequest" xlink:href="SubscribeCallflow.html" xlink:show="new" xlink:title="SubscribeCallflow.html" xlink:type="simple"><g id="elem_SubscribeCallflow"><rect codeLine="15" fill="#F1F1F1" height="64.4883" id="SubscribeCallflow" rx="2.5" ry="2.5" style="stroke:#181818;stroke-width:0.5;" width="248" x="408" y="658.65"/><ellipse cx="466.75" cy="674.65" fill="#ADD1B2" rx="11" ry="11" style="stroke:#181818;stroke-width:1.0;"/><path d="M469.2231,680.7931 Q468.6421,681.0919 468.0029,681.2413 Q467.3638,681.3907 466.6582,681.3907 Q464.1514,681.3907 462.8315,679.7389 Q461.5117,678.087 461.5117,674.9659 Q461.5117,671.8365 462.8315,670.1847 Q464.1514,668.5328 466.6582,668.5328 Q467.3638,668.5328 468.0112,668.6822 Q468.6587,668.8316 469.2231,669.1305 L469.2231,671.8531 Q468.5923,671.2721 467.9988,671.0023 Q467.4053,670.7325 466.7744,670.7325 Q465.4297,670.7325 464.7449,671.7992 Q464.0601,672.8658 464.0601,674.9659 Q464.0601,677.0577 464.7449,678.1244 Q465.4297,679.191 466.7744,679.191 Q467.4053,679.191 467.9988,678.9212 Q468.5923,678.6515 469.2231,678.0704 Z " fill="#000000"/><text fill="#000000" font-family="sans-serif" font-size="14" lengthAdjust="spacing" textLength="122" x="487.25" y="679.941">SubscribeCallflow</text><line style="stroke:#181818;stroke-width:0.5;" x1="409" x2="655" y1="690.65" y2="690.65"/><line style="stroke:#181818;stroke-width:0.5;" x1="409" x2="655" y1="698.65" y2="698.65"/><ellipse cx="419" cy="712.3941" fill="#84BE84" rx="3" ry="3" style="stroke:#038048;stroke-width:1.0;"/><text fill="#000000" font-family="sans-serif" font-size="14" lengthAdjust="spacing" textLength="222" x="428" y="716.1852">process(SipServletRequest): void</text></g></a><!--class PresenceServlet--><a href="PresenceServlet.html" target="_top" title="PresenceServlet.html" xlink:actuate="onRequest" xlink:href="PresenceServlet.html" xlink:show="new" xlink:title="PresenceServlet.html" xlink:type="simple"><g id="elem_PresenceServlet"><rect codeLine="19" fill="#F1F1F1" height="130.4414" id="PresenceServlet" rx="2.5" ry="2.5" style="stroke:#181818;stroke-width:0.5;" width="401" x="874.5" y="625.67"/><ellipse cx="1017.25" cy="641.67" fill="#ADD1B2" rx="11" ry="11" style="stroke:#181818;stroke-width:1.0;"/><path d="M1019.7231,647.8131 Q1019.1421,648.1119 1018.5029,648.2613 Q1017.8638,648.4107 1017.1582,648.4107 Q1014.6514,648.4107 1013.3315,646.7589 Q1012.0117,645.107 1012.0117,641.9859 Q1012.0117,638.8565 1013.3315,637.2047 Q1014.6514,635.5528 1017.1582,635.5528 Q1017.8638,635.5528 1018.5112,635.7022 Q1019.1587,635.8516 1019.7231,636.1505 L1019.7231,638.8731 Q1019.0923,638.2921 1018.4988,638.0223 Q1017.9053,637.7525 1017.2744,637.7525 Q1015.9297,637.7525 1015.2449,638.8192 Q1014.5601,639.8858 1014.5601,641.9859 Q1014.5601,644.0777 1015.2449,645.1444 Q1015.9297,646.211 1017.2744,646.211 Q1017.9053,646.211 1018.4988,645.9412 Q1019.0923,645.6715 1019.7231,645.0904 Z " fill="#000000"/><text fill="#000000" font-family="sans-serif" font-size="14" lengthAdjust="spacing" textLength="107" x="1037.75" y="646.961">PresenceServlet</text><line style="stroke:#181818;stroke-width:0.5;" x1="875.5" x2="1274.5" y1="657.67" y2="657.67"/><ellipse cx="885.5" cy="671.4141" fill="none" rx="3" ry="3" style="stroke:#038048;stroke-width:1.0;"/><text fill="#000000" font-family="sans-serif" font-size="14" lengthAdjust="spacing" text-decoration="underline" textLength="375" x="894.5" y="675.2052">settingsManager: SettingsManager&lt;PresenceSettings&gt;</text><line style="stroke:#181818;stroke-width:0.5;" x1="875.5" x2="1274.5" y1="682.1583" y2="682.1583"/><ellipse cx="885.5" cy="695.9024" fill="#84BE84" rx="3" ry="3" style="stroke:#038048;stroke-width:1.0;"/><text fill="#000000" font-family="sans-serif" font-size="14" lengthAdjust="spacing" text-decoration="underline" textLength="256" x="894.5" y="699.6934">sessionKey(SipServletRequest): String</text><polygon fill="#FFFF44" points="885.5,707.3907,889.5,711.3907,885.5,715.3907,881.5,711.3907" style="stroke:#B38D22;stroke-width:1.0;"/><text fill="#000000" font-family="sans-serif" font-size="14" lengthAdjust="spacing" textLength="305" x="894.5" y="716.1817">servletCreated(SipServletContextEvent): void</text><polygon fill="#FFFF44" points="885.5,723.879,889.5,727.879,885.5,731.879,881.5,727.879" style="stroke:#B38D22;stroke-width:1.0;"/><text fill="#000000" font-family="sans-serif" font-size="14" lengthAdjust="spacing" textLength="320" x="894.5" y="732.67">servletDestroyed(SipServletContextEvent): void</text><polygon fill="#FFFF44" points="885.5,740.3673,889.5,744.3673,885.5,748.3673,881.5,744.3673" style="stroke:#B38D22;stroke-width:1.0;"/><text fill="#000000" font-family="sans-serif" font-size="14" lengthAdjust="spacing" textLength="299" x="894.5" y="749.1583">chooseCallflow(SipServletRequest): Callflow</text></g></a><!--class Callflow--><a href="https://vorpalnet.github.io/blade/vorpal-blade-library-framework/org/vorpal/blade/framework/callflow/Callflow.html?is-external=true" target="_top" title="https://vorpalnet.github.io/blade/vorpal-blade-library-framework/org/vorpal/blade/framework/callflow/Callflow.html?is-external=true" xlink:actuate="onRequest" xlink:href="https://vorpalnet.github.io/blade/vorpal-blade-library-framework/org/vorpal/blade/framework/callflow/Callflow.html?is-external=true" xlink:show="new" xlink:title="https://vorpalnet.github.io/blade/vorpal-blade-library-framework/org/vorpal/blade/framework/callflow/Callflow.html?is-external=true" xlink:type="simple"><g id="elem_Callflow"><rect codeLine="30" fill="#F1F1F1" height="509.6719" id="Callflow" rx="2.5" ry="2.5" style="stroke:#181818;stroke-width:0.5;" width="291" x="192.5" y="41"/><ellipse cx="306.25" cy="57" fill="#A9DCDF" rx="11" ry="11" style="stroke:#181818;stroke-width:1.0;"/><path d="M306.1133,52.3481 L304.9595,57.4199 L307.2754,57.4199 Z M304.6191,50.1069 L307.6157,50.1069 L310.9609,62.5 L308.5122,62.5 L307.7485,59.437 L304.4697,59.437 L303.7227,62.5 L301.2739,62.5 Z " fill="#000000"/><text fill="#000000" font-family="sans-serif" font-size="14" font-style="italic" lengthAdjust="spacing" textLength="55" x="326.75" y="62.291">Callflow</text><line style="stroke:#181818;stroke-width:0.5;" x1="193.5" x2="482.5" y1="73" y2="73"/><rect fill="none" height="6" style="stroke:#C82930;stroke-width:1.0;" width="6" x="200.5" y="83.7441"/><text fill="#000000" font-family="sans-serif" font-size="14" lengthAdjust="spacing" text-decoration="underline" textLength="152" x="212.5" y="90.5352">serialVersionUID: long</text><polygon fill="none" points="203.5,98.2324,207.5,102.2324,203.5,106.2324,199.5,102.2324" style="stroke:#B38D22;stroke-width:1.0;"/><text fill="#000000" font-family="sans-serif" font-size="14" lengthAdjust="spacing" text-decoration="underline" textLength="149" x="212.5" y="107.0234">sipFactory: SipFactory</text><polygon fill="none" points="203.5,114.7207,207.5,118.7207,203.5,122.7207,199.5,118.7207" style="stroke:#B38D22;stroke-width:1.0;"/><text fill="#000000" font-family="sans-serif" font-size="14" lengthAdjust="spacing" text-decoration="underline" textLength="154" x="212.5" y="123.5117">sipUtil: SipSessionsUtil</text><polygon fill="none" points="203.5,131.209,207.5,135.209,203.5,139.209,199.5,135.209" style="stroke:#B38D22;stroke-width:1.0;"/><text fill="#000000" font-family="sans-serif" font-size="14" lengthAdjust="spacing" text-decoration="underline" textLength="180" x="212.5" y="140">timerService: TimerService</text><polygon fill="none" points="203.5,147.6973,207.5,151.6973,203.5,155.6973,199.5,151.6973" style="stroke:#B38D22;stroke-width:1.0;"/><text fill="#000000" font-family="sans-serif" font-size="14" lengthAdjust="spacing" text-decoration="underline" textLength="124" x="212.5" y="156.4883">sipLogger: Logger</text><polygon fill="none" points="203.5,164.1855,207.5,168.1855,203.5,172.1855,199.5,168.1855" style="stroke:#B38D22;stroke-width:1.0;"/><text fill="#000000" font-family="sans-serif" font-size="14" lengthAdjust="spacing" text-decoration="underline" textLength="265" x="212.5" y="172.9766">sessionParameters: SessionParameters</text><polygon fill="none" points="203.5,180.6738,207.5,184.6738,203.5,188.6738,199.5,184.6738" style="stroke:#B38D22;stroke-width:1.0;"/><text fill="#000000" font-family="sans-serif" font-size="14" lengthAdjust="spacing" text-decoration="underline" textLength="93" x="212.5" y="189.4648">INVITE: String</text><polygon fill="none" points="203.5,197.1621,207.5,201.1621,203.5,205.1621,199.5,201.1621" style="stroke:#B38D22;stroke-width:1.0;"/><text fill="#000000" font-family="sans-serif" font-size="14" lengthAdjust="spacing" text-decoration="underline" textLength="78" x="212.5" y="205.9531">ACK: String</text><polygon fill="none" points="203.5,213.6504,207.5,217.6504,203.5,221.6504,199.5,217.6504" style="stroke:#B38D22;stroke-width:1.0;"/><text fill="#000000" font-family="sans-serif" font-size="14" lengthAdjust="spacing" text-decoration="underline" textLength="74" x="212.5" y="222.4414">BYE: String</text><polygon fill="none" points="203.5,230.1387,207.5,234.1387,203.5,238.1387,199.5,234.1387" style="stroke:#B38D22;stroke-width:1.0;"/><text fill="#000000" font-family="sans-serif" font-size="14" lengthAdjust="spacing" text-decoration="underline" textLength="104" x="212.5" y="238.9297">CANCEL: String</text><polygon fill="none" points="203.5,246.627,207.5,250.627,203.5,254.627,199.5,250.627" style="stroke:#B38D22;stroke-width:1.0;"/><text fill="#000000" font-family="sans-serif" font-size="14" lengthAdjust="spacing" text-decoration="underline" textLength="114" x="212.5" y="255.418">REGISTER: String</text><polygon fill="none" points="203.5,263.1152,207.5,267.1152,203.5,271.1152,199.5,267.1152" style="stroke:#B38D22;stroke-width:1.0;"/><text fill="#000000" font-family="sans-serif" font-size="14" lengthAdjust="spacing" text-decoration="underline" textLength="110" x="212.5" y="271.9063">OPTIONS: String</text><polygon fill="none" points="203.5,279.6035,207.5,283.6035,203.5,287.6035,199.5,283.6035" style="stroke:#B38D22;stroke-width:1.0;"/><text fill="#000000" font-family="sans-serif" font-size="14" lengthAdjust="spacing" text-decoration="underline" textLength="95" x="212.5" y="288.3945">PRACK: String</text><polygon fill="none" points="203.5,296.0918,207.5,300.0918,203.5,304.0918,199.5,300.0918" style="stroke:#B38D22;stroke-width:1.0;"/><text fill="#000000" font-family="sans-serif" font-size="14" lengthAdjust="spacing" text-decoration="underline" textLength="122" x="212.5" y="304.8828">SUBSCRIBE: String</text><polygon fill="none" points="203.5,312.5801,207.5,316.5801,203.5,320.5801,199.5,316.5801" style="stroke:#B38D22;stroke-width:1.0;"/><text fill="#000000" font-family="sans-serif" font-size="14" lengthAdjust="spacing" text-decoration="underline" textLength="100" x="212.5" y="321.3711">NOTIFY: String</text><polygon fill="none" points="203.5,329.0684,207.5,333.0684,203.5,337.0684,199.5,333.0684" style="stroke:#B38D22;stroke-width:1.0;"/><text fill="#000000" font-family="sans-serif" font-size="14" lengthAdjust="spacing" text-decoration="underline" textLength="104" x="212.5" y="337.8594">PUBLISH: String</text><polygon fill="none" points="203.5,345.5566,207.5,349.5566,203.5,353.5566,199.5,349.5566" style="stroke:#B38D22;stroke-width:1.0;"/><text fill="#000000" font-family="sans-serif" font-size="14" lengthAdjust="spacing" text-decoration="underline" textLength="82" x="212.5" y="354.3477">INFO: String</text><polygon fill="none" points="203.5,362.0449,207.5,366.0449,203.5,370.0449,199.5,366.0449" style="stroke:#B38D22;stroke-width:1.0;"/><text fill="#000000" font-family="sans-serif" font-size="14" lengthAdjust="spacing" text-decoration="underline" textLength="104" x="212.5" y="370.8359">UPDATE: String</text><polygon fill="none" points="203.5,378.5332,207.5,382.5332,203.5,386.5332,199.5,382.5332" style="stroke:#B38D22;stroke-width:1.0;"/><text fill="#000000" font-family="sans-serif" font-size="14" lengthAdjust="spacing" text-decoration="underline" textLength="91" x="212.5" y="387.3242">REFER: String</text><polygon fill="none" points="203.5,395.0215,207.5,399.0215,203.5,403.0215,199.5,399.0215" style="stroke:#B38D22;stroke-width:1.0;"/><text fill="#000000" font-family="sans-serif" font-size="14" lengthAdjust="spacing" text-decoration="underline" textLength="69" x="212.5" y="403.8125">SIP: String</text><polygon fill="none" points="203.5,411.5098,207.5,415.5098,203.5,419.5098,199.5,415.5098" style="stroke:#B38D22;stroke-width:1.0;"/><text fill="#000000" font-family="sans-serif" font-size="14" lengthAdjust="spacing" text-decoration="underline" textLength="102" x="212.5" y="420.3008">Contact: String</text><polygon fill="none" points="203.5,427.998,207.5,431.998,203.5,435.998,199.5,431.998" style="stroke:#B38D22;stroke-width:1.0;"/><text fill="#000000" font-family="sans-serif" font-size="14" lengthAdjust="spacing" text-decoration="underline" textLength="110" x="212.5" y="436.7891">RELIABLE: String</text><polygon fill="none" points="203.5,444.4863,207.5,448.4863,203.5,452.4863,199.5,448.4863" style="stroke:#B38D22;stroke-width:1.0;"/><text fill="#000000" font-family="sans-serif" font-size="14" lengthAdjust="spacing" text-decoration="underline" textLength="197" x="212.5" y="453.2773">REQUEST_CALLBACK_: String</text><polygon fill="none" points="203.5,460.9746,207.5,464.9746,203.5,468.9746,199.5,464.9746" style="stroke:#B38D22;stroke-width:1.0;"/><text fill="#000000" font-family="sans-serif" font-size="14" lengthAdjust="spacing" text-decoration="underline" textLength="204" x="212.5" y="469.7656">RESPONSE_CALLBACK_: String</text><polygon fill="none" points="203.5,477.4629,207.5,481.4629,203.5,485.4629,199.5,481.4629" style="stroke:#B38D22;stroke-width:1.0;"/><text fill="#000000" font-family="sans-serif" font-size="14" lengthAdjust="spacing" text-decoration="underline" textLength="161" x="212.5" y="486.2539">LINKED_SESSION: String</text><polygon fill="none" points="203.5,493.9512,207.5,497.9512,203.5,501.9512,199.5,497.9512" style="stroke:#B38D22;stroke-width:1.0;"/><text fill="#000000" font-family="sans-serif" font-size="14" lengthAdjust="spacing" text-decoration="underline" textLength="181" x="212.5" y="502.7422">DELAYED_REQUEST: String</text><polygon fill="none" points="203.5,510.4395,207.5,514.4395,203.5,518.4395,199.5,514.4395" style="stroke:#B38D22;stroke-width:1.0;"/><text fill="#000000" font-family="sans-serif" font-size="14" lengthAdjust="spacing" text-decoration="underline" textLength="199" x="212.5" y="519.2305">WITHHOLD_RESPONSE: String</text><line style="stroke:#181818;stroke-width:0.5;" x1="193.5" x2="482.5" y1="526.1836" y2="526.1836"/><ellipse cx="203.5" cy="539.9277" fill="#84BE84" rx="3" ry="3" style="stroke:#038048;stroke-width:1.0;"/><text fill="#000000" font-family="sans-serif" font-size="14" font-style="italic" lengthAdjust="spacing" textLength="222" x="212.5" y="543.7188">process(SipServletRequest): void</text></g></a><!--class Serializable--><a href="https://docs.oracle.com/en/java/javase/11/docs/api/java.base/java/io/Serializable.html?is-external=true" target="_top" title="https://docs.oracle.com/en/java/javase/11/docs/api/java.base/java/io/Serializable.html?is-external=true" xlink:actuate="onRequest" xlink:href="https://docs.oracle.com/en/java/javase/11/docs/api/java.base/java/io/Serializable.html?is-external=true" xlink:show="new" xlink:title="https://docs.oracle.com/en/java/javase/11/docs/api/java.base/java/io/Serializable.html?is-external=true" xlink:type="simple"><g id="elem_Serializable"><rect codeLine="63" fill="#F1F1F1" height="48" id="Serializable" rx="2.5" ry="2.5" style="stroke:#181818;stroke-width:0.5;" width="111" x="709.5" y="271.83"/><ellipse cx="724.5" cy="287.83" fill="#B4A7E5" rx="11" ry="11" style="stroke:#181818;stroke-width:1.0;"/><path d="M720.9277,284.0951 L720.9277,281.9369 L728.3071,281.9369 L728.3071,284.0951 L725.8418,284.0951 L725.8418,292.1718 L728.3071,292.1718 L728.3071,294.33 L720.9277,294.33 L720.9277,292.1718 L723.3931,292.1718 L723.3931,284.0951 Z " fill="#000000"/><text fill="#000000" font-family="sans-serif" font-size="14" font-style="italic" lengthAdjust="spacing" textLength="79" x="738.5" y="293.121">Serializable</text><line style="stroke:#181818;stroke-width:0.5;" x1="710.5" x2="819.5" y1="303.83" y2="303.83"/><line style="stroke:#181818;stroke-width:0.5;" x1="710.5" x2="819.5" y1="311.83" y2="311.83"/></g></a><!--class AsyncSipServlet--><a href="https://vorpalnet.github.io/blade/vorpal-blade-library-framework/org/vorpal/blade/framework/AsyncSipServlet.html?is-external=true" target="_top" title="https://vorpalnet.github.io/blade/vorpal-blade-library-framework/org/vorpal/blade/framework/AsyncSipServlet.html?is-external=true" xlink:actuate="onRequest" xlink:href="https://vorpalnet.github.io/blade/vorpal-blade-library-framework/org/vorpal/blade/framework/AsyncSipServlet.html?is-external=true" xlink:show="new" xlink:title="https://vorpalnet.github.io/blade/vorpal-blade-library-framework/org/vorpal/blade/framework/AsyncSipServlet.html?is-external=true" xlink:type="simple"><g id="elem_AsyncSipServlet"><rect codeLine="67" fill="#F1F1F1" height="229.3711" id="AsyncSipServlet" rx="2.5" ry="2.5" style="stroke:#181818;stroke-width:0.5;" width="346" x="902" y="181.15"/><ellipse cx="1017.25" cy="197.15" fill="#A9DCDF" rx="11" ry="11" style="stroke:#181818;stroke-width:1.0;"/><path d="M1017.1133,192.4981 L1015.9595,197.5699 L1018.2754,197.5699 Z M1015.6191,190.2569 L1018.6157,190.2569 L1021.9609,202.65 L1019.5122,202.65 L1018.7485,199.587 L1015.4697,199.587 L1014.7227,202.65 L1012.2739,202.65 Z " fill="#000000"/><text fill="#000000" font-family="sans-serif" font-size="14" font-style="italic" lengthAdjust="spacing" textLength="107" x="1037.75" y="202.441">AsyncSipServlet</text><line style="stroke:#181818;stroke-width:0.5;" x1="903" x2="1247" y1="213.15" y2="213.15"/><rect fill="none" height="6" style="stroke:#C82930;stroke-width:1.0;" width="6" x="910" y="223.8941"/><text fill="#000000" font-family="sans-serif" font-size="14" lengthAdjust="spacing" text-decoration="underline" textLength="152" x="922" y="230.6852">serialVersionUID: long</text><rect fill="none" height="6" style="stroke:#C82930;stroke-width:1.0;" width="6" x="910" y="240.3824"/><text fill="#000000" font-family="sans-serif" font-size="14" lengthAdjust="spacing" textLength="204" x="922" y="247.1734">event: SipServletContextEvent</text><polygon fill="none" points="913,254.8707,917,258.8707,913,262.8707,909,258.8707" style="stroke:#B38D22;stroke-width:1.0;"/><text fill="#000000" font-family="sans-serif" font-size="14" lengthAdjust="spacing" text-decoration="underline" textLength="124" x="922" y="263.6617">sipLogger: Logger</text><polygon fill="none" points="913,271.359,917,275.359,913,279.359,909,275.359" style="stroke:#B38D22;stroke-width:1.0;"/><text fill="#000000" font-family="sans-serif" font-size="14" lengthAdjust="spacing" text-decoration="underline" textLength="149" x="922" y="280.15">sipFactory: SipFactory</text><polygon fill="none" points="913,287.8473,917,291.8473,913,295.8473,909,291.8473" style="stroke:#B38D22;stroke-width:1.0;"/><text fill="#000000" font-family="sans-serif" font-size="14" lengthAdjust="spacing" text-decoration="underline" textLength="154" x="922" y="296.6383">sipUtil: SipSessionsUtil</text><polygon fill="none" points="913,304.3355,917,308.3355,913,312.3355,909,308.3355" style="stroke:#B38D22;stroke-width:1.0;"/><text fill="#000000" font-family="sans-serif" font-size="14" lengthAdjust="spacing" text-decoration="underline" textLength="180" x="922" y="313.1266">timerService: TimerService</text><polygon fill="none" points="913,320.8238,917,324.8238,913,328.8238,909,324.8238" style="stroke:#B38D22;stroke-width:1.0;"/><text fill="#000000" font-family="sans-serif" font-size="14" lengthAdjust="spacing" text-decoration="underline" textLength="265" x="922" y="329.6148">sessionParameters: SessionParameters</text><rect fill="none" height="6" style="stroke:#C82930;stroke-width:1.0;" width="6" x="910" y="339.3121"/><text fill="#000000" font-family="sans-serif" font-size="14" lengthAdjust="spacing" text-decoration="underline" textLength="248" x="922" y="346.1031">RESPONSE_CALLBACK_INVITE: String</text><line style="stroke:#181818;stroke-width:0.5;" x1="903" x2="1247" y1="353.0563" y2="353.0563"/><polygon fill="#FFFF44" points="913,361.8004,917,365.8004,913,369.8004,909,365.8004" style="stroke:#B38D22;stroke-width:1.0;"/><text fill="#000000" font-family="sans-serif" font-size="14" font-style="italic" lengthAdjust="spacing" textLength="305" x="922" y="370.5914">servletCreated(SipServletContextEvent): void</text><polygon fill="#FFFF44" points="913,378.2887,917,382.2887,913,386.2887,909,382.2887" style="stroke:#B38D22;stroke-width:1.0;"/><text fill="#000000" font-family="sans-serif" font-size="14" font-style="italic" lengthAdjust="spacing" textLength="320" x="922" y="387.0797">servletDestroyed(SipServletContextEvent): void</text><polygon fill="#FFFF44" points="913,394.777,917,398.777,913,402.777,909,398.777" style="stroke:#B38D22;stroke-width:1.0;"/><text fill="#000000" font-family="sans-serif" font-size="14" font-style="italic" lengthAdjust="spacing" textLength="299" x="922" y="403.568">chooseCallflow(SipServletRequest): Callflow</text></g></a><!--reverse link Callflow to PublishCallflow--><g id="link_Callflow_PublishCallflow"><path codeLine="82" d="M205.9299,567.2137 C184.9899,610.0837 173.91,632.76 161.39,658.39 " fill="none" id="Callflow-backto-PublishCallflow" style="stroke:#181818;stroke-width:1.0;"/><polygon fill="none" points="213.83,551.04,200.5387,564.5803,211.3211,569.8471,213.83,551.04" style="stroke:#181818;stroke-width:1.0;"/></g><!--reverse link Serializable to PresenceSettings--><g id="link_Serializable_PresenceSettings"><path codeLine="83" d="M765,338.24 C765,405.59 765,581.89 765,658.4 " fill="none" id="Serializable-backto-PresenceSettings" style="stroke:#181818;stroke-width:1.0;stroke-dasharray:7.0,7.0;"/><polygon fill="none" points="765,320.24,759,338.24,771,338.24,765,320.24" style="stroke:#181818;stroke-width:1.0;"/></g><!--reverse link Callflow to SubscribeCallflow--><g id="link_Callflow_SubscribeCallflow"><path codeLine="84" d="M471.4369,567.1809 C492.5969,610.0509 503.8,632.76 516.45,658.39 " fill="none" id="Callflow-backto-SubscribeCallflow" style="stroke:#181818;stroke-width:1.0;"/><polygon fill="none" points="463.47,551.04,466.0566,569.8365,476.8172,564.5253,463.47,551.04" style="stroke:#181818;stroke-width:1.0;"/></g><!--reverse link AsyncSipServlet to PresenceServlet--><g id="link_AsyncSipServlet_PresenceServlet"><path codeLine="85" d="M1075,428.78 C1075,498.49 1075,567.14 1075,625.24 " fill="none" id="AsyncSipServlet-backto-PresenceServlet" style="stroke:#181818;stroke-width:1.0;"/><polygon fill="none" points="1075,410.78,1069,428.78,1081,428.78,1075,410.78" style="stroke:#181818;stroke-width:1.0;"/></g><text fill="#888888" font-family="sans-serif" font-size="10" lengthAdjust="spacing" textLength="176" x="554" y="787.778">UMLDoclet 2.1.2, PlantUML 1.2024.3</text><!--SRC=[pLTjRzem4FxUNs6fcjHgIoBwCUesyHBMg2ba63fLLLKvmO1NDyviGyTQ_lkS5o04CbEsIei4ISwFxyvtv-SS000GMAfVZ3YIZ0FRFZfIGX2Zy06DCM1yRCuOZn4r0ug6s1IOpqY8XHbpB70KOl2SpKYka28XW3yDA16J9g9qHDaJkBqjISo9VAHtTsecA5plOywKOd42IGoL5Ofb3_-OOY5FRJ1ZPBX2ByeMdHcEfBAJtdFjMrxb_a8i9Od68d6h9AhmIsJ3DHj0oTL3jHzm6eYGam0Nrhub- -UhNoyZdRQni5Ios-Apa4YISB5QeBX2aSevL-lS59oN0_MfKf4GX4MNUBvp6QNm9TUno41DZf74myAq9eia_YdJb9P3K9pPKhevcxzkRZXXJAmoijFPvM0vxWlD1Xbnz8YV67ymmsKHhEEE0kKi2cMUkKAPJAICXMrPcQv89MrCv6GQc8HPgU9yn4XV34e2ZlZSM5cpb2Cv9CUlXvQEM1ib-9a8GmK9ymZHZv9FSNM562hM1D5hp9Fq3joM3IWhPN85FXOaRgirCZvNALyzLuC7aj0K2RFo4OcW0Yx98-Omuo0Rz0jlrVezDawhEhjNuJBRFagYfe8YabrG4bLCTJlNRj_PMTvhKBrvgK4qRdGwclLEq_4qe9xpnOLzfwU1TVs-s-r03ShlwVs6WmPizjo6pljEj- -sRtG61mtFXHSQbDjfTpMGWT-gQvFISzhQG47NrwL5iOsgSQqjpwqtFBrBNmSExDytwvxNKC6_r-AXh_Bex3t1SpkNJkiUEX2g0j20MuvNlr7et2iD-flRlxZeUWaySsetVac2YrSrlHtS-ntDaEB70ciHnVjyXDIf1AQCHNwXWE82lGvPA4och5DiXkpHmf6LQ4d_1BPgjHHXePYa8ZD8f2b2yN1HPnM5lgv7LBU6kfX7uJeiRzmXIjRUeZyOEEd6ESzlTUc_PU__gkKSt4gCxTtyf-QotaY77wDsA3daH5LKSzZXgh1lzZXJsVRgx7J-OXXxVAVOTkah93MLKuXjR_35-OjfxgUoT31-I_UtFYGqncoxp27xHshp-o4r5EA4My68iUGskF9QB4oKdfary-m3y2cAf9A2TxEC1KvEVmC0]--></g></svg>