<?xml version="1.0" encoding="us-ascii" standalone="no"?><svg xmlns="http://www.w3.org/2000/svg" xmlns:xlink="http://www.w3.org/1999/xlink" contentStyleType="text/css" height="325px" preserveAspectRatio="none" style="width:417px;height:325px;background:#FFFFFF;" version="1.1" viewBox="0 0 417 325" width="417px" zoomAndPan="magnify"><defs/><g><!--class org.vorpal.blade.services.presence.PresenceServlet--><a href="PresenceServlet.html" target="_top" title="PresenceServlet.html" xlink:actuate="onRequest" xlink:href="PresenceServlet.html" xlink:show="new" xlink:title="PresenceServlet.html" xlink:type="simple"><g id="elem_org.vorpal.blade.services.presence.PresenceServlet"><rect codeLine="5" fill="#F1F1F1" height="136.707" id="org.vorpal.blade.services.presence.PresenceServlet" rx="2.5" ry="2.5" style="stroke:#181818;stroke-width:0.5;" width="401" x="9" y="162.73"/><ellipse cx="121.25" cy="181.8628" fill="#ADD1B2" rx="11" ry="11" style="stroke:#181818;stroke-width:1.0;"/><path d="M123.7231,188.0059 Q123.1421,188.3047 122.5029,188.4541 Q121.8638,188.6035 121.1582,188.6035 Q118.6514,188.6035 117.3315,186.9517 Q116.0117,185.2998 116.0117,182.1787 Q116.0117,179.0493 117.3315,177.3975 Q118.6514,175.7456 121.1582,175.7456 Q121.8638,175.7456 122.5112,175.895 Q123.1587,176.0445 123.7231,176.3433 L123.7231,179.0659 Q123.0923,178.4849 122.4988,178.2151 Q121.9053,177.9453 121.2744,177.9453 Q119.9297,177.9453 119.2449,179.012 Q118.5601,180.0786 118.5601,182.1787 Q118.5601,184.2705 119.2449,185.3372 Q119.9297,186.4038 121.2744,186.4038 Q121.9053,186.4038 122.4988,186.1341 Q123.0923,185.8643 123.7231,185.2832 Z " fill="#000000"/><text fill="#000000" font-family="sans-serif" font-size="14" lengthAdjust="spacing" textLength="107" x="172.25" y="181.2652">PresenceServlet</text><text fill="#000000" font-family="sans-serif" font-size="10" lengthAdjust="spacing" textLength="168" x="141.75" y="193.8863">org.vorpal.blade.services.presence</text><line style="stroke:#181818;stroke-width:0.5;" x1="10" x2="409" y1="200.9956" y2="200.9956"/><ellipse cx="20" cy="214.7398" fill="none" rx="3" ry="3" style="stroke:#038048;stroke-width:1.0;"/><text fill="#000000" font-family="sans-serif" font-size="14" lengthAdjust="spacing" text-decoration="underline" textLength="375" x="29" y="218.5308">settingsManager: SettingsManager&lt;PresenceSettings&gt;</text><line style="stroke:#181818;stroke-width:0.5;" x1="10" x2="409" y1="225.4839" y2="225.4839"/><ellipse cx="20" cy="239.228" fill="#84BE84" rx="3" ry="3" style="stroke:#038048;stroke-width:1.0;"/><text fill="#000000" font-family="sans-serif" font-size="14" lengthAdjust="spacing" text-decoration="underline" textLength="256" x="29" y="243.0191">sessionKey(SipServletRequest): String</text><polygon fill="#FFFF44" points="20,250.7163,24,254.7163,20,258.7163,16,254.7163" style="stroke:#B38D22;stroke-width:1.0;"/><text fill="#000000" font-family="sans-serif" font-size="14" lengthAdjust="spacing" textLength="305" x="29" y="259.5073">servletCreated(SipServletContextEvent): void</text><polygon fill="#FFFF44" points="20,267.2046,24,271.2046,20,275.2046,16,271.2046" style="stroke:#B38D22;stroke-width:1.0;"/><text fill="#000000" font-family="sans-serif" font-size="14" lengthAdjust="spacing" textLength="320" x="29" y="275.9956">servletDestroyed(SipServletContextEvent): void</text><polygon fill="#FFFF44" points="20,283.6929,24,287.6929,20,291.6929,16,287.6929" style="stroke:#B38D22;stroke-width:1.0;"/><text fill="#000000" font-family="sans-serif" font-size="14" lengthAdjust="spacing" textLength="299" x="29" y="292.4839">chooseCallflow(SipServletRequest): Callflow</text></g></a><!--class org.vorpal.blade.framework.AsyncSipServlet--><a href="https://vorpalnet.github.io/blade/vorpal-blade-library-framework/org/vorpal/blade/framework/AsyncSipServlet.html?is-external=true" target="_top" title="https://vorpalnet.github.io/blade/vorpal-blade-library-framework/org/vorpal/blade/framework/AsyncSipServlet.html?is-external=true" xlink:actuate="onRequest" xlink:href="https://vorpalnet.github.io/blade/vorpal-blade-library-framework/org/vorpal/blade/framework/AsyncSipServlet.html?is-external=true" xlink:show="new" xlink:title="https://vorpalnet.github.io/blade/vorpal-blade-library-framework/org/vorpal/blade/framework/AsyncSipServlet.html?is-external=true" xlink:type="simple"><g id="elem_org.vorpal.blade.framework.AsyncSipServlet"><rect codeLine="13" fill="#F1F1F1" height="95.7305" id="org.vorpal.blade.framework.AsyncSipServlet" rx="2.5" ry="2.5" style="stroke:#181818;stroke-width:0.5;" width="346" x="36.5" y="7"/><ellipse cx="137.75" cy="26.1328" fill="#A9DCDF" rx="11" ry="11" style="stroke:#181818;stroke-width:1.0;"/><path d="M137.6133,21.481 L136.4595,26.5527 L138.7754,26.5527 Z M136.1191,19.2397 L139.1157,19.2397 L142.4609,31.6328 L140.0122,31.6328 L139.2485,28.5698 L135.9697,28.5698 L135.2227,31.6328 L132.7739,31.6328 Z " fill="#000000"/><text fill="#000000" font-family="sans-serif" font-size="14" font-style="italic" lengthAdjust="spacing" textLength="107" x="172.25" y="25.5352">AsyncSipServlet</text><text fill="#000000" font-family="sans-serif" font-size="10" font-style="italic" lengthAdjust="spacing" textLength="135" x="158.25" y="38.1563">org.vorpal.blade.framework</text><line style="stroke:#181818;stroke-width:0.5;" x1="37.5" x2="381.5" y1="45.2656" y2="45.2656"/><polygon fill="#FFFF44" points="47.5,54.0098,51.5,58.0098,47.5,62.0098,43.5,58.0098" style="stroke:#B38D22;stroke-width:1.0;"/><text fill="#000000" font-family="sans-serif" font-size="14" font-style="italic" lengthAdjust="spacing" textLength="305" x="56.5" y="62.8008">servletCreated(SipServletContextEvent): void</text><polygon fill="#FFFF44" points="47.5,70.498,51.5,74.498,47.5,78.498,43.5,74.498" style="stroke:#B38D22;stroke-width:1.0;"/><text fill="#000000" font-family="sans-serif" font-size="14" font-style="italic" lengthAdjust="spacing" textLength="320" x="56.5" y="79.2891">servletDestroyed(SipServletContextEvent): void</text><polygon fill="#FFFF44" points="47.5,86.9863,51.5,90.9863,47.5,94.9863,43.5,90.9863" style="stroke:#B38D22;stroke-width:1.0;"/><text fill="#000000" font-family="sans-serif" font-size="14" font-style="italic" lengthAdjust="spacing" textLength="299" x="56.5" y="95.7773">chooseCallflow(SipServletRequest): Callflow</text></g></a><!--reverse link org.vorpal.blade.framework.AsyncSipServlet to org.vorpal.blade.services.presence.PresenceServlet--><g id="link_org.vorpal.blade.framework.AsyncSipServlet_org.vorpal.blade.services.presence.PresenceServlet"><path codeLine="19" d="M209.5,121.01 C209.5,139.25 209.5,142.48 209.5,162.3 " fill="none" id="org.vorpal.blade.framework.AsyncSipServlet-backto-org.vorpal.blade.services.presence.PresenceServlet" style="stroke:#181818;stroke-width:1.0;"/><polygon fill="none" points="209.5,103.01,203.5,121.01,215.5,121.01,209.5,103.01" style="stroke:#181818;stroke-width:1.0;"/></g><text fill="#888888" font-family="sans-serif" font-size="10" lengthAdjust="spacing" textLength="176" x="113.5" y="315.105">UMLDoclet 2.1.2, PlantUML 1.2024.3</text><!--SRC=[dLHDJzj04BttLuoeAe5QRmhY5AMfKEYfHKADE54E4tiIhzZikZCJKvVclxF-804JjIM-M7vltflnljq5011IyBWaAJ2bAHN8g8711qzl8WsvpGXeMMW5Sqikapww9Cr3X1iyTIW21oEnlsbuV3g-P1BojJ6NZlI7xvYFuy0BKmOkq9cPmuoCn1ARafYYqnm02loxpFHwmFLr3p6vBjtD3Tmt8zRFlIYgJTVmFlw-Mh-G2_Iu81x2z3amsdgr-7YdYOWD_YjLXrDRT5s_qyyLYHv5I-MetEZUIbimOKAbx8ba4hpIB_rIagzrPR3P2zLvzEHG_RykpKCGcg1pSnVkTWxuI3QYTPiapc8VJFL5f6TI-NJhyhT8vnmtrbtWszrHRcZJyumHvgg530U3Lk1ZY0kh-MfcR1Wqwev9ce_4sHaZLyd6SX2xTILT_PRgTMksnsShILn2Oe_ka_AAdk-NnzLOxvdU3eFN1ldKOizCNv70w4-Ix77usaiWJayCyn3grzN5j_EGrfudvjYSV81BXruZ2kzAulhS71uz0000]--></g></svg>