<?xml version="1.0" encoding="us-ascii" standalone="no"?><svg xmlns="http://www.w3.org/2000/svg" xmlns:xlink="http://www.w3.org/1999/xlink" contentStyleType="text/css" height="358px" preserveAspectRatio="none" style="width:561px;height:358px;background:#FFFFFF;" version="1.1" viewBox="0 0 561 358" width="561px" zoomAndPan="magnify"><defs/><g><!--class org.vorpal.blade.services.crud2.rules.Update--><a href="Update.html" target="_top" title="Update.html" xlink:actuate="onRequest" xlink:href="Update.html" xlink:show="new" xlink:title="Update.html" xlink:type="simple"><g id="elem_org.vorpal.blade.services.crud2.rules.Update"><rect codeLine="5" fill="#F1F1F1" height="202.6602" id="org.vorpal.blade.services.crud2.rules.Update" rx="2.5" ry="2.5" style="stroke:#181818;stroke-width:0.5;" width="401" x="152" y="129.75"/><ellipse cx="259.25" cy="148.8828" fill="#ADD1B2" rx="11" ry="11" style="stroke:#181818;stroke-width:1.0;"/><path d="M261.7231,155.0259 Q261.1421,155.3247 260.5029,155.4741 Q259.8638,155.6235 259.1582,155.6235 Q256.6514,155.6235 255.3315,153.9717 Q254.0117,152.3198 254.0117,149.1987 Q254.0117,146.0693 255.3315,144.4175 Q256.6514,142.7656 259.1582,142.7656 Q259.8638,142.7656 260.5112,142.915 Q261.1587,143.0645 261.7231,143.3633 L261.7231,146.0859 Q261.0923,145.5049 260.4988,145.2351 Q259.9053,144.9653 259.2744,144.9653 Q257.9297,144.9653 257.2449,146.032 Q256.5601,147.0986 256.5601,149.1987 Q256.5601,151.2905 257.2449,152.3572 Q257.9297,153.4238 259.2744,153.4238 Q259.9053,153.4238 260.4988,153.1541 Q261.0923,152.8843 261.7231,152.3032 Z " fill="#000000"/><text fill="#000000" font-family="sans-serif" font-size="14" lengthAdjust="spacing" textLength="49" x="344.25" y="148.2852">Update</text><text fill="#000000" font-family="sans-serif" font-size="10" lengthAdjust="spacing" textLength="178" x="279.75" y="160.9063">org.vorpal.blade.services.crud2.rules</text><line style="stroke:#181818;stroke-width:0.5;" x1="153" x2="552" y1="168.0156" y2="168.0156"/><rect fill="none" height="6" style="stroke:#C82930;stroke-width:1.0;" width="6" x="160" y="178.7598"/><text fill="#000000" font-family="sans-serif" font-size="14" lengthAdjust="spacing" textLength="114" x="172" y="185.5508">_pattern: Pattern</text><rect fill="none" height="6" style="stroke:#C82930;stroke-width:1.0;" width="6" x="160" y="195.248"/><text fill="#000000" font-family="sans-serif" font-size="14" lengthAdjust="spacing" textLength="73" x="172" y="202.0391">_p: Pattern</text><ellipse cx="163" cy="214.7363" fill="none" rx="3" ry="3" style="stroke:#038048;stroke-width:1.0;"/><text fill="#000000" font-family="sans-serif" font-size="14" lengthAdjust="spacing" textLength="62" x="172" y="218.5273">id: String</text><ellipse cx="163" cy="231.2246" fill="none" rx="3" ry="3" style="stroke:#038048;stroke-width:1.0;"/><text fill="#000000" font-family="sans-serif" font-size="14" lengthAdjust="spacing" textLength="108" x="172" y="235.0156">attribute: String</text><ellipse cx="163" cy="247.7129" fill="none" rx="3" ry="3" style="stroke:#038048;stroke-width:1.0;"/><text fill="#000000" font-family="sans-serif" font-size="14" lengthAdjust="spacing" textLength="134" x="172" y="251.5039">replacement: String</text><ellipse cx="163" cy="264.2012" fill="none" rx="3" ry="3" style="stroke:#038048;stroke-width:1.0;"/><text fill="#000000" font-family="sans-serif" font-size="14" lengthAdjust="spacing" textLength="99" x="172" y="267.9922">pattern: String</text><line style="stroke:#181818;stroke-width:0.5;" x1="153" x2="552" y1="274.9453" y2="274.9453"/><ellipse cx="163" cy="288.6895" fill="#84BE84" rx="3" ry="3" style="stroke:#038048;stroke-width:1.0;"/><text fill="#000000" font-family="sans-serif" font-size="14" lengthAdjust="spacing" textLength="59" x="172" y="292.4805">Update()</text><ellipse cx="163" cy="305.1777" fill="#84BE84" rx="3" ry="3" style="stroke:#038048;stroke-width:1.0;"/><text fill="#000000" font-family="sans-serif" font-size="14" lengthAdjust="spacing" textLength="198" x="172" y="308.9688">Update(String, String, String)</text><ellipse cx="163" cy="321.666" fill="#84BE84" rx="3" ry="3" style="stroke:#038048;stroke-width:1.0;"/><text fill="#000000" font-family="sans-serif" font-size="14" lengthAdjust="spacing" textLength="375" x="172" y="325.457">process(Map&lt;String, String&gt;, SipServletMessage): void</text></g></a><!--class org.vorpal.blade.services.crud2.rules.Rule--><a href="Rule.html" target="_top" title="Rule.html" xlink:actuate="onRequest" xlink:href="Rule.html" xlink:show="new" xlink:title="Rule.html" xlink:type="simple"><g id="elem_org.vorpal.blade.services.crud2.rules.Rule"><rect codeLine="17" fill="#F1F1F1" height="62.7539" id="org.vorpal.blade.services.crud2.rules.Rule" rx="2.5" ry="2.5" style="stroke:#181818;stroke-width:0.5;" width="401" x="7" y="7"/><ellipse cx="114.25" cy="26.1328" fill="#A9DCDF" rx="11" ry="11" style="stroke:#181818;stroke-width:1.0;"/><path d="M114.1133,21.481 L112.9595,26.5527 L115.2754,26.5527 Z M112.6191,19.2397 L115.6157,19.2397 L118.9609,31.6328 L116.5122,31.6328 L115.7485,28.5698 L112.4697,28.5698 L111.7227,31.6328 L109.2739,31.6328 Z " fill="#000000"/><text fill="#000000" font-family="sans-serif" font-size="14" font-style="italic" lengthAdjust="spacing" textLength="30" x="208.75" y="25.5352">Rule</text><text fill="#000000" font-family="sans-serif" font-size="10" font-style="italic" lengthAdjust="spacing" textLength="178" x="134.75" y="38.1563">org.vorpal.blade.services.crud2.rules</text><line style="stroke:#181818;stroke-width:0.5;" x1="8" x2="407" y1="45.2656" y2="45.2656"/><ellipse cx="18" cy="59.0098" fill="#84BE84" rx="3" ry="3" style="stroke:#038048;stroke-width:1.0;"/><text fill="#000000" font-family="sans-serif" font-size="14" font-style="italic" lengthAdjust="spacing" textLength="375" x="27" y="62.8008">process(Map&lt;String, String&gt;, SipServletMessage): void</text></g></a><!--class java.io.Serializable--><a href="https://docs.oracle.com/en/java/javase/11/docs/api/java.base/java/io/Serializable.html?is-external=true" target="_top" title="https://docs.oracle.com/en/java/javase/11/docs/api/java.base/java/io/Serializable.html?is-external=true" xlink:actuate="onRequest" xlink:href="https://docs.oracle.com/en/java/javase/11/docs/api/java.base/java/io/Serializable.html?is-external=true" xlink:show="new" xlink:title="https://docs.oracle.com/en/java/javase/11/docs/api/java.base/java/io/Serializable.html?is-external=true" xlink:type="simple"><g id="elem_java.io.Serializable"><rect codeLine="20" fill="#F1F1F1" height="38.2656" id="java.io.Serializable" rx="2.5" ry="2.5" style="stroke:#181818;stroke-width:0.5;" width="111" x="443" y="19.24"/><ellipse cx="458" cy="38.3728" fill="#B4A7E5" rx="11" ry="11" style="stroke:#181818;stroke-width:1.0;"/><path d="M454.4277,34.6379 L454.4277,32.4797 L461.8071,32.4797 L461.8071,34.6379 L459.3418,34.6379 L459.3418,42.7146 L461.8071,42.7146 L461.8071,44.8728 L454.4277,44.8728 L454.4277,42.7146 L456.8931,42.7146 L456.8931,34.6379 Z " fill="#000000"/><text fill="#000000" font-family="sans-serif" font-size="14" font-style="italic" lengthAdjust="spacing" textLength="79" x="472" y="37.7752">Serializable</text><text fill="#000000" font-family="sans-serif" font-size="10" font-style="italic" lengthAdjust="spacing" textLength="32" x="495.5" y="50.3963">java.io</text></g></a><!--reverse link org.vorpal.blade.services.crud2.rules.Rule to org.vorpal.blade.services.crud2.rules.Update--><g id="link_org.vorpal.blade.services.crud2.rules.Rule_org.vorpal.blade.services.crud2.rules.Update"><path codeLine="22" d="M241.6933,84.3396 C254.1833,100.7696 259.46,107.71 275.92,129.36 " fill="none" id="org.vorpal.blade.services.crud2.rules.Rule-backto-org.vorpal.blade.services.crud2.rules.Update" style="stroke:#181818;stroke-width:1.0;"/><polygon fill="none" points="230.8,70.01,236.9167,87.9707,246.4698,80.7085,230.8,70.01" style="stroke:#181818;stroke-width:1.0;"/></g><!--reverse link java.io.Serializable to org.vorpal.blade.services.crud2.rules.Update--><g id="link_java.io.Serializable_org.vorpal.blade.services.crud2.rules.Update"><path codeLine="23" d="M473.5579,71.9523 C460.4279,89.1023 450.63,101.91 429.44,129.58 " fill="none" id="java.io.Serializable-backto-org.vorpal.blade.services.crud2.rules.Update" style="stroke:#181818;stroke-width:1.0;stroke-dasharray:7.0,7.0;"/><polygon fill="none" points="484.5,57.66,468.7938,68.3049,478.322,75.5997,484.5,57.66" style="stroke:#181818;stroke-width:1.0;"/></g><text fill="#888888" font-family="sans-serif" font-size="10" lengthAdjust="spacing" textLength="176" x="185.5" y="348.0781">UMLDoclet 2.1.2, PlantUML 1.2024.3</text><!--SRC=[jLDDRzim3BtlLn051YHO8o_1JaQMNNPSW691Jrqmq3QJQ90bGMAChH__VPJSRawzmuAYFaZ4uwD4lcS104HYiDXIz5ZJXZm6P1V0Eajl90q7tH1Gw_aNx3IP9Zv7M-A34pZZjS4OuM8PzIsLym-hQzyWqpVx2BnVkR1NdGiUZQeCDgGYXKxN55KTZir2XQEXU04OuR-Oghy0RcxwG1suDTijtELkqZVxxf6PWYtXgW-6gJ7uJZSbR3Xek_-B2IVewiWqJWNoHfHhoV8u-UVgvuc-sybqXFJ4IpZT1pmVd6WG9slqorFIIWBjDwAI8LuB1_SqBQ5pkidb3xr5M4KEMFF8gwyYw2iwbOuNdz8sTkdkgQk7bqsOLcr5yvruCfXDQZGQVOlLoOm_i4EbNPxYCLP3glHxOFQnB8h6rL4vQL7QhrrRa2rIHLuY5VDvPXJeTOPKbT3CqAuOdfc7_wJZZ7wcVmFDHmv7scvxTyxGSda_cvtrIl85_nnpUQ_K-KVLb9I6dNDfkrv_-Un47OQ5cgl59LmPj2melEqeHEtiPFeR]--></g></svg>