<?xml version="1.0" encoding="us-ascii" standalone="no"?><svg xmlns="http://www.w3.org/2000/svg" xmlns:xlink="http://www.w3.org/1999/xlink" contentStyleType="text/css" height="453px" preserveAspectRatio="none" style="width:624px;height:453px;background:#FFFFFF;" version="1.1" viewBox="0 0 624 453" width="624px" zoomAndPan="magnify"><defs/><g><!--cluster org.vorpal.blade.services.transfer.api.v1--><g id="cluster_org.vorpal.blade.services.transfer.api.v1"><path d="M8.5,6 L289.5,6 A3.75,3.75 0 0 1 292,8.5 L299,28.4883 L614.5,28.4883 A2.5,2.5 0 0 1 617,30.9883 L617,425.36 A2.5,2.5 0 0 1 614.5,427.86 L8.5,427.86 A2.5,2.5 0 0 1 6,425.36 L6,8.5 A2.5,2.5 0 0 1 8.5,6 " fill="none" style="stroke:#000000;stroke-width:1.5;"/><line style="stroke:#000000;stroke-width:1.5;" x1="6" x2="299" y1="28.4883" y2="28.4883"/><text fill="#000000" font-family="sans-serif" font-size="14" font-weight="bold" lengthAdjust="spacing" textLength="280" x="10" y="21.5352">org.vorpal.blade.services.transfer.api.v1</text></g><!--class Session--><a href="Session.html" target="_top" title="Session.html" xlink:actuate="onRequest" xlink:href="Session.html" xlink:show="new" xlink:title="Session.html" xlink:type="simple"><g id="elem_Session"><rect codeLine="5" fill="#F1F1F1" height="80.9766" id="Session" rx="2.5" ry="2.5" style="stroke:#181818;stroke-width:0.5;" width="239" x="21.5" y="57.49"/><ellipse cx="110.75" cy="73.49" fill="#ADD1B2" rx="11" ry="11" style="stroke:#181818;stroke-width:1.0;"/><path d="M113.2231,79.6331 Q112.6421,79.9319 112.0029,80.0813 Q111.3638,80.2307 110.6582,80.2307 Q108.1514,80.2307 106.8315,78.5789 Q105.5117,76.927 105.5117,73.8059 Q105.5117,70.6765 106.8315,69.0247 Q108.1514,67.3728 110.6582,67.3728 Q111.3638,67.3728 112.0112,67.5222 Q112.6587,67.6716 113.2231,67.9705 L113.2231,70.6931 Q112.5923,70.1121 111.9988,69.8423 Q111.4053,69.5725 110.7744,69.5725 Q109.4297,69.5725 108.7449,70.6392 Q108.0601,71.7058 108.0601,73.8059 Q108.0601,75.8977 108.7449,76.9644 Q109.4297,78.031 110.7744,78.031 Q111.4053,78.031 111.9988,77.7612 Q112.5923,77.4915 113.2231,76.9104 Z " fill="#000000"/><text fill="#000000" font-family="sans-serif" font-size="14" lengthAdjust="spacing" textLength="52" x="131.25" y="78.781">Session</text><line style="stroke:#181818;stroke-width:0.5;" x1="22.5" x2="259.5" y1="89.49" y2="89.49"/><ellipse cx="32.5" cy="103.2341" fill="none" rx="3" ry="3" style="stroke:#038048;stroke-width:1.0;"/><text fill="#000000" font-family="sans-serif" font-size="14" lengthAdjust="spacing" textLength="113" x="41.5" y="107.0252">sessionId: String</text><line style="stroke:#181818;stroke-width:0.5;" x1="22.5" x2="259.5" y1="113.9783" y2="113.9783"/><ellipse cx="32.5" cy="127.7224" fill="#84BE84" rx="3" ry="3" style="stroke:#038048;stroke-width:1.0;"/><text fill="#000000" font-family="sans-serif" font-size="14" lengthAdjust="spacing" textLength="213" x="41.5" y="131.5134">Session(SipApplicationSession)</text></g></a><!--class TransferService--><a href="TransferService.html" target="_top" title="TransferService.html" xlink:actuate="onRequest" xlink:href="TransferService.html" xlink:show="new" xlink:title="TransferService.html" xlink:type="simple"><g id="elem_TransferService"><rect codeLine="10" fill="#F1F1F1" height="113.9531" id="TransferService" rx="2.5" ry="2.5" style="stroke:#181818;stroke-width:0.5;" width="306" x="295" y="41"/><ellipse cx="390.75" cy="57" fill="#ADD1B2" rx="11" ry="11" style="stroke:#181818;stroke-width:1.0;"/><path d="M393.2231,63.1431 Q392.6421,63.4419 392.0029,63.5913 Q391.3638,63.7407 390.6582,63.7407 Q388.1514,63.7407 386.8315,62.0889 Q385.5117,60.437 385.5117,57.3159 Q385.5117,54.1865 386.8315,52.5347 Q388.1514,50.8828 390.6582,50.8828 Q391.3638,50.8828 392.0112,51.0322 Q392.6587,51.1816 393.2231,51.4805 L393.2231,54.2031 Q392.5923,53.6221 391.9988,53.3523 Q391.4053,53.0825 390.7744,53.0825 Q389.4297,53.0825 388.7449,54.1492 Q388.0601,55.2158 388.0601,57.3159 Q388.0601,59.4077 388.7449,60.4744 Q389.4297,61.541 390.7744,61.541 Q391.4053,61.541 391.9988,61.2712 Q392.5923,61.0015 393.2231,60.4204 Z " fill="#000000"/><text fill="#000000" font-family="sans-serif" font-size="14" lengthAdjust="spacing" textLength="106" x="411.25" y="62.291">TransferService</text><line style="stroke:#181818;stroke-width:0.5;" x1="296" x2="600" y1="73" y2="73"/><rect fill="none" height="6" style="stroke:#C82930;stroke-width:1.0;" width="6" x="303" y="83.7441"/><text fill="#000000" font-family="sans-serif" font-size="14" lengthAdjust="spacing" text-decoration="underline" textLength="124" x="315" y="90.5352">sipLogger: Logger</text><rect fill="none" height="6" style="stroke:#C82930;stroke-width:1.0;" width="6" x="303" y="100.2324"/><text fill="#000000" font-family="sans-serif" font-size="14" lengthAdjust="spacing" text-decoration="underline" textLength="154" x="315" y="107.0234">sipUtil: SipSessionsUtil</text><rect fill="none" height="6" style="stroke:#C82930;stroke-width:1.0;" width="6" x="303" y="116.7207"/><text fill="#000000" font-family="sans-serif" font-size="14" lengthAdjust="spacing" text-decoration="underline" textLength="149" x="315" y="123.5117">sipFactory: SipFactory</text><line style="stroke:#181818;stroke-width:0.5;" x1="296" x2="600" y1="130.4648" y2="130.4648"/><ellipse cx="306" cy="144.209" fill="#84BE84" rx="3" ry="3" style="stroke:#038048;stroke-width:1.0;"/><text fill="#000000" font-family="sans-serif" font-size="14" lengthAdjust="spacing" textLength="280" x="315" y="148">getSessionInformation(String): Response</text></g></a><!--class Dialog--><a href="Dialog.html" target="_top" title="Dialog.html" xlink:actuate="onRequest" xlink:href="Dialog.html" xlink:show="new" xlink:title="Dialog.html" xlink:type="simple"><g id="elem_Dialog"><rect codeLine="17" fill="#F1F1F1" height="179.9063" id="Dialog" rx="2.5" ry="2.5" style="stroke:#181818;stroke-width:0.5;" width="241" x="21.5" y="231.95"/><ellipse cx="115.75" cy="247.95" fill="#ADD1B2" rx="11" ry="11" style="stroke:#181818;stroke-width:1.0;"/><path d="M118.2231,254.0931 Q117.6421,254.3919 117.0029,254.5413 Q116.3638,254.6907 115.6582,254.6907 Q113.1514,254.6907 111.8315,253.0389 Q110.5117,251.387 110.5117,248.2659 Q110.5117,245.1365 111.8315,243.4847 Q113.1514,241.8328 115.6582,241.8328 Q116.3638,241.8328 117.0112,241.9822 Q117.6587,242.1316 118.2231,242.4305 L118.2231,245.1531 Q117.5923,244.5721 116.9988,244.3023 Q116.4053,244.0325 115.7744,244.0325 Q114.4297,244.0325 113.7449,245.0992 Q113.0601,246.1658 113.0601,248.2659 Q113.0601,250.3577 113.7449,251.4244 Q114.4297,252.491 115.7744,252.491 Q116.4053,252.491 116.9988,252.2212 Q117.5923,251.9515 118.2231,251.3704 Z " fill="#000000"/><text fill="#000000" font-family="sans-serif" font-size="14" lengthAdjust="spacing" textLength="44" x="136.25" y="253.241">Dialog</text><line style="stroke:#181818;stroke-width:0.5;" x1="22.5" x2="261.5" y1="263.95" y2="263.95"/><ellipse cx="32.5" cy="277.6941" fill="none" rx="3" ry="3" style="stroke:#038048;stroke-width:1.0;"/><text fill="#000000" font-family="sans-serif" font-size="14" lengthAdjust="spacing" textLength="62" x="41.5" y="281.4852">id: String</text><ellipse cx="32.5" cy="294.1824" fill="none" rx="3" ry="3" style="stroke:#038048;stroke-width:1.0;"/><text fill="#000000" font-family="sans-serif" font-size="14" lengthAdjust="spacing" textLength="98" x="41.5" y="297.9734">remote: String</text><ellipse cx="32.5" cy="310.6707" fill="none" rx="3" ry="3" style="stroke:#038048;stroke-width:1.0;"/><text fill="#000000" font-family="sans-serif" font-size="14" lengthAdjust="spacing" textLength="82" x="41.5" y="314.4617">state: String</text><ellipse cx="32.5" cy="327.159" fill="none" rx="3" ry="3" style="stroke:#038048;stroke-width:1.0;"/><text fill="#000000" font-family="sans-serif" font-size="14" lengthAdjust="spacing" textLength="121" x="41.5" y="330.95">subscriber: String</text><ellipse cx="32.5" cy="343.6473" fill="none" rx="3" ry="3" style="stroke:#038048;stroke-width:1.0;"/><text fill="#000000" font-family="sans-serif" font-size="14" lengthAdjust="spacing" textLength="107" x="41.5" y="347.4383">protocol: String</text><ellipse cx="32.5" cy="360.1355" fill="none" rx="3" ry="3" style="stroke:#038048;stroke-width:1.0;"/><text fill="#000000" font-family="sans-serif" font-size="14" lengthAdjust="spacing" textLength="215" x="41.5" y="363.9266">attributes: Map&lt;String, String&gt;</text><line style="stroke:#181818;stroke-width:0.5;" x1="22.5" x2="261.5" y1="370.8797" y2="370.8797"/><ellipse cx="32.5" cy="384.6238" fill="#84BE84" rx="3" ry="3" style="stroke:#038048;stroke-width:1.0;"/><text fill="#000000" font-family="sans-serif" font-size="14" lengthAdjust="spacing" textLength="127" x="41.5" y="388.4148">Dialog(SipSession)</text><ellipse cx="32.5" cy="401.1121" fill="#84BE84" rx="3" ry="3" style="stroke:#038048;stroke-width:1.0;"/><text fill="#000000" font-family="sans-serif" font-size="14" lengthAdjust="spacing" textLength="135" x="41.5" y="404.9031">Dialog(HttpSession)</text></g></a><!--link Session to Dialog--><g id="link_Session_Dialog"><path codeLine="30" d="M141.18,138.91 C141.3,164.74 141.422,193.4401 141.572,225.6001 " fill="none" id="Session-to-Dialog" style="stroke:#181818;stroke-width:1.0;"/><polygon fill="#181818" points="141.6,231.6,145.558,222.5814,141.5767,226.6001,137.5581,222.6188,141.6,231.6" style="stroke:#181818;stroke-width:1.0;"/><text fill="#000000" font-family="sans-serif" font-size="13" lengthAdjust="spacing" textLength="46" x="142.44" y="198.5184">dialogs</text><text fill="#000000" font-family="sans-serif" font-size="13" lengthAdjust="spacing" textLength="6" x="135.3184" y="221.0819">*</text></g><text fill="#888888" font-family="sans-serif" font-size="10" lengthAdjust="spacing" textLength="176" x="217" y="443.528">UMLDoclet 2.1.2, PlantUML 1.2024.3</text><!--SRC=[bLFVQy8m47xthpY4WTqqe8zX20CP4nJ6Ef_4XpIUNLXiGd8AG_pVbpRP3wM5BL3kUjztkU-E2m20HmgV5KwGSS1vhnU2O8Ly5oM2SIKx6cU5PeKMMsGUtL59z8oSgFmE7HDMiUCOJZ6nFb8Bxo57xvMfOBrE7dkZlTvi0XD-dJiVqVcMGqvELUKbd987kR8Frceb1ONV5Cs-kUVhygz9Nnu51nbNaNOv9q-XW3p3o2kxC6M9ZaEqtRmLAHtKAvja-JhGJNyKCipweyb8_cNF9LAwQLxjZDitBG_YT38EB-XjA8BTpS-KqAOCFKUdO_AgO-GEzuQm7Qlxw88EXPTE5VN4sd3h31bfT3igA0IB0w7di1JsFdA6YJkz9CUs1ZyJprhn9oBRjId9_7d1EVzQwD5e2ltR_dzIenuEsyRwfhB4Yj31pfZQh9QBcP4wFCO96xF949wrg2X4uUQ8hda1sIS0]--></g></svg>