<?xml version="1.0" encoding="us-ascii" standalone="no"?><svg xmlns="http://www.w3.org/2000/svg" xmlns:xlink="http://www.w3.org/1999/xlink" contentStyleType="text/css" height="137px" preserveAspectRatio="none" style="width:260px;height:137px;background:#FFFFFF;" version="1.1" viewBox="0 0 260 137" width="260px" zoomAndPan="magnify"><defs/><g><!--class org.vorpal.blade.services.transfer.api.v1.Session--><a href="Session.html" target="_top" title="Session.html" xlink:actuate="onRequest" xlink:href="Session.html" xlink:show="new" xlink:title="Session.html" xlink:type="simple"><g id="elem_org.vorpal.blade.services.transfer.api.v1.Session"><rect codeLine="5" fill="#F1F1F1" height="103.7305" id="org.vorpal.blade.services.transfer.api.v1.Session" rx="2.5" ry="2.5" style="stroke:#181818;stroke-width:0.5;" width="239" x="7" y="7"/><ellipse cx="27.4" cy="26.1328" fill="#ADD1B2" rx="11" ry="11" style="stroke:#181818;stroke-width:1.0;"/><path d="M29.8731,32.2759 Q29.2921,32.5747 28.6529,32.7241 Q28.0138,32.8735 27.3082,32.8735 Q24.8014,32.8735 23.4815,31.2217 Q22.1617,29.5698 22.1617,26.4487 Q22.1617,23.3193 23.4815,21.6675 Q24.8014,20.0156 27.3082,20.0156 Q28.0138,20.0156 28.6612,20.165 Q29.3087,20.3145 29.8731,20.6133 L29.8731,23.3359 Q29.2423,22.7549 28.6488,22.4851 Q28.0553,22.2153 27.4244,22.2153 Q26.0797,22.2153 25.3949,23.282 Q24.7101,24.3486 24.7101,26.4487 Q24.7101,28.5405 25.3949,29.6072 Q26.0797,30.6738 27.4244,30.6738 Q28.0553,30.6738 28.6488,30.4041 Q29.2423,30.1343 29.8731,29.5532 Z " fill="#000000"/><text fill="#000000" font-family="sans-serif" font-size="14" lengthAdjust="spacing" textLength="52" x="114.1" y="25.5352">Session</text><text fill="#000000" font-family="sans-serif" font-size="10" lengthAdjust="spacing" textLength="195" x="42.6" y="38.1563">org.vorpal.blade.services.transfer.api.v1</text><line style="stroke:#181818;stroke-width:0.5;" x1="8" x2="245" y1="45.2656" y2="45.2656"/><ellipse cx="18" cy="59.0098" fill="none" rx="3" ry="3" style="stroke:#038048;stroke-width:1.0;"/><text fill="#000000" font-family="sans-serif" font-size="14" lengthAdjust="spacing" textLength="113" x="27" y="62.8008">sessionId: String</text><ellipse cx="18" cy="75.498" fill="none" rx="3" ry="3" style="stroke:#038048;stroke-width:1.0;"/><text fill="#000000" font-family="sans-serif" font-size="14" lengthAdjust="spacing" textLength="147" x="27" y="79.2891">dialogs: List&lt;Dialog&gt;</text><line style="stroke:#181818;stroke-width:0.5;" x1="8" x2="245" y1="86.2422" y2="86.2422"/><ellipse cx="18" cy="99.9863" fill="#84BE84" rx="3" ry="3" style="stroke:#038048;stroke-width:1.0;"/><text fill="#000000" font-family="sans-serif" font-size="14" lengthAdjust="spacing" textLength="213" x="27" y="103.7773">Session(SipApplicationSession)</text></g></a><text fill="#888888" font-family="sans-serif" font-size="10" lengthAdjust="spacing" textLength="176" x="38" y="127.3984">UMLDoclet 2.1.2, PlantUML 1.2024.3</text><!--SRC=[ZP31QiCm38RlUmfH6AnicANi54gWqCkWWq7OgUj1IvH4uDZ64e5jxDtdkeR2JjD5qlUBNq80048A3cUIW1sr532Y-WZEExf9CapS4z0Sz1C69jlBNpgJJZxXp3kB8h3Q2dzHNJqrBOcmT- -kaCV6nz4iFWQqviDYJqOeBjoH68tePA1eCB1PgXMWmB-dJTa4nsEfpAIpFPtWEnzsZdkvACzz3Qr6TkDLwXcj7wM60ujkzxbhhdBnl6ivx4AmtA6cjj1rdlkvF82SKeJ1-tDwUpdiVMVJYpUcCfi7UBNeD56uNIXcn_Kl]--></g></svg>