<?xml version="1.0" encoding="us-ascii" standalone="no"?><svg xmlns="http://www.w3.org/2000/svg" xmlns:xlink="http://www.w3.org/1999/xlink" contentStyleType="text/css" height="300px" preserveAspectRatio="none" style="width:275px;height:300px;background:#FFFFFF;" version="1.1" viewBox="0 0 275 300" width="275px" zoomAndPan="magnify"><defs/><g><!--class org.vorpal.blade.library.fsmar2.AppRouterConfiguration--><a href="AppRouterConfiguration.html" target="_top" title="AppRouterConfiguration.html" xlink:actuate="onRequest" xlink:href="AppRouterConfiguration.html" xlink:show="new" xlink:title="AppRouterConfiguration.html" xlink:type="simple"><g id="elem_org.vorpal.blade.library.fsmar2.AppRouterConfiguration"><rect codeLine="5" fill="#F1F1F1" height="169.6836" id="org.vorpal.blade.library.fsmar2.AppRouterConfiguration" rx="2.5" ry="2.5" style="stroke:#181818;stroke-width:0.5;" width="261" x="7" y="105.27"/><ellipse cx="48.55" cy="124.4028" fill="#ADD1B2" rx="11" ry="11" style="stroke:#181818;stroke-width:1.0;"/><path d="M51.0231,130.5459 Q50.4421,130.8447 49.8029,130.9941 Q49.1638,131.1435 48.4582,131.1435 Q45.9514,131.1435 44.6315,129.4917 Q43.3117,127.8398 43.3117,124.7187 Q43.3117,121.5893 44.6315,119.9375 Q45.9514,118.2856 48.4582,118.2856 Q49.1638,118.2856 49.8112,118.435 Q50.4587,118.5845 51.0231,118.8833 L51.0231,121.6059 Q50.3923,121.0249 49.7988,120.7551 Q49.2053,120.4853 48.5744,120.4853 Q47.2297,120.4853 46.5449,121.552 Q45.8601,122.6186 45.8601,124.7187 Q45.8601,126.8105 46.5449,127.8772 Q47.2297,128.9438 48.5744,128.9438 Q49.2053,128.9438 49.7988,128.6741 Q50.3923,128.4043 51.0231,127.8232 Z " fill="#000000"/><text fill="#000000" font-family="sans-serif" font-size="14" lengthAdjust="spacing" textLength="170" x="68.45" y="123.8052">AppRouterConfiguration</text><text fill="#000000" font-family="sans-serif" font-size="10" lengthAdjust="spacing" textLength="150" x="78.45" y="136.4262">org.vorpal.blade.library.fsmar2</text><line style="stroke:#181818;stroke-width:0.5;" x1="8" x2="267" y1="143.5356" y2="143.5356"/><rect fill="none" height="6" style="stroke:#C82930;stroke-width:1.0;" width="6" x="15" y="154.2798"/><text fill="#000000" font-family="sans-serif" font-size="14" lengthAdjust="spacing" text-decoration="underline" textLength="152" x="27" y="161.0708">serialVersionUID: long</text><ellipse cx="18" cy="173.768" fill="none" rx="3" ry="3" style="stroke:#038048;stroke-width:1.0;"/><text fill="#000000" font-family="sans-serif" font-size="14" lengthAdjust="spacing" textLength="175" x="27" y="177.5591">defaultApplication: String</text><ellipse cx="18" cy="190.2563" fill="none" rx="3" ry="3" style="stroke:#038048;stroke-width:1.0;"/><text fill="#000000" font-family="sans-serif" font-size="14" lengthAdjust="spacing" textLength="235" x="27" y="194.0473">previous: HashMap&lt;String, State&gt;</text><line style="stroke:#181818;stroke-width:0.5;" x1="8" x2="267" y1="201.0005" y2="201.0005"/><ellipse cx="18" cy="214.7446" fill="#84BE84" rx="3" ry="3" style="stroke:#038048;stroke-width:1.0;"/><text fill="#000000" font-family="sans-serif" font-size="14" lengthAdjust="spacing" textLength="173" x="27" y="218.5356">getPrevious(String): State</text><ellipse cx="18" cy="231.2329" fill="#84BE84" rx="3" ry="3" style="stroke:#038048;stroke-width:1.0;"/><text fill="#000000" font-family="sans-serif" font-size="14" lengthAdjust="spacing" textLength="208" x="27" y="235.0239">getDefaultApplication(): String</text><ellipse cx="18" cy="247.7212" fill="#84BE84" rx="3" ry="3" style="stroke:#038048;stroke-width:1.0;"/><text fill="#000000" font-family="sans-serif" font-size="14" lengthAdjust="spacing" textLength="235" x="27" y="251.5122">setDefaultApplication(String): void</text><ellipse cx="18" cy="264.2095" fill="#84BE84" rx="3" ry="3" style="stroke:#038048;stroke-width:1.0;"/><text fill="#000000" font-family="sans-serif" font-size="14" lengthAdjust="spacing" text-decoration="underline" textLength="132" x="27" y="268.0005">main(String[]): void</text></g></a><!--class java.io.Serializable--><a href="https://docs.oracle.com/en/java/javase/11/docs/api/java.base/java/io/Serializable.html?is-external=true" target="_top" title="https://docs.oracle.com/en/java/javase/11/docs/api/java.base/java/io/Serializable.html?is-external=true" xlink:actuate="onRequest" xlink:href="https://docs.oracle.com/en/java/javase/11/docs/api/java.base/java/io/Serializable.html?is-external=true" xlink:show="new" xlink:title="https://docs.oracle.com/en/java/javase/11/docs/api/java.base/java/io/Serializable.html?is-external=true" xlink:type="simple"><g id="elem_java.io.Serializable"><rect codeLine="15" fill="#F1F1F1" height="38.2656" id="java.io.Serializable" rx="2.5" ry="2.5" style="stroke:#181818;stroke-width:0.5;" width="111" x="82" y="7"/><ellipse cx="97" cy="26.1328" fill="#B4A7E5" rx="11" ry="11" style="stroke:#181818;stroke-width:1.0;"/><path d="M93.4277,22.3979 L93.4277,20.2397 L100.8071,20.2397 L100.8071,22.3979 L98.3418,22.3979 L98.3418,30.4746 L100.8071,30.4746 L100.8071,32.6328 L93.4277,32.6328 L93.4277,30.4746 L95.8931,30.4746 L95.8931,22.3979 Z " fill="#000000"/><text fill="#000000" font-family="sans-serif" font-size="14" font-style="italic" lengthAdjust="spacing" textLength="79" x="111" y="25.5352">Serializable</text><text fill="#000000" font-family="sans-serif" font-size="10" font-style="italic" lengthAdjust="spacing" textLength="32" x="134.5" y="38.1563">java.io</text></g></a><!--reverse link java.io.Serializable to org.vorpal.blade.library.fsmar2.AppRouterConfiguration--><g id="link_java.io.Serializable_org.vorpal.blade.library.fsmar2.AppRouterConfiguration"><path codeLine="17" d="M137.5,63.71 C137.5,78.59 137.5,82.59 137.5,104.91 " fill="none" id="java.io.Serializable-backto-org.vorpal.blade.library.fsmar2.AppRouterConfiguration" style="stroke:#181818;stroke-width:1.0;stroke-dasharray:7.0,7.0;"/><polygon fill="none" points="137.5,45.71,131.5,63.71,143.5,63.71,137.5,45.71" style="stroke:#181818;stroke-width:1.0;"/></g><text fill="#888888" font-family="sans-serif" font-size="10" lengthAdjust="spacing" textLength="176" x="42.5" y="290.6216">UMLDoclet 2.1.2, PlantUML 1.2024.3</text><!--SRC=[dP9HYzD04CVV_HJ3WT1oTnjRV0gr8lP1mOF3ShxKF4oJIREosLbsDi6xyxwxcqqzeoq8vY49__djpEpy1m10A835biHXILjow36m1ykMNiGmDBeYeDQ5UwWrcKh-LbiA3KSvwQL14RXOYNwWVF5w_Swvpzm5yk_PrlhGnUIQxLTx15wjsHzKpzwXKNk35IcZznxzlQgbHR-y01Ju1wFE5u7Txdn0DQ4rHG6FgUFXUPGG8-KJN0jvZUOBUOdWtSTD3eRjuHcyhAZ6peIOsEWoPSjX6xoUCivJhxcJ73wWD3VeLYDn5KaCjFvD7YZS7k7PoCpp4Vg3sPmKdSrFoyfPy3bjpxewlV1bY_eNj2kcsDDegBPnV7LSZOcfspGa_O1xGnChls6FIdEoxFYlfcWqf0d1IPvb5PUYs6DfI9NSPcIpuKHw2MMBHI8oT3f9QZ-eYT2SJNCcBzzgkQRliK-Bvatm7HN5sFpPBbO_bFhFbHfNd8QHGCqyVEvkFcquNYF0KYtKyWfk3TeGLNZPZriqc_y4]--></g></svg>