<?xml version="1.0" encoding="us-ascii" standalone="no"?><svg xmlns="http://www.w3.org/2000/svg" xmlns:xlink="http://www.w3.org/1999/xlink" contentStyleType="text/css" height="218px" preserveAspectRatio="none" style="width:362px;height:218px;background:#FFFFFF;" version="1.1" viewBox="0 0 362 218" width="362px" zoomAndPan="magnify"><defs/><g><!--class org.vorpal.blade.library.fsmar2.AppRouterConfigurationSample--><a href="AppRouterConfigurationSample.html" target="_top" title="AppRouterConfigurationSample.html" xlink:actuate="onRequest" xlink:href="AppRouterConfigurationSample.html" xlink:show="new" xlink:title="AppRouterConfigurationSample.html" xlink:type="simple"><g id="elem_org.vorpal.blade.library.fsmar2.AppRouterConfigurationSample"><rect codeLine="5" fill="#F1F1F1" height="87.2422" id="org.vorpal.blade.library.fsmar2.AppRouterConfigurationSample" rx="2.5" ry="2.5" style="stroke:#181818;stroke-width:0.5;" width="252" x="78" y="105.27"/><ellipse cx="93" cy="124.4028" fill="#ADD1B2" rx="11" ry="11" style="stroke:#181818;stroke-width:1.0;"/><path d="M95.4731,130.5459 Q94.8921,130.8447 94.2529,130.9941 Q93.6138,131.1435 92.9082,131.1435 Q90.4014,131.1435 89.0815,129.4917 Q87.7617,127.8398 87.7617,124.7187 Q87.7617,121.5893 89.0815,119.9375 Q90.4014,118.2856 92.9082,118.2856 Q93.6138,118.2856 94.2612,118.435 Q94.9087,118.5845 95.4731,118.8833 L95.4731,121.6059 Q94.8423,121.0249 94.2488,120.7551 Q93.6553,120.4853 93.0244,120.4853 Q91.6797,120.4853 90.9949,121.552 Q90.3101,122.6186 90.3101,124.7187 Q90.3101,126.8105 90.9949,127.8772 Q91.6797,128.9438 93.0244,128.9438 Q93.6553,128.9438 94.2488,128.6741 Q94.8423,128.4043 95.4731,127.8232 Z " fill="#000000"/><text fill="#000000" font-family="sans-serif" font-size="14" lengthAdjust="spacing" textLength="220" x="107" y="123.8052">AppRouterConfigurationSample</text><text fill="#000000" font-family="sans-serif" font-size="10" lengthAdjust="spacing" textLength="150" x="142" y="136.4262">org.vorpal.blade.library.fsmar2</text><line style="stroke:#181818;stroke-width:0.5;" x1="79" x2="329" y1="143.5356" y2="143.5356"/><rect fill="none" height="6" style="stroke:#C82930;stroke-width:1.0;" width="6" x="86" y="154.2798"/><text fill="#000000" font-family="sans-serif" font-size="14" lengthAdjust="spacing" text-decoration="underline" textLength="152" x="98" y="161.0708">serialVersionUID: long</text><line style="stroke:#181818;stroke-width:0.5;" x1="79" x2="329" y1="168.0239" y2="168.0239"/><ellipse cx="89" cy="181.768" fill="#84BE84" rx="3" ry="3" style="stroke:#038048;stroke-width:1.0;"/><text fill="#000000" font-family="sans-serif" font-size="14" lengthAdjust="spacing" text-decoration="underline" textLength="132" x="98" y="185.5591">main(String[]): void</text></g></a><!--class org.vorpal.blade.library.fsmar2.AppRouterConfiguration--><a href="AppRouterConfiguration.html" target="_top" title="AppRouterConfiguration.html" xlink:actuate="onRequest" xlink:href="AppRouterConfiguration.html" xlink:show="new" xlink:title="AppRouterConfiguration.html" xlink:type="simple"><g id="elem_org.vorpal.blade.library.fsmar2.AppRouterConfiguration"><rect codeLine="10" fill="#F1F1F1" height="38.2656" id="org.vorpal.blade.library.fsmar2.AppRouterConfiguration" rx="2.5" ry="2.5" style="stroke:#181818;stroke-width:0.5;" width="202" x="7" y="7"/><ellipse cx="22" cy="26.1328" fill="#ADD1B2" rx="11" ry="11" style="stroke:#181818;stroke-width:1.0;"/><path d="M24.4731,32.2759 Q23.8921,32.5747 23.2529,32.7241 Q22.6138,32.8735 21.9082,32.8735 Q19.4014,32.8735 18.0815,31.2217 Q16.7617,29.5698 16.7617,26.4487 Q16.7617,23.3193 18.0815,21.6675 Q19.4014,20.0156 21.9082,20.0156 Q22.6138,20.0156 23.2612,20.165 Q23.9087,20.3145 24.4731,20.6133 L24.4731,23.3359 Q23.8423,22.7549 23.2488,22.4851 Q22.6553,22.2153 22.0244,22.2153 Q20.6797,22.2153 19.9949,23.282 Q19.3101,24.3486 19.3101,26.4487 Q19.3101,28.5405 19.9949,29.6072 Q20.6797,30.6738 22.0244,30.6738 Q22.6553,30.6738 23.2488,30.4041 Q23.8423,30.1343 24.4731,29.5532 Z " fill="#000000"/><text fill="#000000" font-family="sans-serif" font-size="14" lengthAdjust="spacing" textLength="170" x="36" y="25.5352">AppRouterConfiguration</text><text fill="#000000" font-family="sans-serif" font-size="10" lengthAdjust="spacing" textLength="150" x="46" y="38.1563">org.vorpal.blade.library.fsmar2</text></g></a><!--class java.io.Serializable--><a href="https://docs.oracle.com/en/java/javase/11/docs/api/java.base/java/io/Serializable.html?is-external=true" target="_top" title="https://docs.oracle.com/en/java/javase/11/docs/api/java.base/java/io/Serializable.html?is-external=true" xlink:actuate="onRequest" xlink:href="https://docs.oracle.com/en/java/javase/11/docs/api/java.base/java/io/Serializable.html?is-external=true" xlink:show="new" xlink:title="https://docs.oracle.com/en/java/javase/11/docs/api/java.base/java/io/Serializable.html?is-external=true" xlink:type="simple"><g id="elem_java.io.Serializable"><rect codeLine="11" fill="#F1F1F1" height="38.2656" id="java.io.Serializable" rx="2.5" ry="2.5" style="stroke:#181818;stroke-width:0.5;" width="111" x="244.5" y="7"/><ellipse cx="259.5" cy="26.1328" fill="#B4A7E5" rx="11" ry="11" style="stroke:#181818;stroke-width:1.0;"/><path d="M255.9277,22.3979 L255.9277,20.2397 L263.3071,20.2397 L263.3071,22.3979 L260.8418,22.3979 L260.8418,30.4746 L263.3071,30.4746 L263.3071,32.6328 L255.9277,32.6328 L255.9277,30.4746 L258.3931,30.4746 L258.3931,22.3979 Z " fill="#000000"/><text fill="#000000" font-family="sans-serif" font-size="14" font-style="italic" lengthAdjust="spacing" textLength="79" x="273.5" y="25.5352">Serializable</text><text fill="#000000" font-family="sans-serif" font-size="10" font-style="italic" lengthAdjust="spacing" textLength="32" x="297" y="38.1563">java.io</text></g></a><!--reverse link org.vorpal.blade.library.fsmar2.AppRouterConfiguration to org.vorpal.blade.library.fsmar2.AppRouterConfigurationSample--><g id="link_org.vorpal.blade.library.fsmar2.AppRouterConfiguration_org.vorpal.blade.library.fsmar2.AppRouterConfigurationSample"><path codeLine="13" d="M133.9952,59.827 C146.5152,75.567 153.74,84.66 169.87,104.96 " fill="none" id="org.vorpal.blade.library.fsmar2.AppRouterConfiguration-backto-org.vorpal.blade.library.fsmar2.AppRouterConfigurationSample" style="stroke:#181818;stroke-width:1.0;"/><polygon fill="none" points="122.79,45.74,129.2995,63.5621,138.6908,56.092,122.79,45.74" style="stroke:#181818;stroke-width:1.0;"/></g><!--reverse link java.io.Serializable to org.vorpal.blade.library.fsmar2.AppRouterConfigurationSample--><g id="link_java.io.Serializable_org.vorpal.blade.library.fsmar2.AppRouterConfigurationSample"><path codeLine="14" d="M274.0048,59.827 C261.4848,75.567 254.26,84.66 238.13,104.96 " fill="none" id="java.io.Serializable-backto-org.vorpal.blade.library.fsmar2.AppRouterConfigurationSample" style="stroke:#181818;stroke-width:1.0;stroke-dasharray:7.0,7.0;"/><polygon fill="none" points="285.21,45.74,269.3092,56.092,278.7005,63.5621,285.21,45.74" style="stroke:#181818;stroke-width:1.0;"/></g><text fill="#888888" font-family="sans-serif" font-size="10" lengthAdjust="spacing" textLength="176" x="86.25" y="208.1802">UMLDoclet 2.1.2, PlantUML 1.2024.3</text><!--SRC=[lP9DIyD048Rl_egX8BHeDxPu2hKYzY8eYALUQW_JPDAkR7QMtMsnN__TpTf3_QfemHoIyCwRcJVF3W208myQIt86C-gJGOkUBMZMT1JAC9Kv0PN6Bw2Gf7BtKIt9Jpd8KSyKEWUrZfDBIbldtIjZ7dZcoLwpBkHa5ffBrdqiZQ8dlRMTTTbEn9ojGIN62dCIIeujseKeN8csNGDqy8D7x1i5m-6-ifZwKer6i8h_K5qhvqCzsq3JaPMe7icwO1_Sz59Gh2UVZISbIbtlUolrP3Xgf31dcKVRvZTe_WNAjpYs869UgKEr24knaxaVOSWbZjyTtpFEKKYEYRRlOjSQvaszDovDafmp9zXY5gXdN2Qaa-gBU7EKj5hHaQ2HKHBZIeqEoSbkpnZrKheclOIS6jM5jpCAsMFuFtBfh9lDWnOj3lyIGMSjnE6jCwfE1GhcwZ6uk-rn8EcXBLgYVGht2hKFAXpFtnQstdW5]--></g></svg>