<?xml version="1.0" encoding="us-ascii" standalone="no"?><svg xmlns="http://www.w3.org/2000/svg" xmlns:xlink="http://www.w3.org/1999/xlink" contentStyleType="text/css" height="957px" preserveAspectRatio="none" style="width:3333px;height:957px;background:#FFFFFF;" version="1.1" viewBox="0 0 3333 957" width="3333px" zoomAndPan="magnify"><defs/><g><!--cluster org.vorpal.blade.library.fsmar2--><g id="cluster_org.vorpal.blade.library.fsmar2"><path d="M1222.5,154.48 L1441.5,154.48 A3.75,3.75 0 0 1 1444,156.98 L1451,176.9683 L3051.5,176.9683 A2.5,2.5 0 0 1 3054,179.4683 L3054,929.68 A2.5,2.5 0 0 1 3051.5,932.18 L1222.5,932.18 A2.5,2.5 0 0 1 1220,929.68 L1220,156.98 A2.5,2.5 0 0 1 1222.5,154.48 " fill="none" style="stroke:#000000;stroke-width:1.5;"/><line style="stroke:#000000;stroke-width:1.5;" x1="1220" x2="1451" y1="176.9683" y2="176.9683"/><text fill="#000000" font-family="sans-serif" font-size="14" font-weight="bold" lengthAdjust="spacing" textLength="218" x="1224" y="170.0152">org.vorpal.blade.library.fsmar2</text></g><!--cluster javax.servlet.sip.ar--><g id="cluster_javax.servlet.sip.ar"><path d="M8.5,162.73 L140.5,162.73 A3.75,3.75 0 0 1 143,165.23 L150,185.2183 L1193.5,185.2183 A2.5,2.5 0 0 1 1196,187.7183 L1196,358.16 A2.5,2.5 0 0 1 1193.5,360.66 L8.5,360.66 A2.5,2.5 0 0 1 6,358.16 L6,165.23 A2.5,2.5 0 0 1 8.5,162.73 " fill="none" style="stroke:#000000;stroke-width:1.5;"/><line style="stroke:#000000;stroke-width:1.5;" x1="6" x2="150" y1="185.2183" y2="185.2183"/><text fill="#000000" font-family="sans-serif" font-size="14" font-weight="bold" lengthAdjust="spacing" textLength="131" x="10" y="178.2652">javax.servlet.sip.ar</text></g><!--cluster java.io--><g id="cluster_java.io"><path d="M1962.5,14.24 L2009.5,14.24 A3.75,3.75 0 0 1 2012,16.74 L2019,36.7283 L2101.5,36.7283 A2.5,2.5 0 0 1 2104,39.2283 L2104,110.74 A2.5,2.5 0 0 1 2101.5,113.24 L1962.5,113.24 A2.5,2.5 0 0 1 1960,110.74 L1960,16.74 A2.5,2.5 0 0 1 1962.5,14.24 " fill="none" style="stroke:#000000;stroke-width:1.5;"/><line style="stroke:#000000;stroke-width:1.5;" x1="1960" x2="2019" y1="36.7283" y2="36.7283"/><text fill="#000000" font-family="sans-serif" font-size="14" font-weight="bold" lengthAdjust="spacing" textLength="46" x="1964" y="29.7752">java.io</text></g><!--cluster javax.servlet.sip.ar.spi--><g id="cluster_javax.servlet.sip.ar.spi"><path d="M2940.5,6 L3097.5,6 A3.75,3.75 0 0 1 3100,8.5 L3107,28.4883 L3323.5,28.4883 A2.5,2.5 0 0 1 3326,30.9883 L3326,118.98 A2.5,2.5 0 0 1 3323.5,121.48 L2940.5,121.48 A2.5,2.5 0 0 1 2938,118.98 L2938,8.5 A2.5,2.5 0 0 1 2940.5,6 " fill="none" style="stroke:#000000;stroke-width:1.5;"/><line style="stroke:#000000;stroke-width:1.5;" x1="2938" x2="3107" y1="28.4883" y2="28.4883"/><text fill="#000000" font-family="sans-serif" font-size="14" font-weight="bold" lengthAdjust="spacing" textLength="156" x="2942" y="21.5352">javax.servlet.sip.ar.spi</text></g><!--class AppRouter--><a href="AppRouter.html" target="_top" title="AppRouter.html" xlink:actuate="onRequest" xlink:href="AppRouter.html" xlink:show="new" xlink:title="AppRouter.html" xlink:type="simple"><g id="elem_AppRouter"><rect codeLine="5" fill="#F1F1F1" height="229.3711" id="AppRouter" rx="2.5" ry="2.5" style="stroke:#181818;stroke-width:0.5;" width="1159" x="1235.5" y="438.15"/><ellipse cx="1773.75" cy="454.15" fill="#ADD1B2" rx="11" ry="11" style="stroke:#181818;stroke-width:1.0;"/><path d="M1776.2231,460.2931 Q1775.6421,460.5919 1775.0029,460.7413 Q1774.3638,460.8907 1773.6582,460.8907 Q1771.1514,460.8907 1769.8315,459.2389 Q1768.5117,457.587 1768.5117,454.4659 Q1768.5117,451.3365 1769.8315,449.6847 Q1771.1514,448.0328 1773.6582,448.0328 Q1774.3638,448.0328 1775.0112,448.1822 Q1775.6587,448.3316 1776.2231,448.6305 L1776.2231,451.3531 Q1775.5923,450.7721 1774.9988,450.5023 Q1774.4053,450.2325 1773.7744,450.2325 Q1772.4297,450.2325 1771.7449,451.2992 Q1771.0601,452.3658 1771.0601,454.4659 Q1771.0601,456.5577 1771.7449,457.6244 Q1772.4297,458.691 1773.7744,458.691 Q1774.4053,458.691 1774.9988,458.4212 Q1775.5923,458.1515 1776.2231,457.5704 Z " fill="#000000"/><text fill="#000000" font-family="sans-serif" font-size="14" lengthAdjust="spacing" textLength="74" x="1794.25" y="459.441">AppRouter</text><line style="stroke:#181818;stroke-width:0.5;" x1="1236.5" x2="2393.5" y1="470.15" y2="470.15"/><polygon fill="none" points="1246.5,478.8941,1250.5,482.8941,1246.5,486.8941,1242.5,482.8941" style="stroke:#B38D22;stroke-width:1.0;"/><text fill="#000000" font-family="sans-serif" font-size="14" lengthAdjust="spacing" text-decoration="underline" textLength="96" x="1255.5" y="487.6852">FSMAR: String</text><ellipse cx="1246.5" cy="500.3824" fill="none" rx="3" ry="3" style="stroke:#038048;stroke-width:1.0;"/><text fill="#000000" font-family="sans-serif" font-size="14" lengthAdjust="spacing" text-decoration="underline" textLength="124" x="1255.5" y="504.1734">sipLogger: Logger</text><rect fill="none" height="6" style="stroke:#C82930;stroke-width:1.0;" width="6" x="1243.5" y="513.8707"/><text fill="#000000" font-family="sans-serif" font-size="14" lengthAdjust="spacing" text-decoration="underline" textLength="429" x="1255.5" y="520.6617">settingsManager: SettingsManager&lt;AppRouterConfiguration&gt;</text><polygon fill="none" points="1246.5,528.359,1250.5,532.359,1246.5,536.359,1242.5,532.359" style="stroke:#B38D22;stroke-width:1.0;"/><text fill="#000000" font-family="sans-serif" font-size="14" lengthAdjust="spacing" text-decoration="underline" textLength="246" x="1255.5" y="537.15">deployed: HashMap&lt;String, String&gt;</text><line style="stroke:#181818;stroke-width:0.5;" x1="1236.5" x2="2393.5" y1="544.1031" y2="544.1031"/><ellipse cx="1246.5" cy="557.8473" fill="#84BE84" rx="3" ry="3" style="stroke:#038048;stroke-width:1.0;"/><text fill="#000000" font-family="sans-serif" font-size="14" lengthAdjust="spacing" textLength="69" x="1255.5" y="561.6383">init(): void</text><ellipse cx="1246.5" cy="574.3355" fill="#84BE84" rx="3" ry="3" style="stroke:#038048;stroke-width:1.0;"/><text fill="#000000" font-family="sans-serif" font-size="14" lengthAdjust="spacing" textLength="139" x="1255.5" y="578.1266">init(Properties): void</text><ellipse cx="1246.5" cy="590.8238" fill="#84BE84" rx="3" ry="3" style="stroke:#038048;stroke-width:1.0;"/><text fill="#000000" font-family="sans-serif" font-size="14" lengthAdjust="spacing" textLength="1133" x="1255.5" y="594.6148">getNextApplication(SipServletRequest, SipApplicationRoutingRegion, SipApplicationRoutingDirective, SipTargetedRequestInfo, Serializable): SipApplicationRouterInfo</text><ellipse cx="1246.5" cy="607.3121" fill="#84BE84" rx="3" ry="3" style="stroke:#038048;stroke-width:1.0;"/><text fill="#000000" font-family="sans-serif" font-size="14" lengthAdjust="spacing" textLength="273" x="1255.5" y="611.1031">applicationDeployed(List&lt;String&gt;): void</text><ellipse cx="1246.5" cy="623.8004" fill="#84BE84" rx="3" ry="3" style="stroke:#038048;stroke-width:1.0;"/><text fill="#000000" font-family="sans-serif" font-size="14" lengthAdjust="spacing" textLength="291" x="1255.5" y="627.5914">applicationUndeployed(List&lt;String&gt;): void</text><ellipse cx="1246.5" cy="640.2887" fill="#84BE84" rx="3" ry="3" style="stroke:#038048;stroke-width:1.0;"/><text fill="#000000" font-family="sans-serif" font-size="14" lengthAdjust="spacing" textLength="98" x="1255.5" y="644.0797">destroy(): void</text><ellipse cx="1246.5" cy="656.777" fill="#84BE84" rx="3" ry="3" style="stroke:#038048;stroke-width:1.0;"/><text fill="#000000" font-family="sans-serif" font-size="14" lengthAdjust="spacing" text-decoration="underline" textLength="214" x="1255.5" y="660.568">getDeployedApp(String): String</text></g></a><!--class Trigger--><a href="Trigger.html" target="_top" title="Trigger.html" xlink:actuate="onRequest" xlink:href="Trigger.html" xlink:show="new" xlink:title="Trigger.html" xlink:type="simple"><g id="elem_Trigger"><rect codeLine="19" fill="#F1F1F1" height="80.9766" id="Trigger" rx="2.5" ry="2.5" style="stroke:#181818;stroke-width:0.5;" width="267" x="2084.5" y="230.71"/><ellipse cx="2188.25" cy="246.71" fill="#ADD1B2" rx="11" ry="11" style="stroke:#181818;stroke-width:1.0;"/><path d="M2190.7231,252.8531 Q2190.1421,253.1519 2189.5029,253.3013 Q2188.8638,253.4507 2188.1582,253.4507 Q2185.6514,253.4507 2184.3315,251.7989 Q2183.0117,250.147 2183.0117,247.0259 Q2183.0117,243.8965 2184.3315,242.2447 Q2185.6514,240.5928 2188.1582,240.5928 Q2188.8638,240.5928 2189.5112,240.7422 Q2190.1587,240.8916 2190.7231,241.1905 L2190.7231,243.9131 Q2190.0923,243.3321 2189.4988,243.0623 Q2188.9053,242.7925 2188.2744,242.7925 Q2186.9297,242.7925 2186.2449,243.8592 Q2185.5601,244.9258 2185.5601,247.0259 Q2185.5601,249.1177 2186.2449,250.1844 Q2186.9297,251.251 2188.2744,251.251 Q2188.9053,251.251 2189.4988,250.9812 Q2190.0923,250.7115 2190.7231,250.1304 Z " fill="#000000"/><text fill="#000000" font-family="sans-serif" font-size="14" lengthAdjust="spacing" textLength="51" x="2208.75" y="252.001">Trigger</text><line style="stroke:#181818;stroke-width:0.5;" x1="2085.5" x2="2350.5" y1="262.71" y2="262.71"/><rect fill="none" height="6" style="stroke:#C82930;stroke-width:1.0;" width="6" x="2092.5" y="273.4541"/><text fill="#000000" font-family="sans-serif" font-size="14" lengthAdjust="spacing" text-decoration="underline" textLength="152" x="2104.5" y="280.2452">serialVersionUID: long</text><line style="stroke:#181818;stroke-width:0.5;" x1="2085.5" x2="2350.5" y1="287.1983" y2="287.1983"/><ellipse cx="2095.5" cy="300.9424" fill="#84BE84" rx="3" ry="3" style="stroke:#038048;stroke-width:1.0;"/><text fill="#000000" font-family="sans-serif" font-size="14" lengthAdjust="spacing" textLength="241" x="2104.5" y="304.7334">createTransition(String): Transition</text></g></a><!--class State--><a href="State.html" target="_top" title="State.html" xlink:actuate="onRequest" xlink:href="State.html" xlink:show="new" xlink:title="State.html" xlink:type="simple"><g id="elem_State"><rect codeLine="24" fill="#F1F1F1" height="97.4648" id="State" rx="2.5" ry="2.5" style="stroke:#181818;stroke-width:0.5;" width="273" x="1776.5" y="222.46"/><ellipse cx="1891.75" cy="238.46" fill="#ADD1B2" rx="11" ry="11" style="stroke:#181818;stroke-width:1.0;"/><path d="M1894.2231,244.6031 Q1893.6421,244.9019 1893.0029,245.0513 Q1892.3638,245.2007 1891.6582,245.2007 Q1889.1514,245.2007 1887.8315,243.5489 Q1886.5117,241.897 1886.5117,238.7759 Q1886.5117,235.6465 1887.8315,233.9947 Q1889.1514,232.3428 1891.6582,232.3428 Q1892.3638,232.3428 1893.0112,232.4922 Q1893.6587,232.6416 1894.2231,232.9405 L1894.2231,235.6631 Q1893.5923,235.0821 1892.9988,234.8123 Q1892.4053,234.5425 1891.7744,234.5425 Q1890.4297,234.5425 1889.7449,235.6092 Q1889.0601,236.6758 1889.0601,238.7759 Q1889.0601,240.8677 1889.7449,241.9344 Q1890.4297,243.001 1891.7744,243.001 Q1892.4053,243.001 1892.9988,242.7312 Q1893.5923,242.4615 1894.2231,241.8804 Z " fill="#000000"/><text fill="#000000" font-family="sans-serif" font-size="14" lengthAdjust="spacing" textLength="34" x="1912.25" y="243.751">State</text><line style="stroke:#181818;stroke-width:0.5;" x1="1777.5" x2="2048.5" y1="254.46" y2="254.46"/><rect fill="none" height="6" style="stroke:#C82930;stroke-width:1.0;" width="6" x="1784.5" y="265.2041"/><text fill="#000000" font-family="sans-serif" font-size="14" lengthAdjust="spacing" text-decoration="underline" textLength="152" x="1796.5" y="271.9952">serialVersionUID: long</text><ellipse cx="1787.5" cy="284.6924" fill="none" rx="3" ry="3" style="stroke:#038048;stroke-width:1.0;"/><text fill="#000000" font-family="sans-serif" font-size="14" lengthAdjust="spacing" textLength="247" x="1796.5" y="288.4834">triggers: HashMap&lt;String, Trigger&gt;</text><line style="stroke:#181818;stroke-width:0.5;" x1="1777.5" x2="2048.5" y1="295.4366" y2="295.4366"/><ellipse cx="1787.5" cy="309.1807" fill="#84BE84" rx="3" ry="3" style="stroke:#038048;stroke-width:1.0;"/><text fill="#000000" font-family="sans-serif" font-size="14" lengthAdjust="spacing" textLength="183" x="1796.5" y="312.9717">getTrigger(String): Trigger</text></g></a><!--class AppRouterConfigurationSample--><a href="AppRouterConfigurationSample.html" target="_top" title="AppRouterConfigurationSample.html" xlink:actuate="onRequest" xlink:href="AppRouterConfigurationSample.html" xlink:show="new" xlink:title="AppRouterConfigurationSample.html" xlink:type="simple"><g id="elem_AppRouterConfigurationSample"><rect codeLine="30" fill="#F1F1F1" height="80.9766" id="AppRouterConfigurationSample" rx="2.5" ry="2.5" style="stroke:#181818;stroke-width:0.5;" width="252" x="2786" y="512.34"/><ellipse cx="2801" cy="528.34" fill="#ADD1B2" rx="11" ry="11" style="stroke:#181818;stroke-width:1.0;"/><path d="M2803.4731,534.4831 Q2802.8921,534.7819 2802.2529,534.9313 Q2801.6138,535.0807 2800.9082,535.0807 Q2798.4014,535.0807 2797.0815,533.4289 Q2795.7617,531.777 2795.7617,528.6559 Q2795.7617,525.5265 2797.0815,523.8747 Q2798.4014,522.2228 2800.9082,522.2228 Q2801.6138,522.2228 2802.2612,522.3722 Q2802.9087,522.5216 2803.4731,522.8205 L2803.4731,525.5431 Q2802.8423,524.9621 2802.2488,524.6923 Q2801.6553,524.4225 2801.0244,524.4225 Q2799.6797,524.4225 2798.9949,525.4892 Q2798.3101,526.5558 2798.3101,528.6559 Q2798.3101,530.7477 2798.9949,531.8144 Q2799.6797,532.881 2801.0244,532.881 Q2801.6553,532.881 2802.2488,532.6112 Q2802.8423,532.3415 2803.4731,531.7604 Z " fill="#000000"/><text fill="#000000" font-family="sans-serif" font-size="14" lengthAdjust="spacing" textLength="220" x="2815" y="533.631">AppRouterConfigurationSample</text><line style="stroke:#181818;stroke-width:0.5;" x1="2787" x2="3037" y1="544.34" y2="544.34"/><rect fill="none" height="6" style="stroke:#C82930;stroke-width:1.0;" width="6" x="2794" y="555.0841"/><text fill="#000000" font-family="sans-serif" font-size="14" lengthAdjust="spacing" text-decoration="underline" textLength="152" x="2806" y="561.8752">serialVersionUID: long</text><line style="stroke:#181818;stroke-width:0.5;" x1="2787" x2="3037" y1="568.8283" y2="568.8283"/><ellipse cx="2797" cy="582.5724" fill="#84BE84" rx="3" ry="3" style="stroke:#038048;stroke-width:1.0;"/><text fill="#000000" font-family="sans-serif" font-size="14" lengthAdjust="spacing" text-decoration="underline" textLength="132" x="2806" y="586.3634">main(String[]): void</text></g></a><!--class Transition--><a href="Transition.html" target="_top" title="Transition.html" xlink:actuate="onRequest" xlink:href="Transition.html" xlink:show="new" xlink:title="Transition.html" xlink:type="simple"><g id="elem_Transition"><rect codeLine="35" fill="#F1F1F1" height="245.8594" id="Transition" rx="2.5" ry="2.5" style="stroke:#181818;stroke-width:0.5;" width="322" x="2429" y="429.9"/><ellipse cx="2550.75" cy="445.9" fill="#ADD1B2" rx="11" ry="11" style="stroke:#181818;stroke-width:1.0;"/><path d="M2553.2231,452.0431 Q2552.6421,452.3419 2552.0029,452.4913 Q2551.3638,452.6407 2550.6582,452.6407 Q2548.1514,452.6407 2546.8315,450.9889 Q2545.5117,449.337 2545.5117,446.2159 Q2545.5117,443.0865 2546.8315,441.4347 Q2548.1514,439.7828 2550.6582,439.7828 Q2551.3638,439.7828 2552.0112,439.9322 Q2552.6587,440.0816 2553.2231,440.3805 L2553.2231,443.1031 Q2552.5923,442.5221 2551.9988,442.2523 Q2551.4053,441.9825 2550.7744,441.9825 Q2549.4297,441.9825 2548.7449,443.0492 Q2548.0601,444.1158 2548.0601,446.2159 Q2548.0601,448.3077 2548.7449,449.3744 Q2549.4297,450.441 2550.7744,450.441 Q2551.4053,450.441 2551.9988,450.1712 Q2552.5923,449.9015 2553.2231,449.3204 Z " fill="#000000"/><text fill="#000000" font-family="sans-serif" font-size="14" lengthAdjust="spacing" textLength="70" x="2571.25" y="451.191">Transition</text><line style="stroke:#181818;stroke-width:0.5;" x1="2430" x2="2750" y1="461.9" y2="461.9"/><rect fill="none" height="6" style="stroke:#C82930;stroke-width:1.0;" width="6" x="2437" y="472.6441"/><text fill="#000000" font-family="sans-serif" font-size="14" lengthAdjust="spacing" text-decoration="underline" textLength="152" x="2449" y="479.4352">serialVersionUID: long</text><ellipse cx="2440" cy="492.1324" fill="none" rx="3" ry="3" style="stroke:#038048;stroke-width:1.0;"/><text fill="#000000" font-family="sans-serif" font-size="14" lengthAdjust="spacing" textLength="62" x="2449" y="495.9234">id: String</text><ellipse cx="2440" cy="508.6207" fill="none" rx="3" ry="3" style="stroke:#038048;stroke-width:1.0;"/><text fill="#000000" font-family="sans-serif" font-size="14" lengthAdjust="spacing" textLength="80" x="2449" y="512.4117">next: String</text><ellipse cx="2440" cy="525.109" fill="none" rx="3" ry="3" style="stroke:#038048;stroke-width:1.0;"/><text fill="#000000" font-family="sans-serif" font-size="14" lengthAdjust="spacing" textLength="141" x="2449" y="528.9">condition: Condition</text><line style="stroke:#181818;stroke-width:0.5;" x1="2430" x2="2750" y1="535.8531" y2="535.8531"/><ellipse cx="2440" cy="549.5973" fill="#84BE84" rx="3" ry="3" style="stroke:#038048;stroke-width:1.0;"/><text fill="#000000" font-family="sans-serif" font-size="14" lengthAdjust="spacing" textLength="296" x="2449" y="553.3883">addComparison(String, String, String): void</text><ellipse cx="2440" cy="566.0855" fill="#84BE84" rx="3" ry="3" style="stroke:#038048;stroke-width:1.0;"/><text fill="#000000" font-family="sans-serif" font-size="14" lengthAdjust="spacing" textLength="227" x="2449" y="569.8766">setOriginating(String): Transition</text><ellipse cx="2440" cy="582.5738" fill="#84BE84" rx="3" ry="3" style="stroke:#038048;stroke-width:1.0;"/><text fill="#000000" font-family="sans-serif" font-size="14" lengthAdjust="spacing" textLength="233" x="2449" y="586.3648">setTerminating(String): Transition</text><ellipse cx="2440" cy="599.0621" fill="#84BE84" rx="3" ry="3" style="stroke:#038048;stroke-width:1.0;"/><text fill="#000000" font-family="sans-serif" font-size="14" lengthAdjust="spacing" textLength="199" x="2449" y="602.8531">setRoute(String[]): Transition</text><ellipse cx="2440" cy="615.5504" fill="#84BE84" rx="3" ry="3" style="stroke:#038048;stroke-width:1.0;"/><text fill="#000000" font-family="sans-serif" font-size="14" lengthAdjust="spacing" textLength="230" x="2449" y="619.3414">setRouteBack(String[]): Transition</text><ellipse cx="2440" cy="632.0387" fill="#84BE84" rx="3" ry="3" style="stroke:#038048;stroke-width:1.0;"/><text fill="#000000" font-family="sans-serif" font-size="14" lengthAdjust="spacing" textLength="232" x="2449" y="635.8297">setRouteFinal(String[]): Transition</text><ellipse cx="2440" cy="648.527" fill="#84BE84" rx="3" ry="3" style="stroke:#038048;stroke-width:1.0;"/><text fill="#000000" font-family="sans-serif" font-size="14" lengthAdjust="spacing" textLength="94" x="2449" y="652.318">getId(): String</text><ellipse cx="2440" cy="665.0152" fill="#84BE84" rx="3" ry="3" style="stroke:#038048;stroke-width:1.0;"/><text fill="#000000" font-family="sans-serif" font-size="14" lengthAdjust="spacing" textLength="162" x="2449" y="668.8063">setId(String): Transition</text></g></a><!--class AppRouterProvider--><a href="AppRouterProvider.html" target="_top" title="AppRouterProvider.html" xlink:actuate="onRequest" xlink:href="AppRouterProvider.html" xlink:show="new" xlink:title="AppRouterProvider.html" xlink:type="simple"><g id="elem_AppRouterProvider"><rect codeLine="50" fill="#F1F1F1" height="64.4883" id="AppRouterProvider" rx="2.5" ry="2.5" style="stroke:#181818;stroke-width:0.5;" width="356" x="2682" y="238.95"/><ellipse cx="2790.25" cy="254.95" fill="#ADD1B2" rx="11" ry="11" style="stroke:#181818;stroke-width:1.0;"/><path d="M2792.7231,261.0931 Q2792.1421,261.3919 2791.5029,261.5413 Q2790.8638,261.6907 2790.1582,261.6907 Q2787.6514,261.6907 2786.3315,260.0389 Q2785.0117,258.387 2785.0117,255.2659 Q2785.0117,252.1365 2786.3315,250.4847 Q2787.6514,248.8328 2790.1582,248.8328 Q2790.8638,248.8328 2791.5112,248.9822 Q2792.1587,249.1316 2792.7231,249.4305 L2792.7231,252.1531 Q2792.0923,251.5721 2791.4988,251.3023 Q2790.9053,251.0325 2790.2744,251.0325 Q2788.9297,251.0325 2788.2449,252.0992 Q2787.5601,253.1658 2787.5601,255.2659 Q2787.5601,257.3577 2788.2449,258.4244 Q2788.9297,259.491 2790.2744,259.491 Q2790.9053,259.491 2791.4988,259.2212 Q2792.0923,258.9515 2792.7231,258.3704 Z " fill="#000000"/><text fill="#000000" font-family="sans-serif" font-size="14" lengthAdjust="spacing" textLength="131" x="2810.75" y="260.241">AppRouterProvider</text><line style="stroke:#181818;stroke-width:0.5;" x1="2683" x2="3037" y1="270.95" y2="270.95"/><line style="stroke:#181818;stroke-width:0.5;" x1="2683" x2="3037" y1="278.95" y2="278.95"/><ellipse cx="2693" cy="292.6941" fill="#84BE84" rx="3" ry="3" style="stroke:#038048;stroke-width:1.0;"/><text fill="#000000" font-family="sans-serif" font-size="14" lengthAdjust="spacing" textLength="330" x="2702" y="296.4852">getSipApplicationRouter(): SipApplicationRouter</text></g></a><!--class AppRouterConfiguration--><a href="AppRouterConfiguration.html" target="_top" title="AppRouterConfiguration.html" xlink:actuate="onRequest" xlink:href="AppRouterConfiguration.html" xlink:show="new" xlink:title="AppRouterConfiguration.html" xlink:type="simple"><g id="elem_AppRouterConfiguration"><rect codeLine="54" fill="#F1F1F1" height="163.418" id="AppRouterConfiguration" rx="2.5" ry="2.5" style="stroke:#181818;stroke-width:0.5;" width="261" x="2386.5" y="189.48"/><ellipse cx="2428.05" cy="205.48" fill="#ADD1B2" rx="11" ry="11" style="stroke:#181818;stroke-width:1.0;"/><path d="M2430.5231,211.6231 Q2429.9421,211.9219 2429.3029,212.0713 Q2428.6638,212.2207 2427.9582,212.2207 Q2425.4514,212.2207 2424.1315,210.5689 Q2422.8117,208.917 2422.8117,205.7959 Q2422.8117,202.6665 2424.1315,201.0147 Q2425.4514,199.3628 2427.9582,199.3628 Q2428.6638,199.3628 2429.3112,199.5122 Q2429.9587,199.6616 2430.5231,199.9605 L2430.5231,202.6831 Q2429.8923,202.1021 2429.2988,201.8323 Q2428.7053,201.5625 2428.0744,201.5625 Q2426.7297,201.5625 2426.0449,202.6292 Q2425.3601,203.6958 2425.3601,205.7959 Q2425.3601,207.8877 2426.0449,208.9544 Q2426.7297,210.021 2428.0744,210.021 Q2428.7053,210.021 2429.2988,209.7512 Q2429.8923,209.4815 2430.5231,208.9004 Z " fill="#000000"/><text fill="#000000" font-family="sans-serif" font-size="14" lengthAdjust="spacing" textLength="170" x="2447.95" y="210.771">AppRouterConfiguration</text><line style="stroke:#181818;stroke-width:0.5;" x1="2387.5" x2="2646.5" y1="221.48" y2="221.48"/><rect fill="none" height="6" style="stroke:#C82930;stroke-width:1.0;" width="6" x="2394.5" y="232.2241"/><text fill="#000000" font-family="sans-serif" font-size="14" lengthAdjust="spacing" text-decoration="underline" textLength="152" x="2406.5" y="239.0152">serialVersionUID: long</text><ellipse cx="2397.5" cy="251.7124" fill="none" rx="3" ry="3" style="stroke:#038048;stroke-width:1.0;"/><text fill="#000000" font-family="sans-serif" font-size="14" lengthAdjust="spacing" textLength="175" x="2406.5" y="255.5034">defaultApplication: String</text><ellipse cx="2397.5" cy="268.2007" fill="none" rx="3" ry="3" style="stroke:#038048;stroke-width:1.0;"/><text fill="#000000" font-family="sans-serif" font-size="14" lengthAdjust="spacing" textLength="235" x="2406.5" y="271.9917">previous: HashMap&lt;String, State&gt;</text><line style="stroke:#181818;stroke-width:0.5;" x1="2387.5" x2="2646.5" y1="278.9448" y2="278.9448"/><ellipse cx="2397.5" cy="292.689" fill="#84BE84" rx="3" ry="3" style="stroke:#038048;stroke-width:1.0;"/><text fill="#000000" font-family="sans-serif" font-size="14" lengthAdjust="spacing" textLength="173" x="2406.5" y="296.48">getPrevious(String): State</text><ellipse cx="2397.5" cy="309.1773" fill="#84BE84" rx="3" ry="3" style="stroke:#038048;stroke-width:1.0;"/><text fill="#000000" font-family="sans-serif" font-size="14" lengthAdjust="spacing" textLength="208" x="2406.5" y="312.9683">getDefaultApplication(): String</text><ellipse cx="2397.5" cy="325.6655" fill="#84BE84" rx="3" ry="3" style="stroke:#038048;stroke-width:1.0;"/><text fill="#000000" font-family="sans-serif" font-size="14" lengthAdjust="spacing" textLength="235" x="2406.5" y="329.4566">setDefaultApplication(String): void</text><ellipse cx="2397.5" cy="342.1538" fill="#84BE84" rx="3" ry="3" style="stroke:#038048;stroke-width:1.0;"/><text fill="#000000" font-family="sans-serif" font-size="14" lengthAdjust="spacing" text-decoration="underline" textLength="132" x="2406.5" y="345.9448">main(String[]): void</text></g></a><!--class Action--><a href="Action.html" target="_top" title="Action.html" xlink:actuate="onRequest" xlink:href="Action.html" xlink:show="new" xlink:title="Action.html" xlink:type="simple"><g id="elem_Action"><rect codeLine="64" fill="#F1F1F1" height="163.418" id="Action" rx="2.5" ry="2.5" style="stroke:#181818;stroke-width:0.5;" width="680" x="2304" y="752.76"/><ellipse cx="2617.75" cy="768.76" fill="#ADD1B2" rx="11" ry="11" style="stroke:#181818;stroke-width:1.0;"/><path d="M2620.2231,774.9031 Q2619.6421,775.2019 2619.0029,775.3513 Q2618.3638,775.5007 2617.6582,775.5007 Q2615.1514,775.5007 2613.8315,773.8489 Q2612.5117,772.197 2612.5117,769.0759 Q2612.5117,765.9465 2613.8315,764.2947 Q2615.1514,762.6428 2617.6582,762.6428 Q2618.3638,762.6428 2619.0112,762.7922 Q2619.6587,762.9416 2620.2231,763.2405 L2620.2231,765.9631 Q2619.5923,765.3821 2618.9988,765.1123 Q2618.4053,764.8425 2617.7744,764.8425 Q2616.4297,764.8425 2615.7449,765.9092 Q2615.0601,766.9758 2615.0601,769.0759 Q2615.0601,771.1677 2615.7449,772.2344 Q2616.4297,773.301 2617.7744,773.301 Q2618.4053,773.301 2618.9988,773.0312 Q2619.5923,772.7615 2620.2231,772.1804 Z " fill="#000000"/><text fill="#000000" font-family="sans-serif" font-size="14" lengthAdjust="spacing" textLength="44" x="2638.25" y="774.051">Action</text><line style="stroke:#181818;stroke-width:0.5;" x1="2305" x2="2983" y1="784.76" y2="784.76"/><rect fill="none" height="6" style="stroke:#C82930;stroke-width:1.0;" width="6" x="2312" y="795.5041"/><text fill="#000000" font-family="sans-serif" font-size="14" lengthAdjust="spacing" text-decoration="underline" textLength="152" x="2324" y="802.2952">serialVersionUID: long</text><ellipse cx="2315" cy="814.9924" fill="none" rx="3" ry="3" style="stroke:#038048;stroke-width:1.0;"/><text fill="#000000" font-family="sans-serif" font-size="14" lengthAdjust="spacing" textLength="129" x="2324" y="818.7834">terminating: String</text><ellipse cx="2315" cy="831.4807" fill="none" rx="3" ry="3" style="stroke:#038048;stroke-width:1.0;"/><text fill="#000000" font-family="sans-serif" font-size="14" lengthAdjust="spacing" textLength="125" x="2324" y="835.2717">originating: String</text><ellipse cx="2315" cy="847.969" fill="none" rx="3" ry="3" style="stroke:#038048;stroke-width:1.0;"/><text fill="#000000" font-family="sans-serif" font-size="14" lengthAdjust="spacing" textLength="96" x="2324" y="851.76">route: String[]</text><ellipse cx="2315" cy="864.4573" fill="none" rx="3" ry="3" style="stroke:#038048;stroke-width:1.0;"/><text fill="#000000" font-family="sans-serif" font-size="14" lengthAdjust="spacing" textLength="135" x="2324" y="868.2483">route_back: String[]</text><ellipse cx="2315" cy="880.9455" fill="none" rx="3" ry="3" style="stroke:#038048;stroke-width:1.0;"/><text fill="#000000" font-family="sans-serif" font-size="14" lengthAdjust="spacing" textLength="133" x="2324" y="884.7366">route_final: String[]</text><line style="stroke:#181818;stroke-width:0.5;" x1="2305" x2="2983" y1="891.6897" y2="891.6897"/><ellipse cx="2315" cy="905.4338" fill="#84BE84" rx="3" ry="3" style="stroke:#038048;stroke-width:1.0;"/><text fill="#000000" font-family="sans-serif" font-size="14" lengthAdjust="spacing" textLength="654" x="2324" y="909.2248">createRouterInfo(String, AppRouterConfiguration, SipServletRequest): SipApplicationRouterInfo</text></g></a><!--class SipApplicationRouter--><a href="https://vorpalnet.github.io/jsr359/javax/servlet/sip/ar/SipApplicationRouter.html?is-external=true" target="_top" title="https://vorpalnet.github.io/jsr359/javax/servlet/sip/ar/SipApplicationRouter.html?is-external=true" xlink:actuate="onRequest" xlink:href="https://vorpalnet.github.io/jsr359/javax/servlet/sip/ar/SipApplicationRouter.html?is-external=true" xlink:show="new" xlink:title="https://vorpalnet.github.io/jsr359/javax/servlet/sip/ar/SipApplicationRouter.html?is-external=true" xlink:type="simple"><g id="elem_SipApplicationRouter"><rect codeLine="77" fill="#F1F1F1" height="146.9297" id="SipApplicationRouter" rx="2.5" ry="2.5" style="stroke:#181818;stroke-width:0.5;" width="1159" x="21.5" y="197.73"/><ellipse cx="524.25" cy="213.73" fill="#B4A7E5" rx="11" ry="11" style="stroke:#181818;stroke-width:1.0;"/><path d="M520.6777,209.9951 L520.6777,207.8369 L528.0571,207.8369 L528.0571,209.9951 L525.5918,209.9951 L525.5918,218.0718 L528.0571,218.0718 L528.0571,220.23 L520.6777,220.23 L520.6777,218.0718 L523.1431,218.0718 L523.1431,209.9951 Z " fill="#000000"/><text fill="#000000" font-family="sans-serif" font-size="14" font-style="italic" lengthAdjust="spacing" textLength="145" x="544.75" y="219.021">SipApplicationRouter</text><line style="stroke:#181818;stroke-width:0.5;" x1="22.5" x2="1179.5" y1="229.73" y2="229.73"/><line style="stroke:#181818;stroke-width:0.5;" x1="22.5" x2="1179.5" y1="237.73" y2="237.73"/><ellipse cx="32.5" cy="251.4741" fill="#84BE84" rx="3" ry="3" style="stroke:#038048;stroke-width:1.0;"/><text fill="#000000" font-family="sans-serif" font-size="14" font-style="italic" lengthAdjust="spacing" textLength="69" x="41.5" y="255.2652">init(): void</text><ellipse cx="32.5" cy="267.9624" fill="#84BE84" rx="3" ry="3" style="stroke:#038048;stroke-width:1.0;"/><text fill="#000000" font-family="sans-serif" font-size="14" font-style="italic" lengthAdjust="spacing" textLength="139" x="41.5" y="271.7534">init(Properties): void</text><ellipse cx="32.5" cy="284.4507" fill="#84BE84" rx="3" ry="3" style="stroke:#038048;stroke-width:1.0;"/><text fill="#000000" font-family="sans-serif" font-size="14" font-style="italic" lengthAdjust="spacing" textLength="98" x="41.5" y="288.2417">destroy(): void</text><ellipse cx="32.5" cy="300.939" fill="#84BE84" rx="3" ry="3" style="stroke:#038048;stroke-width:1.0;"/><text fill="#000000" font-family="sans-serif" font-size="14" font-style="italic" lengthAdjust="spacing" textLength="273" x="41.5" y="304.73">applicationDeployed(List&lt;String&gt;): void</text><ellipse cx="32.5" cy="317.4273" fill="#84BE84" rx="3" ry="3" style="stroke:#038048;stroke-width:1.0;"/><text fill="#000000" font-family="sans-serif" font-size="14" font-style="italic" lengthAdjust="spacing" textLength="291" x="41.5" y="321.2183">applicationUndeployed(List&lt;String&gt;): void</text><ellipse cx="32.5" cy="333.9155" fill="#84BE84" rx="3" ry="3" style="stroke:#038048;stroke-width:1.0;"/><text fill="#000000" font-family="sans-serif" font-size="14" font-style="italic" lengthAdjust="spacing" textLength="1133" x="41.5" y="337.7066">getNextApplication(SipServletRequest, SipApplicationRoutingRegion, SipApplicationRoutingDirective, SipTargetedRequestInfo, Serializable): SipApplicationRouterInfo</text></g></a><!--class Serializable--><a href="https://docs.oracle.com/en/java/javase/11/docs/api/java.base/java/io/Serializable.html?is-external=true" target="_top" title="https://docs.oracle.com/en/java/javase/11/docs/api/java.base/java/io/Serializable.html?is-external=true" xlink:actuate="onRequest" xlink:href="https://docs.oracle.com/en/java/javase/11/docs/api/java.base/java/io/Serializable.html?is-external=true" xlink:show="new" xlink:title="https://docs.oracle.com/en/java/javase/11/docs/api/java.base/java/io/Serializable.html?is-external=true" xlink:type="simple"><g id="elem_Serializable"><rect codeLine="88" fill="#F1F1F1" height="48" id="Serializable" rx="2.5" ry="2.5" style="stroke:#181818;stroke-width:0.5;" width="111" x="1976.5" y="49.24"/><ellipse cx="1991.5" cy="65.24" fill="#B4A7E5" rx="11" ry="11" style="stroke:#181818;stroke-width:1.0;"/><path d="M1987.9277,61.5051 L1987.9277,59.3469 L1995.3071,59.3469 L1995.3071,61.5051 L1992.8418,61.5051 L1992.8418,69.5818 L1995.3071,69.5818 L1995.3071,71.74 L1987.9277,71.74 L1987.9277,69.5818 L1990.3931,69.5818 L1990.3931,61.5051 Z " fill="#000000"/><text fill="#000000" font-family="sans-serif" font-size="14" font-style="italic" lengthAdjust="spacing" textLength="79" x="2005.5" y="70.531">Serializable</text><line style="stroke:#181818;stroke-width:0.5;" x1="1977.5" x2="2086.5" y1="81.24" y2="81.24"/><line style="stroke:#181818;stroke-width:0.5;" x1="1977.5" x2="2086.5" y1="89.24" y2="89.24"/></g></a><!--class SipApplicationRouterProvider--><a href="https://vorpalnet.github.io/jsr359/javax/servlet/sip/ar/spi/SipApplicationRouterProvider.html?is-external=true" target="_top" title="https://vorpalnet.github.io/jsr359/javax/servlet/sip/ar/spi/SipApplicationRouterProvider.html?is-external=true" xlink:actuate="onRequest" xlink:href="https://vorpalnet.github.io/jsr359/javax/servlet/sip/ar/spi/SipApplicationRouterProvider.html?is-external=true" xlink:show="new" xlink:title="https://vorpalnet.github.io/jsr359/javax/servlet/sip/ar/spi/SipApplicationRouterProvider.html?is-external=true" xlink:type="simple"><g id="elem_SipApplicationRouterProvider"><rect codeLine="92" fill="#F1F1F1" height="64.4883" id="SipApplicationRouterProvider" rx="2.5" ry="2.5" style="stroke:#181818;stroke-width:0.5;" width="356" x="2954" y="41"/><ellipse cx="3026.75" cy="57" fill="#A9DCDF" rx="11" ry="11" style="stroke:#181818;stroke-width:1.0;"/><path d="M3026.6133,52.3481 L3025.4595,57.4199 L3027.7754,57.4199 Z M3025.1191,50.1069 L3028.1157,50.1069 L3031.4609,62.5 L3029.0122,62.5 L3028.2485,59.437 L3024.9697,59.437 L3024.2227,62.5 L3021.7739,62.5 Z " fill="#000000"/><text fill="#000000" font-family="sans-serif" font-size="14" font-style="italic" lengthAdjust="spacing" textLength="202" x="3047.25" y="62.291">SipApplicationRouterProvider</text><line style="stroke:#181818;stroke-width:0.5;" x1="2955" x2="3309" y1="73" y2="73"/><line style="stroke:#181818;stroke-width:0.5;" x1="2955" x2="3309" y1="81" y2="81"/><ellipse cx="2965" cy="94.7441" fill="#84BE84" rx="3" ry="3" style="stroke:#038048;stroke-width:1.0;"/><text fill="#000000" font-family="sans-serif" font-size="14" font-style="italic" lengthAdjust="spacing" textLength="330" x="2974" y="98.5352">getSipApplicationRouter(): SipApplicationRouter</text></g></a><!--reverse link SipApplicationRouter to AppRouter--><g id="link_SipApplicationRouter_AppRouter"><path codeLine="97" d="M935.1306,349.1606 C1057.8106,377.4206 1183.66,406.41 1319.36,437.66 " fill="none" id="SipApplicationRouter-backto-AppRouter" style="stroke:#181818;stroke-width:1.0;stroke-dasharray:7.0,7.0;"/><polygon fill="none" points="917.59,345.12,933.7838,355.0075,936.4775,343.3137,917.59,345.12" style="stroke:#181818;stroke-width:1.0;"/></g><!--reverse link Serializable to Trigger--><g id="link_Serializable_Trigger"><path codeLine="98" d="M2066.4627,110.5446 C2097.5427,143.2846 2142.26,190.4 2180.18,230.35 " fill="none" id="Serializable-backto-Trigger" style="stroke:#181818;stroke-width:1.0;stroke-dasharray:7.0,7.0;"/><polygon fill="none" points="2054.07,97.49,2062.1111,114.6755,2070.8142,106.4137,2054.07,97.49" style="stroke:#181818;stroke-width:1.0;"/></g><!--link Trigger to Transition--><g id="link_Trigger_Transition"><path codeLine="99" d="M2270.9,311.96 C2312.23,343.02 2367.154,384.3147 2423.784,426.8847 " fill="none" id="Trigger-to-Transition" style="stroke:#181818;stroke-width:1.0;"/><polygon fill="#181818" points="2428.58,430.49,2423.7895,421.8847,2424.5833,427.4856,2418.9824,428.2794,2428.58,430.49" style="stroke:#181818;stroke-width:1.0;"/><text fill="#000000" font-family="sans-serif" font-size="13" lengthAdjust="spacing" textLength="68" x="2382" y="396.4684">transitions</text><text fill="#000000" font-family="sans-serif" font-size="13" lengthAdjust="spacing" textLength="6" x="2415.1297" y="422.182">*</text></g><!--reverse link Serializable to State--><g id="link_Serializable_State"><path codeLine="100" d="M2008.5364,112.875 C1989.9464,143.485 1966.14,182.69 1942.07,222.32 " fill="none" id="Serializable-backto-State" style="stroke:#181818;stroke-width:1.0;stroke-dasharray:7.0,7.0;"/><polygon fill="none" points="2017.88,97.49,2003.4081,109.7605,2013.6648,115.9895,2017.88,97.49" style="stroke:#181818;stroke-width:1.0;"/></g><!--reverse link AppRouterConfiguration to AppRouterConfigurationSample--><g id="link_AppRouterConfiguration_AppRouterConfigurationSample"><path codeLine="101" d="M2612.8688,364.7163 C2633.4988,381.9663 2642.64,387.22 2666,399.9 C2707.53,422.45 2726.4,407.48 2768,429.9 C2807.94,451.43 2846.81,485.35 2874.08,511.96 " fill="none" id="AppRouterConfiguration-backto-AppRouterConfigurationSample" style="stroke:#181818;stroke-width:1.0;"/><polygon fill="none" points="2599.06,353.17,2609.02,369.3193,2616.7175,360.1134,2599.06,353.17" style="stroke:#181818;stroke-width:1.0;"/></g><!--reverse link Serializable to AppRouterConfigurationSample--><g id="link_Serializable_AppRouterConfigurationSample"><path codeLine="102" d="M1958.2618,83.5007 C1886.3218,93.5107 1785.28,112.35 1759,146.48 C1698.77,224.73 1691.33,296.75 1759,368.66 C1835.98,450.45 2663.76,388.07 2768,429.9 C2811.63,447.41 2851.59,483.6 2878.29,512.03 " fill="none" id="Serializable-backto-AppRouterConfigurationSample" style="stroke:#181818;stroke-width:1.0;stroke-dasharray:7.0,7.0;"/><polygon fill="none" points="1976.09,81.02,1957.4349,77.5579,1959.0887,89.4434,1976.09,81.02" style="stroke:#181818;stroke-width:1.0;"/></g><!--reverse link Serializable to Transition--><g id="link_Serializable_Transition"><path codeLine="103" d="M1958.0371,77.4568 C1872.0671,82.1768 1731.8,95.5 1697,137.48 C1622.57,227.28 1616.28,315.72 1697,399.9 C1752.03,457.29 2336.55,404.79 2412,429.9 C2417.6,431.77 2423.18,433.86 2428.73,436.15 " fill="none" id="Serializable-backto-Transition" style="stroke:#181818;stroke-width:1.0;stroke-dasharray:7.0,7.0;"/><polygon fill="none" points="1976.01,76.47,1957.7081,71.4658,1958.366,83.4477,1976.01,76.47" style="stroke:#181818;stroke-width:1.0;"/></g><!--link Transition to Action--><g id="link_Transition_Action"><path codeLine="104" d="M2613.61,676.08 C2618.6,701.95 2622.6103,722.7392 2627.2303,746.6192 " fill="none" id="Transition-to-Action" style="stroke:#181818;stroke-width:1.0;"/><polygon fill="#181818" points="2628.37,752.51,2630.5877,742.9141,2627.4203,747.601,2622.7333,744.4336,2628.37,752.51" style="stroke:#181818;stroke-width:1.0;"/><text fill="#000000" font-family="sans-serif" font-size="13" lengthAdjust="spacing" textLength="39" x="2622" y="719.3284">action</text></g><!--reverse link SipApplicationRouterProvider to AppRouterProvider--><g id="link_SipApplicationRouterProvider_AppRouterProvider"><path codeLine="105" d="M3073.3948,116.4608 C3022.7248,152.9608 2954.58,202.05 2903.94,238.54 " fill="none" id="SipApplicationRouterProvider-backto-AppRouterProvider" style="stroke:#181818;stroke-width:1.0;"/><polygon fill="none" points="3088,105.94,3069.8878,111.5924,3076.9017,121.3292,3088,105.94" style="stroke:#181818;stroke-width:1.0;"/></g><!--link AppRouterProvider to AppRouter--><g id="link_AppRouterProvider_AppRouter"><path codeLine="106" d="M2805.27,303.84 C2767.03,324.79 2714.21,351.48 2665,368.66 C2631.86,380.22 2516.4875,406.3062 2375.5375,436.4262 " fill="none" id="AppRouterProvider-to-AppRouter" style="stroke:#181818;stroke-width:1.0;"/><polygon fill="#181818" points="2369.67,437.68,2379.3072,439.7109,2374.5596,436.6351,2377.6354,431.8875,2369.67,437.68" style="stroke:#181818;stroke-width:1.0;"/><text fill="#000000" font-family="sans-serif" font-size="13" lengthAdjust="spacing" textLength="64" x="2606" y="396.4684">appRouter</text></g><!--reverse link Serializable to AppRouterConfiguration--><g id="link_Serializable_AppRouterConfiguration"><path codeLine="107" d="M2105.6831,79.6224 C2174.7931,86.0324 2276.76,101.51 2369,146.48 C2391.88,157.64 2414.21,173.07 2434.32,189.27 " fill="none" id="Serializable-backto-AppRouterConfiguration" style="stroke:#181818;stroke-width:1.0;stroke-dasharray:7.0,7.0;"/><polygon fill="none" points="2087.76,77.96,2105.1289,85.5967,2106.2372,73.648,2087.76,77.96" style="stroke:#181818;stroke-width:1.0;"/></g><!--reverse link Serializable to Action--><g id="link_Serializable_Action"><path codeLine="108" d="M2105.7749,78.1107 C2316.9749,89.2807 3038.33,128.65 3055,146.48 C3215.67,318.3 3189.33,481.96 3056,675.76 C3034.4,707.15 3005.64,732.3 2973.31,752.44 " fill="none" id="Serializable-backto-Action" style="stroke:#181818;stroke-width:1.0;stroke-dasharray:7.0,7.0;"/><polygon fill="none" points="2087.8,77.16,2105.458,84.1023,2106.0918,72.119,2087.8,77.16" style="stroke:#181818;stroke-width:1.0;"/></g><text fill="#888888" font-family="sans-serif" font-size="10" lengthAdjust="spacing" textLength="176" x="1571.5" y="947.848">UMLDoclet 2.1.2, PlantUML 1.2024.3</text><!--SRC=[rLTjRzis4FxUNq5q6E0qjOHaw8S9MOOiHh40oHR4wRu4mN2MpWexMTH8scZM-h_lz4A9iYX7ThmFCv189X_UwtF7CsECATJqbu44BIGBWZTlQ95b4Fu5CJ8XOsybP0Q9DqiWGY_XCmdosPkh1SXJzhM4vvym0QNOHPRTYQL6oHuUwdVlII-InqT2C-lpLMdGF5opxpvERoxk0ZRLagUn6tEiU7OjuXXbmCgd6pScVpH9KJUGGe6UjXVEQgikHJhdyP8Svo8zxp4jmYmHpnW5x5TGJpUGdPLMlg-iRPyxvYdNewE0hGIF73ktKcGeDKVbnCIeVyClcYnCU5YODPhoR8fobQ2-mx-Ng3Gfvfc5o7qXE-umfYyzcnCkCTHyXSN-FKXIX54by2gT2rf7oI7X_y0iGRAjAmPb3cpR2mraKiLfTCsLhc9qxdJIElGfZGOVYyXKAPwTmMrOGeuPIyZ-KIdmg4EjzIPjxoNFEKMahTvUe2pHB8_N7oXLxiVL9629sE3kSIWHDDvBI1KlasdCQTRwJPgIAYI3YkSXpD6bPwfBvShdymuRgmtRSDwglNLl_RUgQmgBB46x9JYs3-1ZGuG5S1FlXyTDpZZIR_9HCC1yEKJKUUHiRCSf5Rfx9nHfLAWFsALvtIYXABeK2-hPNDMiCWt9F9r5HCtnTyeWJo5l2rlvQF3tA1Uxu8lqsf5_2ViBNJMxu3-IDScG0yJVgsXqv0woAZPtAiYQkzJ5LpngNt5cpKsPt1PNIntrjDfTwwktiWx1u0Zdi4piMyaTqapYYekbSbsLrCAwtUMsEc2tQG9sS9EE0LkowW3t5yI-_U8YD54F3nLbtTIPspVH5AuR8FFqcws7HyVcdpEgjUs8ULvTVP3oGckcWRhrkCbNJ1ljwMN8Q555UzsUH3_32hvugfJcqJJeWRG2pbCICuSGdV8fKqzQPohm_NAQJKb6pFNJSkPnuNzMyeSFF_g52hzIuPCA7wJl4bVa-sUknjJ3KLB0Vj9oYLq2m8nc5WZrUijWs05jdn5j-DQHoCBjCwRrdDzXOhCb_8y6stKV-OWeRhvP2YoUHI9KdY3_QR09nSB7jE1NyK-XVt9I87p8UB7apVBL0a64j6NsaMreaNWguvRX9YjcodJ4mxhVzgqQqkbl4xr71Ur_XLg1SWKe29mju-oRvxtq-pS8wivNYwVGa4IR5CCasQFrK30RZy_PstTlXnmm0qx0TFskNcrrSsCF3rLxT3dxDXxlUxZyuV1g9_vJuHkZvGxu8hil6n-MMOMmrj7N1jnChyjznqoOSpjclrOtp3jpZ1myMAcvy_rwiKq6Gipl1pON8dzykhcU2Be8D3lrJhpJz-msWLJJAlj-LGw5ewD_0G00]--></g></svg>