<?xml version="1.0" encoding="us-ascii" standalone="no"?><svg xmlns="http://www.w3.org/2000/svg" xmlns:xlink="http://www.w3.org/1999/xlink" contentStyleType="text/css" height="192px" preserveAspectRatio="none" style="width:697px;height:192px;background:#FFFFFF;" version="1.1" viewBox="0 0 697 192" width="697px" zoomAndPan="magnify"><defs/><g><!--class org.vorpal.blade.services.crud2.rules.Rule.AttributeValuePairs--><a href="Rule.AttributeValuePairs.html" target="_top" title="Rule.AttributeValuePairs.html" xlink:actuate="onRequest" xlink:href="Rule.AttributeValuePairs.html" xlink:show="new" xlink:title="Rule.AttributeValuePairs.html" xlink:type="simple"><g id="elem_org.vorpal.blade.services.crud2.rules.Rule.AttributeValuePairs"><rect codeLine="5" fill="#F1F1F1" height="38.2656" id="org.vorpal.blade.services.crud2.rules.Rule.AttributeValuePairs" rx="2.5" ry="2.5" style="stroke:#181818;stroke-width:0.5;" width="210" x="205" y="129.75"/><ellipse cx="220" cy="148.8828" fill="#ADD1B2" rx="11" ry="11" style="stroke:#181818;stroke-width:1.0;"/><path d="M222.4731,155.0259 Q221.8921,155.3247 221.2529,155.4741 Q220.6138,155.6235 219.9082,155.6235 Q217.4014,155.6235 216.0815,153.9717 Q214.7617,152.3198 214.7617,149.1987 Q214.7617,146.0693 216.0815,144.4175 Q217.4014,142.7656 219.9082,142.7656 Q220.6138,142.7656 221.2612,142.915 Q221.9087,143.0645 222.4731,143.3633 L222.4731,146.0859 Q221.8423,145.5049 221.2488,145.2351 Q220.6553,144.9653 220.0244,144.9653 Q218.6797,144.9653 217.9949,146.032 Q217.3101,147.0986 217.3101,149.1987 Q217.3101,151.2905 217.9949,152.3572 Q218.6797,153.4238 220.0244,153.4238 Q220.6553,153.4238 221.2488,153.1541 Q221.8423,152.8843 222.4731,152.3032 Z " fill="#000000"/><text fill="#000000" font-family="sans-serif" font-size="14" lengthAdjust="spacing" textLength="166" x="240" y="148.2852">Rule.AttributeValuePairs</text><text fill="#000000" font-family="sans-serif" font-size="10" lengthAdjust="spacing" textLength="178" x="234" y="160.9063">org.vorpal.blade.services.crud2.rules</text></g></a><!--class java.util.HashMap--><a href="https://docs.oracle.com/en/java/javase/11/docs/api/java.base/java/util/HashMap.html?is-external=true" target="_top" title="https://docs.oracle.com/en/java/javase/11/docs/api/java.base/java/util/HashMap.html?is-external=true" xlink:actuate="onRequest" xlink:href="https://docs.oracle.com/en/java/javase/11/docs/api/java.base/java/util/HashMap.html?is-external=true" xlink:show="new" xlink:title="https://docs.oracle.com/en/java/javase/11/docs/api/java.base/java/util/HashMap.html?is-external=true" xlink:type="simple"><g id="elem_java.util.HashMap"><rect codeLine="7" fill="#F1F1F1" height="38.2656" id="java.util.HashMap" rx="2.5" ry="2.5" style="stroke:#181818;stroke-width:0.5;" width="248" x="7" y="19.24"/><ellipse cx="22" cy="38.3728" fill="#ADD1B2" rx="11" ry="11" style="stroke:#181818;stroke-width:1.0;"/><path d="M24.4731,44.5159 Q23.8921,44.8147 23.2529,44.9641 Q22.6138,45.1135 21.9082,45.1135 Q19.4014,45.1135 18.0815,43.4617 Q16.7617,41.8098 16.7617,38.6887 Q16.7617,35.5593 18.0815,33.9075 Q19.4014,32.2556 21.9082,32.2556 Q22.6138,32.2556 23.2612,32.405 Q23.9087,32.5545 24.4731,32.8533 L24.4731,35.5759 Q23.8423,34.9949 23.2488,34.7251 Q22.6553,34.4553 22.0244,34.4553 Q20.6797,34.4553 19.9949,35.522 Q19.3101,36.5886 19.3101,38.6887 Q19.3101,40.7805 19.9949,41.8472 Q20.6797,42.9138 22.0244,42.9138 Q22.6553,42.9138 23.2488,42.6441 Q23.8423,42.3743 24.4731,41.7932 Z " fill="#000000"/><text fill="#000000" font-family="sans-serif" font-size="14" lengthAdjust="spacing" textLength="63" x="36" y="37.7752">HashMap</text><text fill="#000000" font-family="sans-serif" font-size="10" lengthAdjust="spacing" textLength="39" x="48" y="50.3963">java.util</text><rect fill="#FFFFFF" height="16.1328" style="stroke:#181818;stroke-width:1.0;stroke-dasharray:2.0,2.0;" width="151" x="107" y="16.24"/><text fill="#000000" font-family="sans-serif" font-size="12" font-style="italic" lengthAdjust="spacing" textLength="149" x="108" y="28.8416">String, LinkedList&lt;String&gt;</text></g></a><!--class org.vorpal.blade.services.crud2.rules.Rule--><a href="Rule.html" target="_top" title="Rule.html" xlink:actuate="onRequest" xlink:href="Rule.html" xlink:show="new" xlink:title="Rule.html" xlink:type="simple"><g id="elem_org.vorpal.blade.services.crud2.rules.Rule"><rect codeLine="8" fill="#F1F1F1" height="62.7539" id="org.vorpal.blade.services.crud2.rules.Rule" rx="2.5" ry="2.5" style="stroke:#181818;stroke-width:0.5;" width="401" x="289.5" y="7"/><ellipse cx="396.75" cy="26.1328" fill="#A9DCDF" rx="11" ry="11" style="stroke:#181818;stroke-width:1.0;"/><path d="M396.6133,21.481 L395.4595,26.5527 L397.7754,26.5527 Z M395.1191,19.2397 L398.1157,19.2397 L401.4609,31.6328 L399.0122,31.6328 L398.2485,28.5698 L394.9697,28.5698 L394.2227,31.6328 L391.7739,31.6328 Z " fill="#000000"/><text fill="#000000" font-family="sans-serif" font-size="14" font-style="italic" lengthAdjust="spacing" textLength="30" x="491.25" y="25.5352">Rule</text><text fill="#000000" font-family="sans-serif" font-size="10" font-style="italic" lengthAdjust="spacing" textLength="178" x="417.25" y="38.1563">org.vorpal.blade.services.crud2.rules</text><line style="stroke:#181818;stroke-width:0.5;" x1="290.5" x2="689.5" y1="45.2656" y2="45.2656"/><ellipse cx="300.5" cy="59.0098" fill="#84BE84" rx="3" ry="3" style="stroke:#038048;stroke-width:1.0;"/><text fill="#000000" font-family="sans-serif" font-size="14" font-style="italic" lengthAdjust="spacing" textLength="375" x="309.5" y="62.8008">process(Map&lt;String, String&gt;, SipServletMessage): void</text></g></a><!--reverse link java.util.HashMap to org.vorpal.blade.services.crud2.rules.Rule.AttributeValuePairs--><g id="link_java.util.HashMap_org.vorpal.blade.services.crud2.rules.Rule.AttributeValuePairs"><path codeLine="12" d="M176.7518,67.1123 C209.6718,87.0723 246.51,109.4 279.49,129.39 " fill="none" id="java.util.HashMap-backto-org.vorpal.blade.services.crud2.rules.Rule.AttributeValuePairs" style="stroke:#181818;stroke-width:1.0;"/><polygon fill="none" points="161.36,57.78,173.641,72.2429,179.8626,61.9817,161.36,57.78" style="stroke:#181818;stroke-width:1.0;"/></g><!--reverse link org.vorpal.blade.services.crud2.rules.Rule to org.vorpal.blade.services.crud2.rules.Rule.AttributeValuePairs--><g id="link_org.vorpal.blade.services.crud2.rules.Rule_org.vorpal.blade.services.crud2.rules.Rule.AttributeValuePairs"><path codeLine="13" d="M425.1974,78.4406 C393.5974,97.4906 367.79,113.05 340.89,129.26 " fill="none" id="org.vorpal.blade.services.crud2.rules.Rule-backto-org.vorpal.blade.services.crud2.rules.Rule.AttributeValuePairs" style="stroke:#181818;stroke-width:1.0;"/><ellipse cx="432.0487" cy="74.3103" fill="#FFFFFF" rx="8" ry="8" style="stroke:#181818;stroke-width:1.0;"/><line style="stroke:#181818;stroke-width:1.0;" x1="425.1974" x2="438.9" y1="78.4406" y2="70.18"/><line style="stroke:#181818;stroke-width:1.0;" x1="427.9184" x2="436.179" y1="67.459" y2="81.1616"/></g><text fill="#888888" font-family="sans-serif" font-size="10" lengthAdjust="spacing" textLength="176" x="253.75" y="182.6836">UMLDoclet 2.1.2, PlantUML 1.2024.3</text><!--SRC=[jLBBJiCm4Bpp5QjAI22eGojELIb2ui2XbH0LN0g7RR8q1iUsl9k8vx_Zc80G3ma4vE34uydExAm109W4B5R47dEQayU0uW9OPsaj7aEf2mAglDp2fIPJy7kq8YbTX1EU6sI6tfZr7Oq6kvEJsf0w40bwMGkTeQdf67NWSzjHTYOkh5JZWaUZbWOBKaoXqJcnoaDT35M89RW7oF0jflfA4XQBhuvKAPMvkFYyXIFaSeR-ZUChR53LearozRfJ7NCyZm9sjGrJRQ-fc6gM3ffCeebInFCeomgNit81y-WfTrL6DcjBfOKf6mmI8qEl4wIMBPeOhLZMYINh-vhxT2CKB9ez2JN5NjfMSCaI1UJJiVpp25xYVeuMxfEXzhb_SVK8Mpwu-2zll4sjYof-Q3-FrGt9B79mHPiZQ9mkKgN7vs5z21_63_t-BszAglo3JhV-HZ4d6qS8bywrhzFPzD35ko4mL0Crt8PZWrOY2kiD1TRERcm-0G00]--></g></svg>