<?xml version="1.0" encoding="us-ascii" standalone="no"?><svg xmlns="http://www.w3.org/2000/svg" xmlns:xlink="http://www.w3.org/1999/xlink" contentStyleType="text/css" height="468px" preserveAspectRatio="none" style="width:437px;height:468px;background:#FFFFFF;" version="1.1" viewBox="0 0 437 468" width="437px" zoomAndPan="magnify"><defs/><g><!--cluster org.vorpal.blade.applications.console.webapp--><g id="cluster_org.vorpal.blade.applications.console.webapp"><path d="M8.5,310.37 L330.5,310.37 A3.75,3.75 0 0 1 333,312.87 L340,332.8583 L427.5,332.8583 A2.5,2.5 0 0 1 430,335.3583 L430,439.85 A2.5,2.5 0 0 1 427.5,442.35 L8.5,442.35 A2.5,2.5 0 0 1 6,439.85 L6,312.87 A2.5,2.5 0 0 1 8.5,310.37 " fill="none" style="stroke:#000000;stroke-width:1.5;"/><line style="stroke:#000000;stroke-width:1.5;" x1="6" x2="340" y1="332.8583" y2="332.8583"/><text fill="#000000" font-family="sans-serif" font-size="14" font-weight="bold" lengthAdjust="spacing" textLength="321" x="10" y="325.9052">org.vorpal.blade.applications.console.webapp</text></g><!--cluster javax.servlet.http--><g id="cluster_javax.servlet.http"><path d="M93.5,6 L216.5,6 A3.75,3.75 0 0 1 219,8.5 L226,28.4883 L342.5,28.4883 A2.5,2.5 0 0 1 345,30.9883 L345,283.87 A2.5,2.5 0 0 1 342.5,286.37 L93.5,286.37 A2.5,2.5 0 0 1 91,283.87 L91,8.5 A2.5,2.5 0 0 1 93.5,6 " fill="none" style="stroke:#000000;stroke-width:1.5;"/><line style="stroke:#000000;stroke-width:1.5;" x1="91" x2="226" y1="28.4883" y2="28.4883"/><text fill="#000000" font-family="sans-serif" font-size="14" font-weight="bold" lengthAdjust="spacing" textLength="122" x="95" y="21.5352">javax.servlet.http</text></g><!--class Logout--><a href="Logout.html" target="_top" title="Logout.html" xlink:actuate="onRequest" xlink:href="Logout.html" xlink:show="new" xlink:title="Logout.html" xlink:type="simple"><g id="elem_Logout"><rect codeLine="5" fill="#F1F1F1" height="80.9766" id="Logout" rx="2.5" ry="2.5" style="stroke:#181818;stroke-width:0.5;" width="393" x="21.5" y="345.37"/><ellipse cx="189.75" cy="361.37" fill="#ADD1B2" rx="11" ry="11" style="stroke:#181818;stroke-width:1.0;"/><path d="M192.2231,367.5131 Q191.6421,367.8119 191.0029,367.9613 Q190.3638,368.1107 189.6582,368.1107 Q187.1514,368.1107 185.8315,366.4589 Q184.5117,364.807 184.5117,361.6859 Q184.5117,358.5565 185.8315,356.9047 Q187.1514,355.2528 189.6582,355.2528 Q190.3638,355.2528 191.0112,355.4022 Q191.6587,355.5516 192.2231,355.8505 L192.2231,358.5731 Q191.5923,357.9921 190.9988,357.7223 Q190.4053,357.4525 189.7744,357.4525 Q188.4297,357.4525 187.7449,358.5192 Q187.0601,359.5858 187.0601,361.6859 Q187.0601,363.7777 187.7449,364.8444 Q188.4297,365.911 189.7744,365.911 Q190.4053,365.911 190.9988,365.6412 Q191.5923,365.3715 192.2231,364.7904 Z " fill="#000000"/><text fill="#000000" font-family="sans-serif" font-size="14" lengthAdjust="spacing" textLength="48" x="210.25" y="366.661">Logout</text><line style="stroke:#181818;stroke-width:0.5;" x1="22.5" x2="413.5" y1="377.37" y2="377.37"/><rect fill="none" height="6" style="stroke:#C82930;stroke-width:1.0;" width="6" x="29.5" y="388.1141"/><text fill="#000000" font-family="sans-serif" font-size="14" lengthAdjust="spacing" text-decoration="underline" textLength="152" x="41.5" y="394.9052">serialVersionUID: long</text><line style="stroke:#181818;stroke-width:0.5;" x1="22.5" x2="413.5" y1="401.8583" y2="401.8583"/><ellipse cx="32.5" cy="415.6024" fill="#84BE84" rx="3" ry="3" style="stroke:#038048;stroke-width:1.0;"/><text fill="#000000" font-family="sans-serif" font-size="14" lengthAdjust="spacing" textLength="367" x="41.5" y="419.3934">doGet(HttpServletRequest, HttpServletResponse): void</text></g></a><!--class HttpServlet--><a href="https://javaee.github.io/javaee-spec/javadocs/javax/servlet/http/HttpServlet.html?is-external=true" target="_top" title="https://javaee.github.io/javaee-spec/javadocs/javax/servlet/http/HttpServlet.html?is-external=true" xlink:actuate="onRequest" xlink:href="https://javaee.github.io/javaee-spec/javadocs/javax/servlet/http/HttpServlet.html?is-external=true" xlink:show="new" xlink:title="https://javaee.github.io/javaee-spec/javadocs/javax/servlet/http/HttpServlet.html?is-external=true" xlink:type="simple"><g id="elem_HttpServlet"><rect codeLine="13" fill="#F1F1F1" height="229.3711" id="HttpServlet" rx="2.5" ry="2.5" style="stroke:#181818;stroke-width:0.5;" width="222" x="107" y="41"/><ellipse cx="176.25" cy="57" fill="#A9DCDF" rx="11" ry="11" style="stroke:#181818;stroke-width:1.0;"/><path d="M176.1133,52.3481 L174.9595,57.4199 L177.2754,57.4199 Z M174.6191,50.1069 L177.6157,50.1069 L180.9609,62.5 L178.5122,62.5 L177.7485,59.437 L174.4697,59.437 L173.7227,62.5 L171.2739,62.5 Z " fill="#000000"/><text fill="#000000" font-family="sans-serif" font-size="14" font-style="italic" lengthAdjust="spacing" textLength="75" x="196.75" y="62.291">HttpServlet</text><line style="stroke:#181818;stroke-width:0.5;" x1="108" x2="328" y1="73" y2="73"/><rect fill="none" height="6" style="stroke:#C82930;stroke-width:1.0;" width="6" x="115" y="83.7441"/><text fill="#000000" font-family="sans-serif" font-size="14" lengthAdjust="spacing" text-decoration="underline" textLength="166" x="127" y="90.5352">METHOD_DELETE: String</text><rect fill="none" height="6" style="stroke:#C82930;stroke-width:1.0;" width="6" x="115" y="100.2324"/><text fill="#000000" font-family="sans-serif" font-size="14" lengthAdjust="spacing" text-decoration="underline" textLength="154" x="127" y="107.0234">METHOD_HEAD: String</text><rect fill="none" height="6" style="stroke:#C82930;stroke-width:1.0;" width="6" x="115" y="116.7207"/><text fill="#000000" font-family="sans-serif" font-size="14" lengthAdjust="spacing" text-decoration="underline" textLength="143" x="127" y="123.5117">METHOD_GET: String</text><rect fill="none" height="6" style="stroke:#C82930;stroke-width:1.0;" width="6" x="115" y="133.209"/><text fill="#000000" font-family="sans-serif" font-size="14" lengthAdjust="spacing" text-decoration="underline" textLength="177" x="127" y="140">METHOD_OPTIONS: String</text><rect fill="none" height="6" style="stroke:#C82930;stroke-width:1.0;" width="6" x="115" y="149.6973"/><text fill="#000000" font-family="sans-serif" font-size="14" lengthAdjust="spacing" text-decoration="underline" textLength="152" x="127" y="156.4883">METHOD_POST: String</text><rect fill="none" height="6" style="stroke:#C82930;stroke-width:1.0;" width="6" x="115" y="166.1855"/><text fill="#000000" font-family="sans-serif" font-size="14" lengthAdjust="spacing" text-decoration="underline" textLength="143" x="127" y="172.9766">METHOD_PUT: String</text><rect fill="none" height="6" style="stroke:#C82930;stroke-width:1.0;" width="6" x="115" y="182.6738"/><text fill="#000000" font-family="sans-serif" font-size="14" lengthAdjust="spacing" text-decoration="underline" textLength="162" x="127" y="189.4648">METHOD_TRACE: String</text><rect fill="none" height="6" style="stroke:#C82930;stroke-width:1.0;" width="6" x="115" y="199.1621"/><text fill="#000000" font-family="sans-serif" font-size="14" lengthAdjust="spacing" text-decoration="underline" textLength="196" x="127" y="205.9531">HEADER_IFMODSINCE: String</text><rect fill="none" height="6" style="stroke:#C82930;stroke-width:1.0;" width="6" x="115" y="215.6504"/><text fill="#000000" font-family="sans-serif" font-size="14" lengthAdjust="spacing" text-decoration="underline" textLength="178" x="127" y="222.4414">HEADER_LASTMOD: String</text><rect fill="none" height="6" style="stroke:#C82930;stroke-width:1.0;" width="6" x="115" y="232.1387"/><text fill="#000000" font-family="sans-serif" font-size="14" lengthAdjust="spacing" text-decoration="underline" textLength="140" x="127" y="238.9297">LSTRING_FILE: String</text><rect fill="none" height="6" style="stroke:#C82930;stroke-width:1.0;" width="6" x="115" y="248.627"/><text fill="#000000" font-family="sans-serif" font-size="14" lengthAdjust="spacing" text-decoration="underline" textLength="170" x="127" y="255.418">lStrings: ResourceBundle</text><line style="stroke:#181818;stroke-width:0.5;" x1="108" x2="328" y1="262.3711" y2="262.3711"/></g></a><!--reverse link HttpServlet to Logout--><g id="link_HttpServlet_Logout"><path codeLine="28" d="M218,288.77 C218,315.51 218,324.25 218,345.12 " fill="none" id="HttpServlet-backto-Logout" style="stroke:#181818;stroke-width:1.0;"/><polygon fill="none" points="218,270.77,212,288.77,224,288.77,218,270.77" style="stroke:#181818;stroke-width:1.0;"/></g><text fill="#888888" font-family="sans-serif" font-size="10" lengthAdjust="spacing" textLength="176" x="123.5" y="458.018">UMLDoclet 2.1.2, PlantUML 1.2024.3</text><!--SRC=[bLDHRvim47xlhxYNIQrMZDf7QrEL3PeWaH05ifUgYXnpetGUPlR18hNvxpKXciWgBSmISFhuxlFTwJi008ladbeOGTe0vnSN3eHQo1-YGD2cOAqsjL1igqIEJDIrAgMWKbUMIVVI2jblt3eSNlhSxaWbh8LO5xeXU7Ze0_P4FzNZe-F1uBnOSd9o3vv5Kmhr3OrrwkieuA1qLPoGF-PwYdGv8wfJDAr2Mk6l1YrTmmbcQrSQNd5eTPd_KTZt1UvFUtmMhTWnswUw6gaUL2YsbeoGTEneS8bhg-DQxlkT0Y8hIdfgjgpKHy2pDSf3d6jf3y7EFzxZTxd-GEumdBlIUhWZD9LGdyaq-8zfpSDibWIR88p3BEIGaYd_6jOxxYoS1EEOqp0RHqoMMPGiqd7aPPAEb5skHnAprUJhkUwxjiFL9hgV9q4QBSRouqcQkOmpv3ZDLj5YkhcFudEwglzhEJY3wiP8_D9KkSA1FmVsV6zBpeVs-_JgUV-rdvptQtXGbrWvcy5thRlFUXu7MdQgj-o6tLx3KecA70eVsduTBw_U0000]--></g></svg>