<?xml version="1.0" encoding="us-ascii" standalone="no"?><svg xmlns="http://www.w3.org/2000/svg" xmlns:xlink="http://www.w3.org/1999/xlink" contentStyleType="text/css" height="1228px" preserveAspectRatio="none" style="width:1849px;height:1228px;background:#FFFFFF;" version="1.1" viewBox="0 0 1849 1228" width="1849px" zoomAndPan="magnify"><defs/><g><!--cluster org.vorpal.blade.framework.transfer--><g id="cluster_org.vorpal.blade.framework.transfer"><path d="M8.5,599.67 L264.5,599.67 A3.75,3.75 0 0 1 267,602.17 L274,622.1583 L1671.5,622.1583 A2.5,2.5 0 0 1 1674,624.6583 L1674,1200.4 A2.5,2.5 0 0 1 1671.5,1202.9 L8.5,1202.9 A2.5,2.5 0 0 1 6,1200.4 L6,602.17 A2.5,2.5 0 0 1 8.5,599.67 " fill="none" style="stroke:#000000;stroke-width:1.5;"/><line style="stroke:#000000;stroke-width:1.5;" x1="6" x2="274" y1="622.1583" y2="622.1583"/><text fill="#000000" font-family="sans-serif" font-size="14" font-weight="bold" lengthAdjust="spacing" textLength="255" x="10" y="615.2052">org.vorpal.blade.framework.transfer</text></g><!--cluster org.vorpal.blade.framework.b2bua--><g id="cluster_org.vorpal.blade.framework.b2bua"><path d="M20.5,195.61 L263.5,195.61 A3.75,3.75 0 0 1 266,198.11 L273,218.0983 L289.5,218.0983 A2.5,2.5 0 0 1 292,220.5983 L292,374.55 A2.5,2.5 0 0 1 289.5,377.05 L20.5,377.05 A2.5,2.5 0 0 1 18,374.55 L18,198.11 A2.5,2.5 0 0 1 20.5,195.61 " fill="none" style="stroke:#000000;stroke-width:1.5;"/><line style="stroke:#000000;stroke-width:1.5;" x1="18" x2="273" y1="218.0983" y2="218.0983"/><text fill="#000000" font-family="sans-serif" font-size="14" font-weight="bold" lengthAdjust="spacing" textLength="242" x="22" y="211.1452">org.vorpal.blade.framework.b2bua</text></g><!--cluster java.io--><g id="cluster_java.io"><path d="M1700.5,748.06 L1747.5,748.06 A3.75,3.75 0 0 1 1750,750.56 L1757,770.5483 L1839.5,770.5483 A2.5,2.5 0 0 1 1842,773.0483 L1842,844.56 A2.5,2.5 0 0 1 1839.5,847.06 L1700.5,847.06 A2.5,2.5 0 0 1 1698,844.56 L1698,750.56 A2.5,2.5 0 0 1 1700.5,748.06 " fill="none" style="stroke:#000000;stroke-width:1.5;"/><line style="stroke:#000000;stroke-width:1.5;" x1="1698" x2="1757" y1="770.5483" y2="770.5483"/><text fill="#000000" font-family="sans-serif" font-size="14" font-weight="bold" lengthAdjust="spacing" textLength="46" x="1702" y="763.5952">java.io</text></g><!--cluster org.vorpal.blade.framework.callflow--><g id="cluster_org.vorpal.blade.framework.callflow"><path d="M765.5,6 L1021.5,6 A3.75,3.75 0 0 1 1024,8.5 L1031,28.4883 L1084.5,28.4883 A2.5,2.5 0 0 1 1087,30.9883 L1087,564.17 A2.5,2.5 0 0 1 1084.5,566.67 L765.5,566.67 A2.5,2.5 0 0 1 763,564.17 L763,8.5 A2.5,2.5 0 0 1 765.5,6 " fill="none" style="stroke:#000000;stroke-width:1.5;"/><line style="stroke:#000000;stroke-width:1.5;" x1="763" x2="1031" y1="28.4883" y2="28.4883"/><text fill="#000000" font-family="sans-serif" font-size="14" font-weight="bold" lengthAdjust="spacing" textLength="255" x="767" y="21.5352">org.vorpal.blade.framework.callflow</text></g><!--class ConferenceTransfer--><a href="ConferenceTransfer.html" target="_top" title="ConferenceTransfer.html" xlink:actuate="onRequest" xlink:href="ConferenceTransfer.html" xlink:show="new" xlink:title="ConferenceTransfer.html" xlink:type="simple"><g id="elem_ConferenceTransfer"><rect codeLine="5" fill="#F1F1F1" height="130.4414" id="ConferenceTransfer" rx="2.5" ry="2.5" style="stroke:#181818;stroke-width:0.5;" width="324" x="22" y="1056.46"/><ellipse cx="111.25" cy="1072.46" fill="#ADD1B2" rx="11" ry="11" style="stroke:#181818;stroke-width:1.0;"/><path d="M113.7231,1078.6031 Q113.1421,1078.9019 112.5029,1079.0513 Q111.8638,1079.2007 111.1582,1079.2007 Q108.6514,1079.2007 107.3315,1077.5489 Q106.0117,1075.897 106.0117,1072.7759 Q106.0117,1069.6465 107.3315,1067.9947 Q108.6514,1066.3428 111.1582,1066.3428 Q111.8638,1066.3428 112.5112,1066.4922 Q113.1587,1066.6416 113.7231,1066.9405 L113.7231,1069.6631 Q113.0923,1069.0821 112.4988,1068.8123 Q111.9053,1068.5425 111.2744,1068.5425 Q109.9297,1068.5425 109.2449,1069.6092 Q108.5601,1070.6758 108.5601,1072.7759 Q108.5601,1074.8677 109.2449,1075.9344 Q109.9297,1077.001 111.2744,1077.001 Q111.9053,1077.001 112.4988,1076.7312 Q113.0923,1076.4615 113.7231,1075.8804 Z " fill="#000000"/><text fill="#000000" font-family="sans-serif" font-size="14" lengthAdjust="spacing" textLength="137" x="131.75" y="1077.751">ConferenceTransfer</text><line style="stroke:#181818;stroke-width:0.5;" x1="23" x2="345" y1="1088.46" y2="1088.46"/><polygon fill="none" points="33,1098.2041,29,1104.2041,37,1104.2041" style="stroke:#1963A0;stroke-width:1.0;"/><text fill="#000000" font-family="sans-serif" font-size="14" lengthAdjust="spacing" text-decoration="underline" textLength="152" x="42" y="1105.9952">serialVersionUID: long</text><rect fill="none" height="6" style="stroke:#C82930;stroke-width:1.0;" width="6" x="30" y="1115.6924"/><text fill="#000000" font-family="sans-serif" font-size="14" lengthAdjust="spacing" textLength="216" x="42" y="1122.4834">aliceRequest: SipServletRequest</text><rect fill="none" height="6" style="stroke:#C82930;stroke-width:1.0;" width="6" x="30" y="1132.1807"/><text fill="#000000" font-family="sans-serif" font-size="14" lengthAdjust="spacing" textLength="298" x="42" y="1138.9717">loopOnPrack: Callback&lt;SipServletRequest&gt;</text><line style="stroke:#181818;stroke-width:0.5;" x1="23" x2="345" y1="1145.9248" y2="1145.9248"/><ellipse cx="33" cy="1159.669" fill="#84BE84" rx="3" ry="3" style="stroke:#038048;stroke-width:1.0;"/><text fill="#000000" font-family="sans-serif" font-size="14" lengthAdjust="spacing" textLength="259" x="42" y="1163.46">ConferenceTransfer(TransferListener)</text><ellipse cx="33" cy="1176.1573" fill="#84BE84" rx="3" ry="3" style="stroke:#038048;stroke-width:1.0;"/><text fill="#000000" font-family="sans-serif" font-size="14" lengthAdjust="spacing" textLength="222" x="42" y="1179.9483">process(SipServletRequest): void</text></g></a><!--class TransferInitialInvite--><a href="TransferInitialInvite.html" target="_top" title="TransferInitialInvite.html" xlink:actuate="onRequest" xlink:href="TransferInitialInvite.html" xlink:show="new" xlink:title="TransferInitialInvite.html" xlink:type="simple"><g id="elem_TransferInitialInvite"><rect codeLine="13" fill="#F1F1F1" height="97.4648" id="TransferInitialInvite" rx="2.5" ry="2.5" style="stroke:#181818;stroke-width:0.5;" width="266" x="22" y="758.33"/><ellipse cx="84.25" cy="774.33" fill="#ADD1B2" rx="11" ry="11" style="stroke:#181818;stroke-width:1.0;"/><path d="M86.7231,780.4731 Q86.1421,780.7719 85.5029,780.9213 Q84.8638,781.0707 84.1582,781.0707 Q81.6514,781.0707 80.3315,779.4189 Q79.0117,777.767 79.0117,774.6459 Q79.0117,771.5165 80.3315,769.8647 Q81.6514,768.2128 84.1582,768.2128 Q84.8638,768.2128 85.5112,768.3622 Q86.1587,768.5116 86.7231,768.8105 L86.7231,771.5331 Q86.0923,770.9521 85.4988,770.6823 Q84.9053,770.4125 84.2744,770.4125 Q82.9297,770.4125 82.2449,771.4792 Q81.5601,772.5458 81.5601,774.6459 Q81.5601,776.7377 82.2449,777.8044 Q82.9297,778.871 84.2744,778.871 Q84.9053,778.871 85.4988,778.6012 Q86.0923,778.3315 86.7231,777.7504 Z " fill="#000000"/><text fill="#000000" font-family="sans-serif" font-size="14" lengthAdjust="spacing" textLength="133" x="104.75" y="779.621">TransferInitialInvite</text><line style="stroke:#181818;stroke-width:0.5;" x1="23" x2="287" y1="790.33" y2="790.33"/><rect fill="none" height="6" style="stroke:#C82930;stroke-width:1.0;" width="6" x="30" y="801.0741"/><text fill="#000000" font-family="sans-serif" font-size="14" lengthAdjust="spacing" text-decoration="underline" textLength="152" x="42" y="807.8652">serialVersionUID: long</text><line style="stroke:#181818;stroke-width:0.5;" x1="23" x2="287" y1="814.8183" y2="814.8183"/><ellipse cx="33" cy="828.5624" fill="#84BE84" rx="3" ry="3" style="stroke:#038048;stroke-width:1.0;"/><text fill="#000000" font-family="sans-serif" font-size="14" lengthAdjust="spacing" textLength="240" x="42" y="832.3534">TransferInitialInvite(B2buaListener)</text><ellipse cx="33" cy="845.0507" fill="#84BE84" rx="3" ry="3" style="stroke:#038048;stroke-width:1.0;"/><text fill="#000000" font-family="sans-serif" font-size="14" lengthAdjust="spacing" textLength="222" x="42" y="848.8417">process(SipServletRequest): void</text></g></a><!--class TransferCondition--><a href="TransferCondition.html" target="_top" title="TransferCondition.html" xlink:actuate="onRequest" xlink:href="TransferCondition.html" xlink:show="new" xlink:title="TransferCondition.html" xlink:type="simple"><g id="elem_TransferCondition"><rect codeLine="19" fill="#F1F1F1" height="179.9063" id="TransferCondition" rx="2.5" ry="2.5" style="stroke:#181818;stroke-width:0.5;" width="328" x="323" y="717.11"/><ellipse cx="419.75" cy="733.11" fill="#ADD1B2" rx="11" ry="11" style="stroke:#181818;stroke-width:1.0;"/><path d="M422.2231,739.2531 Q421.6421,739.5519 421.0029,739.7013 Q420.3638,739.8507 419.6582,739.8507 Q417.1514,739.8507 415.8315,738.1989 Q414.5117,736.547 414.5117,733.4259 Q414.5117,730.2965 415.8315,728.6447 Q417.1514,726.9928 419.6582,726.9928 Q420.3638,726.9928 421.0112,727.1422 Q421.6587,727.2916 422.2231,727.5905 L422.2231,730.3131 Q421.5923,729.7321 420.9988,729.4623 Q420.4053,729.1925 419.7744,729.1925 Q418.4297,729.1925 417.7449,730.2592 Q417.0601,731.3258 417.0601,733.4259 Q417.0601,735.5177 417.7449,736.5844 Q418.4297,737.651 419.7744,737.651 Q420.4053,737.651 420.9988,737.3812 Q421.5923,737.1115 422.2231,736.5304 Z " fill="#000000"/><text fill="#000000" font-family="sans-serif" font-size="14" lengthAdjust="spacing" textLength="126" x="440.25" y="738.401">TransferCondition</text><line style="stroke:#181818;stroke-width:0.5;" x1="324" x2="650" y1="749.11" y2="749.11"/><rect fill="none" height="6" style="stroke:#C82930;stroke-width:1.0;" width="6" x="331" y="759.8541"/><text fill="#000000" font-family="sans-serif" font-size="14" lengthAdjust="spacing" textLength="129" x="343" y="766.6452">style: TransferStyle</text><rect fill="none" height="6" style="stroke:#C82930;stroke-width:1.0;" width="6" x="331" y="776.3424"/><text fill="#000000" font-family="sans-serif" font-size="14" lengthAdjust="spacing" textLength="141" x="343" y="783.1334">condition: Condition</text><line style="stroke:#181818;stroke-width:0.5;" x1="324" x2="650" y1="790.0866" y2="790.0866"/><ellipse cx="334" cy="803.8307" fill="#84BE84" rx="3" ry="3" style="stroke:#038048;stroke-width:1.0;"/><text fill="#000000" font-family="sans-serif" font-size="14" lengthAdjust="spacing" textLength="136" x="343" y="807.6217">TransferCondition()</text><ellipse cx="334" cy="820.319" fill="#84BE84" rx="3" ry="3" style="stroke:#038048;stroke-width:1.0;"/><text fill="#000000" font-family="sans-serif" font-size="14" lengthAdjust="spacing" textLength="302" x="343" y="824.11">TransferCondition(TransferStyle, Condition)</text><ellipse cx="334" cy="836.8073" fill="#84BE84" rx="3" ry="3" style="stroke:#038048;stroke-width:1.0;"/><text fill="#000000" font-family="sans-serif" font-size="14" lengthAdjust="spacing" textLength="162" x="343" y="840.5983">getStyle(): TransferStyle</text><ellipse cx="334" cy="853.2955" fill="#84BE84" rx="3" ry="3" style="stroke:#038048;stroke-width:1.0;"/><text fill="#000000" font-family="sans-serif" font-size="14" lengthAdjust="spacing" textLength="189" x="343" y="857.0866">setStyle(TransferStyle): void</text><ellipse cx="334" cy="869.7838" fill="#84BE84" rx="3" ry="3" style="stroke:#038048;stroke-width:1.0;"/><text fill="#000000" font-family="sans-serif" font-size="14" lengthAdjust="spacing" textLength="176" x="343" y="873.5748">getCondition(): Condition</text><ellipse cx="334" cy="886.2721" fill="#84BE84" rx="3" ry="3" style="stroke:#038048;stroke-width:1.0;"/><text fill="#000000" font-family="sans-serif" font-size="14" lengthAdjust="spacing" textLength="203" x="343" y="890.0631">setCondition(Condition): void</text></g></a><!--class BlindTransferOld--><a href="BlindTransferOld.html" target="_top" title="BlindTransferOld.html" xlink:actuate="onRequest" xlink:href="BlindTransferOld.html" xlink:show="new" xlink:title="BlindTransferOld.html" xlink:type="simple"><g id="elem_BlindTransferOld"><rect codeLine="30" fill="#F1F1F1" height="113.9531" id="BlindTransferOld" rx="2.5" ry="2.5" style="stroke:#181818;stroke-width:0.5;" width="264" x="381" y="1064.7"/><ellipse cx="450.75" cy="1080.7" fill="#ADD1B2" rx="11" ry="11" style="stroke:#181818;stroke-width:1.0;"/><path d="M453.2231,1086.8431 Q452.6421,1087.1419 452.0029,1087.2913 Q451.3638,1087.4407 450.6582,1087.4407 Q448.1514,1087.4407 446.8315,1085.7889 Q445.5117,1084.137 445.5117,1081.0159 Q445.5117,1077.8865 446.8315,1076.2347 Q448.1514,1074.5828 450.6582,1074.5828 Q451.3638,1074.5828 452.0112,1074.7322 Q452.6587,1074.8816 453.2231,1075.1805 L453.2231,1077.9031 Q452.5923,1077.3221 451.9988,1077.0523 Q451.4053,1076.7825 450.7744,1076.7825 Q449.4297,1076.7825 448.7449,1077.8492 Q448.0601,1078.9158 448.0601,1081.0159 Q448.0601,1083.1077 448.7449,1084.1744 Q449.4297,1085.241 450.7744,1085.241 Q451.4053,1085.241 451.9988,1084.9712 Q452.5923,1084.7015 453.2231,1084.1204 Z " fill="#000000"/><text fill="#000000" font-family="sans-serif" font-size="14" lengthAdjust="spacing" textLength="116" x="471.25" y="1085.991">BlindTransferOld</text><line style="stroke:#181818;stroke-width:0.5;" x1="382" x2="644" y1="1096.7" y2="1096.7"/><polygon fill="none" points="392,1106.4441,388,1112.4441,396,1112.4441" style="stroke:#1963A0;stroke-width:1.0;"/><text fill="#000000" font-family="sans-serif" font-size="14" lengthAdjust="spacing" text-decoration="underline" textLength="152" x="401" y="1114.2352">serialVersionUID: long</text><rect fill="none" height="6" style="stroke:#C82930;stroke-width:1.0;" width="6" x="389" y="1123.9324"/><text fill="#000000" font-family="sans-serif" font-size="14" lengthAdjust="spacing" textLength="216" x="401" y="1130.7234">aliceRequest: SipServletRequest</text><line style="stroke:#181818;stroke-width:0.5;" x1="382" x2="644" y1="1137.6766" y2="1137.6766"/><ellipse cx="392" cy="1151.4207" fill="#84BE84" rx="3" ry="3" style="stroke:#038048;stroke-width:1.0;"/><text fill="#000000" font-family="sans-serif" font-size="14" lengthAdjust="spacing" textLength="238" x="401" y="1155.2117">BlindTransferOld(TransferListener)</text><ellipse cx="392" cy="1167.909" fill="#84BE84" rx="3" ry="3" style="stroke:#038048;stroke-width:1.0;"/><text fill="#000000" font-family="sans-serif" font-size="14" lengthAdjust="spacing" textLength="222" x="401" y="1171.7">process(SipServletRequest): void</text></g></a><!--class BlindTransfer--><a href="BlindTransfer.html" target="_top" title="BlindTransfer.html" xlink:actuate="onRequest" xlink:href="BlindTransfer.html" xlink:show="new" xlink:title="BlindTransfer.html" xlink:type="simple"><g id="elem_BlindTransfer"><rect codeLine="37" fill="#F1F1F1" height="113.9531" id="BlindTransfer" rx="2.5" ry="2.5" style="stroke:#181818;stroke-width:0.5;" width="248" x="680" y="1064.7"/><ellipse cx="753.75" cy="1080.7" fill="#ADD1B2" rx="11" ry="11" style="stroke:#181818;stroke-width:1.0;"/><path d="M756.2231,1086.8431 Q755.6421,1087.1419 755.0029,1087.2913 Q754.3638,1087.4407 753.6582,1087.4407 Q751.1514,1087.4407 749.8315,1085.7889 Q748.5117,1084.137 748.5117,1081.0159 Q748.5117,1077.8865 749.8315,1076.2347 Q751.1514,1074.5828 753.6582,1074.5828 Q754.3638,1074.5828 755.0112,1074.7322 Q755.6587,1074.8816 756.2231,1075.1805 L756.2231,1077.9031 Q755.5923,1077.3221 754.9988,1077.0523 Q754.4053,1076.7825 753.7744,1076.7825 Q752.4297,1076.7825 751.7449,1077.8492 Q751.0601,1078.9158 751.0601,1081.0159 Q751.0601,1083.1077 751.7449,1084.1744 Q752.4297,1085.241 753.7744,1085.241 Q754.4053,1085.241 754.9988,1084.9712 Q755.5923,1084.7015 756.2231,1084.1204 Z " fill="#000000"/><text fill="#000000" font-family="sans-serif" font-size="14" lengthAdjust="spacing" textLength="92" x="774.25" y="1085.991">BlindTransfer</text><line style="stroke:#181818;stroke-width:0.5;" x1="681" x2="927" y1="1096.7" y2="1096.7"/><polygon fill="none" points="691,1106.4441,687,1112.4441,695,1112.4441" style="stroke:#1963A0;stroke-width:1.0;"/><text fill="#000000" font-family="sans-serif" font-size="14" lengthAdjust="spacing" text-decoration="underline" textLength="152" x="700" y="1114.2352">serialVersionUID: long</text><rect fill="none" height="6" style="stroke:#C82930;stroke-width:1.0;" width="6" x="688" y="1123.9324"/><text fill="#000000" font-family="sans-serif" font-size="14" lengthAdjust="spacing" textLength="216" x="700" y="1130.7234">aliceRequest: SipServletRequest</text><line style="stroke:#181818;stroke-width:0.5;" x1="681" x2="927" y1="1137.6766" y2="1137.6766"/><ellipse cx="691" cy="1151.4207" fill="#84BE84" rx="3" ry="3" style="stroke:#038048;stroke-width:1.0;"/><text fill="#000000" font-family="sans-serif" font-size="14" lengthAdjust="spacing" textLength="214" x="700" y="1155.2117">BlindTransfer(TransferListener)</text><ellipse cx="691" cy="1167.909" fill="#84BE84" rx="3" ry="3" style="stroke:#038048;stroke-width:1.0;"/><text fill="#000000" font-family="sans-serif" font-size="14" lengthAdjust="spacing" textLength="222" x="700" y="1171.7">process(SipServletRequest): void</text></g></a><!--class AttendedTransfer--><a href="AttendedTransfer.html" target="_top" title="AttendedTransfer.html" xlink:actuate="onRequest" xlink:href="AttendedTransfer.html" xlink:show="new" xlink:title="AttendedTransfer.html" xlink:type="simple"><g id="elem_AttendedTransfer"><rect codeLine="44" fill="#F1F1F1" height="130.4414" id="AttendedTransfer" rx="2.5" ry="2.5" style="stroke:#181818;stroke-width:0.5;" width="324" x="963" y="1056.46"/><ellipse cx="1060.25" cy="1072.46" fill="#ADD1B2" rx="11" ry="11" style="stroke:#181818;stroke-width:1.0;"/><path d="M1062.7231,1078.6031 Q1062.1421,1078.9019 1061.5029,1079.0513 Q1060.8638,1079.2007 1060.1582,1079.2007 Q1057.6514,1079.2007 1056.3315,1077.5489 Q1055.0117,1075.897 1055.0117,1072.7759 Q1055.0117,1069.6465 1056.3315,1067.9947 Q1057.6514,1066.3428 1060.1582,1066.3428 Q1060.8638,1066.3428 1061.5112,1066.4922 Q1062.1587,1066.6416 1062.7231,1066.9405 L1062.7231,1069.6631 Q1062.0923,1069.0821 1061.4988,1068.8123 Q1060.9053,1068.5425 1060.2744,1068.5425 Q1058.9297,1068.5425 1058.2449,1069.6092 Q1057.5601,1070.6758 1057.5601,1072.7759 Q1057.5601,1074.8677 1058.2449,1075.9344 Q1058.9297,1077.001 1060.2744,1077.001 Q1060.9053,1077.001 1061.4988,1076.7312 Q1062.0923,1076.4615 1062.7231,1075.8804 Z " fill="#000000"/><text fill="#000000" font-family="sans-serif" font-size="14" lengthAdjust="spacing" textLength="121" x="1080.75" y="1077.751">AttendedTransfer</text><line style="stroke:#181818;stroke-width:0.5;" x1="964" x2="1286" y1="1088.46" y2="1088.46"/><polygon fill="none" points="974,1098.2041,970,1104.2041,978,1104.2041" style="stroke:#1963A0;stroke-width:1.0;"/><text fill="#000000" font-family="sans-serif" font-size="14" lengthAdjust="spacing" text-decoration="underline" textLength="152" x="983" y="1105.9952">serialVersionUID: long</text><rect fill="none" height="6" style="stroke:#C82930;stroke-width:1.0;" width="6" x="971" y="1115.6924"/><text fill="#000000" font-family="sans-serif" font-size="14" lengthAdjust="spacing" textLength="216" x="983" y="1122.4834">aliceRequest: SipServletRequest</text><rect fill="none" height="6" style="stroke:#C82930;stroke-width:1.0;" width="6" x="971" y="1132.1807"/><text fill="#000000" font-family="sans-serif" font-size="14" lengthAdjust="spacing" textLength="298" x="983" y="1138.9717">loopOnPrack: Callback&lt;SipServletRequest&gt;</text><line style="stroke:#181818;stroke-width:0.5;" x1="964" x2="1286" y1="1145.9248" y2="1145.9248"/><ellipse cx="974" cy="1159.669" fill="#84BE84" rx="3" ry="3" style="stroke:#038048;stroke-width:1.0;"/><text fill="#000000" font-family="sans-serif" font-size="14" lengthAdjust="spacing" textLength="243" x="983" y="1163.46">AttendedTransfer(TransferListener)</text><ellipse cx="974" cy="1176.1573" fill="#84BE84" rx="3" ry="3" style="stroke:#038048;stroke-width:1.0;"/><text fill="#000000" font-family="sans-serif" font-size="14" lengthAdjust="spacing" textLength="222" x="983" y="1179.9483">process(SipServletRequest): void</text></g></a><!--class TransferListener--><a href="TransferListener.html" target="_top" title="TransferListener.html" xlink:actuate="onRequest" xlink:href="TransferListener.html" xlink:show="new" xlink:title="TransferListener.html" xlink:type="simple"><g id="elem_TransferListener"><rect codeLine="52" fill="#F1F1F1" height="130.4414" id="TransferListener" rx="2.5" ry="2.5" style="stroke:#181818;stroke-width:0.5;" width="335" x="1322.5" y="1056.46"/><ellipse cx="1429.75" cy="1072.46" fill="#B4A7E5" rx="11" ry="11" style="stroke:#181818;stroke-width:1.0;"/><path d="M1426.1777,1068.7251 L1426.1777,1066.5669 L1433.5571,1066.5669 L1433.5571,1068.7251 L1431.0918,1068.7251 L1431.0918,1076.8018 L1433.5571,1076.8018 L1433.5571,1078.96 L1426.1777,1078.96 L1426.1777,1076.8018 L1428.6431,1076.8018 L1428.6431,1068.7251 Z " fill="#000000"/><text fill="#000000" font-family="sans-serif" font-size="14" font-style="italic" lengthAdjust="spacing" textLength="112" x="1450.25" y="1077.751">TransferListener</text><line style="stroke:#181818;stroke-width:0.5;" x1="1323.5" x2="1656.5" y1="1088.46" y2="1088.46"/><line style="stroke:#181818;stroke-width:0.5;" x1="1323.5" x2="1656.5" y1="1096.46" y2="1096.46"/><ellipse cx="1333.5" cy="1110.2041" fill="#84BE84" rx="3" ry="3" style="stroke:#038048;stroke-width:1.0;"/><text fill="#000000" font-family="sans-serif" font-size="14" font-style="italic" lengthAdjust="spacing" textLength="295" x="1342.5" y="1113.9952">transferRequested(SipServletRequest): void</text><ellipse cx="1333.5" cy="1126.6924" fill="#84BE84" rx="3" ry="3" style="stroke:#038048;stroke-width:1.0;"/><text fill="#000000" font-family="sans-serif" font-size="14" font-style="italic" lengthAdjust="spacing" textLength="279" x="1342.5" y="1130.4834">transferInitiated(SipServletRequest): void</text><ellipse cx="1333.5" cy="1143.1807" fill="#84BE84" rx="3" ry="3" style="stroke:#038048;stroke-width:1.0;"/><text fill="#000000" font-family="sans-serif" font-size="14" font-style="italic" lengthAdjust="spacing" textLength="309" x="1342.5" y="1146.9717">transferCompleted(SipServletResponse): void</text><ellipse cx="1333.5" cy="1159.669" fill="#84BE84" rx="3" ry="3" style="stroke:#038048;stroke-width:1.0;"/><text fill="#000000" font-family="sans-serif" font-size="14" font-style="italic" lengthAdjust="spacing" textLength="293" x="1342.5" y="1163.46">transferDeclined(SipServletResponse): void</text><ellipse cx="1333.5" cy="1176.1573" fill="#84BE84" rx="3" ry="3" style="stroke:#038048;stroke-width:1.0;"/><text fill="#000000" font-family="sans-serif" font-size="14" font-style="italic" lengthAdjust="spacing" textLength="303" x="1342.5" y="1179.9483">transferAbandoned(SipServletRequest): void</text></g></a><!--class Transfer--><a href="Transfer.html" target="_top" title="Transfer.html" xlink:actuate="onRequest" xlink:href="Transfer.html" xlink:show="new" xlink:title="Transfer.html" xlink:type="simple"><g id="elem_Transfer"><rect codeLine="60" fill="#F1F1F1" height="344.7891" id="Transfer" rx="2.5" ry="2.5" style="stroke:#181818;stroke-width:0.5;" width="477" x="686.5" y="634.67"/><ellipse cx="891.75" cy="650.67" fill="#ADD1B2" rx="11" ry="11" style="stroke:#181818;stroke-width:1.0;"/><path d="M894.2231,656.8131 Q893.6421,657.1119 893.0029,657.2613 Q892.3638,657.4107 891.6582,657.4107 Q889.1514,657.4107 887.8315,655.7589 Q886.5117,654.107 886.5117,650.9859 Q886.5117,647.8565 887.8315,646.2047 Q889.1514,644.5528 891.6582,644.5528 Q892.3638,644.5528 893.0112,644.7022 Q893.6587,644.8516 894.2231,645.1505 L894.2231,647.8731 Q893.5923,647.2921 892.9988,647.0223 Q892.4053,646.7525 891.7744,646.7525 Q890.4297,646.7525 889.7449,647.8192 Q889.0601,648.8858 889.0601,650.9859 Q889.0601,653.0777 889.7449,654.1444 Q890.4297,655.211 891.7744,655.211 Q892.4053,655.211 892.9988,654.9412 Q893.5923,654.6715 894.2231,654.0904 Z " fill="#000000"/><text fill="#000000" font-family="sans-serif" font-size="14" lengthAdjust="spacing" textLength="58" x="912.25" y="655.961">Transfer</text><line style="stroke:#181818;stroke-width:0.5;" x1="687.5" x2="1162.5" y1="666.67" y2="666.67"/><polygon fill="none" points="697.5,676.4141,693.5,682.4141,701.5,682.4141" style="stroke:#1963A0;stroke-width:1.0;"/><text fill="#000000" font-family="sans-serif" font-size="14" lengthAdjust="spacing" text-decoration="underline" textLength="152" x="706.5" y="684.2052">serialVersionUID: long</text><polygon fill="none" points="697.5,691.9024,701.5,695.9024,697.5,699.9024,693.5,695.9024" style="stroke:#B38D22;stroke-width:1.0;"/><text fill="#000000" font-family="sans-serif" font-size="14" lengthAdjust="spacing" text-decoration="underline" textLength="118" x="706.5" y="700.6934">REFER_TO: String</text><polygon fill="none" points="697.5,708.3907,701.5,712.3907,697.5,716.3907,693.5,712.3907" style="stroke:#B38D22;stroke-width:1.0;"/><text fill="#000000" font-family="sans-serif" font-size="14" lengthAdjust="spacing" text-decoration="underline" textLength="142" x="706.5" y="717.1817">REFERRED_BY: String</text><polygon fill="none" points="697.5,724.879,701.5,728.879,697.5,732.879,693.5,728.879" style="stroke:#B38D22;stroke-width:1.0;"/><text fill="#000000" font-family="sans-serif" font-size="14" lengthAdjust="spacing" text-decoration="underline" textLength="199" x="706.5" y="733.67">SUBSCRIPTION_STATE: String</text><polygon fill="none" points="697.5,741.3673,701.5,745.3673,697.5,749.3673,693.5,745.3673" style="stroke:#B38D22;stroke-width:1.0;"/><text fill="#000000" font-family="sans-serif" font-size="14" lengthAdjust="spacing" text-decoration="underline" textLength="93" x="706.5" y="750.1583">EVENT: String</text><polygon fill="none" points="697.5,757.8555,701.5,761.8555,697.5,765.8555,693.5,761.8555" style="stroke:#B38D22;stroke-width:1.0;"/><text fill="#000000" font-family="sans-serif" font-size="14" lengthAdjust="spacing" text-decoration="underline" textLength="99" x="706.5" y="766.6466">ACTIVE: String</text><polygon fill="none" points="697.5,774.3438,701.5,778.3438,697.5,782.3438,693.5,778.3438" style="stroke:#B38D22;stroke-width:1.0;"/><text fill="#000000" font-family="sans-serif" font-size="14" lengthAdjust="spacing" text-decoration="underline" textLength="109" x="706.5" y="783.1348">PENDING: String</text><polygon fill="none" points="697.5,790.8321,701.5,794.8321,697.5,798.8321,693.5,794.8321" style="stroke:#B38D22;stroke-width:1.0;"/><text fill="#000000" font-family="sans-serif" font-size="14" lengthAdjust="spacing" text-decoration="underline" textLength="106" x="706.5" y="799.6231">SIPFRAG: String</text><polygon fill="none" points="697.5,807.3204,701.5,811.3204,697.5,815.3204,693.5,811.3204" style="stroke:#B38D22;stroke-width:1.0;"/><text fill="#000000" font-family="sans-serif" font-size="14" lengthAdjust="spacing" text-decoration="underline" textLength="134" x="706.5" y="816.1114">TRYING_100: String</text><polygon fill="none" points="697.5,823.8087,701.5,827.8087,697.5,831.8087,693.5,827.8087" style="stroke:#B38D22;stroke-width:1.0;"/><text fill="#000000" font-family="sans-serif" font-size="14" lengthAdjust="spacing" text-decoration="underline" textLength="103" x="706.5" y="832.5997">OK_200: String</text><polygon fill="none" points="697.5,840.297,701.5,844.297,697.5,848.297,693.5,844.297" style="stroke:#B38D22;stroke-width:1.0;"/><text fill="#000000" font-family="sans-serif" font-size="14" lengthAdjust="spacing" textLength="255" x="706.5" y="849.088">transfereeRequest: SipServletRequest</text><polygon fill="none" points="697.5,856.7852,701.5,860.7852,697.5,864.7852,693.5,860.7852" style="stroke:#B38D22;stroke-width:1.0;"/><text fill="#000000" font-family="sans-serif" font-size="14" lengthAdjust="spacing" textLength="226" x="706.5" y="865.5763">targetRequest: SipServletRequest</text><polygon fill="none" points="697.5,873.2735,701.5,877.2735,697.5,881.2735,693.5,877.2735" style="stroke:#B38D22;stroke-width:1.0;"/><text fill="#000000" font-family="sans-serif" font-size="14" lengthAdjust="spacing" textLength="254" x="706.5" y="882.0645">transferorRequest: SipServletRequest</text><line style="stroke:#181818;stroke-width:0.5;" x1="687.5" x2="1162.5" y1="889.0177" y2="889.0177"/><ellipse cx="697.5" cy="902.7618" fill="#84BE84" rx="3" ry="3" style="stroke:#038048;stroke-width:1.0;"/><text fill="#000000" font-family="sans-serif" font-size="14" lengthAdjust="spacing" textLength="180" x="706.5" y="906.5528">Transfer(TransferListener)</text><polygon fill="#FFFF44" points="697.5,914.2501,701.5,918.2501,697.5,922.2501,693.5,918.2501" style="stroke:#B38D22;stroke-width:1.0;"/><text fill="#000000" font-family="sans-serif" font-size="14" lengthAdjust="spacing" textLength="273" x="706.5" y="923.0411">createRequests(SipServletRequest): void</text><ellipse cx="697.5" cy="935.7384" fill="#84BE84" rx="3" ry="3" style="stroke:#038048;stroke-width:1.0;"/><text fill="#000000" font-family="sans-serif" font-size="14" lengthAdjust="spacing" textLength="451" x="706.5" y="939.5294">preserveInviteHeaders(SipServletRequest, SipServletRequest): void</text><ellipse cx="697.5" cy="952.2266" fill="#84BE84" rx="3" ry="3" style="stroke:#038048;stroke-width:1.0;"/><text fill="#000000" font-family="sans-serif" font-size="14" lengthAdjust="spacing" textLength="450" x="706.5" y="956.0177">preserveReferHeaders(SipServletRequest, SipServletRequest): void</text><ellipse cx="697.5" cy="968.7149" fill="#84BE84" rx="3" ry="3" style="stroke:#038048;stroke-width:1.0;"/><text fill="#000000" font-family="sans-serif" font-size="14" lengthAdjust="spacing" textLength="222" x="706.5" y="972.5059">process(SipServletRequest): void</text></g></a><!--class InitialInvite--><g id="elem_InitialInvite"><rect codeLine="84" fill="#F1F1F1" height="130.4414" id="InitialInvite" rx="2.5" ry="2.5" style="stroke:#181818;stroke-width:0.5;" width="242" x="34" y="230.61"/><ellipse cx="113.25" cy="246.61" fill="#ADD1B2" rx="11" ry="11" style="stroke:#181818;stroke-width:1.0;"/><path d="M115.7231,252.7531 Q115.1421,253.0519 114.5029,253.2013 Q113.8638,253.3507 113.1582,253.3507 Q110.6514,253.3507 109.3315,251.6989 Q108.0117,250.047 108.0117,246.9259 Q108.0117,243.7965 109.3315,242.1447 Q110.6514,240.4928 113.1582,240.4928 Q113.8638,240.4928 114.5112,240.6422 Q115.1587,240.7916 115.7231,241.0905 L115.7231,243.8131 Q115.0923,243.2321 114.4988,242.9623 Q113.9053,242.6925 113.2744,242.6925 Q111.9297,242.6925 111.2449,243.7592 Q110.5601,244.8258 110.5601,246.9259 Q110.5601,249.0177 111.2449,250.0844 Q111.9297,251.151 113.2744,251.151 Q113.9053,251.151 114.4988,250.8812 Q115.0923,250.6115 115.7231,250.0304 Z " fill="#000000"/><text fill="#000000" font-family="sans-serif" font-size="14" lengthAdjust="spacing" textLength="75" x="133.75" y="251.901">InitialInvite</text><line style="stroke:#181818;stroke-width:0.5;" x1="35" x2="275" y1="262.61" y2="262.61"/><polygon fill="none" points="45,272.3541,41,278.3541,49,278.3541" style="stroke:#1963A0;stroke-width:1.0;"/><text fill="#000000" font-family="sans-serif" font-size="14" lengthAdjust="spacing" text-decoration="underline" textLength="152" x="54" y="280.1452">serialVersionUID: long</text><rect fill="none" height="6" style="stroke:#C82930;stroke-width:1.0;" width="6" x="42" y="289.8424"/><text fill="#000000" font-family="sans-serif" font-size="14" lengthAdjust="spacing" textLength="216" x="54" y="296.6334">aliceRequest: SipServletRequest</text><rect fill="none" height="6" style="stroke:#C82930;stroke-width:1.0;" width="6" x="42" y="306.3307"/><text fill="#000000" font-family="sans-serif" font-size="14" lengthAdjust="spacing" textLength="212" x="54" y="313.1217">bobRequest: SipServletRequest</text><rect fill="none" height="6" style="stroke:#C82930;stroke-width:1.0;" width="6" x="42" y="322.819"/><text fill="#000000" font-family="sans-serif" font-size="14" lengthAdjust="spacing" textLength="203" x="54" y="329.61">b2buaListener: B2buaListener</text><rect fill="none" height="6" style="stroke:#C82930;stroke-width:1.0;" width="6" x="42" y="339.3073"/><text fill="#000000" font-family="sans-serif" font-size="14" lengthAdjust="spacing" textLength="158" x="54" y="346.0983">doNotProcess: boolean</text><line style="stroke:#181818;stroke-width:0.5;" x1="35" x2="275" y1="353.0514" y2="353.0514"/></g><!--class Serializable--><a href="https://docs.oracle.com/en/java/javase/11/docs/api/java.base/java/io/Serializable.html?is-external=true" target="_top" title="https://docs.oracle.com/en/java/javase/11/docs/api/java.base/java/io/Serializable.html?is-external=true" xlink:actuate="onRequest" xlink:href="https://docs.oracle.com/en/java/javase/11/docs/api/java.base/java/io/Serializable.html?is-external=true" xlink:show="new" xlink:title="https://docs.oracle.com/en/java/javase/11/docs/api/java.base/java/io/Serializable.html?is-external=true" xlink:type="simple"><g id="elem_Serializable"><rect codeLine="94" fill="#F1F1F1" height="48" id="Serializable" rx="2.5" ry="2.5" style="stroke:#181818;stroke-width:0.5;" width="111" x="1714.5" y="783.06"/><ellipse cx="1729.5" cy="799.06" fill="#B4A7E5" rx="11" ry="11" style="stroke:#181818;stroke-width:1.0;"/><path d="M1725.9277,795.3251 L1725.9277,793.1669 L1733.3071,793.1669 L1733.3071,795.3251 L1730.8418,795.3251 L1730.8418,803.4018 L1733.3071,803.4018 L1733.3071,805.56 L1725.9277,805.56 L1725.9277,803.4018 L1728.3931,803.4018 L1728.3931,795.3251 Z " fill="#000000"/><text fill="#000000" font-family="sans-serif" font-size="14" font-style="italic" lengthAdjust="spacing" textLength="79" x="1743.5" y="804.351">Serializable</text><line style="stroke:#181818;stroke-width:0.5;" x1="1715.5" x2="1824.5" y1="815.06" y2="815.06"/><line style="stroke:#181818;stroke-width:0.5;" x1="1715.5" x2="1824.5" y1="823.06" y2="823.06"/></g></a><!--class Callflow--><a href="https://vorpalnet.github.io/blade/vorpal-blade-library-framework/org/vorpal/blade/framework/callflow/Callflow.html?is-external=true" target="_top" title="https://vorpalnet.github.io/blade/vorpal-blade-library-framework/org/vorpal/blade/framework/callflow/Callflow.html?is-external=true" xlink:actuate="onRequest" xlink:href="https://vorpalnet.github.io/blade/vorpal-blade-library-framework/org/vorpal/blade/framework/callflow/Callflow.html?is-external=true" xlink:show="new" xlink:title="https://vorpalnet.github.io/blade/vorpal-blade-library-framework/org/vorpal/blade/framework/callflow/Callflow.html?is-external=true" xlink:type="simple"><g id="elem_Callflow"><rect codeLine="98" fill="#F1F1F1" height="509.6719" id="Callflow" rx="2.5" ry="2.5" style="stroke:#181818;stroke-width:0.5;" width="291" x="779.5" y="41"/><ellipse cx="893.25" cy="57" fill="#A9DCDF" rx="11" ry="11" style="stroke:#181818;stroke-width:1.0;"/><path d="M893.1133,52.3481 L891.9595,57.4199 L894.2754,57.4199 Z M891.6191,50.1069 L894.6157,50.1069 L897.9609,62.5 L895.5122,62.5 L894.7485,59.437 L891.4697,59.437 L890.7227,62.5 L888.2739,62.5 Z " fill="#000000"/><text fill="#000000" font-family="sans-serif" font-size="14" font-style="italic" lengthAdjust="spacing" textLength="55" x="913.75" y="62.291">Callflow</text><line style="stroke:#181818;stroke-width:0.5;" x1="780.5" x2="1069.5" y1="73" y2="73"/><rect fill="none" height="6" style="stroke:#C82930;stroke-width:1.0;" width="6" x="787.5" y="83.7441"/><text fill="#000000" font-family="sans-serif" font-size="14" lengthAdjust="spacing" text-decoration="underline" textLength="152" x="799.5" y="90.5352">serialVersionUID: long</text><polygon fill="none" points="790.5,98.2324,794.5,102.2324,790.5,106.2324,786.5,102.2324" style="stroke:#B38D22;stroke-width:1.0;"/><text fill="#000000" font-family="sans-serif" font-size="14" lengthAdjust="spacing" text-decoration="underline" textLength="149" x="799.5" y="107.0234">sipFactory: SipFactory</text><polygon fill="none" points="790.5,114.7207,794.5,118.7207,790.5,122.7207,786.5,118.7207" style="stroke:#B38D22;stroke-width:1.0;"/><text fill="#000000" font-family="sans-serif" font-size="14" lengthAdjust="spacing" text-decoration="underline" textLength="154" x="799.5" y="123.5117">sipUtil: SipSessionsUtil</text><polygon fill="none" points="790.5,131.209,794.5,135.209,790.5,139.209,786.5,135.209" style="stroke:#B38D22;stroke-width:1.0;"/><text fill="#000000" font-family="sans-serif" font-size="14" lengthAdjust="spacing" text-decoration="underline" textLength="180" x="799.5" y="140">timerService: TimerService</text><polygon fill="none" points="790.5,147.6973,794.5,151.6973,790.5,155.6973,786.5,151.6973" style="stroke:#B38D22;stroke-width:1.0;"/><text fill="#000000" font-family="sans-serif" font-size="14" lengthAdjust="spacing" text-decoration="underline" textLength="124" x="799.5" y="156.4883">sipLogger: Logger</text><polygon fill="none" points="790.5,164.1855,794.5,168.1855,790.5,172.1855,786.5,168.1855" style="stroke:#B38D22;stroke-width:1.0;"/><text fill="#000000" font-family="sans-serif" font-size="14" lengthAdjust="spacing" text-decoration="underline" textLength="265" x="799.5" y="172.9766">sessionParameters: SessionParameters</text><polygon fill="none" points="790.5,180.6738,794.5,184.6738,790.5,188.6738,786.5,184.6738" style="stroke:#B38D22;stroke-width:1.0;"/><text fill="#000000" font-family="sans-serif" font-size="14" lengthAdjust="spacing" text-decoration="underline" textLength="93" x="799.5" y="189.4648">INVITE: String</text><polygon fill="none" points="790.5,197.1621,794.5,201.1621,790.5,205.1621,786.5,201.1621" style="stroke:#B38D22;stroke-width:1.0;"/><text fill="#000000" font-family="sans-serif" font-size="14" lengthAdjust="spacing" text-decoration="underline" textLength="78" x="799.5" y="205.9531">ACK: String</text><polygon fill="none" points="790.5,213.6504,794.5,217.6504,790.5,221.6504,786.5,217.6504" style="stroke:#B38D22;stroke-width:1.0;"/><text fill="#000000" font-family="sans-serif" font-size="14" lengthAdjust="spacing" text-decoration="underline" textLength="74" x="799.5" y="222.4414">BYE: String</text><polygon fill="none" points="790.5,230.1387,794.5,234.1387,790.5,238.1387,786.5,234.1387" style="stroke:#B38D22;stroke-width:1.0;"/><text fill="#000000" font-family="sans-serif" font-size="14" lengthAdjust="spacing" text-decoration="underline" textLength="104" x="799.5" y="238.9297">CANCEL: String</text><polygon fill="none" points="790.5,246.627,794.5,250.627,790.5,254.627,786.5,250.627" style="stroke:#B38D22;stroke-width:1.0;"/><text fill="#000000" font-family="sans-serif" font-size="14" lengthAdjust="spacing" text-decoration="underline" textLength="114" x="799.5" y="255.418">REGISTER: String</text><polygon fill="none" points="790.5,263.1152,794.5,267.1152,790.5,271.1152,786.5,267.1152" style="stroke:#B38D22;stroke-width:1.0;"/><text fill="#000000" font-family="sans-serif" font-size="14" lengthAdjust="spacing" text-decoration="underline" textLength="110" x="799.5" y="271.9063">OPTIONS: String</text><polygon fill="none" points="790.5,279.6035,794.5,283.6035,790.5,287.6035,786.5,283.6035" style="stroke:#B38D22;stroke-width:1.0;"/><text fill="#000000" font-family="sans-serif" font-size="14" lengthAdjust="spacing" text-decoration="underline" textLength="95" x="799.5" y="288.3945">PRACK: String</text><polygon fill="none" points="790.5,296.0918,794.5,300.0918,790.5,304.0918,786.5,300.0918" style="stroke:#B38D22;stroke-width:1.0;"/><text fill="#000000" font-family="sans-serif" font-size="14" lengthAdjust="spacing" text-decoration="underline" textLength="122" x="799.5" y="304.8828">SUBSCRIBE: String</text><polygon fill="none" points="790.5,312.5801,794.5,316.5801,790.5,320.5801,786.5,316.5801" style="stroke:#B38D22;stroke-width:1.0;"/><text fill="#000000" font-family="sans-serif" font-size="14" lengthAdjust="spacing" text-decoration="underline" textLength="100" x="799.5" y="321.3711">NOTIFY: String</text><polygon fill="none" points="790.5,329.0684,794.5,333.0684,790.5,337.0684,786.5,333.0684" style="stroke:#B38D22;stroke-width:1.0;"/><text fill="#000000" font-family="sans-serif" font-size="14" lengthAdjust="spacing" text-decoration="underline" textLength="104" x="799.5" y="337.8594">PUBLISH: String</text><polygon fill="none" points="790.5,345.5566,794.5,349.5566,790.5,353.5566,786.5,349.5566" style="stroke:#B38D22;stroke-width:1.0;"/><text fill="#000000" font-family="sans-serif" font-size="14" lengthAdjust="spacing" text-decoration="underline" textLength="82" x="799.5" y="354.3477">INFO: String</text><polygon fill="none" points="790.5,362.0449,794.5,366.0449,790.5,370.0449,786.5,366.0449" style="stroke:#B38D22;stroke-width:1.0;"/><text fill="#000000" font-family="sans-serif" font-size="14" lengthAdjust="spacing" text-decoration="underline" textLength="104" x="799.5" y="370.8359">UPDATE: String</text><polygon fill="none" points="790.5,378.5332,794.5,382.5332,790.5,386.5332,786.5,382.5332" style="stroke:#B38D22;stroke-width:1.0;"/><text fill="#000000" font-family="sans-serif" font-size="14" lengthAdjust="spacing" text-decoration="underline" textLength="91" x="799.5" y="387.3242">REFER: String</text><polygon fill="none" points="790.5,395.0215,794.5,399.0215,790.5,403.0215,786.5,399.0215" style="stroke:#B38D22;stroke-width:1.0;"/><text fill="#000000" font-family="sans-serif" font-size="14" lengthAdjust="spacing" text-decoration="underline" textLength="69" x="799.5" y="403.8125">SIP: String</text><polygon fill="none" points="790.5,411.5098,794.5,415.5098,790.5,419.5098,786.5,415.5098" style="stroke:#B38D22;stroke-width:1.0;"/><text fill="#000000" font-family="sans-serif" font-size="14" lengthAdjust="spacing" text-decoration="underline" textLength="102" x="799.5" y="420.3008">Contact: String</text><polygon fill="none" points="790.5,427.998,794.5,431.998,790.5,435.998,786.5,431.998" style="stroke:#B38D22;stroke-width:1.0;"/><text fill="#000000" font-family="sans-serif" font-size="14" lengthAdjust="spacing" text-decoration="underline" textLength="110" x="799.5" y="436.7891">RELIABLE: String</text><polygon fill="none" points="790.5,444.4863,794.5,448.4863,790.5,452.4863,786.5,448.4863" style="stroke:#B38D22;stroke-width:1.0;"/><text fill="#000000" font-family="sans-serif" font-size="14" lengthAdjust="spacing" text-decoration="underline" textLength="197" x="799.5" y="453.2773">REQUEST_CALLBACK_: String</text><polygon fill="none" points="790.5,460.9746,794.5,464.9746,790.5,468.9746,786.5,464.9746" style="stroke:#B38D22;stroke-width:1.0;"/><text fill="#000000" font-family="sans-serif" font-size="14" lengthAdjust="spacing" text-decoration="underline" textLength="204" x="799.5" y="469.7656">RESPONSE_CALLBACK_: String</text><polygon fill="none" points="790.5,477.4629,794.5,481.4629,790.5,485.4629,786.5,481.4629" style="stroke:#B38D22;stroke-width:1.0;"/><text fill="#000000" font-family="sans-serif" font-size="14" lengthAdjust="spacing" text-decoration="underline" textLength="161" x="799.5" y="486.2539">LINKED_SESSION: String</text><polygon fill="none" points="790.5,493.9512,794.5,497.9512,790.5,501.9512,786.5,497.9512" style="stroke:#B38D22;stroke-width:1.0;"/><text fill="#000000" font-family="sans-serif" font-size="14" lengthAdjust="spacing" text-decoration="underline" textLength="181" x="799.5" y="502.7422">DELAYED_REQUEST: String</text><polygon fill="none" points="790.5,510.4395,794.5,514.4395,790.5,518.4395,786.5,514.4395" style="stroke:#B38D22;stroke-width:1.0;"/><text fill="#000000" font-family="sans-serif" font-size="14" lengthAdjust="spacing" text-decoration="underline" textLength="199" x="799.5" y="519.2305">WITHHOLD_RESPONSE: String</text><line style="stroke:#181818;stroke-width:0.5;" x1="780.5" x2="1069.5" y1="526.1836" y2="526.1836"/><ellipse cx="790.5" cy="539.9277" fill="#84BE84" rx="3" ry="3" style="stroke:#038048;stroke-width:1.0;"/><text fill="#000000" font-family="sans-serif" font-size="14" font-style="italic" lengthAdjust="spacing" textLength="222" x="799.5" y="543.7188">process(SipServletRequest): void</text></g></a><!--reverse link Transfer to ConferenceTransfer--><g id="link_Transfer_ConferenceTransfer"><path codeLine="130" d="M670.0557,979.2978 C664.3057,982.0878 674.74,976.91 669,979.46 C540.85,1036.42 497.16,1015.62 363,1056.46 C357.47,1058.14 351.86,1059.89 346.21,1061.7 " fill="none" id="Transfer-backto-ConferenceTransfer" style="stroke:#181818;stroke-width:1.0;"/><polygon fill="none" points="686.25,971.44,667.4364,973.8997,672.6749,984.6959,686.25,971.44" style="stroke:#181818;stroke-width:1.0;"/></g><!--reverse link InitialInvite to TransferInitialInvite--><g id="link_InitialInvite_TransferInitialInvite"><path codeLine="131" d="M155,379.33 C155,482.9 155,665.99 155,758 " fill="none" id="InitialInvite-backto-TransferInitialInvite" style="stroke:#181818;stroke-width:1.0;"/><polygon fill="none" points="155,361.33,149,379.33,161,379.33,155,361.33" style="stroke:#181818;stroke-width:1.0;"/></g><!--reverse link Transfer to BlindTransferOld--><g id="link_Transfer_BlindTransferOld"><path codeLine="132" d="M684.1701,990.7997 C643.9701,1021.2997 619.16,1040.13 587.27,1064.33 " fill="none" id="Transfer-backto-BlindTransferOld" style="stroke:#181818;stroke-width:1.0;"/><polygon fill="none" points="698.51,979.92,680.5436,986.0198,687.7967,995.5797,698.51,979.92" style="stroke:#181818;stroke-width:1.0;"/></g><!--reverse link Transfer to BlindTransfer--><g id="link_Transfer_BlindTransfer"><path codeLine="133" d="M851.9852,996.7074 C840.1852,1027.2074 835.18,1040.13 825.81,1064.33 " fill="none" id="Transfer-backto-BlindTransfer" style="stroke:#181818;stroke-width:1.0;"/><polygon fill="none" points="858.48,979.92,846.3894,994.5425,857.581,998.8724,858.48,979.92" style="stroke:#181818;stroke-width:1.0;"/></g><!--reverse link Transfer to AttendedTransfer--><g id="link_Transfer_AttendedTransfer"><path codeLine="134" d="M1044.6474,995.0844 C1061.9774,1022.1844 1069.22,1033.49 1083.64,1056.03 " fill="none" id="Transfer-backto-AttendedTransfer" style="stroke:#181818;stroke-width:1.0;"/><polygon fill="none" points="1034.95,979.92,1039.5926,998.3169,1049.7022,991.852,1034.95,979.92" style="stroke:#181818;stroke-width:1.0;"/></g><!--reverse link Serializable to TransferListener--><g id="link_Serializable_TransferListener"><path codeLine="135" d="M1753.4573,848.1208 C1738.6073,882.9908 1714.4,932.78 1674,979.46 C1649.49,1007.78 1618.51,1034.16 1588.99,1056.27 " fill="none" id="Serializable-backto-TransferListener" style="stroke:#181818;stroke-width:1.0;"/><polygon fill="none" points="1760.51,831.56,1747.937,845.7699,1758.9776,850.4717,1760.51,831.56" style="stroke:#181818;stroke-width:1.0;"/></g><!--reverse link Callflow to Transfer--><g id="link_Callflow_Transfer"><path codeLine="136" d="M925,569.08 C925,597.32 925,607.58 925,634.45 " fill="none" id="Callflow-backto-Transfer" style="stroke:#181818;stroke-width:1.0;"/><polygon fill="none" points="925,551.08,919,569.08,931,569.08,925,551.08" style="stroke:#181818;stroke-width:1.0;"/></g><!--link Transfer to TransferListener--><g id="link_Transfer_TransferListener"><path codeLine="137" d="M1163.79,940.19 C1236.22,980.26 1307.3402,1019.6149 1367.9502,1053.1549 " fill="none" id="Transfer-to-TransferListener" style="stroke:#181818;stroke-width:1.0;"/><polygon fill="#181818" points="1373.2,1056.06,1367.262,1048.2025,1368.8252,1053.6391,1363.3886,1055.2022,1373.2,1056.06" style="stroke:#181818;stroke-width:1.0;"/><text fill="#000000" font-family="sans-serif" font-size="13" lengthAdjust="spacing" textLength="99" x="1308.25" y="1023.0284">transferListener</text></g><text fill="#888888" font-family="sans-serif" font-size="10" lengthAdjust="spacing" textLength="176" x="829.5" y="1218.568">UMLDoclet 2.1.2, PlantUML 1.2024.3</text><!--SRC=[rLXjRzis4FxUNq4W6E0WaTpaez1ry8lS2D5ipv8p14LWK3BjS6L4ZMJSPbtsstUI9LkIhL9kwWmpa5W-FNpkXSUxan12I185Vp4MM761BElD6n2Y68UVy98WBfRcYeiOCpDWU4xCXS0Fv3CNdqmbS2GNHA2lwoN99sHOIjJZ4SX9518_ntpyk2iqxzK3kxk3zQZm-IeLLZHyHlz88YXcDqH8ogEfqxSGuz6o13Omeo6Pa3yVYLGMycZi4R5YH6MYCfXn7e-YiG3VBDJ3Z0LmzMvdqVlIghDTmrlvXKkb8X4Hf-KLiU0XaRArmtngeHMdymtwkHgvdDY9g0BVdMX55O7WxPLhucSqYD_PNk9Mzp9un4Tp3W8w1sqyAZYsaUrtof3gYH5hG-4bFyk8C6Umq8Pilw-RswrJ7Q2axtnBN5cu92f5j4w_PUAPp64bJ3LkEMF1p5gNP16sjKwt4rr6etbkn8ZDOIEgejS-d6TL0uvto4gQggx_jtuVp-cE0huvAVfT5VrFwd7Lx6F4Z4QAY0KE2QgI5sfMBgg96muajCXGFQEpl5LcYibSRqmTnRfGluYYnnzYM5MXa36F96dAqISXvEsBA3e1ZkOyQk99RIifxCOFoDuD-6HY3-p9p1z12Yj1lmsRsFrPzrQ3zAPThpTnnhup6iuyl-FRcWNsZJtqDPXEptTkT4HZUzXtXXzqzZdZmQIZG_cJMw2QNRnzgm6EhcUNDQ2JVFz9qpfneh1ORcxfqHa_5qrBSCDASX8A0YSlev3D3Y2K7mAfjoBhqUgAm10jzgmzHuVHJGZO-GFO3gkDpusV3e9aX2mSnlMvBS-rhzPe0XuqXXP7NmkL9k4oSiw7N8tN0RHGm3aZE2e4R4-y_i0hR59US7pRQBpKQVeN3bWoyTyh5KkhtPxpK9eSIYSZPiWVsYHg9opfFqdQ5nSfeerZcehC896c2ChRHSwqFlv2fK6-WCe8iv-LU2HtTmVkQmXjUi7uvu8FUMtFd_vonDQ9DLT4bBcawlunW1YqK-BiZf7-C1WD11PFnaPR6mp981b-Uoitf9thgtFm9Sz7suecQJm07xbuIbCekwu7JnLbMRB9X5ycWXgueW_mB0192IaD3n25N_NyBbykamHTVzVXrhh7E8aQ10NorAkAQfOwmnj7swGwlMiDedkhu-XrXZtRrJRQ3uxdsnDTsqdxgwVhY1EztLc_xkgi7uvyPw1h_kDfrtMyAmtA6GvqyyPqtDTF3kbGec_tkctXaO8Sr-fodKxNrPlqszJs_5cluxfT2FvCY_V6i8zsumMkCxo6CSopFGyIG0Fkssxd5j2PLHhqxuv_TJLo4_ZQgFtume1xG5CjrDu6RzeiQpFtlllRC9ejsNrzfLENja3BAlVgvWhtlb8wgelLLmUlf-oecgeFkgcoR8ImhDAySFZkb6QQ1lqU4YdlwuSh-uum6SRxxtF8GcgVYo599Ysqu3pvclxgzZcCL0fTcXVcvJaQCnmfaAAVLkjve7NwBm00]--></g></svg>