<?xml version="1.0" encoding="us-ascii" standalone="no"?><svg xmlns="http://www.w3.org/2000/svg" xmlns:xlink="http://www.w3.org/1999/xlink" contentStyleType="text/css" height="523px" preserveAspectRatio="none" style="width:493px;height:523px;background:#FFFFFF;" version="1.1" viewBox="0 0 493 523" width="493px" zoomAndPan="magnify"><defs/><g><!--class org.vorpal.blade.framework.transfer.Transfer--><a href="Transfer.html" target="_top" title="Transfer.html" xlink:actuate="onRequest" xlink:href="Transfer.html" xlink:show="new" xlink:title="Transfer.html" xlink:type="simple"><g id="elem_org.vorpal.blade.framework.transfer.Transfer"><rect codeLine="5" fill="#F1F1F1" height="367.543" id="org.vorpal.blade.framework.transfer.Transfer" rx="2.5" ry="2.5" style="stroke:#181818;stroke-width:0.5;" width="477" x="9" y="129.76"/><ellipse cx="154.75" cy="148.8928" fill="#ADD1B2" rx="11" ry="11" style="stroke:#181818;stroke-width:1.0;"/><path d="M157.2231,155.0359 Q156.6421,155.3347 156.0029,155.4841 Q155.3638,155.6335 154.6582,155.6335 Q152.1514,155.6335 150.8315,153.9817 Q149.5117,152.3298 149.5117,149.2087 Q149.5117,146.0793 150.8315,144.4275 Q152.1514,142.7756 154.6582,142.7756 Q155.3638,142.7756 156.0112,142.925 Q156.6587,143.0745 157.2231,143.3733 L157.2231,146.0959 Q156.5923,145.5149 155.9988,145.2451 Q155.4053,144.9753 154.7744,144.9753 Q153.4297,144.9753 152.7449,146.042 Q152.0601,147.1086 152.0601,149.2087 Q152.0601,151.3005 152.7449,152.3672 Q153.4297,153.4338 154.7744,153.4338 Q155.4053,153.4338 155.9988,153.1641 Q156.5923,152.8943 157.2231,152.3132 Z " fill="#000000"/><text fill="#000000" font-family="sans-serif" font-size="14" lengthAdjust="spacing" textLength="58" x="234.75" y="148.2952">Transfer</text><text fill="#000000" font-family="sans-serif" font-size="10" lengthAdjust="spacing" textLength="177" x="175.25" y="160.9163">org.vorpal.blade.framework.transfer</text><line style="stroke:#181818;stroke-width:0.5;" x1="10" x2="485" y1="168.0256" y2="168.0256"/><polygon fill="none" points="20,177.7698,16,183.7698,24,183.7698" style="stroke:#1963A0;stroke-width:1.0;"/><text fill="#000000" font-family="sans-serif" font-size="14" lengthAdjust="spacing" text-decoration="underline" textLength="152" x="29" y="185.5608">serialVersionUID: long</text><polygon fill="none" points="20,193.258,24,197.258,20,201.258,16,197.258" style="stroke:#B38D22;stroke-width:1.0;"/><text fill="#000000" font-family="sans-serif" font-size="14" lengthAdjust="spacing" text-decoration="underline" textLength="118" x="29" y="202.0491">REFER_TO: String</text><polygon fill="none" points="20,209.7463,24,213.7463,20,217.7463,16,213.7463" style="stroke:#B38D22;stroke-width:1.0;"/><text fill="#000000" font-family="sans-serif" font-size="14" lengthAdjust="spacing" text-decoration="underline" textLength="142" x="29" y="218.5373">REFERRED_BY: String</text><polygon fill="none" points="20,226.2346,24,230.2346,20,234.2346,16,230.2346" style="stroke:#B38D22;stroke-width:1.0;"/><text fill="#000000" font-family="sans-serif" font-size="14" lengthAdjust="spacing" text-decoration="underline" textLength="199" x="29" y="235.0256">SUBSCRIPTION_STATE: String</text><polygon fill="none" points="20,242.7229,24,246.7229,20,250.7229,16,246.7229" style="stroke:#B38D22;stroke-width:1.0;"/><text fill="#000000" font-family="sans-serif" font-size="14" lengthAdjust="spacing" text-decoration="underline" textLength="93" x="29" y="251.5139">EVENT: String</text><polygon fill="none" points="20,259.2112,24,263.2112,20,267.2112,16,263.2112" style="stroke:#B38D22;stroke-width:1.0;"/><text fill="#000000" font-family="sans-serif" font-size="14" lengthAdjust="spacing" text-decoration="underline" textLength="99" x="29" y="268.0022">ACTIVE: String</text><polygon fill="none" points="20,275.6995,24,279.6995,20,283.6995,16,279.6995" style="stroke:#B38D22;stroke-width:1.0;"/><text fill="#000000" font-family="sans-serif" font-size="14" lengthAdjust="spacing" text-decoration="underline" textLength="109" x="29" y="284.4905">PENDING: String</text><polygon fill="none" points="20,292.1877,24,296.1877,20,300.1877,16,296.1877" style="stroke:#B38D22;stroke-width:1.0;"/><text fill="#000000" font-family="sans-serif" font-size="14" lengthAdjust="spacing" text-decoration="underline" textLength="106" x="29" y="300.9788">SIPFRAG: String</text><polygon fill="none" points="20,308.676,24,312.676,20,316.676,16,312.676" style="stroke:#B38D22;stroke-width:1.0;"/><text fill="#000000" font-family="sans-serif" font-size="14" lengthAdjust="spacing" text-decoration="underline" textLength="134" x="29" y="317.467">TRYING_100: String</text><polygon fill="none" points="20,325.1643,24,329.1643,20,333.1643,16,329.1643" style="stroke:#B38D22;stroke-width:1.0;"/><text fill="#000000" font-family="sans-serif" font-size="14" lengthAdjust="spacing" text-decoration="underline" textLength="103" x="29" y="333.9553">OK_200: String</text><polygon fill="none" points="20,341.6526,24,345.6526,20,349.6526,16,345.6526" style="stroke:#B38D22;stroke-width:1.0;"/><text fill="#000000" font-family="sans-serif" font-size="14" lengthAdjust="spacing" textLength="228" x="29" y="350.4436">transferListener: TransferListener</text><polygon fill="none" points="20,358.1409,24,362.1409,20,366.1409,16,362.1409" style="stroke:#B38D22;stroke-width:1.0;"/><text fill="#000000" font-family="sans-serif" font-size="14" lengthAdjust="spacing" textLength="255" x="29" y="366.9319">transfereeRequest: SipServletRequest</text><polygon fill="none" points="20,374.6291,24,378.6291,20,382.6291,16,378.6291" style="stroke:#B38D22;stroke-width:1.0;"/><text fill="#000000" font-family="sans-serif" font-size="14" lengthAdjust="spacing" textLength="226" x="29" y="383.4202">targetRequest: SipServletRequest</text><polygon fill="none" points="20,391.1174,24,395.1174,20,399.1174,16,395.1174" style="stroke:#B38D22;stroke-width:1.0;"/><text fill="#000000" font-family="sans-serif" font-size="14" lengthAdjust="spacing" textLength="254" x="29" y="399.9084">transferorRequest: SipServletRequest</text><line style="stroke:#181818;stroke-width:0.5;" x1="10" x2="485" y1="406.8616" y2="406.8616"/><ellipse cx="20" cy="420.6057" fill="#84BE84" rx="3" ry="3" style="stroke:#038048;stroke-width:1.0;"/><text fill="#000000" font-family="sans-serif" font-size="14" lengthAdjust="spacing" textLength="180" x="29" y="424.3967">Transfer(TransferListener)</text><polygon fill="#FFFF44" points="20,432.094,24,436.094,20,440.094,16,436.094" style="stroke:#B38D22;stroke-width:1.0;"/><text fill="#000000" font-family="sans-serif" font-size="14" lengthAdjust="spacing" textLength="273" x="29" y="440.885">createRequests(SipServletRequest): void</text><ellipse cx="20" cy="453.5823" fill="#84BE84" rx="3" ry="3" style="stroke:#038048;stroke-width:1.0;"/><text fill="#000000" font-family="sans-serif" font-size="14" lengthAdjust="spacing" textLength="451" x="29" y="457.3733">preserveInviteHeaders(SipServletRequest, SipServletRequest): void</text><ellipse cx="20" cy="470.0705" fill="#84BE84" rx="3" ry="3" style="stroke:#038048;stroke-width:1.0;"/><text fill="#000000" font-family="sans-serif" font-size="14" lengthAdjust="spacing" textLength="450" x="29" y="473.8616">preserveReferHeaders(SipServletRequest, SipServletRequest): void</text><ellipse cx="20" cy="486.5588" fill="#84BE84" rx="3" ry="3" style="stroke:#038048;stroke-width:1.0;"/><text fill="#000000" font-family="sans-serif" font-size="14" lengthAdjust="spacing" textLength="222" x="29" y="490.3498">process(SipServletRequest): void</text></g></a><!--class org.vorpal.blade.framework.callflow.Callflow--><a href="https://vorpalnet.github.io/blade/vorpal-blade-library-framework/org/vorpal/blade/framework/callflow/Callflow.html?is-external=true" target="_top" title="https://vorpalnet.github.io/blade/vorpal-blade-library-framework/org/vorpal/blade/framework/callflow/Callflow.html?is-external=true" xlink:actuate="onRequest" xlink:href="https://vorpalnet.github.io/blade/vorpal-blade-library-framework/org/vorpal/blade/framework/callflow/Callflow.html?is-external=true" xlink:show="new" xlink:title="https://vorpalnet.github.io/blade/vorpal-blade-library-framework/org/vorpal/blade/framework/callflow/Callflow.html?is-external=true" xlink:type="simple"><g id="elem_org.vorpal.blade.framework.callflow.Callflow"><rect codeLine="27" fill="#F1F1F1" height="62.7539" id="org.vorpal.blade.framework.callflow.Callflow" rx="2.5" ry="2.5" style="stroke:#181818;stroke-width:0.5;" width="248" x="123.5" y="7"/><ellipse cx="156.5" cy="26.1328" fill="#A9DCDF" rx="11" ry="11" style="stroke:#181818;stroke-width:1.0;"/><path d="M156.3633,21.481 L155.2095,26.5527 L157.5254,26.5527 Z M154.8691,19.2397 L157.8657,19.2397 L161.2109,31.6328 L158.7622,31.6328 L157.9985,28.5698 L154.7197,28.5698 L153.9727,31.6328 L151.5239,31.6328 Z " fill="#000000"/><text fill="#000000" font-family="sans-serif" font-size="14" font-style="italic" lengthAdjust="spacing" textLength="55" x="235" y="25.5352">Callflow</text><text fill="#000000" font-family="sans-serif" font-size="10" font-style="italic" lengthAdjust="spacing" textLength="176" x="174.5" y="38.1563">org.vorpal.blade.framework.callflow</text><line style="stroke:#181818;stroke-width:0.5;" x1="124.5" x2="370.5" y1="45.2656" y2="45.2656"/><ellipse cx="134.5" cy="59.0098" fill="#84BE84" rx="3" ry="3" style="stroke:#038048;stroke-width:1.0;"/><text fill="#000000" font-family="sans-serif" font-size="14" font-style="italic" lengthAdjust="spacing" textLength="222" x="143.5" y="62.8008">process(SipServletRequest): void</text></g></a><!--reverse link org.vorpal.blade.framework.callflow.Callflow to org.vorpal.blade.framework.transfer.Transfer--><g id="link_org.vorpal.blade.framework.callflow.Callflow_org.vorpal.blade.framework.transfer.Transfer"><path codeLine="31" d="M247.5,88.18 C247.5,104.02 247.5,106.74 247.5,129.41 " fill="none" id="org.vorpal.blade.framework.callflow.Callflow-backto-org.vorpal.blade.framework.transfer.Transfer" style="stroke:#181818;stroke-width:1.0;"/><polygon fill="none" points="247.5,70.18,241.5,88.18,253.5,88.18,247.5,70.18" style="stroke:#181818;stroke-width:1.0;"/></g><text fill="#888888" font-family="sans-serif" font-size="10" lengthAdjust="spacing" textLength="176" x="151.5" y="512.9709">UMLDoclet 2.1.2, PlantUML 1.2024.3</text><!--SRC=[fPHlRzem4CRVxrESMasYMXF-QA-YhXE5T8lM0Ke2KjLLo8G3h1axiuzqNSS- -rn8oWPT2bhU9Bdx-RadZky000mII3P7ax848qoPPgGqI2NnbKt3Z8yHS9xIFKmuYh7PZiwHPig6L_54C6FWwCpm7-ZLtvx7caapGVr5vg7QkT9JDrCwPS8T2JP6Tw9j-JkblxgKqqV03Ep1kOKytDmKZ-wCvkBs5XvMVXwl1qECUBA4NmOrPsA0sd0b-q7R0w7aT1Sy3lrBFnp6NGyYqlpVIEYtXnVN9LJKluXQOT2BWsvd6CNDs2-1_O7VYKlopLOS3Ce4Udwd7NG-bFa9UfTXiuo8msihCQpNQYLGzzEmyGnmNFoOAsu89MeFugt8BeiOuhS56h9oF8rGPm8f3_r1Cprz2fUJkQxIUz1l2d-LRQCd6yL48wF2fQdig9rua2a-teYc6krHop2G6IVyYFRqwcVMdSB-KY5QR_-ff18qBzXVhjkOZOpTneHs-hd5X9W8TRTVFoSv_L8_5vnRoDj-dX6bngjMrqiaaZlbD5kCNAwgg_LvnbczE8AFDDFtpfDerTRBaPpVf8fwrQBUQcYyvyR1xuHQCl6Ez0B_dYB5dYmFsyg3Fllif-CSDFZMGnUbTGqJfHvl_SzNRPLOJz1mwsxZ57g2IR9HU9sj9r_bv3S0]--></g></svg>