<?xml version="1.0" encoding="us-ascii" standalone="no"?><svg xmlns="http://www.w3.org/2000/svg" xmlns:xlink="http://www.w3.org/1999/xlink" contentStyleType="text/css" height="506px" preserveAspectRatio="none" style="width:402px;height:506px;background:#FFFFFF;" version="1.1" viewBox="0 0 402 506" width="402px" zoomAndPan="magnify"><defs/><g><!--class org.vorpal.blade.framework.b2bua.InitialInvite--><a href="InitialInvite.html" target="_top" title="InitialInvite.html" xlink:actuate="onRequest" xlink:href="InitialInvite.html" xlink:show="new" xlink:title="InitialInvite.html" xlink:type="simple"><g id="elem_org.vorpal.blade.framework.b2bua.InitialInvite"><rect codeLine="5" fill="#F1F1F1" height="351.0547" id="org.vorpal.blade.framework.b2bua.InitialInvite" rx="2.5" ry="2.5" style="stroke:#181818;stroke-width:0.5;" width="386" x="9" y="129.76"/><ellipse cx="113.75" cy="148.8928" fill="#ADD1B2" rx="11" ry="11" style="stroke:#181818;stroke-width:1.0;"/><path d="M116.2231,155.0359 Q115.6421,155.3347 115.0029,155.4841 Q114.3638,155.6335 113.6582,155.6335 Q111.1514,155.6335 109.8315,153.9817 Q108.5117,152.3298 108.5117,149.2087 Q108.5117,146.0793 109.8315,144.4275 Q111.1514,142.7756 113.6582,142.7756 Q114.3638,142.7756 115.0112,142.925 Q115.6587,143.0745 116.2231,143.3733 L116.2231,146.0959 Q115.5923,145.5149 114.9988,145.2451 Q114.4053,144.9753 113.7744,144.9753 Q112.4297,144.9753 111.7449,146.042 Q111.0601,147.1086 111.0601,149.2087 Q111.0601,151.3005 111.7449,152.3672 Q112.4297,153.4338 113.7744,153.4338 Q114.4053,153.4338 114.9988,153.1641 Q115.5923,152.8943 116.2231,152.3132 Z " fill="#000000"/><text fill="#000000" font-family="sans-serif" font-size="14" lengthAdjust="spacing" textLength="75" x="180.75" y="148.2952">InitialInvite</text><text fill="#000000" font-family="sans-serif" font-size="10" lengthAdjust="spacing" textLength="168" x="134.25" y="160.9163">org.vorpal.blade.framework.b2bua</text><line style="stroke:#181818;stroke-width:0.5;" x1="10" x2="394" y1="168.0256" y2="168.0256"/><polygon fill="none" points="20,177.7698,16,183.7698,24,183.7698" style="stroke:#1963A0;stroke-width:1.0;"/><text fill="#000000" font-family="sans-serif" font-size="14" lengthAdjust="spacing" text-decoration="underline" textLength="152" x="29" y="185.5608">serialVersionUID: long</text><rect fill="none" height="6" style="stroke:#C82930;stroke-width:1.0;" width="6" x="17" y="195.258"/><text fill="#000000" font-family="sans-serif" font-size="14" lengthAdjust="spacing" textLength="216" x="29" y="202.0491">aliceRequest: SipServletRequest</text><rect fill="none" height="6" style="stroke:#C82930;stroke-width:1.0;" width="6" x="17" y="211.7463"/><text fill="#000000" font-family="sans-serif" font-size="14" lengthAdjust="spacing" textLength="212" x="29" y="218.5373">bobRequest: SipServletRequest</text><rect fill="none" height="6" style="stroke:#C82930;stroke-width:1.0;" width="6" x="17" y="228.2346"/><text fill="#000000" font-family="sans-serif" font-size="14" lengthAdjust="spacing" textLength="203" x="29" y="235.0256">b2buaListener: B2buaListener</text><rect fill="none" height="6" style="stroke:#C82930;stroke-width:1.0;" width="6" x="17" y="244.7229"/><text fill="#000000" font-family="sans-serif" font-size="14" lengthAdjust="spacing" textLength="158" x="29" y="251.5139">doNotProcess: boolean</text><line style="stroke:#181818;stroke-width:0.5;" x1="10" x2="394" y1="258.467" y2="258.467"/><ellipse cx="20" cy="272.2112" fill="#84BE84" rx="3" ry="3" style="stroke:#038048;stroke-width:1.0;"/><text fill="#000000" font-family="sans-serif" font-size="14" lengthAdjust="spacing" textLength="85" x="29" y="276.0022">InitialInvite()</text><ellipse cx="20" cy="288.6995" fill="#84BE84" rx="3" ry="3" style="stroke:#038048;stroke-width:1.0;"/><text fill="#000000" font-family="sans-serif" font-size="14" lengthAdjust="spacing" textLength="182" x="29" y="292.4905">InitialInvite(B2buaListener)</text><ellipse cx="20" cy="305.1877" fill="#84BE84" rx="3" ry="3" style="stroke:#038048;stroke-width:1.0;"/><text fill="#000000" font-family="sans-serif" font-size="14" lengthAdjust="spacing" text-decoration="underline" textLength="316" x="29" y="308.9788">setSessionExpiration(SipServletMessage): void</text><ellipse cx="20" cy="321.676" fill="#84BE84" rx="3" ry="3" style="stroke:#038048;stroke-width:1.0;"/><text fill="#000000" font-family="sans-serif" font-size="14" lengthAdjust="spacing" textLength="163" x="29" y="325.467">processContinue(): void</text><ellipse cx="20" cy="338.1643" fill="#84BE84" rx="3" ry="3" style="stroke:#038048;stroke-width:1.0;"/><text fill="#000000" font-family="sans-serif" font-size="14" lengthAdjust="spacing" textLength="222" x="29" y="341.9553">process(SipServletRequest): void</text><ellipse cx="20" cy="354.6526" fill="#84BE84" rx="3" ry="3" style="stroke:#038048;stroke-width:1.0;"/><text fill="#000000" font-family="sans-serif" font-size="14" lengthAdjust="spacing" textLength="275" x="29" y="358.4436">getInboundRequest(): SipServletRequest</text><ellipse cx="20" cy="371.1409" fill="#84BE84" rx="3" ry="3" style="stroke:#038048;stroke-width:1.0;"/><text fill="#000000" font-family="sans-serif" font-size="14" lengthAdjust="spacing" textLength="348" x="29" y="374.9319">setInboundRequest(SipServletRequest): InitialInvite</text><ellipse cx="20" cy="387.6291" fill="#84BE84" rx="3" ry="3" style="stroke:#038048;stroke-width:1.0;"/><text fill="#000000" font-family="sans-serif" font-size="14" lengthAdjust="spacing" textLength="287" x="29" y="391.4202">getOutboundRequest(): SipServletRequest</text><ellipse cx="20" cy="404.1174" fill="#84BE84" rx="3" ry="3" style="stroke:#038048;stroke-width:1.0;"/><text fill="#000000" font-family="sans-serif" font-size="14" lengthAdjust="spacing" textLength="360" x="29" y="407.9084">setOutboundRequest(SipServletRequest): InitialInvite</text><ellipse cx="20" cy="420.6057" fill="#84BE84" rx="3" ry="3" style="stroke:#038048;stroke-width:1.0;"/><text fill="#000000" font-family="sans-serif" font-size="14" lengthAdjust="spacing" textLength="234" x="29" y="424.3967">getB2buaListener(): B2buaListener</text><ellipse cx="20" cy="437.094" fill="#84BE84" rx="3" ry="3" style="stroke:#038048;stroke-width:1.0;"/><text fill="#000000" font-family="sans-serif" font-size="14" lengthAdjust="spacing" textLength="261" x="29" y="440.885">setB2buaListener(B2buaListener): void</text><ellipse cx="20" cy="453.5823" fill="#84BE84" rx="3" ry="3" style="stroke:#038048;stroke-width:1.0;"/><text fill="#000000" font-family="sans-serif" font-size="14" lengthAdjust="spacing" textLength="180" x="29" y="457.3733">isDoNotProcess(): boolean</text><ellipse cx="20" cy="470.0705" fill="#84BE84" rx="3" ry="3" style="stroke:#038048;stroke-width:1.0;"/><text fill="#000000" font-family="sans-serif" font-size="14" lengthAdjust="spacing" textLength="218" x="29" y="473.8616">setDoNotProcess(boolean): void</text></g></a><!--class org.vorpal.blade.framework.callflow.Callflow--><a href="../callflow/Callflow.html" target="_top" title="../callflow/Callflow.html" xlink:actuate="onRequest" xlink:href="../callflow/Callflow.html" xlink:show="new" xlink:title="../callflow/Callflow.html" xlink:type="simple"><g id="elem_org.vorpal.blade.framework.callflow.Callflow"><rect codeLine="26" fill="#F1F1F1" height="62.7539" id="org.vorpal.blade.framework.callflow.Callflow" rx="2.5" ry="2.5" style="stroke:#181818;stroke-width:0.5;" width="248" x="78" y="7"/><ellipse cx="111" cy="26.1328" fill="#A9DCDF" rx="11" ry="11" style="stroke:#181818;stroke-width:1.0;"/><path d="M110.8633,21.481 L109.7095,26.5527 L112.0254,26.5527 Z M109.3691,19.2397 L112.3657,19.2397 L115.7109,31.6328 L113.2622,31.6328 L112.4985,28.5698 L109.2197,28.5698 L108.4727,31.6328 L106.0239,31.6328 Z " fill="#000000"/><text fill="#000000" font-family="sans-serif" font-size="14" font-style="italic" lengthAdjust="spacing" textLength="55" x="189.5" y="25.5352">Callflow</text><text fill="#000000" font-family="sans-serif" font-size="10" font-style="italic" lengthAdjust="spacing" textLength="176" x="129" y="38.1563">org.vorpal.blade.framework.callflow</text><line style="stroke:#181818;stroke-width:0.5;" x1="79" x2="325" y1="45.2656" y2="45.2656"/><ellipse cx="89" cy="59.0098" fill="#84BE84" rx="3" ry="3" style="stroke:#038048;stroke-width:1.0;"/><text fill="#000000" font-family="sans-serif" font-size="14" font-style="italic" lengthAdjust="spacing" textLength="222" x="98" y="62.8008">process(SipServletRequest): void</text></g></a><!--reverse link org.vorpal.blade.framework.callflow.Callflow to org.vorpal.blade.framework.b2bua.InitialInvite--><g id="link_org.vorpal.blade.framework.callflow.Callflow_org.vorpal.blade.framework.b2bua.InitialInvite"><path codeLine="30" d="M202,88.03 C202,103.89 202,106.67 202,129.29 " fill="none" id="org.vorpal.blade.framework.callflow.Callflow-backto-org.vorpal.blade.framework.b2bua.InitialInvite" style="stroke:#181818;stroke-width:1.0;"/><polygon fill="none" points="202,70.03,196,88.03,208,88.03,202,70.03" style="stroke:#181818;stroke-width:1.0;"/></g><text fill="#888888" font-family="sans-serif" font-size="10" lengthAdjust="spacing" textLength="176" x="106" y="496.4827">UMLDoclet 2.1.2, PlantUML 1.2024.3</text><!--SRC=[bLJ1Rjim3BtlAuW20n9qKTTW9wFeOSqE0TgjMD1TkXvecqc4AQ8dqUwsBllsoOtTH7629hxOUdhcUoH50G1u4h2u85zWHXCgqA6m0ykMteHjcEkSW1Q5_8Qf9fFxRNH1CkS0F-EPGU_XvCBhFvISVxWSMoqQpTXMMkYxRV3tb-ncgc9Ne56fmPpKr0KFZ-n-g7IObdW2wE4raegYm_rzj5PpMPY71tXwDbO_JrvGTBQ4VvvSu7qZvpNRk_4e0SDsza8SeD4PVQMV9Nb9OAAB2RdAa3JGcfXoUX2jjdkjlP0bby37pUMQbVDdbbl76NcVGCfi2EtBzccKNQ-_RoCAtkycVnewFWaA8VDFlmeTsXs-UclpDs4FPzHFe6AThrMAbR4hjg9j6Gpi8VGwTUWmPoHZct9fyuPH1zjVljhn5d-NHbI6IEnBASUfRVzmd5pKWLfiTxzhePWQjswxQjgFDWv87RTpH4B4YDCGDaCjLuEAgHU7cNGczWgDcHf-F6nOiuRzshosFDM63zEgr5aBdxNmZg5jdIuFF65DWaUPkVWx61nvtQokEx923gRCzUlkvdh4MN05GtMkXk_Wrg2LWCBRQdNLzFh_0G00]--></g></svg>