<?xml version="1.0" encoding="us-ascii" standalone="no"?><svg xmlns="http://www.w3.org/2000/svg" xmlns:xlink="http://www.w3.org/1999/xlink" contentStyleType="text/css" height="546px" preserveAspectRatio="none" style="width:392px;height:546px;background:#FFFFFF;" version="1.1" viewBox="0 0 392 546" width="392px" zoomAndPan="magnify"><defs/><g><!--class org.vorpal.blade.services.proxy.registrar.ProxyRegistrar--><a href="ProxyRegistrar.html" target="_top" title="ProxyRegistrar.html" xlink:actuate="onRequest" xlink:href="ProxyRegistrar.html" xlink:show="new" xlink:title="ProxyRegistrar.html" xlink:type="simple"><g id="elem_org.vorpal.blade.services.proxy.registrar.ProxyRegistrar"><rect codeLine="5" fill="#F1F1F1" height="318.0781" id="org.vorpal.blade.services.proxy.registrar.ProxyRegistrar" rx="2.5" ry="2.5" style="stroke:#181818;stroke-width:0.5;" width="378" x="7" y="105.27"/><ellipse cx="93.75" cy="124.4028" fill="#ADD1B2" rx="11" ry="11" style="stroke:#181818;stroke-width:1.0;"/><path d="M96.2231,130.5459 Q95.6421,130.8447 95.0029,130.9941 Q94.3638,131.1435 93.6582,131.1435 Q91.1514,131.1435 89.8315,129.4917 Q88.5117,127.8398 88.5117,124.7187 Q88.5117,121.5893 89.8315,119.9375 Q91.1514,118.2856 93.6582,118.2856 Q94.3638,118.2856 95.0112,118.435 Q95.6587,118.5845 96.2231,118.8833 L96.2231,121.6059 Q95.5923,121.0249 94.9988,120.7551 Q94.4053,120.4853 93.7744,120.4853 Q92.4297,120.4853 91.7449,121.552 Q91.0601,122.6186 91.0601,124.7187 Q91.0601,126.8105 91.7449,127.8772 Q92.4297,128.9438 93.7744,128.9438 Q94.4053,128.9438 94.9988,128.6741 Q95.5923,128.4043 96.2231,127.8232 Z " fill="#000000"/><text fill="#000000" font-family="sans-serif" font-size="14" lengthAdjust="spacing" textLength="101" x="161.75" y="123.8052">ProxyRegistrar</text><text fill="#000000" font-family="sans-serif" font-size="10" lengthAdjust="spacing" textLength="196" x="114.25" y="136.4263">org.vorpal.blade.services.proxy.registrar</text><line style="stroke:#181818;stroke-width:0.5;" x1="8" x2="384" y1="143.5356" y2="143.5356"/><rect fill="none" height="6" style="stroke:#C82930;stroke-width:1.0;" width="6" x="15" y="154.2798"/><text fill="#000000" font-family="sans-serif" font-size="14" lengthAdjust="spacing" text-decoration="underline" textLength="152" x="27" y="161.0708">serialVersionUID: long</text><rect fill="none" height="6" style="stroke:#C82930;stroke-width:1.0;" width="6" x="15" y="170.768"/><text fill="#000000" font-family="sans-serif" font-size="14" lengthAdjust="spacing" textLength="290" x="27" y="177.5591">contactsMap: HashMap&lt;URI, ContactInfo&gt;</text><rect fill="none" height="6" style="stroke:#C82930;stroke-width:1.0;" width="6" x="15" y="187.2563"/><text fill="#000000" font-family="sans-serif" font-size="14" lengthAdjust="spacing" textLength="107" x="27" y="194.0473">maxExpires: int</text><rect fill="none" height="6" style="stroke:#C82930;stroke-width:1.0;" width="6" x="15" y="203.7446"/><text fill="#000000" font-family="sans-serif" font-size="14" lengthAdjust="spacing" textLength="130" x="27" y="210.5356">allow: List&lt;String&gt;</text><line style="stroke:#181818;stroke-width:0.5;" x1="8" x2="384" y1="217.4888" y2="217.4888"/><ellipse cx="18" cy="231.2329" fill="#84BE84" rx="3" ry="3" style="stroke:#038048;stroke-width:1.0;"/><text fill="#000000" font-family="sans-serif" font-size="14" lengthAdjust="spacing" textLength="164" x="27" y="235.0239">getAllow(): List&lt;String&gt;</text><ellipse cx="18" cy="247.7212" fill="#84BE84" rx="3" ry="3" style="stroke:#038048;stroke-width:1.0;"/><text fill="#000000" font-family="sans-serif" font-size="14" lengthAdjust="spacing" textLength="191" x="27" y="251.5122">setAllow(List&lt;String&gt;): void</text><ellipse cx="18" cy="264.2095" fill="#84BE84" rx="3" ry="3" style="stroke:#038048;stroke-width:1.0;"/><text fill="#000000" font-family="sans-serif" font-size="14" lengthAdjust="spacing" textLength="340" x="27" y="268.0005">copyAllow(SipServletMessage): SipServletMessage</text><ellipse cx="18" cy="280.6977" fill="#84BE84" rx="3" ry="3" style="stroke:#038048;stroke-width:1.0;"/><text fill="#000000" font-family="sans-serif" font-size="14" lengthAdjust="spacing" textLength="345" x="27" y="284.4888">pasteAllow(SipServletMessage): SipServletMessage</text><ellipse cx="18" cy="297.186" fill="#84BE84" rx="3" ry="3" style="stroke:#038048;stroke-width:1.0;"/><text fill="#000000" font-family="sans-serif" font-size="14" lengthAdjust="spacing" textLength="325" x="27" y="300.977">getContactsMap(): HashMap&lt;URI, ContactInfo&gt;</text><ellipse cx="18" cy="313.6743" fill="#84BE84" rx="3" ry="3" style="stroke:#038048;stroke-width:1.0;"/><text fill="#000000" font-family="sans-serif" font-size="14" lengthAdjust="spacing" textLength="352" x="27" y="317.4653">setContactsMap(HashMap&lt;URI, ContactInfo&gt;): void</text><ellipse cx="18" cy="330.1626" fill="#84BE84" rx="3" ry="3" style="stroke:#038048;stroke-width:1.0;"/><text fill="#000000" font-family="sans-serif" font-size="14" lengthAdjust="spacing" textLength="138" x="27" y="333.9536">getMaxExpires(): int</text><ellipse cx="18" cy="346.6509" fill="#84BE84" rx="3" ry="3" style="stroke:#038048;stroke-width:1.0;"/><text fill="#000000" font-family="sans-serif" font-size="14" lengthAdjust="spacing" textLength="165" x="27" y="350.4419">setMaxExpires(int): void</text><ellipse cx="18" cy="363.1391" fill="#84BE84" rx="3" ry="3" style="stroke:#038048;stroke-width:1.0;"/><text fill="#000000" font-family="sans-serif" font-size="14" lengthAdjust="spacing" textLength="277" x="27" y="366.9302">updateContacts(SipServletRequest): void</text><ellipse cx="18" cy="379.6274" fill="#84BE84" rx="3" ry="3" style="stroke:#038048;stroke-width:1.0;"/><text fill="#000000" font-family="sans-serif" font-size="14" lengthAdjust="spacing" textLength="181" x="27" y="383.4184">calculateExpires(Long): int</text><ellipse cx="18" cy="396.1157" fill="#84BE84" rx="3" ry="3" style="stroke:#038048;stroke-width:1.0;"/><text fill="#000000" font-family="sans-serif" font-size="14" lengthAdjust="spacing" textLength="257" x="27" y="399.9067">getAddressContacts(): List&lt;Address&gt;</text><ellipse cx="18" cy="412.604" fill="#84BE84" rx="3" ry="3" style="stroke:#038048;stroke-width:1.0;"/><text fill="#000000" font-family="sans-serif" font-size="14" lengthAdjust="spacing" textLength="191" x="27" y="416.395">getURIContacts(): List&lt;URI&gt;</text></g></a><!--class java.io.Serializable--><a href="https://docs.oracle.com/en/java/javase/11/docs/api/java.base/java/io/Serializable.html?is-external=true" target="_top" title="https://docs.oracle.com/en/java/javase/11/docs/api/java.base/java/io/Serializable.html?is-external=true" xlink:actuate="onRequest" xlink:href="https://docs.oracle.com/en/java/javase/11/docs/api/java.base/java/io/Serializable.html?is-external=true" xlink:show="new" xlink:title="https://docs.oracle.com/en/java/javase/11/docs/api/java.base/java/io/Serializable.html?is-external=true" xlink:type="simple"><g id="elem_java.io.Serializable"><rect codeLine="24" fill="#F1F1F1" height="38.2656" id="java.io.Serializable" rx="2.5" ry="2.5" style="stroke:#181818;stroke-width:0.5;" width="111" x="140.5" y="7"/><ellipse cx="155.5" cy="26.1328" fill="#B4A7E5" rx="11" ry="11" style="stroke:#181818;stroke-width:1.0;"/><path d="M151.9277,22.3979 L151.9277,20.2397 L159.3071,20.2397 L159.3071,22.3979 L156.8418,22.3979 L156.8418,30.4746 L159.3071,30.4746 L159.3071,32.6328 L151.9277,32.6328 L151.9277,30.4746 L154.3931,30.4746 L154.3931,22.3979 Z " fill="#000000"/><text fill="#000000" font-family="sans-serif" font-size="14" font-style="italic" lengthAdjust="spacing" textLength="79" x="169.5" y="25.5352">Serializable</text><text fill="#000000" font-family="sans-serif" font-size="10" font-style="italic" lengthAdjust="spacing" textLength="32" x="193" y="38.1563">java.io</text></g></a><!--class org.vorpal.blade.services.proxy.registrar.ProxyRegistrar.ContactInfo--><a href="ProxyRegistrar.ContactInfo.html" target="_top" title="ProxyRegistrar.ContactInfo.html" xlink:actuate="onRequest" xlink:href="ProxyRegistrar.ContactInfo.html" xlink:show="new" xlink:title="ProxyRegistrar.ContactInfo.html" xlink:type="simple"><g id="elem_org.vorpal.blade.services.proxy.registrar.ProxyRegistrar.ContactInfo"><rect codeLine="25" fill="#F1F1F1" height="38.2656" id="org.vorpal.blade.services.proxy.registrar.ProxyRegistrar.ContactInfo" rx="2.5" ry="2.5" style="stroke:#181818;stroke-width:0.5;" width="228" x="82" y="483.34"/><ellipse cx="97" cy="502.4728" fill="#ADD1B2" rx="11" ry="11" style="stroke:#181818;stroke-width:1.0;"/><path d="M99.4731,508.6159 Q98.8921,508.9147 98.2529,509.0641 Q97.6138,509.2135 96.9082,509.2135 Q94.4014,509.2135 93.0815,507.5617 Q91.7617,505.9098 91.7617,502.7887 Q91.7617,499.6593 93.0815,498.0075 Q94.4014,496.3556 96.9082,496.3556 Q97.6138,496.3556 98.2612,496.505 Q98.9087,496.6545 99.4731,496.9533 L99.4731,499.6759 Q98.8423,499.0949 98.2488,498.8251 Q97.6553,498.5553 97.0244,498.5553 Q95.6797,498.5553 94.9949,499.622 Q94.3101,500.6886 94.3101,502.7887 Q94.3101,504.8805 94.9949,505.9472 Q95.6797,507.0138 97.0244,507.0138 Q97.6553,507.0138 98.2488,506.7441 Q98.8423,506.4743 99.4731,505.8932 Z " fill="#000000"/><text fill="#000000" font-family="sans-serif" font-size="14" lengthAdjust="spacing" textLength="185" x="116.5" y="501.8752">ProxyRegistrar.ContactInfo</text><text fill="#000000" font-family="sans-serif" font-size="10" lengthAdjust="spacing" textLength="196" x="111" y="514.4963">org.vorpal.blade.services.proxy.registrar</text></g></a><!--reverse link java.io.Serializable to org.vorpal.blade.services.proxy.registrar.ProxyRegistrar--><g id="link_java.io.Serializable_org.vorpal.blade.services.proxy.registrar.ProxyRegistrar"><path codeLine="27" d="M196,63.67 C196,77.91 196,81.11 196,104.78 " fill="none" id="java.io.Serializable-backto-org.vorpal.blade.services.proxy.registrar.ProxyRegistrar" style="stroke:#181818;stroke-width:1.0;stroke-dasharray:7.0,7.0;"/><polygon fill="none" points="196,45.67,190,63.67,202,63.67,196,45.67" style="stroke:#181818;stroke-width:1.0;"/></g><!--reverse link org.vorpal.blade.services.proxy.registrar.ProxyRegistrar to org.vorpal.blade.services.proxy.registrar.ProxyRegistrar.ContactInfo--><g id="link_org.vorpal.blade.services.proxy.registrar.ProxyRegistrar_org.vorpal.blade.services.proxy.registrar.ProxyRegistrar.ContactInfo"><path codeLine="28" d="M196,439.82 C196,463.6 196,468.89 196,483.14 " fill="none" id="org.vorpal.blade.services.proxy.registrar.ProxyRegistrar-backto-org.vorpal.blade.services.proxy.registrar.ProxyRegistrar.ContactInfo" style="stroke:#181818;stroke-width:1.0;"/><ellipse cx="196" cy="431.82" fill="#FFFFFF" rx="8" ry="8" style="stroke:#181818;stroke-width:1.0;"/><line style="stroke:#181818;stroke-width:1.0;" x1="196" x2="196" y1="439.82" y2="423.82"/><line style="stroke:#181818;stroke-width:1.0;" x1="188" x2="204" y1="431.82" y2="431.82"/></g><text fill="#888888" font-family="sans-serif" font-size="10" lengthAdjust="spacing" textLength="176" x="101" y="536.2736">UMLDoclet 2.1.2, PlantUML 1.2024.3</text><!--SRC=[lLHHQzim47xVhn25GKiRUIbxCbd6Q0SB950IifSk3nVvucZ8agPJigHT__jaEucLUcKbZFd1DjzztztfJdUCCKRecOO2oOB02Lfmu8rZscXy4yniAJDaM5Y_PGk9AgFdQ85-QG9SuK814JlhaNp0jFk-V-VCPZl6N99tuBxfdU5TtxYShuspeFXSGOQSqAsbGEAsb72trvmn8FPgDZyEoExlZm6-z8MQpTXZbMtvF987ByKJwmIV4jHNT2IDdWvkKwQCpW_4ZZ3QW_0q0fkoBq3ByDERZWTNxAQs3FJ2z1j-0PlF6oiTKigazeq1b38_KpOCAVKctacTDwhB7Fsdqdv-yHA3zepO7DXh8xE69OpTrhI9j9DGBeL-X4IGO-2si4PeWJoUf0oftpGrAW_mzogLfub5BofQ1mpHHeSAby7Y6fTk8simjVGhcu77VUpeh6FyiK9g2mGeiL91i_Sw3DVZUTooVLaMh7Jml6_a3Z_kTJXdYnYmclHK3rK8W6uHnZCQh4brMUK3p1L6O_KTri2bgOPczyzZQXY8fVUMqYJ9Z21k70Y5N9WYGPsKYkf5c7Ix5IC1Aok8pqkqOaYJn3whcVeegOERaAS6zS6x5SvchrW8FEhmVryESV3seeYCkwLHD-EFLUtzulpaF2gt9s-uoqxddrIWxXQMLuqjZ2a_qz7mreJhuTarx_BhAtQdGFk0ihVhUakUN_m6]--></g></svg>