<?xml version="1.0" encoding="us-ascii" standalone="no"?><svg xmlns="http://www.w3.org/2000/svg" xmlns:xlink="http://www.w3.org/1999/xlink" contentStyleType="text/css" height="473px" preserveAspectRatio="none" style="width:1485px;height:473px;background:#FFFFFF;" version="1.1" viewBox="0 0 1485 473" width="1485px" zoomAndPan="magnify"><defs/><g><!--class org.vorpal.blade.services.proxy.registrar.ProxyRegistrarServlet--><a href="ProxyRegistrarServlet.html" target="_top" title="ProxyRegistrarServlet.html" xlink:actuate="onRequest" xlink:href="ProxyRegistrarServlet.html" xlink:show="new" xlink:title="ProxyRegistrarServlet.html" xlink:type="simple"><g id="elem_org.vorpal.blade.services.proxy.registrar.ProxyRegistrarServlet"><rect codeLine="5" fill="#F1F1F1" height="268.6133" id="org.vorpal.blade.services.proxy.registrar.ProxyRegistrarServlet" rx="2.5" ry="2.5" style="stroke:#181818;stroke-width:0.5;" width="441" x="413" y="179.22"/><ellipse cx="531.25" cy="198.3528" fill="#ADD1B2" rx="11" ry="11" style="stroke:#181818;stroke-width:1.0;"/><path d="M533.7231,204.4959 Q533.1421,204.7947 532.5029,204.9441 Q531.8638,205.0935 531.1582,205.0935 Q528.6514,205.0935 527.3315,203.4417 Q526.0117,201.7898 526.0117,198.6687 Q526.0117,195.5393 527.3315,193.8875 Q528.6514,192.2356 531.1582,192.2356 Q531.8638,192.2356 532.5112,192.385 Q533.1587,192.5345 533.7231,192.8333 L533.7231,195.5559 Q533.0923,194.9749 532.4988,194.7051 Q531.9053,194.4353 531.2744,194.4353 Q529.9297,194.4353 529.2449,195.502 Q528.5601,196.5686 528.5601,198.6687 Q528.5601,200.7605 529.2449,201.8272 Q529.9297,202.8938 531.2744,202.8938 Q531.9053,202.8938 532.4988,202.6241 Q533.0923,202.3543 533.7231,201.7732 Z " fill="#000000"/><text fill="#000000" font-family="sans-serif" font-size="14" lengthAdjust="spacing" textLength="147" x="576.25" y="197.7552">ProxyRegistrarServlet</text><text fill="#000000" font-family="sans-serif" font-size="10" lengthAdjust="spacing" textLength="196" x="551.75" y="210.3762">org.vorpal.blade.services.proxy.registrar</text><line style="stroke:#181818;stroke-width:0.5;" x1="414" x2="853" y1="217.4856" y2="217.4856"/><rect fill="none" height="6" style="stroke:#C82930;stroke-width:1.0;" width="6" x="421" y="228.2298"/><text fill="#000000" font-family="sans-serif" font-size="14" lengthAdjust="spacing" text-decoration="underline" textLength="152" x="433" y="235.0208">serialVersionUID: long</text><ellipse cx="424" cy="247.718" fill="none" rx="3" ry="3" style="stroke:#038048;stroke-width:1.0;"/><text fill="#000000" font-family="sans-serif" font-size="14" lengthAdjust="spacing" text-decoration="underline" textLength="415" x="433" y="251.5091">settingsManager: SettingsManager&lt;ProxyRegistrarSettings&gt;</text><ellipse cx="424" cy="264.2063" fill="none" rx="3" ry="3" style="stroke:#038048;stroke-width:1.0;"/><text fill="#000000" font-family="sans-serif" font-size="14" lengthAdjust="spacing" text-decoration="underline" textLength="124" x="433" y="267.9973">sipLogger: Logger</text><line style="stroke:#181818;stroke-width:0.5;" x1="414" x2="853" y1="274.9505" y2="274.9505"/><ellipse cx="424" cy="288.6946" fill="#84BE84" rx="3" ry="3" style="stroke:#038048;stroke-width:1.0;"/><text fill="#000000" font-family="sans-serif" font-size="14" lengthAdjust="spacing" text-decoration="underline" textLength="256" x="433" y="292.4856">sessionKey(SipServletRequest): String</text><polygon fill="#FFFF44" points="424,300.1829,428,304.1829,424,308.1829,420,304.1829" style="stroke:#B38D22;stroke-width:1.0;"/><text fill="#000000" font-family="sans-serif" font-size="14" lengthAdjust="spacing" textLength="305" x="433" y="308.9739">servletCreated(SipServletContextEvent): void</text><polygon fill="#FFFF44" points="424,316.6712,428,320.6712,424,324.6712,420,320.6712" style="stroke:#B38D22;stroke-width:1.0;"/><text fill="#000000" font-family="sans-serif" font-size="14" lengthAdjust="spacing" textLength="320" x="433" y="325.4622">servletDestroyed(SipServletContextEvent): void</text><polygon fill="#FFFF44" points="424,333.1595,428,337.1595,424,341.1595,420,337.1595" style="stroke:#B38D22;stroke-width:1.0;"/><text fill="#000000" font-family="sans-serif" font-size="14" lengthAdjust="spacing" textLength="299" x="433" y="341.9505">chooseCallflow(SipServletRequest): Callflow</text><ellipse cx="424" cy="354.6477" fill="#84BE84" rx="3" ry="3" style="stroke:#038048;stroke-width:1.0;"/><text fill="#000000" font-family="sans-serif" font-size="14" lengthAdjust="spacing" textLength="340" x="433" y="358.4387">proxyRequest(SipServletRequest, ProxyPlan): void</text><ellipse cx="424" cy="371.136" fill="#84BE84" rx="3" ry="3" style="stroke:#038048;stroke-width:1.0;"/><text fill="#000000" font-family="sans-serif" font-size="14" lengthAdjust="spacing" textLength="362" x="433" y="374.927">proxyResponse(SipServletResponse, ProxyPlan): void</text><ellipse cx="424" cy="387.6243" fill="#84BE84" rx="3" ry="3" style="stroke:#038048;stroke-width:1.0;"/><text fill="#000000" font-family="sans-serif" font-size="14" lengthAdjust="spacing" textLength="340" x="433" y="391.4153">sessionCreated(SipApplicationSessionEvent): void</text><ellipse cx="424" cy="404.1126" fill="#84BE84" rx="3" ry="3" style="stroke:#038048;stroke-width:1.0;"/><text fill="#000000" font-family="sans-serif" font-size="14" lengthAdjust="spacing" textLength="355" x="433" y="407.9036">sessionDestroyed(SipApplicationSessionEvent): void</text><ellipse cx="424" cy="420.6009" fill="#84BE84" rx="3" ry="3" style="stroke:#038048;stroke-width:1.0;"/><text fill="#000000" font-family="sans-serif" font-size="14" lengthAdjust="spacing" textLength="339" x="433" y="424.3919">sessionExpired(SipApplicationSessionEvent): void</text><ellipse cx="424" cy="437.0891" fill="#84BE84" rx="3" ry="3" style="stroke:#038048;stroke-width:1.0;"/><text fill="#000000" font-family="sans-serif" font-size="14" lengthAdjust="spacing" textLength="411" x="433" y="440.8802">sessionReadyToInvalidate(SipApplicationSessionEvent): void</text></g></a><!--class org.vorpal.blade.framework.proxy.ProxyServlet--><a href="https://vorpalnet.github.io/blade/vorpal-blade-library-framework/org/vorpal/blade/framework/proxy/ProxyServlet.html?is-external=true" target="_top" title="https://vorpalnet.github.io/blade/vorpal-blade-library-framework/org/vorpal/blade/framework/proxy/ProxyServlet.html?is-external=true" xlink:actuate="onRequest" xlink:href="https://vorpalnet.github.io/blade/vorpal-blade-library-framework/org/vorpal/blade/framework/proxy/ProxyServlet.html?is-external=true" xlink:show="new" xlink:title="https://vorpalnet.github.io/blade/vorpal-blade-library-framework/org/vorpal/blade/framework/proxy/ProxyServlet.html?is-external=true" xlink:type="simple"><g id="elem_org.vorpal.blade.framework.proxy.ProxyServlet"><rect codeLine="21" fill="#F1F1F1" height="38.2656" id="org.vorpal.blade.framework.proxy.ProxyServlet" rx="2.5" ry="2.5" style="stroke:#181818;stroke-width:0.5;" width="197" x="7" y="43.97"/><ellipse cx="22" cy="63.1028" fill="#A9DCDF" rx="11" ry="11" style="stroke:#181818;stroke-width:1.0;"/><path d="M21.8633,58.451 L20.7095,63.5227 L23.0254,63.5227 Z M20.3691,56.2097 L23.3657,56.2097 L26.7109,68.6028 L24.2622,68.6028 L23.4985,65.5398 L20.2197,65.5398 L19.4727,68.6028 L17.0239,68.6028 Z " fill="#000000"/><text fill="#000000" font-family="sans-serif" font-size="14" font-style="italic" lengthAdjust="spacing" textLength="85" x="76" y="62.5052">ProxyServlet</text><text fill="#000000" font-family="sans-serif" font-size="10" font-style="italic" lengthAdjust="spacing" textLength="165" x="36" y="75.1262">org.vorpal.blade.framework.proxy</text></g></a><!--class org.vorpal.blade.framework.proxy.ProxyListener--><a href="https://vorpalnet.github.io/blade/vorpal-blade-library-framework/org/vorpal/blade/framework/proxy/ProxyListener.html?is-external=true" target="_top" title="https://vorpalnet.github.io/blade/vorpal-blade-library-framework/org/vorpal/blade/framework/proxy/ProxyListener.html?is-external=true" xlink:actuate="onRequest" xlink:href="https://vorpalnet.github.io/blade/vorpal-blade-library-framework/org/vorpal/blade/framework/proxy/ProxyListener.html?is-external=true" xlink:show="new" xlink:title="https://vorpalnet.github.io/blade/vorpal-blade-library-framework/org/vorpal/blade/framework/proxy/ProxyListener.html?is-external=true" xlink:type="simple"><g id="elem_org.vorpal.blade.framework.proxy.ProxyListener"><rect codeLine="22" fill="#F1F1F1" height="79.2422" id="org.vorpal.blade.framework.proxy.ProxyListener" rx="2.5" ry="2.5" style="stroke:#181818;stroke-width:0.5;" width="388" x="239.5" y="23.49"/><ellipse cx="346.75" cy="42.6228" fill="#B4A7E5" rx="11" ry="11" style="stroke:#181818;stroke-width:1.0;"/><path d="M343.1777,38.8879 L343.1777,36.7297 L350.5571,36.7297 L350.5571,38.8879 L348.0918,38.8879 L348.0918,46.9646 L350.5571,46.9646 L350.5571,49.1228 L343.1777,49.1228 L343.1777,46.9646 L345.6431,46.9646 L345.6431,38.8879 Z " fill="#000000"/><text fill="#000000" font-family="sans-serif" font-size="14" font-style="italic" lengthAdjust="spacing" textLength="93" x="403.25" y="42.0252">ProxyListener</text><text fill="#000000" font-family="sans-serif" font-size="10" font-style="italic" lengthAdjust="spacing" textLength="165" x="367.25" y="54.6463">org.vorpal.blade.framework.proxy</text><line style="stroke:#181818;stroke-width:0.5;" x1="240.5" x2="626.5" y1="61.7556" y2="61.7556"/><ellipse cx="250.5" cy="75.4998" fill="#84BE84" rx="3" ry="3" style="stroke:#038048;stroke-width:1.0;"/><text fill="#000000" font-family="sans-serif" font-size="14" font-style="italic" lengthAdjust="spacing" textLength="340" x="259.5" y="79.2908">proxyRequest(SipServletRequest, ProxyPlan): void</text><ellipse cx="250.5" cy="91.988" fill="#84BE84" rx="3" ry="3" style="stroke:#038048;stroke-width:1.0;"/><text fill="#000000" font-family="sans-serif" font-size="14" font-style="italic" lengthAdjust="spacing" textLength="362" x="259.5" y="95.7791">proxyResponse(SipServletResponse, ProxyPlan): void</text></g></a><!--class javax.servlet.sip.SipServletListener--><g id="elem_javax.servlet.sip.SipServletListener"><rect codeLine="26" fill="#F1F1F1" height="62.7539" id="javax.servlet.sip.SipServletListener" rx="2.5" ry="2.5" style="stroke:#181818;stroke-width:0.5;" width="344" x="662.5" y="31.73"/><ellipse cx="769.75" cy="50.8628" fill="#B4A7E5" rx="11" ry="11" style="stroke:#181818;stroke-width:1.0;"/><path d="M766.1777,47.1279 L766.1777,44.9697 L773.5571,44.9697 L773.5571,47.1279 L771.0918,47.1279 L771.0918,55.2046 L773.5571,55.2046 L773.5571,57.3628 L766.1777,57.3628 L766.1777,55.2046 L768.6431,55.2046 L768.6431,47.1279 Z " fill="#000000"/><text fill="#000000" font-family="sans-serif" font-size="14" font-style="italic" lengthAdjust="spacing" textLength="121" x="790.25" y="50.2652">SipServletListener</text><text fill="#000000" font-family="sans-serif" font-size="10" font-style="italic" lengthAdjust="spacing" textLength="79" x="811.25" y="62.8862">javax.servlet.sip</text><line style="stroke:#181818;stroke-width:0.5;" x1="663.5" x2="1005.5" y1="69.9956" y2="69.9956"/><ellipse cx="673.5" cy="83.7398" fill="#84BE84" rx="3" ry="3" style="stroke:#038048;stroke-width:1.0;"/><text fill="#000000" font-family="sans-serif" font-size="14" font-style="italic" lengthAdjust="spacing" textLength="318" x="682.5" y="87.5308">servletInitialized(SipServletContextEvent): void</text></g><!--class javax.servlet.sip.SipApplicationSessionListener--><g id="elem_javax.servlet.sip.SipApplicationSessionListener"><rect codeLine="29" fill="#F1F1F1" height="112.2188" id="javax.servlet.sip.SipApplicationSessionListener" rx="2.5" ry="2.5" style="stroke:#181818;stroke-width:0.5;" width="437" x="1041" y="7"/><ellipse cx="1152.75" cy="26.1328" fill="#B4A7E5" rx="11" ry="11" style="stroke:#181818;stroke-width:1.0;"/><path d="M1149.1777,22.3979 L1149.1777,20.2397 L1156.5571,20.2397 L1156.5571,22.3979 L1154.0918,22.3979 L1154.0918,30.4746 L1156.5571,30.4746 L1156.5571,32.6328 L1149.1777,32.6328 L1149.1777,30.4746 L1151.6431,30.4746 L1151.6431,22.3979 Z " fill="#000000"/><text fill="#000000" font-family="sans-serif" font-size="14" font-style="italic" lengthAdjust="spacing" textLength="205" x="1173.25" y="25.5352">SipApplicationSessionListener</text><text fill="#000000" font-family="sans-serif" font-size="10" font-style="italic" lengthAdjust="spacing" textLength="79" x="1236.25" y="38.1563">javax.servlet.sip</text><line style="stroke:#181818;stroke-width:0.5;" x1="1042" x2="1477" y1="45.2656" y2="45.2656"/><ellipse cx="1052" cy="59.0098" fill="#84BE84" rx="3" ry="3" style="stroke:#038048;stroke-width:1.0;"/><text fill="#000000" font-family="sans-serif" font-size="14" font-style="italic" lengthAdjust="spacing" textLength="340" x="1061" y="62.8008">sessionCreated(SipApplicationSessionEvent): void</text><ellipse cx="1052" cy="75.498" fill="#84BE84" rx="3" ry="3" style="stroke:#038048;stroke-width:1.0;"/><text fill="#000000" font-family="sans-serif" font-size="14" font-style="italic" lengthAdjust="spacing" textLength="355" x="1061" y="79.2891">sessionDestroyed(SipApplicationSessionEvent): void</text><ellipse cx="1052" cy="91.9863" fill="#84BE84" rx="3" ry="3" style="stroke:#038048;stroke-width:1.0;"/><text fill="#000000" font-family="sans-serif" font-size="14" font-style="italic" lengthAdjust="spacing" textLength="339" x="1061" y="95.7773">sessionExpired(SipApplicationSessionEvent): void</text><ellipse cx="1052" cy="108.4746" fill="#84BE84" rx="3" ry="3" style="stroke:#038048;stroke-width:1.0;"/><text fill="#000000" font-family="sans-serif" font-size="14" font-style="italic" lengthAdjust="spacing" textLength="411" x="1061" y="112.2656">sessionReadyToInvalidate(SipApplicationSessionEvent): void</text></g><!--reverse link org.vorpal.blade.framework.proxy.ProxyServlet to org.vorpal.blade.services.proxy.registrar.ProxyRegistrarServlet--><g id="link_org.vorpal.blade.framework.proxy.ProxyServlet_org.vorpal.blade.services.proxy.registrar.ProxyRegistrarServlet"><path codeLine="36" d="M160.664,90.3835 C183.174,101.0935 195.79,107.08 221.5,119.22 C283.48,148.48 350.76,180.11 412.64,209.14 " fill="none" id="org.vorpal.blade.framework.proxy.ProxyServlet-backto-org.vorpal.blade.services.proxy.registrar.ProxyRegistrarServlet" style="stroke:#181818;stroke-width:1.0;"/><polygon fill="none" points="144.41,82.65,158.0862,95.8015,163.2419,84.9655,144.41,82.65" style="stroke:#181818;stroke-width:1.0;"/></g><!--reverse link org.vorpal.blade.framework.proxy.ProxyListener to org.vorpal.blade.services.proxy.registrar.ProxyRegistrarServlet--><g id="link_org.vorpal.blade.framework.proxy.ProxyListener_org.vorpal.blade.services.proxy.registrar.ProxyRegistrarServlet"><path codeLine="37" d="M476.2594,117.2196 C493.0894,138.1196 503.62,151.2 525.95,178.94 " fill="none" id="org.vorpal.blade.framework.proxy.ProxyListener-backto-org.vorpal.blade.services.proxy.registrar.ProxyRegistrarServlet" style="stroke:#181818;stroke-width:1.0;stroke-dasharray:7.0,7.0;"/><polygon fill="none" points="464.97,103.2,471.5863,120.9827,480.9326,113.4564,464.97,103.2" style="stroke:#181818;stroke-width:1.0;"/></g><!--reverse link javax.servlet.sip.SipServletListener to org.vorpal.blade.services.proxy.registrar.ProxyRegistrarServlet--><g id="link_javax.servlet.sip.SipServletListener_org.vorpal.blade.services.proxy.registrar.ProxyRegistrarServlet"><path codeLine="38" d="M798.3285,108.8137 C780.7885,130.4937 767.27,147.19 741.76,178.72 " fill="none" id="javax.servlet.sip.SipServletListener-backto-org.vorpal.blade.services.proxy.registrar.ProxyRegistrarServlet" style="stroke:#181818;stroke-width:1.0;stroke-dasharray:7.0,7.0;"/><polygon fill="none" points="809.65,94.82,793.6639,105.0399,802.9931,112.5875,809.65,94.82" style="stroke:#181818;stroke-width:1.0;"/></g><!--reverse link javax.servlet.sip.SipApplicationSessionListener to org.vorpal.blade.services.proxy.registrar.ProxyRegistrarServlet--><g id="link_javax.servlet.sip.SipApplicationSessionListener_org.vorpal.blade.services.proxy.registrar.ProxyRegistrarServlet"><path codeLine="39" d="M1102.6696,126.3403 C1024.6396,157.3103 942.45,189.92 854.26,224.92 " fill="none" id="javax.servlet.sip.SipApplicationSessionListener-backto-org.vorpal.blade.services.proxy.registrar.ProxyRegistrarServlet" style="stroke:#181818;stroke-width:1.0;stroke-dasharray:7.0,7.0;"/><polygon fill="none" points="1119.4,119.7,1100.4562,120.7635,1104.883,131.9171,1119.4,119.7" style="stroke:#181818;stroke-width:1.0;"/></g><text fill="#888888" font-family="sans-serif" font-size="10" lengthAdjust="spacing" textLength="176" x="647.5" y="463.5012">UMLDoclet 2.1.2, PlantUML 1.2024.3</text><!--SRC=[lLPTRzem57tVhx0wJMhLnQpLdX1Zcg0FQ5IgohgNZWUJN19lnlPiavAs_FSvNpGGWmAquoNYtdlEiQzzRe8GGXeCucG6MX8VHY298aOen0M7TpQD8Xe0Wfaq2PfIO87UZCx0HCA6ixZFYDRefAFf8xGlFdTlb5Wajn1IRHHH8r0n0_EB5_bFNQ5270ib2SCJHWB0sfPG7pIMAHAh4dg2Y4QDgx5J5ztVE-CuCZCs7gEdR0lfxqaROgY_H9vLe8Jz1AMfu7U3VXinmSDwuRdjew4yrDU4an1K6utM0vrDwJpRTL5HEHHXHf8_dN8wNT5tI4v7L1ORkOM_Sz3cp8eRHIlBVA_pWfu2OY2eG7g26rYOgnXuYei53MgelkLK8ccEyoCXDFG8OrCc7fmBB9ChqBdC-vCLr24VKTQ_6qRufbo9r59m3MlGFBGBM_InqfXlKZBgspOBFigJpasMoBNcx8czMaYg3aBU0WcI7sB0Oy9eO9VUa6EPsvHCqale6xTV6zXqgkp8U13gJ-uyjpitYd2Lt7enCaRgTgkLOxZrOKXDD9zWAbePGP7niZyUenFhcyHRiRQiO55IrB-aCi5MLJ0p-LUgFNjhGN72lXWrX_4uwmUrbrbDxG3SRCNGkXKugBVfHSd-_vfHAcxhHdK6bfTaUOGt7IJxsdIvzOHUA1p7z9l4P86B2ORjICtEfHR5TP8jFIX00qwDVIDObIRZSEVYwtuzRX_R-RPkwS3Xvo0vP0uwQFOVYGwI8wVZVeEiy-nvntwPx26xEjBECyQlejl84s-hjkFclfgm3waBqLI8z75tFUmBFps_Ito1B-tiiMF7s2Zw4ESVUwTd_m00]--></g></svg>