<?xml version="1.0" encoding="us-ascii" standalone="no"?><svg xmlns="http://www.w3.org/2000/svg" xmlns:xlink="http://www.w3.org/1999/xlink" contentStyleType="text/css" height="193px" preserveAspectRatio="none" style="width:388px;height:193px;background:#FFFFFF;" version="1.1" viewBox="0 0 388 193" width="388px" zoomAndPan="magnify"><defs/><g><!--class org.vorpal.blade.services.proxy.registrar.ProxyRegistrarSettingsDefault--><a href="ProxyRegistrarSettingsDefault.html" target="_top" title="ProxyRegistrarSettingsDefault.html" xlink:actuate="onRequest" xlink:href="ProxyRegistrarSettingsDefault.html" xlink:show="new" xlink:title="ProxyRegistrarSettingsDefault.html" xlink:type="simple"><g id="elem_org.vorpal.blade.services.proxy.registrar.ProxyRegistrarSettingsDefault"><rect codeLine="5" fill="#F1F1F1" height="62.7539" id="org.vorpal.blade.services.proxy.registrar.ProxyRegistrarSettingsDefault" rx="2.5" ry="2.5" style="stroke:#181818;stroke-width:0.5;" width="237" x="104.5" y="105.27"/><ellipse cx="119.5" cy="124.4028" fill="#ADD1B2" rx="11" ry="11" style="stroke:#181818;stroke-width:1.0;"/><path d="M121.9731,130.5459 Q121.3921,130.8447 120.7529,130.9941 Q120.1138,131.1435 119.4082,131.1435 Q116.9014,131.1435 115.5815,129.4917 Q114.2617,127.8398 114.2617,124.7187 Q114.2617,121.5893 115.5815,119.9375 Q116.9014,118.2856 119.4082,118.2856 Q120.1138,118.2856 120.7612,118.435 Q121.4087,118.5845 121.9731,118.8833 L121.9731,121.6059 Q121.3423,121.0249 120.7488,120.7551 Q120.1553,120.4853 119.5244,120.4853 Q118.1797,120.4853 117.4949,121.552 Q116.8101,122.6186 116.8101,124.7187 Q116.8101,126.8105 117.4949,127.8772 Q118.1797,128.9438 119.5244,128.9438 Q120.1553,128.9438 120.7488,128.6741 Q121.3423,128.4043 121.9731,127.8232 Z " fill="#000000"/><text fill="#000000" font-family="sans-serif" font-size="14" lengthAdjust="spacing" textLength="205" x="133.5" y="123.8052">ProxyRegistrarSettingsDefault</text><text fill="#000000" font-family="sans-serif" font-size="10" lengthAdjust="spacing" textLength="196" x="138" y="136.4263">org.vorpal.blade.services.proxy.registrar</text><line style="stroke:#181818;stroke-width:0.5;" x1="105.5" x2="340.5" y1="143.5356" y2="143.5356"/><rect fill="none" height="6" style="stroke:#C82930;stroke-width:1.0;" width="6" x="112.5" y="154.2798"/><text fill="#000000" font-family="sans-serif" font-size="14" lengthAdjust="spacing" text-decoration="underline" textLength="152" x="124.5" y="161.0708">serialVersionUID: long</text></g></a><!--class org.vorpal.blade.services.proxy.registrar.ProxyRegistrarSettings--><a href="ProxyRegistrarSettings.html" target="_top" title="ProxyRegistrarSettings.html" xlink:actuate="onRequest" xlink:href="ProxyRegistrarSettings.html" xlink:show="new" xlink:title="ProxyRegistrarSettings.html" xlink:type="simple"><g id="elem_org.vorpal.blade.services.proxy.registrar.ProxyRegistrarSettings"><rect codeLine="9" fill="#F1F1F1" height="38.2656" id="org.vorpal.blade.services.proxy.registrar.ProxyRegistrarSettings" rx="2.5" ry="2.5" style="stroke:#181818;stroke-width:0.5;" width="228" x="7" y="7"/><ellipse cx="22" cy="26.1328" fill="#ADD1B2" rx="11" ry="11" style="stroke:#181818;stroke-width:1.0;"/><path d="M24.4731,32.2759 Q23.8921,32.5747 23.2529,32.7241 Q22.6138,32.8735 21.9082,32.8735 Q19.4014,32.8735 18.0815,31.2217 Q16.7617,29.5698 16.7617,26.4487 Q16.7617,23.3193 18.0815,21.6675 Q19.4014,20.0156 21.9082,20.0156 Q22.6138,20.0156 23.2612,20.165 Q23.9087,20.3145 24.4731,20.6133 L24.4731,23.3359 Q23.8423,22.7549 23.2488,22.4851 Q22.6553,22.2153 22.0244,22.2153 Q20.6797,22.2153 19.9949,23.282 Q19.3101,24.3486 19.3101,26.4487 Q19.3101,28.5405 19.9949,29.6072 Q20.6797,30.6738 22.0244,30.6738 Q22.6553,30.6738 23.2488,30.4041 Q23.8423,30.1343 24.4731,29.5532 Z " fill="#000000"/><text fill="#000000" font-family="sans-serif" font-size="14" lengthAdjust="spacing" textLength="156" x="56" y="25.5352">ProxyRegistrarSettings</text><text fill="#000000" font-family="sans-serif" font-size="10" lengthAdjust="spacing" textLength="196" x="36" y="38.1563">org.vorpal.blade.services.proxy.registrar</text></g></a><!--class java.io.Serializable--><a href="https://docs.oracle.com/en/java/javase/11/docs/api/java.base/java/io/Serializable.html?is-external=true" target="_top" title="https://docs.oracle.com/en/java/javase/11/docs/api/java.base/java/io/Serializable.html?is-external=true" xlink:actuate="onRequest" xlink:href="https://docs.oracle.com/en/java/javase/11/docs/api/java.base/java/io/Serializable.html?is-external=true" xlink:show="new" xlink:title="https://docs.oracle.com/en/java/javase/11/docs/api/java.base/java/io/Serializable.html?is-external=true" xlink:type="simple"><g id="elem_java.io.Serializable"><rect codeLine="10" fill="#F1F1F1" height="38.2656" id="java.io.Serializable" rx="2.5" ry="2.5" style="stroke:#181818;stroke-width:0.5;" width="111" x="270.5" y="7"/><ellipse cx="285.5" cy="26.1328" fill="#B4A7E5" rx="11" ry="11" style="stroke:#181818;stroke-width:1.0;"/><path d="M281.9277,22.3979 L281.9277,20.2397 L289.3071,20.2397 L289.3071,22.3979 L286.8418,22.3979 L286.8418,30.4746 L289.3071,30.4746 L289.3071,32.6328 L281.9277,32.6328 L281.9277,30.4746 L284.3931,30.4746 L284.3931,22.3979 Z " fill="#000000"/><text fill="#000000" font-family="sans-serif" font-size="14" font-style="italic" lengthAdjust="spacing" textLength="79" x="299.5" y="25.5352">Serializable</text><text fill="#000000" font-family="sans-serif" font-size="10" font-style="italic" lengthAdjust="spacing" textLength="32" x="323" y="38.1563">java.io</text></g></a><!--reverse link org.vorpal.blade.services.proxy.registrar.ProxyRegistrarSettings to org.vorpal.blade.services.proxy.registrar.ProxyRegistrarSettingsDefault--><g id="link_org.vorpal.blade.services.proxy.registrar.ProxyRegistrarSettings_org.vorpal.blade.services.proxy.registrar.ProxyRegistrarSettingsDefault"><path codeLine="12" d="M150.6295,58.6542 C165.8695,74.8642 176.03,85.67 194.01,104.8 " fill="none" id="org.vorpal.blade.services.proxy.registrar.ProxyRegistrarSettings-backto-org.vorpal.blade.services.proxy.registrar.ProxyRegistrarSettingsDefault" style="stroke:#181818;stroke-width:1.0;"/><polygon fill="none" points="138.3,45.54,146.2581,62.7641,155.0009,54.5444,138.3,45.54" style="stroke:#181818;stroke-width:1.0;"/></g><!--reverse link java.io.Serializable to org.vorpal.blade.services.proxy.registrar.ProxyRegistrarSettingsDefault--><g id="link_java.io.Serializable_org.vorpal.blade.services.proxy.registrar.ProxyRegistrarSettingsDefault"><path codeLine="13" d="M296.1408,58.5978 C280.7608,74.8078 270.43,85.67 252.28,104.8 " fill="none" id="java.io.Serializable-backto-org.vorpal.blade.services.proxy.registrar.ProxyRegistrarSettingsDefault" style="stroke:#181818;stroke-width:1.0;stroke-dasharray:7.0,7.0;"/><polygon fill="none" points="308.53,45.54,291.7882,54.4681,300.4934,62.7276,308.53,45.54" style="stroke:#181818;stroke-width:1.0;"/></g><text fill="#888888" font-family="sans-serif" font-size="10" lengthAdjust="spacing" textLength="176" x="99.25" y="183.6919">UMLDoclet 2.1.2, PlantUML 1.2024.3</text><!--SRC=[nL9DIyD04BtxAuQ2e60sjdWgjLvw4HIAfLvg3zDqsgniTiFEjFJplxjPAmJHebWmXsHvytRclPS1060Ii5WGbvZHW4hqACw3TPREGXboFIMWefGrp3IPANz62vBS1JZYcK5cQ7HORwZTlEdslLkjdsYkMJpw0ObeE-SUpN1XvCKUUDTTv-TgwNo9HaqCJaan-QNEY5LPTL3-eqK3aE77R7LqFen6H-igbyACnx2DrgfdouAYipqaOQ96yqoUjRF3-ruRZBFpIDp_9ef_o-1RymVNqOEsGduM5gFcOn2TwmrE3DNKl-8IbNPHs-6iwjGmBnSfkPscKvUnSXupGofpHKeshMx45rFQR4P6YgMEa9fKQ6HebzPxHgbtcXDQ1PqMpQtu1GNjKVoV4-hiakHKknOLVPbBPwVKIQTaLFqrc3bNVOQF3pqNaXPegQPgNK7Ve9M0mldoVNilBjy0]--></g></svg>