<?xml version="1.0" encoding="us-ascii" standalone="no"?><svg xmlns="http://www.w3.org/2000/svg" xmlns:xlink="http://www.w3.org/1999/xlink" contentStyleType="text/css" height="399px" preserveAspectRatio="none" style="width:452px;height:399px;background:#FFFFFF;" version="1.1" viewBox="0 0 452 399" width="452px" zoomAndPan="magnify"><defs/><g><!--class org.vorpal.blade.applications.console.mxgraph.OpenServlet--><a href="OpenServlet.html" target="_top" title="OpenServlet.html" xlink:actuate="onRequest" xlink:href="OpenServlet.html" xlink:show="new" xlink:title="OpenServlet.html" xlink:type="simple"><g id="elem_org.vorpal.blade.applications.console.mxgraph.OpenServlet"><rect codeLine="5" fill="#F1F1F1" height="268.6133" id="org.vorpal.blade.applications.console.mxgraph.OpenServlet" rx="2.5" ry="2.5" style="stroke:#181818;stroke-width:0.5;" width="436" x="9" y="105.27"/><ellipse cx="109.25" cy="124.4028" fill="#ADD1B2" rx="11" ry="11" style="stroke:#181818;stroke-width:1.0;"/><path d="M111.7231,130.5459 Q111.1421,130.8447 110.5029,130.9941 Q109.8638,131.1435 109.1582,131.1435 Q106.6514,131.1435 105.3315,129.4917 Q104.0117,127.8398 104.0117,124.7187 Q104.0117,121.5893 105.3315,119.9375 Q106.6514,118.2856 109.1582,118.2856 Q109.8638,118.2856 110.5112,118.435 Q111.1587,118.5845 111.7231,118.8833 L111.7231,121.6059 Q111.0923,121.0249 110.4988,120.7551 Q109.9053,120.4853 109.2744,120.4853 Q107.9297,120.4853 107.2449,121.552 Q106.5601,122.6186 106.5601,124.7187 Q106.5601,126.8105 107.2449,127.8772 Q107.9297,128.9438 109.2744,128.9438 Q109.9053,128.9438 110.4988,128.6741 Q111.0923,128.4043 111.7231,127.8232 Z " fill="#000000"/><text fill="#000000" font-family="sans-serif" font-size="14" lengthAdjust="spacing" textLength="83" x="201.75" y="123.8052">OpenServlet</text><text fill="#000000" font-family="sans-serif" font-size="10" lengthAdjust="spacing" textLength="227" x="129.75" y="136.4262">org.vorpal.blade.applications.console.mxgraph</text><line style="stroke:#181818;stroke-width:0.5;" x1="10" x2="444" y1="143.5356" y2="143.5356"/><rect fill="none" height="6" style="stroke:#C82930;stroke-width:1.0;" width="6" x="17" y="154.2798"/><text fill="#000000" font-family="sans-serif" font-size="14" lengthAdjust="spacing" text-decoration="underline" textLength="152" x="29" y="161.0708">serialVersionUID: long</text><rect fill="none" height="6" style="stroke:#C82930;stroke-width:1.0;" width="6" x="17" y="170.768"/><text fill="#000000" font-family="sans-serif" font-size="14" lengthAdjust="spacing" text-decoration="underline" textLength="78" x="29" y="177.5591">log: Logger</text><ellipse cx="20" cy="190.2563" fill="none" rx="3" ry="3" style="stroke:#038048;stroke-width:1.0;"/><text fill="#000000" font-family="sans-serif" font-size="14" lengthAdjust="spacing" text-decoration="underline" textLength="238" x="29" y="194.0473">ENABLE_GLIFFY_SUPPORT: boolean</text><ellipse cx="20" cy="206.7446" fill="none" rx="3" ry="3" style="stroke:#038048;stroke-width:1.0;"/><text fill="#000000" font-family="sans-serif" font-size="14" lengthAdjust="spacing" text-decoration="underline" textLength="258" x="29" y="210.5356">ENABLE_GRAPHML_SUPPORT: boolean</text><ellipse cx="20" cy="223.2329" fill="none" rx="3" ry="3" style="stroke:#038048;stroke-width:1.0;"/><text fill="#000000" font-family="sans-serif" font-size="14" lengthAdjust="spacing" text-decoration="underline" textLength="152" x="29" y="227.0239">PNG_CHUNK_ZTXT: int</text><ellipse cx="20" cy="239.7212" fill="none" rx="3" ry="3" style="stroke:#038048;stroke-width:1.0;"/><text fill="#000000" font-family="sans-serif" font-size="14" lengthAdjust="spacing" text-decoration="underline" textLength="149" x="29" y="243.5122">PNG_CHUNK_IEND: int</text><polygon fill="none" points="20,251.2095,24,255.2095,20,259.2095,16,255.2095" style="stroke:#B38D22;stroke-width:1.0;"/><text fill="#000000" font-family="sans-serif" font-size="14" lengthAdjust="spacing" text-decoration="underline" textLength="126" x="29" y="260.0005">gliffyRegex: String</text><polygon fill="none" points="20,267.6977,24,271.6977,20,275.6977,16,271.6977" style="stroke:#B38D22;stroke-width:1.0;"/><text fill="#000000" font-family="sans-serif" font-size="14" lengthAdjust="spacing" text-decoration="underline" textLength="149" x="29" y="276.4888">graphMlRegex: String</text><line style="stroke:#181818;stroke-width:0.5;" x1="10" x2="444" y1="283.4419" y2="283.4419"/><polygon fill="#FFFF44" points="20,292.186,24,296.186,20,300.186,16,296.186" style="stroke:#B38D22;stroke-width:1.0;"/><text fill="#000000" font-family="sans-serif" font-size="14" lengthAdjust="spacing" textLength="373" x="29" y="300.977">doPost(HttpServletRequest, HttpServletResponse): void</text><polygon fill="#FFFF44" points="20,308.6743,24,312.6743,20,316.6743,16,312.6743" style="stroke:#B38D22;stroke-width:1.0;"/><text fill="#000000" font-family="sans-serif" font-size="14" lengthAdjust="spacing" textLength="191" x="29" y="317.4653">encodeString(String): String</text><polygon fill="#FFFF44" points="20,325.1626,24,329.1626,20,333.1626,16,329.1626" style="stroke:#B38D22;stroke-width:1.0;"/><text fill="#000000" font-family="sans-serif" font-size="14" lengthAdjust="spacing" textLength="242" x="29" y="333.9536">writeScript(PrintWriter, String): void</text><polygon fill="#FFFF44" points="20,341.6509,24,345.6509,20,349.6509,16,345.6509" style="stroke:#B38D22;stroke-width:1.0;"/><text fill="#000000" font-family="sans-serif" font-size="14" lengthAdjust="spacing" textLength="234" x="29" y="350.4419">extractXmlFromPng(byte[]): String</text><ellipse cx="20" cy="363.1391" fill="#84BE84" rx="3" ry="3" style="stroke:#038048;stroke-width:1.0;"/><text fill="#000000" font-family="sans-serif" font-size="14" lengthAdjust="spacing" text-decoration="underline" textLength="410" x="29" y="366.9302">decodeCompressedText(InputStream): Map&lt;String, String&gt;</text></g></a><!--class javax.servlet.http.HttpServlet--><a href="https://javaee.github.io/javaee-spec/javadocs/javax/servlet/http/HttpServlet.html?is-external=true" target="_top" title="https://javaee.github.io/javaee-spec/javadocs/javax/servlet/http/HttpServlet.html?is-external=true" xlink:actuate="onRequest" xlink:href="https://javaee.github.io/javaee-spec/javadocs/javax/servlet/http/HttpServlet.html?is-external=true" xlink:show="new" xlink:title="https://javaee.github.io/javaee-spec/javadocs/javax/servlet/http/HttpServlet.html?is-external=true" xlink:type="simple"><g id="elem_javax.servlet.http.HttpServlet"><rect codeLine="21" fill="#F1F1F1" height="38.2656" id="javax.servlet.http.HttpServlet" rx="2.5" ry="2.5" style="stroke:#181818;stroke-width:0.5;" width="117" x="168.5" y="7"/><ellipse cx="183.5" cy="26.1328" fill="#A9DCDF" rx="11" ry="11" style="stroke:#181818;stroke-width:1.0;"/><path d="M183.3633,21.481 L182.2095,26.5527 L184.5254,26.5527 Z M181.8691,19.2397 L184.8657,19.2397 L188.2109,31.6328 L185.7622,31.6328 L184.9985,28.5698 L181.7197,28.5698 L180.9727,31.6328 L178.5239,31.6328 Z " fill="#000000"/><text fill="#000000" font-family="sans-serif" font-size="14" font-style="italic" lengthAdjust="spacing" textLength="75" x="202.5" y="25.5352">HttpServlet</text><text fill="#000000" font-family="sans-serif" font-size="10" font-style="italic" lengthAdjust="spacing" textLength="85" x="197.5" y="38.1563">javax.servlet.http</text></g></a><!--reverse link javax.servlet.http.HttpServlet to org.vorpal.blade.applications.console.mxgraph.OpenServlet--><g id="link_javax.servlet.http.HttpServlet_org.vorpal.blade.applications.console.mxgraph.OpenServlet"><path codeLine="23" d="M227,63.53 C227,78 227,81.6 227,105.17 " fill="none" id="javax.servlet.http.HttpServlet-backto-org.vorpal.blade.applications.console.mxgraph.OpenServlet" style="stroke:#181818;stroke-width:1.0;"/><polygon fill="none" points="227,45.53,221,63.53,233,63.53,227,45.53" style="stroke:#181818;stroke-width:1.0;"/></g><text fill="#888888" font-family="sans-serif" font-size="10" lengthAdjust="spacing" textLength="176" x="131" y="389.5513">UMLDoclet 2.1.2, PlantUML 1.2024.3</text><!--SRC=[dLHjRzem4Fw-Nt4gcWHgCMkrJr7NgIjGq816KBPk326J7C6JOtlsmM1T__kSX7MiqEub7sBdyJtFlUJE000E2HHFqHaUuG0Djvoq1QKLFlF7C1Sn0gQ6rZ0JA6Ft44sHvjh3EHv9xXmSd3hn3OFZbsTN1jK0xL8YVL8RzCMPjWbRQckuP5F9OsJS62aYJa8hnoB_qX9PkaeiD_C3u0x-YS6slC9ejFN5vfJAyHXkys2pvzQH5udkeEhG2YxVeNLUSzYk1o2rIlOOIfq4qD59WdRtzB3HEt_JQKmkE-rcyyDaC0p3g_vr05Fj0-Jg2KB_F6nrEt_327kNaulMiFTsyl7wnbiAHKzQjHkz-YDMfKIAsMpTnmHN0Gp8Ydqfb_AoTkL-irAiG-set28ocphtySi27Ht1RvWp_ZzX9O2b5l4lEgf8nrY8bekbiklagnM4WyWAG-NG7z7x3B17SCzueBeYooEwIMNJwZJqqjCruMXSUJpDmnYpI2vqQYmwX_6r5octbLcGfo1FFRVBpMd1_-dvB1UwA_gVJrtkTcSGjWgnDGYV-PAlcBjlJZ9vj-_2R8llMpg3N52hPOQ8B14qNqoPq1kWwWn6-JxMaSitgzf6hfPnQrjo-Koy5gxgaqMhk7n5Te7ZSP7G7q8v_Lwj_lzm5bS6AkyNPbfdox3RgUieapvXn-pa24B95NaKdY-BqInNVW00]--></g></svg>