<?xml version="1.0" encoding="us-ascii" standalone="no"?><svg xmlns="http://www.w3.org/2000/svg" xmlns:xlink="http://www.w3.org/1999/xlink" contentStyleType="text/css" height="284px" preserveAspectRatio="none" style="width:415px;height:284px;background:#FFFFFF;" version="1.1" viewBox="0 0 415 284" width="415px" zoomAndPan="magnify"><defs/><g><!--class org.vorpal.blade.applications.console.mxgraph.Roundtrip--><a href="Roundtrip.html" target="_top" title="Roundtrip.html" xlink:actuate="onRequest" xlink:href="Roundtrip.html" xlink:show="new" xlink:title="Roundtrip.html" xlink:type="simple"><g id="elem_org.vorpal.blade.applications.console.mxgraph.Roundtrip"><rect codeLine="5" fill="#F1F1F1" height="153.1953" id="org.vorpal.blade.applications.console.mxgraph.Roundtrip" rx="2.5" ry="2.5" style="stroke:#181818;stroke-width:0.5;" width="399" x="9" y="105.26"/><ellipse cx="90.75" cy="124.3928" fill="#ADD1B2" rx="11" ry="11" style="stroke:#181818;stroke-width:1.0;"/><path d="M93.2231,130.5359 Q92.6421,130.8347 92.0029,130.9841 Q91.3638,131.1335 90.6582,131.1335 Q88.1514,131.1335 86.8315,129.4817 Q85.5117,127.8298 85.5117,124.7087 Q85.5117,121.5793 86.8315,119.9275 Q88.1514,118.2756 90.6582,118.2756 Q91.3638,118.2756 92.0112,118.425 Q92.6587,118.5745 93.2231,118.8733 L93.2231,121.5959 Q92.5923,121.0149 91.9988,120.7451 Q91.4053,120.4753 90.7744,120.4753 Q89.4297,120.4753 88.7449,121.542 Q88.0601,122.6086 88.0601,124.7087 Q88.0601,126.8005 88.7449,127.8672 Q89.4297,128.9338 90.7744,128.9338 Q91.4053,128.9338 91.9988,128.6641 Q92.5923,128.3943 93.2231,127.8132 Z " fill="#000000"/><text fill="#000000" font-family="sans-serif" font-size="14" lengthAdjust="spacing" textLength="69" x="190.25" y="123.7952">Roundtrip</text><text fill="#000000" font-family="sans-serif" font-size="10" lengthAdjust="spacing" textLength="227" x="111.25" y="136.4163">org.vorpal.blade.applications.console.mxgraph</text><line style="stroke:#181818;stroke-width:0.5;" x1="10" x2="407" y1="143.5256" y2="143.5256"/><rect fill="none" height="6" style="stroke:#C82930;stroke-width:1.0;" width="6" x="17" y="154.2698"/><text fill="#000000" font-family="sans-serif" font-size="14" lengthAdjust="spacing" text-decoration="underline" textLength="152" x="29" y="161.0608">serialVersionUID: long</text><rect fill="none" height="6" style="stroke:#C82930;stroke-width:1.0;" width="6" x="17" y="170.758"/><text fill="#000000" font-family="sans-serif" font-size="14" lengthAdjust="spacing" text-decoration="underline" textLength="79" x="29" y="177.5491">counter: int</text><polygon fill="none" points="20,185.2463,24,189.2463,20,193.2463,16,189.2463" style="stroke:#B38D22;stroke-width:1.0;"/><text fill="#000000" font-family="sans-serif" font-size="14" lengthAdjust="spacing" text-decoration="underline" textLength="149" x="29" y="194.0373">emptyDiagram: String</text><polygon fill="none" points="20,201.7346,24,205.7346,20,209.7346,16,205.7346" style="stroke:#B38D22;stroke-width:1.0;"/><text fill="#000000" font-family="sans-serif" font-size="14" lengthAdjust="spacing" text-decoration="underline" textLength="242" x="29" y="210.5256">diagrams: Map&lt;String, Document&gt;</text><line style="stroke:#181818;stroke-width:0.5;" x1="10" x2="407" y1="217.4788" y2="217.4788"/><polygon fill="#FFFF44" points="20,226.2229,24,230.2229,20,234.2229,16,230.2229" style="stroke:#B38D22;stroke-width:1.0;"/><text fill="#000000" font-family="sans-serif" font-size="14" lengthAdjust="spacing" textLength="373" x="29" y="235.0139">doPost(HttpServletRequest, HttpServletResponse): void</text><polygon fill="#FFFF44" points="20,242.7112,24,246.7112,20,250.7112,16,246.7112" style="stroke:#B38D22;stroke-width:1.0;"/><text fill="#000000" font-family="sans-serif" font-size="14" lengthAdjust="spacing" textLength="367" x="29" y="251.5022">doGet(HttpServletRequest, HttpServletResponse): void</text></g></a><!--class javax.servlet.http.HttpServlet--><a href="https://javaee.github.io/javaee-spec/javadocs/javax/servlet/http/HttpServlet.html?is-external=true" target="_top" title="https://javaee.github.io/javaee-spec/javadocs/javax/servlet/http/HttpServlet.html?is-external=true" xlink:actuate="onRequest" xlink:href="https://javaee.github.io/javaee-spec/javadocs/javax/servlet/http/HttpServlet.html?is-external=true" xlink:show="new" xlink:title="https://javaee.github.io/javaee-spec/javadocs/javax/servlet/http/HttpServlet.html?is-external=true" xlink:type="simple"><g id="elem_javax.servlet.http.HttpServlet"><rect codeLine="14" fill="#F1F1F1" height="38.2656" id="javax.servlet.http.HttpServlet" rx="2.5" ry="2.5" style="stroke:#181818;stroke-width:0.5;" width="117" x="150" y="7"/><ellipse cx="165" cy="26.1328" fill="#A9DCDF" rx="11" ry="11" style="stroke:#181818;stroke-width:1.0;"/><path d="M164.8633,21.481 L163.7095,26.5527 L166.0254,26.5527 Z M163.3691,19.2397 L166.3657,19.2397 L169.7109,31.6328 L167.2622,31.6328 L166.4985,28.5698 L163.2197,28.5698 L162.4727,31.6328 L160.0239,31.6328 Z " fill="#000000"/><text fill="#000000" font-family="sans-serif" font-size="14" font-style="italic" lengthAdjust="spacing" textLength="75" x="184" y="25.5352">HttpServlet</text><text fill="#000000" font-family="sans-serif" font-size="10" font-style="italic" lengthAdjust="spacing" textLength="85" x="179" y="38.1563">javax.servlet.http</text></g></a><!--reverse link javax.servlet.http.HttpServlet to org.vorpal.blade.applications.console.mxgraph.Roundtrip--><g id="link_javax.servlet.http.HttpServlet_org.vorpal.blade.applications.console.mxgraph.Roundtrip"><path codeLine="16" d="M208.5,63.68 C208.5,78.69 208.5,82.9 208.5,105.01 " fill="none" id="javax.servlet.http.HttpServlet-backto-org.vorpal.blade.applications.console.mxgraph.Roundtrip" style="stroke:#181818;stroke-width:1.0;"/><polygon fill="none" points="208.5,45.68,202.5,63.68,214.5,63.68,208.5,45.68" style="stroke:#181818;stroke-width:1.0;"/></g><text fill="#888888" font-family="sans-serif" font-size="10" lengthAdjust="spacing" textLength="176" x="112.5" y="274.1233">UMLDoclet 2.1.2, PlantUML 1.2024.3</text><!--SRC=[dLB1QXin4BttAuQOGW9URHDwMXptOcWB2OIOz9BuCDPEl2fQIT7CBcxJ_7krkyPiua18T926ftbFeta30C0auB0c3gXfIG4ZYe_WlADFwHegKn9G7UGFt1ko9Rz4QvBA9xZ7jKLcE9gn-Kl5wTVvjMzSAT64ExV3linztAZMnu1MhIsMf304QpIAyOwLJfktfEhj9cAeZW0PtiLG-pVXzdOVgqfgkrh1OrzcjnvPae1-Wemf6hI_A7BIk_cvAC1wjtabKISreLY0SN9uFUdxiJ2OogWBMAPdNrEPb4C65t29OJQaJM7XTLEJa_cUCIdzbMSv_Y4IbXHRIt9D3msnJE4PnY5rW4uAQBqfn_Jlz27sq-0bhbaYQZamTKGVsVeRMzmg7l3KRWczTuUm6l6JHHt4HPvtYKHgOwHgrihu7P1n8Dt7fTVS1zjy9vTtt7marxlypN16s-IJGtikiQ7LQlZG6wNC_cNPHqTj67xgfWFklU-EcykBv6adVAPErTaKhYmwIIXyReTHEpxv3m00]--></g></svg>