<?xml version="1.0" encoding="us-ascii" standalone="no"?><svg xmlns="http://www.w3.org/2000/svg" xmlns:xlink="http://www.w3.org/1999/xlink" contentStyleType="text/css" height="471px" preserveAspectRatio="none" style="width:547px;height:471px;background:#FFFFFF;" version="1.1" viewBox="0 0 547 471" width="547px" zoomAndPan="magnify"><defs/><g><!--class org.vorpal.blade.services.tpcc.v1.DialogAPI--><a href="DialogAPI.html" target="_top" title="DialogAPI.html" xlink:actuate="onRequest" xlink:href="DialogAPI.html" xlink:show="new" xlink:title="DialogAPI.html" xlink:type="simple"><g id="elem_org.vorpal.blade.services.tpcc.v1.DialogAPI"><rect codeLine="5" fill="#F1F1F1" height="219.1484" id="org.vorpal.blade.services.tpcc.v1.DialogAPI" rx="2.5" ry="2.5" style="stroke:#181818;stroke-width:0.5;" width="531" x="9" y="129.76"/><ellipse cx="191.25" cy="148.8928" fill="#ADD1B2" rx="11" ry="11" style="stroke:#181818;stroke-width:1.0;"/><path d="M193.7231,155.0359 Q193.1421,155.3347 192.5029,155.4841 Q191.8638,155.6335 191.1582,155.6335 Q188.6514,155.6335 187.3315,153.9817 Q186.0117,152.3298 186.0117,149.2087 Q186.0117,146.0793 187.3315,144.4275 Q188.6514,142.7756 191.1582,142.7756 Q191.8638,142.7756 192.5112,142.925 Q193.1587,143.0745 193.7231,143.3733 L193.7231,146.0959 Q193.0923,145.5149 192.4988,145.2451 Q191.9053,144.9753 191.2744,144.9753 Q189.9297,144.9753 189.2449,146.042 Q188.5601,147.1086 188.5601,149.2087 Q188.5601,151.3005 189.2449,152.3672 Q189.9297,153.4338 191.2744,153.4338 Q191.9053,153.4338 192.4988,153.1641 Q193.0923,152.8943 193.7231,152.3132 Z " fill="#000000"/><text fill="#000000" font-family="sans-serif" font-size="14" lengthAdjust="spacing" textLength="66" x="257.75" y="148.2952">DialogAPI</text><text fill="#000000" font-family="sans-serif" font-size="10" lengthAdjust="spacing" textLength="158" x="211.75" y="160.9163">org.vorpal.blade.services.tpcc.v1</text><line style="stroke:#181818;stroke-width:0.5;" x1="10" x2="539" y1="168.0256" y2="168.0256"/><ellipse cx="20" cy="181.7698" fill="none" rx="3" ry="3" style="stroke:#038048;stroke-width:1.0;"/><text fill="#000000" font-family="sans-serif" font-size="14" lengthAdjust="spacing" text-decoration="underline" textLength="298" x="29" y="185.5608">responseMap: Map&lt;String, ResponseStuff&gt;</text><rect fill="none" height="6" style="stroke:#C82930;stroke-width:1.0;" width="6" x="17" y="195.258"/><text fill="#000000" font-family="sans-serif" font-size="14" lengthAdjust="spacing" text-decoration="underline" textLength="152" x="29" y="202.0491">serialVersionUID: long</text><rect fill="none" height="6" style="stroke:#C82930;stroke-width:1.0;" width="6" x="17" y="211.7463"/><text fill="#000000" font-family="sans-serif" font-size="14" lengthAdjust="spacing" textLength="227" x="29" y="218.5373">asyncResponse2: AsyncResponse</text><polygon fill="none" points="20,227.2346,16,233.2346,24,233.2346" style="stroke:#1963A0;stroke-width:1.0;"/><text fill="#000000" font-family="sans-serif" font-size="14" lengthAdjust="spacing" text-decoration="underline" textLength="115" x="29" y="235.0256">blackhole: String</text><line style="stroke:#181818;stroke-width:0.5;" x1="10" x2="539" y1="241.9788" y2="241.9788"/><ellipse cx="20" cy="255.7229" fill="#84BE84" rx="3" ry="3" style="stroke:#038048;stroke-width:1.0;"/><text fill="#000000" font-family="sans-serif" font-size="14" lengthAdjust="spacing" textLength="395" x="29" y="259.5139">createDialog(String, Dialog, UriInfo, AsyncResponse): void</text><ellipse cx="20" cy="272.2112" fill="#84BE84" rx="3" ry="3" style="stroke:#038048;stroke-width:1.0;"/><text fill="#000000" font-family="sans-serif" font-size="14" lengthAdjust="spacing" textLength="460" x="29" y="276.0022">connectDialogs(UriInfo, String, String, String, AsyncResponse): void</text><ellipse cx="20" cy="288.6995" fill="#84BE84" rx="3" ry="3" style="stroke:#038048;stroke-width:1.0;"/><text fill="#000000" font-family="sans-serif" font-size="14" lengthAdjust="spacing" textLength="363" x="29" y="292.4905">getDialogAttributes(UriInfo, String, String): Response</text><ellipse cx="20" cy="305.1877" fill="#84BE84" rx="3" ry="3" style="stroke:#038048;stroke-width:1.0;"/><text fill="#000000" font-family="sans-serif" font-size="14" lengthAdjust="spacing" textLength="505" x="29" y="308.9788">getDialogAttributes(UriInfo, String, String, DialogPutAttributes): Response</text><ellipse cx="20" cy="321.676" fill="#84BE84" rx="3" ry="3" style="stroke:#038048;stroke-width:1.0;"/><text fill="#000000" font-family="sans-serif" font-size="14" lengthAdjust="spacing" textLength="362" x="29" y="325.467">sendBye(UriInfo, String, String, AsyncResponse): void</text><ellipse cx="20" cy="338.1643" fill="#84BE84" rx="3" ry="3" style="stroke:#038048;stroke-width:1.0;"/><text fill="#000000" font-family="sans-serif" font-size="14" lengthAdjust="spacing" textLength="222" x="29" y="341.9553">process(SipServletRequest): void</text></g></a><!--class org.vorpal.blade.framework.callflow.Callflow--><a href="https://vorpalnet.github.io/blade/vorpal-blade-library-framework/org/vorpal/blade/framework/callflow/Callflow.html?is-external=true" target="_top" title="https://vorpalnet.github.io/blade/vorpal-blade-library-framework/org/vorpal/blade/framework/callflow/Callflow.html?is-external=true" xlink:actuate="onRequest" xlink:href="https://vorpalnet.github.io/blade/vorpal-blade-library-framework/org/vorpal/blade/framework/callflow/Callflow.html?is-external=true" xlink:show="new" xlink:title="https://vorpalnet.github.io/blade/vorpal-blade-library-framework/org/vorpal/blade/framework/callflow/Callflow.html?is-external=true" xlink:type="simple"><g id="elem_org.vorpal.blade.framework.callflow.Callflow"><rect codeLine="18" fill="#F1F1F1" height="62.7539" id="org.vorpal.blade.framework.callflow.Callflow" rx="2.5" ry="2.5" style="stroke:#181818;stroke-width:0.5;" width="248" x="43.5" y="7"/><ellipse cx="76.5" cy="26.1328" fill="#A9DCDF" rx="11" ry="11" style="stroke:#181818;stroke-width:1.0;"/><path d="M76.3633,21.481 L75.2095,26.5527 L77.5254,26.5527 Z M74.8691,19.2397 L77.8657,19.2397 L81.2109,31.6328 L78.7622,31.6328 L77.9985,28.5698 L74.7197,28.5698 L73.9727,31.6328 L71.5239,31.6328 Z " fill="#000000"/><text fill="#000000" font-family="sans-serif" font-size="14" font-style="italic" lengthAdjust="spacing" textLength="55" x="155" y="25.5352">Callflow</text><text fill="#000000" font-family="sans-serif" font-size="10" font-style="italic" lengthAdjust="spacing" textLength="176" x="94.5" y="38.1563">org.vorpal.blade.framework.callflow</text><line style="stroke:#181818;stroke-width:0.5;" x1="44.5" x2="290.5" y1="45.2656" y2="45.2656"/><ellipse cx="54.5" cy="59.0098" fill="#84BE84" rx="3" ry="3" style="stroke:#038048;stroke-width:1.0;"/><text fill="#000000" font-family="sans-serif" font-size="14" font-style="italic" lengthAdjust="spacing" textLength="222" x="63.5" y="62.8008">process(SipServletRequest): void</text></g></a><!--class java.io.Serializable--><a href="https://docs.oracle.com/en/java/javase/11/docs/api/java.base/java/io/Serializable.html?is-external=true" target="_top" title="https://docs.oracle.com/en/java/javase/11/docs/api/java.base/java/io/Serializable.html?is-external=true" xlink:actuate="onRequest" xlink:href="https://docs.oracle.com/en/java/javase/11/docs/api/java.base/java/io/Serializable.html?is-external=true" xlink:show="new" xlink:title="https://docs.oracle.com/en/java/javase/11/docs/api/java.base/java/io/Serializable.html?is-external=true" xlink:type="simple"><g id="elem_java.io.Serializable"><rect codeLine="21" fill="#F1F1F1" height="38.2656" id="java.io.Serializable" rx="2.5" ry="2.5" style="stroke:#181818;stroke-width:0.5;" width="111" x="326" y="19.25"/><ellipse cx="341" cy="38.3828" fill="#B4A7E5" rx="11" ry="11" style="stroke:#181818;stroke-width:1.0;"/><path d="M337.4277,34.6479 L337.4277,32.4897 L344.8071,32.4897 L344.8071,34.6479 L342.3418,34.6479 L342.3418,42.7246 L344.8071,42.7246 L344.8071,44.8828 L337.4277,44.8828 L337.4277,42.7246 L339.8931,42.7246 L339.8931,34.6479 Z " fill="#000000"/><text fill="#000000" font-family="sans-serif" font-size="14" font-style="italic" lengthAdjust="spacing" textLength="79" x="355" y="37.7852">Serializable</text><text fill="#000000" font-family="sans-serif" font-size="10" font-style="italic" lengthAdjust="spacing" textLength="32" x="378.5" y="50.4063">java.io</text></g></a><!--class org.vorpal.blade.services.tpcc.v1.DialogAPI.ResponseStuff--><a href="DialogAPI.ResponseStuff.html" target="_top" title="DialogAPI.ResponseStuff.html" xlink:actuate="onRequest" xlink:href="DialogAPI.ResponseStuff.html" xlink:show="new" xlink:title="DialogAPI.ResponseStuff.html" xlink:type="simple"><g id="elem_org.vorpal.blade.services.tpcc.v1.DialogAPI.ResponseStuff"><rect codeLine="22" fill="#F1F1F1" height="38.2656" id="org.vorpal.blade.services.tpcc.v1.DialogAPI.ResponseStuff" rx="2.5" ry="2.5" style="stroke:#181818;stroke-width:0.5;" width="200" x="174.5" y="408.9"/><ellipse cx="189.5" cy="428.0328" fill="#ADD1B2" rx="11" ry="11" style="stroke:#181818;stroke-width:1.0;"/><path d="M191.9731,434.1759 Q191.3921,434.4747 190.7529,434.6241 Q190.1138,434.7735 189.4082,434.7735 Q186.9014,434.7735 185.5815,433.1217 Q184.2617,431.4698 184.2617,428.3487 Q184.2617,425.2193 185.5815,423.5675 Q186.9014,421.9156 189.4082,421.9156 Q190.1138,421.9156 190.7612,422.065 Q191.4087,422.2145 191.9731,422.5133 L191.9731,425.2359 Q191.3423,424.6549 190.7488,424.3851 Q190.1553,424.1153 189.5244,424.1153 Q188.1797,424.1153 187.4949,425.182 Q186.8101,426.2486 186.8101,428.3487 Q186.8101,430.4405 187.4949,431.5072 Q188.1797,432.5738 189.5244,432.5738 Q190.1553,432.5738 190.7488,432.3041 Q191.3423,432.0343 191.9731,431.4532 Z " fill="#000000"/><text fill="#000000" font-family="sans-serif" font-size="14" lengthAdjust="spacing" textLength="168" x="203.5" y="427.4352">DialogAPI.ResponseStuff</text><text fill="#000000" font-family="sans-serif" font-size="10" lengthAdjust="spacing" textLength="158" x="208.5" y="440.0563">org.vorpal.blade.services.tpcc.v1</text></g></a><!--reverse link org.vorpal.blade.framework.callflow.Callflow to org.vorpal.blade.services.tpcc.v1.DialogAPI--><g id="link_org.vorpal.blade.framework.callflow.Callflow_org.vorpal.blade.services.tpcc.v1.DialogAPI"><path codeLine="24" d="M192.5109,85.88 C201.3109,102.23 204.19,107.59 215.93,129.42 " fill="none" id="org.vorpal.blade.framework.callflow.Callflow-backto-org.vorpal.blade.services.tpcc.v1.DialogAPI" style="stroke:#181818;stroke-width:1.0;"/><polygon fill="none" points="183.98,70.03,187.2276,88.7237,197.7943,83.0364,183.98,70.03" style="stroke:#181818;stroke-width:1.0;"/></g><!--reverse link java.io.Serializable to org.vorpal.blade.services.tpcc.v1.DialogAPI--><g id="link_java.io.Serializable_org.vorpal.blade.services.tpcc.v1.DialogAPI"><path codeLine="25" d="M363.1034,73.5924 C353.9434,90.6224 348.03,101.6 333.07,129.43 " fill="none" id="java.io.Serializable-backto-org.vorpal.blade.services.tpcc.v1.DialogAPI" style="stroke:#181818;stroke-width:1.0;stroke-dasharray:7.0,7.0;"/><polygon fill="none" points="371.63,57.74,357.8193,70.7502,368.3875,76.4346,371.63,57.74" style="stroke:#181818;stroke-width:1.0;"/></g><!--reverse link org.vorpal.blade.services.tpcc.v1.DialogAPI to org.vorpal.blade.services.tpcc.v1.DialogAPI.ResponseStuff--><g id="link_org.vorpal.blade.services.tpcc.v1.DialogAPI_org.vorpal.blade.services.tpcc.v1.DialogAPI.ResponseStuff"><path codeLine="26" d="M274.5,365.21 C274.5,388.25 274.5,394 274.5,408.61 " fill="none" id="org.vorpal.blade.services.tpcc.v1.DialogAPI-backto-org.vorpal.blade.services.tpcc.v1.DialogAPI.ResponseStuff" style="stroke:#181818;stroke-width:1.0;"/><ellipse cx="274.5" cy="357.21" fill="#FFFFFF" rx="8" ry="8" style="stroke:#181818;stroke-width:1.0;"/><line style="stroke:#181818;stroke-width:1.0;" x1="274.5" x2="274.5" y1="365.21" y2="349.21"/><line style="stroke:#181818;stroke-width:1.0;" x1="266.5" x2="282.5" y1="357.21" y2="357.21"/></g><text fill="#888888" font-family="sans-serif" font-size="10" lengthAdjust="spacing" textLength="176" x="178.5" y="461.8336">UMLDoclet 2.1.2, PlantUML 1.2024.3</text><!--SRC=[jLHBRnen4BxtLumYLIA2zHRKqufIqN91QYGKb5xI7Bnc5jmOUsiFf2GXlxrcNzaDZvP3z-1TZx_vvh6V1m308O7cItGf5pZ5b5jEne8s6j_vOrZ86G8kKzf08b7Dt5lh4cbXl3cp2yMTWuk-auyOTJyEHf8hCnzEnZzqOVimC7REriQcNB5OyHaoXtOj1Jf6gH1itRq0xk2lA5Pnm-rjzSqMj5HtT_2KfRDxdXnnac8BRUkBDDhX5KyZy4j_IbRgUGUkYuCfhP9aiEyP-DW-m7UqJXfzCnv5e8oULy20kuqM9KilWc5zly_tuYiIzmkZC88yXmhJ5XOvOLvFgqmmttRWnignJaod6U0oWhMHing7qHe5vLwkLNcLT6_VfzdcM30DoUFZ5U5HIk-xL_Kv_cMbanMzWW-IEjIpBniyJdIwfjGQBoNNcifqwdMbaAxnrmeTrP7RNDCyTcIve3rnV-LA9SeydD9sOltTUZ3sdea2VLZT-pXMqdjvBuXI5uLXxgAHs5pIOXKpQSBClpW9iasWP6ovtGGLQUZZ5P02_tfKnWlBUDaL-YnTWBy9hURg4zaLDkzKsPFjFxTojqhj2HC_PsfDd6PNIpxoM66jaJ_vcllgicOLtwmEhJLbPeHZncUZa0cp3567EuziSHXsknaYvAdCJ2pUMJE4xrwTyrZXfoSRQqoF_pddcf4QKwznKip0NBrdAQt_70JdP9H5EFXx-i-CdSrqpinldvTfiqFv7yMT724nPlUwkVesCbv213tMPRqEJ1JNvAtmVftF_TRb7m00]--></g></svg>