<?xml version="1.0" encoding="us-ascii" standalone="no"?><svg xmlns="http://www.w3.org/2000/svg" xmlns:xlink="http://www.w3.org/1999/xlink" contentStyleType="text/css" height="1087px" preserveAspectRatio="none" style="width:1120px;height:1087px;background:#FFFFFF;" version="1.1" viewBox="0 0 1120 1087" width="1120px" zoomAndPan="magnify"><defs/><g><!--cluster org.vorpal.blade.services.tpcc.v1--><g id="cluster_org.vorpal.blade.services.tpcc.v1"><path d="M8.5,590.67 L236.5,590.67 A3.75,3.75 0 0 1 239,593.17 L246,613.1583 L1110.5,613.1583 A2.5,2.5 0 0 1 1113,615.6583 L1113,1058.98 A2.5,2.5 0 0 1 1110.5,1061.48 L8.5,1061.48 A2.5,2.5 0 0 1 6,1058.98 L6,593.17 A2.5,2.5 0 0 1 8.5,590.67 " fill="none" style="stroke:#000000;stroke-width:1.5;"/><line style="stroke:#000000;stroke-width:1.5;" x1="6" x2="246" y1="613.1583" y2="613.1583"/><text fill="#000000" font-family="sans-serif" font-size="14" font-weight="bold" lengthAdjust="spacing" textLength="227" x="10" y="606.2052">org.vorpal.blade.services.tpcc.v1</text></g><!--cluster org.vorpal.blade.framework.callflow--><g id="cluster_org.vorpal.blade.framework.callflow"><path d="M264.5,6 L520.5,6 A3.75,3.75 0 0 1 523,8.5 L530,28.4883 L583.5,28.4883 A2.5,2.5 0 0 1 586,30.9883 L586,564.17 A2.5,2.5 0 0 1 583.5,566.67 L264.5,566.67 A2.5,2.5 0 0 1 262,564.17 L262,8.5 A2.5,2.5 0 0 1 264.5,6 " fill="none" style="stroke:#000000;stroke-width:1.5;"/><line style="stroke:#000000;stroke-width:1.5;" x1="262" x2="530" y1="28.4883" y2="28.4883"/><text fill="#000000" font-family="sans-serif" font-size="14" font-weight="bold" lengthAdjust="spacing" textLength="255" x="266" y="21.5352">org.vorpal.blade.framework.callflow</text></g><!--cluster java.io--><g id="cluster_java.io"><path d="M761.5,236.83 L808.5,236.83 A3.75,3.75 0 0 1 811,239.33 L818,259.3183 L900.5,259.3183 A2.5,2.5 0 0 1 903,261.8183 L903,333.33 A2.5,2.5 0 0 1 900.5,335.83 L761.5,335.83 A2.5,2.5 0 0 1 759,333.33 L759,239.33 A2.5,2.5 0 0 1 761.5,236.83 " fill="none" style="stroke:#000000;stroke-width:1.5;"/><line style="stroke:#000000;stroke-width:1.5;" x1="759" x2="818" y1="259.3183" y2="259.3183"/><text fill="#000000" font-family="sans-serif" font-size="14" font-weight="bold" lengthAdjust="spacing" textLength="46" x="763" y="252.3652">java.io</text></g><!--class SessionAPI--><a href="SessionAPI.html" target="_top" title="SessionAPI.html" xlink:actuate="onRequest" xlink:href="SessionAPI.html" xlink:show="new" xlink:title="SessionAPI.html" xlink:type="simple"><g id="elem_SessionAPI"><rect codeLine="5" fill="#F1F1F1" height="262.3477" id="SessionAPI" rx="2.5" ry="2.5" style="stroke:#181818;stroke-width:0.5;" width="509" x="21.5" y="625.67"/><ellipse cx="234.75" cy="641.67" fill="#ADD1B2" rx="11" ry="11" style="stroke:#181818;stroke-width:1.0;"/><path d="M237.2231,647.8131 Q236.6421,648.1119 236.0029,648.2613 Q235.3638,648.4107 234.6582,648.4107 Q232.1514,648.4107 230.8315,646.7589 Q229.5117,645.107 229.5117,641.9859 Q229.5117,638.8565 230.8315,637.2047 Q232.1514,635.5528 234.6582,635.5528 Q235.3638,635.5528 236.0112,635.7022 Q236.6587,635.8516 237.2231,636.1505 L237.2231,638.8731 Q236.5923,638.2921 235.9988,638.0223 Q235.4053,637.7525 234.7744,637.7525 Q233.4297,637.7525 232.7449,638.8192 Q232.0601,639.8858 232.0601,641.9859 Q232.0601,644.0777 232.7449,645.1444 Q233.4297,646.211 234.7744,646.211 Q235.4053,646.211 235.9988,645.9412 Q236.5923,645.6715 237.2231,645.0904 Z " fill="#000000"/><text fill="#000000" font-family="sans-serif" font-size="14" lengthAdjust="spacing" textLength="74" x="255.25" y="646.961">SessionAPI</text><line style="stroke:#181818;stroke-width:0.5;" x1="22.5" x2="529.5" y1="657.67" y2="657.67"/><rect fill="none" height="6" style="stroke:#C82930;stroke-width:1.0;" width="6" x="29.5" y="668.4141"/><text fill="#000000" font-family="sans-serif" font-size="14" lengthAdjust="spacing" text-decoration="underline" textLength="152" x="41.5" y="675.2052">serialVersionUID: long</text><line style="stroke:#181818;stroke-width:0.5;" x1="22.5" x2="529.5" y1="682.1583" y2="682.1583"/><ellipse cx="32.5" cy="695.9024" fill="#84BE84" rx="3" ry="3" style="stroke:#038048;stroke-width:1.0;"/><text fill="#000000" font-family="sans-serif" font-size="14" lengthAdjust="spacing" textLength="156" x="41.5" y="699.6934">test(UriInfo): Response</text><ellipse cx="32.5" cy="712.3907" fill="#84BE84" rx="3" ry="3" style="stroke:#038048;stroke-width:1.0;"/><text fill="#000000" font-family="sans-serif" font-size="14" lengthAdjust="spacing" textLength="165" x="41.5" y="716.1817">test2(UriInfo): Response</text><ellipse cx="32.5" cy="728.879" fill="#84BE84" rx="3" ry="3" style="stroke:#038048;stroke-width:1.0;"/><text fill="#000000" font-family="sans-serif" font-size="14" lengthAdjust="spacing" textLength="225" x="41.5" y="732.67">createSession(UriInfo): Response</text><ellipse cx="32.5" cy="745.3673" fill="#84BE84" rx="3" ry="3" style="stroke:#038048;stroke-width:1.0;"/><text fill="#000000" font-family="sans-serif" font-size="14" lengthAdjust="spacing" textLength="483" x="41.5" y="749.1583">createSessionWithAttributes(SessionCreateRequest, UriInfo): Response</text><ellipse cx="32.5" cy="761.8555" fill="#84BE84" rx="3" ry="3" style="stroke:#038048;stroke-width:1.0;"/><text fill="#000000" font-family="sans-serif" font-size="14" lengthAdjust="spacing" textLength="199" x="41.5" y="765.6466">getSession(String): Response</text><ellipse cx="32.5" cy="778.3438" fill="#84BE84" rx="3" ry="3" style="stroke:#038048;stroke-width:1.0;"/><text fill="#000000" font-family="sans-serif" font-size="14" lengthAdjust="spacing" textLength="440" x="41.5" y="782.1348">updateSession(String, SessionCreateRequest, UriInfo): Response</text><ellipse cx="32.5" cy="794.8321" fill="#84BE84" rx="3" ry="3" style="stroke:#038048;stroke-width:1.0;"/><text fill="#000000" font-family="sans-serif" font-size="14" lengthAdjust="spacing" textLength="228" x="41.5" y="798.6231">removeSession(String): Response</text><ellipse cx="32.5" cy="811.3204" fill="#84BE84" rx="3" ry="3" style="stroke:#038048;stroke-width:1.0;"/><text fill="#000000" font-family="sans-serif" font-size="14" lengthAdjust="spacing" textLength="315" x="41.5" y="815.1114">listSessionsInGroup(String, UriInfo): Response</text><ellipse cx="32.5" cy="827.8087" fill="#84BE84" rx="3" ry="3" style="stroke:#038048;stroke-width:1.0;"/><text fill="#000000" font-family="sans-serif" font-size="14" lengthAdjust="spacing" textLength="265" x="41.5" y="831.5997">deleteGroup(String, UriInfo): Response</text><ellipse cx="32.5" cy="844.297" fill="#84BE84" rx="3" ry="3" style="stroke:#038048;stroke-width:1.0;"/><text fill="#000000" font-family="sans-serif" font-size="14" lengthAdjust="spacing" textLength="316" x="41.5" y="848.088">assignGroup(String, String, UriInfo): Response</text><ellipse cx="32.5" cy="860.7852" fill="#84BE84" rx="3" ry="3" style="stroke:#038048;stroke-width:1.0;"/><text fill="#000000" font-family="sans-serif" font-size="14" lengthAdjust="spacing" textLength="359" x="41.5" y="864.5763">removeFromGroup(String, String, UriInfo): Response</text><ellipse cx="32.5" cy="877.2735" fill="#84BE84" rx="3" ry="3" style="stroke:#038048;stroke-width:1.0;"/><text fill="#000000" font-family="sans-serif" font-size="14" lengthAdjust="spacing" textLength="222" x="41.5" y="881.0645">process(SipServletRequest): void</text></g></a><!--class DialogAPI--><a href="DialogAPI.html" target="_top" title="DialogAPI.html" xlink:actuate="onRequest" xlink:href="DialogAPI.html" xlink:show="new" xlink:title="DialogAPI.html" xlink:type="simple"><g id="elem_DialogAPI"><rect codeLine="21" fill="#F1F1F1" height="212.8828" id="DialogAPI" rx="2.5" ry="2.5" style="stroke:#181818;stroke-width:0.5;" width="531" x="565.5" y="650.4"/><ellipse cx="793.75" cy="666.4" fill="#ADD1B2" rx="11" ry="11" style="stroke:#181818;stroke-width:1.0;"/><path d="M796.2231,672.5431 Q795.6421,672.8419 795.0029,672.9913 Q794.3638,673.1407 793.6582,673.1407 Q791.1514,673.1407 789.8315,671.4889 Q788.5117,669.837 788.5117,666.7159 Q788.5117,663.5865 789.8315,661.9347 Q791.1514,660.2828 793.6582,660.2828 Q794.3638,660.2828 795.0112,660.4322 Q795.6587,660.5816 796.2231,660.8805 L796.2231,663.6031 Q795.5923,663.0221 794.9988,662.7523 Q794.4053,662.4825 793.7744,662.4825 Q792.4297,662.4825 791.7449,663.5492 Q791.0601,664.6158 791.0601,666.7159 Q791.0601,668.8077 791.7449,669.8744 Q792.4297,670.941 793.7744,670.941 Q794.4053,670.941 794.9988,670.6712 Q795.5923,670.4015 796.2231,669.8204 Z " fill="#000000"/><text fill="#000000" font-family="sans-serif" font-size="14" lengthAdjust="spacing" textLength="66" x="814.25" y="671.691">DialogAPI</text><line style="stroke:#181818;stroke-width:0.5;" x1="566.5" x2="1095.5" y1="682.4" y2="682.4"/><ellipse cx="576.5" cy="696.1441" fill="none" rx="3" ry="3" style="stroke:#038048;stroke-width:1.0;"/><text fill="#000000" font-family="sans-serif" font-size="14" lengthAdjust="spacing" text-decoration="underline" textLength="298" x="585.5" y="699.9352">responseMap: Map&lt;String, ResponseStuff&gt;</text><rect fill="none" height="6" style="stroke:#C82930;stroke-width:1.0;" width="6" x="573.5" y="709.6324"/><text fill="#000000" font-family="sans-serif" font-size="14" lengthAdjust="spacing" text-decoration="underline" textLength="152" x="585.5" y="716.4234">serialVersionUID: long</text><rect fill="none" height="6" style="stroke:#C82930;stroke-width:1.0;" width="6" x="573.5" y="726.1207"/><text fill="#000000" font-family="sans-serif" font-size="14" lengthAdjust="spacing" textLength="227" x="585.5" y="732.9117">asyncResponse2: AsyncResponse</text><polygon fill="none" points="576.5,741.609,572.5,747.609,580.5,747.609" style="stroke:#1963A0;stroke-width:1.0;"/><text fill="#000000" font-family="sans-serif" font-size="14" lengthAdjust="spacing" text-decoration="underline" textLength="115" x="585.5" y="749.4">blackhole: String</text><line style="stroke:#181818;stroke-width:0.5;" x1="566.5" x2="1095.5" y1="756.3531" y2="756.3531"/><ellipse cx="576.5" cy="770.0973" fill="#84BE84" rx="3" ry="3" style="stroke:#038048;stroke-width:1.0;"/><text fill="#000000" font-family="sans-serif" font-size="14" lengthAdjust="spacing" textLength="395" x="585.5" y="773.8883">createDialog(String, Dialog, UriInfo, AsyncResponse): void</text><ellipse cx="576.5" cy="786.5855" fill="#84BE84" rx="3" ry="3" style="stroke:#038048;stroke-width:1.0;"/><text fill="#000000" font-family="sans-serif" font-size="14" lengthAdjust="spacing" textLength="460" x="585.5" y="790.3766">connectDialogs(UriInfo, String, String, String, AsyncResponse): void</text><ellipse cx="576.5" cy="803.0738" fill="#84BE84" rx="3" ry="3" style="stroke:#038048;stroke-width:1.0;"/><text fill="#000000" font-family="sans-serif" font-size="14" lengthAdjust="spacing" textLength="363" x="585.5" y="806.8648">getDialogAttributes(UriInfo, String, String): Response</text><ellipse cx="576.5" cy="819.5621" fill="#84BE84" rx="3" ry="3" style="stroke:#038048;stroke-width:1.0;"/><text fill="#000000" font-family="sans-serif" font-size="14" lengthAdjust="spacing" textLength="505" x="585.5" y="823.3531">getDialogAttributes(UriInfo, String, String, DialogPutAttributes): Response</text><ellipse cx="576.5" cy="836.0504" fill="#84BE84" rx="3" ry="3" style="stroke:#038048;stroke-width:1.0;"/><text fill="#000000" font-family="sans-serif" font-size="14" lengthAdjust="spacing" textLength="362" x="585.5" y="839.8414">sendBye(UriInfo, String, String, AsyncResponse): void</text><ellipse cx="576.5" cy="852.5387" fill="#84BE84" rx="3" ry="3" style="stroke:#038048;stroke-width:1.0;"/><text fill="#000000" font-family="sans-serif" font-size="14" lengthAdjust="spacing" textLength="222" x="585.5" y="856.3297">process(SipServletRequest): void</text></g></a><!--class DialogAPI.ResponseStuff--><a href="DialogAPI.ResponseStuff.html" target="_top" title="DialogAPI.ResponseStuff.html" xlink:actuate="onRequest" xlink:href="DialogAPI.ResponseStuff.html" xlink:show="new" xlink:title="DialogAPI.ResponseStuff.html" xlink:type="simple"><g id="elem_DialogAPI.ResponseStuff"><rect codeLine="34" fill="#F1F1F1" height="97.4648" id="DialogAPI.ResponseStuff" rx="2.5" ry="2.5" style="stroke:#181818;stroke-width:0.5;" width="295" x="683.5" y="948.02"/><ellipse cx="742.75" cy="964.02" fill="#ADD1B2" rx="11" ry="11" style="stroke:#181818;stroke-width:1.0;"/><path d="M745.2231,970.1631 Q744.6421,970.4619 744.0029,970.6113 Q743.3638,970.7607 742.6582,970.7607 Q740.1514,970.7607 738.8315,969.1089 Q737.5117,967.457 737.5117,964.3359 Q737.5117,961.2065 738.8315,959.5547 Q740.1514,957.9028 742.6582,957.9028 Q743.3638,957.9028 744.0112,958.0522 Q744.6587,958.2016 745.2231,958.5005 L745.2231,961.2231 Q744.5923,960.6421 743.9988,960.3723 Q743.4053,960.1025 742.7744,960.1025 Q741.4297,960.1025 740.7449,961.1692 Q740.0601,962.2358 740.0601,964.3359 Q740.0601,966.4277 740.7449,967.4944 Q741.4297,968.561 742.7744,968.561 Q743.4053,968.561 743.9988,968.2912 Q744.5923,968.0215 745.2231,967.4404 Z " fill="#000000"/><text fill="#000000" font-family="sans-serif" font-size="14" lengthAdjust="spacing" textLength="168" x="763.25" y="969.311">DialogAPI.ResponseStuff</text><line style="stroke:#181818;stroke-width:0.5;" x1="684.5" x2="977.5" y1="980.02" y2="980.02"/><ellipse cx="694.5" cy="993.7641" fill="none" rx="3" ry="3" style="stroke:#038048;stroke-width:1.0;"/><text fill="#000000" font-family="sans-serif" font-size="14" lengthAdjust="spacing" textLength="101" x="703.5" y="997.5552">uriInfo: UriInfo</text><ellipse cx="694.5" cy="1010.2524" fill="none" rx="3" ry="3" style="stroke:#038048;stroke-width:1.0;"/><text fill="#000000" font-family="sans-serif" font-size="14" lengthAdjust="spacing" textLength="218" x="703.5" y="1014.0434">asyncResponse: AsyncResponse</text><line style="stroke:#181818;stroke-width:0.5;" x1="684.5" x2="977.5" y1="1020.9966" y2="1020.9966"/><ellipse cx="694.5" cy="1034.7407" fill="#84BE84" rx="3" ry="3" style="stroke:#038048;stroke-width:1.0;"/><text fill="#000000" font-family="sans-serif" font-size="14" lengthAdjust="spacing" textLength="269" x="703.5" y="1038.5317">ResponseStuff(UriInfo, AsyncResponse)</text></g></a><!--class Callflow--><a href="https://vorpalnet.github.io/blade/vorpal-blade-library-framework/org/vorpal/blade/framework/callflow/Callflow.html?is-external=true" target="_top" title="https://vorpalnet.github.io/blade/vorpal-blade-library-framework/org/vorpal/blade/framework/callflow/Callflow.html?is-external=true" xlink:actuate="onRequest" xlink:href="https://vorpalnet.github.io/blade/vorpal-blade-library-framework/org/vorpal/blade/framework/callflow/Callflow.html?is-external=true" xlink:show="new" xlink:title="https://vorpalnet.github.io/blade/vorpal-blade-library-framework/org/vorpal/blade/framework/callflow/Callflow.html?is-external=true" xlink:type="simple"><g id="elem_Callflow"><rect codeLine="43" fill="#F1F1F1" height="509.6719" id="Callflow" rx="2.5" ry="2.5" style="stroke:#181818;stroke-width:0.5;" width="291" x="278.5" y="41"/><ellipse cx="392.25" cy="57" fill="#A9DCDF" rx="11" ry="11" style="stroke:#181818;stroke-width:1.0;"/><path d="M392.1133,52.3481 L390.9595,57.4199 L393.2754,57.4199 Z M390.6191,50.1069 L393.6157,50.1069 L396.9609,62.5 L394.5122,62.5 L393.7485,59.437 L390.4697,59.437 L389.7227,62.5 L387.2739,62.5 Z " fill="#000000"/><text fill="#000000" font-family="sans-serif" font-size="14" font-style="italic" lengthAdjust="spacing" textLength="55" x="412.75" y="62.291">Callflow</text><line style="stroke:#181818;stroke-width:0.5;" x1="279.5" x2="568.5" y1="73" y2="73"/><rect fill="none" height="6" style="stroke:#C82930;stroke-width:1.0;" width="6" x="286.5" y="83.7441"/><text fill="#000000" font-family="sans-serif" font-size="14" lengthAdjust="spacing" text-decoration="underline" textLength="152" x="298.5" y="90.5352">serialVersionUID: long</text><polygon fill="none" points="289.5,98.2324,293.5,102.2324,289.5,106.2324,285.5,102.2324" style="stroke:#B38D22;stroke-width:1.0;"/><text fill="#000000" font-family="sans-serif" font-size="14" lengthAdjust="spacing" text-decoration="underline" textLength="149" x="298.5" y="107.0234">sipFactory: SipFactory</text><polygon fill="none" points="289.5,114.7207,293.5,118.7207,289.5,122.7207,285.5,118.7207" style="stroke:#B38D22;stroke-width:1.0;"/><text fill="#000000" font-family="sans-serif" font-size="14" lengthAdjust="spacing" text-decoration="underline" textLength="154" x="298.5" y="123.5117">sipUtil: SipSessionsUtil</text><polygon fill="none" points="289.5,131.209,293.5,135.209,289.5,139.209,285.5,135.209" style="stroke:#B38D22;stroke-width:1.0;"/><text fill="#000000" font-family="sans-serif" font-size="14" lengthAdjust="spacing" text-decoration="underline" textLength="180" x="298.5" y="140">timerService: TimerService</text><polygon fill="none" points="289.5,147.6973,293.5,151.6973,289.5,155.6973,285.5,151.6973" style="stroke:#B38D22;stroke-width:1.0;"/><text fill="#000000" font-family="sans-serif" font-size="14" lengthAdjust="spacing" text-decoration="underline" textLength="124" x="298.5" y="156.4883">sipLogger: Logger</text><polygon fill="none" points="289.5,164.1855,293.5,168.1855,289.5,172.1855,285.5,168.1855" style="stroke:#B38D22;stroke-width:1.0;"/><text fill="#000000" font-family="sans-serif" font-size="14" lengthAdjust="spacing" text-decoration="underline" textLength="265" x="298.5" y="172.9766">sessionParameters: SessionParameters</text><polygon fill="none" points="289.5,180.6738,293.5,184.6738,289.5,188.6738,285.5,184.6738" style="stroke:#B38D22;stroke-width:1.0;"/><text fill="#000000" font-family="sans-serif" font-size="14" lengthAdjust="spacing" text-decoration="underline" textLength="93" x="298.5" y="189.4648">INVITE: String</text><polygon fill="none" points="289.5,197.1621,293.5,201.1621,289.5,205.1621,285.5,201.1621" style="stroke:#B38D22;stroke-width:1.0;"/><text fill="#000000" font-family="sans-serif" font-size="14" lengthAdjust="spacing" text-decoration="underline" textLength="78" x="298.5" y="205.9531">ACK: String</text><polygon fill="none" points="289.5,213.6504,293.5,217.6504,289.5,221.6504,285.5,217.6504" style="stroke:#B38D22;stroke-width:1.0;"/><text fill="#000000" font-family="sans-serif" font-size="14" lengthAdjust="spacing" text-decoration="underline" textLength="74" x="298.5" y="222.4414">BYE: String</text><polygon fill="none" points="289.5,230.1387,293.5,234.1387,289.5,238.1387,285.5,234.1387" style="stroke:#B38D22;stroke-width:1.0;"/><text fill="#000000" font-family="sans-serif" font-size="14" lengthAdjust="spacing" text-decoration="underline" textLength="104" x="298.5" y="238.9297">CANCEL: String</text><polygon fill="none" points="289.5,246.627,293.5,250.627,289.5,254.627,285.5,250.627" style="stroke:#B38D22;stroke-width:1.0;"/><text fill="#000000" font-family="sans-serif" font-size="14" lengthAdjust="spacing" text-decoration="underline" textLength="114" x="298.5" y="255.418">REGISTER: String</text><polygon fill="none" points="289.5,263.1152,293.5,267.1152,289.5,271.1152,285.5,267.1152" style="stroke:#B38D22;stroke-width:1.0;"/><text fill="#000000" font-family="sans-serif" font-size="14" lengthAdjust="spacing" text-decoration="underline" textLength="110" x="298.5" y="271.9063">OPTIONS: String</text><polygon fill="none" points="289.5,279.6035,293.5,283.6035,289.5,287.6035,285.5,283.6035" style="stroke:#B38D22;stroke-width:1.0;"/><text fill="#000000" font-family="sans-serif" font-size="14" lengthAdjust="spacing" text-decoration="underline" textLength="95" x="298.5" y="288.3945">PRACK: String</text><polygon fill="none" points="289.5,296.0918,293.5,300.0918,289.5,304.0918,285.5,300.0918" style="stroke:#B38D22;stroke-width:1.0;"/><text fill="#000000" font-family="sans-serif" font-size="14" lengthAdjust="spacing" text-decoration="underline" textLength="122" x="298.5" y="304.8828">SUBSCRIBE: String</text><polygon fill="none" points="289.5,312.5801,293.5,316.5801,289.5,320.5801,285.5,316.5801" style="stroke:#B38D22;stroke-width:1.0;"/><text fill="#000000" font-family="sans-serif" font-size="14" lengthAdjust="spacing" text-decoration="underline" textLength="100" x="298.5" y="321.3711">NOTIFY: String</text><polygon fill="none" points="289.5,329.0684,293.5,333.0684,289.5,337.0684,285.5,333.0684" style="stroke:#B38D22;stroke-width:1.0;"/><text fill="#000000" font-family="sans-serif" font-size="14" lengthAdjust="spacing" text-decoration="underline" textLength="104" x="298.5" y="337.8594">PUBLISH: String</text><polygon fill="none" points="289.5,345.5566,293.5,349.5566,289.5,353.5566,285.5,349.5566" style="stroke:#B38D22;stroke-width:1.0;"/><text fill="#000000" font-family="sans-serif" font-size="14" lengthAdjust="spacing" text-decoration="underline" textLength="82" x="298.5" y="354.3477">INFO: String</text><polygon fill="none" points="289.5,362.0449,293.5,366.0449,289.5,370.0449,285.5,366.0449" style="stroke:#B38D22;stroke-width:1.0;"/><text fill="#000000" font-family="sans-serif" font-size="14" lengthAdjust="spacing" text-decoration="underline" textLength="104" x="298.5" y="370.8359">UPDATE: String</text><polygon fill="none" points="289.5,378.5332,293.5,382.5332,289.5,386.5332,285.5,382.5332" style="stroke:#B38D22;stroke-width:1.0;"/><text fill="#000000" font-family="sans-serif" font-size="14" lengthAdjust="spacing" text-decoration="underline" textLength="91" x="298.5" y="387.3242">REFER: String</text><polygon fill="none" points="289.5,395.0215,293.5,399.0215,289.5,403.0215,285.5,399.0215" style="stroke:#B38D22;stroke-width:1.0;"/><text fill="#000000" font-family="sans-serif" font-size="14" lengthAdjust="spacing" text-decoration="underline" textLength="69" x="298.5" y="403.8125">SIP: String</text><polygon fill="none" points="289.5,411.5098,293.5,415.5098,289.5,419.5098,285.5,415.5098" style="stroke:#B38D22;stroke-width:1.0;"/><text fill="#000000" font-family="sans-serif" font-size="14" lengthAdjust="spacing" text-decoration="underline" textLength="102" x="298.5" y="420.3008">Contact: String</text><polygon fill="none" points="289.5,427.998,293.5,431.998,289.5,435.998,285.5,431.998" style="stroke:#B38D22;stroke-width:1.0;"/><text fill="#000000" font-family="sans-serif" font-size="14" lengthAdjust="spacing" text-decoration="underline" textLength="110" x="298.5" y="436.7891">RELIABLE: String</text><polygon fill="none" points="289.5,444.4863,293.5,448.4863,289.5,452.4863,285.5,448.4863" style="stroke:#B38D22;stroke-width:1.0;"/><text fill="#000000" font-family="sans-serif" font-size="14" lengthAdjust="spacing" text-decoration="underline" textLength="197" x="298.5" y="453.2773">REQUEST_CALLBACK_: String</text><polygon fill="none" points="289.5,460.9746,293.5,464.9746,289.5,468.9746,285.5,464.9746" style="stroke:#B38D22;stroke-width:1.0;"/><text fill="#000000" font-family="sans-serif" font-size="14" lengthAdjust="spacing" text-decoration="underline" textLength="204" x="298.5" y="469.7656">RESPONSE_CALLBACK_: String</text><polygon fill="none" points="289.5,477.4629,293.5,481.4629,289.5,485.4629,285.5,481.4629" style="stroke:#B38D22;stroke-width:1.0;"/><text fill="#000000" font-family="sans-serif" font-size="14" lengthAdjust="spacing" text-decoration="underline" textLength="161" x="298.5" y="486.2539">LINKED_SESSION: String</text><polygon fill="none" points="289.5,493.9512,293.5,497.9512,289.5,501.9512,285.5,497.9512" style="stroke:#B38D22;stroke-width:1.0;"/><text fill="#000000" font-family="sans-serif" font-size="14" lengthAdjust="spacing" text-decoration="underline" textLength="181" x="298.5" y="502.7422">DELAYED_REQUEST: String</text><polygon fill="none" points="289.5,510.4395,293.5,514.4395,289.5,518.4395,285.5,514.4395" style="stroke:#B38D22;stroke-width:1.0;"/><text fill="#000000" font-family="sans-serif" font-size="14" lengthAdjust="spacing" text-decoration="underline" textLength="199" x="298.5" y="519.2305">WITHHOLD_RESPONSE: String</text><line style="stroke:#181818;stroke-width:0.5;" x1="279.5" x2="568.5" y1="526.1836" y2="526.1836"/><ellipse cx="289.5" cy="539.9277" fill="#84BE84" rx="3" ry="3" style="stroke:#038048;stroke-width:1.0;"/><text fill="#000000" font-family="sans-serif" font-size="14" font-style="italic" lengthAdjust="spacing" textLength="222" x="298.5" y="543.7188">process(SipServletRequest): void</text></g></a><!--class Serializable--><a href="https://docs.oracle.com/en/java/javase/11/docs/api/java.base/java/io/Serializable.html?is-external=true" target="_top" title="https://docs.oracle.com/en/java/javase/11/docs/api/java.base/java/io/Serializable.html?is-external=true" xlink:actuate="onRequest" xlink:href="https://docs.oracle.com/en/java/javase/11/docs/api/java.base/java/io/Serializable.html?is-external=true" xlink:show="new" xlink:title="https://docs.oracle.com/en/java/javase/11/docs/api/java.base/java/io/Serializable.html?is-external=true" xlink:type="simple"><g id="elem_Serializable"><rect codeLine="76" fill="#F1F1F1" height="48" id="Serializable" rx="2.5" ry="2.5" style="stroke:#181818;stroke-width:0.5;" width="111" x="775.5" y="271.83"/><ellipse cx="790.5" cy="287.83" fill="#B4A7E5" rx="11" ry="11" style="stroke:#181818;stroke-width:1.0;"/><path d="M786.9277,284.0951 L786.9277,281.9369 L794.3071,281.9369 L794.3071,284.0951 L791.8418,284.0951 L791.8418,292.1718 L794.3071,292.1718 L794.3071,294.33 L786.9277,294.33 L786.9277,292.1718 L789.3931,292.1718 L789.3931,284.0951 Z " fill="#000000"/><text fill="#000000" font-family="sans-serif" font-size="14" font-style="italic" lengthAdjust="spacing" textLength="79" x="804.5" y="293.121">Serializable</text><line style="stroke:#181818;stroke-width:0.5;" x1="776.5" x2="885.5" y1="303.83" y2="303.83"/><line style="stroke:#181818;stroke-width:0.5;" x1="776.5" x2="885.5" y1="311.83" y2="311.83"/></g></a><!--reverse link Callflow to SessionAPI--><g id="link_Callflow_SessionAPI"><path codeLine="79" d="M336.5763,567.9715 C328.2963,593.6515 325.67,601.78 318.08,625.33 " fill="none" id="Callflow-backto-SessionAPI" style="stroke:#181818;stroke-width:1.0;"/><polygon fill="none" points="342.1,550.84,330.8658,566.1303,342.2868,569.8127,342.1,550.84" style="stroke:#181818;stroke-width:1.0;"/></g><!--reverse link Callflow to DialogAPI--><g id="link_Callflow_DialogAPI"><path codeLine="80" d="M581.7327,474.7174 C637.5027,537.6074 687.63,594.15 737.27,650.13 " fill="none" id="Callflow-backto-DialogAPI" style="stroke:#181818;stroke-width:1.0;"/><polygon fill="none" points="569.79,461.25,577.2436,478.6983,586.2219,470.7365,569.79,461.25" style="stroke:#181818;stroke-width:1.0;"/></g><!--reverse link Serializable to DialogAPI--><g id="link_Serializable_DialogAPI"><path codeLine="81" d="M831,338.23 C831,398.06 831,541.58 831,650.22 " fill="none" id="Serializable-backto-DialogAPI" style="stroke:#181818;stroke-width:1.0;stroke-dasharray:7.0,7.0;"/><polygon fill="none" points="831,320.23,825,338.23,837,338.23,831,320.23" style="stroke:#181818;stroke-width:1.0;"/></g><!--reverse link DialogAPI to DialogAPI.ResponseStuff--><g id="link_DialogAPI_DialogAPI.ResponseStuff"><path codeLine="82" d="M831,879.58 C831,908.99 831,923.49 831,947.77 " fill="none" id="DialogAPI-backto-DialogAPI.ResponseStuff" style="stroke:#181818;stroke-width:1.0;"/><ellipse cx="831" cy="871.58" fill="#FFFFFF" rx="8" ry="8" style="stroke:#181818;stroke-width:1.0;"/><line style="stroke:#181818;stroke-width:1.0;" x1="831" x2="831" y1="879.58" y2="863.58"/><line style="stroke:#181818;stroke-width:1.0;" x1="823" x2="839" y1="871.58" y2="871.58"/></g><text fill="#888888" font-family="sans-serif" font-size="10" lengthAdjust="spacing" textLength="176" x="465" y="1077.148">UMLDoclet 2.1.2, PlantUML 1.2024.3</text><!--SRC=[jLTjRzis4FxUNq5W6E0YCONaev1ja6sv4QhQccMt288YeEMpmeKMDP9obxNPRn_rQjcpIZlR15WogUVkUNYyEze88IH1wKzA155S8Dj-yqPFefH4JoG6n4MCjroaXE4b8ol04iIMHY2nIgC8Rw_Grz8Wlo96f4GXI4bvuWGUkh_V3V2Zsh3FdpKUjQwlKX55enVKruufOHz1vFY5Dx8Huqcy1xvG85Ll8QYNhFbR6yr0fZoHy4_GjH4L2I0AAdddeJzHzUWe9UWoqrozQdPOG6RmUwRvBv79Omog9W-rgoJkH6RfggMq15-Yrx4AsF0jd4ZCgAmrIYzv9tYMDlGceXKmK72UZKuU6X_md6fRBcmi-EPrzgdWEgdrPj8qr1cknLSnrHPRJbSD-kKmtKSwQtbSPdlptP3iMcufuWD9RQHlDxNEMbseilNwvzUNIf_8voIglLtRo6cFZ_lzIrTuzFJ86TXLt8uLGRd69i3bi0dmvJxHOVHAFpn985AbfUmrbeTxLZ_D7dKnLQ7VbMM7s-yLvAa-wbK7cTg1EnrBI5Q3P-XsPbxVVv2TU2-pzd9rxytnpBt8Il5slS-7bTjQmVToxMAFgzUHD8VBUJ6SIMj1Dl25YoSS4SRMZ7zfoITBgGI9L1MGOOsultzKAfMsPPM-4b0urfqzMsBAhS9nzQPV3FgCBWKHp_s6pT92AaY5txsgXLWrNn7NNwZimnyAH4BOJqfayE_EmmRyWwJfMA-HYsTTkittRl12KLOWw_wUJtJ05Ts02CjZtqRprgZRly_Z68IDocSNhkGEI1ur7HHfrwVQRgh3r9jyzERkqJQr0pd3zmR4uCxaO-XCXgvl0CtSTruuTsS6s3IOUzD9Q405CxFkS348XpDlO58_cSwzyPs9S37mlV3MWF8cuwa1iWX6Zd5JPkxO6AZG2qpRmXEbSzp8vNlEm3TB-dNXXlE7eUFx0nty1oC-3FG-kYSR-DxalJjw2Dqmr0bW08zStxdJw4gL0Vt9cz_UJlqSNeewZg-RuCjPPycHtliRsHBT7rjTYoQwJjSa0bsyUSUYVv8bWrPxNV58OgxP6U28Ron8hDnBSPDWNLqL28kaj9Z2otosGEW-tFRPrKBREayu6soxEGDkllNxvhyujhtx5_C_aZG7Si5H1JhdRaNrvXl6v_iwnm1TdAbs_-T3mHT1dXDepNd-M7pmHrnllaBN-0fVNwA0aKJfMVJZjZpTUc__1W00]--></g></svg>