<?xml version="1.0" encoding="us-ascii" standalone="no"?><svg xmlns="http://www.w3.org/2000/svg" xmlns:xlink="http://www.w3.org/1999/xlink" contentStyleType="text/css" height="424px" preserveAspectRatio="none" style="width:523px;height:424px;background:#FFFFFF;" version="1.1" viewBox="0 0 523 424" width="523px" zoomAndPan="magnify"><defs/><g><!--class org.vorpal.blade.services.tpcc.v1.SessionAPI--><a href="SessionAPI.html" target="_top" title="SessionAPI.html" xlink:actuate="onRequest" xlink:href="SessionAPI.html" xlink:show="new" xlink:title="SessionAPI.html" xlink:type="simple"><g id="elem_org.vorpal.blade.services.tpcc.v1.SessionAPI"><rect codeLine="5" fill="#F1F1F1" height="268.6133" id="org.vorpal.blade.services.tpcc.v1.SessionAPI" rx="2.5" ry="2.5" style="stroke:#181818;stroke-width:0.5;" width="509" x="7" y="129.76"/><ellipse cx="178.25" cy="148.8928" fill="#ADD1B2" rx="11" ry="11" style="stroke:#181818;stroke-width:1.0;"/><path d="M180.7231,155.0359 Q180.1421,155.3347 179.5029,155.4841 Q178.8638,155.6335 178.1582,155.6335 Q175.6514,155.6335 174.3315,153.9817 Q173.0117,152.3298 173.0117,149.2087 Q173.0117,146.0793 174.3315,144.4275 Q175.6514,142.7756 178.1582,142.7756 Q178.8638,142.7756 179.5112,142.925 Q180.1587,143.0745 180.7231,143.3733 L180.7231,146.0959 Q180.0923,145.5149 179.4988,145.2451 Q178.9053,144.9753 178.2744,144.9753 Q176.9297,144.9753 176.2449,146.042 Q175.5601,147.1086 175.5601,149.2087 Q175.5601,151.3005 176.2449,152.3672 Q176.9297,153.4338 178.2744,153.4338 Q178.9053,153.4338 179.4988,153.1641 Q180.0923,152.8943 180.7231,152.3132 Z " fill="#000000"/><text fill="#000000" font-family="sans-serif" font-size="14" lengthAdjust="spacing" textLength="74" x="240.75" y="148.2952">SessionAPI</text><text fill="#000000" font-family="sans-serif" font-size="10" lengthAdjust="spacing" textLength="158" x="198.75" y="160.9163">org.vorpal.blade.services.tpcc.v1</text><line style="stroke:#181818;stroke-width:0.5;" x1="8" x2="515" y1="168.0256" y2="168.0256"/><rect fill="none" height="6" style="stroke:#C82930;stroke-width:1.0;" width="6" x="15" y="178.7698"/><text fill="#000000" font-family="sans-serif" font-size="14" lengthAdjust="spacing" text-decoration="underline" textLength="152" x="27" y="185.5608">serialVersionUID: long</text><line style="stroke:#181818;stroke-width:0.5;" x1="8" x2="515" y1="192.5139" y2="192.5139"/><ellipse cx="18" cy="206.258" fill="#84BE84" rx="3" ry="3" style="stroke:#038048;stroke-width:1.0;"/><text fill="#000000" font-family="sans-serif" font-size="14" lengthAdjust="spacing" textLength="156" x="27" y="210.0491">test(UriInfo): Response</text><ellipse cx="18" cy="222.7463" fill="#84BE84" rx="3" ry="3" style="stroke:#038048;stroke-width:1.0;"/><text fill="#000000" font-family="sans-serif" font-size="14" lengthAdjust="spacing" textLength="165" x="27" y="226.5373">test2(UriInfo): Response</text><ellipse cx="18" cy="239.2346" fill="#84BE84" rx="3" ry="3" style="stroke:#038048;stroke-width:1.0;"/><text fill="#000000" font-family="sans-serif" font-size="14" lengthAdjust="spacing" textLength="225" x="27" y="243.0256">createSession(UriInfo): Response</text><ellipse cx="18" cy="255.7229" fill="#84BE84" rx="3" ry="3" style="stroke:#038048;stroke-width:1.0;"/><text fill="#000000" font-family="sans-serif" font-size="14" lengthAdjust="spacing" textLength="483" x="27" y="259.5139">createSessionWithAttributes(SessionCreateRequest, UriInfo): Response</text><ellipse cx="18" cy="272.2112" fill="#84BE84" rx="3" ry="3" style="stroke:#038048;stroke-width:1.0;"/><text fill="#000000" font-family="sans-serif" font-size="14" lengthAdjust="spacing" textLength="199" x="27" y="276.0022">getSession(String): Response</text><ellipse cx="18" cy="288.6995" fill="#84BE84" rx="3" ry="3" style="stroke:#038048;stroke-width:1.0;"/><text fill="#000000" font-family="sans-serif" font-size="14" lengthAdjust="spacing" textLength="440" x="27" y="292.4905">updateSession(String, SessionCreateRequest, UriInfo): Response</text><ellipse cx="18" cy="305.1877" fill="#84BE84" rx="3" ry="3" style="stroke:#038048;stroke-width:1.0;"/><text fill="#000000" font-family="sans-serif" font-size="14" lengthAdjust="spacing" textLength="228" x="27" y="308.9788">removeSession(String): Response</text><ellipse cx="18" cy="321.676" fill="#84BE84" rx="3" ry="3" style="stroke:#038048;stroke-width:1.0;"/><text fill="#000000" font-family="sans-serif" font-size="14" lengthAdjust="spacing" textLength="315" x="27" y="325.467">listSessionsInGroup(String, UriInfo): Response</text><ellipse cx="18" cy="338.1643" fill="#84BE84" rx="3" ry="3" style="stroke:#038048;stroke-width:1.0;"/><text fill="#000000" font-family="sans-serif" font-size="14" lengthAdjust="spacing" textLength="265" x="27" y="341.9553">deleteGroup(String, UriInfo): Response</text><ellipse cx="18" cy="354.6526" fill="#84BE84" rx="3" ry="3" style="stroke:#038048;stroke-width:1.0;"/><text fill="#000000" font-family="sans-serif" font-size="14" lengthAdjust="spacing" textLength="316" x="27" y="358.4436">assignGroup(String, String, UriInfo): Response</text><ellipse cx="18" cy="371.1409" fill="#84BE84" rx="3" ry="3" style="stroke:#038048;stroke-width:1.0;"/><text fill="#000000" font-family="sans-serif" font-size="14" lengthAdjust="spacing" textLength="359" x="27" y="374.9319">removeFromGroup(String, String, UriInfo): Response</text><ellipse cx="18" cy="387.6291" fill="#84BE84" rx="3" ry="3" style="stroke:#038048;stroke-width:1.0;"/><text fill="#000000" font-family="sans-serif" font-size="14" lengthAdjust="spacing" textLength="222" x="27" y="391.4202">process(SipServletRequest): void</text></g></a><!--class org.vorpal.blade.framework.callflow.Callflow--><a href="https://vorpalnet.github.io/blade/vorpal-blade-library-framework/org/vorpal/blade/framework/callflow/Callflow.html?is-external=true" target="_top" title="https://vorpalnet.github.io/blade/vorpal-blade-library-framework/org/vorpal/blade/framework/callflow/Callflow.html?is-external=true" xlink:actuate="onRequest" xlink:href="https://vorpalnet.github.io/blade/vorpal-blade-library-framework/org/vorpal/blade/framework/callflow/Callflow.html?is-external=true" xlink:show="new" xlink:title="https://vorpalnet.github.io/blade/vorpal-blade-library-framework/org/vorpal/blade/framework/callflow/Callflow.html?is-external=true" xlink:type="simple"><g id="elem_org.vorpal.blade.framework.callflow.Callflow"><rect codeLine="21" fill="#F1F1F1" height="62.7539" id="org.vorpal.blade.framework.callflow.Callflow" rx="2.5" ry="2.5" style="stroke:#181818;stroke-width:0.5;" width="248" x="137.5" y="7"/><ellipse cx="170.5" cy="26.1328" fill="#A9DCDF" rx="11" ry="11" style="stroke:#181818;stroke-width:1.0;"/><path d="M170.3633,21.481 L169.2095,26.5527 L171.5254,26.5527 Z M168.8691,19.2397 L171.8657,19.2397 L175.2109,31.6328 L172.7622,31.6328 L171.9985,28.5698 L168.7197,28.5698 L167.9727,31.6328 L165.5239,31.6328 Z " fill="#000000"/><text fill="#000000" font-family="sans-serif" font-size="14" font-style="italic" lengthAdjust="spacing" textLength="55" x="249" y="25.5352">Callflow</text><text fill="#000000" font-family="sans-serif" font-size="10" font-style="italic" lengthAdjust="spacing" textLength="176" x="188.5" y="38.1563">org.vorpal.blade.framework.callflow</text><line style="stroke:#181818;stroke-width:0.5;" x1="138.5" x2="384.5" y1="45.2656" y2="45.2656"/><ellipse cx="148.5" cy="59.0098" fill="#84BE84" rx="3" ry="3" style="stroke:#038048;stroke-width:1.0;"/><text fill="#000000" font-family="sans-serif" font-size="14" font-style="italic" lengthAdjust="spacing" textLength="222" x="157.5" y="62.8008">process(SipServletRequest): void</text></g></a><!--reverse link org.vorpal.blade.framework.callflow.Callflow to org.vorpal.blade.services.tpcc.v1.SessionAPI--><g id="link_org.vorpal.blade.framework.callflow.Callflow_org.vorpal.blade.services.tpcc.v1.SessionAPI"><path codeLine="25" d="M261.5,88.01 C261.5,104.17 261.5,107.22 261.5,129.47 " fill="none" id="org.vorpal.blade.framework.callflow.Callflow-backto-org.vorpal.blade.services.tpcc.v1.SessionAPI" style="stroke:#181818;stroke-width:1.0;"/><polygon fill="none" points="261.5,70.01,255.5,88.01,267.5,88.01,261.5,70.01" style="stroke:#181818;stroke-width:1.0;"/></g><text fill="#888888" font-family="sans-serif" font-size="10" lengthAdjust="spacing" textLength="176" x="166.5" y="414.0413">UMLDoclet 2.1.2, PlantUML 1.2024.3</text><!--SRC=[bPHDRzim38Rl-nL4WG8f5ijBi5FGTYXQR0Ym0KM3R8Uk1yMcRM6of4cqkwxBVn_ZZsJzG1RxOfXwn9UY-Ge08221aIK69nDSe9DUalLWhC4tl0o5IX6mTFG0cKATXkVH4gcm76xYYPOXmD5fKBznDdb_li0Gb3KNr_FlfWk-ExS-5xNrJcgnqZ954T3NAi4Wo2M9g2T780FybnAxv71xk_iG1PNwxWuUcuespsCWIIfPGyGvbDHVqM_OvVng1jgQV0k-9GmqMderDvazcS4DjyMQW4-1wLuYyIW9kt8E9xyfAYw8l5fLh37gefSDSeC_AzOTmxviEL8lkk0q9d-LgbpwJtKjE8RXQXvBM-C1Wbg5lgumDv-yhTnMTfz0YXe93-TvxbJ-BFyX-zg3VFIs7BxNUSlpo3zBkGKF9nVSzOxfsggq8TUjC-Gga9S9lR38fTGwq_P-dq4opmwzj_w7I3hwTOkyv4IVdYrI4BamY-DsYq4IEGzTjHBAnit-RYLgFYAjLbxwXsYRD6Qz3kdutLAl5_TwZGi_g13XBq9lf3uZN-5JM_OzMGzhvQ1Zd_w9ea5tINkFeU6g8RDsyrf- -Nnb4wu9fc8YfcEurj8GH-6uRg-IqSbV]--></g></svg>