<?xml version="1.0" encoding="us-ascii" standalone="no"?><svg xmlns="http://www.w3.org/2000/svg" xmlns:xlink="http://www.w3.org/1999/xlink" contentStyleType="text/css" height="270px" preserveAspectRatio="none" style="width:331px;height:270px;background:#FFFFFF;" version="1.1" viewBox="0 0 331 270" width="331px" zoomAndPan="magnify"><defs/><g><!--cluster org.vorpal.blade.services.tpcc.callflows--><g id="cluster_org.vorpal.blade.services.tpcc.callflows"><path d="M8.5,129 L284.5,129 A3.75,3.75 0 0 1 287,131.5 L294,151.4883 L294.5,151.4883 A2.5,2.5 0 0 1 297,153.9883 L297,241.99 A2.5,2.5 0 0 1 294.5,244.49 L8.5,244.49 A2.5,2.5 0 0 1 6,241.99 L6,131.5 A2.5,2.5 0 0 1 8.5,129 " fill="none" style="stroke:#000000;stroke-width:1.5;"/><line style="stroke:#000000;stroke-width:1.5;" x1="6" x2="294" y1="151.4883" y2="151.4883"/><text fill="#000000" font-family="sans-serif" font-size="14" font-weight="bold" lengthAdjust="spacing" textLength="275" x="10" y="144.5352">org.vorpal.blade.services.tpcc.callflows</text></g><!--cluster org.vorpal.blade.framework.callflow--><g id="cluster_org.vorpal.blade.framework.callflow"><path d="M55.5,6 L311.5,6 A3.75,3.75 0 0 1 314,8.5 L321,28.4883 L321.5,28.4883 A2.5,2.5 0 0 1 324,30.9883 L324,102.5 A2.5,2.5 0 0 1 321.5,105 L55.5,105 A2.5,2.5 0 0 1 53,102.5 L53,8.5 A2.5,2.5 0 0 1 55.5,6 " fill="none" style="stroke:#000000;stroke-width:1.5;"/><line style="stroke:#000000;stroke-width:1.5;" x1="53" x2="321" y1="28.4883" y2="28.4883"/><text fill="#000000" font-family="sans-serif" font-size="14" font-weight="bold" lengthAdjust="spacing" textLength="255" x="57" y="21.5352">org.vorpal.blade.framework.callflow</text></g><!--class CreateDialog--><a href="CreateDialog.html" target="_top" title="CreateDialog.html" xlink:actuate="onRequest" xlink:href="CreateDialog.html" xlink:show="new" xlink:title="CreateDialog.html" xlink:type="simple"><g id="elem_CreateDialog"><rect codeLine="5" fill="#F1F1F1" height="64.4883" id="CreateDialog" rx="2.5" ry="2.5" style="stroke:#181818;stroke-width:0.5;" width="240" x="31" y="164"/><ellipse cx="102.25" cy="180" fill="#ADD1B2" rx="11" ry="11" style="stroke:#181818;stroke-width:1.0;"/><path d="M104.7231,186.1431 Q104.1421,186.4419 103.5029,186.5913 Q102.8638,186.7407 102.1582,186.7407 Q99.6514,186.7407 98.3315,185.0889 Q97.0117,183.437 97.0117,180.3159 Q97.0117,177.1865 98.3315,175.5347 Q99.6514,173.8828 102.1582,173.8828 Q102.8638,173.8828 103.5112,174.0322 Q104.1587,174.1816 104.7231,174.4805 L104.7231,177.2031 Q104.0923,176.6221 103.4988,176.3523 Q102.9053,176.0825 102.2744,176.0825 Q100.9297,176.0825 100.2449,177.1492 Q99.5601,178.2158 99.5601,180.3159 Q99.5601,182.4077 100.2449,183.4744 Q100.9297,184.541 102.2744,184.541 Q102.9053,184.541 103.4988,184.2712 Q104.0923,184.0015 104.7231,183.4204 Z " fill="#000000"/><text fill="#000000" font-family="sans-serif" font-size="14" lengthAdjust="spacing" textLength="89" x="122.75" y="185.291">CreateDialog</text><line style="stroke:#181818;stroke-width:0.5;" x1="32" x2="270" y1="196" y2="196"/><line style="stroke:#181818;stroke-width:0.5;" x1="32" x2="270" y1="204" y2="204"/><ellipse cx="42" cy="217.7441" fill="#84BE84" rx="3" ry="3" style="stroke:#038048;stroke-width:1.0;"/><text fill="#000000" font-family="sans-serif" font-size="14" lengthAdjust="spacing" textLength="214" x="51" y="221.5352">invoke(SipServletRequest): void</text></g></a><!--class ClientCallflow--><a href="https://vorpalnet.github.io/blade/vorpal-blade-library-framework/org/vorpal/blade/framework/callflow/ClientCallflow.html?is-external=true" target="_top" title="https://vorpalnet.github.io/blade/vorpal-blade-library-framework/org/vorpal/blade/framework/callflow/ClientCallflow.html?is-external=true" xlink:actuate="onRequest" xlink:href="https://vorpalnet.github.io/blade/vorpal-blade-library-framework/org/vorpal/blade/framework/callflow/ClientCallflow.html?is-external=true" xlink:show="new" xlink:title="https://vorpalnet.github.io/blade/vorpal-blade-library-framework/org/vorpal/blade/framework/callflow/ClientCallflow.html?is-external=true" xlink:type="simple"><g id="elem_ClientCallflow"><rect codeLine="12" fill="#F1F1F1" height="48" id="ClientCallflow" rx="2.5" ry="2.5" style="stroke:#181818;stroke-width:0.5;" width="127" x="87.5" y="41"/><ellipse cx="102.5" cy="57" fill="#ADD1B2" rx="11" ry="11" style="stroke:#181818;stroke-width:1.0;"/><path d="M104.9731,63.1431 Q104.3921,63.4419 103.7529,63.5913 Q103.1138,63.7407 102.4082,63.7407 Q99.9014,63.7407 98.5815,62.0889 Q97.2617,60.437 97.2617,57.3159 Q97.2617,54.1865 98.5815,52.5347 Q99.9014,50.8828 102.4082,50.8828 Q103.1138,50.8828 103.7612,51.0322 Q104.4087,51.1816 104.9731,51.4805 L104.9731,54.2031 Q104.3423,53.6221 103.7488,53.3523 Q103.1553,53.0825 102.5244,53.0825 Q101.1797,53.0825 100.4949,54.1492 Q99.8101,55.2158 99.8101,57.3159 Q99.8101,59.4077 100.4949,60.4744 Q101.1797,61.541 102.5244,61.541 Q103.1553,61.541 103.7488,61.2712 Q104.3423,61.0015 104.9731,60.4204 Z " fill="#000000"/><text fill="#000000" font-family="sans-serif" font-size="14" lengthAdjust="spacing" textLength="95" x="116.5" y="62.291">ClientCallflow</text><line style="stroke:#181818;stroke-width:0.5;" x1="88.5" x2="213.5" y1="73" y2="73"/><line style="stroke:#181818;stroke-width:0.5;" x1="88.5" x2="213.5" y1="81" y2="81"/></g></a><!--reverse link ClientCallflow to CreateDialog--><g id="link_ClientCallflow_CreateDialog"><path codeLine="15" d="M151,107.41 C151,128.21 151,140.8 151,163.75 " fill="none" id="ClientCallflow-backto-CreateDialog" style="stroke:#181818;stroke-width:1.0;"/><polygon fill="none" points="151,89.41,145,107.41,157,107.41,151,89.41" style="stroke:#181818;stroke-width:1.0;"/></g><text fill="#888888" font-family="sans-serif" font-size="10" lengthAdjust="spacing" textLength="176" x="70.5" y="260.158">UMLDoclet 2.1.2, PlantUML 1.2024.3</text><!--SRC=[ZL5DJy904BtpA-PY0j5k8yT6um6EcXY9fwQ7OHdAXg5RPuUYKVwxIobOlSWaayryl7blTW000cdq6WNL2sJPO12JKADTOqdWfJIDbnhPp1aNP099uom5exMrnYBpalqkmESHTp3B609CX51fwf1z2NdU3yrADrmK4GCzktPLuzSqdBbw5acOz8NUjXHqb47ZtUBSl3zIxVzHkXJSqCxB-gooHzXfP4ULJaxbF5-frY5Bq-EWYjIKJbVRkN4-RQTsbQGD4dPpGVb8pbHfLD6rTFq_fPEAz3Th-naFBYJqhYGLyhtAbegYl-C5ksNPdsNklfBaulD5TEy-BQUDmqXWwVtXUNrwd7eRRm9ZSsl6D_3CM6dCmbL34folXgDl]--></g></svg>