<?xml version="1.0" encoding="us-ascii" standalone="no"?><svg xmlns="http://www.w3.org/2000/svg" xmlns:xlink="http://www.w3.org/1999/xlink" contentStyleType="text/css" height="242px" preserveAspectRatio="none" style="width:727px;height:242px;background:#FFFFFF;" version="1.1" viewBox="0 0 727 242" width="727px" zoomAndPan="magnify"><defs/><g><!--class org.vorpal.blade.framework.config.ComparisonList--><a href="ComparisonList.html" target="_top" title="ComparisonList.html" xlink:actuate="onRequest" xlink:href="ComparisonList.html" xlink:show="new" xlink:title="ComparisonList.html" xlink:type="simple"><g id="elem_org.vorpal.blade.framework.config.ComparisonList"><rect codeLine="5" fill="#F1F1F1" height="87.2422" id="org.vorpal.blade.framework.config.ComparisonList" rx="2.5" ry="2.5" style="stroke:#181818;stroke-width:0.5;" width="359" x="91" y="129.76"/><ellipse cx="182.25" cy="148.8928" fill="#ADD1B2" rx="11" ry="11" style="stroke:#181818;stroke-width:1.0;"/><path d="M184.7231,155.0359 Q184.1421,155.3347 183.5029,155.4841 Q182.8638,155.6335 182.1582,155.6335 Q179.6514,155.6335 178.3315,153.9817 Q177.0117,152.3298 177.0117,149.2087 Q177.0117,146.0793 178.3315,144.4275 Q179.6514,142.7756 182.1582,142.7756 Q182.8638,142.7756 183.5112,142.925 Q184.1587,143.0745 184.7231,143.3733 L184.7231,146.0959 Q184.0923,145.5149 183.4988,145.2451 Q182.9053,144.9753 182.2744,144.9753 Q180.9297,144.9753 180.2449,146.042 Q179.5601,147.1086 179.5601,149.2087 Q179.5601,151.3005 180.2449,152.3672 Q180.9297,153.4338 182.2744,153.4338 Q182.9053,153.4338 183.4988,153.1641 Q184.0923,152.8943 184.7231,152.3132 Z " fill="#000000"/><text fill="#000000" font-family="sans-serif" font-size="14" lengthAdjust="spacing" textLength="107" x="233.25" y="148.2952">ComparisonList</text><text fill="#000000" font-family="sans-serif" font-size="10" lengthAdjust="spacing" textLength="168" x="202.75" y="160.9163">org.vorpal.blade.framework.config</text><line style="stroke:#181818;stroke-width:0.5;" x1="92" x2="449" y1="168.0256" y2="168.0256"/><rect fill="none" height="6" style="stroke:#C82930;stroke-width:1.0;" width="6" x="99" y="178.7698"/><text fill="#000000" font-family="sans-serif" font-size="14" lengthAdjust="spacing" text-decoration="underline" textLength="152" x="111" y="185.5608">serialVersionUID: long</text><line style="stroke:#181818;stroke-width:0.5;" x1="92" x2="449" y1="192.5139" y2="192.5139"/><ellipse cx="102" cy="206.258" fill="#84BE84" rx="3" ry="3" style="stroke:#038048;stroke-width:1.0;"/><text fill="#000000" font-family="sans-serif" font-size="14" lengthAdjust="spacing" textLength="333" x="111" y="210.0491">check(String, String, SipServletRequest): boolean</text></g></a><!--class java.util.LinkedList--><a href="https://docs.oracle.com/en/java/javase/11/docs/api/java.base/java/util/LinkedList.html?is-external=true" target="_top" title="https://docs.oracle.com/en/java/javase/11/docs/api/java.base/java/util/LinkedList.html?is-external=true" xlink:actuate="onRequest" xlink:href="https://docs.oracle.com/en/java/javase/11/docs/api/java.base/java/util/LinkedList.html?is-external=true" xlink:show="new" xlink:title="https://docs.oracle.com/en/java/javase/11/docs/api/java.base/java/util/LinkedList.html?is-external=true" xlink:type="simple"><g id="elem_java.util.LinkedList"><rect codeLine="10" fill="#F1F1F1" height="38.2656" id="java.util.LinkedList" rx="2.5" ry="2.5" style="stroke:#181818;stroke-width:0.5;" width="173" x="7" y="19.25"/><ellipse cx="22" cy="38.3828" fill="#ADD1B2" rx="11" ry="11" style="stroke:#181818;stroke-width:1.0;"/><path d="M24.4731,44.5259 Q23.8921,44.8247 23.2529,44.9741 Q22.6138,45.1235 21.9082,45.1235 Q19.4014,45.1235 18.0815,43.4717 Q16.7617,41.8198 16.7617,38.6987 Q16.7617,35.5693 18.0815,33.9175 Q19.4014,32.2656 21.9082,32.2656 Q22.6138,32.2656 23.2612,32.415 Q23.9087,32.5645 24.4731,32.8633 L24.4731,35.5859 Q23.8423,35.0049 23.2488,34.7351 Q22.6553,34.4653 22.0244,34.4653 Q20.6797,34.4653 19.9949,35.532 Q19.3101,36.5986 19.3101,38.6987 Q19.3101,40.7905 19.9949,41.8572 Q20.6797,42.9238 22.0244,42.9238 Q22.6553,42.9238 23.2488,42.6541 Q23.8423,42.3843 24.4731,41.8032 Z " fill="#000000"/><text fill="#000000" font-family="sans-serif" font-size="14" lengthAdjust="spacing" textLength="68" x="36" y="37.7852">LinkedList</text><text fill="#000000" font-family="sans-serif" font-size="10" lengthAdjust="spacing" textLength="39" x="50.5" y="50.4063">java.util</text><rect fill="#FFFFFF" height="16.1328" style="stroke:#181818;stroke-width:1.0;stroke-dasharray:2.0,2.0;" width="71" x="112" y="16.25"/><text fill="#000000" font-family="sans-serif" font-size="12" font-style="italic" lengthAdjust="spacing" textLength="69" x="113" y="28.8516">Comparison</text></g></a><!--class java.io.Serializable--><a href="https://docs.oracle.com/en/java/javase/11/docs/api/java.base/java/io/Serializable.html?is-external=true" target="_top" title="https://docs.oracle.com/en/java/javase/11/docs/api/java.base/java/io/Serializable.html?is-external=true" xlink:actuate="onRequest" xlink:href="https://docs.oracle.com/en/java/javase/11/docs/api/java.base/java/io/Serializable.html?is-external=true" xlink:show="new" xlink:title="https://docs.oracle.com/en/java/javase/11/docs/api/java.base/java/io/Serializable.html?is-external=true" xlink:type="simple"><g id="elem_java.io.Serializable"><rect codeLine="11" fill="#F1F1F1" height="38.2656" id="java.io.Serializable" rx="2.5" ry="2.5" style="stroke:#181818;stroke-width:0.5;" width="111" x="215" y="19.25"/><ellipse cx="230" cy="38.3828" fill="#B4A7E5" rx="11" ry="11" style="stroke:#181818;stroke-width:1.0;"/><path d="M226.4277,34.6479 L226.4277,32.4897 L233.8071,32.4897 L233.8071,34.6479 L231.3418,34.6479 L231.3418,42.7246 L233.8071,42.7246 L233.8071,44.8828 L226.4277,44.8828 L226.4277,42.7246 L228.8931,42.7246 L228.8931,34.6479 Z " fill="#000000"/><text fill="#000000" font-family="sans-serif" font-size="14" font-style="italic" lengthAdjust="spacing" textLength="79" x="244" y="37.7852">Serializable</text><text fill="#000000" font-family="sans-serif" font-size="10" font-style="italic" lengthAdjust="spacing" textLength="32" x="267.5" y="50.4063">java.io</text></g></a><!--class org.vorpal.blade.framework.config.RequestCondition--><a href="RequestCondition.html" target="_top" title="RequestCondition.html" xlink:actuate="onRequest" xlink:href="RequestCondition.html" xlink:show="new" xlink:title="RequestCondition.html" xlink:type="simple"><g id="elem_org.vorpal.blade.framework.config.RequestCondition"><rect codeLine="12" fill="#F1F1F1" height="62.7539" id="org.vorpal.blade.framework.config.RequestCondition" rx="2.5" ry="2.5" style="stroke:#181818;stroke-width:0.5;" width="359" x="361" y="7"/><ellipse cx="452.25" cy="26.1328" fill="#B4A7E5" rx="11" ry="11" style="stroke:#181818;stroke-width:1.0;"/><path d="M448.6777,22.3979 L448.6777,20.2397 L456.0571,20.2397 L456.0571,22.3979 L453.5918,22.3979 L453.5918,30.4746 L456.0571,30.4746 L456.0571,32.6328 L448.6777,32.6328 L448.6777,30.4746 L451.1431,30.4746 L451.1431,22.3979 Z " fill="#000000"/><text fill="#000000" font-family="sans-serif" font-size="14" font-style="italic" lengthAdjust="spacing" textLength="123" x="495.25" y="25.5352">RequestCondition</text><text fill="#000000" font-family="sans-serif" font-size="10" font-style="italic" lengthAdjust="spacing" textLength="168" x="472.75" y="38.1563">org.vorpal.blade.framework.config</text><line style="stroke:#181818;stroke-width:0.5;" x1="362" x2="719" y1="45.2656" y2="45.2656"/><ellipse cx="372" cy="59.0098" fill="#84BE84" rx="3" ry="3" style="stroke:#038048;stroke-width:1.0;"/><text fill="#000000" font-family="sans-serif" font-size="14" font-style="italic" lengthAdjust="spacing" textLength="333" x="381" y="62.8008">check(String, String, SipServletRequest): boolean</text></g></a><!--reverse link java.util.LinkedList to org.vorpal.blade.framework.config.ComparisonList--><g id="link_java.util.LinkedList_org.vorpal.blade.framework.config.ComparisonList"><path codeLine="16" d="M132.4994,68.6841 C157.0094,87.1041 181.12,105.22 213.29,129.39 " fill="none" id="java.util.LinkedList-backto-org.vorpal.blade.framework.config.ComparisonList" style="stroke:#181818;stroke-width:1.0;"/><polygon fill="none" points="118.11,57.87,128.8947,73.4806,136.1041,63.8876,118.11,57.87" style="stroke:#181818;stroke-width:1.0;"/></g><!--reverse link java.io.Serializable to org.vorpal.blade.framework.config.ComparisonList--><g id="link_java.io.Serializable_org.vorpal.blade.framework.config.ComparisonList"><path codeLine="17" d="M270.5,75.87 C270.5,94.29 270.5,105.22 270.5,129.39 " fill="none" id="java.io.Serializable-backto-org.vorpal.blade.framework.config.ComparisonList" style="stroke:#181818;stroke-width:1.0;stroke-dasharray:7.0,7.0;"/><polygon fill="none" points="270.5,57.87,264.5,75.87,276.5,75.87,270.5,57.87" style="stroke:#181818;stroke-width:1.0;"/></g><!--reverse link org.vorpal.blade.framework.config.RequestCondition to org.vorpal.blade.framework.config.ComparisonList--><g id="link_org.vorpal.blade.framework.config.RequestCondition_org.vorpal.blade.framework.config.ComparisonList"><path codeLine="18" d="M461.7317,78.1819 C426.0517,95.7519 396.96,110.09 357.83,129.36 " fill="none" id="org.vorpal.blade.framework.config.RequestCondition-backto-org.vorpal.blade.framework.config.ComparisonList" style="stroke:#181818;stroke-width:1.0;stroke-dasharray:7.0,7.0;"/><polygon fill="none" points="477.88,70.23,459.0811,72.7992,464.3824,83.5647,477.88,70.23" style="stroke:#181818;stroke-width:1.0;"/></g><text fill="#888888" font-family="sans-serif" font-size="10" lengthAdjust="spacing" textLength="176" x="268.5" y="232.6702">UMLDoclet 2.1.2, PlantUML 1.2024.3</text><!--SRC=[jLF1Rjim3BtlAuW20rgiaPTYfo3B3krbG0OC2xfBbmDjqmaNMVGa9jlQvjydQqMS6W66ffqF5lH4aNoFJm00WHGSrXGQB6X63NfKyU34qQju34ik2QXkz3TKJBOCVRGcNKg44rvO305Ene5lQJHyDxcKEcRa86xAGR-vXuEt4_4Bin7Ve3MvnP9CvMCJFyMlJ26kuiK9O81_Hfd71U3cvZ5WbbhR-HpkKdVjTnSKbOij309vHlkLV61nrn-lHc35BNQ1Rueb5QlJcNfsYtFOhTpCo6yiwHVwiQQWPoF8HIoXIrUtXuMOibjHsHFXEsxGh9Lj8hlRcIvutD6PH79BrIQCigoK8XZnM5YAGjGPkQozdNw1ik4mHMJOS89Ctg8feisVTVcJFXyu3EYNadTetwjVqtoUEB2BM1LjiSTZbaJZMymjzPcmT3nOp7xeY_JEaktdV7Bl3mEx55Uonfd_1plsIqJUVUY09J4F6WNHxJDDTyX1CBuV39xyaBfq_K6ExuqvBjqHwXrVhA3M0529jClrf-cLHCCfN9YXkJY7pnQTHXHUR_w-_zEpFm00]--></g></svg>