<?xml version="1.0" encoding="us-ascii" standalone="no"?><svg xmlns="http://www.w3.org/2000/svg" xmlns:xlink="http://www.w3.org/1999/xlink" contentStyleType="text/css" height="498px" preserveAspectRatio="none" style="width:357px;height:498px;background:#FFFFFF;" version="1.1" viewBox="0 0 357 498" width="357px" zoomAndPan="magnify"><defs/><g><!--class org.vorpal.blade.framework.config.Configuration--><a href="Configuration.html" target="_top" title="Configuration.html" xlink:actuate="onRequest" xlink:href="Configuration.html" xlink:show="new" xlink:title="Configuration.html" xlink:type="simple"><g id="elem_org.vorpal.blade.framework.config.Configuration"><rect codeLine="5" fill="#F1F1F1" height="367.543" id="org.vorpal.blade.framework.config.Configuration" rx="2.5" ry="2.5" style="stroke:#181818;stroke-width:0.5;" width="341" x="9" y="105.27"/><ellipse cx="91.25" cy="124.4028" fill="#ADD1B2" rx="11" ry="11" style="stroke:#181818;stroke-width:1.0;"/><path d="M93.7231,130.5459 Q93.1421,130.8447 92.5029,130.9941 Q91.8638,131.1435 91.1582,131.1435 Q88.6514,131.1435 87.3315,129.4917 Q86.0117,127.8398 86.0117,124.7187 Q86.0117,121.5893 87.3315,119.9375 Q88.6514,118.2856 91.1582,118.2856 Q91.8638,118.2856 92.5112,118.435 Q93.1587,118.5845 93.7231,118.8833 L93.7231,121.6059 Q93.0923,121.0249 92.4988,120.7551 Q91.9053,120.4853 91.2744,120.4853 Q89.9297,120.4853 89.2449,121.552 Q88.5601,122.6186 88.5601,124.7187 Q88.5601,126.8105 89.2449,127.8772 Q89.9297,128.9438 91.2744,128.9438 Q91.9053,128.9438 92.4988,128.6741 Q93.0923,128.4043 93.7231,127.8232 Z " fill="#000000"/><text fill="#000000" font-family="sans-serif" font-size="14" lengthAdjust="spacing" textLength="96" x="147.75" y="123.8052">Configuration</text><text fill="#000000" font-family="sans-serif" font-size="10" lengthAdjust="spacing" textLength="168" x="111.75" y="136.4262">org.vorpal.blade.framework.config</text><line style="stroke:#181818;stroke-width:0.5;" x1="10" x2="349" y1="143.5356" y2="143.5356"/><rect fill="none" height="6" style="stroke:#C82930;stroke-width:1.0;" width="6" x="17" y="154.2798"/><text fill="#000000" font-family="sans-serif" font-size="14" lengthAdjust="spacing" text-decoration="underline" textLength="152" x="29" y="161.0708">serialVersionUID: long</text><polygon fill="none" points="20,168.768,24,172.768,20,176.768,16,172.768" style="stroke:#B38D22;stroke-width:1.0;"/><text fill="#000000" font-family="sans-serif" font-size="14" lengthAdjust="spacing" textLength="163" x="29" y="177.5591">logging: LogParameters</text><polygon fill="none" points="20,185.2563,24,189.2563,20,193.2563,16,189.2563" style="stroke:#B38D22;stroke-width:1.0;"/><text fill="#000000" font-family="sans-serif" font-size="14" lengthAdjust="spacing" textLength="188" x="29" y="194.0473">session: SessionParameters</text><rect fill="none" height="6" style="stroke:#C82930;stroke-width:1.0;" width="6" x="17" y="203.7446"/><text fill="#000000" font-family="sans-serif" font-size="14" lengthAdjust="spacing" text-decoration="underline" textLength="168" x="29" y="210.5356">SECONDS_FACTOR: long</text><rect fill="none" height="6" style="stroke:#C82930;stroke-width:1.0;" width="6" x="17" y="220.2329"/><text fill="#000000" font-family="sans-serif" font-size="14" lengthAdjust="spacing" text-decoration="underline" textLength="164" x="29" y="227.0239">MINUTES_FACTOR: long</text><rect fill="none" height="6" style="stroke:#C82930;stroke-width:1.0;" width="6" x="17" y="236.7212"/><text fill="#000000" font-family="sans-serif" font-size="14" lengthAdjust="spacing" text-decoration="underline" textLength="151" x="29" y="243.5122">HOURS_FACTOR: long</text><rect fill="none" height="6" style="stroke:#C82930;stroke-width:1.0;" width="6" x="17" y="253.2095"/><text fill="#000000" font-family="sans-serif" font-size="14" lengthAdjust="spacing" text-decoration="underline" textLength="140" x="29" y="260.0005">DAYS_FACTOR: long</text><rect fill="none" height="6" style="stroke:#C82930;stroke-width:1.0;" width="6" x="17" y="269.6977"/><text fill="#000000" font-family="sans-serif" font-size="14" lengthAdjust="spacing" text-decoration="underline" textLength="120" x="29" y="276.4888">KB_FACTOR: long</text><rect fill="none" height="6" style="stroke:#C82930;stroke-width:1.0;" width="6" x="17" y="286.186"/><text fill="#000000" font-family="sans-serif" font-size="14" lengthAdjust="spacing" text-decoration="underline" textLength="124" x="29" y="292.977">KIB_FACTOR: long</text><rect fill="none" height="6" style="stroke:#C82930;stroke-width:1.0;" width="6" x="17" y="302.6743"/><text fill="#000000" font-family="sans-serif" font-size="14" lengthAdjust="spacing" text-decoration="underline" textLength="123" x="29" y="309.4653">MB_FACTOR: long</text><rect fill="none" height="6" style="stroke:#C82930;stroke-width:1.0;" width="6" x="17" y="319.1626"/><text fill="#000000" font-family="sans-serif" font-size="14" lengthAdjust="spacing" text-decoration="underline" textLength="127" x="29" y="325.9536">MIB_FACTOR: long</text><rect fill="none" height="6" style="stroke:#C82930;stroke-width:1.0;" width="6" x="17" y="335.6509"/><text fill="#000000" font-family="sans-serif" font-size="14" lengthAdjust="spacing" text-decoration="underline" textLength="121" x="29" y="342.4419">GB_FACTOR: long</text><rect fill="none" height="6" style="stroke:#C82930;stroke-width:1.0;" width="6" x="17" y="352.1391"/><text fill="#000000" font-family="sans-serif" font-size="14" lengthAdjust="spacing" text-decoration="underline" textLength="125" x="29" y="358.9302">GIB_FACTOR: long</text><line style="stroke:#181818;stroke-width:0.5;" x1="10" x2="349" y1="365.8833" y2="365.8833"/><ellipse cx="20" cy="379.6274" fill="#84BE84" rx="3" ry="3" style="stroke:#038048;stroke-width:1.0;"/><text fill="#000000" font-family="sans-serif" font-size="14" lengthAdjust="spacing" text-decoration="underline" textLength="268" x="29" y="383.4184">parseHRDurationAsSeconds(String): int</text><ellipse cx="20" cy="396.1157" fill="#84BE84" rx="3" ry="3" style="stroke:#038048;stroke-width:1.0;"/><text fill="#000000" font-family="sans-serif" font-size="14" lengthAdjust="spacing" text-decoration="underline" textLength="224" x="29" y="399.9067">parseHRNumberAsInt(String): int</text><ellipse cx="20" cy="412.604" fill="#84BE84" rx="3" ry="3" style="stroke:#038048;stroke-width:1.0;"/><text fill="#000000" font-family="sans-serif" font-size="14" lengthAdjust="spacing" textLength="198" x="29" y="416.395">getLogging(): LogParameters</text><ellipse cx="20" cy="429.0923" fill="#84BE84" rx="3" ry="3" style="stroke:#038048;stroke-width:1.0;"/><text fill="#000000" font-family="sans-serif" font-size="14" lengthAdjust="spacing" textLength="292" x="29" y="432.8833">setLogging(LogParameters): Configuration</text><ellipse cx="20" cy="445.5805" fill="#84BE84" rx="3" ry="3" style="stroke:#038048;stroke-width:1.0;"/><text fill="#000000" font-family="sans-serif" font-size="14" lengthAdjust="spacing" textLength="221" x="29" y="449.3716">getSession(): SessionParameters</text><ellipse cx="20" cy="462.0688" fill="#84BE84" rx="3" ry="3" style="stroke:#038048;stroke-width:1.0;"/><text fill="#000000" font-family="sans-serif" font-size="14" lengthAdjust="spacing" textLength="315" x="29" y="465.8598">setSession(SessionParameters): Configuration</text></g></a><!--class java.io.Serializable--><a href="https://docs.oracle.com/en/java/javase/11/docs/api/java.base/java/io/Serializable.html?is-external=true" target="_top" title="https://docs.oracle.com/en/java/javase/11/docs/api/java.base/java/io/Serializable.html?is-external=true" xlink:actuate="onRequest" xlink:href="https://docs.oracle.com/en/java/javase/11/docs/api/java.base/java/io/Serializable.html?is-external=true" xlink:show="new" xlink:title="https://docs.oracle.com/en/java/javase/11/docs/api/java.base/java/io/Serializable.html?is-external=true" xlink:type="simple"><g id="elem_java.io.Serializable"><rect codeLine="27" fill="#F1F1F1" height="38.2656" id="java.io.Serializable" rx="2.5" ry="2.5" style="stroke:#181818;stroke-width:0.5;" width="111" x="124" y="7"/><ellipse cx="139" cy="26.1328" fill="#B4A7E5" rx="11" ry="11" style="stroke:#181818;stroke-width:1.0;"/><path d="M135.4277,22.3979 L135.4277,20.2397 L142.8071,20.2397 L142.8071,22.3979 L140.3418,22.3979 L140.3418,30.4746 L142.8071,30.4746 L142.8071,32.6328 L135.4277,32.6328 L135.4277,30.4746 L137.8931,30.4746 L137.8931,22.3979 Z " fill="#000000"/><text fill="#000000" font-family="sans-serif" font-size="14" font-style="italic" lengthAdjust="spacing" textLength="79" x="153" y="25.5352">Serializable</text><text fill="#000000" font-family="sans-serif" font-size="10" font-style="italic" lengthAdjust="spacing" textLength="32" x="176.5" y="38.1563">java.io</text></g></a><!--reverse link java.io.Serializable to org.vorpal.blade.framework.config.Configuration--><g id="link_java.io.Serializable_org.vorpal.blade.framework.config.Configuration"><path codeLine="29" d="M179.5,63.48 C179.5,77.63 179.5,80.81 179.5,104.86 " fill="none" id="java.io.Serializable-backto-org.vorpal.blade.framework.config.Configuration" style="stroke:#181818;stroke-width:1.0;stroke-dasharray:7.0,7.0;"/><polygon fill="none" points="179.5,45.48,173.5,63.48,185.5,63.48,179.5,45.48" style="stroke:#181818;stroke-width:1.0;"/></g><text fill="#888888" font-family="sans-serif" font-size="10" lengthAdjust="spacing" textLength="176" x="83.5" y="488.4809">UMLDoclet 2.1.2, PlantUML 1.2024.3</text><!--SRC=[bPHlRzCm4CRVyobEGqYjoXmwxLKqXaepM4N_JCsAX4Q5tEIQ6Xmxyha5DlRTSPn2cz4g8YyIv_oxnvVu7WC045fGF4SgU88n5jnmgmqehV2PcuQLI14mB-nFM0gKAJsDvcXNseLzF96S24ukIDnZs3s_x6kr5DdQQGgjFgjj_DMbDXdRQ5DmoHQIfyYMnjNmNPjlBF4f9y096YbMquUxkzexMzbSpkVmu4ihhmUoRYPvX5D28xZyY8OSE1j48KYjih_WSwcpJAWiXA7ERdYvh7NiRfwGoimGucfmWDaj5b_r9-Ce_lAkrx-TJ9yijSD6W_7izgeHkvxCferGrFlKo7nusqWC6f5HCz4iyhwPQ1JfkDObl9v6sztlKOokIr9gnTQuhMo789GzdZTUvmiqFHeeUpYZaw4TLctHQXzhZ0xje1hXCchDMPFTDb4fUxoVIka_u3_KGVd7ofJk8z0idRttZ1dx_XVtV25npvTV-OOpeRtxjcEsZpgBhQmjA0o2L2V4jE69HEV6F40Lb1d-HXXqkvu8U25yY2tAg2U43lOrlKtV23h57wvEnULhQzOudrV57wpYuXTZ_tiwLESJbly2bbgNZzbe66bNluKprcLdB-56ScLT55vigfEXrVuD]--></g></svg>