<?xml version="1.0" encoding="us-ascii" standalone="no"?><svg xmlns="http://www.w3.org/2000/svg" xmlns:xlink="http://www.w3.org/1999/xlink" contentStyleType="text/css" height="308px" preserveAspectRatio="none" style="width:308px;height:308px;background:#FFFFFF;" version="1.1" viewBox="0 0 308 308" width="308px" zoomAndPan="magnify"><defs/><g><!--class org.vorpal.blade.framework.config.ConfigHashMap--><a href="ConfigHashMap.html" target="_top" title="ConfigHashMap.html" xlink:actuate="onRequest" xlink:href="ConfigHashMap.html" xlink:show="new" xlink:title="ConfigHashMap.html" xlink:type="simple"><g id="elem_org.vorpal.blade.framework.config.ConfigHashMap"><rect codeLine="5" fill="#F1F1F1" height="120.2188" id="org.vorpal.blade.framework.config.ConfigHashMap" rx="2.5" ry="2.5" style="stroke:#181818;stroke-width:0.5;" width="292" x="9" y="162.73"/><ellipse cx="66.75" cy="181.8628" fill="#ADD1B2" rx="11" ry="11" style="stroke:#181818;stroke-width:1.0;"/><path d="M69.2231,188.0059 Q68.6421,188.3047 68.0029,188.4541 Q67.3638,188.6035 66.6582,188.6035 Q64.1514,188.6035 62.8315,186.9517 Q61.5117,185.2998 61.5117,182.1787 Q61.5117,179.0493 62.8315,177.3975 Q64.1514,175.7456 66.6582,175.7456 Q67.3638,175.7456 68.0112,175.895 Q68.6587,176.0445 69.2231,176.3433 L69.2231,179.0659 Q68.5923,178.4849 67.9988,178.2151 Q67.4053,177.9453 66.7744,177.9453 Q65.4297,177.9453 64.7449,179.012 Q64.0601,180.0786 64.0601,182.1787 Q64.0601,184.2705 64.7449,185.3372 Q65.4297,186.4038 66.7744,186.4038 Q67.4053,186.4038 67.9988,186.1341 Q68.5923,185.8643 69.2231,185.2832 Z " fill="#000000"/><text fill="#000000" font-family="sans-serif" font-size="14" lengthAdjust="spacing" textLength="109" x="116.75" y="181.2652">ConfigHashMap</text><text fill="#000000" font-family="sans-serif" font-size="10" lengthAdjust="spacing" textLength="168" x="87.25" y="193.8863">org.vorpal.blade.framework.config</text><line style="stroke:#181818;stroke-width:0.5;" x1="10" x2="300" y1="200.9956" y2="200.9956"/><ellipse cx="20" cy="214.7398" fill="none" rx="3" ry="3" style="stroke:#038048;stroke-width:1.0;"/><text fill="#000000" font-family="sans-serif" font-size="14" lengthAdjust="spacing" textLength="250" x="29" y="218.5308">map: HashMap&lt;String, Translation&gt;</text><line style="stroke:#181818;stroke-width:0.5;" x1="10" x2="300" y1="225.4839" y2="225.4839"/><ellipse cx="20" cy="239.228" fill="#84BE84" rx="3" ry="3" style="stroke:#038048;stroke-width:1.0;"/><text fill="#000000" font-family="sans-serif" font-size="14" lengthAdjust="spacing" textLength="63" x="29" y="243.0191">size(): int</text><ellipse cx="20" cy="255.7163" fill="#84BE84" rx="3" ry="3" style="stroke:#038048;stroke-width:1.0;"/><text fill="#000000" font-family="sans-serif" font-size="14" lengthAdjust="spacing" textLength="266" x="29" y="259.5073">lookup(SipServletRequest): Translation</text><ellipse cx="20" cy="272.2046" fill="#84BE84" rx="3" ry="3" style="stroke:#038048;stroke-width:1.0;"/><text fill="#000000" font-family="sans-serif" font-size="14" lengthAdjust="spacing" textLength="257" x="29" y="275.9956">createTranslation(String): Translation</text></g></a><!--class org.vorpal.blade.framework.config.TranslationsMap--><a href="TranslationsMap.html" target="_top" title="TranslationsMap.html" xlink:actuate="onRequest" xlink:href="TranslationsMap.html" xlink:show="new" xlink:title="TranslationsMap.html" xlink:type="simple"><g id="elem_org.vorpal.blade.framework.config.TranslationsMap"><rect codeLine="12" fill="#F1F1F1" height="95.7305" id="org.vorpal.blade.framework.config.TranslationsMap" rx="2.5" ry="2.5" style="stroke:#181818;stroke-width:0.5;" width="292" x="9" y="7"/><ellipse cx="66.75" cy="26.1328" fill="#A9DCDF" rx="11" ry="11" style="stroke:#181818;stroke-width:1.0;"/><path d="M66.6133,21.481 L65.4595,26.5527 L67.7754,26.5527 Z M65.1191,19.2397 L68.1157,19.2397 L71.4609,31.6328 L69.0122,31.6328 L68.2485,28.5698 L64.9697,28.5698 L64.2227,31.6328 L61.7739,31.6328 Z " fill="#000000"/><text fill="#000000" font-family="sans-serif" font-size="14" font-style="italic" lengthAdjust="spacing" textLength="114" x="114.25" y="25.5352">TranslationsMap</text><text fill="#000000" font-family="sans-serif" font-size="10" font-style="italic" lengthAdjust="spacing" textLength="168" x="87.25" y="38.1563">org.vorpal.blade.framework.config</text><line style="stroke:#181818;stroke-width:0.5;" x1="10" x2="300" y1="45.2656" y2="45.2656"/><ellipse cx="20" cy="59.0098" fill="#84BE84" rx="3" ry="3" style="stroke:#038048;stroke-width:1.0;"/><text fill="#000000" font-family="sans-serif" font-size="14" font-style="italic" lengthAdjust="spacing" textLength="257" x="29" y="62.8008">createTranslation(String): Translation</text><polygon fill="#FFFF44" points="20,70.498,24,74.498,20,78.498,16,74.498" style="stroke:#B38D22;stroke-width:1.0;"/><text fill="#000000" font-family="sans-serif" font-size="14" font-style="italic" lengthAdjust="spacing" textLength="266" x="29" y="79.2891">lookup(SipServletRequest): Translation</text><ellipse cx="20" cy="91.9863" fill="#84BE84" rx="3" ry="3" style="stroke:#038048;stroke-width:1.0;"/><text fill="#000000" font-family="sans-serif" font-size="14" font-style="italic" lengthAdjust="spacing" textLength="63" x="29" y="95.7773">size(): int</text></g></a><!--reverse link org.vorpal.blade.framework.config.TranslationsMap to org.vorpal.blade.framework.config.ConfigHashMap--><g id="link_org.vorpal.blade.framework.config.TranslationsMap_org.vorpal.blade.framework.config.ConfigHashMap"><path codeLine="18" d="M155,120.98 C155,139.48 155,142.92 155,162.46 " fill="none" id="org.vorpal.blade.framework.config.TranslationsMap-backto-org.vorpal.blade.framework.config.ConfigHashMap" style="stroke:#181818;stroke-width:1.0;"/><polygon fill="none" points="155,102.98,149,120.98,161,120.98,155,102.98" style="stroke:#181818;stroke-width:1.0;"/></g><text fill="#888888" font-family="sans-serif" font-size="10" lengthAdjust="spacing" textLength="176" x="59" y="298.6167">UMLDoclet 2.1.2, PlantUML 1.2024.3</text><!--SRC=[jLB1JW8n4Btx5HEC2KHeX7WYX8iUF4XYN3qXXs6PtMtejhKTC8hykrqMmhAOc3tOIzCtRsRUl0u0W2S6ZJbvYp55PD4X6mVQQBe8OSZaWe1oov-GI58BNqTpuim4U8V72hs7riZBBnhsRyTtHYSoVK2VJT2-wJr-CpOk5MlZB2enLxWWaRYWuSEufOXtAIr03t-on4bzc4vFtYBZNCrciDb9AyvrZdO8-_0eOYTrseKNXzehP6dq-4WjfBOxGv2QZw0oPhcoxKZQYDnQ4J_J-uey1rwbof4VEqAcIgXTDls5loqTnBbdXp6VMLdX-_ynizOXs5b3pWtT7EHk6yrQIxriQ6krQ_sRzZOsdtRqtUirtRXovqapEKYCAQxNoUEzYSC8C11zCUZ2aqBD0OMhDJbVsDBv0G00]--></g></svg>