<?xml version="1.0" encoding="us-ascii" standalone="no"?><svg xmlns="http://www.w3.org/2000/svg" xmlns:xlink="http://www.w3.org/1999/xlink" contentStyleType="text/css" height="341px" preserveAspectRatio="none" style="width:350px;height:341px;background:#FFFFFF;" version="1.1" viewBox="0 0 350 341" width="350px" zoomAndPan="magnify"><defs/><g><!--class org.vorpal.blade.framework.config.ConfigPrefixMapApache--><a href="ConfigPrefixMapApache.html" target="_top" title="ConfigPrefixMapApache.html" xlink:actuate="onRequest" xlink:href="ConfigPrefixMapApache.html" xlink:show="new" xlink:title="ConfigPrefixMapApache.html" xlink:type="simple"><g id="elem_org.vorpal.blade.framework.config.ConfigPrefixMapApache"><rect codeLine="5" fill="#F1F1F1" height="153.1953" id="org.vorpal.blade.framework.config.ConfigPrefixMapApache" rx="2.5" ry="2.5" style="stroke:#181818;stroke-width:0.5;" width="334" x="9" y="162.73"/><ellipse cx="87.75" cy="181.8628" fill="#ADD1B2" rx="11" ry="11" style="stroke:#181818;stroke-width:1.0;"/><path d="M90.2231,188.0059 Q89.6421,188.3047 89.0029,188.4541 Q88.3638,188.6035 87.6582,188.6035 Q85.1514,188.6035 83.8315,186.9517 Q82.5117,185.2998 82.5117,182.1787 Q82.5117,179.0493 83.8315,177.3975 Q85.1514,175.7456 87.6582,175.7456 Q88.3638,175.7456 89.0112,175.895 Q89.6587,176.0445 90.2231,176.3433 L90.2231,179.0659 Q89.5923,178.4849 88.9988,178.2151 Q88.4053,177.9453 87.7744,177.9453 Q86.4297,177.9453 85.7449,179.012 Q85.0601,180.0786 85.0601,182.1787 Q85.0601,184.2705 85.7449,185.3372 Q86.4297,186.4038 87.7744,186.4038 Q88.4053,186.4038 88.9988,186.1341 Q89.5923,185.8643 90.2231,185.2832 Z " fill="#000000"/><text fill="#000000" font-family="sans-serif" font-size="14" lengthAdjust="spacing" textLength="166" x="109.25" y="181.2652">ConfigPrefixMapApache</text><text fill="#000000" font-family="sans-serif" font-size="10" lengthAdjust="spacing" textLength="168" x="108.25" y="193.8863">org.vorpal.blade.framework.config</text><line style="stroke:#181818;stroke-width:0.5;" x1="10" x2="342" y1="200.9956" y2="200.9956"/><polygon fill="none" points="20,210.7398,16,216.7398,24,216.7398" style="stroke:#1963A0;stroke-width:1.0;"/><text fill="#000000" font-family="sans-serif" font-size="14" lengthAdjust="spacing" textLength="124" x="29" y="218.5308">sipLogger: Logger</text><ellipse cx="20" cy="231.228" fill="none" rx="3" ry="3" style="stroke:#038048;stroke-width:1.0;"/><text fill="#000000" font-family="sans-serif" font-size="14" lengthAdjust="spacing" textLength="215" x="29" y="235.0191">map: PatriciaTrie&lt;Translation&gt;</text><line style="stroke:#181818;stroke-width:0.5;" x1="10" x2="342" y1="241.9722" y2="241.9722"/><ellipse cx="20" cy="255.7163" fill="#84BE84" rx="3" ry="3" style="stroke:#038048;stroke-width:1.0;"/><text fill="#000000" font-family="sans-serif" font-size="14" lengthAdjust="spacing" textLength="63" x="29" y="259.5073">size(): int</text><ellipse cx="20" cy="272.2046" fill="#84BE84" rx="3" ry="3" style="stroke:#038048;stroke-width:1.0;"/><text fill="#000000" font-family="sans-serif" font-size="14" lengthAdjust="spacing" textLength="257" x="29" y="275.9956">createTranslation(String): Translation</text><ellipse cx="20" cy="288.6929" fill="#84BE84" rx="3" ry="3" style="stroke:#038048;stroke-width:1.0;"/><text fill="#000000" font-family="sans-serif" font-size="14" lengthAdjust="spacing" textLength="266" x="29" y="292.4839">lookup(SipServletRequest): Translation</text><ellipse cx="20" cy="305.1812" fill="#84BE84" rx="3" ry="3" style="stroke:#038048;stroke-width:1.0;"/><text fill="#000000" font-family="sans-serif" font-size="14" lengthAdjust="spacing" textLength="308" x="29" y="308.9722">lookupWorks(SipServletRequest): Translation</text></g></a><!--class org.vorpal.blade.framework.config.TranslationsMap--><a href="TranslationsMap.html" target="_top" title="TranslationsMap.html" xlink:actuate="onRequest" xlink:href="TranslationsMap.html" xlink:show="new" xlink:title="TranslationsMap.html" xlink:type="simple"><g id="elem_org.vorpal.blade.framework.config.TranslationsMap"><rect codeLine="14" fill="#F1F1F1" height="95.7305" id="org.vorpal.blade.framework.config.TranslationsMap" rx="2.5" ry="2.5" style="stroke:#181818;stroke-width:0.5;" width="292" x="30" y="7"/><ellipse cx="87.75" cy="26.1328" fill="#A9DCDF" rx="11" ry="11" style="stroke:#181818;stroke-width:1.0;"/><path d="M87.6133,21.481 L86.4595,26.5527 L88.7754,26.5527 Z M86.1191,19.2397 L89.1157,19.2397 L92.4609,31.6328 L90.0122,31.6328 L89.2485,28.5698 L85.9697,28.5698 L85.2227,31.6328 L82.7739,31.6328 Z " fill="#000000"/><text fill="#000000" font-family="sans-serif" font-size="14" font-style="italic" lengthAdjust="spacing" textLength="114" x="135.25" y="25.5352">TranslationsMap</text><text fill="#000000" font-family="sans-serif" font-size="10" font-style="italic" lengthAdjust="spacing" textLength="168" x="108.25" y="38.1563">org.vorpal.blade.framework.config</text><line style="stroke:#181818;stroke-width:0.5;" x1="31" x2="321" y1="45.2656" y2="45.2656"/><ellipse cx="41" cy="59.0098" fill="#84BE84" rx="3" ry="3" style="stroke:#038048;stroke-width:1.0;"/><text fill="#000000" font-family="sans-serif" font-size="14" font-style="italic" lengthAdjust="spacing" textLength="257" x="50" y="62.8008">createTranslation(String): Translation</text><polygon fill="#FFFF44" points="41,70.498,45,74.498,41,78.498,37,74.498" style="stroke:#B38D22;stroke-width:1.0;"/><text fill="#000000" font-family="sans-serif" font-size="14" font-style="italic" lengthAdjust="spacing" textLength="266" x="50" y="79.2891">lookup(SipServletRequest): Translation</text><ellipse cx="41" cy="91.9863" fill="#84BE84" rx="3" ry="3" style="stroke:#038048;stroke-width:1.0;"/><text fill="#000000" font-family="sans-serif" font-size="14" font-style="italic" lengthAdjust="spacing" textLength="63" x="50" y="95.7773">size(): int</text></g></a><!--reverse link org.vorpal.blade.framework.config.TranslationsMap to org.vorpal.blade.framework.config.ConfigPrefixMapApache--><g id="link_org.vorpal.blade.framework.config.TranslationsMap_org.vorpal.blade.framework.config.ConfigPrefixMapApache"><path codeLine="20" d="M176,120.86 C176,139.02 176,142.27 176,162.48 " fill="none" id="org.vorpal.blade.framework.config.TranslationsMap-backto-org.vorpal.blade.framework.config.ConfigPrefixMapApache" style="stroke:#181818;stroke-width:1.0;"/><polygon fill="none" points="176,102.86,170,120.86,182,120.86,176,102.86" style="stroke:#181818;stroke-width:1.0;"/></g><text fill="#888888" font-family="sans-serif" font-size="10" lengthAdjust="spacing" textLength="176" x="80" y="331.5933">UMLDoclet 2.1.2, PlantUML 1.2024.3</text><!--SRC=[jLDDJm8n4BtxAoOQ4uYo4U9fGqYC7Y4XBiO3SXYMsTs6Rbkd1JyGVxjTGDaiHCN4NYPvywOpyruB0639WSAShC6O8ZB8w3I3qegEV1eoCI6WtBWNI0J9YQsYERbCUtY5nnAjXUEs5QyKDYyxrreb8kqp9UAvX-RADydeGMto5ntDQJ3NR506OuaJ2XBsipnfdWRnglGOqCAFh61l7nWEz-91vd8v6i5YDN9ntgqmNPscn26iurVgB4SJGXyTYrZWW0Mr1upAIdH2gywMLwnKguSWbDk2CHCwAXNK8d-HIZsl16xvKklfpDGYOIBYkIHtIuypikvx_hrNmlwgQBcs2SVMCSPknwyIttgz_i6fIWVlKGNPTMVnEUxoO45BfIS7QblkMlLs8-FXsxRV6es_FkVr1oFbY27HkWXtlUwDZlqgq0gQGUiS-XALyoYSpebj8K_z0m00]--></g></svg>