<?xml version="1.0" encoding="us-ascii" standalone="no"?><svg xmlns="http://www.w3.org/2000/svg" xmlns:xlink="http://www.w3.org/1999/xlink" contentStyleType="text/css" height="317px" preserveAspectRatio="none" style="width:403px;height:317px;background:#FFFFFF;" version="1.1" viewBox="0 0 403 317" width="403px" zoomAndPan="magnify"><defs/><g><!--class org.vorpal.blade.framework.config.RouterConfig--><a href="RouterConfig.html" target="_top" title="RouterConfig.html" xlink:actuate="onRequest" xlink:href="RouterConfig.html" xlink:show="new" xlink:title="RouterConfig.html" xlink:type="simple"><g id="elem_org.vorpal.blade.framework.config.RouterConfig"><rect codeLine="5" fill="#F1F1F1" height="186.1719" id="org.vorpal.blade.framework.config.RouterConfig" rx="2.5" ry="2.5" style="stroke:#181818;stroke-width:0.5;" width="389" x="7.5" y="105.27"/><ellipse cx="113.75" cy="124.4028" fill="#ADD1B2" rx="11" ry="11" style="stroke:#181818;stroke-width:1.0;"/><path d="M116.2231,130.5459 Q115.6421,130.8447 115.0029,130.9941 Q114.3638,131.1435 113.6582,131.1435 Q111.1514,131.1435 109.8315,129.4917 Q108.5117,127.8398 108.5117,124.7187 Q108.5117,121.5893 109.8315,119.9375 Q111.1514,118.2856 113.6582,118.2856 Q114.3638,118.2856 115.0112,118.435 Q115.6587,118.5845 116.2231,118.8833 L116.2231,121.6059 Q115.5923,121.0249 114.9988,120.7551 Q114.4053,120.4853 113.7744,120.4853 Q112.4297,120.4853 111.7449,121.552 Q111.0601,122.6186 111.0601,124.7187 Q111.0601,126.8105 111.7449,127.8772 Q112.4297,128.9438 113.7744,128.9438 Q114.4053,128.9438 114.9988,128.6741 Q115.5923,128.4043 116.2231,127.8232 Z " fill="#000000"/><text fill="#000000" font-family="sans-serif" font-size="14" lengthAdjust="spacing" textLength="92" x="172.25" y="123.8052">RouterConfig</text><text fill="#000000" font-family="sans-serif" font-size="10" lengthAdjust="spacing" textLength="168" x="134.25" y="136.4263">org.vorpal.blade.framework.config</text><line style="stroke:#181818;stroke-width:0.5;" x1="8.5" x2="395.5" y1="143.5356" y2="143.5356"/><rect fill="none" height="6" style="stroke:#C82930;stroke-width:1.0;" width="6" x="15.5" y="154.2798"/><text fill="#000000" font-family="sans-serif" font-size="14" lengthAdjust="spacing" text-decoration="underline" textLength="152" x="27.5" y="161.0708">serialVersionUID: long</text><ellipse cx="18.5" cy="173.768" fill="none" rx="3" ry="3" style="stroke:#038048;stroke-width:1.0;"/><text fill="#000000" font-family="sans-serif" font-size="14" lengthAdjust="spacing" textLength="214" x="27.5" y="177.5591">selectors: LinkedList&lt;Selector&gt;</text><ellipse cx="18.5" cy="190.2563" fill="none" rx="3" ry="3" style="stroke:#038048;stroke-width:1.0;"/><text fill="#000000" font-family="sans-serif" font-size="14" lengthAdjust="spacing" textLength="249" x="27.5" y="194.0473">maps: LinkedList&lt;TranslationsMap&gt;</text><ellipse cx="18.5" cy="206.7446" fill="none" rx="3" ry="3" style="stroke:#038048;stroke-width:1.0;"/><text fill="#000000" font-family="sans-serif" font-size="14" lengthAdjust="spacing" textLength="242" x="27.5" y="210.5356">plan: LinkedList&lt;TranslationsMap&gt;</text><ellipse cx="18.5" cy="223.2329" fill="none" rx="3" ry="3" style="stroke:#038048;stroke-width:1.0;"/><text fill="#000000" font-family="sans-serif" font-size="14" lengthAdjust="spacing" textLength="174" x="27.5" y="227.0239">defaultRoute: Translation</text><line style="stroke:#181818;stroke-width:0.5;" x1="8.5" x2="395.5" y1="233.977" y2="233.977"/><ellipse cx="18.5" cy="247.7212" fill="#84BE84" rx="3" ry="3" style="stroke:#038048;stroke-width:1.0;"/><text fill="#000000" font-family="sans-serif" font-size="14" lengthAdjust="spacing" text-decoration="underline" textLength="363" x="27.5" y="251.5122">applyParameters(Translation, SipServletRequest): URI</text><ellipse cx="18.5" cy="264.2095" fill="#84BE84" rx="3" ry="3" style="stroke:#038048;stroke-width:1.0;"/><text fill="#000000" font-family="sans-serif" font-size="14" lengthAdjust="spacing" textLength="323" x="27.5" y="268.0005">findTranslation(SipServletRequest): Translation</text><ellipse cx="18.5" cy="280.6977" fill="#84BE84" rx="3" ry="3" style="stroke:#038048;stroke-width:1.0;"/><text fill="#000000" font-family="sans-serif" font-size="14" lengthAdjust="spacing" textLength="230" x="27.5" y="284.4888">findRoute(SipServletRequest): URI</text></g></a><!--class org.vorpal.blade.framework.config.Configuration--><a href="Configuration.html" target="_top" title="Configuration.html" xlink:actuate="onRequest" xlink:href="Configuration.html" xlink:show="new" xlink:title="Configuration.html" xlink:type="simple"><g id="elem_org.vorpal.blade.framework.config.Configuration"><rect codeLine="16" fill="#F1F1F1" height="38.2656" id="org.vorpal.blade.framework.config.Configuration" rx="2.5" ry="2.5" style="stroke:#181818;stroke-width:0.5;" width="200" x="7" y="7"/><ellipse cx="22" cy="26.1328" fill="#ADD1B2" rx="11" ry="11" style="stroke:#181818;stroke-width:1.0;"/><path d="M24.4731,32.2759 Q23.8921,32.5747 23.2529,32.7241 Q22.6138,32.8735 21.9082,32.8735 Q19.4014,32.8735 18.0815,31.2217 Q16.7617,29.5698 16.7617,26.4487 Q16.7617,23.3193 18.0815,21.6675 Q19.4014,20.0156 21.9082,20.0156 Q22.6138,20.0156 23.2612,20.165 Q23.9087,20.3145 24.4731,20.6133 L24.4731,23.3359 Q23.8423,22.7549 23.2488,22.4851 Q22.6553,22.2153 22.0244,22.2153 Q20.6797,22.2153 19.9949,23.282 Q19.3101,24.3486 19.3101,26.4487 Q19.3101,28.5405 19.9949,29.6072 Q20.6797,30.6738 22.0244,30.6738 Q22.6553,30.6738 23.2488,30.4041 Q23.8423,30.1343 24.4731,29.5532 Z " fill="#000000"/><text fill="#000000" font-family="sans-serif" font-size="14" lengthAdjust="spacing" textLength="96" x="72" y="25.5352">Configuration</text><text fill="#000000" font-family="sans-serif" font-size="10" lengthAdjust="spacing" textLength="168" x="36" y="38.1563">org.vorpal.blade.framework.config</text></g></a><!--class java.io.Serializable--><a href="https://docs.oracle.com/en/java/javase/11/docs/api/java.base/java/io/Serializable.html?is-external=true" target="_top" title="https://docs.oracle.com/en/java/javase/11/docs/api/java.base/java/io/Serializable.html?is-external=true" xlink:actuate="onRequest" xlink:href="https://docs.oracle.com/en/java/javase/11/docs/api/java.base/java/io/Serializable.html?is-external=true" xlink:show="new" xlink:title="https://docs.oracle.com/en/java/javase/11/docs/api/java.base/java/io/Serializable.html?is-external=true" xlink:type="simple"><g id="elem_java.io.Serializable"><rect codeLine="17" fill="#F1F1F1" height="38.2656" id="java.io.Serializable" rx="2.5" ry="2.5" style="stroke:#181818;stroke-width:0.5;" width="111" x="242.5" y="7"/><ellipse cx="257.5" cy="26.1328" fill="#B4A7E5" rx="11" ry="11" style="stroke:#181818;stroke-width:1.0;"/><path d="M253.9277,22.3979 L253.9277,20.2397 L261.3071,20.2397 L261.3071,22.3979 L258.8418,22.3979 L258.8418,30.4746 L261.3071,30.4746 L261.3071,32.6328 L253.9277,32.6328 L253.9277,30.4746 L256.3931,30.4746 L256.3931,22.3979 Z " fill="#000000"/><text fill="#000000" font-family="sans-serif" font-size="14" font-style="italic" lengthAdjust="spacing" textLength="79" x="271.5" y="25.5352">Serializable</text><text fill="#000000" font-family="sans-serif" font-size="10" font-style="italic" lengthAdjust="spacing" textLength="32" x="295" y="38.1563">java.io</text></g></a><!--reverse link org.vorpal.blade.framework.config.Configuration to org.vorpal.blade.framework.config.RouterConfig--><g id="link_org.vorpal.blade.framework.config.Configuration_org.vorpal.blade.framework.config.RouterConfig"><path codeLine="19" d="M126.1213,61.3983 C134.3913,76.2183 137.89,82.48 150.53,105.13 " fill="none" id="org.vorpal.blade.framework.config.Configuration-backto-org.vorpal.blade.framework.config.RouterConfig" style="stroke:#181818;stroke-width:1.0;"/><polygon fill="none" points="117.35,45.68,120.8818,64.3221,131.3607,58.4745,117.35,45.68" style="stroke:#181818;stroke-width:1.0;"/></g><!--reverse link java.io.Serializable to org.vorpal.blade.framework.config.RouterConfig--><g id="link_java.io.Serializable_org.vorpal.blade.framework.config.RouterConfig"><path codeLine="20" d="M278.7042,61.3621 C270.3542,76.1821 266.79,82.48 254.01,105.13 " fill="none" id="java.io.Serializable-backto-org.vorpal.blade.framework.config.RouterConfig" style="stroke:#181818;stroke-width:1.0;stroke-dasharray:7.0,7.0;"/><polygon fill="none" points="287.54,45.68,273.4769,58.4169,283.9316,64.3074,287.54,45.68" style="stroke:#181818;stroke-width:1.0;"/></g><text fill="#888888" font-family="sans-serif" font-size="10" lengthAdjust="spacing" textLength="176" x="106.75" y="307.1098">UMLDoclet 2.1.2, PlantUML 1.2024.3</text><!--SRC=[jLDDRzim3BtlLn051gHe8o_5JaQM7TPBWHGeucMNhWV6fXEjigY9IhP-_VVAQh0gMx2j0-Q3RJq_ae_q8m20K02B7Od3cYfow36m1ykMNiNFiD8D0NKkt42hoJJoCzfHM7644ruR5863iUXRAaTl9pDU1_8VsBPw-TbkuJSJzakrOU_Gg8N1XbJheuHlxAzLdRW7W09_PAayFLnUvaUr2fsvkeAxfAk_xYHWqFK338MyHlE9l6YsyxFJ4WpRvG_YaP2XEav1IfXgUqtDL4iOLrjqyapiqEroFdgqOc8PjdAEBgCwW_OlgGsrk3OXTLD2nlkrbIDqpjnSO3-OsBeCClOnLDfLv3U6meo-had2OGdpsTbpfLRR9eiOx0lOLpy59ds3tzLus6-Afn-qzYddVt35JlveYvtprXT9cBPnPctqVIQkIjxGjxWmb6dxWXjKcfE2xRlAgR7CAeJeXg9ek1R57cj3KL5Na2twY7GJAaQZn2ZGwGIfHOycXkOYpvcaljSofEzHfqNpBlWrHUr9_4ldCBuV3b-uKgdEtcx7zqhzIxAQ-f53ozm_vkVJKuvZ2d2YHkha62xYaeI8mklDqt8E3Xy1]--></g></svg>