<?xml version="1.0" encoding="us-ascii" standalone="no"?><svg xmlns="http://www.w3.org/2000/svg" xmlns:xlink="http://www.w3.org/1999/xlink" contentStyleType="text/css" height="354px" preserveAspectRatio="none" style="width:272px;height:354px;background:#FFFFFF;" version="1.1" viewBox="0 0 272 354" width="272px" zoomAndPan="magnify"><defs/><g><!--cluster org.vorpal.blade.framework.config--><g id="cluster_org.vorpal.blade.framework.config"><path d="M8.5,6 L252.5,6 A3.75,3.75 0 0 1 255,8.5 L262,28.4883 L262.5,28.4883 A2.5,2.5 0 0 1 265,30.9883 L265,325.92 A2.5,2.5 0 0 1 262.5,328.42 L8.5,328.42 A2.5,2.5 0 0 1 6,325.92 L6,8.5 A2.5,2.5 0 0 1 8.5,6 " fill="none" style="stroke:#000000;stroke-width:1.5;"/><line style="stroke:#000000;stroke-width:1.5;" x1="6" x2="262" y1="28.4883" y2="28.4883"/><text fill="#000000" font-family="sans-serif" font-size="14" font-weight="bold" lengthAdjust="spacing" textLength="243" x="10" y="21.5352">org.vorpal.blade.framework.config</text></g><!--class SettingsMXBean--><a href="SettingsMXBean.html" target="_top" title="SettingsMXBean.html" xlink:actuate="onRequest" xlink:href="SettingsMXBean.html" xlink:show="new" xlink:title="SettingsMXBean.html" xlink:type="simple"><g id="elem_SettingsMXBean"><rect codeLine="5" fill="#F1F1F1" height="113.9531" id="SettingsMXBean" rx="2.5" ry="2.5" style="stroke:#181818;stroke-width:0.5;" width="187" x="41.5" y="41"/><ellipse cx="77.2" cy="57" fill="#B4A7E5" rx="11" ry="11" style="stroke:#181818;stroke-width:1.0;"/><path d="M73.6277,53.2651 L73.6277,51.1069 L81.0071,51.1069 L81.0071,53.2651 L78.5418,53.2651 L78.5418,61.3418 L81.0071,61.3418 L81.0071,63.5 L73.6277,63.5 L73.6277,61.3418 L76.0931,61.3418 L76.0931,53.2651 Z " fill="#000000"/><text fill="#000000" font-family="sans-serif" font-size="14" font-style="italic" lengthAdjust="spacing" textLength="109" x="95.8" y="62.291">SettingsMXBean</text><line style="stroke:#181818;stroke-width:0.5;" x1="42.5" x2="227.5" y1="73" y2="73"/><line style="stroke:#181818;stroke-width:0.5;" x1="42.5" x2="227.5" y1="81" y2="81"/><ellipse cx="52.5" cy="94.7441" fill="#84BE84" rx="3" ry="3" style="stroke:#038048;stroke-width:1.0;"/><text fill="#000000" font-family="sans-serif" font-size="14" font-style="italic" lengthAdjust="spacing" textLength="161" x="61.5" y="98.5352">open(ConfigType): void</text><ellipse cx="52.5" cy="111.2324" fill="#84BE84" rx="3" ry="3" style="stroke:#038048;stroke-width:1.0;"/><text fill="#000000" font-family="sans-serif" font-size="14" font-style="italic" lengthAdjust="spacing" textLength="122" x="61.5" y="115.0234">write(String): void</text><ellipse cx="52.5" cy="127.7207" fill="#84BE84" rx="3" ry="3" style="stroke:#038048;stroke-width:1.0;"/><text fill="#000000" font-family="sans-serif" font-size="14" font-style="italic" lengthAdjust="spacing" textLength="82" x="61.5" y="131.5117">close(): void</text><ellipse cx="52.5" cy="144.209" fill="#84BE84" rx="3" ry="3" style="stroke:#038048;stroke-width:1.0;"/><text fill="#000000" font-family="sans-serif" font-size="14" font-style="italic" lengthAdjust="spacing" textLength="91" x="61.5" y="148">reload(): void</text></g></a><!--class SettingsMXBean.ConfigType--><a href="SettingsMXBean.ConfigType.html" target="_top" title="SettingsMXBean.ConfigType.html" xlink:actuate="onRequest" xlink:href="SettingsMXBean.ConfigType.html" xlink:show="new" xlink:title="SettingsMXBean.ConfigType.html" xlink:type="simple"><g id="elem_SettingsMXBean.ConfigType"><rect codeLine="12" fill="#F1F1F1" height="97.4648" id="SettingsMXBean.ConfigType" rx="2.5" ry="2.5" style="stroke:#181818;stroke-width:0.5;" width="224" x="23" y="214.96"/><ellipse cx="38" cy="230.96" fill="#EB937F" rx="11" ry="11" style="stroke:#181818;stroke-width:1.0;"/><path d="M41.6143,237.46 L33.8945,237.46 L33.8945,225.0669 L41.6143,225.0669 L41.6143,227.2251 L36.3433,227.2251 L36.3433,229.898 L41.1162,229.898 L41.1162,232.0562 L36.3433,232.0562 L36.3433,235.3018 L41.6143,235.3018 Z " fill="#000000"/><text fill="#000000" font-family="sans-serif" font-size="14" lengthAdjust="spacing" textLength="192" x="52" y="236.251">SettingsMXBean.ConfigType</text><line style="stroke:#181818;stroke-width:0.5;" x1="24" x2="246" y1="246.96" y2="246.96"/><ellipse cx="34" cy="260.7041" fill="none" rx="3" ry="3" style="stroke:#038048;stroke-width:1.0;"/><text fill="#000000" font-family="sans-serif" font-size="14" lengthAdjust="spacing" text-decoration="underline" textLength="57" x="43" y="264.4952">DOMAIN</text><ellipse cx="34" cy="277.1924" fill="none" rx="3" ry="3" style="stroke:#038048;stroke-width:1.0;"/><text fill="#000000" font-family="sans-serif" font-size="14" lengthAdjust="spacing" text-decoration="underline" textLength="61" x="43" y="280.9834">CLUSTER</text><ellipse cx="34" cy="293.6807" fill="none" rx="3" ry="3" style="stroke:#038048;stroke-width:1.0;"/><text fill="#000000" font-family="sans-serif" font-size="14" lengthAdjust="spacing" text-decoration="underline" textLength="51" x="43" y="297.4717">SERVER</text><line style="stroke:#181818;stroke-width:0.5;" x1="24" x2="246" y1="304.4248" y2="304.4248"/></g></a><!--reverse link SettingsMXBean to SettingsMXBean.ConfigType--><g id="link_SettingsMXBean_SettingsMXBean.ConfigType"><path codeLine="20" d="M135,171.32 C135,190.65 135,196.09 135,214.69 " fill="none" id="SettingsMXBean-backto-SettingsMXBean.ConfigType" style="stroke:#181818;stroke-width:1.0;"/><ellipse cx="135" cy="163.32" fill="#FFFFFF" rx="8" ry="8" style="stroke:#181818;stroke-width:1.0;"/><line style="stroke:#181818;stroke-width:1.0;" x1="135" x2="135" y1="171.32" y2="155.32"/><line style="stroke:#181818;stroke-width:1.0;" x1="127" x2="143" y1="163.32" y2="163.32"/></g><text fill="#888888" font-family="sans-serif" font-size="10" lengthAdjust="spacing" textLength="176" x="41" y="344.088">UMLDoclet 2.1.2, PlantUML 1.2024.3</text><!--SRC=[bLB1QW913Btx5RaKLgm3zRYtLZqKtBQuMWhY8OxPxU3iP9bDLuhuxnsje5MMfO4Go7lXvP4005Ga8KlqAEmXZZkTq8GIzGPp0lQvgjcNQDNAuffKvh6WBVkDqkmoayFkT-0GnWdv33L1IYB6vLNoyKJeOB7usr2VKjZbCip2HUnmLOb7BNleSKak6XuLPjybTMEesQmRwLjlXA9KVD1eushB5KLjB4-MSNr3sv_TaligheogyyQtdizOW_rAK8mEsgFNvF7vfG4SJkRfR3njGDFnzFq2FArxAgt7ZEEhm_Nw_VzFNJWzocew_0Lap8SoJoOZrZPytK0zgC4zl5bq4hfmLvEl3Bke-mC0]--></g></svg>