<?xml version="1.0" encoding="us-ascii" standalone="no"?><svg xmlns="http://www.w3.org/2000/svg" xmlns:xlink="http://www.w3.org/1999/xlink" contentStyleType="text/css" height="317px" preserveAspectRatio="none" style="width:340px;height:317px;background:#FFFFFF;" version="1.1" viewBox="0 0 340 317" width="340px" zoomAndPan="magnify"><defs/><g><!--class org.vorpal.blade.services.crud.Create--><a href="Create.html" target="_top" title="Create.html" xlink:actuate="onRequest" xlink:href="Create.html" xlink:show="new" xlink:title="Create.html" xlink:type="simple"><g id="elem_org.vorpal.blade.services.crud.Create"><rect codeLine="5" fill="#F1F1F1" height="186.1719" id="org.vorpal.blade.services.crud.Create" rx="2.5" ry="2.5" style="stroke:#181818;stroke-width:0.5;" width="326" x="7" y="105.27"/><ellipse cx="93.25" cy="124.4028" fill="#ADD1B2" rx="11" ry="11" style="stroke:#181818;stroke-width:1.0;"/><path d="M95.7231,130.5459 Q95.1421,130.8447 94.5029,130.9941 Q93.8638,131.1435 93.1582,131.1435 Q90.6514,131.1435 89.3315,129.4917 Q88.0117,127.8398 88.0117,124.7187 Q88.0117,121.5893 89.3315,119.9375 Q90.6514,118.2856 93.1582,118.2856 Q93.8638,118.2856 94.5112,118.435 Q95.1587,118.5845 95.7231,118.8833 L95.7231,121.6059 Q95.0923,121.0249 94.4988,120.7551 Q93.9053,120.4853 93.2744,120.4853 Q91.9297,120.4853 91.2449,121.552 Q90.5601,122.6186 90.5601,124.7187 Q90.5601,126.8105 91.2449,127.8772 Q91.9297,128.9438 93.2744,128.9438 Q93.9053,128.9438 94.4988,128.6741 Q95.0923,128.4043 95.7231,127.8232 Z " fill="#000000"/><text fill="#000000" font-family="sans-serif" font-size="14" lengthAdjust="spacing" textLength="45" x="163.75" y="123.8052">Create</text><text fill="#000000" font-family="sans-serif" font-size="10" lengthAdjust="spacing" textLength="145" x="113.75" y="136.4263">org.vorpal.blade.services.crud</text><line style="stroke:#181818;stroke-width:0.5;" x1="8" x2="332" y1="143.5356" y2="143.5356"/><ellipse cx="18" cy="157.2798" fill="none" rx="3" ry="3" style="stroke:#038048;stroke-width:1.0;"/><text fill="#000000" font-family="sans-serif" font-size="14" lengthAdjust="spacing" textLength="62" x="27" y="161.0708">id: String</text><ellipse cx="18" cy="173.768" fill="none" rx="3" ry="3" style="stroke:#038048;stroke-width:1.0;"/><text fill="#000000" font-family="sans-serif" font-size="14" lengthAdjust="spacing" textLength="108" x="27" y="177.5591">attribute: String</text><ellipse cx="18" cy="190.2563" fill="none" rx="3" ry="3" style="stroke:#038048;stroke-width:1.0;"/><text fill="#000000" font-family="sans-serif" font-size="14" lengthAdjust="spacing" textLength="85" x="27" y="194.0473">value: String</text><line style="stroke:#181818;stroke-width:0.5;" x1="8" x2="332" y1="201.0005" y2="201.0005"/><ellipse cx="18" cy="214.7446" fill="#84BE84" rx="3" ry="3" style="stroke:#038048;stroke-width:1.0;"/><text fill="#000000" font-family="sans-serif" font-size="14" lengthAdjust="spacing" textLength="55" x="27" y="218.5356">Create()</text><ellipse cx="18" cy="231.2329" fill="#84BE84" rx="3" ry="3" style="stroke:#038048;stroke-width:1.0;"/><text fill="#000000" font-family="sans-serif" font-size="14" lengthAdjust="spacing" textLength="145" x="27" y="235.0239">Create(String, String)</text><ellipse cx="18" cy="247.7212" fill="#84BE84" rx="3" ry="3" style="stroke:#038048;stroke-width:1.0;"/><text fill="#000000" font-family="sans-serif" font-size="14" lengthAdjust="spacing" text-decoration="underline" textLength="249" x="27" y="251.5122">resolveVariables(Map, String): String</text><ellipse cx="18" cy="264.2095" fill="#84BE84" rx="3" ry="3" style="stroke:#038048;stroke-width:1.0;"/><text fill="#000000" font-family="sans-serif" font-size="14" lengthAdjust="spacing" textLength="300" x="27" y="268.0005">process(Map, SipServletMessage, Map): void</text><ellipse cx="18" cy="280.6977" fill="#84BE84" rx="3" ry="3" style="stroke:#038048;stroke-width:1.0;"/><text fill="#000000" font-family="sans-serif" font-size="14" lengthAdjust="spacing" text-decoration="underline" textLength="132" x="27" y="284.4888">main(String[]): void</text></g></a><!--class java.io.Serializable--><a href="https://docs.oracle.com/en/java/javase/11/docs/api/java.base/java/io/Serializable.html?is-external=true" target="_top" title="https://docs.oracle.com/en/java/javase/11/docs/api/java.base/java/io/Serializable.html?is-external=true" xlink:actuate="onRequest" xlink:href="https://docs.oracle.com/en/java/javase/11/docs/api/java.base/java/io/Serializable.html?is-external=true" xlink:show="new" xlink:title="https://docs.oracle.com/en/java/javase/11/docs/api/java.base/java/io/Serializable.html?is-external=true" xlink:type="simple"><g id="elem_java.io.Serializable"><rect codeLine="16" fill="#F1F1F1" height="38.2656" id="java.io.Serializable" rx="2.5" ry="2.5" style="stroke:#181818;stroke-width:0.5;" width="111" x="114.5" y="7"/><ellipse cx="129.5" cy="26.1328" fill="#B4A7E5" rx="11" ry="11" style="stroke:#181818;stroke-width:1.0;"/><path d="M125.9277,22.3979 L125.9277,20.2397 L133.3071,20.2397 L133.3071,22.3979 L130.8418,22.3979 L130.8418,30.4746 L133.3071,30.4746 L133.3071,32.6328 L125.9277,32.6328 L125.9277,30.4746 L128.3931,30.4746 L128.3931,22.3979 Z " fill="#000000"/><text fill="#000000" font-family="sans-serif" font-size="14" font-style="italic" lengthAdjust="spacing" textLength="79" x="143.5" y="25.5352">Serializable</text><text fill="#000000" font-family="sans-serif" font-size="10" font-style="italic" lengthAdjust="spacing" textLength="32" x="167" y="38.1563">java.io</text></g></a><!--reverse link java.io.Serializable to org.vorpal.blade.services.crud.Create--><g id="link_java.io.Serializable_org.vorpal.blade.services.crud.Create"><path codeLine="18" d="M170,63.68 C170,78.5 170,82.48 170,105.13 " fill="none" id="java.io.Serializable-backto-org.vorpal.blade.services.crud.Create" style="stroke:#181818;stroke-width:1.0;stroke-dasharray:7.0,7.0;"/><polygon fill="none" points="170,45.68,164,63.68,176,63.68,170,45.68" style="stroke:#181818;stroke-width:1.0;"/></g><text fill="#888888" font-family="sans-serif" font-size="10" lengthAdjust="spacing" textLength="176" x="75" y="307.1098">UMLDoclet 2.1.2, PlantUML 1.2024.3</text><!--SRC=[ZP9DRzim38Rl_HL4WG4fcibBqLFGTOVjk003WlQI-S3OJC915WMHCTQl_pxPJbjZ2ORv80iFNvAlH040A1a4R4WZLhIaY0bD4WG9T9R3iEEQW9fe3x1XyhN-JHkodMJSyygZAfpVA3_IV7Pz-pKH6lqC1_3fLjBMjP8YUhVsM9DJIYrNfAvA-_eSKE7V4ZUKXDLgsBYTDRuiuQdlttsNNCzXQOd3zfsXPR3U6ns7MlJx4tWeFxau8eDmUaXuZp-feN7r0fU9L7nBzvWOrvvqii3ufZ_k59FaqxsgE2xpUJtP8ZFSqXGoprcjS7sYLuCS3fPMvLZsCao4Wr7QvDcEff8RC7f-xCoDPlCBMtGi_H0EUpUMvZlVcKMT5qKjbJf9M7bobJG5XQBBw1UbOZRh5GL6xf5RTxHNi1JZcltulh1-fD_PPq3_sTAUod8mVzB5pRDp__T8XYT9tGt0HgJxtIs-VvFisk3ApTpL57vu39OfV6WfAKkONFm1]--></g></svg>