<?xml version="1.0" encoding="us-ascii" standalone="no"?><svg xmlns="http://www.w3.org/2000/svg" xmlns:xlink="http://www.w3.org/1999/xlink" contentStyleType="text/css" height="325px" preserveAspectRatio="none" style="width:262px;height:325px;background:#FFFFFF;" version="1.1" viewBox="0 0 262 325" width="262px" zoomAndPan="magnify"><defs/><g><!--class org.vorpal.blade.framework.b2bua.Cancel--><a href="Cancel.html" target="_top" title="Cancel.html" xlink:actuate="onRequest" xlink:href="Cancel.html" xlink:show="new" xlink:title="Cancel.html" xlink:type="simple"><g id="elem_org.vorpal.blade.framework.b2bua.Cancel"><rect codeLine="5" fill="#F1F1F1" height="169.6836" id="org.vorpal.blade.framework.b2bua.Cancel" rx="2.5" ry="2.5" style="stroke:#181818;stroke-width:0.5;" width="248" x="7" y="129.76"/><ellipse cx="43.6" cy="148.8928" fill="#ADD1B2" rx="11" ry="11" style="stroke:#181818;stroke-width:1.0;"/><path d="M46.0731,155.0359 Q45.4921,155.3347 44.8529,155.4841 Q44.2138,155.6335 43.5082,155.6335 Q41.0014,155.6335 39.6815,153.9817 Q38.3617,152.3298 38.3617,149.2087 Q38.3617,146.0793 39.6815,144.4275 Q41.0014,142.7756 43.5082,142.7756 Q44.2138,142.7756 44.8612,142.925 Q45.5087,143.0745 46.0731,143.3733 L46.0731,146.0959 Q45.4423,145.5149 44.8488,145.2451 Q44.2553,144.9753 43.6244,144.9753 Q42.2797,144.9753 41.5949,146.042 Q40.9101,147.1086 40.9101,149.2087 Q40.9101,151.3005 41.5949,152.3672 Q42.2797,153.4338 43.6244,153.4338 Q44.2553,153.4338 44.8488,153.1641 Q45.4423,152.8943 46.0731,152.3132 Z " fill="#000000"/><text fill="#000000" font-family="sans-serif" font-size="14" lengthAdjust="spacing" textLength="46" x="123.4" y="148.2952">Cancel</text><text fill="#000000" font-family="sans-serif" font-size="10" lengthAdjust="spacing" textLength="168" x="62.4" y="160.9163">org.vorpal.blade.framework.b2bua</text><line style="stroke:#181818;stroke-width:0.5;" x1="8" x2="254" y1="168.0256" y2="168.0256"/><rect fill="none" height="6" style="stroke:#C82930;stroke-width:1.0;" width="6" x="15" y="178.7698"/><text fill="#000000" font-family="sans-serif" font-size="14" lengthAdjust="spacing" text-decoration="underline" textLength="152" x="27" y="185.5608">serialVersionUID: long</text><rect fill="none" height="6" style="stroke:#C82930;stroke-width:1.0;" width="6" x="15" y="195.258"/><text fill="#000000" font-family="sans-serif" font-size="14" lengthAdjust="spacing" textLength="207" x="27" y="202.0491">aliceCancel: SipServletRequest</text><rect fill="none" height="6" style="stroke:#C82930;stroke-width:1.0;" width="6" x="15" y="211.7463"/><text fill="#000000" font-family="sans-serif" font-size="14" lengthAdjust="spacing" textLength="195" x="27" y="218.5373">b2buaListener: B2buaServlet</text><rect fill="none" height="6" style="stroke:#C82930;stroke-width:1.0;" width="6" x="15" y="228.2346"/><text fill="#000000" font-family="sans-serif" font-size="14" lengthAdjust="spacing" textLength="194" x="27" y="235.0256">bobInvite: SipServletRequest</text><line style="stroke:#181818;stroke-width:0.5;" x1="8" x2="254" y1="241.9788" y2="241.9788"/><ellipse cx="18" cy="255.7229" fill="#84BE84" rx="3" ry="3" style="stroke:#038048;stroke-width:1.0;"/><text fill="#000000" font-family="sans-serif" font-size="14" lengthAdjust="spacing" textLength="56" x="27" y="259.5139">Cancel()</text><ellipse cx="18" cy="272.2112" fill="#84BE84" rx="3" ry="3" style="stroke:#038048;stroke-width:1.0;"/><text fill="#000000" font-family="sans-serif" font-size="14" lengthAdjust="spacing" textLength="145" x="27" y="276.0022">Cancel(B2buaServlet)</text><ellipse cx="18" cy="288.6995" fill="#84BE84" rx="3" ry="3" style="stroke:#038048;stroke-width:1.0;"/><text fill="#000000" font-family="sans-serif" font-size="14" lengthAdjust="spacing" textLength="222" x="27" y="292.4905">process(SipServletRequest): void</text></g></a><!--class org.vorpal.blade.framework.callflow.Callflow--><a href="../callflow/Callflow.html" target="_top" title="../callflow/Callflow.html" xlink:actuate="onRequest" xlink:href="../callflow/Callflow.html" xlink:show="new" xlink:title="../callflow/Callflow.html" xlink:type="simple"><g id="elem_org.vorpal.blade.framework.callflow.Callflow"><rect codeLine="15" fill="#F1F1F1" height="62.7539" id="org.vorpal.blade.framework.callflow.Callflow" rx="2.5" ry="2.5" style="stroke:#181818;stroke-width:0.5;" width="248" x="7" y="7"/><ellipse cx="40" cy="26.1328" fill="#A9DCDF" rx="11" ry="11" style="stroke:#181818;stroke-width:1.0;"/><path d="M39.8633,21.481 L38.7095,26.5527 L41.0254,26.5527 Z M38.3691,19.2397 L41.3657,19.2397 L44.7109,31.6328 L42.2622,31.6328 L41.4985,28.5698 L38.2197,28.5698 L37.4727,31.6328 L35.0239,31.6328 Z " fill="#000000"/><text fill="#000000" font-family="sans-serif" font-size="14" font-style="italic" lengthAdjust="spacing" textLength="55" x="118.5" y="25.5352">Callflow</text><text fill="#000000" font-family="sans-serif" font-size="10" font-style="italic" lengthAdjust="spacing" textLength="176" x="58" y="38.1563">org.vorpal.blade.framework.callflow</text><line style="stroke:#181818;stroke-width:0.5;" x1="8" x2="254" y1="45.2656" y2="45.2656"/><ellipse cx="18" cy="59.0098" fill="#84BE84" rx="3" ry="3" style="stroke:#038048;stroke-width:1.0;"/><text fill="#000000" font-family="sans-serif" font-size="14" font-style="italic" lengthAdjust="spacing" textLength="222" x="27" y="62.8008">process(SipServletRequest): void</text></g></a><!--reverse link org.vorpal.blade.framework.callflow.Callflow to org.vorpal.blade.framework.b2bua.Cancel--><g id="link_org.vorpal.blade.framework.callflow.Callflow_org.vorpal.blade.framework.b2bua.Cancel"><path codeLine="19" d="M131,88.13 C131,104.73 131,108.13 131,129.3 " fill="none" id="org.vorpal.blade.framework.callflow.Callflow-backto-org.vorpal.blade.framework.b2bua.Cancel" style="stroke:#181818;stroke-width:1.0;"/><polygon fill="none" points="131,70.13,125,88.13,137,88.13,131,70.13" style="stroke:#181818;stroke-width:1.0;"/></g><text fill="#888888" font-family="sans-serif" font-size="10" lengthAdjust="spacing" textLength="176" x="36" y="315.1116">UMLDoclet 2.1.2, PlantUML 1.2024.3</text><!--SRC=[bP91Jm8n48Nl_eg9YGb4jmZnj24Sb0i99aQ25-Gmsvs5ncwxTieIHVwxoowhH8X0BsrVlxoPvWq009C7WobnXf96bA53RnqOQ-YYU8QvYWaepVm798fqp7_LbFpS5dAfIutCSDbbzKbX-wxtW4QIVZLRuRPdtKparcMeHQGn9f6uelZIkZSHTQ85NW8o78D4PGkJINKGSv_gwHHMPG-RjMAFNiar14nEeNuXnygQyQ0VWhPczWC6g9MaoYQ4aSf6v79D_fdU5yJ-boiB3nLxCkH2kDzSj-mEPAE1oPMd_wokgsgDvfwoQxhpcZahYRcnPzaC8RSgBibr5G16x1rAVo09hHDjbwTb8RVqiJXgJjJsHIP2j6gvLSi74gexNP_tmREQwNu5mQdJLCql6KyE4cits_XnsBUoQ0SweYqwD_2aqVX2XQky6gX6yni0]--></g></svg>