<?xml version="1.0" encoding="us-ascii" standalone="no"?><svg xmlns="http://www.w3.org/2000/svg" xmlns:xlink="http://www.w3.org/1999/xlink" contentStyleType="text/css" height="308px" preserveAspectRatio="none" style="width:335px;height:308px;background:#FFFFFF;" version="1.1" viewBox="0 0 335 308" width="335px" zoomAndPan="magnify"><defs/><g><!--class org.vorpal.blade.framework.config.ConfigLinkedHashMap--><a href="ConfigLinkedHashMap.html" target="_top" title="ConfigLinkedHashMap.html" xlink:actuate="onRequest" xlink:href="ConfigLinkedHashMap.html" xlink:show="new" xlink:title="ConfigLinkedHashMap.html" xlink:type="simple"><g id="elem_org.vorpal.blade.framework.config.ConfigLinkedHashMap"><rect codeLine="5" fill="#F1F1F1" height="120.2188" id="org.vorpal.blade.framework.config.ConfigLinkedHashMap" rx="2.5" ry="2.5" style="stroke:#181818;stroke-width:0.5;" width="321" x="7" y="162.73"/><ellipse cx="79.25" cy="181.8628" fill="#ADD1B2" rx="11" ry="11" style="stroke:#181818;stroke-width:1.0;"/><path d="M81.7231,188.0059 Q81.1421,188.3047 80.5029,188.4541 Q79.8638,188.6035 79.1582,188.6035 Q76.6514,188.6035 75.3315,186.9517 Q74.0117,185.2998 74.0117,182.1787 Q74.0117,179.0493 75.3315,177.3975 Q76.6514,175.7456 79.1582,175.7456 Q79.8638,175.7456 80.5112,175.895 Q81.1587,176.0445 81.7231,176.3433 L81.7231,179.0659 Q81.0923,178.4849 80.4988,178.2151 Q79.9053,177.9453 79.2744,177.9453 Q77.9297,177.9453 77.2449,179.012 Q76.5601,180.0786 76.5601,182.1787 Q76.5601,184.2705 77.2449,185.3372 Q77.9297,186.4038 79.2744,186.4038 Q79.9053,186.4038 80.4988,186.1341 Q81.0923,185.8643 81.7231,185.2832 Z " fill="#000000"/><text fill="#000000" font-family="sans-serif" font-size="14" lengthAdjust="spacing" textLength="154" x="106.75" y="181.2652">ConfigLinkedHashMap</text><text fill="#000000" font-family="sans-serif" font-size="10" lengthAdjust="spacing" textLength="168" x="99.75" y="193.8863">org.vorpal.blade.framework.config</text><line style="stroke:#181818;stroke-width:0.5;" x1="8" x2="327" y1="200.9956" y2="200.9956"/><ellipse cx="18" cy="214.7398" fill="none" rx="3" ry="3" style="stroke:#038048;stroke-width:1.0;"/><text fill="#000000" font-family="sans-serif" font-size="14" lengthAdjust="spacing" textLength="295" x="27" y="218.5308">map: LinkedHashMap&lt;String, Translation&gt;</text><line style="stroke:#181818;stroke-width:0.5;" x1="8" x2="327" y1="225.4839" y2="225.4839"/><ellipse cx="18" cy="239.228" fill="#84BE84" rx="3" ry="3" style="stroke:#038048;stroke-width:1.0;"/><text fill="#000000" font-family="sans-serif" font-size="14" lengthAdjust="spacing" textLength="63" x="27" y="243.0191">size(): int</text><ellipse cx="18" cy="255.7163" fill="#84BE84" rx="3" ry="3" style="stroke:#038048;stroke-width:1.0;"/><text fill="#000000" font-family="sans-serif" font-size="14" lengthAdjust="spacing" textLength="266" x="27" y="259.5073">lookup(SipServletRequest): Translation</text><ellipse cx="18" cy="272.2046" fill="#84BE84" rx="3" ry="3" style="stroke:#038048;stroke-width:1.0;"/><text fill="#000000" font-family="sans-serif" font-size="14" lengthAdjust="spacing" textLength="257" x="27" y="275.9956">createTranslation(String): Translation</text></g></a><!--class org.vorpal.blade.framework.config.TranslationsMap--><a href="TranslationsMap.html" target="_top" title="TranslationsMap.html" xlink:actuate="onRequest" xlink:href="TranslationsMap.html" xlink:show="new" xlink:title="TranslationsMap.html" xlink:type="simple"><g id="elem_org.vorpal.blade.framework.config.TranslationsMap"><rect codeLine="12" fill="#F1F1F1" height="95.7305" id="org.vorpal.blade.framework.config.TranslationsMap" rx="2.5" ry="2.5" style="stroke:#181818;stroke-width:0.5;" width="292" x="21.5" y="7"/><ellipse cx="79.25" cy="26.1328" fill="#A9DCDF" rx="11" ry="11" style="stroke:#181818;stroke-width:1.0;"/><path d="M79.1133,21.481 L77.9595,26.5527 L80.2754,26.5527 Z M77.6191,19.2397 L80.6157,19.2397 L83.9609,31.6328 L81.5122,31.6328 L80.7485,28.5698 L77.4697,28.5698 L76.7227,31.6328 L74.2739,31.6328 Z " fill="#000000"/><text fill="#000000" font-family="sans-serif" font-size="14" font-style="italic" lengthAdjust="spacing" textLength="114" x="126.75" y="25.5352">TranslationsMap</text><text fill="#000000" font-family="sans-serif" font-size="10" font-style="italic" lengthAdjust="spacing" textLength="168" x="99.75" y="38.1563">org.vorpal.blade.framework.config</text><line style="stroke:#181818;stroke-width:0.5;" x1="22.5" x2="312.5" y1="45.2656" y2="45.2656"/><ellipse cx="32.5" cy="59.0098" fill="#84BE84" rx="3" ry="3" style="stroke:#038048;stroke-width:1.0;"/><text fill="#000000" font-family="sans-serif" font-size="14" font-style="italic" lengthAdjust="spacing" textLength="257" x="41.5" y="62.8008">createTranslation(String): Translation</text><polygon fill="#FFFF44" points="32.5,70.498,36.5,74.498,32.5,78.498,28.5,74.498" style="stroke:#B38D22;stroke-width:1.0;"/><text fill="#000000" font-family="sans-serif" font-size="14" font-style="italic" lengthAdjust="spacing" textLength="266" x="41.5" y="79.2891">lookup(SipServletRequest): Translation</text><ellipse cx="32.5" cy="91.9863" fill="#84BE84" rx="3" ry="3" style="stroke:#038048;stroke-width:1.0;"/><text fill="#000000" font-family="sans-serif" font-size="14" font-style="italic" lengthAdjust="spacing" textLength="63" x="41.5" y="95.7773">size(): int</text></g></a><!--reverse link org.vorpal.blade.framework.config.TranslationsMap to org.vorpal.blade.framework.config.ConfigLinkedHashMap--><g id="link_org.vorpal.blade.framework.config.TranslationsMap_org.vorpal.blade.framework.config.ConfigLinkedHashMap"><path codeLine="18" d="M167.5,120.98 C167.5,139.48 167.5,142.92 167.5,162.46 " fill="none" id="org.vorpal.blade.framework.config.TranslationsMap-backto-org.vorpal.blade.framework.config.ConfigLinkedHashMap" style="stroke:#181818;stroke-width:1.0;"/><polygon fill="none" points="167.5,102.98,161.5,120.98,173.5,120.98,167.5,102.98" style="stroke:#181818;stroke-width:1.0;"/></g><text fill="#888888" font-family="sans-serif" font-size="10" lengthAdjust="spacing" textLength="176" x="72.5" y="298.6167">UMLDoclet 2.1.2, PlantUML 1.2024.3</text><!--SRC=[jLDDJm8n4BtxAoOO4uZG2F54Dbpqu04Iu-e9EGoxisn3jwtjW57alzlb8wmBYS74NfgyUTFtvhK50F34eB4WRp6Xc2mwPED06qqNeGovJ0ceiFm1cIIL-ZfQ4EScm1iyKUWzD28lFwdVlHtS6Pt9sL3gEQKFwFCHsbUzgzuCZ9k9fN4MbPWgJ4baBZXvDsukaarZ0z33honnGWN6unEeoBbGamciDcRBTLsWxSCFKXIpathMXcU7sYjaQVJWq52QRxRw83KVG6NCV66RiRGnkQKYVgAt1NaElCef1txY29agfUPMz0H_lKqMfvuT9dmKSONl_oVUcaA8jeOSnxhQsrsVDMkjzVBCMAkgzMlQnNZ-jD5Nf_EtDxZz4QIP76J6bDlBQ7XlaZ08z4HNzDhmg51pGE5gISwNuRI-0G00]--></g></svg>