<?xml version="1.0" encoding="us-ascii" standalone="no"?><svg xmlns="http://www.w3.org/2000/svg" xmlns:xlink="http://www.w3.org/1999/xlink" contentStyleType="text/css" height="322px" preserveAspectRatio="none" style="width:308px;height:322px;background:#FFFFFF;" version="1.1" viewBox="0 0 308 322" width="308px" zoomAndPan="magnify"><defs/><g><!--class org.vorpal.blade.framework.config.ConfigIPv4Map--><a href="ConfigIPv4Map.html" target="_top" title="ConfigIPv4Map.html" xlink:actuate="onRequest" xlink:href="ConfigIPv4Map.html" xlink:show="new" xlink:title="ConfigIPv4Map.html" xlink:type="simple"><g id="elem_org.vorpal.blade.framework.config.ConfigIPv4Map"><rect codeLine="5" fill="#F1F1F1" height="134.3516" id="org.vorpal.blade.framework.config.ConfigIPv4Map" rx="2.5" ry="2.5" style="stroke:#181818;stroke-width:0.5;" width="292" x="9" y="162.73"/><ellipse cx="66.75" cy="188.9292" fill="#ADD1B2" rx="11" ry="11" style="stroke:#181818;stroke-width:1.0;"/><path d="M69.2231,195.0723 Q68.6421,195.3711 68.0029,195.5205 Q67.3638,195.6699 66.6582,195.6699 Q64.1514,195.6699 62.8315,194.0181 Q61.5117,192.3662 61.5117,189.2451 Q61.5117,186.1157 62.8315,184.4639 Q64.1514,182.812 66.6582,182.812 Q67.3638,182.812 68.0112,182.9614 Q68.6587,183.1109 69.2231,183.4097 L69.2231,186.1323 Q68.5923,185.5513 67.9988,185.2815 Q67.4053,185.0117 66.7744,185.0117 Q65.4297,185.0117 64.7449,186.0784 Q64.0601,187.145 64.0601,189.2451 Q64.0601,191.3369 64.7449,192.4036 Q65.4297,193.4702 66.7744,193.4702 Q67.4053,193.4702 67.9988,193.2005 Q68.5923,192.9307 69.2231,192.3496 Z " fill="#000000"/><text fill="#000000" font-family="sans-serif" font-size="12" font-style="italic" lengthAdjust="spacing" textLength="79" x="131.75" y="179.3316">&#171;deprecated&#187;</text><text fill="#000000" font-family="sans-serif" font-size="14" lengthAdjust="spacing" textLength="103" x="119.75" y="195.398">ConfigIPv4Map</text><text fill="#000000" font-family="sans-serif" font-size="10" lengthAdjust="spacing" textLength="168" x="87.25" y="208.0191">org.vorpal.blade.framework.config</text><line style="stroke:#181818;stroke-width:0.5;" x1="10" x2="300" y1="215.1284" y2="215.1284"/><ellipse cx="20" cy="228.8726" fill="none" rx="3" ry="3" style="stroke:#038048;stroke-width:1.0;"/><text fill="#000000" font-family="sans-serif" font-size="14" lengthAdjust="spacing" textLength="123" x="29" y="232.6636">map: AddressMap</text><line style="stroke:#181818;stroke-width:0.5;" x1="10" x2="300" y1="239.6167" y2="239.6167"/><ellipse cx="20" cy="253.3609" fill="#84BE84" rx="3" ry="3" style="stroke:#038048;stroke-width:1.0;"/><text fill="#000000" font-family="sans-serif" font-size="14" lengthAdjust="spacing" textLength="63" x="29" y="257.1519">size(): int</text><ellipse cx="20" cy="269.8491" fill="#84BE84" rx="3" ry="3" style="stroke:#038048;stroke-width:1.0;"/><text fill="#000000" font-family="sans-serif" font-size="14" lengthAdjust="spacing" textLength="257" x="29" y="273.6402">createTranslation(String): Translation</text><ellipse cx="20" cy="286.3374" fill="#84BE84" rx="3" ry="3" style="stroke:#038048;stroke-width:1.0;"/><text fill="#000000" font-family="sans-serif" font-size="14" lengthAdjust="spacing" textLength="266" x="29" y="290.1284">lookup(SipServletRequest): Translation</text></g></a><!--class org.vorpal.blade.framework.config.TranslationsMap--><a href="TranslationsMap.html" target="_top" title="TranslationsMap.html" xlink:actuate="onRequest" xlink:href="TranslationsMap.html" xlink:show="new" xlink:title="TranslationsMap.html" xlink:type="simple"><g id="elem_org.vorpal.blade.framework.config.TranslationsMap"><rect codeLine="12" fill="#F1F1F1" height="95.7305" id="org.vorpal.blade.framework.config.TranslationsMap" rx="2.5" ry="2.5" style="stroke:#181818;stroke-width:0.5;" width="292" x="9" y="7"/><ellipse cx="66.75" cy="26.1328" fill="#A9DCDF" rx="11" ry="11" style="stroke:#181818;stroke-width:1.0;"/><path d="M66.6133,21.481 L65.4595,26.5527 L67.7754,26.5527 Z M65.1191,19.2397 L68.1157,19.2397 L71.4609,31.6328 L69.0122,31.6328 L68.2485,28.5698 L64.9697,28.5698 L64.2227,31.6328 L61.7739,31.6328 Z " fill="#000000"/><text fill="#000000" font-family="sans-serif" font-size="14" font-style="italic" lengthAdjust="spacing" textLength="114" x="114.25" y="25.5352">TranslationsMap</text><text fill="#000000" font-family="sans-serif" font-size="10" font-style="italic" lengthAdjust="spacing" textLength="168" x="87.25" y="38.1563">org.vorpal.blade.framework.config</text><line style="stroke:#181818;stroke-width:0.5;" x1="10" x2="300" y1="45.2656" y2="45.2656"/><ellipse cx="20" cy="59.0098" fill="#84BE84" rx="3" ry="3" style="stroke:#038048;stroke-width:1.0;"/><text fill="#000000" font-family="sans-serif" font-size="14" font-style="italic" lengthAdjust="spacing" textLength="257" x="29" y="62.8008">createTranslation(String): Translation</text><polygon fill="#FFFF44" points="20,70.498,24,74.498,20,78.498,16,74.498" style="stroke:#B38D22;stroke-width:1.0;"/><text fill="#000000" font-family="sans-serif" font-size="14" font-style="italic" lengthAdjust="spacing" textLength="266" x="29" y="79.2891">lookup(SipServletRequest): Translation</text><ellipse cx="20" cy="91.9863" fill="#84BE84" rx="3" ry="3" style="stroke:#038048;stroke-width:1.0;"/><text fill="#000000" font-family="sans-serif" font-size="14" font-style="italic" lengthAdjust="spacing" textLength="63" x="29" y="95.7773">size(): int</text></g></a><!--reverse link org.vorpal.blade.framework.config.TranslationsMap to org.vorpal.blade.framework.config.ConfigIPv4Map--><g id="link_org.vorpal.blade.framework.config.TranslationsMap_org.vorpal.blade.framework.config.ConfigIPv4Map"><path codeLine="18" d="M155,121.15 C155,139.46 155,142.75 155,162.54 " fill="none" id="org.vorpal.blade.framework.config.TranslationsMap-backto-org.vorpal.blade.framework.config.ConfigIPv4Map" style="stroke:#181818;stroke-width:1.0;"/><polygon fill="none" points="155,103.15,149,121.15,161,121.15,155,103.15" style="stroke:#181818;stroke-width:1.0;"/></g><text fill="#888888" font-family="sans-serif" font-size="10" lengthAdjust="spacing" textLength="176" x="59" y="312.7495">UMLDoclet 2.1.2, PlantUML 1.2024.3</text><!--SRC=[jP9DImCn48Rl_ef14LgqmPQUoh8WUX4i55TFjOVfxcmRcarYCbtHslzkjgsqtGgo1tC9lFDcFfuC080d1eq5UOif9MJH8Hi7scWw2s6Oouo02iiVa4jIcQ-h1V7S17cZfmgzX_F8oqyQTFlndT6vd3sColuGxQlUwJUnSJDH6cTHYQd2Z4JkGW_lnYr4kdbo3kZXJvSuoWzHb95rb29J5iSm7X-5nPmBDPd0QjDfTQuAj0EupJ97tWV7Fb3rsMeFG6hUYwcZaFdPeVOAMHhTIjX9FGk-0t7lLyOibhQLI9kGAnNn4xqjoVCl_lKM7quzEqpvXEE1t_yFoLg50A-cdE9R_RIxRipcuEb50qprglLlsc5iFctqrUaqNRVjmfDcSf0RKrqlmyTxauOHe2UwedSD8uMQWmgN9JbVOMb_0m00]--></g></svg>