<?xml version="1.0" encoding="us-ascii" standalone="no"?><svg xmlns="http://www.w3.org/2000/svg" xmlns:xlink="http://www.w3.org/1999/xlink" contentStyleType="text/css" height="332px" preserveAspectRatio="none" style="width:376px;height:332px;background:#FFFFFF;" version="1.1" viewBox="0 0 376 332" width="376px" zoomAndPan="magnify"><defs/><g><!--class org.vorpal.blade.framework.config.KeepAliveParameters--><a href="KeepAliveParameters.html" target="_top" title="KeepAliveParameters.html" xlink:actuate="onRequest" xlink:href="KeepAliveParameters.html" xlink:show="new" xlink:title="KeepAliveParameters.html" xlink:type="simple"><g id="elem_org.vorpal.blade.framework.config.KeepAliveParameters"><rect codeLine="5" fill="#F1F1F1" height="202.6602" id="org.vorpal.blade.framework.config.KeepAliveParameters" rx="2.5" ry="2.5" style="stroke:#181818;stroke-width:0.5;" width="360" x="9" y="7"/><ellipse cx="100.75" cy="26.1328" fill="#ADD1B2" rx="11" ry="11" style="stroke:#181818;stroke-width:1.0;"/><path d="M103.2231,32.2759 Q102.6421,32.5747 102.0029,32.7241 Q101.3638,32.8735 100.6582,32.8735 Q98.1514,32.8735 96.8315,31.2217 Q95.5117,29.5698 95.5117,26.4487 Q95.5117,23.3193 96.8315,21.6675 Q98.1514,20.0156 100.6582,20.0156 Q101.3638,20.0156 102.0112,20.165 Q102.6587,20.3145 103.2231,20.6133 L103.2231,23.3359 Q102.5923,22.7549 101.9988,22.4851 Q101.4053,22.2153 100.7744,22.2153 Q99.4297,22.2153 98.7449,23.282 Q98.0601,24.3486 98.0601,26.4487 Q98.0601,28.5405 98.7449,29.6072 Q99.4297,30.6738 100.7744,30.6738 Q101.4053,30.6738 101.9988,30.4041 Q102.5923,30.1343 103.2231,29.5532 Z " fill="#000000"/><text fill="#000000" font-family="sans-serif" font-size="14" lengthAdjust="spacing" textLength="144" x="133.25" y="25.5352">KeepAliveParameters</text><text fill="#000000" font-family="sans-serif" font-size="10" lengthAdjust="spacing" textLength="168" x="121.25" y="38.1563">org.vorpal.blade.framework.config</text><line style="stroke:#181818;stroke-width:0.5;" x1="10" x2="368" y1="45.2656" y2="45.2656"/><polygon fill="none" points="20,54.0098,24,58.0098,20,62.0098,16,58.0098" style="stroke:#B38D22;stroke-width:1.0;"/><text fill="#000000" font-family="sans-serif" font-size="14" lengthAdjust="spacing" textLength="106" x="29" y="62.8008">style: KeepAlive</text><polygon fill="none" points="20,70.498,24,74.498,20,78.498,16,74.498" style="stroke:#B38D22;stroke-width:1.0;"/><text fill="#000000" font-family="sans-serif" font-size="14" lengthAdjust="spacing" textLength="159" x="29" y="79.2891">sessionExpires: Integer</text><polygon fill="none" points="20,86.9863,24,90.9863,20,94.9863,16,90.9863" style="stroke:#B38D22;stroke-width:1.0;"/><text fill="#000000" font-family="sans-serif" font-size="14" lengthAdjust="spacing" textLength="99" x="29" y="95.7773">minSE: Integer</text><line style="stroke:#181818;stroke-width:0.5;" x1="10" x2="368" y1="102.7305" y2="102.7305"/><ellipse cx="20" cy="116.4746" fill="#84BE84" rx="3" ry="3" style="stroke:#038048;stroke-width:1.0;"/><text fill="#000000" font-family="sans-serif" font-size="14" lengthAdjust="spacing" textLength="139" x="29" y="120.2656">getStyle(): KeepAlive</text><ellipse cx="20" cy="132.9629" fill="#84BE84" rx="3" ry="3" style="stroke:#038048;stroke-width:1.0;"/><text fill="#000000" font-family="sans-serif" font-size="14" lengthAdjust="spacing" textLength="281" x="29" y="136.7539">setStyle(KeepAlive): KeepAliveParameters</text><ellipse cx="20" cy="149.4512" fill="#84BE84" rx="3" ry="3" style="stroke:#038048;stroke-width:1.0;"/><text fill="#000000" font-family="sans-serif" font-size="14" lengthAdjust="spacing" textLength="192" x="29" y="153.2422">getSessionExpires(): Integer</text><ellipse cx="20" cy="165.9395" fill="#84BE84" rx="3" ry="3" style="stroke:#038048;stroke-width:1.0;"/><text fill="#000000" font-family="sans-serif" font-size="14" lengthAdjust="spacing" textLength="334" x="29" y="169.7305">setSessionExpires(Integer): KeepAliveParameters</text><ellipse cx="20" cy="182.4277" fill="#84BE84" rx="3" ry="3" style="stroke:#038048;stroke-width:1.0;"/><text fill="#000000" font-family="sans-serif" font-size="14" lengthAdjust="spacing" textLength="130" x="29" y="186.2188">getMinSE(): Integer</text><ellipse cx="20" cy="198.916" fill="#84BE84" rx="3" ry="3" style="stroke:#038048;stroke-width:1.0;"/><text fill="#000000" font-family="sans-serif" font-size="14" lengthAdjust="spacing" textLength="272" x="29" y="202.707">setMinSE(Integer): KeepAliveParameters</text></g></a><!--class org.vorpal.blade.framework.config.KeepAliveParameters.KeepAlive--><a href="KeepAliveParameters.KeepAlive.html" target="_top" title="KeepAliveParameters.KeepAlive.html" xlink:actuate="onRequest" xlink:href="KeepAliveParameters.KeepAlive.html" xlink:show="new" xlink:title="KeepAliveParameters.KeepAlive.html" xlink:type="simple"><g id="elem_org.vorpal.blade.framework.config.KeepAliveParameters.KeepAlive"><rect codeLine="16" fill="#F1F1F1" height="38.2656" id="org.vorpal.blade.framework.config.KeepAliveParameters.KeepAlive" rx="2.5" ry="2.5" style="stroke:#181818;stroke-width:0.5;" width="247" x="65.5" y="269.66"/><ellipse cx="80.5" cy="288.7928" fill="#EB937F" rx="11" ry="11" style="stroke:#181818;stroke-width:1.0;"/><path d="M84.1143,295.2928 L76.3945,295.2928 L76.3945,282.8997 L84.1143,282.8997 L84.1143,285.0579 L78.8433,285.0579 L78.8433,287.7308 L83.6162,287.7308 L83.6162,289.889 L78.8433,289.889 L78.8433,293.1346 L84.1143,293.1346 Z " fill="#000000"/><text fill="#000000" font-family="sans-serif" font-size="14" lengthAdjust="spacing" textLength="215" x="94.5" y="288.1952">KeepAliveParameters.KeepAlive</text><text fill="#000000" font-family="sans-serif" font-size="10" lengthAdjust="spacing" textLength="168" x="118" y="300.8163">org.vorpal.blade.framework.config</text></g></a><!--reverse link org.vorpal.blade.framework.config.KeepAliveParameters to org.vorpal.blade.framework.config.KeepAliveParameters.KeepAlive--><g id="link_org.vorpal.blade.framework.config.KeepAliveParameters_org.vorpal.blade.framework.config.KeepAliveParameters.KeepAlive"><path codeLine="18" d="M189,226.04 C189,248.81 189,254.57 189,269.25 " fill="none" id="org.vorpal.blade.framework.config.KeepAliveParameters-backto-org.vorpal.blade.framework.config.KeepAliveParameters.KeepAlive" style="stroke:#181818;stroke-width:1.0;"/><ellipse cx="189" cy="218.04" fill="#FFFFFF" rx="8" ry="8" style="stroke:#181818;stroke-width:1.0;"/><line style="stroke:#181818;stroke-width:1.0;" x1="189" x2="189" y1="226.04" y2="210.04"/><line style="stroke:#181818;stroke-width:1.0;" x1="181" x2="197" y1="218.04" y2="218.04"/></g><text fill="#888888" font-family="sans-serif" font-size="10" lengthAdjust="spacing" textLength="176" x="93" y="322.5936">UMLDoclet 2.1.2, PlantUML 1.2024.3</text><!--SRC=[lLDTIyCm57ttLrmcmaPTSCEd8WF1FOWE1iEdkOVOthR1V9JSE9tYVpVjQhkvpec2UKZWd9DpRv8J00121vehf9n7ECESM-wC1Mqq7daQCX4ZeChT2XA1CgQlg4AN6G-NU2Gv4NGkIBnYE3WVtI3cbr8iSUfzlH8jtUkAFHiPcxAbiJcNx47o65bIY9wDVMIHqOb8Ey093gfOInMOprjGbZab5mjuAvijnZ6vbSGGQl46WqJ2wF5BBYnI2DVQOOgs4IYXP-DTF4ZHpGhNRg_DDw1FkkOsTKspsuPRpHJEEsLfHrL9Vc0_AOwoptLD7ZPxBsVKJ-hx13JlzJzPQB0zgQYnAX_hBFykTq6__zSkrpy9_NrRI8mfbhl9xPM9fF-hGpPWmrEOIgwTH-5awVVwD-_sFW00]--></g></svg>