<?xml version="1.0" encoding="us-ascii" standalone="no"?><svg xmlns="http://www.w3.org/2000/svg" xmlns:xlink="http://www.w3.org/1999/xlink" contentStyleType="text/css" height="450px" preserveAspectRatio="none" style="width:321px;height:450px;background:#FFFFFF;" version="1.1" viewBox="0 0 321 450" width="321px" zoomAndPan="magnify"><defs/><g><!--class org.vorpal.blade.framework.config.Selector--><a href="Selector.html" target="_top" title="Selector.html" xlink:actuate="onRequest" xlink:href="Selector.html" xlink:show="new" xlink:title="Selector.html" xlink:type="simple"><g id="elem_org.vorpal.blade.framework.config.Selector"><rect codeLine="5" fill="#F1F1F1" height="417.0078" id="org.vorpal.blade.framework.config.Selector" rx="2.5" ry="2.5" style="stroke:#181818;stroke-width:0.5;" width="300" x="7" y="7"/><ellipse cx="68.75" cy="26.1328" fill="#ADD1B2" rx="11" ry="11" style="stroke:#181818;stroke-width:1.0;"/><path d="M71.2231,32.2759 Q70.6421,32.5747 70.0029,32.7241 Q69.3638,32.8735 68.6582,32.8735 Q66.1514,32.8735 64.8315,31.2217 Q63.5117,29.5698 63.5117,26.4487 Q63.5117,23.3193 64.8315,21.6675 Q66.1514,20.0156 68.6582,20.0156 Q69.3638,20.0156 70.0112,20.165 Q70.6587,20.3145 71.2231,20.6133 L71.2231,23.3359 Q70.5923,22.7549 69.9988,22.4851 Q69.4053,22.2153 68.7744,22.2153 Q67.4297,22.2153 66.7449,23.282 Q66.0601,24.3486 66.0601,26.4487 Q66.0601,28.5405 66.7449,29.6072 Q67.4297,30.6738 68.7744,30.6738 Q69.4053,30.6738 69.9988,30.4041 Q70.5923,30.1343 71.2231,29.5532 Z " fill="#000000"/><text fill="#000000" font-family="sans-serif" font-size="14" lengthAdjust="spacing" textLength="55" x="145.75" y="25.5352">Selector</text><text fill="#000000" font-family="sans-serif" font-size="10" lengthAdjust="spacing" textLength="168" x="89.25" y="38.1563">org.vorpal.blade.framework.config</text><line style="stroke:#181818;stroke-width:0.5;" x1="8" x2="306" y1="45.2656" y2="45.2656"/><rect fill="none" height="6" style="stroke:#C82930;stroke-width:1.0;" width="6" x="15" y="56.0098"/><text fill="#000000" font-family="sans-serif" font-size="14" lengthAdjust="spacing" textLength="62" x="27" y="62.8008">id: String</text><rect fill="none" height="6" style="stroke:#C82930;stroke-width:1.0;" width="6" x="15" y="72.498"/><text fill="#000000" font-family="sans-serif" font-size="14" lengthAdjust="spacing" textLength="126" x="27" y="79.2891">description: String</text><rect fill="none" height="6" style="stroke:#C82930;stroke-width:1.0;" width="6" x="15" y="88.9863"/><text fill="#000000" font-family="sans-serif" font-size="14" lengthAdjust="spacing" textLength="108" x="27" y="95.7773">attribute: String</text><rect fill="none" height="6" style="stroke:#C82930;stroke-width:1.0;" width="6" x="15" y="105.4746"/><text fill="#000000" font-family="sans-serif" font-size="14" lengthAdjust="spacing" textLength="114" x="27" y="112.2656">_pattern: Pattern</text><rect fill="none" height="6" style="stroke:#C82930;stroke-width:1.0;" width="6" x="15" y="121.9629"/><text fill="#000000" font-family="sans-serif" font-size="14" lengthAdjust="spacing" textLength="125" x="27" y="128.7539">expression: String</text><rect fill="none" height="6" style="stroke:#C82930;stroke-width:1.0;" width="6" x="15" y="138.4512"/><text fill="#000000" font-family="sans-serif" font-size="14" lengthAdjust="spacing" textLength="73" x="27" y="145.2422">_p: Pattern</text><rect fill="none" height="6" style="stroke:#C82930;stroke-width:1.0;" width="6" x="15" y="154.9395"/><text fill="#000000" font-family="sans-serif" font-size="14" lengthAdjust="spacing" textLength="123" x="27" y="161.7305">_strPattern: String</text><line style="stroke:#181818;stroke-width:0.5;" x1="8" x2="306" y1="168.6836" y2="168.6836"/><ellipse cx="18" cy="182.4277" fill="#84BE84" rx="3" ry="3" style="stroke:#038048;stroke-width:1.0;"/><text fill="#000000" font-family="sans-serif" font-size="14" lengthAdjust="spacing" textLength="65" x="27" y="186.2188">Selector()</text><ellipse cx="18" cy="198.916" fill="#84BE84" rx="3" ry="3" style="stroke:#038048;stroke-width:1.0;"/><text fill="#000000" font-family="sans-serif" font-size="14" lengthAdjust="spacing" textLength="253" x="27" y="202.707">Selector(String, String, String, String)</text><ellipse cx="18" cy="215.4043" fill="#84BE84" rx="3" ry="3" style="stroke:#038048;stroke-width:1.0;"/><text fill="#000000" font-family="sans-serif" font-size="14" lengthAdjust="spacing" textLength="94" x="27" y="219.1953">getId(): String</text><ellipse cx="18" cy="231.8926" fill="#84BE84" rx="3" ry="3" style="stroke:#038048;stroke-width:1.0;"/><text fill="#000000" font-family="sans-serif" font-size="14" lengthAdjust="spacing" textLength="121" x="27" y="235.6836">setId(String): void</text><ellipse cx="18" cy="248.3809" fill="#84BE84" rx="3" ry="3" style="stroke:#038048;stroke-width:1.0;"/><text fill="#000000" font-family="sans-serif" font-size="14" lengthAdjust="spacing" textLength="159" x="27" y="252.1719">getDescription(): String</text><ellipse cx="18" cy="264.8691" fill="#84BE84" rx="3" ry="3" style="stroke:#038048;stroke-width:1.0;"/><text fill="#000000" font-family="sans-serif" font-size="14" lengthAdjust="spacing" textLength="186" x="27" y="268.6602">setDescription(String): void</text><ellipse cx="18" cy="281.3574" fill="#84BE84" rx="3" ry="3" style="stroke:#038048;stroke-width:1.0;"/><text fill="#000000" font-family="sans-serif" font-size="14" lengthAdjust="spacing" textLength="142" x="27" y="285.1484">getAttribute(): String</text><ellipse cx="18" cy="297.8457" fill="#84BE84" rx="3" ry="3" style="stroke:#038048;stroke-width:1.0;"/><text fill="#000000" font-family="sans-serif" font-size="14" lengthAdjust="spacing" textLength="169" x="27" y="301.6367">setAttribute(String): void</text><ellipse cx="18" cy="314.334" fill="#84BE84" rx="3" ry="3" style="stroke:#038048;stroke-width:1.0;"/><text fill="#000000" font-family="sans-serif" font-size="14" lengthAdjust="spacing" textLength="157" x="27" y="318.125">getExpression(): String</text><ellipse cx="18" cy="330.8223" fill="#84BE84" rx="3" ry="3" style="stroke:#038048;stroke-width:1.0;"/><text fill="#000000" font-family="sans-serif" font-size="14" lengthAdjust="spacing" textLength="184" x="27" y="334.6133">setExpression(String): void</text><ellipse cx="18" cy="347.3105" fill="#84BE84" rx="3" ry="3" style="stroke:#038048;stroke-width:1.0;"/><text fill="#000000" font-family="sans-serif" font-size="14" lengthAdjust="spacing" textLength="130" x="27" y="351.1016">getPattern(): String</text><ellipse cx="18" cy="363.7988" fill="#84BE84" rx="3" ry="3" style="stroke:#038048;stroke-width:1.0;"/><text fill="#000000" font-family="sans-serif" font-size="14" lengthAdjust="spacing" textLength="157" x="27" y="367.5898">setPattern(String): void</text><ellipse cx="18" cy="380.2871" fill="#84BE84" rx="3" ry="3" style="stroke:#038048;stroke-width:1.0;"/><text fill="#000000" font-family="sans-serif" font-size="14" lengthAdjust="spacing" textLength="274" x="27" y="384.0781">findKey(SipServletRequest): RegExRoute</text><ellipse cx="18" cy="396.7754" fill="#84BE84" rx="3" ry="3" style="stroke:#038048;stroke-width:1.0;"/><text fill="#000000" font-family="sans-serif" font-size="14" lengthAdjust="spacing" text-decoration="underline" textLength="132" x="27" y="400.5664">main(String[]): void</text><ellipse cx="18" cy="413.2637" fill="#84BE84" rx="3" ry="3" style="stroke:#038048;stroke-width:1.0;"/><text fill="#000000" font-family="sans-serif" font-size="14" lengthAdjust="spacing" text-decoration="underline" textLength="141" x="27" y="417.0547">main2(String[]): void</text></g></a><text fill="#888888" font-family="sans-serif" font-size="10" lengthAdjust="spacing" textLength="176" x="68.5" y="440.6758">UMLDoclet 2.1.2, PlantUML 1.2024.3</text><!--SRC=[XPDTQy8m58RlzoiEWu6Y2rDs9KCOwCNO1cBPbHE9pMaDIvCiYPrE_E-Brbe_6jQRXFVZINAW000M7KYQeTKqnWWrDTGf0r99lF4sB3X3m4oxDIGS1RENQePkeRoyrsD1hONR9yj_iTTvx4SeCFQyJtcG7lhAf2HNHbD1ve8o98dnn_yeyqLY9HEUtWAry6-Ab6YOJCejMRXCJAUmsTzbzzrpreF86IxJIcDeOyEruqfUczHvORvqU6tDj3VH-DAes5GMhhH1Qsk9CrrJc5bdHYNkej4gtzDercX5k0trwqaZHVV26irhlDqRXtmFSiNPMMjGpITGFqs4ES_bA0EKoWypXiV11Y0dWJ3bCEa0edG3_OHBzehhHiHrX2ONwCRulKJhV7ACwN0rLluDn_p6Ekful8LMHda9dKmliUUnRcrkM_nJAFtr855gjtoylmrKx2y1NT8XtJQC19NEgt2Neoa6zGS0]--></g></svg>