<?xml version="1.0" encoding="us-ascii" standalone="no"?><svg xmlns="http://www.w3.org/2000/svg" xmlns:xlink="http://www.w3.org/1999/xlink" contentStyleType="text/css" height="368px" preserveAspectRatio="none" style="width:388px;height:368px;background:#FFFFFF;" version="1.1" viewBox="0 0 388 368" width="388px" zoomAndPan="magnify"><defs/><g><!--class org.vorpal.blade.framework.config.ServerPool--><a href="ServerPool.html" target="_top" title="ServerPool.html" xlink:actuate="onRequest" xlink:href="ServerPool.html" xlink:show="new" xlink:title="ServerPool.html" xlink:type="simple"><g id="elem_org.vorpal.blade.framework.config.ServerPool"><rect codeLine="5" fill="#F1F1F1" height="334.5664" id="org.vorpal.blade.framework.config.ServerPool" rx="2.5" ry="2.5" style="stroke:#181818;stroke-width:0.5;" width="367" x="7" y="7"/><ellipse cx="102.25" cy="26.1328" fill="#ADD1B2" rx="11" ry="11" style="stroke:#181818;stroke-width:1.0;"/><path d="M104.7231,32.2759 Q104.1421,32.5747 103.5029,32.7241 Q102.8638,32.8735 102.1582,32.8735 Q99.6514,32.8735 98.3315,31.2217 Q97.0117,29.5698 97.0117,26.4487 Q97.0117,23.3193 98.3315,21.6675 Q99.6514,20.0156 102.1582,20.0156 Q102.8638,20.0156 103.5112,20.165 Q104.1587,20.3145 104.7231,20.6133 L104.7231,23.3359 Q104.0923,22.7549 103.4988,22.4851 Q102.9053,22.2153 102.2744,22.2153 Q100.9297,22.2153 100.2449,23.282 Q99.5601,24.3486 99.5601,26.4487 Q99.5601,28.5405 100.2449,29.6072 Q100.9297,30.6738 102.2744,30.6738 Q102.9053,30.6738 103.4988,30.4041 Q104.0923,30.1343 104.7231,29.5532 Z " fill="#000000"/><text fill="#000000" font-family="sans-serif" font-size="14" lengthAdjust="spacing" textLength="73" x="170.25" y="25.5352">ServerPool</text><text fill="#000000" font-family="sans-serif" font-size="10" lengthAdjust="spacing" textLength="168" x="122.75" y="38.1563">org.vorpal.blade.framework.config</text><line style="stroke:#181818;stroke-width:0.5;" x1="8" x2="373" y1="45.2656" y2="45.2656"/><rect fill="none" height="6" style="stroke:#C82930;stroke-width:1.0;" width="6" x="15" y="56.0098"/><text fill="#000000" font-family="sans-serif" font-size="14" lengthAdjust="spacing" textLength="62" x="27" y="62.8008">id: String</text><rect fill="none" height="6" style="stroke:#C82930;stroke-width:1.0;" width="6" x="15" y="72.498"/><text fill="#000000" font-family="sans-serif" font-size="14" lengthAdjust="spacing" textLength="126" x="27" y="79.2891">description: String</text><rect fill="none" height="6" style="stroke:#C82930;stroke-width:1.0;" width="6" x="15" y="88.9863"/><text fill="#000000" font-family="sans-serif" font-size="14" lengthAdjust="spacing" textLength="195" x="27" y="95.7773">connectionAttempts: Integer</text><rect fill="none" height="6" style="stroke:#C82930;stroke-width:1.0;" width="6" x="15" y="105.4746"/><text fill="#000000" font-family="sans-serif" font-size="14" lengthAdjust="spacing" textLength="234" x="27" y="112.2656">serverPairs: ArrayList&lt;ServerPair&gt;</text><line style="stroke:#181818;stroke-width:0.5;" x1="8" x2="373" y1="119.2188" y2="119.2188"/><ellipse cx="18" cy="132.9629" fill="#84BE84" rx="3" ry="3" style="stroke:#038048;stroke-width:1.0;"/><text fill="#000000" font-family="sans-serif" font-size="14" lengthAdjust="spacing" textLength="83" x="27" y="136.7539">ServerPool()</text><ellipse cx="18" cy="149.4512" fill="#84BE84" rx="3" ry="3" style="stroke:#038048;stroke-width:1.0;"/><text fill="#000000" font-family="sans-serif" font-size="14" lengthAdjust="spacing" textLength="124" x="27" y="153.2422">ServerPool(String)</text><ellipse cx="18" cy="165.9395" fill="#84BE84" rx="3" ry="3" style="stroke:#038048;stroke-width:1.0;"/><text fill="#000000" font-family="sans-serif" font-size="14" lengthAdjust="spacing" textLength="94" x="27" y="169.7305">getId(): String</text><ellipse cx="18" cy="182.4277" fill="#84BE84" rx="3" ry="3" style="stroke:#038048;stroke-width:1.0;"/><text fill="#000000" font-family="sans-serif" font-size="14" lengthAdjust="spacing" textLength="165" x="27" y="186.2188">setId(String): ServerPool</text><ellipse cx="18" cy="198.916" fill="#84BE84" rx="3" ry="3" style="stroke:#038048;stroke-width:1.0;"/><text fill="#000000" font-family="sans-serif" font-size="14" lengthAdjust="spacing" textLength="198" x="27" y="202.707">createServerPair(): ServerPair</text><ellipse cx="18" cy="215.4043" fill="#84BE84" rx="3" ry="3" style="stroke:#038048;stroke-width:1.0;"/><text fill="#000000" font-family="sans-serif" font-size="14" lengthAdjust="spacing" textLength="288" x="27" y="219.1953">createServerPair(String, String): ServerPair</text><ellipse cx="18" cy="231.8926" fill="#84BE84" rx="3" ry="3" style="stroke:#038048;stroke-width:1.0;"/><text fill="#000000" font-family="sans-serif" font-size="14" lengthAdjust="spacing" textLength="230" x="27" y="235.6836">getServerPairs(): List&lt;ServerPair&gt;</text><ellipse cx="18" cy="248.3809" fill="#84BE84" rx="3" ry="3" style="stroke:#038048;stroke-width:1.0;"/><text fill="#000000" font-family="sans-serif" font-size="14" lengthAdjust="spacing" textLength="338" x="27" y="252.1719">setServerPairs(ArrayList&lt;ServerPair&gt;): ServerPool</text><ellipse cx="18" cy="264.8691" fill="#84BE84" rx="3" ry="3" style="stroke:#038048;stroke-width:1.0;"/><text fill="#000000" font-family="sans-serif" font-size="14" lengthAdjust="spacing" textLength="159" x="27" y="268.6602">getDescription(): String</text><ellipse cx="18" cy="281.3574" fill="#84BE84" rx="3" ry="3" style="stroke:#038048;stroke-width:1.0;"/><text fill="#000000" font-family="sans-serif" font-size="14" lengthAdjust="spacing" textLength="230" x="27" y="285.1484">setDescription(String): ServerPool</text><ellipse cx="18" cy="297.8457" fill="#84BE84" rx="3" ry="3" style="stroke:#038048;stroke-width:1.0;"/><text fill="#000000" font-family="sans-serif" font-size="14" lengthAdjust="spacing" textLength="341" x="27" y="301.6367">selectRandomServerPairs(): ArrayList&lt;ServerPair&gt;</text><ellipse cx="18" cy="314.334" fill="#84BE84" rx="3" ry="3" style="stroke:#038048;stroke-width:1.0;"/><text fill="#000000" font-family="sans-serif" font-size="14" lengthAdjust="spacing" textLength="230" x="27" y="318.125">getConnectionAttempts(): Integer</text><ellipse cx="18" cy="330.8223" fill="#84BE84" rx="3" ry="3" style="stroke:#038048;stroke-width:1.0;"/><text fill="#000000" font-family="sans-serif" font-size="14" lengthAdjust="spacing" textLength="301" x="27" y="334.6133">setConnectionAttempts(Integer): ServerPool</text></g></a><text fill="#888888" font-family="sans-serif" font-size="10" lengthAdjust="spacing" textLength="176" x="102" y="358.2344">UMLDoclet 2.1.2, PlantUML 1.2024.3</text><!--SRC=[XLDDQy904BttLmn2GT4kLNeI4QHU10lIq9Fri4qcSUbcDymi5blwtxj9nAs97xc4VU_Dp9kPNG00HWT6viY5Z372Gf9qbi1OWtUUXgrA430lt1vIXJhX9fgZsreFLtYi9JDq9go-SJnycaP8EwILjVhT7C37gQLCx2mLKeiFBHCKANa3NvO-HMnDgh8EI8QRAX6ImteT3cBhShtPm4_bgFmUL3A6o94oMS0Iv9XKuPGrRT9NC1YNtCoviayUmy8up922YEkIKf5dPqHolrJi9j4HdXwr_M2lspkBrWx-SHcwHTBjjRprkI8EUayVSmH9J2WT1YFTeFEdAxewwm2QsK-YlBC0SvdxSjzygZqxfGjD-3BpiACBa_Ylk3eIHkqN-YfDOlE6-nkhypwUMzUXZ6jUYDBF6UL1rlRrMpyPz3n1QctvUtjPpcsi_QCSYQ4O3M2bfN4UXNiVojKW_W00]--></g></svg>