<?xml version="1.0" encoding="us-ascii" standalone="no"?><svg xmlns="http://www.w3.org/2000/svg" xmlns:xlink="http://www.w3.org/1999/xlink" contentStyleType="text/css" height="556px" preserveAspectRatio="none" style="width:500px;height:556px;background:#FFFFFF;" version="1.1" viewBox="0 0 500 556" width="500px" zoomAndPan="magnify"><defs/><g><!--class org.vorpal.blade.framework.config.Settings--><a href="Settings.html" target="_top" title="Settings.html" xlink:actuate="onRequest" xlink:href="Settings.html" xlink:show="new" xlink:title="Settings.html" xlink:type="simple"><g id="elem_org.vorpal.blade.framework.config.Settings"><rect codeLine="5" fill="#F1F1F1" height="334.5664" id="org.vorpal.blade.framework.config.Settings" rx="2.5" ry="2.5" style="stroke:#181818;stroke-width:0.5;" width="482" x="7" y="195.7"/><ellipse cx="153.75" cy="214.8328" fill="#ADD1B2" rx="11" ry="11" style="stroke:#181818;stroke-width:1.0;"/><path d="M156.2231,220.9759 Q155.6421,221.2747 155.0029,221.4241 Q154.3638,221.5735 153.6582,221.5735 Q151.1514,221.5735 149.8315,219.9217 Q148.5117,218.2698 148.5117,215.1487 Q148.5117,212.0193 149.8315,210.3675 Q151.1514,208.7156 153.6582,208.7156 Q154.3638,208.7156 155.0112,208.865 Q155.6587,209.0145 156.2231,209.3133 L156.2231,212.0359 Q155.5923,211.4549 154.9988,211.1851 Q154.4053,210.9153 153.7744,210.9153 Q152.4297,210.9153 151.7449,211.982 Q151.0601,213.0486 151.0601,215.1487 Q151.0601,217.2405 151.7449,218.3072 Q152.4297,219.3738 153.7744,219.3738 Q154.4053,219.3738 154.9988,219.1041 Q155.5923,218.8343 156.2231,218.2532 Z " fill="#000000"/><text fill="#000000" font-family="sans-serif" font-size="14" lengthAdjust="spacing" textLength="55" x="230.75" y="214.2352">Settings</text><text fill="#000000" font-family="sans-serif" font-size="10" lengthAdjust="spacing" textLength="168" x="174.25" y="226.8563">org.vorpal.blade.framework.config</text><rect fill="#FFFFFF" height="16.1328" style="stroke:#181818;stroke-width:1.0;stroke-dasharray:2.0,2.0;" width="10" x="482" y="192.7"/><text fill="#000000" font-family="sans-serif" font-size="12" font-style="italic" lengthAdjust="spacing" textLength="8" x="483" y="205.3016">T</text><line style="stroke:#181818;stroke-width:0.5;" x1="8" x2="488" y1="233.9656" y2="233.9656"/><rect fill="none" height="6" style="stroke:#C82930;stroke-width:1.0;" width="6" x="15" y="244.7098"/><text fill="#000000" font-family="sans-serif" font-size="14" lengthAdjust="spacing" textLength="124" x="27" y="251.5008">sipLogger: Logger</text><rect fill="none" height="6" style="stroke:#C82930;stroke-width:1.0;" width="6" x="15" y="261.198"/><text fill="#000000" font-family="sans-serif" font-size="14" lengthAdjust="spacing" textLength="110" x="27" y="267.9891">clazz: Class&lt;T&gt;</text><rect fill="none" height="6" style="stroke:#C82930;stroke-width:1.0;" width="6" x="15" y="277.6863"/><text fill="#000000" font-family="sans-serif" font-size="14" lengthAdjust="spacing" textLength="60" x="27" y="284.4773">config: T</text><rect fill="none" height="6" style="stroke:#C82930;stroke-width:1.0;" width="6" x="15" y="294.1746"/><text fill="#000000" font-family="sans-serif" font-size="14" lengthAdjust="spacing" textLength="112" x="27" y="300.9656">sampleConfig: T</text><rect fill="none" height="6" style="stroke:#C82930;stroke-width:1.0;" width="6" x="15" y="310.6629"/><text fill="#000000" font-family="sans-serif" font-size="14" lengthAdjust="spacing" textLength="198" x="27" y="317.4539">objectMapper: ObjectMapper</text><rect fill="none" height="6" style="stroke:#C82930;stroke-width:1.0;" width="6" x="15" y="327.1512"/><text fill="#000000" font-family="sans-serif" font-size="14" lengthAdjust="spacing" textLength="268" x="27" y="333.9422">settingsManager: SettingsManager&lt;T&gt;</text><rect fill="none" height="6" style="stroke:#C82930;stroke-width:1.0;" width="6" x="15" y="343.6395"/><text fill="#000000" font-family="sans-serif" font-size="14" lengthAdjust="spacing" textLength="90" x="27" y="350.4305">domain: Path</text><rect fill="none" height="6" style="stroke:#C82930;stroke-width:1.0;" width="6" x="15" y="360.1277"/><text fill="#000000" font-family="sans-serif" font-size="14" lengthAdjust="spacing" textLength="84" x="27" y="366.9188">cluster: Path</text><rect fill="none" height="6" style="stroke:#C82930;stroke-width:1.0;" width="6" x="15" y="376.616"/><text fill="#000000" font-family="sans-serif" font-size="14" lengthAdjust="spacing" textLength="80" x="27" y="383.407">server: Path</text><rect fill="none" height="6" style="stroke:#C82930;stroke-width:1.0;" width="6" x="15" y="393.1043"/><text fill="#000000" font-family="sans-serif" font-size="14" lengthAdjust="spacing" textLength="207" x="27" y="399.8953">bufferedWriter: BufferedWriter</text><line style="stroke:#181818;stroke-width:0.5;" x1="8" x2="488" y1="406.8484" y2="406.8484"/><ellipse cx="18" cy="420.5926" fill="#84BE84" rx="3" ry="3" style="stroke:#038048;stroke-width:1.0;"/><text fill="#000000" font-family="sans-serif" font-size="14" lengthAdjust="spacing" textLength="456" x="27" y="424.3836">Settings(Class&lt;T&gt;, SettingsManager&lt;T&gt;, String, ObjectMapper, T)</text><ellipse cx="18" cy="437.0809" fill="#84BE84" rx="3" ry="3" style="stroke:#038048;stroke-width:1.0;"/><text fill="#000000" font-family="sans-serif" font-size="14" lengthAdjust="spacing" textLength="145" x="27" y="440.8719">getConfiguration(): T</text><ellipse cx="18" cy="453.5691" fill="#84BE84" rx="3" ry="3" style="stroke:#038048;stroke-width:1.0;"/><text fill="#000000" font-family="sans-serif" font-size="14" lengthAdjust="spacing" textLength="199" x="27" y="457.3602">getLastModified(String): long</text><ellipse cx="18" cy="470.0574" fill="#84BE84" rx="3" ry="3" style="stroke:#038048;stroke-width:1.0;"/><text fill="#000000" font-family="sans-serif" font-size="14" lengthAdjust="spacing" textLength="123" x="27" y="473.8484">open(String): void</text><ellipse cx="18" cy="486.5457" fill="#84BE84" rx="3" ry="3" style="stroke:#038048;stroke-width:1.0;"/><text fill="#000000" font-family="sans-serif" font-size="14" lengthAdjust="spacing" textLength="82" x="27" y="490.3367">close(): void</text><ellipse cx="18" cy="503.034" fill="#84BE84" rx="3" ry="3" style="stroke:#038048;stroke-width:1.0;"/><text fill="#000000" font-family="sans-serif" font-size="14" lengthAdjust="spacing" textLength="122" x="27" y="506.825">write(String): void</text><ellipse cx="18" cy="519.5223" fill="#84BE84" rx="3" ry="3" style="stroke:#038048;stroke-width:1.0;"/><text fill="#000000" font-family="sans-serif" font-size="14" lengthAdjust="spacing" textLength="91" x="27" y="523.3133">reload(): void</text></g></a><!--class org.vorpal.blade.framework.config.SettingsMXBean--><a href="SettingsMXBean.html" target="_top" title="SettingsMXBean.html" xlink:actuate="onRequest" xlink:href="SettingsMXBean.html" xlink:show="new" xlink:title="SettingsMXBean.html" xlink:type="simple"><g id="elem_org.vorpal.blade.framework.config.SettingsMXBean"><rect codeLine="25" fill="#F1F1F1" height="128.707" id="org.vorpal.blade.framework.config.SettingsMXBean" rx="2.5" ry="2.5" style="stroke:#181818;stroke-width:0.5;" width="225" x="135.5" y="7"/><ellipse cx="161.75" cy="26.1328" fill="#B4A7E5" rx="11" ry="11" style="stroke:#181818;stroke-width:1.0;"/><path d="M158.1777,22.3979 L158.1777,20.2397 L165.5571,20.2397 L165.5571,22.3979 L163.0918,22.3979 L163.0918,30.4746 L165.5571,30.4746 L165.5571,32.6328 L158.1777,32.6328 L158.1777,30.4746 L160.6431,30.4746 L160.6431,22.3979 Z " fill="#000000"/><text fill="#000000" font-family="sans-serif" font-size="14" font-style="italic" lengthAdjust="spacing" textLength="109" x="207.75" y="25.5352">SettingsMXBean</text><text fill="#000000" font-family="sans-serif" font-size="10" font-style="italic" lengthAdjust="spacing" textLength="168" x="178.25" y="38.1563">org.vorpal.blade.framework.config</text><line style="stroke:#181818;stroke-width:0.5;" x1="136.5" x2="359.5" y1="45.2656" y2="45.2656"/><ellipse cx="146.5" cy="59.0098" fill="#84BE84" rx="3" ry="3" style="stroke:#038048;stroke-width:1.0;"/><text fill="#000000" font-family="sans-serif" font-size="14" font-style="italic" lengthAdjust="spacing" textLength="199" x="155.5" y="62.8008">getLastModified(String): long</text><ellipse cx="146.5" cy="75.498" fill="#84BE84" rx="3" ry="3" style="stroke:#038048;stroke-width:1.0;"/><text fill="#000000" font-family="sans-serif" font-size="14" font-style="italic" lengthAdjust="spacing" textLength="123" x="155.5" y="79.2891">open(String): void</text><ellipse cx="146.5" cy="91.9863" fill="#84BE84" rx="3" ry="3" style="stroke:#038048;stroke-width:1.0;"/><text fill="#000000" font-family="sans-serif" font-size="14" font-style="italic" lengthAdjust="spacing" textLength="122" x="155.5" y="95.7773">write(String): void</text><ellipse cx="146.5" cy="108.4746" fill="#84BE84" rx="3" ry="3" style="stroke:#038048;stroke-width:1.0;"/><text fill="#000000" font-family="sans-serif" font-size="14" font-style="italic" lengthAdjust="spacing" textLength="82" x="155.5" y="112.2656">close(): void</text><ellipse cx="146.5" cy="124.9629" fill="#84BE84" rx="3" ry="3" style="stroke:#038048;stroke-width:1.0;"/><text fill="#000000" font-family="sans-serif" font-size="14" font-style="italic" lengthAdjust="spacing" textLength="91" x="155.5" y="128.7539">reload(): void</text></g></a><!--reverse link org.vorpal.blade.framework.config.SettingsMXBean to org.vorpal.blade.framework.config.Settings--><g id="link_org.vorpal.blade.framework.config.SettingsMXBean_org.vorpal.blade.framework.config.Settings"><path codeLine="33" d="M248,153.91 C248,171.9 248,174.35 248,195.44 " fill="none" id="org.vorpal.blade.framework.config.SettingsMXBean-backto-org.vorpal.blade.framework.config.Settings" style="stroke:#181818;stroke-width:1.0;stroke-dasharray:7.0,7.0;"/><polygon fill="none" points="248,135.91,242,153.91,254,153.91,248,135.91" style="stroke:#181818;stroke-width:1.0;"/></g><text fill="#888888" font-family="sans-serif" font-size="10" lengthAdjust="spacing" textLength="176" x="155" y="545.9344">UMLDoclet 2.1.2, PlantUML 1.2024.3</text><!--SRC=[jLHTJzim57tVhxX2GYfQiG3jAQhw07ji158xRHBZuJQ-IJqSNyjsYoZZlyz9wEAiXOs7vSNokL_7noS60F0Km61Dtc91SxBeCB03muO-n32ib2IWseP7A1LfwVz4QmehZd2B5ngzXwE9LrlApZzDvnI2CfN_RbwWiocxIcpOMTHYgL6IA5qS_y3kNXHiIbKT0NhuQvROjPuifd1xkzk9LQZrtHqyjNIQxzGhE-Eg8fT1j_QXI7UxpU2gOHtx985sHWQBf0tMLjFLVe2NFwW8ELhRZBXETadn2xqS3RPCvaDWC5noZSfaS8DXbN9T-z2K3c5FRhEFBjTbIOxaLwVQcil1_dVUnnsDqKw2yG5c4GikGkF1uSQmEEaRLHGwQTRHFuhDw2JLg0dFq8USfOekagEkOSpHRAe-ZIsPFhPX9VjOeTdJQ0z-Q4xqMeqZpIW7HS-TKPM9EfJHyWVCcd-x93J_qRBTWCIr7R3ltITS-k2m2C__Ac5QyOQQQTfR2gPvXoyWpNXTxdThC_afn3kgkiU7cak5ahbPlkIpprpe-BnTY7DnCOORZIP458xZ3-DRZ_u2]--></g></svg>