<?xml version="1.0" encoding="us-ascii" standalone="no"?><svg xmlns="http://www.w3.org/2000/svg" xmlns:xlink="http://www.w3.org/1999/xlink" contentStyleType="text/css" height="1110px" preserveAspectRatio="none" style="width:510px;height:1110px;background:#FFFFFF;" version="1.1" viewBox="0 0 510 1110" width="510px" zoomAndPan="magnify"><defs/><g><!--class org.vorpal.blade.framework.config.SettingsManager--><a href="SettingsManager.html" target="_top" title="SettingsManager.html" xlink:actuate="onRequest" xlink:href="SettingsManager.html" xlink:show="new" xlink:title="SettingsManager.html" xlink:type="simple"><g id="elem_org.vorpal.blade.framework.config.SettingsManager"><rect codeLine="5" fill="#F1F1F1" height="1076.5391" id="org.vorpal.blade.framework.config.SettingsManager" rx="2.5" ry="2.5" style="stroke:#181818;stroke-width:0.5;" width="489" x="7" y="7"/><ellipse cx="157.25" cy="26.1328" fill="#ADD1B2" rx="11" ry="11" style="stroke:#181818;stroke-width:1.0;"/><path d="M159.7231,32.2759 Q159.1421,32.5747 158.5029,32.7241 Q157.8638,32.8735 157.1582,32.8735 Q154.6514,32.8735 153.3315,31.2217 Q152.0117,29.5698 152.0117,26.4487 Q152.0117,23.3193 153.3315,21.6675 Q154.6514,20.0156 157.1582,20.0156 Q157.8638,20.0156 158.5112,20.165 Q159.1587,20.3145 159.7231,20.6133 L159.7231,23.3359 Q159.0923,22.7549 158.4988,22.4851 Q157.9053,22.2153 157.2744,22.2153 Q155.9297,22.2153 155.2449,23.282 Q154.5601,24.3486 154.5601,26.4487 Q154.5601,28.5405 155.2449,29.6072 Q155.9297,30.6738 157.2744,30.6738 Q157.9053,30.6738 158.4988,30.4041 Q159.0923,30.1343 159.7231,29.5532 Z " fill="#000000"/><text fill="#000000" font-family="sans-serif" font-size="14" lengthAdjust="spacing" textLength="115" x="204.25" y="25.5352">SettingsManager</text><text fill="#000000" font-family="sans-serif" font-size="10" lengthAdjust="spacing" textLength="168" x="177.75" y="38.1563">org.vorpal.blade.framework.config</text><rect fill="#FFFFFF" height="16.1328" style="stroke:#181818;stroke-width:1.0;stroke-dasharray:2.0,2.0;" width="10" x="489" y="4"/><text fill="#000000" font-family="sans-serif" font-size="12" font-style="italic" lengthAdjust="spacing" textLength="8" x="490" y="16.6016">T</text><line style="stroke:#181818;stroke-width:0.5;" x1="8" x2="495" y1="45.2656" y2="45.2656"/><polygon fill="none" points="18,54.0098,22,58.0098,18,62.0098,14,58.0098" style="stroke:#B38D22;stroke-width:1.0;"/><text fill="#000000" font-family="sans-serif" font-size="14" lengthAdjust="spacing" textLength="66" x="27" y="62.8008">sample: T</text><polygon fill="none" points="18,70.498,22,74.498,18,78.498,14,74.498" style="stroke:#B38D22;stroke-width:1.0;"/><text fill="#000000" font-family="sans-serif" font-size="14" lengthAdjust="spacing" textLength="67" x="27" y="79.2891">current: T</text><polygon fill="none" points="18,86.9863,22,90.9863,18,94.9863,14,90.9863" style="stroke:#B38D22;stroke-width:1.0;"/><text fill="#000000" font-family="sans-serif" font-size="14" lengthAdjust="spacing" textLength="172" x="27" y="95.7773">objectName: ObjectName</text><polygon fill="none" points="18,103.4746,22,107.4746,18,111.4746,14,107.4746" style="stroke:#B38D22;stroke-width:1.0;"/><text fill="#000000" font-family="sans-serif" font-size="14" lengthAdjust="spacing" textLength="138" x="27" y="112.2656">server: MBeanServer</text><polygon fill="none" points="18,119.9629,22,123.9629,18,127.9629,14,123.9629" style="stroke:#B38D22;stroke-width:1.0;"/><text fill="#000000" font-family="sans-serif" font-size="14" lengthAdjust="spacing" textLength="157" x="27" y="128.7539">mapper: ObjectMapper</text><polygon fill="none" points="18,136.4512,22,140.4512,18,144.4512,14,140.4512" style="stroke:#B38D22;stroke-width:1.0;"/><text fill="#000000" font-family="sans-serif" font-size="14" lengthAdjust="spacing" textLength="110" x="27" y="145.2422">clazz: Class&lt;T&gt;</text><polygon fill="none" points="18,152.9395,22,156.9395,18,160.9395,14,156.9395" style="stroke:#B38D22;stroke-width:1.0;"/><text fill="#000000" font-family="sans-serif" font-size="14" lengthAdjust="spacing" textLength="122" x="27" y="161.7305">oi: ObjectInstance</text><polygon fill="none" points="18,169.4277,22,173.4277,18,177.4277,14,173.4277" style="stroke:#B38D22;stroke-width:1.0;"/><text fill="#000000" font-family="sans-serif" font-size="14" lengthAdjust="spacing" textLength="148" x="27" y="178.2188">settings: Settings&lt;T&gt;</text><polygon fill="none" points="18,185.916,22,189.916,18,193.916,14,189.916" style="stroke:#B38D22;stroke-width:1.0;"/><text fill="#000000" font-family="sans-serif" font-size="14" lengthAdjust="spacing" text-decoration="underline" textLength="130" x="27" y="194.707">serverName: String</text><polygon fill="none" points="18,202.4043,22,206.4043,18,210.4043,14,206.4043" style="stroke:#B38D22;stroke-width:1.0;"/><text fill="#000000" font-family="sans-serif" font-size="14" lengthAdjust="spacing" text-decoration="underline" textLength="134" x="27" y="211.1953">clusterName: String</text><polygon fill="none" points="18,218.8926,22,222.8926,18,226.8926,14,222.8926" style="stroke:#B38D22;stroke-width:1.0;"/><text fill="#000000" font-family="sans-serif" font-size="14" lengthAdjust="spacing" textLength="188" x="27" y="227.6836">servletContextName: String</text><polygon fill="none" points="18,235.3809,22,239.3809,18,243.3809,14,239.3809" style="stroke:#B38D22;stroke-width:1.0;"/><text fill="#000000" font-family="sans-serif" font-size="14" lengthAdjust="spacing" textLength="120" x="27" y="244.1719">domainPath: Path</text><polygon fill="none" points="18,251.8691,22,255.8691,18,259.8691,14,255.8691" style="stroke:#B38D22;stroke-width:1.0;"/><text fill="#000000" font-family="sans-serif" font-size="14" lengthAdjust="spacing" textLength="114" x="27" y="260.6602">clusterPath: Path</text><polygon fill="none" points="18,268.3574,22,272.3574,18,276.3574,14,272.3574" style="stroke:#B38D22;stroke-width:1.0;"/><text fill="#000000" font-family="sans-serif" font-size="14" lengthAdjust="spacing" textLength="110" x="27" y="277.1484">serverPath: Path</text><polygon fill="none" points="18,284.8457,22,288.8457,18,292.8457,14,288.8457" style="stroke:#B38D22;stroke-width:1.0;"/><text fill="#000000" font-family="sans-serif" font-size="14" lengthAdjust="spacing" textLength="120" x="27" y="293.6367">schemaPath: Path</text><polygon fill="none" points="18,301.334,22,305.334,18,309.334,14,305.334" style="stroke:#B38D22;stroke-width:1.0;"/><text fill="#000000" font-family="sans-serif" font-size="14" lengthAdjust="spacing" textLength="117" x="27" y="310.125">samplePath: Path</text><ellipse cx="18" cy="322.8223" fill="none" rx="3" ry="3" style="stroke:#038048;stroke-width:1.0;"/><text fill="#000000" font-family="sans-serif" font-size="14" lengthAdjust="spacing" text-decoration="underline" textLength="149" x="27" y="326.6133">sipFactory: SipFactory</text><ellipse cx="18" cy="339.3105" fill="none" rx="3" ry="3" style="stroke:#038048;stroke-width:1.0;"/><text fill="#000000" font-family="sans-serif" font-size="14" lengthAdjust="spacing" text-decoration="underline" textLength="154" x="27" y="343.1016">sipUtil: SipSessionsUtil</text><ellipse cx="18" cy="355.7988" fill="none" rx="3" ry="3" style="stroke:#038048;stroke-width:1.0;"/><text fill="#000000" font-family="sans-serif" font-size="14" lengthAdjust="spacing" text-decoration="underline" textLength="124" x="27" y="359.5898">sipLogger: Logger</text><polygon fill="none" points="18,367.2871,22,371.2871,18,375.2871,14,371.2871" style="stroke:#B38D22;stroke-width:1.0;"/><text fill="#000000" font-family="sans-serif" font-size="14" lengthAdjust="spacing" textLength="161" x="27" y="376.0781">domainNode: JsonNode</text><polygon fill="none" points="18,383.7754,22,387.7754,18,391.7754,14,387.7754" style="stroke:#B38D22;stroke-width:1.0;"/><text fill="#000000" font-family="sans-serif" font-size="14" lengthAdjust="spacing" textLength="155" x="27" y="392.5664">clusterNode: JsonNode</text><polygon fill="none" points="18,400.2637,22,404.2637,18,408.2637,14,404.2637" style="stroke:#B38D22;stroke-width:1.0;"/><text fill="#000000" font-family="sans-serif" font-size="14" lengthAdjust="spacing" textLength="151" x="27" y="409.0547">serverNode: JsonNode</text><polygon fill="none" points="18,416.752,22,420.752,18,424.752,14,420.752" style="stroke:#B38D22;stroke-width:1.0;"/><text fill="#000000" font-family="sans-serif" font-size="14" lengthAdjust="spacing" textLength="162" x="27" y="425.543">mergedNode: JsonNode</text><line style="stroke:#181818;stroke-width:0.5;" x1="8" x2="495" y1="432.4961" y2="432.4961"/><ellipse cx="18" cy="446.2402" fill="#84BE84" rx="3" ry="3" style="stroke:#038048;stroke-width:1.0;"/><text fill="#000000" font-family="sans-serif" font-size="14" lengthAdjust="spacing" textLength="125" x="27" y="450.0313">SettingsManager()</text><ellipse cx="18" cy="462.7285" fill="#84BE84" rx="3" ry="3" style="stroke:#038048;stroke-width:1.0;"/><text fill="#000000" font-family="sans-serif" font-size="14" lengthAdjust="spacing" textLength="345" x="27" y="466.5195">SettingsManager(String, Class&lt;T&gt;, ObjectMapper)</text><ellipse cx="18" cy="479.2168" fill="#84BE84" rx="3" ry="3" style="stroke:#038048;stroke-width:1.0;"/><text fill="#000000" font-family="sans-serif" font-size="14" lengthAdjust="spacing" textLength="241" x="27" y="483.0078">SettingsManager(String, Class&lt;T&gt;)</text><ellipse cx="18" cy="495.7051" fill="#84BE84" rx="3" ry="3" style="stroke:#038048;stroke-width:1.0;"/><text fill="#000000" font-family="sans-serif" font-size="14" lengthAdjust="spacing" textLength="258" x="27" y="499.4961">SettingsManager(String, Class&lt;T&gt;, T)</text><ellipse cx="18" cy="512.1934" fill="#84BE84" rx="3" ry="3" style="stroke:#038048;stroke-width:1.0;"/><text fill="#000000" font-family="sans-serif" font-size="14" lengthAdjust="spacing" textLength="463" x="27" y="515.9844">SettingsManager(SipServletContextEvent, Class&lt;T&gt;, ObjectMapper)</text><ellipse cx="18" cy="528.6816" fill="#84BE84" rx="3" ry="3" style="stroke:#038048;stroke-width:1.0;"/><text fill="#000000" font-family="sans-serif" font-size="14" lengthAdjust="spacing" textLength="442" x="27" y="532.4727">SettingsManager(ServletContextEvent, Class&lt;T&gt;, ObjectMapper)</text><ellipse cx="18" cy="545.1699" fill="#84BE84" rx="3" ry="3" style="stroke:#038048;stroke-width:1.0;"/><text fill="#000000" font-family="sans-serif" font-size="14" lengthAdjust="spacing" textLength="359" x="27" y="548.9609">SettingsManager(SipServletContextEvent, Class&lt;T&gt;)</text><ellipse cx="18" cy="561.6582" fill="#84BE84" rx="3" ry="3" style="stroke:#038048;stroke-width:1.0;"/><text fill="#000000" font-family="sans-serif" font-size="14" lengthAdjust="spacing" textLength="338" x="27" y="565.4492">SettingsManager(ServletContextEvent, Class&lt;T&gt;)</text><ellipse cx="18" cy="578.1465" fill="#84BE84" rx="3" ry="3" style="stroke:#038048;stroke-width:1.0;"/><text fill="#000000" font-family="sans-serif" font-size="14" lengthAdjust="spacing" textLength="376" x="27" y="581.9375">SettingsManager(SipServletContextEvent, Class&lt;T&gt;, T)</text><ellipse cx="18" cy="594.6348" fill="#84BE84" rx="3" ry="3" style="stroke:#038048;stroke-width:1.0;"/><text fill="#000000" font-family="sans-serif" font-size="14" lengthAdjust="spacing" textLength="355" x="27" y="598.4258">SettingsManager(ServletContextEvent, Class&lt;T&gt;, T)</text><ellipse cx="18" cy="611.123" fill="#84BE84" rx="3" ry="3" style="stroke:#038048;stroke-width:1.0;"/><text fill="#000000" font-family="sans-serif" font-size="14" lengthAdjust="spacing" text-decoration="underline" textLength="182" x="27" y="614.9141">getSipFactory(): SipFactory</text><ellipse cx="18" cy="627.6113" fill="#84BE84" rx="3" ry="3" style="stroke:#038048;stroke-width:1.0;"/><text fill="#000000" font-family="sans-serif" font-size="14" lengthAdjust="spacing" text-decoration="underline" textLength="187" x="27" y="631.4023">getSipUtil(): SipSessionsUtil</text><ellipse cx="18" cy="644.0996" fill="#84BE84" rx="3" ry="3" style="stroke:#038048;stroke-width:1.0;"/><text fill="#000000" font-family="sans-serif" font-size="14" lengthAdjust="spacing" text-decoration="underline" textLength="157" x="27" y="647.8906">getSipLogger(): Logger</text><ellipse cx="18" cy="660.5879" fill="#84BE84" rx="3" ry="3" style="stroke:#038048;stroke-width:1.0;"/><text fill="#000000" font-family="sans-serif" font-size="14" lengthAdjust="spacing" text-decoration="underline" textLength="184" x="27" y="664.3789">setSipLogger(Logger): void</text><ellipse cx="18" cy="677.0762" fill="#84BE84" rx="3" ry="3" style="stroke:#038048;stroke-width:1.0;"/><text fill="#000000" font-family="sans-serif" font-size="14" lengthAdjust="spacing" textLength="163" x="27" y="680.8672">getDomainJson(): String</text><ellipse cx="18" cy="693.5645" fill="#84BE84" rx="3" ry="3" style="stroke:#038048;stroke-width:1.0;"/><text fill="#000000" font-family="sans-serif" font-size="14" lengthAdjust="spacing" textLength="190" x="27" y="697.3555">setDomainJson(String): void</text><ellipse cx="18" cy="710.0527" fill="#84BE84" rx="3" ry="3" style="stroke:#038048;stroke-width:1.0;"/><text fill="#000000" font-family="sans-serif" font-size="14" lengthAdjust="spacing" textLength="153" x="27" y="713.8438">getServerJson(): String</text><ellipse cx="18" cy="726.541" fill="#84BE84" rx="3" ry="3" style="stroke:#038048;stroke-width:1.0;"/><text fill="#000000" font-family="sans-serif" font-size="14" lengthAdjust="spacing" textLength="180" x="27" y="730.332">setServerJson(String): void</text><ellipse cx="18" cy="743.0293" fill="#84BE84" rx="3" ry="3" style="stroke:#038048;stroke-width:1.0;"/><text fill="#000000" font-family="sans-serif" font-size="14" lengthAdjust="spacing" textLength="159" x="27" y="746.8203">getClusterJson(): String</text><ellipse cx="18" cy="759.5176" fill="#84BE84" rx="3" ry="3" style="stroke:#038048;stroke-width:1.0;"/><text fill="#000000" font-family="sans-serif" font-size="14" lengthAdjust="spacing" textLength="186" x="27" y="763.3086">setClusterJson(String): void</text><ellipse cx="18" cy="776.0059" fill="#84BE84" rx="3" ry="3" style="stroke:#038048;stroke-width:1.0;"/><text fill="#000000" font-family="sans-serif" font-size="14" lengthAdjust="spacing" textLength="302" x="27" y="779.7969">build(String, Class&lt;T&gt;, ObjectMapper): void</text><ellipse cx="18" cy="792.4941" fill="#84BE84" rx="3" ry="3" style="stroke:#038048;stroke-width:1.0;"/><text fill="#000000" font-family="sans-serif" font-size="14" lengthAdjust="spacing" textLength="114" x="27" y="796.2852">initialize(T): void</text><ellipse cx="18" cy="808.9824" fill="#84BE84" rx="3" ry="3" style="stroke:#038048;stroke-width:1.0;"/><text fill="#000000" font-family="sans-serif" font-size="14" lengthAdjust="spacing" textLength="100" x="27" y="812.7734">register(): void</text><ellipse cx="18" cy="825.4707" fill="#84BE84" rx="3" ry="3" style="stroke:#038048;stroke-width:1.0;"/><text fill="#000000" font-family="sans-serif" font-size="14" lengthAdjust="spacing" textLength="118" x="27" y="829.2617">unregister(): void</text><ellipse cx="18" cy="841.959" fill="#84BE84" rx="3" ry="3" style="stroke:#038048;stroke-width:1.0;"/><text fill="#000000" font-family="sans-serif" font-size="14" lengthAdjust="spacing" textLength="139" x="27" y="845.75">saveSchema(T): void</text><ellipse cx="18" cy="858.4473" fill="#84BE84" rx="3" ry="3" style="stroke:#038048;stroke-width:1.0;"/><text fill="#000000" font-family="sans-serif" font-size="14" lengthAdjust="spacing" textLength="156" x="27" y="862.2383">saveConfigFile(T): void</text><ellipse cx="18" cy="874.9355" fill="#84BE84" rx="3" ry="3" style="stroke:#038048;stroke-width:1.0;"/><text fill="#000000" font-family="sans-serif" font-size="14" lengthAdjust="spacing" textLength="102" x="27" y="878.7266">getCurrent(): T</text><ellipse cx="18" cy="891.4238" fill="#84BE84" rx="3" ry="3" style="stroke:#038048;stroke-width:1.0;"/><text fill="#000000" font-family="sans-serif" font-size="14" lengthAdjust="spacing" textLength="120" x="27" y="895.2148">getName(): String</text><ellipse cx="18" cy="907.9121" fill="#84BE84" rx="3" ry="3" style="stroke:#038048;stroke-width:1.0;"/><text fill="#000000" font-family="sans-serif" font-size="14" lengthAdjust="spacing" text-decoration="underline" textLength="169" x="27" y="911.7031">getClusterName(): String</text><ellipse cx="18" cy="924.4004" fill="#84BE84" rx="3" ry="3" style="stroke:#038048;stroke-width:1.0;"/><text fill="#000000" font-family="sans-serif" font-size="14" lengthAdjust="spacing" text-decoration="underline" textLength="196" x="27" y="928.1914">setClusterName(String): void</text><ellipse cx="18" cy="940.8887" fill="#84BE84" rx="3" ry="3" style="stroke:#038048;stroke-width:1.0;"/><text fill="#000000" font-family="sans-serif" font-size="14" lengthAdjust="spacing" textLength="265" x="27" y="944.6797">merge(JsonNode, JsonNode): JsonNode</text><ellipse cx="18" cy="957.377" fill="#84BE84" rx="3" ry="3" style="stroke:#038048;stroke-width:1.0;"/><text fill="#000000" font-family="sans-serif" font-size="14" lengthAdjust="spacing" textLength="221" x="27" y="961.168">getServletContextName(): String</text><ellipse cx="18" cy="973.8652" fill="#84BE84" rx="3" ry="3" style="stroke:#038048;stroke-width:1.0;"/><text fill="#000000" font-family="sans-serif" font-size="14" lengthAdjust="spacing" textLength="248" x="27" y="977.6563">setServletContextName(String): void</text><ellipse cx="18" cy="990.3535" fill="#84BE84" rx="3" ry="3" style="stroke:#038048;stroke-width:1.0;"/><text fill="#000000" font-family="sans-serif" font-size="14" lengthAdjust="spacing" text-decoration="underline" textLength="163" x="27" y="994.1445">getServerName(): String</text><ellipse cx="18" cy="1006.8418" fill="#84BE84" rx="3" ry="3" style="stroke:#038048;stroke-width:1.0;"/><text fill="#000000" font-family="sans-serif" font-size="14" lengthAdjust="spacing" text-decoration="underline" textLength="190" x="27" y="1010.6328">setServerName(String): void</text><ellipse cx="18" cy="1023.3301" fill="#84BE84" rx="3" ry="3" style="stroke:#038048;stroke-width:1.0;"/><text fill="#000000" font-family="sans-serif" font-size="14" lengthAdjust="spacing" textLength="122" x="27" y="1027.1211">logCurrent(): void</text><ellipse cx="18" cy="1039.8184" fill="#84BE84" rx="3" ry="3" style="stroke:#038048;stroke-width:1.0;"/><text fill="#000000" font-family="sans-serif" font-size="14" lengthAdjust="spacing" textLength="188" x="27" y="1043.6094">getMapper(): ObjectMapper</text><ellipse cx="18" cy="1056.3066" fill="#84BE84" rx="3" ry="3" style="stroke:#038048;stroke-width:1.0;"/><text fill="#000000" font-family="sans-serif" font-size="14" lengthAdjust="spacing" textLength="215" x="27" y="1060.0977">setMapper(ObjectMapper): void</text><ellipse cx="18" cy="1072.7949" fill="#84BE84" rx="3" ry="3" style="stroke:#038048;stroke-width:1.0;"/><text fill="#000000" font-family="sans-serif" font-size="14" lengthAdjust="spacing" text-decoration="underline" textLength="170" x="27" y="1076.5859">basename(String): String</text></g></a><text fill="#888888" font-family="sans-serif" font-size="10" lengthAdjust="spacing" textLength="176" x="163" y="1100.207">UMLDoclet 2.1.2, PlantUML 1.2024.3</text><!--SRC=[hLPRRzem57xVhx0wJG8LHMkrfwZYONILDfMkKjAdhWycEGHlZXtPXgrK_U_p1H8dE4Hbuu4uv_jyRZxdE0WX944XXakG5SuWWGeBhBX0Z3Dufs6q8ZaWA2lrZ9O4Q2wxqXBKYcknbMSKIudEhYJPGdpnQPg0KeGLSeuPBa3yO3lauvIB8jfmKM4QBIZE8LeAxSLlBdv56MTBKfmXBD4WA-fOk4gdwF6n8unMggHFJ-Z5-cX-xoKkAmenIXjHjXO2c6h9-E8dPEfEsupHzthjgG6n0H6Z-MV0BB4l3LZYgZAWspYtRvuvYhVR6CrCnhJNdasot_ALIOLPrhBd0elHFaH_wukcAvAzxlroVYTAQ6A0bD6rL3qigu62cd6cu8yASt9UOiBkiLh5oFpxmLdL8SYv5aIo5PGuYDZJ2Y1rCEUIL3SuqwNxhFsirs7YWoBKiXAGad0cZI1ClUL5OSxGFRkXt_5Sf-MRv7Pr47uVl3kT7hG4KK3UWvvtIdiqxeVSSKtg4fkqAl4D6zza8pt6DYdtw-hBHdVSAHx-7oq3xfpgm3zb83qzR6zhKyG5gAOVHkE1xd1iqmyxwa2BEBxh3hEZqoTUB_b4zz3q3ITv4wvMTctxofIzjTyUE4Q9Ht1eI8kRn4UqU8H-BJFNnKVK-8mUFOireVbGAtOt4KOKmLHVbQFq01HG46DrT82iMJycyGOIEs03AWqui_Vf3Q4XcoORxdeqcjCMOEw6G7vQDJ9hhfgZLDcczkJKJiZHVZPEwYav3WtCNJcqxx8ZPT4XXbreDq1zsGx5vZ5xGgEyy19zS0YkNWmK_AWmDdQKO_NL-BJ04bZB7S_zL_T9ftq1WPQScyV3_FQQPpf7w3AwY2udw9vYfhGKVT2HcKan6ly5]--></g></svg>