<?xml version="1.0" encoding="us-ascii" standalone="no"?><svg xmlns="http://www.w3.org/2000/svg" xmlns:xlink="http://www.w3.org/1999/xlink" contentStyleType="text/css" height="292px" preserveAspectRatio="none" style="width:319px;height:292px;background:#FFFFFF;" version="1.1" viewBox="0 0 319 292" width="319px" zoomAndPan="magnify"><defs/><g><!--class org.vorpal.blade.services.proxy.registrar.RegisterCallflow--><a href="RegisterCallflow.html" target="_top" title="RegisterCallflow.html" xlink:actuate="onRequest" xlink:href="RegisterCallflow.html" xlink:show="new" xlink:title="RegisterCallflow.html" xlink:type="simple"><g id="elem_org.vorpal.blade.services.proxy.registrar.RegisterCallflow"><rect codeLine="5" fill="#F1F1F1" height="136.707" id="org.vorpal.blade.services.proxy.registrar.RegisterCallflow" rx="2.5" ry="2.5" style="stroke:#181818;stroke-width:0.5;" width="303" x="9" y="129.75"/><ellipse cx="58.25" cy="148.8828" fill="#ADD1B2" rx="11" ry="11" style="stroke:#181818;stroke-width:1.0;"/><path d="M60.7231,155.0259 Q60.1421,155.3247 59.5029,155.4741 Q58.8638,155.6235 58.1582,155.6235 Q55.6514,155.6235 54.3315,153.9717 Q53.0117,152.3198 53.0117,149.1987 Q53.0117,146.0693 54.3315,144.4175 Q55.6514,142.7656 58.1582,142.7656 Q58.8638,142.7656 59.5112,142.915 Q60.1587,143.0645 60.7231,143.3633 L60.7231,146.0859 Q60.0923,145.5049 59.4988,145.2351 Q58.9053,144.9653 58.2744,144.9653 Q56.9297,144.9653 56.2449,146.032 Q55.5601,147.0986 55.5601,149.1987 Q55.5601,151.2905 56.2449,152.3572 Q56.9297,153.4238 58.2744,153.4238 Q58.9053,153.4238 59.4988,153.1541 Q60.0923,152.8843 60.7231,152.3032 Z " fill="#000000"/><text fill="#000000" font-family="sans-serif" font-size="14" lengthAdjust="spacing" textLength="111" x="121.25" y="148.2852">RegisterCallflow</text><text fill="#000000" font-family="sans-serif" font-size="10" lengthAdjust="spacing" textLength="196" x="78.75" y="160.9062">org.vorpal.blade.services.proxy.registrar</text><line style="stroke:#181818;stroke-width:0.5;" x1="10" x2="311" y1="168.0156" y2="168.0156"/><rect fill="none" height="6" style="stroke:#C82930;stroke-width:1.0;" width="6" x="17" y="178.7598"/><text fill="#000000" font-family="sans-serif" font-size="14" lengthAdjust="spacing" text-decoration="underline" textLength="152" x="29" y="185.5508">serialVersionUID: long</text><polygon fill="none" points="20,194.248,16,200.248,24,200.248" style="stroke:#1963A0;stroke-width:1.0;"/><text fill="#000000" font-family="sans-serif" font-size="14" lengthAdjust="spacing" textLength="211" x="29" y="202.0391">proxyRegistrar: ProxyRegistrar</text><rect fill="none" height="6" style="stroke:#C82930;stroke-width:1.0;" width="6" x="17" y="211.7363"/><text fill="#000000" font-family="sans-serif" font-size="14" lengthAdjust="spacing" textLength="218" x="29" y="218.5273">settings: ProxyRegistrarSettings</text><line style="stroke:#181818;stroke-width:0.5;" x1="10" x2="311" y1="225.4805" y2="225.4805"/><ellipse cx="20" cy="239.2246" fill="#84BE84" rx="3" ry="3" style="stroke:#038048;stroke-width:1.0;"/><text fill="#000000" font-family="sans-serif" font-size="14" lengthAdjust="spacing" textLength="277" x="29" y="243.0156">RegisterCallflow(ProxyRegistrarSettings)</text><ellipse cx="20" cy="255.7129" fill="#84BE84" rx="3" ry="3" style="stroke:#038048;stroke-width:1.0;"/><text fill="#000000" font-family="sans-serif" font-size="14" lengthAdjust="spacing" textLength="222" x="29" y="259.5039">process(SipServletRequest): void</text></g></a><!--class org.vorpal.blade.framework.callflow.Callflow--><a href="https://vorpalnet.github.io/blade/vorpal-blade-library-framework/org/vorpal/blade/framework/callflow/Callflow.html?is-external=true" target="_top" title="https://vorpalnet.github.io/blade/vorpal-blade-library-framework/org/vorpal/blade/framework/callflow/Callflow.html?is-external=true" xlink:actuate="onRequest" xlink:href="https://vorpalnet.github.io/blade/vorpal-blade-library-framework/org/vorpal/blade/framework/callflow/Callflow.html?is-external=true" xlink:show="new" xlink:title="https://vorpalnet.github.io/blade/vorpal-blade-library-framework/org/vorpal/blade/framework/callflow/Callflow.html?is-external=true" xlink:type="simple"><g id="elem_org.vorpal.blade.framework.callflow.Callflow"><rect codeLine="13" fill="#F1F1F1" height="62.7539" id="org.vorpal.blade.framework.callflow.Callflow" rx="2.5" ry="2.5" style="stroke:#181818;stroke-width:0.5;" width="248" x="36.5" y="7"/><ellipse cx="69.5" cy="26.1328" fill="#A9DCDF" rx="11" ry="11" style="stroke:#181818;stroke-width:1.0;"/><path d="M69.3633,21.481 L68.2095,26.5527 L70.5254,26.5527 Z M67.8691,19.2397 L70.8657,19.2397 L74.2109,31.6328 L71.7622,31.6328 L70.9985,28.5698 L67.7197,28.5698 L66.9727,31.6328 L64.5239,31.6328 Z " fill="#000000"/><text fill="#000000" font-family="sans-serif" font-size="14" font-style="italic" lengthAdjust="spacing" textLength="55" x="148" y="25.5352">Callflow</text><text fill="#000000" font-family="sans-serif" font-size="10" font-style="italic" lengthAdjust="spacing" textLength="176" x="87.5" y="38.1563">org.vorpal.blade.framework.callflow</text><line style="stroke:#181818;stroke-width:0.5;" x1="37.5" x2="283.5" y1="45.2656" y2="45.2656"/><ellipse cx="47.5" cy="59.0098" fill="#84BE84" rx="3" ry="3" style="stroke:#038048;stroke-width:1.0;"/><text fill="#000000" font-family="sans-serif" font-size="14" font-style="italic" lengthAdjust="spacing" textLength="222" x="56.5" y="62.8008">process(SipServletRequest): void</text></g></a><!--reverse link org.vorpal.blade.framework.callflow.Callflow to org.vorpal.blade.services.proxy.registrar.RegisterCallflow--><g id="link_org.vorpal.blade.framework.callflow.Callflow_org.vorpal.blade.services.proxy.registrar.RegisterCallflow"><path codeLine="17" d="M160.5,88.16 C160.5,105.11 160.5,108.84 160.5,129.52 " fill="none" id="org.vorpal.blade.framework.callflow.Callflow-backto-org.vorpal.blade.services.proxy.registrar.RegisterCallflow" style="stroke:#181818;stroke-width:1.0;"/><polygon fill="none" points="160.5,70.16,154.5,88.16,166.5,88.16,160.5,70.16" style="stroke:#181818;stroke-width:1.0;"/></g><text fill="#888888" font-family="sans-serif" font-size="10" lengthAdjust="spacing" textLength="176" x="64.5" y="282.125">UMLDoclet 2.1.2, PlantUML 1.2024.3</text><!--SRC=[fLDDJm8n4BtxAoOa9X3ThX9F6yI3N4mq8H2ye8Uo3BkDfLqx0uA8lzsoB2WB1uYzD7tpvlDD0G086OmS8sKonYvcqacs3emrUERDaAeX0eupdiD8eHvI6HqZfzR3EHvhIGIL1gbFZAvlcXrC536wUwdrIDkF5rEOhfhM9M9gNIQr66WvH47efYf64fcpixbmkQkJhWAIu6YsAAU4VhyCYPJ7-lKL5ddDgxCWbgpY9GG-hfBw6HqfQteFhGYqDScM-9sdwsooHT3UUMzvFWwpCWcL6Tq2tp8lojLL3plKVZry3RvpgdPLrlLZqCWTV9yWSIs2gLN3dBbSAo87goWnxqbpZ2GZvpVZmxet4HVimsBiyyIVyQVC6KLXk7Ono29Hd4u6GjamzoyiGVu8j1hujkV1DcZeynMKWlzhskGBTxIzKnJWpC_KI7tBReAxOczciZnjb2UrtVWAWdzixVeteV4GZAnTNRsdnvQDVOLG5zUYVWbjBGrx5CwdwtMjrdu0]--></g></svg>