<?xml version="1.0" encoding="us-ascii" standalone="no"?><svg xmlns="http://www.w3.org/2000/svg" xmlns:xlink="http://www.w3.org/1999/xlink" contentStyleType="text/css" height="333px" preserveAspectRatio="none" style="width:541px;height:333px;background:#FFFFFF;" version="1.1" viewBox="0 0 541 333" width="541px" zoomAndPan="magnify"><defs/><g><!--class org.vorpal.blade.framework.callflow.Expectation--><a href="Expectation.html" target="_top" title="Expectation.html" xlink:actuate="onRequest" xlink:href="Expectation.html" xlink:show="new" xlink:title="Expectation.html" xlink:type="simple"><g id="elem_org.vorpal.blade.framework.callflow.Expectation"><rect codeLine="5" fill="#F1F1F1" height="202.6602" id="org.vorpal.blade.framework.callflow.Expectation" rx="2.5" ry="2.5" style="stroke:#181818;stroke-width:0.5;" width="527" x="7" y="105.27"/><ellipse cx="178.25" cy="124.4028" fill="#ADD1B2" rx="11" ry="11" style="stroke:#181818;stroke-width:1.0;"/><path d="M180.7231,130.5459 Q180.1421,130.8447 179.5029,130.9941 Q178.8638,131.1435 178.1582,131.1435 Q175.6514,131.1435 174.3315,129.4917 Q173.0117,127.8398 173.0117,124.7187 Q173.0117,121.5893 174.3315,119.9375 Q175.6514,118.2856 178.1582,118.2856 Q178.8638,118.2856 179.5112,118.435 Q180.1587,118.5845 180.7231,118.8833 L180.7231,121.6059 Q180.0923,121.0249 179.4988,120.7551 Q178.9053,120.4853 178.2744,120.4853 Q176.9297,120.4853 176.2449,121.552 Q175.5601,122.6186 175.5601,124.7187 Q175.5601,126.8105 176.2449,127.8772 Q176.9297,128.9438 178.2744,128.9438 Q178.9053,128.9438 179.4988,128.6741 Q180.0923,128.4043 180.7231,127.8232 Z " fill="#000000"/><text fill="#000000" font-family="sans-serif" font-size="14" lengthAdjust="spacing" textLength="81" x="246.25" y="123.8052">Expectation</text><text fill="#000000" font-family="sans-serif" font-size="10" lengthAdjust="spacing" textLength="176" x="198.75" y="136.4263">org.vorpal.blade.framework.callflow</text><line style="stroke:#181818;stroke-width:0.5;" x1="8" x2="533" y1="143.5356" y2="143.5356"/><rect fill="none" height="6" style="stroke:#C82930;stroke-width:1.0;" width="6" x="15" y="154.2798"/><text fill="#000000" font-family="sans-serif" font-size="14" lengthAdjust="spacing" text-decoration="underline" textLength="152" x="27" y="161.0708">serialVersionUID: long</text><rect fill="none" height="6" style="stroke:#C82930;stroke-width:1.0;" width="6" x="15" y="170.768"/><text fill="#000000" font-family="sans-serif" font-size="14" lengthAdjust="spacing" textLength="237" x="27" y="177.5591">appSession: SipApplicationSession</text><rect fill="none" height="6" style="stroke:#C82930;stroke-width:1.0;" width="6" x="15" y="187.2563"/><text fill="#000000" font-family="sans-serif" font-size="14" lengthAdjust="spacing" textLength="153" x="27" y="194.0473">sipSession: SipSession</text><rect fill="none" height="6" style="stroke:#C82930;stroke-width:1.0;" width="6" x="15" y="203.7446"/><text fill="#000000" font-family="sans-serif" font-size="14" lengthAdjust="spacing" textLength="102" x="27" y="210.5356">method: String</text><rect fill="none" height="6" style="stroke:#C82930;stroke-width:1.0;" width="6" x="15" y="220.2329"/><text fill="#000000" font-family="sans-serif" font-size="14" lengthAdjust="spacing" textLength="265" x="27" y="227.0239">callback: Callback&lt;SipServletRequest&gt;</text><line style="stroke:#181818;stroke-width:0.5;" x1="8" x2="533" y1="233.977" y2="233.977"/><ellipse cx="18" cy="247.7212" fill="#84BE84" rx="3" ry="3" style="stroke:#038048;stroke-width:1.0;"/><text fill="#000000" font-family="sans-serif" font-size="14" lengthAdjust="spacing" textLength="423" x="27" y="251.5122">Expectation(SipSession, String, Callback&lt;SipServletRequest&gt;)</text><ellipse cx="18" cy="264.2095" fill="#84BE84" rx="3" ry="3" style="stroke:#038048;stroke-width:1.0;"/><text fill="#000000" font-family="sans-serif" font-size="14" lengthAdjust="spacing" textLength="501" x="27" y="268.0005">Expectation(SipApplicationSession, String, Callback&lt;SipServletRequest&gt;)</text><ellipse cx="18" cy="280.6977" fill="#84BE84" rx="3" ry="3" style="stroke:#038048;stroke-width:1.0;"/><text fill="#000000" font-family="sans-serif" font-size="14" lengthAdjust="spacing" textLength="80" x="27" y="284.4888">clear(): void</text><ellipse cx="18" cy="297.186" fill="#84BE84" rx="3" ry="3" style="stroke:#038048;stroke-width:1.0;"/><text fill="#000000" font-family="sans-serif" font-size="14" lengthAdjust="spacing" textLength="81" x="27" y="300.977">reset(): void</text></g></a><!--class java.io.Serializable--><a href="https://docs.oracle.com/en/java/javase/11/docs/api/java.base/java/io/Serializable.html?is-external=true" target="_top" title="https://docs.oracle.com/en/java/javase/11/docs/api/java.base/java/io/Serializable.html?is-external=true" xlink:actuate="onRequest" xlink:href="https://docs.oracle.com/en/java/javase/11/docs/api/java.base/java/io/Serializable.html?is-external=true" xlink:show="new" xlink:title="https://docs.oracle.com/en/java/javase/11/docs/api/java.base/java/io/Serializable.html?is-external=true" xlink:type="simple"><g id="elem_java.io.Serializable"><rect codeLine="17" fill="#F1F1F1" height="38.2656" id="java.io.Serializable" rx="2.5" ry="2.5" style="stroke:#181818;stroke-width:0.5;" width="111" x="215" y="7"/><ellipse cx="230" cy="26.1328" fill="#B4A7E5" rx="11" ry="11" style="stroke:#181818;stroke-width:1.0;"/><path d="M226.4277,22.3979 L226.4277,20.2397 L233.8071,20.2397 L233.8071,22.3979 L231.3418,22.3979 L231.3418,30.4746 L233.8071,30.4746 L233.8071,32.6328 L226.4277,32.6328 L226.4277,30.4746 L228.8931,30.4746 L228.8931,22.3979 Z " fill="#000000"/><text fill="#000000" font-family="sans-serif" font-size="14" font-style="italic" lengthAdjust="spacing" textLength="79" x="244" y="25.5352">Serializable</text><text fill="#000000" font-family="sans-serif" font-size="10" font-style="italic" lengthAdjust="spacing" textLength="32" x="267.5" y="38.1563">java.io</text></g></a><!--reverse link java.io.Serializable to org.vorpal.blade.framework.callflow.Expectation--><g id="link_java.io.Serializable_org.vorpal.blade.framework.callflow.Expectation"><path codeLine="19" d="M270.5,63.56 C270.5,78.26 270.5,82.1 270.5,104.96 " fill="none" id="java.io.Serializable-backto-org.vorpal.blade.framework.callflow.Expectation" style="stroke:#181818;stroke-width:1.0;stroke-dasharray:7.0,7.0;"/><polygon fill="none" points="270.5,45.56,264.5,63.56,276.5,63.56,270.5,45.56" style="stroke:#181818;stroke-width:1.0;"/></g><text fill="#888888" font-family="sans-serif" font-size="10" lengthAdjust="spacing" textLength="176" x="175.5" y="323.5981">UMLDoclet 2.1.2, PlantUML 1.2024.3</text><!--SRC=[bLF1RjGm4Btp5QDAIBjYrs4hJj6o254EI20XLkLIzZ3hJBgcZiTutBIqzD_hE54tfIsYEIJEc-Stp_Op081G18SDYKTDQ_8OC780nuvUf3BiJ4L0ZO-_eJPaA_aRRIZkEC4PrnP5u60fvehAnPlLnqjFEc8qx7wu0Nszud2gMWuUhTfQh4ZL8Jcuu72cD5fRMxuu01Ju3vuQTO2Jaz6VsiN6RZPmdOrrpxLq5Nq3Sw5Wq7wd88bu_Ece1Clkz8uuH-_N95snXBNnxxstHcVL0TvJnToZFgZtsvDgCPXnYsu1MzHd9NmOHiiyFRIMuZVwTKuILtVqLwE5JVPjPeFix5yYqoTL7gxhkOBQ4eR9j8IMJRM70wLOtODl-dmO5odKAMcZZAppOPWht5eQXUGdjgWCvo0COpMcfjFUnUYbB8gAjIWEcDmepKr1hkXcv9TGiLXaHe7UP4XjEpGp31TZpPoPTqRcT9byEhHlOpYdpQOt_wYBvH-bdXlK_gfGjnTGCtUVuo-VZpZvZt2e5kfm1byjkfXGUDdsCPrCRm40]--></g></svg>