<?xml version="1.0" encoding="us-ascii" standalone="no"?><svg xmlns="http://www.w3.org/2000/svg" xmlns:xlink="http://www.w3.org/1999/xlink" contentStyleType="text/css" height="383px" preserveAspectRatio="none" style="width:436px;height:383px;background:#FFFFFF;" version="1.1" viewBox="0 0 436 383" width="436px" zoomAndPan="magnify"><defs/><g><!--class org.vorpal.blade.framework.logging.LogManager--><a href="LogManager.html" target="_top" title="LogManager.html" xlink:actuate="onRequest" xlink:href="LogManager.html" xlink:show="new" xlink:title="LogManager.html" xlink:type="simple"><g id="elem_org.vorpal.blade.framework.logging.LogManager"><rect codeLine="5" fill="#F1F1F1" height="252.125" id="org.vorpal.blade.framework.logging.LogManager" rx="2.5" ry="2.5" style="stroke:#181818;stroke-width:0.5;" width="422" x="7" y="105.27"/><ellipse cx="126.75" cy="124.4028" fill="#ADD1B2" rx="11" ry="11" style="stroke:#181818;stroke-width:1.0;"/><path d="M129.2231,130.5459 Q128.6421,130.8447 128.0029,130.9941 Q127.3638,131.1435 126.6582,131.1435 Q124.1514,131.1435 122.8315,129.4917 Q121.5117,127.8398 121.5117,124.7187 Q121.5117,121.5893 122.8315,119.9375 Q124.1514,118.2856 126.6582,118.2856 Q127.3638,118.2856 128.0112,118.435 Q128.6587,118.5845 129.2231,118.8833 L129.2231,121.6059 Q128.5923,121.0249 127.9988,120.7551 Q127.4053,120.4853 126.7744,120.4853 Q125.4297,120.4853 124.7449,121.552 Q124.0601,122.6186 124.0601,124.7187 Q124.0601,126.8105 124.7449,127.8772 Q125.4297,128.9438 126.7744,128.9438 Q127.4053,128.9438 127.9988,128.6741 Q128.5923,128.4043 129.2231,127.8232 Z " fill="#000000"/><text fill="#000000" font-family="sans-serif" font-size="14" lengthAdjust="spacing" textLength="85" x="191.75" y="123.8052">LogManager</text><text fill="#000000" font-family="sans-serif" font-size="10" lengthAdjust="spacing" textLength="174" x="147.25" y="136.4262">org.vorpal.blade.framework.logging</text><line style="stroke:#181818;stroke-width:0.5;" x1="8" x2="428" y1="143.5356" y2="143.5356"/><rect fill="none" height="6" style="stroke:#C82930;stroke-width:1.0;" width="6" x="15" y="154.2798"/><text fill="#000000" font-family="sans-serif" font-size="14" lengthAdjust="spacing" text-decoration="underline" textLength="119" x="27" y="161.0708">basename: String</text><rect fill="none" height="6" style="stroke:#C82930;stroke-width:1.0;" width="6" x="15" y="170.768"/><text fill="#000000" font-family="sans-serif" font-size="14" lengthAdjust="spacing" text-decoration="underline" textLength="319" x="27" y="177.5591">logMap: ConcurrentHashMap&lt;String, Logger&gt;</text><line style="stroke:#181818;stroke-width:0.5;" x1="8" x2="428" y1="184.5122" y2="184.5122"/><ellipse cx="18" cy="198.2563" fill="#84BE84" rx="3" ry="3" style="stroke:#038048;stroke-width:1.0;"/><text fill="#000000" font-family="sans-serif" font-size="14" lengthAdjust="spacing" textLength="304" x="27" y="202.0473">contextInitialized(ServletContextEvent): void</text><ellipse cx="18" cy="214.7446" fill="#84BE84" rx="3" ry="3" style="stroke:#038048;stroke-width:1.0;"/><text fill="#000000" font-family="sans-serif" font-size="14" lengthAdjust="spacing" textLength="306" x="27" y="218.5356">contextDestroyed(ServletContextEvent): void</text><ellipse cx="18" cy="231.2329" fill="#84BE84" rx="3" ry="3" style="stroke:#038048;stroke-width:1.0;"/><text fill="#000000" font-family="sans-serif" font-size="14" lengthAdjust="spacing" text-decoration="underline" textLength="396" x="27" y="235.0239">getLogger(String, ServletContext, LogParameters): Logger</text><ellipse cx="18" cy="247.7212" fill="#84BE84" rx="3" ry="3" style="stroke:#038048;stroke-width:1.0;"/><text fill="#000000" font-family="sans-serif" font-size="14" lengthAdjust="spacing" text-decoration="underline" textLength="177" x="27" y="251.5122">getLogger(String): Logger</text><ellipse cx="18" cy="264.2095" fill="#84BE84" rx="3" ry="3" style="stroke:#038048;stroke-width:1.0;"/><text fill="#000000" font-family="sans-serif" font-size="14" lengthAdjust="spacing" text-decoration="underline" textLength="295" x="27" y="268.0005">getLogger(SipServletContextEvent): Logger</text><ellipse cx="18" cy="280.6977" fill="#84BE84" rx="3" ry="3" style="stroke:#038048;stroke-width:1.0;"/><text fill="#000000" font-family="sans-serif" font-size="14" lengthAdjust="spacing" text-decoration="underline" textLength="237" x="27" y="284.4888">getLogger(ServletContext): Logger</text><ellipse cx="18" cy="297.186" fill="#84BE84" rx="3" ry="3" style="stroke:#038048;stroke-width:1.0;"/><text fill="#000000" font-family="sans-serif" font-size="14" lengthAdjust="spacing" text-decoration="underline" textLength="136" x="27" y="300.977">getLogger(): Logger</text><ellipse cx="18" cy="313.6743" fill="#84BE84" rx="3" ry="3" style="stroke:#038048;stroke-width:1.0;"/><text fill="#000000" font-family="sans-serif" font-size="14" lengthAdjust="spacing" text-decoration="underline" textLength="268" x="27" y="317.4653">closeLogger(ServletContextEvent): void</text><ellipse cx="18" cy="330.1626" fill="#84BE84" rx="3" ry="3" style="stroke:#038048;stroke-width:1.0;"/><text fill="#000000" font-family="sans-serif" font-size="14" lengthAdjust="spacing" text-decoration="underline" textLength="289" x="27" y="333.9536">closeLogger(SipServletContextEvent): void</text><ellipse cx="18" cy="346.6509" fill="#84BE84" rx="3" ry="3" style="stroke:#038048;stroke-width:1.0;"/><text fill="#000000" font-family="sans-serif" font-size="14" lengthAdjust="spacing" text-decoration="underline" textLength="171" x="27" y="350.4419">closeLogger(String): void</text></g></a><!--class javax.servlet.ServletContextListener--><a href="https://javaee.github.io/javaee-spec/javadocs/javax/servlet/ServletContextListener.html?is-external=true" target="_top" title="https://javaee.github.io/javaee-spec/javadocs/javax/servlet/ServletContextListener.html?is-external=true" xlink:actuate="onRequest" xlink:href="https://javaee.github.io/javaee-spec/javadocs/javax/servlet/ServletContextListener.html?is-external=true" xlink:show="new" xlink:title="https://javaee.github.io/javaee-spec/javadocs/javax/servlet/ServletContextListener.html?is-external=true" xlink:type="simple"><g id="elem_javax.servlet.ServletContextListener"><rect codeLine="20" fill="#F1F1F1" height="38.2656" id="javax.servlet.ServletContextListener" rx="2.5" ry="2.5" style="stroke:#181818;stroke-width:0.5;" width="187" x="124.5" y="7"/><ellipse cx="139.5" cy="26.1328" fill="#B4A7E5" rx="11" ry="11" style="stroke:#181818;stroke-width:1.0;"/><path d="M135.9277,22.3979 L135.9277,20.2397 L143.3071,20.2397 L143.3071,22.3979 L140.8418,22.3979 L140.8418,30.4746 L143.3071,30.4746 L143.3071,32.6328 L135.9277,32.6328 L135.9277,30.4746 L138.3931,30.4746 L138.3931,22.3979 Z " fill="#000000"/><text fill="#000000" font-family="sans-serif" font-size="14" font-style="italic" lengthAdjust="spacing" textLength="155" x="153.5" y="25.5352">ServletContextListener</text><text fill="#000000" font-family="sans-serif" font-size="10" font-style="italic" lengthAdjust="spacing" textLength="62" x="200" y="38.1563">javax.servlet</text></g></a><!--reverse link javax.servlet.ServletContextListener to org.vorpal.blade.framework.logging.LogManager--><g id="link_javax.servlet.ServletContextListener_org.vorpal.blade.framework.logging.LogManager"><path codeLine="22" d="M218,63.52 C218,77.98 218,81.52 218,104.84 " fill="none" id="javax.servlet.ServletContextListener-backto-org.vorpal.blade.framework.logging.LogManager" style="stroke:#181818;stroke-width:1.0;stroke-dasharray:7.0,7.0;"/><polygon fill="none" points="218,45.52,212,63.52,224,63.52,218,45.52" style="stroke:#181818;stroke-width:1.0;"/></g><text fill="#888888" font-family="sans-serif" font-size="10" lengthAdjust="spacing" textLength="176" x="123" y="373.063">UMLDoclet 2.1.2, PlantUML 1.2024.3</text><!--SRC=[bLJ1RjD04Btp5QDAIAdQR6Z5oKh3eKK2APKgHPpQ72Rsn5xOx5Wx4vDI-k-ixJJ5r53ZY-stxxrzi_8p082GWiSDIOafBQZ4WCe1F7jw4vUXi1a1RKgzXxKbbycVw8Qqu0WtUEfG18wcOdzGSlP-DkVy6Ztc5Exy7dmtuv2RYaE9pgmSPcJM8GRupk6RSPpdrkT7W0AlqyopFTpUFh-OGZTkkOI79bDzFOYYslGHnYiKgkTDOA4XUlHGN6rK9d39Fjs6G5u_eHGHchQIKuXRnMrc1-r9obvffv-zLOikpfcD5XGgHthPhdoieirn0XNRx8NiYaG3tmyJ7NAUvAHjaD5JhgwyoNc3zQaf1Ob6BNs0rK2kBVi33z5sXCCq_sAbZeLwlLyvnOxmRmCDqJuTt87xs7R2HgUmZktwhHVTNUPMb7od8r-nmfsHbjRKeOEOVeFOWaArb6GogUb49hTQR5V6yXuOIqbfyvnnAit3Rh8tdVIRDctwO6KSCGeUtOM6BIsNxNI3Oar_6lD_VMx_9bGV7QoPwzkNw_aLfz4TpisPEJ-56uTU8mflg_XvM_QZury0]--></g></svg>