<?xml version="1.0" encoding="us-ascii" standalone="no"?><svg xmlns="http://www.w3.org/2000/svg" xmlns:xlink="http://www.w3.org/1999/xlink" contentStyleType="text/css" height="325px" preserveAspectRatio="none" style="width:332px;height:325px;background:#FFFFFF;" version="1.1" viewBox="0 0 332 325" width="332px" zoomAndPan="magnify"><defs/><g><!--class org.vorpal.blade.services.proxy.balancer.OptionsPingCallflow--><a href="OptionsPingCallflow.html" target="_top" title="OptionsPingCallflow.html" xlink:actuate="onRequest" xlink:href="OptionsPingCallflow.html" xlink:show="new" xlink:title="OptionsPingCallflow.html" xlink:type="simple"><g id="elem_org.vorpal.blade.services.proxy.balancer.OptionsPingCallflow"><rect codeLine="5" fill="#F1F1F1" height="169.6836" id="org.vorpal.blade.services.proxy.balancer.OptionsPingCallflow" rx="2.5" ry="2.5" style="stroke:#181818;stroke-width:0.5;" width="318" x="7" y="129.76"/><ellipse cx="63.75" cy="148.8928" fill="#ADD1B2" rx="11" ry="11" style="stroke:#181818;stroke-width:1.0;"/><path d="M66.2231,155.0359 Q65.6421,155.3347 65.0029,155.4841 Q64.3638,155.6335 63.6582,155.6335 Q61.1514,155.6335 59.8315,153.9817 Q58.5117,152.3298 58.5117,149.2087 Q58.5117,146.0793 59.8315,144.4275 Q61.1514,142.7756 63.6582,142.7756 Q64.3638,142.7756 65.0112,142.925 Q65.6587,143.0745 66.2231,143.3733 L66.2231,146.0959 Q65.5923,145.5149 64.9988,145.2451 Q64.4053,144.9753 63.7744,144.9753 Q62.4297,144.9753 61.7449,146.042 Q61.0601,147.1086 61.0601,149.2087 Q61.0601,151.3005 61.7449,152.3672 Q62.4297,153.4338 63.7744,153.4338 Q64.4053,153.4338 64.9988,153.1641 Q65.5923,152.8943 66.2231,152.3132 Z " fill="#000000"/><text fill="#000000" font-family="sans-serif" font-size="14" lengthAdjust="spacing" textLength="139" x="112.75" y="148.2952">OptionsPingCallflow</text><text fill="#000000" font-family="sans-serif" font-size="10" lengthAdjust="spacing" textLength="196" x="84.25" y="160.9163">org.vorpal.blade.services.proxy.balancer</text><line style="stroke:#181818;stroke-width:0.5;" x1="8" x2="324" y1="168.0256" y2="168.0256"/><rect fill="none" height="6" style="stroke:#C82930;stroke-width:1.0;" width="6" x="15" y="178.7698"/><text fill="#000000" font-family="sans-serif" font-size="14" lengthAdjust="spacing" text-decoration="underline" textLength="152" x="27" y="185.5608">serialVersionUID: long</text><rect fill="none" height="6" style="stroke:#C82930;stroke-width:1.0;" width="6" x="15" y="195.258"/><text fill="#000000" font-family="sans-serif" font-size="14" lengthAdjust="spacing" textLength="98" x="27" y="202.0491">timerId: String</text><rect fill="none" height="6" style="stroke:#C82930;stroke-width:1.0;" width="6" x="15" y="211.7463"/><text fill="#000000" font-family="sans-serif" font-size="14" lengthAdjust="spacing" textLength="194" x="27" y="218.5373">config: ProxyBalancerConfig</text><line style="stroke:#181818;stroke-width:0.5;" x1="8" x2="324" y1="225.4905" y2="225.4905"/><ellipse cx="18" cy="239.2346" fill="#84BE84" rx="3" ry="3" style="stroke:#038048;stroke-width:1.0;"/><text fill="#000000" font-family="sans-serif" font-size="14" lengthAdjust="spacing" textLength="292" x="27" y="243.0256">OptionsPingCallflow(ProxyBalancerConfig)</text><ellipse cx="18" cy="255.7229" fill="#84BE84" rx="3" ry="3" style="stroke:#038048;stroke-width:1.0;"/><text fill="#000000" font-family="sans-serif" font-size="14" lengthAdjust="spacing" textLength="134" x="27" y="259.5139">getTimerId(): String</text><ellipse cx="18" cy="272.2112" fill="#84BE84" rx="3" ry="3" style="stroke:#038048;stroke-width:1.0;"/><text fill="#000000" font-family="sans-serif" font-size="14" lengthAdjust="spacing" textLength="161" x="27" y="276.0022">setTimerId(String): void</text><ellipse cx="18" cy="288.6995" fill="#84BE84" rx="3" ry="3" style="stroke:#038048;stroke-width:1.0;"/><text fill="#000000" font-family="sans-serif" font-size="14" lengthAdjust="spacing" textLength="222" x="27" y="292.4905">process(SipServletRequest): void</text></g></a><!--class org.vorpal.blade.framework.callflow.Callflow--><a href="https://vorpalnet.github.io/blade/vorpal-blade-library-framework/org/vorpal/blade/framework/callflow/Callflow.html?is-external=true" target="_top" title="https://vorpalnet.github.io/blade/vorpal-blade-library-framework/org/vorpal/blade/framework/callflow/Callflow.html?is-external=true" xlink:actuate="onRequest" xlink:href="https://vorpalnet.github.io/blade/vorpal-blade-library-framework/org/vorpal/blade/framework/callflow/Callflow.html?is-external=true" xlink:show="new" xlink:title="https://vorpalnet.github.io/blade/vorpal-blade-library-framework/org/vorpal/blade/framework/callflow/Callflow.html?is-external=true" xlink:type="simple"><g id="elem_org.vorpal.blade.framework.callflow.Callflow"><rect codeLine="15" fill="#F1F1F1" height="62.7539" id="org.vorpal.blade.framework.callflow.Callflow" rx="2.5" ry="2.5" style="stroke:#181818;stroke-width:0.5;" width="248" x="42" y="7"/><ellipse cx="75" cy="26.1328" fill="#A9DCDF" rx="11" ry="11" style="stroke:#181818;stroke-width:1.0;"/><path d="M74.8633,21.481 L73.7095,26.5527 L76.0254,26.5527 Z M73.3691,19.2397 L76.3657,19.2397 L79.7109,31.6328 L77.2622,31.6328 L76.4985,28.5698 L73.2197,28.5698 L72.4727,31.6328 L70.0239,31.6328 Z " fill="#000000"/><text fill="#000000" font-family="sans-serif" font-size="14" font-style="italic" lengthAdjust="spacing" textLength="55" x="153.5" y="25.5352">Callflow</text><text fill="#000000" font-family="sans-serif" font-size="10" font-style="italic" lengthAdjust="spacing" textLength="176" x="93" y="38.1563">org.vorpal.blade.framework.callflow</text><line style="stroke:#181818;stroke-width:0.5;" x1="43" x2="289" y1="45.2656" y2="45.2656"/><ellipse cx="53" cy="59.0098" fill="#84BE84" rx="3" ry="3" style="stroke:#038048;stroke-width:1.0;"/><text fill="#000000" font-family="sans-serif" font-size="14" font-style="italic" lengthAdjust="spacing" textLength="222" x="62" y="62.8008">process(SipServletRequest): void</text></g></a><!--reverse link org.vorpal.blade.framework.callflow.Callflow to org.vorpal.blade.services.proxy.balancer.OptionsPingCallflow--><g id="link_org.vorpal.blade.framework.callflow.Callflow_org.vorpal.blade.services.proxy.balancer.OptionsPingCallflow"><path codeLine="19" d="M166,88.13 C166,104.73 166,108.13 166,129.3 " fill="none" id="org.vorpal.blade.framework.callflow.Callflow-backto-org.vorpal.blade.services.proxy.balancer.OptionsPingCallflow" style="stroke:#181818;stroke-width:1.0;"/><polygon fill="none" points="166,70.13,160,88.13,172,88.13,166,70.13" style="stroke:#181818;stroke-width:1.0;"/></g><text fill="#888888" font-family="sans-serif" font-size="10" lengthAdjust="spacing" textLength="176" x="71" y="315.1116">UMLDoclet 2.1.2, PlantUML 1.2024.3</text><!--SRC=[fLDDRzD04BtpAqQLa18Lhsd5oIf5ehrK0X4HogNqi5wFxHNhNJCpIHjA_ZiRsqrIuaChVB7yFlRDpem101W5l6wGMsrmZgqcBO701u-l8WsrBH2mQMK5fKLNyBzeWrA727UuSPePZixO_iRivDtvbrPiy3oplhhGpfKktFtm0_lsF52bbe5QxLJkT86AaPRM8AkMmlrAvTffRv2EG3CyLwn6Ck7cPWHLjJJkzXOUkj8tpmEB5clMaCJ3hNRVaJYwhgykCt31LrjX8hP1kYeoc0lPVS84NzegWzccg8z3JHSTk1KTZnGp6J5CTuuAvLiVEPaUX1xpZksfg5a6M-mKiKUnLJoPstOU- -PGlkAl1RBiAzVz47NEGjh8mJIVCyAIuZBT1VgfpA0UdzwXJkrDgnPfEKlJtk9HL6MbNkJAXhJp3qpIVIJEvgHfbMmFJMFU81dqE-enBtso1nyi9tWlI5wxzq8BVBeOZprPlwoLBxhssPya-Qyrxtz1zF4MK8QmULr__dGPJAmHJjM9Edq3isYNYCBhPR_Sa-bV]--></g></svg>