<?xml version="1.0" encoding="us-ascii" standalone="no"?><svg xmlns="http://www.w3.org/2000/svg" xmlns:xlink="http://www.w3.org/1999/xlink" contentStyleType="text/css" height="317px" preserveAspectRatio="none" style="width:444px;height:317px;background:#FFFFFF;" version="1.1" viewBox="0 0 444 317" width="444px" zoomAndPan="magnify"><defs/><g><!--class org.vorpal.blade.services.proxy.balancer.ProxyBalancerServlet--><a href="ProxyBalancerServlet.html" target="_top" title="ProxyBalancerServlet.html" xlink:actuate="onRequest" xlink:href="ProxyBalancerServlet.html" xlink:show="new" xlink:title="ProxyBalancerServlet.html" xlink:type="simple"><g id="elem_org.vorpal.blade.services.proxy.balancer.ProxyBalancerServlet"><rect codeLine="5" fill="#F1F1F1" height="186.1719" id="org.vorpal.blade.services.proxy.balancer.ProxyBalancerServlet" rx="2.5" ry="2.5" style="stroke:#181818;stroke-width:0.5;" width="428" x="9" y="105.27"/><ellipse cx="120.75" cy="124.4028" fill="#ADD1B2" rx="11" ry="11" style="stroke:#181818;stroke-width:1.0;"/><path d="M123.2231,130.5459 Q122.6421,130.8447 122.0029,130.9941 Q121.3638,131.1435 120.6582,131.1435 Q118.1514,131.1435 116.8315,129.4917 Q115.5117,127.8398 115.5117,124.7187 Q115.5117,121.5893 116.8315,119.9375 Q118.1514,118.2856 120.6582,118.2856 Q121.3638,118.2856 122.0112,118.435 Q122.6587,118.5845 123.2231,118.8833 L123.2231,121.6059 Q122.5923,121.0249 121.9988,120.7551 Q121.4053,120.4853 120.7744,120.4853 Q119.4297,120.4853 118.7449,121.552 Q118.0601,122.6186 118.0601,124.7187 Q118.0601,126.8105 118.7449,127.8772 Q119.4297,128.9438 120.7744,128.9438 Q121.4053,128.9438 121.9988,128.6741 Q122.5923,128.4043 123.2231,127.8232 Z " fill="#000000"/><text fill="#000000" font-family="sans-serif" font-size="14" lengthAdjust="spacing" textLength="143" x="167.75" y="123.8052">ProxyBalancerServlet</text><text fill="#000000" font-family="sans-serif" font-size="10" lengthAdjust="spacing" textLength="196" x="141.25" y="136.4263">org.vorpal.blade.services.proxy.balancer</text><line style="stroke:#181818;stroke-width:0.5;" x1="10" x2="436" y1="143.5356" y2="143.5356"/><rect fill="none" height="6" style="stroke:#C82930;stroke-width:1.0;" width="6" x="17" y="154.2798"/><text fill="#000000" font-family="sans-serif" font-size="14" lengthAdjust="spacing" text-decoration="underline" textLength="152" x="29" y="161.0708">serialVersionUID: long</text><ellipse cx="20" cy="173.768" fill="none" rx="3" ry="3" style="stroke:#038048;stroke-width:1.0;"/><text fill="#000000" font-family="sans-serif" font-size="14" lengthAdjust="spacing" text-decoration="underline" textLength="402" x="29" y="177.5591">settingsManager: SettingsManager&lt;ProxyBalancerConfig&gt;</text><ellipse cx="20" cy="190.2563" fill="none" rx="3" ry="3" style="stroke:#038048;stroke-width:1.0;"/><text fill="#000000" font-family="sans-serif" font-size="14" lengthAdjust="spacing" text-decoration="underline" textLength="188" x="29" y="194.0473">servletContextName: String</text><line style="stroke:#181818;stroke-width:0.5;" x1="10" x2="436" y1="201.0005" y2="201.0005"/><polygon fill="#FFFF44" points="20,209.7446,24,213.7446,20,217.7446,16,213.7446" style="stroke:#B38D22;stroke-width:1.0;"/><text fill="#000000" font-family="sans-serif" font-size="14" lengthAdjust="spacing" textLength="305" x="29" y="218.5356">servletCreated(SipServletContextEvent): void</text><polygon fill="#FFFF44" points="20,226.2329,24,230.2329,20,234.2329,16,230.2329" style="stroke:#B38D22;stroke-width:1.0;"/><text fill="#000000" font-family="sans-serif" font-size="14" lengthAdjust="spacing" textLength="320" x="29" y="235.0239">servletDestroyed(SipServletContextEvent): void</text><ellipse cx="20" cy="247.7212" fill="#84BE84" rx="3" ry="3" style="stroke:#038048;stroke-width:1.0;"/><text fill="#000000" font-family="sans-serif" font-size="14" lengthAdjust="spacing" textLength="340" x="29" y="251.5122">proxyRequest(SipServletRequest, ProxyPlan): void</text><ellipse cx="20" cy="264.2095" fill="#84BE84" rx="3" ry="3" style="stroke:#038048;stroke-width:1.0;"/><text fill="#000000" font-family="sans-serif" font-size="14" lengthAdjust="spacing" textLength="362" x="29" y="268.0005">proxyResponse(SipServletResponse, ProxyPlan): void</text><polygon fill="#FFFF44" points="20,275.6977,24,279.6977,20,283.6977,16,279.6977" style="stroke:#B38D22;stroke-width:1.0;"/><text fill="#000000" font-family="sans-serif" font-size="14" lengthAdjust="spacing" textLength="264" x="29" y="284.4888">doResponse(SipServletResponse): void</text></g></a><!--class org.vorpal.blade.framework.proxy.ProxyServlet--><a href="https://vorpalnet.github.io/blade/vorpal-blade-library-framework/org/vorpal/blade/framework/proxy/ProxyServlet.html?is-external=true" target="_top" title="https://vorpalnet.github.io/blade/vorpal-blade-library-framework/org/vorpal/blade/framework/proxy/ProxyServlet.html?is-external=true" xlink:actuate="onRequest" xlink:href="https://vorpalnet.github.io/blade/vorpal-blade-library-framework/org/vorpal/blade/framework/proxy/ProxyServlet.html?is-external=true" xlink:show="new" xlink:title="https://vorpalnet.github.io/blade/vorpal-blade-library-framework/org/vorpal/blade/framework/proxy/ProxyServlet.html?is-external=true" xlink:type="simple"><g id="elem_org.vorpal.blade.framework.proxy.ProxyServlet"><rect codeLine="16" fill="#F1F1F1" height="38.2656" id="org.vorpal.blade.framework.proxy.ProxyServlet" rx="2.5" ry="2.5" style="stroke:#181818;stroke-width:0.5;" width="197" x="124.5" y="7"/><ellipse cx="139.5" cy="26.1328" fill="#A9DCDF" rx="11" ry="11" style="stroke:#181818;stroke-width:1.0;"/><path d="M139.3633,21.481 L138.2095,26.5527 L140.5254,26.5527 Z M137.8691,19.2397 L140.8657,19.2397 L144.2109,31.6328 L141.7622,31.6328 L140.9985,28.5698 L137.7197,28.5698 L136.9727,31.6328 L134.5239,31.6328 Z " fill="#000000"/><text fill="#000000" font-family="sans-serif" font-size="14" font-style="italic" lengthAdjust="spacing" textLength="85" x="193.5" y="25.5352">ProxyServlet</text><text fill="#000000" font-family="sans-serif" font-size="10" font-style="italic" lengthAdjust="spacing" textLength="165" x="153.5" y="38.1563">org.vorpal.blade.framework.proxy</text></g></a><!--reverse link org.vorpal.blade.framework.proxy.ProxyServlet to org.vorpal.blade.services.proxy.balancer.ProxyBalancerServlet--><g id="link_org.vorpal.blade.framework.proxy.ProxyServlet_org.vorpal.blade.services.proxy.balancer.ProxyBalancerServlet"><path codeLine="18" d="M223,63.68 C223,78.5 223,82.48 223,105.13 " fill="none" id="org.vorpal.blade.framework.proxy.ProxyServlet-backto-org.vorpal.blade.services.proxy.balancer.ProxyBalancerServlet" style="stroke:#181818;stroke-width:1.0;"/><polygon fill="none" points="223,45.68,217,63.68,229,63.68,223,45.68" style="stroke:#181818;stroke-width:1.0;"/></g><text fill="#888888" font-family="sans-serif" font-size="10" lengthAdjust="spacing" textLength="176" x="127" y="307.1098">UMLDoclet 2.1.2, PlantUML 1.2024.3</text><!--SRC=[fLF1Jjmm4BttAqQWIY0Qfo1EqNOhqUsXKgbG8xZGFJZ9R6BXjTFnRCgMyk-TJGBDGegsQYvMthptnXu_0m04P71wYQ7MEQPOQzBi2Pnt-4hAK9a20PSrhs5Xq1RXARf4hhp0BPvR7GBiJOBvYSdnwVI2_EtwJ5ljSgGKgR78trnVVZlrLAh6KwsjogmkK0MXc1o3gZT2bVNAFT01TYMhiQPmVJq6gugNTZw7ktRtc-yki6QJtqCazaRRAwHWlBlyD4l0UbS-9nx92DcuCfnhfqka1D9jOBBL-ODt2rDEHttQFGc1yPQ_oAM85PCPDDr_u11gnk8WDNMwfVhOeEF311flYcUg6GOclzvPTzGEzYj-NubmeEcHDz0Ux4BEzJTbgBqBk2Nje1Uq-uL_GJXattUXqvaSI-SydhuTKhSWcVKFJpTTaiRJzeIaXkQIhegv3aaSTnedqIeDLwjC6H-t1dqbQdyYQpBIj8uUNMDfs5Dw_fzIsp0UDcnp-zw4IAuEoMdxZcc5ytata7_R- -HN5FtVu-gUlWG82HRURvRByyypds_iJzInEf7h5WKB2g-RxaKT7Fu6]--></g></svg>