<?xml version="1.0" encoding="us-ascii" standalone="no"?><svg xmlns="http://www.w3.org/2000/svg" xmlns:xlink="http://www.w3.org/1999/xlink" contentStyleType="text/css" height="275px" preserveAspectRatio="none" style="width:785px;height:275px;background:#FFFFFF;" version="1.1" viewBox="0 0 785 275" width="785px" zoomAndPan="magnify"><defs/><g><!--class org.vorpal.blade.framework.proxy.ProxyServlet--><a href="ProxyServlet.html" target="_top" title="ProxyServlet.html" xlink:actuate="onRequest" xlink:href="ProxyServlet.html" xlink:show="new" xlink:title="ProxyServlet.html" xlink:type="simple"><g id="elem_org.vorpal.blade.framework.proxy.ProxyServlet"><rect codeLine="5" fill="#F1F1F1" height="87.2422" id="org.vorpal.blade.framework.proxy.ProxyServlet" rx="2.5" ry="2.5" style="stroke:#181818;stroke-width:0.5;" width="325" x="220.5" y="162.73"/><ellipse cx="296.25" cy="181.8628" fill="#A9DCDF" rx="11" ry="11" style="stroke:#181818;stroke-width:1.0;"/><path d="M296.1133,177.211 L294.9595,182.2827 L297.2754,182.2827 Z M294.6191,174.9697 L297.6157,174.9697 L300.9609,187.3628 L298.5122,187.3628 L297.7485,184.2998 L294.4697,184.2998 L293.7227,187.3628 L291.2739,187.3628 Z " fill="#000000"/><text fill="#000000" font-family="sans-serif" font-size="14" font-style="italic" lengthAdjust="spacing" textLength="85" x="356.75" y="181.2652">ProxyServlet</text><text fill="#000000" font-family="sans-serif" font-size="10" font-style="italic" lengthAdjust="spacing" textLength="165" x="316.75" y="193.8863">org.vorpal.blade.framework.proxy</text><line style="stroke:#181818;stroke-width:0.5;" x1="221.5" x2="544.5" y1="200.9956" y2="200.9956"/><rect fill="none" height="6" style="stroke:#C82930;stroke-width:1.0;" width="6" x="228.5" y="211.7398"/><text fill="#000000" font-family="sans-serif" font-size="14" lengthAdjust="spacing" text-decoration="underline" textLength="152" x="240.5" y="218.5308">serialVersionUID: long</text><line style="stroke:#181818;stroke-width:0.5;" x1="221.5" x2="544.5" y1="225.4839" y2="225.4839"/><polygon fill="#FFFF44" points="231.5,234.228,235.5,238.228,231.5,242.228,227.5,238.228" style="stroke:#B38D22;stroke-width:1.0;"/><text fill="#000000" font-family="sans-serif" font-size="14" lengthAdjust="spacing" textLength="299" x="240.5" y="243.0191">chooseCallflow(SipServletRequest): Callflow</text></g></a><!--class org.vorpal.blade.framework.AsyncSipServlet--><a href="../AsyncSipServlet.html" target="_top" title="../AsyncSipServlet.html" xlink:actuate="onRequest" xlink:href="../AsyncSipServlet.html" xlink:show="new" xlink:title="../AsyncSipServlet.html" xlink:type="simple"><g id="elem_org.vorpal.blade.framework.AsyncSipServlet"><rect codeLine="10" fill="#F1F1F1" height="95.7305" id="org.vorpal.blade.framework.AsyncSipServlet" rx="2.5" ry="2.5" style="stroke:#181818;stroke-width:0.5;" width="346" x="9" y="7"/><ellipse cx="110.25" cy="26.1328" fill="#A9DCDF" rx="11" ry="11" style="stroke:#181818;stroke-width:1.0;"/><path d="M110.1133,21.481 L108.9595,26.5527 L111.2754,26.5527 Z M108.6191,19.2397 L111.6157,19.2397 L114.9609,31.6328 L112.5122,31.6328 L111.7485,28.5698 L108.4697,28.5698 L107.7227,31.6328 L105.2739,31.6328 Z " fill="#000000"/><text fill="#000000" font-family="sans-serif" font-size="14" font-style="italic" lengthAdjust="spacing" textLength="107" x="144.75" y="25.5352">AsyncSipServlet</text><text fill="#000000" font-family="sans-serif" font-size="10" font-style="italic" lengthAdjust="spacing" textLength="135" x="130.75" y="38.1563">org.vorpal.blade.framework</text><line style="stroke:#181818;stroke-width:0.5;" x1="10" x2="354" y1="45.2656" y2="45.2656"/><polygon fill="#FFFF44" points="20,54.0098,24,58.0098,20,62.0098,16,58.0098" style="stroke:#B38D22;stroke-width:1.0;"/><text fill="#000000" font-family="sans-serif" font-size="14" font-style="italic" lengthAdjust="spacing" textLength="305" x="29" y="62.8008">servletCreated(SipServletContextEvent): void</text><polygon fill="#FFFF44" points="20,70.498,24,74.498,20,78.498,16,74.498" style="stroke:#B38D22;stroke-width:1.0;"/><text fill="#000000" font-family="sans-serif" font-size="14" font-style="italic" lengthAdjust="spacing" textLength="320" x="29" y="79.2891">servletDestroyed(SipServletContextEvent): void</text><polygon fill="#FFFF44" points="20,86.9863,24,90.9863,20,94.9863,16,90.9863" style="stroke:#B38D22;stroke-width:1.0;"/><text fill="#000000" font-family="sans-serif" font-size="14" font-style="italic" lengthAdjust="spacing" textLength="299" x="29" y="95.7773">chooseCallflow(SipServletRequest): Callflow</text></g></a><!--class org.vorpal.blade.framework.proxy.ProxyListener--><a href="ProxyListener.html" target="_top" title="ProxyListener.html" xlink:actuate="onRequest" xlink:href="ProxyListener.html" xlink:show="new" xlink:title="ProxyListener.html" xlink:type="simple"><g id="elem_org.vorpal.blade.framework.proxy.ProxyListener"><rect codeLine="15" fill="#F1F1F1" height="79.2422" id="org.vorpal.blade.framework.proxy.ProxyListener" rx="2.5" ry="2.5" style="stroke:#181818;stroke-width:0.5;" width="388" x="390" y="15.24"/><ellipse cx="497.25" cy="34.3728" fill="#B4A7E5" rx="11" ry="11" style="stroke:#181818;stroke-width:1.0;"/><path d="M493.6777,30.6379 L493.6777,28.4797 L501.0571,28.4797 L501.0571,30.6379 L498.5918,30.6379 L498.5918,38.7146 L501.0571,38.7146 L501.0571,40.8728 L493.6777,40.8728 L493.6777,38.7146 L496.1431,38.7146 L496.1431,30.6379 Z " fill="#000000"/><text fill="#000000" font-family="sans-serif" font-size="14" font-style="italic" lengthAdjust="spacing" textLength="93" x="553.75" y="33.7752">ProxyListener</text><text fill="#000000" font-family="sans-serif" font-size="10" font-style="italic" lengthAdjust="spacing" textLength="165" x="517.75" y="46.3963">org.vorpal.blade.framework.proxy</text><line style="stroke:#181818;stroke-width:0.5;" x1="391" x2="777" y1="53.5056" y2="53.5056"/><ellipse cx="401" cy="67.2498" fill="#84BE84" rx="3" ry="3" style="stroke:#038048;stroke-width:1.0;"/><text fill="#000000" font-family="sans-serif" font-size="14" font-style="italic" lengthAdjust="spacing" textLength="340" x="410" y="71.0408">proxyRequest(SipServletRequest, ProxyPlan): void</text><ellipse cx="401" cy="83.738" fill="#84BE84" rx="3" ry="3" style="stroke:#038048;stroke-width:1.0;"/><text fill="#000000" font-family="sans-serif" font-size="14" font-style="italic" lengthAdjust="spacing" textLength="362" x="410" y="87.5291">proxyResponse(SipServletResponse, ProxyPlan): void</text></g></a><!--reverse link org.vorpal.blade.framework.AsyncSipServlet to org.vorpal.blade.framework.proxy.ProxyServlet--><g id="link_org.vorpal.blade.framework.AsyncSipServlet_org.vorpal.blade.framework.proxy.ProxyServlet"><path codeLine="20" d="M260.0427,113.9029 C285.5727,132.8929 300.35,143.88 325.27,162.41 " fill="none" id="org.vorpal.blade.framework.AsyncSipServlet-backto-org.vorpal.blade.framework.proxy.ProxyServlet" style="stroke:#181818;stroke-width:1.0;"/><polygon fill="none" points="245.6,103.16,256.4617,118.7171,263.6236,109.0887,245.6,103.16" style="stroke:#181818;stroke-width:1.0;"/></g><!--reverse link org.vorpal.blade.framework.proxy.ProxyListener to org.vorpal.blade.framework.proxy.ProxyServlet--><g id="link_org.vorpal.blade.framework.proxy.ProxyListener_org.vorpal.blade.framework.proxy.ProxyServlet"><path codeLine="21" d="M517.0077,105.6834 C489.2077,126.3634 469.46,141.05 440.9,162.29 " fill="none" id="org.vorpal.blade.framework.proxy.ProxyListener-backto-org.vorpal.blade.framework.proxy.ProxyServlet" style="stroke:#181818;stroke-width:1.0;stroke-dasharray:7.0,7.0;"/><polygon fill="none" points="531.45,94.94,513.4266,100.8693,520.5889,110.4975,531.45,94.94" style="stroke:#181818;stroke-width:1.0;"/></g><text fill="#888888" font-family="sans-serif" font-size="10" lengthAdjust="spacing" textLength="176" x="297.5" y="265.6402">UMLDoclet 2.1.2, PlantUML 1.2024.3</text><!--SRC=[jPD1Jm8n48Nl_ee9nWIYL26U224nuC444oB1YteekxFIM3fhfouWyD_jBgmY8WY9UzXDNzklyzvE0G0O7HWvH8vbW5sCfPMEB1WoUEIdOQ1211p6RWAHGXtokZf4Do0lPxhiixCoS11eoGo5Egjth5Kk6nrBuqaNRQBHFPgbVD4W-omIih7KegzbY2AolfOHsHSHfpiA81bsBHAhS7XuM1sAWHlgfoUOPkMbpvITT2gOGvdHAgdlqR8YqxjfrK2JUVvSU1mCY1YRKkj8qwZOLV4IUeUlRyYkL8DyCjiqtv715KzCy4NvKmox0bXZUlT2dA-96pB8Qvp3CIyMDIrAX-6AooOPXsDtdQ19hIQamcs0ba_4qkGWnFv9fs_buJRoRRlUPst53WtQ_scqd9vtMZxU6lDf1bZQ-Mdm339KHqkp9QSSmZ4Pnc-KXVGBPjcOUxHHVLOkxtVlTfsmAS3wJ8W3JWam_V4G4QMVtcsxHK5QT5LKHDL7uDqxhy99ihZQnT87]--></g></svg>