<?xml version="1.0" encoding="us-ascii" standalone="no"?><svg xmlns="http://www.w3.org/2000/svg" xmlns:xlink="http://www.w3.org/1999/xlink" contentStyleType="text/css" height="498px" preserveAspectRatio="none" style="width:289px;height:498px;background:#FFFFFF;" version="1.1" viewBox="0 0 289 498" width="289px" zoomAndPan="magnify"><defs/><g><!--class org.vorpal.blade.framework.proxy.ProxyPlan--><a href="ProxyPlan.html" target="_top" title="ProxyPlan.html" xlink:actuate="onRequest" xlink:href="ProxyPlan.html" xlink:show="new" xlink:title="ProxyPlan.html" xlink:type="simple"><g id="elem_org.vorpal.blade.framework.proxy.ProxyPlan"><rect codeLine="5" fill="#F1F1F1" height="367.543" id="org.vorpal.blade.framework.proxy.ProxyPlan" rx="2.5" ry="2.5" style="stroke:#181818;stroke-width:0.5;" width="275" x="7" y="105.27"/><ellipse cx="57.75" cy="124.4028" fill="#ADD1B2" rx="11" ry="11" style="stroke:#181818;stroke-width:1.0;"/><path d="M60.2231,130.5459 Q59.6421,130.8447 59.0029,130.9941 Q58.3638,131.1435 57.6582,131.1435 Q55.1514,131.1435 53.8315,129.4917 Q52.5117,127.8398 52.5117,124.7187 Q52.5117,121.5893 53.8315,119.9375 Q55.1514,118.2856 57.6582,118.2856 Q58.3638,118.2856 59.0112,118.435 Q59.6587,118.5845 60.2231,118.8833 L60.2231,121.6059 Q59.5923,121.0249 58.9988,120.7551 Q58.4053,120.4853 57.7744,120.4853 Q56.4297,120.4853 55.7449,121.552 Q55.0601,122.6186 55.0601,124.7187 Q55.0601,126.8105 55.7449,127.8772 Q56.4297,128.9438 57.7744,128.9438 Q58.4053,128.9438 58.9988,128.6741 Q59.5923,128.4043 60.2231,127.8232 Z " fill="#000000"/><text fill="#000000" font-family="sans-serif" font-size="14" lengthAdjust="spacing" textLength="68" x="126.75" y="123.8052">ProxyPlan</text><text fill="#000000" font-family="sans-serif" font-size="10" lengthAdjust="spacing" textLength="165" x="78.25" y="136.4262">org.vorpal.blade.framework.proxy</text><line style="stroke:#181818;stroke-width:0.5;" x1="8" x2="281" y1="143.5356" y2="143.5356"/><rect fill="none" height="6" style="stroke:#C82930;stroke-width:1.0;" width="6" x="15" y="154.2798"/><text fill="#000000" font-family="sans-serif" font-size="14" lengthAdjust="spacing" text-decoration="underline" textLength="152" x="27" y="161.0708">serialVersionUID: long</text><rect fill="none" height="6" style="stroke:#C82930;stroke-width:1.0;" width="6" x="15" y="170.768"/><text fill="#000000" font-family="sans-serif" font-size="14" lengthAdjust="spacing" textLength="62" x="27" y="177.5591">id: String</text><rect fill="none" height="6" style="stroke:#C82930;stroke-width:1.0;" width="6" x="15" y="187.2563"/><text fill="#000000" font-family="sans-serif" font-size="14" lengthAdjust="spacing" textLength="126" x="27" y="194.0473">description: String</text><rect fill="none" height="6" style="stroke:#C82930;stroke-width:1.0;" width="6" x="15" y="203.7446"/><text fill="#000000" font-family="sans-serif" font-size="14" lengthAdjust="spacing" textLength="104" x="27" y="210.5356">context: Object</text><rect fill="none" height="6" style="stroke:#C82930;stroke-width:1.0;" width="6" x="15" y="220.2329"/><text fill="#000000" font-family="sans-serif" font-size="14" lengthAdjust="spacing" textLength="186" x="27" y="227.0239">tiers: ArrayList&lt;ProxyTier&gt;</text><line style="stroke:#181818;stroke-width:0.5;" x1="8" x2="281" y1="233.977" y2="233.977"/><ellipse cx="18" cy="247.7212" fill="#84BE84" rx="3" ry="3" style="stroke:#038048;stroke-width:1.0;"/><text fill="#000000" font-family="sans-serif" font-size="14" lengthAdjust="spacing" textLength="78" x="27" y="251.5122">ProxyPlan()</text><ellipse cx="18" cy="264.2095" fill="#84BE84" rx="3" ry="3" style="stroke:#038048;stroke-width:1.0;"/><text fill="#000000" font-family="sans-serif" font-size="14" lengthAdjust="spacing" textLength="119" x="27" y="268.0005">ProxyPlan(String)</text><ellipse cx="18" cy="280.6977" fill="#84BE84" rx="3" ry="3" style="stroke:#038048;stroke-width:1.0;"/><text fill="#000000" font-family="sans-serif" font-size="14" lengthAdjust="spacing" textLength="146" x="27" y="284.4888">ProxyPlan(ProxyPlan)</text><ellipse cx="18" cy="297.186" fill="#84BE84" rx="3" ry="3" style="stroke:#038048;stroke-width:1.0;"/><text fill="#000000" font-family="sans-serif" font-size="14" lengthAdjust="spacing" textLength="186" x="27" y="300.977">copy(ProxyPlan): ProxyPlan</text><ellipse cx="18" cy="313.6743" fill="#84BE84" rx="3" ry="3" style="stroke:#038048;stroke-width:1.0;"/><text fill="#000000" font-family="sans-serif" font-size="14" lengthAdjust="spacing" textLength="127" x="27" y="317.4653">isEmpty(): boolean</text><ellipse cx="18" cy="330.1626" fill="#84BE84" rx="3" ry="3" style="stroke:#038048;stroke-width:1.0;"/><text fill="#000000" font-family="sans-serif" font-size="14" lengthAdjust="spacing" textLength="94" x="27" y="333.9536">getId(): String</text><ellipse cx="18" cy="346.6509" fill="#84BE84" rx="3" ry="3" style="stroke:#038048;stroke-width:1.0;"/><text fill="#000000" font-family="sans-serif" font-size="14" lengthAdjust="spacing" textLength="121" x="27" y="350.4419">setId(String): void</text><ellipse cx="18" cy="363.1391" fill="#84BE84" rx="3" ry="3" style="stroke:#038048;stroke-width:1.0;"/><text fill="#000000" font-family="sans-serif" font-size="14" lengthAdjust="spacing" textLength="80" x="27" y="366.9302">clear(): void</text><ellipse cx="18" cy="379.6274" fill="#84BE84" rx="3" ry="3" style="stroke:#038048;stroke-width:1.0;"/><text fill="#000000" font-family="sans-serif" font-size="14" lengthAdjust="spacing" textLength="185" x="27" y="383.4184">getTiers(): List&lt;ProxyTier&gt;</text><ellipse cx="18" cy="396.1157" fill="#84BE84" rx="3" ry="3" style="stroke:#038048;stroke-width:1.0;"/><text fill="#000000" font-family="sans-serif" font-size="14" lengthAdjust="spacing" textLength="249" x="27" y="399.9067">setTiers(ArrayList&lt;ProxyTier&gt;): void</text><ellipse cx="18" cy="412.604" fill="#84BE84" rx="3" ry="3" style="stroke:#038048;stroke-width:1.0;"/><text fill="#000000" font-family="sans-serif" font-size="14" lengthAdjust="spacing" textLength="159" x="27" y="416.395">getDescription(): String</text><ellipse cx="18" cy="429.0923" fill="#84BE84" rx="3" ry="3" style="stroke:#038048;stroke-width:1.0;"/><text fill="#000000" font-family="sans-serif" font-size="14" lengthAdjust="spacing" textLength="186" x="27" y="432.8833">setDescription(String): void</text><ellipse cx="18" cy="445.5805" fill="#84BE84" rx="3" ry="3" style="stroke:#038048;stroke-width:1.0;"/><text fill="#000000" font-family="sans-serif" font-size="14" lengthAdjust="spacing" textLength="139" x="27" y="449.3716">getContext(): Object</text><ellipse cx="18" cy="462.0688" fill="#84BE84" rx="3" ry="3" style="stroke:#038048;stroke-width:1.0;"/><text fill="#000000" font-family="sans-serif" font-size="14" lengthAdjust="spacing" textLength="166" x="27" y="465.8598">setContext(Object): void</text></g></a><!--class java.io.Serializable--><a href="https://docs.oracle.com/en/java/javase/11/docs/api/java.base/java/io/Serializable.html?is-external=true" target="_top" title="https://docs.oracle.com/en/java/javase/11/docs/api/java.base/java/io/Serializable.html?is-external=true" xlink:actuate="onRequest" xlink:href="https://docs.oracle.com/en/java/javase/11/docs/api/java.base/java/io/Serializable.html?is-external=true" xlink:show="new" xlink:title="https://docs.oracle.com/en/java/javase/11/docs/api/java.base/java/io/Serializable.html?is-external=true" xlink:type="simple"><g id="elem_java.io.Serializable"><rect codeLine="27" fill="#F1F1F1" height="38.2656" id="java.io.Serializable" rx="2.5" ry="2.5" style="stroke:#181818;stroke-width:0.5;" width="111" x="89" y="7"/><ellipse cx="104" cy="26.1328" fill="#B4A7E5" rx="11" ry="11" style="stroke:#181818;stroke-width:1.0;"/><path d="M100.4277,22.3979 L100.4277,20.2397 L107.8071,20.2397 L107.8071,22.3979 L105.3418,22.3979 L105.3418,30.4746 L107.8071,30.4746 L107.8071,32.6328 L100.4277,32.6328 L100.4277,30.4746 L102.8931,30.4746 L102.8931,22.3979 Z " fill="#000000"/><text fill="#000000" font-family="sans-serif" font-size="14" font-style="italic" lengthAdjust="spacing" textLength="79" x="118" y="25.5352">Serializable</text><text fill="#000000" font-family="sans-serif" font-size="10" font-style="italic" lengthAdjust="spacing" textLength="32" x="141.5" y="38.1563">java.io</text></g></a><!--reverse link java.io.Serializable to org.vorpal.blade.framework.proxy.ProxyPlan--><g id="link_java.io.Serializable_org.vorpal.blade.framework.proxy.ProxyPlan"><path codeLine="29" d="M144.5,63.48 C144.5,77.63 144.5,80.81 144.5,104.86 " fill="none" id="java.io.Serializable-backto-org.vorpal.blade.framework.proxy.ProxyPlan" style="stroke:#181818;stroke-width:1.0;stroke-dasharray:7.0,7.0;"/><polygon fill="none" points="144.5,45.48,138.5,63.48,150.5,63.48,144.5,45.48" style="stroke:#181818;stroke-width:1.0;"/></g><text fill="#888888" font-family="sans-serif" font-size="10" lengthAdjust="spacing" textLength="176" x="49.5" y="488.4809">UMLDoclet 2.1.2, PlantUML 1.2024.3</text><!--SRC=[bLF1Rjim3BtlAuW20r9qaPTY9oFDC2mx5EYm0bbtwN9GR2PH9vk6o6LDk_xx93brXDH1iHmSuhqdyb4Y0G0O1MfT8JUwm1asscaX1pNL-CRJi3Ob0bQDR65fq9PyY5OeQ_9mn0khcU5apEO1yz67oRMZ- -srrVNFUeUzdv1RgGsvHbkriBf4jNI-_XzolrGJv2UW6LuJgIuptDvsiLfBPUTpU8ncmk-HHOifdc38w8osFz2neVhcSfg3fNhL2OUcp64cpgHOYLmuquW_yP8ig1Qybno-BUwma3qXnXV9uPDpUdjbMCRHttUFJZhHMUTvSDe7jiLwgIvAs8AQRKBaqCLxZU4luS46dbqGMKov5Sfb6PY39iyu4ZitEMp8b4bLdyGDNi0-MMYM0tEqVtuMzLrJNyhf_YsE64qLHnpxF9_RPmiv3Xukv7XcMoez_zHEkF6yM_fTIQPy5aVBFEY5nMJGx_H6AqDnddUnIgL-SjSY3UTPLbB1YfpsDweAgZAiit0YVXYpqIWgCjsO2Ab5GAF2K9RcZ1lmqV3GDu6krlP2t6-SprlplIx6VvNwZtrhznp3DS2IAFpTVBsQahSkSAv6wlmT19ru5DvksdqRdFu3]--></g></svg>