<?xml version="1.0" encoding="us-ascii" standalone="no"?><svg xmlns="http://www.w3.org/2000/svg" xmlns:xlink="http://www.w3.org/1999/xlink" contentStyleType="text/css" height="308px" preserveAspectRatio="none" style="width:295px;height:308px;background:#FFFFFF;" version="1.1" viewBox="0 0 295 308" width="295px" zoomAndPan="magnify"><defs/><g><!--class org.vorpal.blade.framework.proxy.ProxyInvite--><a href="ProxyInvite.html" target="_top" title="ProxyInvite.html" xlink:actuate="onRequest" xlink:href="ProxyInvite.html" xlink:show="new" xlink:title="ProxyInvite.html" xlink:type="simple"><g id="elem_org.vorpal.blade.framework.proxy.ProxyInvite"><rect codeLine="5" fill="#F1F1F1" height="153.1953" id="org.vorpal.blade.framework.proxy.ProxyInvite" rx="2.5" ry="2.5" style="stroke:#181818;stroke-width:0.5;" width="281" x="7" y="129.75"/><ellipse cx="60.75" cy="148.8828" fill="#ADD1B2" rx="11" ry="11" style="stroke:#181818;stroke-width:1.0;"/><path d="M63.2231,155.0259 Q62.6421,155.3247 62.0029,155.4741 Q61.3638,155.6235 60.6582,155.6235 Q58.1514,155.6235 56.8315,153.9717 Q55.5117,152.3198 55.5117,149.1987 Q55.5117,146.0693 56.8315,144.4175 Q58.1514,142.7656 60.6582,142.7656 Q61.3638,142.7656 62.0112,142.915 Q62.6587,143.0645 63.2231,143.3633 L63.2231,146.0859 Q62.5923,145.5049 61.9988,145.2351 Q61.4053,144.9653 60.7744,144.9653 Q59.4297,144.9653 58.7449,146.032 Q58.0601,147.0986 58.0601,149.1987 Q58.0601,151.2905 58.7449,152.3572 Q59.4297,153.4238 60.7744,153.4238 Q61.4053,153.4238 61.9988,153.1541 Q62.5923,152.8843 63.2231,152.3032 Z " fill="#000000"/><text fill="#000000" font-family="sans-serif" font-size="14" lengthAdjust="spacing" textLength="76" x="125.75" y="148.2852">ProxyInvite</text><text fill="#000000" font-family="sans-serif" font-size="10" lengthAdjust="spacing" textLength="165" x="81.25" y="160.9063">org.vorpal.blade.framework.proxy</text><line style="stroke:#181818;stroke-width:0.5;" x1="8" x2="287" y1="168.0156" y2="168.0156"/><rect fill="none" height="6" style="stroke:#C82930;stroke-width:1.0;" width="6" x="15" y="178.7598"/><text fill="#000000" font-family="sans-serif" font-size="14" lengthAdjust="spacing" text-decoration="underline" textLength="152" x="27" y="185.5508">serialVersionUID: long</text><rect fill="none" height="6" style="stroke:#C82930;stroke-width:1.0;" width="6" x="15" y="195.248"/><text fill="#000000" font-family="sans-serif" font-size="14" lengthAdjust="spacing" textLength="195" x="27" y="202.0391">proxyListener: ProxyListener</text><rect fill="none" height="6" style="stroke:#C82930;stroke-width:1.0;" width="6" x="15" y="211.7363"/><text fill="#000000" font-family="sans-serif" font-size="14" lengthAdjust="spacing" textLength="145" x="27" y="218.5273">proxyPlan: ProxyPlan</text><rect fill="none" height="6" style="stroke:#C82930;stroke-width:1.0;" width="6" x="15" y="228.2246"/><text fill="#000000" font-family="sans-serif" font-size="14" lengthAdjust="spacing" textLength="243" x="27" y="235.0156">inboundRequest: SipServletRequest</text><line style="stroke:#181818;stroke-width:0.5;" x1="8" x2="287" y1="241.9688" y2="241.9688"/><ellipse cx="18" cy="255.7129" fill="#84BE84" rx="3" ry="3" style="stroke:#038048;stroke-width:1.0;"/><text fill="#000000" font-family="sans-serif" font-size="14" lengthAdjust="spacing" textLength="255" x="27" y="259.5039">ProxyInvite(ProxyListener, ProxyPlan)</text><ellipse cx="18" cy="272.2012" fill="#84BE84" rx="3" ry="3" style="stroke:#038048;stroke-width:1.0;"/><text fill="#000000" font-family="sans-serif" font-size="14" lengthAdjust="spacing" textLength="222" x="27" y="275.9922">process(SipServletRequest): void</text></g></a><!--class org.vorpal.blade.framework.callflow.Callflow--><a href="../callflow/Callflow.html" target="_top" title="../callflow/Callflow.html" xlink:actuate="onRequest" xlink:href="../callflow/Callflow.html" xlink:show="new" xlink:title="../callflow/Callflow.html" xlink:type="simple"><g id="elem_org.vorpal.blade.framework.callflow.Callflow"><rect codeLine="14" fill="#F1F1F1" height="62.7539" id="org.vorpal.blade.framework.callflow.Callflow" rx="2.5" ry="2.5" style="stroke:#181818;stroke-width:0.5;" width="248" x="23.5" y="7"/><ellipse cx="56.5" cy="26.1328" fill="#A9DCDF" rx="11" ry="11" style="stroke:#181818;stroke-width:1.0;"/><path d="M56.3633,21.481 L55.2095,26.5527 L57.5254,26.5527 Z M54.8691,19.2397 L57.8657,19.2397 L61.2109,31.6328 L58.7622,31.6328 L57.9985,28.5698 L54.7197,28.5698 L53.9727,31.6328 L51.5239,31.6328 Z " fill="#000000"/><text fill="#000000" font-family="sans-serif" font-size="14" font-style="italic" lengthAdjust="spacing" textLength="55" x="135" y="25.5352">Callflow</text><text fill="#000000" font-family="sans-serif" font-size="10" font-style="italic" lengthAdjust="spacing" textLength="176" x="74.5" y="38.1563">org.vorpal.blade.framework.callflow</text><line style="stroke:#181818;stroke-width:0.5;" x1="24.5" x2="270.5" y1="45.2656" y2="45.2656"/><ellipse cx="34.5" cy="59.0098" fill="#84BE84" rx="3" ry="3" style="stroke:#038048;stroke-width:1.0;"/><text fill="#000000" font-family="sans-serif" font-size="14" font-style="italic" lengthAdjust="spacing" textLength="222" x="43.5" y="62.8008">process(SipServletRequest): void</text></g></a><!--reverse link org.vorpal.blade.framework.callflow.Callflow to org.vorpal.blade.framework.proxy.ProxyInvite--><g id="link_org.vorpal.blade.framework.callflow.Callflow_org.vorpal.blade.framework.proxy.ProxyInvite"><path codeLine="18" d="M147.5,88.21 C147.5,104.99 147.5,108.55 147.5,129.51 " fill="none" id="org.vorpal.blade.framework.callflow.Callflow-backto-org.vorpal.blade.framework.proxy.ProxyInvite" style="stroke:#181818;stroke-width:1.0;"/><polygon fill="none" points="147.5,70.21,141.5,88.21,153.5,88.21,147.5,70.21" style="stroke:#181818;stroke-width:1.0;"/></g><text fill="#888888" font-family="sans-serif" font-size="10" lengthAdjust="spacing" textLength="176" x="52.5" y="298.6133">UMLDoclet 2.1.2, PlantUML 1.2024.3</text><!--SRC=[bP9VJy8m5CNV_HGt92OGNH7Yqq9uaHSIJ8W4Nv27ijr1OzVEzZ94vBlR_OC99iXUjfx-UdgMSm40B18e7gDDU80JJBZXf0qehV36RSDAX0WO9xI5IA0CxQaQ8wsqatCzaDnQQFIi-4A_yzWV6_sv7QfK4BwfKdteQxDagJO9bsmXUOWiCYx1HfjtbcG76i0jN89OpHjcizgAhIYMypdiyaZPixF4IGHxy2mQmUKh6YkqcWu7FaYjbWVGowr7mX8gD3wCwyiJQYovAediyxWhr4AlLVY27skqvCD491CqgKGgfGDwLqlT_7NN_T6uTSJTlG5QspnpRFcGQX7cvBweWYyi6HxGMITFNCf8wit_2WbA-b8d5SSgUzS9O-rARbVo7-LKIVVN_U1LONhVddVLI1NZZ8hGGAHrzfe-ZmOwS9cWopgiwofoxP1JuJOj1ghP-W40]--></g></svg>