<?xml version="1.0" encoding="us-ascii" standalone="no"?><svg xmlns="http://www.w3.org/2000/svg" xmlns:xlink="http://www.w3.org/1999/xlink" contentStyleType="text/css" height="889px" preserveAspectRatio="none" style="width:1276px;height:889px;background:#FFFFFF;" version="1.1" viewBox="0 0 1276 889" width="1276px" zoomAndPan="magnify"><defs/><g><!--cluster org.vorpal.blade.services.transfer--><g id="cluster_org.vorpal.blade.services.transfer"><path d="M279.5,244.41 L515.5,244.41 A3.75,3.75 0 0 1 518,246.91 L525,266.8983 L1165.5,266.8983 A2.5,2.5 0 0 1 1168,269.3983 L1168,861.12 A2.5,2.5 0 0 1 1165.5,863.62 L279.5,863.62 A2.5,2.5 0 0 1 277,861.12 L277,246.91 A2.5,2.5 0 0 1 279.5,244.41 " fill="none" style="stroke:#000000;stroke-width:1.5;"/><line style="stroke:#000000;stroke-width:1.5;" x1="277" x2="525" y1="266.8983" y2="266.8983"/><text fill="#000000" font-family="sans-serif" font-size="14" font-weight="bold" lengthAdjust="spacing" textLength="235" x="281" y="259.9452">org.vorpal.blade.services.transfer</text></g><!--cluster org.vorpal.blade.framework.b2bua--><g id="cluster_org.vorpal.blade.framework.b2bua"><path d="M8.5,6 L251.5,6 A3.75,3.75 0 0 1 254,8.5 L261,28.4883 L333.5,28.4883 A2.5,2.5 0 0 1 336,30.9883 L336,217.91 A2.5,2.5 0 0 1 333.5,220.41 L8.5,220.41 A2.5,2.5 0 0 1 6,217.91 L6,8.5 A2.5,2.5 0 0 1 8.5,6 " fill="none" style="stroke:#000000;stroke-width:1.5;"/><line style="stroke:#000000;stroke-width:1.5;" x1="6" x2="261" y1="28.4883" y2="28.4883"/><text fill="#000000" font-family="sans-serif" font-size="14" font-weight="bold" lengthAdjust="spacing" textLength="242" x="10" y="21.5352">org.vorpal.blade.framework.b2bua</text></g><!--cluster org.vorpal.blade.framework.transfer--><g id="cluster_org.vorpal.blade.framework.transfer"><path d="M362.5,22.48 L618.5,22.48 A3.75,3.75 0 0 1 621,24.98 L628,44.9683 L725.5,44.9683 A2.5,2.5 0 0 1 728,47.4683 L728,201.42 A2.5,2.5 0 0 1 725.5,203.92 L362.5,203.92 A2.5,2.5 0 0 1 360,201.42 L360,24.98 A2.5,2.5 0 0 1 362.5,22.48 " fill="none" style="stroke:#000000;stroke-width:1.5;"/><line style="stroke:#000000;stroke-width:1.5;" x1="360" x2="628" y1="44.9683" y2="44.9683"/><text fill="#000000" font-family="sans-serif" font-size="14" font-weight="bold" lengthAdjust="spacing" textLength="255" x="364" y="38.0152">org.vorpal.blade.framework.transfer</text></g><!--cluster org.vorpal.blade.framework.config--><g id="cluster_org.vorpal.blade.framework.config"><path d="M797.5,22.48 L1041.5,22.48 A3.75,3.75 0 0 1 1044,24.98 L1051,44.9683 L1098.5,44.9683 A2.5,2.5 0 0 1 1101,47.4683 L1101,201.42 A2.5,2.5 0 0 1 1098.5,203.92 L797.5,203.92 A2.5,2.5 0 0 1 795,201.42 L795,24.98 A2.5,2.5 0 0 1 797.5,22.48 " fill="none" style="stroke:#000000;stroke-width:1.5;"/><line style="stroke:#000000;stroke-width:1.5;" x1="795" x2="1051" y1="44.9683" y2="44.9683"/><text fill="#000000" font-family="sans-serif" font-size="14" font-weight="bold" lengthAdjust="spacing" textLength="243" x="799" y="38.0152">org.vorpal.blade.framework.config</text></g><!--cluster java.io--><g id="cluster_java.io"><path d="M1127.5,63.7 L1174.5,63.7 A3.75,3.75 0 0 1 1177,66.2 L1184,86.1883 L1266.5,86.1883 A2.5,2.5 0 0 1 1269,88.6883 L1269,160.2 A2.5,2.5 0 0 1 1266.5,162.7 L1127.5,162.7 A2.5,2.5 0 0 1 1125,160.2 L1125,66.2 A2.5,2.5 0 0 1 1127.5,63.7 " fill="none" style="stroke:#000000;stroke-width:1.5;"/><line style="stroke:#000000;stroke-width:1.5;" x1="1125" x2="1184" y1="86.1883" y2="86.1883"/><text fill="#000000" font-family="sans-serif" font-size="14" font-weight="bold" lengthAdjust="spacing" textLength="46" x="1129" y="79.2352">java.io</text></g><!--class TransferServlet--><a href="TransferServlet.html" target="_top" title="TransferServlet.html" xlink:actuate="onRequest" xlink:href="TransferServlet.html" xlink:show="new" xlink:title="TransferServlet.html" xlink:type="simple"><g id="elem_TransferServlet"><rect codeLine="5" fill="#F1F1F1" height="394.2539" id="TransferServlet" rx="2.5" ry="2.5" style="stroke:#181818;stroke-width:0.5;" width="458" x="293" y="279.41"/><ellipse cx="465.75" cy="295.41" fill="#ADD1B2" rx="11" ry="11" style="stroke:#181818;stroke-width:1.0;"/><path d="M468.2231,301.5531 Q467.6421,301.8519 467.0029,302.0013 Q466.3638,302.1507 465.6582,302.1507 Q463.1514,302.1507 461.8315,300.4989 Q460.5117,298.847 460.5117,295.7259 Q460.5117,292.5965 461.8315,290.9447 Q463.1514,289.2928 465.6582,289.2928 Q466.3638,289.2928 467.0112,289.4422 Q467.6587,289.5916 468.2231,289.8905 L468.2231,292.6131 Q467.5923,292.0321 466.9988,291.7623 Q466.4053,291.4925 465.7744,291.4925 Q464.4297,291.4925 463.7449,292.5592 Q463.0601,293.6258 463.0601,295.7259 Q463.0601,297.8177 463.7449,298.8844 Q464.4297,299.951 465.7744,299.951 Q466.4053,299.951 466.9988,299.6812 Q467.5923,299.4115 468.2231,298.8304 Z " fill="#000000"/><text fill="#000000" font-family="sans-serif" font-size="14" lengthAdjust="spacing" textLength="104" x="486.25" y="300.701">TransferServlet</text><line style="stroke:#181818;stroke-width:0.5;" x1="294" x2="750" y1="311.41" y2="311.41"/><rect fill="none" height="6" style="stroke:#C82930;stroke-width:1.0;" width="6" x="301" y="322.1541"/><text fill="#000000" font-family="sans-serif" font-size="14" lengthAdjust="spacing" text-decoration="underline" textLength="152" x="313" y="328.9452">serialVersionUID: long</text><ellipse cx="304" cy="341.6424" fill="none" rx="3" ry="3" style="stroke:#038048;stroke-width:1.0;"/><text fill="#000000" font-family="sans-serif" font-size="14" lengthAdjust="spacing" text-decoration="underline" textLength="372" x="313" y="345.4334">settingsManager: SettingsManager&lt;TransferSettings&gt;</text><line style="stroke:#181818;stroke-width:0.5;" x1="294" x2="750" y1="352.3866" y2="352.3866"/><ellipse cx="304" cy="366.1307" fill="#84BE84" rx="3" ry="3" style="stroke:#038048;stroke-width:1.0;"/><text fill="#000000" font-family="sans-serif" font-size="14" lengthAdjust="spacing" textLength="312" x="313" y="369.9217">showProperties(SipServletContextEvent): void</text><polygon fill="#FFFF44" points="304,377.619,308,381.619,304,385.619,300,381.619" style="stroke:#B38D22;stroke-width:1.0;"/><text fill="#000000" font-family="sans-serif" font-size="14" lengthAdjust="spacing" textLength="305" x="313" y="386.41">servletCreated(SipServletContextEvent): void</text><polygon fill="#FFFF44" points="304,394.1073,308,398.1073,304,402.1073,300,398.1073" style="stroke:#B38D22;stroke-width:1.0;"/><text fill="#000000" font-family="sans-serif" font-size="14" lengthAdjust="spacing" textLength="320" x="313" y="402.8983">servletDestroyed(SipServletContextEvent): void</text><rect fill="#F24D5C" height="6" style="stroke:#C82930;stroke-width:1.0;" width="6" x="301" y="412.5955"/><text fill="#000000" font-family="sans-serif" font-size="14" lengthAdjust="spacing" textLength="299" x="313" y="419.3866">chooseCallflowStyle(TransferStyle): Callflow</text><rect fill="#F24D5C" height="6" style="stroke:#C82930;stroke-width:1.0;" width="6" x="301" y="429.0838"/><text fill="#000000" font-family="sans-serif" font-size="14" lengthAdjust="spacing" textLength="250" x="313" y="435.8748">chooseCallflowStyle(String): Callflow</text><polygon fill="#FFFF44" points="304,443.5721,308,447.5721,304,451.5721,300,447.5721" style="stroke:#B38D22;stroke-width:1.0;"/><text fill="#000000" font-family="sans-serif" font-size="14" lengthAdjust="spacing" textLength="299" x="313" y="452.3631">chooseCallflow(SipServletRequest): Callflow</text><ellipse cx="304" cy="465.0604" fill="#84BE84" rx="3" ry="3" style="stroke:#038048;stroke-width:1.0;"/><text fill="#000000" font-family="sans-serif" font-size="14" lengthAdjust="spacing" textLength="241" x="313" y="468.8514">callStarted(SipServletRequest): void</text><ellipse cx="304" cy="481.5487" fill="#84BE84" rx="3" ry="3" style="stroke:#038048;stroke-width:1.0;"/><text fill="#000000" font-family="sans-serif" font-size="14" lengthAdjust="spacing" textLength="295" x="313" y="485.3397">transferRequested(SipServletRequest): void</text><ellipse cx="304" cy="498.037" fill="#84BE84" rx="3" ry="3" style="stroke:#038048;stroke-width:1.0;"/><text fill="#000000" font-family="sans-serif" font-size="14" lengthAdjust="spacing" textLength="279" x="313" y="501.828">transferInitiated(SipServletRequest): void</text><ellipse cx="304" cy="514.5252" fill="#84BE84" rx="3" ry="3" style="stroke:#038048;stroke-width:1.0;"/><text fill="#000000" font-family="sans-serif" font-size="14" lengthAdjust="spacing" textLength="309" x="313" y="518.3163">transferCompleted(SipServletResponse): void</text><ellipse cx="304" cy="531.0135" fill="#84BE84" rx="3" ry="3" style="stroke:#038048;stroke-width:1.0;"/><text fill="#000000" font-family="sans-serif" font-size="14" lengthAdjust="spacing" textLength="293" x="313" y="534.8045">transferDeclined(SipServletResponse): void</text><ellipse cx="304" cy="547.5018" fill="#84BE84" rx="3" ry="3" style="stroke:#038048;stroke-width:1.0;"/><text fill="#000000" font-family="sans-serif" font-size="14" lengthAdjust="spacing" textLength="303" x="313" y="551.2928">transferAbandoned(SipServletRequest): void</text><ellipse cx="304" cy="563.9901" fill="#84BE84" rx="3" ry="3" style="stroke:#038048;stroke-width:1.0;"/><text fill="#000000" font-family="sans-serif" font-size="14" lengthAdjust="spacing" textLength="271" x="313" y="567.7811">callAnswered(SipServletResponse): void</text><ellipse cx="304" cy="580.4784" fill="#84BE84" rx="3" ry="3" style="stroke:#038048;stroke-width:1.0;"/><text fill="#000000" font-family="sans-serif" font-size="14" lengthAdjust="spacing" textLength="266" x="313" y="584.2694">callConnected(SipServletRequest): void</text><ellipse cx="304" cy="596.9666" fill="#84BE84" rx="3" ry="3" style="stroke:#038048;stroke-width:1.0;"/><text fill="#000000" font-family="sans-serif" font-size="14" lengthAdjust="spacing" textLength="267" x="313" y="600.7577">callCompleted(SipServletRequest): void</text><ellipse cx="304" cy="613.4549" fill="#84BE84" rx="3" ry="3" style="stroke:#038048;stroke-width:1.0;"/><text fill="#000000" font-family="sans-serif" font-size="14" lengthAdjust="spacing" textLength="262" x="313" y="617.2459">callDeclined(SipServletResponse): void</text><ellipse cx="304" cy="629.9432" fill="#84BE84" rx="3" ry="3" style="stroke:#038048;stroke-width:1.0;"/><text fill="#000000" font-family="sans-serif" font-size="14" lengthAdjust="spacing" textLength="272" x="313" y="633.7342">callAbandoned(SipServletRequest): void</text><ellipse cx="304" cy="646.4315" fill="#84BE84" rx="3" ry="3" style="stroke:#038048;stroke-width:1.0;"/><text fill="#000000" font-family="sans-serif" font-size="14" lengthAdjust="spacing" text-decoration="underline" textLength="405" x="313" y="650.2225">getSettingsManager(): SettingsManager&lt;TransferSettings&gt;</text><ellipse cx="304" cy="662.9198" fill="#84BE84" rx="3" ry="3" style="stroke:#038048;stroke-width:1.0;"/><text fill="#000000" font-family="sans-serif" font-size="14" lengthAdjust="spacing" text-decoration="underline" textLength="432" x="313" y="666.7108">setSettingsManager(SettingsManager&lt;TransferSettings&gt;): void</text></g></a><!--class TransferSettings--><a href="TransferSettings.html" target="_top" title="TransferSettings.html" xlink:actuate="onRequest" xlink:href="TransferSettings.html" xlink:show="new" xlink:title="TransferSettings.html" xlink:type="simple"><g id="elem_TransferSettings"><rect codeLine="29" fill="#F1F1F1" height="212.8828" id="TransferSettings" rx="2.5" ry="2.5" style="stroke:#181818;stroke-width:0.5;" width="367" x="785.5" y="370.1"/><ellipse cx="908.25" cy="386.1" fill="#ADD1B2" rx="11" ry="11" style="stroke:#181818;stroke-width:1.0;"/><path d="M910.7231,392.2431 Q910.1421,392.5419 909.5029,392.6913 Q908.8638,392.8407 908.1582,392.8407 Q905.6514,392.8407 904.3315,391.1889 Q903.0117,389.537 903.0117,386.4159 Q903.0117,383.2865 904.3315,381.6347 Q905.6514,379.9828 908.1582,379.9828 Q908.8638,379.9828 909.5112,380.1322 Q910.1587,380.2816 910.7231,380.5805 L910.7231,383.3031 Q910.0923,382.7221 909.4988,382.4523 Q908.9053,382.1825 908.2744,382.1825 Q906.9297,382.1825 906.2449,383.2492 Q905.5601,384.3158 905.5601,386.4159 Q905.5601,388.5077 906.2449,389.5744 Q906.9297,390.641 908.2744,390.641 Q908.9053,390.641 909.4988,390.3712 Q910.0923,390.1015 910.7231,389.5204 Z " fill="#000000"/><text fill="#000000" font-family="sans-serif" font-size="14" lengthAdjust="spacing" textLength="113" x="928.75" y="391.391">TransferSettings</text><line style="stroke:#181818;stroke-width:0.5;" x1="786.5" x2="1151.5" y1="402.1" y2="402.1"/><rect fill="none" height="6" style="stroke:#C82930;stroke-width:1.0;" width="6" x="793.5" y="412.8441"/><text fill="#000000" font-family="sans-serif" font-size="14" lengthAdjust="spacing" text-decoration="underline" textLength="152" x="805.5" y="419.6352">serialVersionUID: long</text><polygon fill="none" points="796.5,427.3324,800.5,431.3324,796.5,435.3324,792.5,431.3324" style="stroke:#B38D22;stroke-width:1.0;"/><text fill="#000000" font-family="sans-serif" font-size="14" lengthAdjust="spacing" textLength="85" x="805.5" y="436.1234">allow: String</text><polygon fill="none" points="796.5,443.8207,800.5,447.8207,796.5,451.8207,792.5,447.8207" style="stroke:#B38D22;stroke-width:1.0;"/><text fill="#000000" font-family="sans-serif" font-size="14" lengthAdjust="spacing" textLength="283" x="805.5" y="452.6117">preserveInviteHeaders: ArrayList&lt;String&gt;</text><polygon fill="none" points="796.5,460.309,800.5,464.309,796.5,468.309,792.5,464.309" style="stroke:#B38D22;stroke-width:1.0;"/><text fill="#000000" font-family="sans-serif" font-size="14" lengthAdjust="spacing" textLength="282" x="805.5" y="469.1">preserveReferHeaders: ArrayList&lt;String&gt;</text><line style="stroke:#181818;stroke-width:0.5;" x1="786.5" x2="1151.5" y1="476.0531" y2="476.0531"/><ellipse cx="796.5" cy="489.7973" fill="#84BE84" rx="3" ry="3" style="stroke:#038048;stroke-width:1.0;"/><text fill="#000000" font-family="sans-serif" font-size="14" lengthAdjust="spacing" textLength="313" x="805.5" y="493.5883">getPreserveReferHeaders(): ArrayList&lt;String&gt;</text><ellipse cx="796.5" cy="506.2855" fill="#84BE84" rx="3" ry="3" style="stroke:#038048;stroke-width:1.0;"/><text fill="#000000" font-family="sans-serif" font-size="14" lengthAdjust="spacing" textLength="340" x="805.5" y="510.0766">setPreserveReferHeaders(ArrayList&lt;String&gt;): void</text><ellipse cx="796.5" cy="522.7738" fill="#84BE84" rx="3" ry="3" style="stroke:#038048;stroke-width:1.0;"/><text fill="#000000" font-family="sans-serif" font-size="14" lengthAdjust="spacing" textLength="314" x="805.5" y="526.5648">getPreserveInviteHeaders(): ArrayList&lt;String&gt;</text><ellipse cx="796.5" cy="539.2621" fill="#84BE84" rx="3" ry="3" style="stroke:#038048;stroke-width:1.0;"/><text fill="#000000" font-family="sans-serif" font-size="14" lengthAdjust="spacing" textLength="341" x="805.5" y="543.0531">setPreserveInviteHeaders(ArrayList&lt;String&gt;): void</text><ellipse cx="796.5" cy="555.7504" fill="#84BE84" rx="3" ry="3" style="stroke:#038048;stroke-width:1.0;"/><text fill="#000000" font-family="sans-serif" font-size="14" lengthAdjust="spacing" textLength="119" x="805.5" y="559.5414">getAllow(): String</text><ellipse cx="796.5" cy="572.2387" fill="#84BE84" rx="3" ry="3" style="stroke:#038048;stroke-width:1.0;"/><text fill="#000000" font-family="sans-serif" font-size="14" lengthAdjust="spacing" textLength="230" x="805.5" y="576.0297">setAllow(String): TransferSettings</text></g></a><!--class TransferSettings.TransferStyle--><a href="TransferSettings.TransferStyle.html" target="_top" title="TransferSettings.TransferStyle.html" xlink:actuate="onRequest" xlink:href="TransferSettings.TransferStyle.html" xlink:show="new" xlink:title="TransferSettings.TransferStyle.html" xlink:type="simple"><g id="elem_TransferSettings.TransferStyle"><rect codeLine="42" fill="#F1F1F1" height="113.9531" id="TransferSettings.TransferStyle" rx="2.5" ry="2.5" style="stroke:#181818;stroke-width:0.5;" width="239" x="640.5" y="733.67"/><ellipse cx="655.5" cy="749.67" fill="#EB937F" rx="11" ry="11" style="stroke:#181818;stroke-width:1.0;"/><path d="M659.1143,756.17 L651.3945,756.17 L651.3945,743.7769 L659.1143,743.7769 L659.1143,745.9351 L653.8433,745.9351 L653.8433,748.608 L658.6162,748.608 L658.6162,750.7662 L653.8433,750.7662 L653.8433,754.0118 L659.1143,754.0118 Z " fill="#000000"/><text fill="#000000" font-family="sans-serif" font-size="14" lengthAdjust="spacing" textLength="207" x="669.5" y="754.961">TransferSettings.TransferStyle</text><line style="stroke:#181818;stroke-width:0.5;" x1="641.5" x2="878.5" y1="765.67" y2="765.67"/><ellipse cx="651.5" cy="779.4141" fill="none" rx="3" ry="3" style="stroke:#038048;stroke-width:1.0;"/><text fill="#000000" font-family="sans-serif" font-size="14" lengthAdjust="spacing" text-decoration="underline" textLength="35" x="660.5" y="783.2052">none</text><ellipse cx="651.5" cy="795.9024" fill="none" rx="3" ry="3" style="stroke:#038048;stroke-width:1.0;"/><text fill="#000000" font-family="sans-serif" font-size="14" lengthAdjust="spacing" text-decoration="underline" textLength="35" x="660.5" y="799.6934">blind</text><ellipse cx="651.5" cy="812.3907" fill="none" rx="3" ry="3" style="stroke:#038048;stroke-width:1.0;"/><text fill="#000000" font-family="sans-serif" font-size="14" lengthAdjust="spacing" text-decoration="underline" textLength="61" x="660.5" y="816.1817">attended</text><ellipse cx="651.5" cy="828.879" fill="none" rx="3" ry="3" style="stroke:#038048;stroke-width:1.0;"/><text fill="#000000" font-family="sans-serif" font-size="14" lengthAdjust="spacing" text-decoration="underline" textLength="76" x="660.5" y="832.67">conference</text><line style="stroke:#181818;stroke-width:0.5;" x1="641.5" x2="878.5" y1="839.6231" y2="839.6231"/></g></a><!--class TransferSettingsSample--><a href="TransferSettingsSample.html" target="_top" title="TransferSettingsSample.html" xlink:actuate="onRequest" xlink:href="TransferSettingsSample.html" xlink:show="new" xlink:title="TransferSettingsSample.html" xlink:type="simple"><g id="elem_TransferSettingsSample"><rect codeLine="49" fill="#F1F1F1" height="64.4883" id="TransferSettingsSample" rx="2.5" ry="2.5" style="stroke:#181818;stroke-width:0.5;" width="195" x="914.5" y="758.4"/><ellipse cx="929.5" cy="774.4" fill="#ADD1B2" rx="11" ry="11" style="stroke:#181818;stroke-width:1.0;"/><path d="M931.9731,780.5431 Q931.3921,780.8419 930.7529,780.9913 Q930.1138,781.1407 929.4082,781.1407 Q926.9014,781.1407 925.5815,779.4889 Q924.2617,777.837 924.2617,774.7159 Q924.2617,771.5865 925.5815,769.9347 Q926.9014,768.2828 929.4082,768.2828 Q930.1138,768.2828 930.7612,768.4322 Q931.4087,768.5816 931.9731,768.8805 L931.9731,771.6031 Q931.3423,771.0221 930.7488,770.7523 Q930.1553,770.4825 929.5244,770.4825 Q928.1797,770.4825 927.4949,771.5492 Q926.8101,772.6158 926.8101,774.7159 Q926.8101,776.8077 927.4949,777.8744 Q928.1797,778.941 929.5244,778.941 Q930.1553,778.941 930.7488,778.6712 Q931.3423,778.4015 931.9731,777.8204 Z " fill="#000000"/><text fill="#000000" font-family="sans-serif" font-size="14" lengthAdjust="spacing" textLength="163" x="943.5" y="779.691">TransferSettingsSample</text><line style="stroke:#181818;stroke-width:0.5;" x1="915.5" x2="1108.5" y1="790.4" y2="790.4"/><rect fill="none" height="6" style="stroke:#C82930;stroke-width:1.0;" width="6" x="922.5" y="801.1441"/><text fill="#000000" font-family="sans-serif" font-size="14" lengthAdjust="spacing" text-decoration="underline" textLength="152" x="934.5" y="807.9352">serialVersionUID: long</text><line style="stroke:#181818;stroke-width:0.5;" x1="915.5" x2="1108.5" y1="814.8883" y2="814.8883"/></g></a><!--class B2buaServlet--><g id="elem_B2buaServlet"><rect codeLine="56" fill="#F1F1F1" height="163.418" id="B2buaServlet" rx="2.5" ry="2.5" style="stroke:#181818;stroke-width:0.5;" width="298" x="22" y="41"/><ellipse cx="122.25" cy="57" fill="#A9DCDF" rx="11" ry="11" style="stroke:#181818;stroke-width:1.0;"/><path d="M122.1133,52.3481 L120.9595,57.4199 L123.2754,57.4199 Z M120.6191,50.1069 L123.6157,50.1069 L126.9609,62.5 L124.5122,62.5 L123.7485,59.437 L120.4697,59.437 L119.7227,62.5 L117.2739,62.5 Z " fill="#000000"/><text fill="#000000" font-family="sans-serif" font-size="14" font-style="italic" lengthAdjust="spacing" textLength="89" x="142.75" y="62.291">B2buaServlet</text><line style="stroke:#181818;stroke-width:0.5;" x1="23" x2="319" y1="73" y2="73"/><rect fill="none" height="6" style="stroke:#C82930;stroke-width:1.0;" width="6" x="30" y="83.7441"/><text fill="#000000" font-family="sans-serif" font-size="14" lengthAdjust="spacing" text-decoration="underline" textLength="152" x="42" y="90.5352">serialVersionUID: long</text><line style="stroke:#181818;stroke-width:0.5;" x1="23" x2="319" y1="97.4883" y2="97.4883"/><ellipse cx="33" cy="111.2324" fill="#84BE84" rx="3" ry="3" style="stroke:#038048;stroke-width:1.0;"/><text fill="#000000" font-family="sans-serif" font-size="14" font-style="italic" lengthAdjust="spacing" textLength="241" x="42" y="115.0234">callStarted(SipServletRequest): void</text><ellipse cx="33" cy="127.7207" fill="#84BE84" rx="3" ry="3" style="stroke:#038048;stroke-width:1.0;"/><text fill="#000000" font-family="sans-serif" font-size="14" font-style="italic" lengthAdjust="spacing" textLength="271" x="42" y="131.5117">callAnswered(SipServletResponse): void</text><ellipse cx="33" cy="144.209" fill="#84BE84" rx="3" ry="3" style="stroke:#038048;stroke-width:1.0;"/><text fill="#000000" font-family="sans-serif" font-size="14" font-style="italic" lengthAdjust="spacing" textLength="266" x="42" y="148">callConnected(SipServletRequest): void</text><ellipse cx="33" cy="160.6973" fill="#84BE84" rx="3" ry="3" style="stroke:#038048;stroke-width:1.0;"/><text fill="#000000" font-family="sans-serif" font-size="14" font-style="italic" lengthAdjust="spacing" textLength="267" x="42" y="164.4883">callCompleted(SipServletRequest): void</text><ellipse cx="33" cy="177.1855" fill="#84BE84" rx="3" ry="3" style="stroke:#038048;stroke-width:1.0;"/><text fill="#000000" font-family="sans-serif" font-size="14" font-style="italic" lengthAdjust="spacing" textLength="262" x="42" y="180.9766">callDeclined(SipServletResponse): void</text><ellipse cx="33" cy="193.6738" fill="#84BE84" rx="3" ry="3" style="stroke:#038048;stroke-width:1.0;"/><text fill="#000000" font-family="sans-serif" font-size="14" font-style="italic" lengthAdjust="spacing" textLength="272" x="42" y="197.4648">callAbandoned(SipServletRequest): void</text></g><!--class TransferListener--><a href="../../framework/transfer/TransferListener.html" target="_top" title="../../framework/transfer/TransferListener.html" xlink:actuate="onRequest" xlink:href="../../framework/transfer/TransferListener.html" xlink:show="new" xlink:title="../../framework/transfer/TransferListener.html" xlink:type="simple"><g id="elem_TransferListener"><rect codeLine="68" fill="#F1F1F1" height="130.4414" id="TransferListener" rx="2.5" ry="2.5" style="stroke:#181818;stroke-width:0.5;" width="335" x="376.5" y="57.48"/><ellipse cx="483.75" cy="73.48" fill="#B4A7E5" rx="11" ry="11" style="stroke:#181818;stroke-width:1.0;"/><path d="M480.1777,69.7451 L480.1777,67.5869 L487.5571,67.5869 L487.5571,69.7451 L485.0918,69.7451 L485.0918,77.8218 L487.5571,77.8218 L487.5571,79.98 L480.1777,79.98 L480.1777,77.8218 L482.6431,77.8218 L482.6431,69.7451 Z " fill="#000000"/><text fill="#000000" font-family="sans-serif" font-size="14" font-style="italic" lengthAdjust="spacing" textLength="112" x="504.25" y="78.771">TransferListener</text><line style="stroke:#181818;stroke-width:0.5;" x1="377.5" x2="710.5" y1="89.48" y2="89.48"/><line style="stroke:#181818;stroke-width:0.5;" x1="377.5" x2="710.5" y1="97.48" y2="97.48"/><ellipse cx="387.5" cy="111.2241" fill="#84BE84" rx="3" ry="3" style="stroke:#038048;stroke-width:1.0;"/><text fill="#000000" font-family="sans-serif" font-size="14" font-style="italic" lengthAdjust="spacing" textLength="295" x="396.5" y="115.0152">transferRequested(SipServletRequest): void</text><ellipse cx="387.5" cy="127.7124" fill="#84BE84" rx="3" ry="3" style="stroke:#038048;stroke-width:1.0;"/><text fill="#000000" font-family="sans-serif" font-size="14" font-style="italic" lengthAdjust="spacing" textLength="279" x="396.5" y="131.5034">transferInitiated(SipServletRequest): void</text><ellipse cx="387.5" cy="144.2007" fill="#84BE84" rx="3" ry="3" style="stroke:#038048;stroke-width:1.0;"/><text fill="#000000" font-family="sans-serif" font-size="14" font-style="italic" lengthAdjust="spacing" textLength="309" x="396.5" y="147.9917">transferCompleted(SipServletResponse): void</text><ellipse cx="387.5" cy="160.689" fill="#84BE84" rx="3" ry="3" style="stroke:#038048;stroke-width:1.0;"/><text fill="#000000" font-family="sans-serif" font-size="14" font-style="italic" lengthAdjust="spacing" textLength="293" x="396.5" y="164.48">transferDeclined(SipServletResponse): void</text><ellipse cx="387.5" cy="177.1773" fill="#84BE84" rx="3" ry="3" style="stroke:#038048;stroke-width:1.0;"/><text fill="#000000" font-family="sans-serif" font-size="14" font-style="italic" lengthAdjust="spacing" textLength="303" x="396.5" y="180.9683">transferAbandoned(SipServletRequest): void</text></g></a><!--class RouterConfig--><a href="https://vorpalnet.github.io/blade/vorpal-blade-library-framework/org/vorpal/blade/framework/config/RouterConfig.html?is-external=true" target="_top" title="https://vorpalnet.github.io/blade/vorpal-blade-library-framework/org/vorpal/blade/framework/config/RouterConfig.html?is-external=true" xlink:actuate="onRequest" xlink:href="https://vorpalnet.github.io/blade/vorpal-blade-library-framework/org/vorpal/blade/framework/config/RouterConfig.html?is-external=true" xlink:show="new" xlink:title="https://vorpalnet.github.io/blade/vorpal-blade-library-framework/org/vorpal/blade/framework/config/RouterConfig.html?is-external=true" xlink:type="simple"><g id="elem_RouterConfig"><rect codeLine="78" fill="#F1F1F1" height="130.4414" id="RouterConfig" rx="2.5" ry="2.5" style="stroke:#181818;stroke-width:0.5;" width="275" x="810.5" y="57.48"/><ellipse cx="897.75" cy="73.48" fill="#ADD1B2" rx="11" ry="11" style="stroke:#181818;stroke-width:1.0;"/><path d="M900.2231,79.6231 Q899.6421,79.9219 899.0029,80.0713 Q898.3638,80.2207 897.6582,80.2207 Q895.1514,80.2207 893.8315,78.5689 Q892.5117,76.917 892.5117,73.7959 Q892.5117,70.6665 893.8315,69.0147 Q895.1514,67.3628 897.6582,67.3628 Q898.3638,67.3628 899.0112,67.5122 Q899.6587,67.6616 900.2231,67.9605 L900.2231,70.6831 Q899.5923,70.1021 898.9988,69.8323 Q898.4053,69.5625 897.7744,69.5625 Q896.4297,69.5625 895.7449,70.6292 Q895.0601,71.6958 895.0601,73.7959 Q895.0601,75.8877 895.7449,76.9544 Q896.4297,78.021 897.7744,78.021 Q898.4053,78.021 898.9988,77.7512 Q899.5923,77.4815 900.2231,76.9004 Z " fill="#000000"/><text fill="#000000" font-family="sans-serif" font-size="14" lengthAdjust="spacing" textLength="92" x="918.25" y="78.771">RouterConfig</text><line style="stroke:#181818;stroke-width:0.5;" x1="811.5" x2="1084.5" y1="89.48" y2="89.48"/><rect fill="none" height="6" style="stroke:#C82930;stroke-width:1.0;" width="6" x="818.5" y="100.2241"/><text fill="#000000" font-family="sans-serif" font-size="14" lengthAdjust="spacing" text-decoration="underline" textLength="152" x="830.5" y="107.0152">serialVersionUID: long</text><ellipse cx="821.5" cy="119.7124" fill="none" rx="3" ry="3" style="stroke:#038048;stroke-width:1.0;"/><text fill="#000000" font-family="sans-serif" font-size="14" lengthAdjust="spacing" textLength="214" x="830.5" y="123.5034">selectors: LinkedList&lt;Selector&gt;</text><ellipse cx="821.5" cy="136.2007" fill="none" rx="3" ry="3" style="stroke:#038048;stroke-width:1.0;"/><text fill="#000000" font-family="sans-serif" font-size="14" lengthAdjust="spacing" textLength="249" x="830.5" y="139.9917">maps: LinkedList&lt;TranslationsMap&gt;</text><ellipse cx="821.5" cy="152.689" fill="none" rx="3" ry="3" style="stroke:#038048;stroke-width:1.0;"/><text fill="#000000" font-family="sans-serif" font-size="14" lengthAdjust="spacing" textLength="242" x="830.5" y="156.48">plan: LinkedList&lt;TranslationsMap&gt;</text><ellipse cx="821.5" cy="169.1773" fill="none" rx="3" ry="3" style="stroke:#038048;stroke-width:1.0;"/><text fill="#000000" font-family="sans-serif" font-size="14" lengthAdjust="spacing" textLength="174" x="830.5" y="172.9683">defaultRoute: Translation</text><line style="stroke:#181818;stroke-width:0.5;" x1="811.5" x2="1084.5" y1="179.9214" y2="179.9214"/></g></a><!--class Serializable--><a href="https://docs.oracle.com/en/java/javase/11/docs/api/java.base/java/io/Serializable.html?is-external=true" target="_top" title="https://docs.oracle.com/en/java/javase/11/docs/api/java.base/java/io/Serializable.html?is-external=true" xlink:actuate="onRequest" xlink:href="https://docs.oracle.com/en/java/javase/11/docs/api/java.base/java/io/Serializable.html?is-external=true" xlink:show="new" xlink:title="https://docs.oracle.com/en/java/javase/11/docs/api/java.base/java/io/Serializable.html?is-external=true" xlink:type="simple"><g id="elem_Serializable"><rect codeLine="88" fill="#F1F1F1" height="48" id="Serializable" rx="2.5" ry="2.5" style="stroke:#181818;stroke-width:0.5;" width="111" x="1141.5" y="98.7"/><ellipse cx="1156.5" cy="114.7" fill="#B4A7E5" rx="11" ry="11" style="stroke:#181818;stroke-width:1.0;"/><path d="M1152.9277,110.9651 L1152.9277,108.8069 L1160.3071,108.8069 L1160.3071,110.9651 L1157.8418,110.9651 L1157.8418,119.0418 L1160.3071,119.0418 L1160.3071,121.2 L1152.9277,121.2 L1152.9277,119.0418 L1155.3931,119.0418 L1155.3931,110.9651 Z " fill="#000000"/><text fill="#000000" font-family="sans-serif" font-size="14" font-style="italic" lengthAdjust="spacing" textLength="79" x="1170.5" y="119.991">Serializable</text><line style="stroke:#181818;stroke-width:0.5;" x1="1142.5" x2="1251.5" y1="130.7" y2="130.7"/><line style="stroke:#181818;stroke-width:0.5;" x1="1142.5" x2="1251.5" y1="138.7" y2="138.7"/></g></a><!--reverse link B2buaServlet to TransferServlet--><g id="link_B2buaServlet_TransferServlet"><path codeLine="91" d="M264.6809,217.6049 C287.1509,240.1349 299.86,252.87 325.89,278.97 " fill="none" id="B2buaServlet-backto-TransferServlet" style="stroke:#181818;stroke-width:1.0;"/><polygon fill="none" points="251.97,204.86,260.4326,221.8419,268.9292,213.3679,251.97,204.86" style="stroke:#181818;stroke-width:1.0;"/></g><!--reverse link TransferListener to TransferServlet--><g id="link_TransferListener_TransferServlet"><path codeLine="92" d="M538.8415,206.2052 C537.2115,232.3852 536.34,246.2 534.29,278.95 " fill="none" id="TransferListener-backto-TransferServlet" style="stroke:#181818;stroke-width:1.0;stroke-dasharray:7.0,7.0;"/><polygon fill="none" points="539.96,188.24,532.8531,205.8324,544.8299,206.5781,539.96,188.24" style="stroke:#181818;stroke-width:1.0;"/></g><!--reverse link RouterConfig to TransferSettings--><g id="link_RouterConfig_TransferSettings"><path codeLine="93" d="M952.9242,206.2079 C955.9542,256.8879 959.15,310.57 962.68,369.63 " fill="none" id="RouterConfig-backto-TransferSettings" style="stroke:#181818;stroke-width:1.0;"/><polygon fill="none" points="951.85,188.24,946.9349,206.566,958.9136,205.8498,951.85,188.24" style="stroke:#181818;stroke-width:1.0;"/></g><!--reverse link Serializable to TransferSettings--><g id="link_Serializable_TransferSettings"><path codeLine="94" d="M1172.0714,162.1657 C1143.1314,206.8257 1088.12,291.73 1037.56,369.74 " fill="none" id="Serializable-backto-TransferSettings" style="stroke:#181818;stroke-width:1.0;stroke-dasharray:7.0,7.0;"/><polygon fill="none" points="1181.86,147.06,1167.0361,158.9029,1177.1066,165.4286,1181.86,147.06" style="stroke:#181818;stroke-width:1.0;"/></g><!--reverse link TransferSettings to TransferSettings.TransferStyle--><g id="link_TransferSettings_TransferSettings.TransferStyle"><path codeLine="95" d="M889.3385,596.4953 C855.7085,646.7253 825.75,691.45 797.82,733.17 " fill="none" id="TransferSettings-backto-TransferSettings.TransferStyle" style="stroke:#181818;stroke-width:1.0;"/><ellipse cx="893.7893" cy="589.8476" fill="#FFFFFF" rx="8" ry="8" style="stroke:#181818;stroke-width:1.0;"/><line style="stroke:#181818;stroke-width:1.0;" x1="889.3385" x2="898.24" y1="596.4953" y2="583.2"/><line style="stroke:#181818;stroke-width:1.0;" x1="887.1416" x2="900.4369" y1="585.3969" y2="594.2984"/></g><!--reverse link TransferSettings to TransferSettingsSample--><g id="link_TransferSettings_TransferSettingsSample"><path codeLine="96" d="M986.0166,601.0316 C994.4466,662.2216 1002.01,717.16 1007.63,757.91 " fill="none" id="TransferSettings-backto-TransferSettingsSample" style="stroke:#181818;stroke-width:1.0;"/><polygon fill="none" points="983.56,583.2,980.0728,601.8504,991.9605,600.2127,983.56,583.2" style="stroke:#181818;stroke-width:1.0;"/></g><text fill="#888888" font-family="sans-serif" font-size="10" lengthAdjust="spacing" textLength="176" x="543" y="879.288">UMLDoclet 2.1.2, PlantUML 1.2024.3</text><!--SRC=[jLTRRzis57xlho0G34ZWMKBoA6GTicJ00YH04BTxCVfm91_RR6XI8sbxQUl_laD9jaLPYarbDNo1oVET-qsCCMRGqYS73LPfbYGVFj0Xoo5xWHaofMVHIkaSH9GAc61aKAzuXYQo6gIPecRVIuHxPGACOP-gcn6H2k8-7ZTEehbTY2zV2Cbgh-_6WkNPXWr91WVnDsh3bVnyVvSmeUIidNX0-bikP-OH92ci4pRo3wxtmilpZnwZWPchzPDMEMhBqPoFU5vfUQkanN_jdokKzY9XAyKd7lBCL7GQmUAa1_8EZTNgDGWxpEPA6Rm58QP2hKVsLU3vpaJtZr3Rs-F8aTNaaox8cG-fgVcC_on9-oxW8AFJaGNjEsQFEh1hiCsdYYOOTo-vvH2EkrMBd4WRE9ChQV1Du1rcWijmt4qASgBaoOewLzv8iqPzkYo7eKoIcDaWEUtEU1iJweV2dZ0VxAjzXhPHt-SNeINlzOucjwEiclfjkjjVYV3wNtdqFpJ0C_AYMfFfHG7xLxb6rs7mNgwunR-G-hOs2RlH6buVkB7N9UXZE-ePITCJGIuUJoqu5vGZIDE1F82r9b5DhcTbc60VUhBa6-Vw8kyEdU_Ob_UxrjgCVblge5mk3WWZhw-tvP57S2Ih1f8AhkCgfGhkAZcm5kK4kwup9Ka1b1cUNX8ZS6scnQ3ouftbKOdV7DbafXeMk5Rw9KglqYNKf45ASnaoMsd_XxlUBZFlsLcsV3SzvcCJ73WHcl30uN083veJJNZWo3Ym_VJfiGbCXTfMksN1QI7JKyXmbyQkHw0ael4uYc9wx_3n5XytQJjokcPPpmMeZKNWBjJ68dGjQkFnZZ3tM9P2G-qQ5v_L0b9M-xDQMcT-SJaUpwtDJHB79HD93oypRkVBDE8gBZXMDyFYpr3mL8D-7UupWZIeI2hw_LMfGLoNMAJ9xzmCwHa0jGJnczLBVD-gG2D9KAqhDyuVk7p1IJdagjF6U5n0xjCLcIn87CNj4V86UIv01f1FS0fBOGkJgybOqhuTng-m0l9uQrME2W_mRv0M8sKRi8dAJAGedMYUP6eHeumTb-BBO7nvML34aFFYA4hTQK51aQtpx0f9NSzZmoL9l25o_MCuFE7HEaaQ3yx7P1q2Twtg-aSK_GoHPGudYLSsFUohhKPLi9F4YsmF0sey-m3PeASL_bhMNtvlDvPhL24uGrSeRAgK-_dy-72dCfU2Lz5bTFKhUwBojNJAVbcLBUJyuZy0]--></g></svg>