<?xml version="1.0" encoding="us-ascii" standalone="no"?><svg xmlns="http://www.w3.org/2000/svg" xmlns:xlink="http://www.w3.org/1999/xlink" contentStyleType="text/css" height="638px" preserveAspectRatio="none" style="width:682px;height:638px;background:#FFFFFF;" version="1.1" viewBox="0 0 682 638" width="682px" zoomAndPan="magnify"><defs/><g><!--class org.vorpal.blade.services.transfer.TransferServlet--><a href="TransferServlet.html" target="_top" title="TransferServlet.html" xlink:actuate="onRequest" xlink:href="TransferServlet.html" xlink:show="new" xlink:title="TransferServlet.html" xlink:type="simple"><g id="elem_org.vorpal.blade.services.transfer.TransferServlet"><rect codeLine="5" fill="#F1F1F1" height="400.5195" id="org.vorpal.blade.services.transfer.TransferServlet" rx="2.5" ry="2.5" style="stroke:#181818;stroke-width:0.5;" width="458" x="103" y="212.19"/><ellipse cx="246.25" cy="231.3228" fill="#ADD1B2" rx="11" ry="11" style="stroke:#181818;stroke-width:1.0;"/><path d="M248.7231,237.4659 Q248.1421,237.7647 247.5029,237.9141 Q246.8638,238.0635 246.1582,238.0635 Q243.6514,238.0635 242.3315,236.4117 Q241.0117,234.7598 241.0117,231.6387 Q241.0117,228.5093 242.3315,226.8575 Q243.6514,225.2056 246.1582,225.2056 Q246.8638,225.2056 247.5112,225.355 Q248.1587,225.5045 248.7231,225.8033 L248.7231,228.5259 Q248.0923,227.9449 247.4988,227.6751 Q246.9053,227.4053 246.2744,227.4053 Q244.9297,227.4053 244.2449,228.472 Q243.5601,229.5386 243.5601,231.6387 Q243.5601,233.7305 244.2449,234.7972 Q244.9297,235.8638 246.2744,235.8638 Q246.9053,235.8638 247.4988,235.5941 Q248.0923,235.3243 248.7231,234.7432 Z " fill="#000000"/><text fill="#000000" font-family="sans-serif" font-size="14" lengthAdjust="spacing" textLength="104" x="296.25" y="230.7252">TransferServlet</text><text fill="#000000" font-family="sans-serif" font-size="10" lengthAdjust="spacing" textLength="163" x="266.75" y="243.3463">org.vorpal.blade.services.transfer</text><line style="stroke:#181818;stroke-width:0.5;" x1="104" x2="560" y1="250.4556" y2="250.4556"/><rect fill="none" height="6" style="stroke:#C82930;stroke-width:1.0;" width="6" x="111" y="261.1998"/><text fill="#000000" font-family="sans-serif" font-size="14" lengthAdjust="spacing" text-decoration="underline" textLength="152" x="123" y="267.9908">serialVersionUID: long</text><ellipse cx="114" cy="280.688" fill="none" rx="3" ry="3" style="stroke:#038048;stroke-width:1.0;"/><text fill="#000000" font-family="sans-serif" font-size="14" lengthAdjust="spacing" text-decoration="underline" textLength="372" x="123" y="284.4791">settingsManager: SettingsManager&lt;TransferSettings&gt;</text><line style="stroke:#181818;stroke-width:0.5;" x1="104" x2="560" y1="291.4322" y2="291.4322"/><ellipse cx="114" cy="305.1763" fill="#84BE84" rx="3" ry="3" style="stroke:#038048;stroke-width:1.0;"/><text fill="#000000" font-family="sans-serif" font-size="14" lengthAdjust="spacing" textLength="312" x="123" y="308.9673">showProperties(SipServletContextEvent): void</text><polygon fill="#FFFF44" points="114,316.6646,118,320.6646,114,324.6646,110,320.6646" style="stroke:#B38D22;stroke-width:1.0;"/><text fill="#000000" font-family="sans-serif" font-size="14" lengthAdjust="spacing" textLength="305" x="123" y="325.4556">servletCreated(SipServletContextEvent): void</text><polygon fill="#FFFF44" points="114,333.1529,118,337.1529,114,341.1529,110,337.1529" style="stroke:#B38D22;stroke-width:1.0;"/><text fill="#000000" font-family="sans-serif" font-size="14" lengthAdjust="spacing" textLength="320" x="123" y="341.9439">servletDestroyed(SipServletContextEvent): void</text><rect fill="#F24D5C" height="6" style="stroke:#C82930;stroke-width:1.0;" width="6" x="111" y="351.6412"/><text fill="#000000" font-family="sans-serif" font-size="14" lengthAdjust="spacing" textLength="299" x="123" y="358.4322">chooseCallflowStyle(TransferStyle): Callflow</text><rect fill="#F24D5C" height="6" style="stroke:#C82930;stroke-width:1.0;" width="6" x="111" y="368.1295"/><text fill="#000000" font-family="sans-serif" font-size="14" lengthAdjust="spacing" textLength="250" x="123" y="374.9205">chooseCallflowStyle(String): Callflow</text><polygon fill="#FFFF44" points="114,382.6177,118,386.6177,114,390.6177,110,386.6177" style="stroke:#B38D22;stroke-width:1.0;"/><text fill="#000000" font-family="sans-serif" font-size="14" lengthAdjust="spacing" textLength="299" x="123" y="391.4088">chooseCallflow(SipServletRequest): Callflow</text><ellipse cx="114" cy="404.106" fill="#84BE84" rx="3" ry="3" style="stroke:#038048;stroke-width:1.0;"/><text fill="#000000" font-family="sans-serif" font-size="14" lengthAdjust="spacing" textLength="241" x="123" y="407.897">callStarted(SipServletRequest): void</text><ellipse cx="114" cy="420.5943" fill="#84BE84" rx="3" ry="3" style="stroke:#038048;stroke-width:1.0;"/><text fill="#000000" font-family="sans-serif" font-size="14" lengthAdjust="spacing" textLength="295" x="123" y="424.3853">transferRequested(SipServletRequest): void</text><ellipse cx="114" cy="437.0826" fill="#84BE84" rx="3" ry="3" style="stroke:#038048;stroke-width:1.0;"/><text fill="#000000" font-family="sans-serif" font-size="14" lengthAdjust="spacing" textLength="279" x="123" y="440.8736">transferInitiated(SipServletRequest): void</text><ellipse cx="114" cy="453.5709" fill="#84BE84" rx="3" ry="3" style="stroke:#038048;stroke-width:1.0;"/><text fill="#000000" font-family="sans-serif" font-size="14" lengthAdjust="spacing" textLength="309" x="123" y="457.3619">transferCompleted(SipServletResponse): void</text><ellipse cx="114" cy="470.0591" fill="#84BE84" rx="3" ry="3" style="stroke:#038048;stroke-width:1.0;"/><text fill="#000000" font-family="sans-serif" font-size="14" lengthAdjust="spacing" textLength="293" x="123" y="473.8502">transferDeclined(SipServletResponse): void</text><ellipse cx="114" cy="486.5474" fill="#84BE84" rx="3" ry="3" style="stroke:#038048;stroke-width:1.0;"/><text fill="#000000" font-family="sans-serif" font-size="14" lengthAdjust="spacing" textLength="303" x="123" y="490.3384">transferAbandoned(SipServletRequest): void</text><ellipse cx="114" cy="503.0357" fill="#84BE84" rx="3" ry="3" style="stroke:#038048;stroke-width:1.0;"/><text fill="#000000" font-family="sans-serif" font-size="14" lengthAdjust="spacing" textLength="271" x="123" y="506.8267">callAnswered(SipServletResponse): void</text><ellipse cx="114" cy="519.524" fill="#84BE84" rx="3" ry="3" style="stroke:#038048;stroke-width:1.0;"/><text fill="#000000" font-family="sans-serif" font-size="14" lengthAdjust="spacing" textLength="266" x="123" y="523.315">callConnected(SipServletRequest): void</text><ellipse cx="114" cy="536.0123" fill="#84BE84" rx="3" ry="3" style="stroke:#038048;stroke-width:1.0;"/><text fill="#000000" font-family="sans-serif" font-size="14" lengthAdjust="spacing" textLength="267" x="123" y="539.8033">callCompleted(SipServletRequest): void</text><ellipse cx="114" cy="552.5005" fill="#84BE84" rx="3" ry="3" style="stroke:#038048;stroke-width:1.0;"/><text fill="#000000" font-family="sans-serif" font-size="14" lengthAdjust="spacing" textLength="262" x="123" y="556.2916">callDeclined(SipServletResponse): void</text><ellipse cx="114" cy="568.9888" fill="#84BE84" rx="3" ry="3" style="stroke:#038048;stroke-width:1.0;"/><text fill="#000000" font-family="sans-serif" font-size="14" lengthAdjust="spacing" textLength="272" x="123" y="572.7798">callAbandoned(SipServletRequest): void</text><ellipse cx="114" cy="585.4771" fill="#84BE84" rx="3" ry="3" style="stroke:#038048;stroke-width:1.0;"/><text fill="#000000" font-family="sans-serif" font-size="14" lengthAdjust="spacing" text-decoration="underline" textLength="405" x="123" y="589.2681">getSettingsManager(): SettingsManager&lt;TransferSettings&gt;</text><ellipse cx="114" cy="601.9654" fill="#84BE84" rx="3" ry="3" style="stroke:#038048;stroke-width:1.0;"/><text fill="#000000" font-family="sans-serif" font-size="14" lengthAdjust="spacing" text-decoration="underline" textLength="432" x="123" y="605.7564">setSettingsManager(SettingsManager&lt;TransferSettings&gt;): void</text></g></a><!--class org.vorpal.blade.framework.b2bua.B2buaServlet--><g id="elem_org.vorpal.blade.framework.b2bua.B2buaServlet"><rect codeLine="29" fill="#F1F1F1" height="145.1953" id="org.vorpal.blade.framework.b2bua.B2buaServlet" rx="2.5" ry="2.5" style="stroke:#181818;stroke-width:0.5;" width="298" x="7" y="7"/><ellipse cx="67.75" cy="26.1328" fill="#A9DCDF" rx="11" ry="11" style="stroke:#181818;stroke-width:1.0;"/><path d="M67.6133,21.481 L66.4595,26.5527 L68.7754,26.5527 Z M66.1191,19.2397 L69.1157,19.2397 L72.4609,31.6328 L70.0122,31.6328 L69.2485,28.5698 L65.9697,28.5698 L65.2227,31.6328 L62.7739,31.6328 Z " fill="#000000"/><text fill="#000000" font-family="sans-serif" font-size="14" font-style="italic" lengthAdjust="spacing" textLength="89" x="127.75" y="25.5352">B2buaServlet</text><text fill="#000000" font-family="sans-serif" font-size="10" font-style="italic" lengthAdjust="spacing" textLength="168" x="88.25" y="38.1563">org.vorpal.blade.framework.b2bua</text><line style="stroke:#181818;stroke-width:0.5;" x1="8" x2="304" y1="45.2656" y2="45.2656"/><ellipse cx="18" cy="59.0098" fill="#84BE84" rx="3" ry="3" style="stroke:#038048;stroke-width:1.0;"/><text fill="#000000" font-family="sans-serif" font-size="14" font-style="italic" lengthAdjust="spacing" textLength="241" x="27" y="62.8008">callStarted(SipServletRequest): void</text><ellipse cx="18" cy="75.498" fill="#84BE84" rx="3" ry="3" style="stroke:#038048;stroke-width:1.0;"/><text fill="#000000" font-family="sans-serif" font-size="14" font-style="italic" lengthAdjust="spacing" textLength="271" x="27" y="79.2891">callAnswered(SipServletResponse): void</text><ellipse cx="18" cy="91.9863" fill="#84BE84" rx="3" ry="3" style="stroke:#038048;stroke-width:1.0;"/><text fill="#000000" font-family="sans-serif" font-size="14" font-style="italic" lengthAdjust="spacing" textLength="266" x="27" y="95.7773">callConnected(SipServletRequest): void</text><ellipse cx="18" cy="108.4746" fill="#84BE84" rx="3" ry="3" style="stroke:#038048;stroke-width:1.0;"/><text fill="#000000" font-family="sans-serif" font-size="14" font-style="italic" lengthAdjust="spacing" textLength="267" x="27" y="112.2656">callCompleted(SipServletRequest): void</text><ellipse cx="18" cy="124.9629" fill="#84BE84" rx="3" ry="3" style="stroke:#038048;stroke-width:1.0;"/><text fill="#000000" font-family="sans-serif" font-size="14" font-style="italic" lengthAdjust="spacing" textLength="262" x="27" y="128.7539">callDeclined(SipServletResponse): void</text><ellipse cx="18" cy="141.4512" fill="#84BE84" rx="3" ry="3" style="stroke:#038048;stroke-width:1.0;"/><text fill="#000000" font-family="sans-serif" font-size="14" font-style="italic" lengthAdjust="spacing" textLength="272" x="27" y="145.2422">callAbandoned(SipServletRequest): void</text></g><!--class org.vorpal.blade.framework.transfer.TransferListener--><a href="../../framework/transfer/TransferListener.html" target="_top" title="../../framework/transfer/TransferListener.html" xlink:actuate="onRequest" xlink:href="../../framework/transfer/TransferListener.html" xlink:show="new" xlink:title="../../framework/transfer/TransferListener.html" xlink:type="simple"><g id="elem_org.vorpal.blade.framework.transfer.TransferListener"><rect codeLine="37" fill="#F1F1F1" height="128.707" id="org.vorpal.blade.framework.transfer.TransferListener" rx="2.5" ry="2.5" style="stroke:#181818;stroke-width:0.5;" width="335" x="340.5" y="15.24"/><ellipse cx="415.25" cy="34.3728" fill="#B4A7E5" rx="11" ry="11" style="stroke:#181818;stroke-width:1.0;"/><path d="M411.6777,30.6379 L411.6777,28.4797 L419.0571,28.4797 L419.0571,30.6379 L416.5918,30.6379 L416.5918,38.7146 L419.0571,38.7146 L419.0571,40.8728 L411.6777,40.8728 L411.6777,38.7146 L414.1431,38.7146 L414.1431,30.6379 Z " fill="#000000"/><text fill="#000000" font-family="sans-serif" font-size="14" font-style="italic" lengthAdjust="spacing" textLength="112" x="468.25" y="33.7752">TransferListener</text><text fill="#000000" font-family="sans-serif" font-size="10" font-style="italic" lengthAdjust="spacing" textLength="177" x="435.75" y="46.3963">org.vorpal.blade.framework.transfer</text><line style="stroke:#181818;stroke-width:0.5;" x1="341.5" x2="674.5" y1="53.5056" y2="53.5056"/><ellipse cx="351.5" cy="67.2498" fill="#84BE84" rx="3" ry="3" style="stroke:#038048;stroke-width:1.0;"/><text fill="#000000" font-family="sans-serif" font-size="14" font-style="italic" lengthAdjust="spacing" textLength="295" x="360.5" y="71.0408">transferRequested(SipServletRequest): void</text><ellipse cx="351.5" cy="83.738" fill="#84BE84" rx="3" ry="3" style="stroke:#038048;stroke-width:1.0;"/><text fill="#000000" font-family="sans-serif" font-size="14" font-style="italic" lengthAdjust="spacing" textLength="279" x="360.5" y="87.5291">transferInitiated(SipServletRequest): void</text><ellipse cx="351.5" cy="100.2263" fill="#84BE84" rx="3" ry="3" style="stroke:#038048;stroke-width:1.0;"/><text fill="#000000" font-family="sans-serif" font-size="14" font-style="italic" lengthAdjust="spacing" textLength="309" x="360.5" y="104.0173">transferCompleted(SipServletResponse): void</text><ellipse cx="351.5" cy="116.7146" fill="#84BE84" rx="3" ry="3" style="stroke:#038048;stroke-width:1.0;"/><text fill="#000000" font-family="sans-serif" font-size="14" font-style="italic" lengthAdjust="spacing" textLength="293" x="360.5" y="120.5056">transferDeclined(SipServletResponse): void</text><ellipse cx="351.5" cy="133.2029" fill="#84BE84" rx="3" ry="3" style="stroke:#038048;stroke-width:1.0;"/><text fill="#000000" font-family="sans-serif" font-size="14" font-style="italic" lengthAdjust="spacing" textLength="303" x="360.5" y="136.9939">transferAbandoned(SipServletRequest): void</text></g></a><!--reverse link org.vorpal.blade.framework.b2bua.B2buaServlet to org.vorpal.blade.services.transfer.TransferServlet--><g id="link_org.vorpal.blade.framework.b2bua.B2buaServlet_org.vorpal.blade.services.transfer.TransferServlet"><path codeLine="45" d="M202.6387,168.274 C212.2387,186.334 214.58,190.71 225.78,211.76 " fill="none" id="org.vorpal.blade.framework.b2bua.B2buaServlet-backto-org.vorpal.blade.services.transfer.TransferServlet" style="stroke:#181818;stroke-width:1.0;"/><polygon fill="none" points="194.19,152.38,197.3406,171.0902,207.9367,165.4578,194.19,152.38" style="stroke:#181818;stroke-width:1.0;"/></g><!--reverse link org.vorpal.blade.framework.transfer.TransferListener to org.vorpal.blade.services.transfer.TransferServlet--><g id="link_org.vorpal.blade.framework.transfer.TransferListener_org.vorpal.blade.services.transfer.TransferServlet"><path codeLine="46" d="M465.6126,160.2794 C454.9726,180.2694 451.07,187.62 438.16,211.88 " fill="none" id="org.vorpal.blade.framework.transfer.TransferListener-backto-org.vorpal.blade.services.transfer.TransferServlet" style="stroke:#181818;stroke-width:1.0;stroke-dasharray:7.0,7.0;"/><polygon fill="none" points="474.07,144.39,460.3162,157.4603,470.9091,163.0985,474.07,144.39" style="stroke:#181818;stroke-width:1.0;"/></g><text fill="#888888" font-family="sans-serif" font-size="10" lengthAdjust="spacing" textLength="176" x="246.25" y="628.3775">UMLDoclet 2.1.2, PlantUML 1.2024.3</text><!--SRC=[dLPDRnen4BttLrY9Ae48fa4z8OIKG0-H4YdgDhsaEPZTMR1gF5jx0gK9_xrUMBxC4jOW16BytdoOcJVB66CMY6an0Pk962B8X164XcdKyCaTix5CWC4aepbB9QZ4-jO9q1YTUMcFbR2MNNIj_0UTww-z7qPecuA9m4mLq2zTd7pfeHdnAPfCA3vK8W5k7KJ6O3aLd0icB3iDuruCzlpiMVYO9khbXRqjKynVRvO4oNZ1ciwT5Eed62jHFzqDEaoX7Xq26-wUIEgHVH1QZC1qMBHlw6w3hkozZPE67UFiqM06XYJOMYIp8hC-QeA_z6qAckeTDaMPR5YNji0O40H986i0bWpEA_EQyHZHGbyebIgSHJHNKDkKbFzoZFNfnwo8ZAk_37wv3zz9xJlyUNKPbv4QiRD49Cp-9MmPUtKqrcrHd0TnxhGaAS8uVPna3kPnR8RQmb7I068bTHZdPYXqWhfISlcLtMWx0rCjHevttQ4Xfih-omi_ZW-fUPb_zNgtKpe2ykQoLWyPrRrvzpsTTBERrs8bY6Bevb34TA2Cj-tXgwWWYwbnuZn3yviFSqQvA7eWlkjyL_RMsIm2fyed1lIMJmreiqDgvOxpgG7DTr1hjJvSB3-bKrYJkarQiWFlfPCZ3QRQl_tn5Zp4SJ-CsuESjznxWssjiIqVMx8XTsxX34ajemUeQnazH6ZB-6UsGA3y5cCVDg7TzsRpZ2UTKv6EjqRtdVDp0yQGzpXB4VElfuVx0SPv4Mr-pTjNx549JSxAFazN3rMr-dy0]--></g></svg>