<?xml version="1.0" encoding="us-ascii" standalone="no"?><svg xmlns="http://www.w3.org/2000/svg" xmlns:xlink="http://www.w3.org/1999/xlink" contentStyleType="text/css" height="308px" preserveAspectRatio="none" style="width:262px;height:308px;background:#FFFFFF;" version="1.1" viewBox="0 0 262 308" width="262px" zoomAndPan="magnify"><defs/><g><!--class org.vorpal.blade.framework.b2bua.Bye--><a href="Bye.html" target="_top" title="Bye.html" xlink:actuate="onRequest" xlink:href="Bye.html" xlink:show="new" xlink:title="Bye.html" xlink:type="simple"><g id="elem_org.vorpal.blade.framework.b2bua.Bye"><rect codeLine="5" fill="#F1F1F1" height="153.1953" id="org.vorpal.blade.framework.b2bua.Bye" rx="2.5" ry="2.5" style="stroke:#181818;stroke-width:0.5;" width="248" x="7" y="129.75"/><ellipse cx="43.6" cy="148.8828" fill="#ADD1B2" rx="11" ry="11" style="stroke:#181818;stroke-width:1.0;"/><path d="M46.0731,155.0259 Q45.4921,155.3247 44.8529,155.4741 Q44.2138,155.6235 43.5082,155.6235 Q41.0014,155.6235 39.6815,153.9717 Q38.3617,152.3198 38.3617,149.1987 Q38.3617,146.0693 39.6815,144.4175 Q41.0014,142.7656 43.5082,142.7656 Q44.2138,142.7656 44.8612,142.915 Q45.5087,143.0645 46.0731,143.3633 L46.0731,146.0859 Q45.4423,145.5049 44.8488,145.2351 Q44.2553,144.9653 43.6244,144.9653 Q42.2797,144.9653 41.5949,146.032 Q40.9101,147.0986 40.9101,149.1987 Q40.9101,151.2905 41.5949,152.3572 Q42.2797,153.4238 43.6244,153.4238 Q44.2553,153.4238 44.8488,153.1541 Q45.4423,152.8843 46.0731,152.3032 Z " fill="#000000"/><text fill="#000000" font-family="sans-serif" font-size="14" lengthAdjust="spacing" textLength="23" x="134.9" y="148.2852">Bye</text><text fill="#000000" font-family="sans-serif" font-size="10" lengthAdjust="spacing" textLength="168" x="62.4" y="160.9063">org.vorpal.blade.framework.b2bua</text><line style="stroke:#181818;stroke-width:0.5;" x1="8" x2="254" y1="168.0156" y2="168.0156"/><rect fill="none" height="6" style="stroke:#C82930;stroke-width:1.0;" width="6" x="15" y="178.7598"/><text fill="#000000" font-family="sans-serif" font-size="14" lengthAdjust="spacing" text-decoration="underline" textLength="152" x="27" y="185.5508">serialVersionUID: long</text><rect fill="none" height="6" style="stroke:#C82930;stroke-width:1.0;" width="6" x="15" y="195.248"/><text fill="#000000" font-family="sans-serif" font-size="14" lengthAdjust="spacing" textLength="216" x="27" y="202.0391">aliceRequest: SipServletRequest</text><rect fill="none" height="6" style="stroke:#C82930;stroke-width:1.0;" width="6" x="15" y="211.7363"/><text fill="#000000" font-family="sans-serif" font-size="14" lengthAdjust="spacing" textLength="195" x="27" y="218.5273">b2buaListener: B2buaServlet</text><line style="stroke:#181818;stroke-width:0.5;" x1="8" x2="254" y1="225.4805" y2="225.4805"/><ellipse cx="18" cy="239.2246" fill="#84BE84" rx="3" ry="3" style="stroke:#038048;stroke-width:1.0;"/><text fill="#000000" font-family="sans-serif" font-size="14" lengthAdjust="spacing" textLength="33" x="27" y="243.0156">Bye()</text><ellipse cx="18" cy="255.7129" fill="#84BE84" rx="3" ry="3" style="stroke:#038048;stroke-width:1.0;"/><text fill="#000000" font-family="sans-serif" font-size="14" lengthAdjust="spacing" textLength="122" x="27" y="259.5039">Bye(B2buaServlet)</text><ellipse cx="18" cy="272.2012" fill="#84BE84" rx="3" ry="3" style="stroke:#038048;stroke-width:1.0;"/><text fill="#000000" font-family="sans-serif" font-size="14" lengthAdjust="spacing" textLength="222" x="27" y="275.9922">process(SipServletRequest): void</text></g></a><!--class org.vorpal.blade.framework.callflow.Callflow--><a href="../callflow/Callflow.html" target="_top" title="../callflow/Callflow.html" xlink:actuate="onRequest" xlink:href="../callflow/Callflow.html" xlink:show="new" xlink:title="../callflow/Callflow.html" xlink:type="simple"><g id="elem_org.vorpal.blade.framework.callflow.Callflow"><rect codeLine="14" fill="#F1F1F1" height="62.7539" id="org.vorpal.blade.framework.callflow.Callflow" rx="2.5" ry="2.5" style="stroke:#181818;stroke-width:0.5;" width="248" x="7" y="7"/><ellipse cx="40" cy="26.1328" fill="#A9DCDF" rx="11" ry="11" style="stroke:#181818;stroke-width:1.0;"/><path d="M39.8633,21.481 L38.7095,26.5527 L41.0254,26.5527 Z M38.3691,19.2397 L41.3657,19.2397 L44.7109,31.6328 L42.2622,31.6328 L41.4985,28.5698 L38.2197,28.5698 L37.4727,31.6328 L35.0239,31.6328 Z " fill="#000000"/><text fill="#000000" font-family="sans-serif" font-size="14" font-style="italic" lengthAdjust="spacing" textLength="55" x="118.5" y="25.5352">Callflow</text><text fill="#000000" font-family="sans-serif" font-size="10" font-style="italic" lengthAdjust="spacing" textLength="176" x="58" y="38.1563">org.vorpal.blade.framework.callflow</text><line style="stroke:#181818;stroke-width:0.5;" x1="8" x2="254" y1="45.2656" y2="45.2656"/><ellipse cx="18" cy="59.0098" fill="#84BE84" rx="3" ry="3" style="stroke:#038048;stroke-width:1.0;"/><text fill="#000000" font-family="sans-serif" font-size="14" font-style="italic" lengthAdjust="spacing" textLength="222" x="27" y="62.8008">process(SipServletRequest): void</text></g></a><!--reverse link org.vorpal.blade.framework.callflow.Callflow to org.vorpal.blade.framework.b2bua.Bye--><g id="link_org.vorpal.blade.framework.callflow.Callflow_org.vorpal.blade.framework.b2bua.Bye"><path codeLine="18" d="M131,88.21 C131,104.99 131,108.55 131,129.51 " fill="none" id="org.vorpal.blade.framework.callflow.Callflow-backto-org.vorpal.blade.framework.b2bua.Bye" style="stroke:#181818;stroke-width:1.0;"/><polygon fill="none" points="131,70.21,125,88.21,137,88.21,131,70.21" style="stroke:#181818;stroke-width:1.0;"/></g><text fill="#888888" font-family="sans-serif" font-size="10" lengthAdjust="spacing" textLength="176" x="36" y="298.6133">UMLDoclet 2.1.2, PlantUML 1.2024.3</text><!--SRC=[bP9DJm8n48Rl_ee9YGb4jmZnj24Sa8i99aQ25-Gmsvs5ncwxjcK98l_TiX-8OWBqq6RUUJ8pVJC009OSA4p9PiXfJ1aQTDg0qegkV1eM8YQWD7DhI0J9sFvLKt8BxUL2vnAjXKRFYayAE_VzmPhUL1NTzRMPiroR32MB9CR44kCxhxHvPr4tMc83qC8fYFcQC9twcorSAcSps1IjTsTZ7Jh1jn1OCWBbAnahj9ey3aEGMittO81IS7gXZoLP5y9OP6CokIHNIJzWqNCah2D59eJ1BgpOFNJZXscsVeU7u44gCvgJjSsZZgqGSYtYWjoMPc9adK7kZbnzG2aJgLVdMSih-fIxDSVgyjvbnjgrtAxbVsol9zrUzi6BXkbz1S5Por4k8Yb71XAjTy_aQJJKtCy2NTPXtLjubgYSL-4wBrUasVe6]--></g></svg>