<?xml version="1.0" encoding="us-ascii" standalone="no"?><svg xmlns="http://www.w3.org/2000/svg" xmlns:xlink="http://www.w3.org/1999/xlink" contentStyleType="text/css" height="213px" preserveAspectRatio="none" style="width:630px;height:213px;background:#FFFFFF;" version="1.1" viewBox="0 0 630 213" width="630px" zoomAndPan="magnify"><defs/><g><!--class org.vorpal.blade.services.proxy.balancer.ProxyBalancerSettingsManager--><a href="ProxyBalancerSettingsManager.html" target="_top" title="ProxyBalancerSettingsManager.html" xlink:actuate="onRequest" xlink:href="ProxyBalancerSettingsManager.html" xlink:show="new" xlink:title="ProxyBalancerSettingsManager.html" xlink:type="simple"><g id="elem_org.vorpal.blade.services.proxy.balancer.ProxyBalancerSettingsManager"><rect codeLine="5" fill="#F1F1F1" height="79.2422" id="org.vorpal.blade.services.proxy.balancer.ProxyBalancerSettingsManager" rx="2.5" ry="2.5" style="stroke:#181818;stroke-width:0.5;" width="616" x="7" y="108.27"/><ellipse cx="204.75" cy="127.4028" fill="#ADD1B2" rx="11" ry="11" style="stroke:#181818;stroke-width:1.0;"/><path d="M207.2231,133.5459 Q206.6421,133.8447 206.0029,133.9941 Q205.3638,134.1435 204.6582,134.1435 Q202.1514,134.1435 200.8315,132.4917 Q199.5117,130.8398 199.5117,127.7187 Q199.5117,124.5893 200.8315,122.9375 Q202.1514,121.2856 204.6582,121.2856 Q205.3638,121.2856 206.0112,121.435 Q206.6587,121.5845 207.2231,121.8833 L207.2231,124.6059 Q206.5923,124.0249 205.9988,123.7551 Q205.4053,123.4853 204.7744,123.4853 Q203.4297,123.4853 202.7449,124.552 Q202.0601,125.6186 202.0601,127.7187 Q202.0601,129.8105 202.7449,130.8772 Q203.4297,131.9438 204.7744,131.9438 Q205.4053,131.9438 205.9988,131.6741 Q206.5923,131.4043 207.2231,130.8232 Z " fill="#000000"/><text fill="#000000" font-family="sans-serif" font-size="14" lengthAdjust="spacing" textLength="212" x="225.25" y="126.8052">ProxyBalancerSettingsManager</text><text fill="#000000" font-family="sans-serif" font-size="10" lengthAdjust="spacing" textLength="196" x="233.25" y="139.4262">org.vorpal.blade.services.proxy.balancer</text><line style="stroke:#181818;stroke-width:0.5;" x1="8" x2="622" y1="146.5356" y2="146.5356"/><ellipse cx="18" cy="160.2798" fill="#84BE84" rx="3" ry="3" style="stroke:#038048;stroke-width:1.0;"/><text fill="#000000" font-family="sans-serif" font-size="14" lengthAdjust="spacing" textLength="590" x="27" y="164.0708">ProxyBalancerSettingsManager(SipServletContextEvent, Class&lt;ProxyBalancerConfig&gt;)</text><ellipse cx="18" cy="176.768" fill="#84BE84" rx="3" ry="3" style="stroke:#038048;stroke-width:1.0;"/><text fill="#000000" font-family="sans-serif" font-size="14" lengthAdjust="spacing" textLength="248" x="27" y="180.5591">initialize(ProxyBalancerConfig): void</text></g></a><!--class org.vorpal.blade.framework.config.SettingsManager--><a href="https://vorpalnet.github.io/blade/vorpal-blade-library-framework/org/vorpal/blade/framework/config/SettingsManager.html?is-external=true" target="_top" title="https://vorpalnet.github.io/blade/vorpal-blade-library-framework/org/vorpal/blade/framework/config/SettingsManager.html?is-external=true" xlink:actuate="onRequest" xlink:href="https://vorpalnet.github.io/blade/vorpal-blade-library-framework/org/vorpal/blade/framework/config/SettingsManager.html?is-external=true" xlink:show="new" xlink:title="https://vorpalnet.github.io/blade/vorpal-blade-library-framework/org/vorpal/blade/framework/config/SettingsManager.html?is-external=true" xlink:type="simple"><g id="elem_org.vorpal.blade.framework.config.SettingsManager"><rect codeLine="10" fill="#F1F1F1" height="38.2656" id="org.vorpal.blade.framework.config.SettingsManager" rx="2.5" ry="2.5" style="stroke:#181818;stroke-width:0.5;" width="321" x="154.5" y="10"/><ellipse cx="169.5" cy="29.1328" fill="#ADD1B2" rx="11" ry="11" style="stroke:#181818;stroke-width:1.0;"/><path d="M171.9731,35.2759 Q171.3921,35.5747 170.7529,35.7241 Q170.1138,35.8735 169.4082,35.8735 Q166.9014,35.8735 165.5815,34.2217 Q164.2617,32.5698 164.2617,29.4487 Q164.2617,26.3193 165.5815,24.6675 Q166.9014,23.0156 169.4082,23.0156 Q170.1138,23.0156 170.7612,23.165 Q171.4087,23.3145 171.9731,23.6133 L171.9731,26.3359 Q171.3423,25.7549 170.7488,25.4851 Q170.1553,25.2153 169.5244,25.2153 Q168.1797,25.2153 167.4949,26.282 Q166.8101,27.3486 166.8101,29.4487 Q166.8101,31.5405 167.4949,32.6072 Q168.1797,33.6738 169.5244,33.6738 Q170.1553,33.6738 170.7488,33.4041 Q171.3423,33.1343 171.9731,32.5532 Z " fill="#000000"/><text fill="#000000" font-family="sans-serif" font-size="14" lengthAdjust="spacing" textLength="115" x="210" y="28.5352">SettingsManager</text><text fill="#000000" font-family="sans-serif" font-size="10" lengthAdjust="spacing" textLength="168" x="183.5" y="41.1563">org.vorpal.blade.framework.config</text><rect fill="#FFFFFF" height="16.1328" style="stroke:#181818;stroke-width:1.0;stroke-dasharray:2.0,2.0;" width="119" x="359.5" y="7"/><text fill="#000000" font-family="sans-serif" font-size="12" font-style="italic" lengthAdjust="spacing" textLength="117" x="360.5" y="19.6016">ProxyBalancerConfig</text></g></a><!--reverse link org.vorpal.blade.framework.config.SettingsManager to org.vorpal.blade.services.proxy.balancer.ProxyBalancerSettingsManager--><g id="link_org.vorpal.blade.framework.config.SettingsManager_org.vorpal.blade.services.proxy.balancer.ProxyBalancerSettingsManager"><path codeLine="12" d="M315,66.63 C315,82.58 315,88.13 315,108.18 " fill="none" id="org.vorpal.blade.framework.config.SettingsManager-backto-org.vorpal.blade.services.proxy.balancer.ProxyBalancerSettingsManager" style="stroke:#181818;stroke-width:1.0;"/><polygon fill="none" points="315,48.63,309,66.63,321,66.63,315,48.63" style="stroke:#181818;stroke-width:1.0;"/></g><text fill="#888888" font-family="sans-serif" font-size="10" lengthAdjust="spacing" textLength="176" x="220" y="203.1802">UMLDoclet 2.1.2, PlantUML 1.2024.3</text><!--SRC=[hL9DQyCm3BtlLuZ2e6MDivQTIjV1kjrMA8ITkXoSH4dC73lOQjRkux_F-M1b9PGLvelnq_EJz2G008i4YXTeInvZW2KtdBG1fHLUk33a8a70egGzf09bOe_H0YdN3cxmM79hOJ2tuXrdavl5skZT_fvBhc8q0H89bTaLLpn3yw8wslL2cunLsfHSiaZo19b5KuaOBIjh0HPr2WFW5lvAPgUImsPpAinoAcGOmaVJLNskJj67WIW3LuL4Mcf5kAF72XMDOLdxCV_rrH5IaIr61sMX10akdHV37kPe1fKMIKF_wdVv36DJusRzfiqhYnlrVaUFMUmeGsz7pjASgBGpts_551BB1ENRY0djDyfTn6iUdXIHuMRl_QJpNIKTfUCVGcqbVj-WxeJrdETe59UtPBOOXgrHPpS6yq_F-vyDQoVbji2ffbhNr_FgwK77RabWoYPiEeQr-qaEXSiAZHLQ3KVV]--></g></svg>