<?xml version="1.0" encoding="us-ascii" standalone="no"?><svg xmlns="http://www.w3.org/2000/svg" xmlns:xlink="http://www.w3.org/1999/xlink" contentStyleType="text/css" height="480px" preserveAspectRatio="none" style="width:865px;height:480px;background:#FFFFFF;" version="1.1" viewBox="0 0 865 480" width="865px" zoomAndPan="magnify"><defs/><g><!--class org.vorpal.blade.services.proxy.balancer.ProxyBalancerConfig--><a href="ProxyBalancerConfig.html" target="_top" title="ProxyBalancerConfig.html" xlink:actuate="onRequest" xlink:href="ProxyBalancerConfig.html" xlink:show="new" xlink:title="ProxyBalancerConfig.html" xlink:type="simple"><g id="elem_org.vorpal.blade.services.proxy.balancer.ProxyBalancerConfig"><rect codeLine="5" fill="#F1F1F1" height="252.125" id="org.vorpal.blade.services.proxy.balancer.ProxyBalancerConfig" rx="2.5" ry="2.5" style="stroke:#181818;stroke-width:0.5;" width="376" x="261.5" y="105.27"/><ellipse cx="347.25" cy="124.4028" fill="#ADD1B2" rx="11" ry="11" style="stroke:#181818;stroke-width:1.0;"/><path d="M349.7231,130.5459 Q349.1421,130.8447 348.5029,130.9941 Q347.8638,131.1435 347.1582,131.1435 Q344.6514,131.1435 343.3315,129.4917 Q342.0117,127.8398 342.0117,124.7187 Q342.0117,121.5893 343.3315,119.9375 Q344.6514,118.2856 347.1582,118.2856 Q347.8638,118.2856 348.5112,118.435 Q349.1587,118.5845 349.7231,118.8833 L349.7231,121.6059 Q349.0923,121.0249 348.4988,120.7551 Q347.9053,120.4853 347.2744,120.4853 Q345.9297,120.4853 345.2449,121.552 Q344.5601,122.6186 344.5601,124.7187 Q344.5601,126.8105 345.2449,127.8772 Q345.9297,128.9438 347.2744,128.9438 Q347.9053,128.9438 348.4988,128.6741 Q349.0923,128.4043 349.7231,127.8232 Z " fill="#000000"/><text fill="#000000" font-family="sans-serif" font-size="14" lengthAdjust="spacing" textLength="143" x="394.25" y="123.8052">ProxyBalancerConfig</text><text fill="#000000" font-family="sans-serif" font-size="10" lengthAdjust="spacing" textLength="196" x="367.75" y="136.4263">org.vorpal.blade.services.proxy.balancer</text><line style="stroke:#181818;stroke-width:0.5;" x1="262.5" x2="636.5" y1="143.5356" y2="143.5356"/><rect fill="none" height="6" style="stroke:#C82930;stroke-width:1.0;" width="6" x="269.5" y="154.2798"/><text fill="#000000" font-family="sans-serif" font-size="14" lengthAdjust="spacing" text-decoration="underline" textLength="152" x="281.5" y="161.0708">serialVersionUID: long</text><ellipse cx="272.5" cy="173.768" fill="none" rx="3" ry="3" style="stroke:#038048;stroke-width:1.0;"/><text fill="#000000" font-family="sans-serif" font-size="14" lengthAdjust="spacing" textLength="350" x="281.5" y="177.5591">endpointStatus: HashMap&lt;String, EndpointStatus&gt;</text><ellipse cx="272.5" cy="190.2563" fill="none" rx="3" ry="3" style="stroke:#038048;stroke-width:1.0;"/><text fill="#000000" font-family="sans-serif" font-size="14" lengthAdjust="spacing" textLength="276" x="281.5" y="194.0473">tierStatus: HashMap&lt;String, TierStatus&gt;</text><ellipse cx="272.5" cy="206.7446" fill="none" rx="3" ry="3" style="stroke:#038048;stroke-width:1.0;"/><text fill="#000000" font-family="sans-serif" font-size="14" lengthAdjust="spacing" textLength="285" x="281.5" y="210.5356">planStatus: HashMap&lt;String, PlanStatus&gt;</text><ellipse cx="272.5" cy="223.2329" fill="none" rx="3" ry="3" style="stroke:#038048;stroke-width:1.0;"/><text fill="#000000" font-family="sans-serif" font-size="14" lengthAdjust="spacing" textLength="139" x="281.5" y="227.0239">pingInterval: Integer</text><rect fill="none" height="6" style="stroke:#C82930;stroke-width:1.0;" width="6" x="269.5" y="236.7212"/><text fill="#000000" font-family="sans-serif" font-size="14" lengthAdjust="spacing" textLength="247" x="281.5" y="243.5122">plans: HashMap&lt;String, ProxyPlan&gt;</text><line style="stroke:#181818;stroke-width:0.5;" x1="262.5" x2="636.5" y1="250.4653" y2="250.4653"/><ellipse cx="272.5" cy="264.2095" fill="#84BE84" rx="3" ry="3" style="stroke:#038048;stroke-width:1.0;"/><text fill="#000000" font-family="sans-serif" font-size="14" lengthAdjust="spacing" textLength="278" x="281.5" y="268.0005">getPlans(): HashMap&lt;String, ProxyPlan&gt;</text><ellipse cx="272.5" cy="280.6977" fill="#84BE84" rx="3" ry="3" style="stroke:#038048;stroke-width:1.0;"/><text fill="#000000" font-family="sans-serif" font-size="14" lengthAdjust="spacing" textLength="305" x="281.5" y="284.4888">setPlans(HashMap&lt;String, ProxyPlan&gt;): void</text><ellipse cx="272.5" cy="297.186" fill="#84BE84" rx="3" ry="3" style="stroke:#038048;stroke-width:1.0;"/><text fill="#000000" font-family="sans-serif" font-size="14" lengthAdjust="spacing" textLength="258" x="281.5" y="300.977">addPlan(String, ProxyPlan): ProxyPlan</text><ellipse cx="272.5" cy="313.6743" fill="#84BE84" rx="3" ry="3" style="stroke:#038048;stroke-width:1.0;"/><text fill="#000000" font-family="sans-serif" font-size="14" lengthAdjust="spacing" textLength="207" x="281.5" y="317.4653">removePlan(String): ProxyPlan</text><ellipse cx="272.5" cy="330.1626" fill="#84BE84" rx="3" ry="3" style="stroke:#038048;stroke-width:1.0;"/><text fill="#000000" font-family="sans-serif" font-size="14" lengthAdjust="spacing" textLength="170" x="281.5" y="333.9536">getPingInterval(): Integer</text><ellipse cx="272.5" cy="346.6509" fill="#84BE84" rx="3" ry="3" style="stroke:#038048;stroke-width:1.0;"/><text fill="#000000" font-family="sans-serif" font-size="14" lengthAdjust="spacing" textLength="197" x="281.5" y="350.4419">setPingInterval(Integer): void</text></g></a><!--class java.io.Serializable--><a href="https://docs.oracle.com/en/java/javase/11/docs/api/java.base/java/io/Serializable.html?is-external=true" target="_top" title="https://docs.oracle.com/en/java/javase/11/docs/api/java.base/java/io/Serializable.html?is-external=true" xlink:actuate="onRequest" xlink:href="https://docs.oracle.com/en/java/javase/11/docs/api/java.base/java/io/Serializable.html?is-external=true" xlink:show="new" xlink:title="https://docs.oracle.com/en/java/javase/11/docs/api/java.base/java/io/Serializable.html?is-external=true" xlink:type="simple"><g id="elem_java.io.Serializable"><rect codeLine="20" fill="#F1F1F1" height="38.2656" id="java.io.Serializable" rx="2.5" ry="2.5" style="stroke:#181818;stroke-width:0.5;" width="111" x="394" y="7"/><ellipse cx="409" cy="26.1328" fill="#B4A7E5" rx="11" ry="11" style="stroke:#181818;stroke-width:1.0;"/><path d="M405.4277,22.3979 L405.4277,20.2397 L412.8071,20.2397 L412.8071,22.3979 L410.3418,22.3979 L410.3418,30.4746 L412.8071,30.4746 L412.8071,32.6328 L405.4277,32.6328 L405.4277,30.4746 L407.8931,30.4746 L407.8931,22.3979 Z " fill="#000000"/><text fill="#000000" font-family="sans-serif" font-size="14" font-style="italic" lengthAdjust="spacing" textLength="79" x="423" y="25.5352">Serializable</text><text fill="#000000" font-family="sans-serif" font-size="10" font-style="italic" lengthAdjust="spacing" textLength="32" x="446.5" y="38.1563">java.io</text></g></a><!--class org.vorpal.blade.services.proxy.balancer.ProxyBalancerConfig.EndpointStatus--><a href="ProxyBalancerConfig.EndpointStatus.html" target="_top" title="ProxyBalancerConfig.EndpointStatus.html" xlink:actuate="onRequest" xlink:href="ProxyBalancerConfig.EndpointStatus.html" xlink:show="new" xlink:title="ProxyBalancerConfig.EndpointStatus.html" xlink:type="simple"><g id="elem_org.vorpal.blade.services.proxy.balancer.ProxyBalancerConfig.EndpointStatus"><rect codeLine="21" fill="#F1F1F1" height="38.2656" id="org.vorpal.blade.services.proxy.balancer.ProxyBalancerConfig.EndpointStatus" rx="2.5" ry="2.5" style="stroke:#181818;stroke-width:0.5;" width="283" x="7" y="417.39"/><ellipse cx="22" cy="436.5228" fill="#EB937F" rx="11" ry="11" style="stroke:#181818;stroke-width:1.0;"/><path d="M25.6143,443.0228 L17.8945,443.0228 L17.8945,430.6297 L25.6143,430.6297 L25.6143,432.7879 L20.3433,432.7879 L20.3433,435.4608 L25.1162,435.4608 L25.1162,437.619 L20.3433,437.619 L20.3433,440.8646 L25.6143,440.8646 Z " fill="#000000"/><text fill="#000000" font-family="sans-serif" font-size="14" lengthAdjust="spacing" textLength="251" x="36" y="435.9252">ProxyBalancerConfig.EndpointStatus</text><text fill="#000000" font-family="sans-serif" font-size="10" lengthAdjust="spacing" textLength="196" x="63.5" y="448.5463">org.vorpal.blade.services.proxy.balancer</text></g></a><!--class org.vorpal.blade.services.proxy.balancer.ProxyBalancerConfig.TierStatus--><a href="ProxyBalancerConfig.TierStatus.html" target="_top" title="ProxyBalancerConfig.TierStatus.html" xlink:actuate="onRequest" xlink:href="ProxyBalancerConfig.TierStatus.html" xlink:show="new" xlink:title="ProxyBalancerConfig.TierStatus.html" xlink:type="simple"><g id="elem_org.vorpal.blade.services.proxy.balancer.ProxyBalancerConfig.TierStatus"><rect codeLine="22" fill="#F1F1F1" height="38.2656" id="org.vorpal.blade.services.proxy.balancer.ProxyBalancerConfig.TierStatus" rx="2.5" ry="2.5" style="stroke:#181818;stroke-width:0.5;" width="248" x="325.5" y="417.39"/><ellipse cx="340.5" cy="436.5228" fill="#EB937F" rx="11" ry="11" style="stroke:#181818;stroke-width:1.0;"/><path d="M344.1143,443.0228 L336.3945,443.0228 L336.3945,430.6297 L344.1143,430.6297 L344.1143,432.7879 L338.8433,432.7879 L338.8433,435.4608 L343.6162,435.4608 L343.6162,437.619 L338.8433,437.619 L338.8433,440.8646 L344.1143,440.8646 Z " fill="#000000"/><text fill="#000000" font-family="sans-serif" font-size="14" lengthAdjust="spacing" textLength="216" x="354.5" y="435.9252">ProxyBalancerConfig.TierStatus</text><text fill="#000000" font-family="sans-serif" font-size="10" lengthAdjust="spacing" textLength="196" x="364.5" y="448.5463">org.vorpal.blade.services.proxy.balancer</text></g></a><!--class org.vorpal.blade.services.proxy.balancer.ProxyBalancerConfig.PlanStatus--><a href="ProxyBalancerConfig.PlanStatus.html" target="_top" title="ProxyBalancerConfig.PlanStatus.html" xlink:actuate="onRequest" xlink:href="ProxyBalancerConfig.PlanStatus.html" xlink:show="new" xlink:title="ProxyBalancerConfig.PlanStatus.html" xlink:type="simple"><g id="elem_org.vorpal.blade.services.proxy.balancer.ProxyBalancerConfig.PlanStatus"><rect codeLine="23" fill="#F1F1F1" height="38.2656" id="org.vorpal.blade.services.proxy.balancer.ProxyBalancerConfig.PlanStatus" rx="2.5" ry="2.5" style="stroke:#181818;stroke-width:0.5;" width="250" x="608.5" y="417.39"/><ellipse cx="623.5" cy="436.5228" fill="#EB937F" rx="11" ry="11" style="stroke:#181818;stroke-width:1.0;"/><path d="M627.1143,443.0228 L619.3945,443.0228 L619.3945,430.6297 L627.1143,430.6297 L627.1143,432.7879 L621.8433,432.7879 L621.8433,435.4608 L626.6162,435.4608 L626.6162,437.619 L621.8433,437.619 L621.8433,440.8646 L627.1143,440.8646 Z " fill="#000000"/><text fill="#000000" font-family="sans-serif" font-size="14" lengthAdjust="spacing" textLength="218" x="637.5" y="435.9252">ProxyBalancerConfig.PlanStatus</text><text fill="#000000" font-family="sans-serif" font-size="10" lengthAdjust="spacing" textLength="196" x="648.5" y="448.5463">org.vorpal.blade.services.proxy.balancer</text></g></a><!--reverse link java.io.Serializable to org.vorpal.blade.services.proxy.balancer.ProxyBalancerConfig--><g id="link_java.io.Serializable_org.vorpal.blade.services.proxy.balancer.ProxyBalancerConfig"><path codeLine="25" d="M449.5,63.53 C449.5,77.99 449.5,81.53 449.5,104.85 " fill="none" id="java.io.Serializable-backto-org.vorpal.blade.services.proxy.balancer.ProxyBalancerConfig" style="stroke:#181818;stroke-width:1.0;stroke-dasharray:7.0,7.0;"/><polygon fill="none" points="449.5,45.53,443.5,63.53,455.5,63.53,449.5,45.53" style="stroke:#181818;stroke-width:1.0;"/></g><!--reverse link org.vorpal.blade.services.proxy.balancer.ProxyBalancerConfig to org.vorpal.blade.services.proxy.balancer.ProxyBalancerConfig.EndpointStatus--><g id="link_org.vorpal.blade.services.proxy.balancer.ProxyBalancerConfig_org.vorpal.blade.services.proxy.balancer.ProxyBalancerConfig.EndpointStatus"><path codeLine="26" d="M250.3189,366.7922 C215.8189,390.0822 197.22,402.64 175.81,417.09 " fill="none" id="org.vorpal.blade.services.proxy.balancer.ProxyBalancerConfig-backto-org.vorpal.blade.services.proxy.balancer.ProxyBalancerConfig.EndpointStatus" style="stroke:#181818;stroke-width:1.0;"/><ellipse cx="256.9494" cy="362.3161" fill="#FFFFFF" rx="8" ry="8" style="stroke:#181818;stroke-width:1.0;"/><line style="stroke:#181818;stroke-width:1.0;" x1="250.3189" x2="263.58" y1="366.7922" y2="357.84"/><line style="stroke:#181818;stroke-width:1.0;" x1="252.4733" x2="261.4255" y1="355.6855" y2="368.9467"/></g><!--reverse link org.vorpal.blade.services.proxy.balancer.ProxyBalancerConfig to org.vorpal.blade.services.proxy.balancer.ProxyBalancerConfig.TierStatus--><g id="link_org.vorpal.blade.services.proxy.balancer.ProxyBalancerConfig_org.vorpal.blade.services.proxy.balancer.ProxyBalancerConfig.TierStatus"><path codeLine="27" d="M449.5,373.84 C449.5,397.13 449.5,402.64 449.5,417.09 " fill="none" id="org.vorpal.blade.services.proxy.balancer.ProxyBalancerConfig-backto-org.vorpal.blade.services.proxy.balancer.ProxyBalancerConfig.TierStatus" style="stroke:#181818;stroke-width:1.0;"/><ellipse cx="449.5" cy="365.84" fill="#FFFFFF" rx="8" ry="8" style="stroke:#181818;stroke-width:1.0;"/><line style="stroke:#181818;stroke-width:1.0;" x1="449.5" x2="449.5" y1="373.84" y2="357.84"/><line style="stroke:#181818;stroke-width:1.0;" x1="441.5" x2="457.5" y1="365.84" y2="365.84"/></g><!--reverse link org.vorpal.blade.services.proxy.balancer.ProxyBalancerConfig to org.vorpal.blade.services.proxy.balancer.ProxyBalancerConfig.PlanStatus--><g id="link_org.vorpal.blade.services.proxy.balancer.ProxyBalancerConfig_org.vorpal.blade.services.proxy.balancer.ProxyBalancerConfig.PlanStatus"><path codeLine="28" d="M637.9322,367.1504 C670.4822,390.4404 687.53,402.64 707.73,417.09 " fill="none" id="org.vorpal.blade.services.proxy.balancer.ProxyBalancerConfig-backto-org.vorpal.blade.services.proxy.balancer.ProxyBalancerConfig.PlanStatus" style="stroke:#181818;stroke-width:1.0;"/><ellipse cx="631.4261" cy="362.4952" fill="#FFFFFF" rx="8" ry="8" style="stroke:#181818;stroke-width:1.0;"/><line style="stroke:#181818;stroke-width:1.0;" x1="637.9322" x2="624.92" y1="367.1504" y2="357.84"/><line style="stroke:#181818;stroke-width:1.0;" x1="626.7709" x2="636.0813" y1="369.0013" y2="355.9891"/></g><text fill="#888888" font-family="sans-serif" font-size="10" lengthAdjust="spacing" textLength="176" x="337.75" y="470.3236">UMLDoclet 2.1.2, PlantUML 1.2024.3</text><!--SRC=[pLPDQnin4BttLmo1WaDgRHrwCeuBRGeDD11mqqlgmtXtl5RHIeiaB_be_dibsR5aTpUufE3uO8kPzqPln1l90026B4YioDIOquHgr6YL1gaalN5fMF22WAhQti6SaoZCRhGYkr0k7EAvG6FWQ6JuFGq77yPNMjtUVKA1CYVzMSavBt_ATVRzMEcIDKhNADXCO47Ca6vuJeRLdiTcQ-8He85zmQnbJxYvQOcoXQt4T0eFGRh_F1YBbkUFq7V5EOeVf0rNylhYV0X2oN83F25Pr8fBEt64fHd2LpIBIwn74wkvBD_1bwtyE18j9zr5-hx99OJQIUuYN6roAS6bBgHrfuDY27vLajwa-xvUMob_FhvUKgaawoEcTxmVtZpXky6kKgDu4JbO53xH-mlga9jrX6kgL4C9entcbIV7u1lOFOYWDiMi0Qd2nvMhkOVCtNmapfu4W_1xd0bABFqB6sHS1SUkroo5EYSkhAtDCCiAbHkcDEQ2MAwgZ6Jc6U7BK3OO14I6DGyXPt0N3GYkihHcyF57RlfqwtHA56TMBsaw3Tf9Bgld1v9jU_KGyxaZeMDSjq7hwTstoJXR1samRj_HN0JyOsFn3ZX8Ot7xZiOYuAcnq5dhS8n-C_OYEQ7qYrwAatx_Vrhv5GYApde5Og8RLlyNo5-jC5VA_rnVVZjNxZgqSCe6x7JrlbaNXRVDwYNk7Vy1]--></g></svg>