<?xml version="1.0" encoding="us-ascii" standalone="no"?><svg xmlns="http://www.w3.org/2000/svg" xmlns:xlink="http://www.w3.org/1999/xlink" contentStyleType="text/css" height="237px" preserveAspectRatio="none" style="width:540px;height:237px;background:#FFFFFF;" version="1.1" viewBox="0 0 540 237" width="540px" zoomAndPan="magnify"><defs/><g><!--class org.vorpal.blade.services.crud.CrudSettingsManager--><a href="CrudSettingsManager.html" target="_top" title="CrudSettingsManager.html" xlink:actuate="onRequest" xlink:href="CrudSettingsManager.html" xlink:show="new" xlink:title="CrudSettingsManager.html" xlink:type="simple"><g id="elem_org.vorpal.blade.services.crud.CrudSettingsManager"><rect codeLine="5" fill="#F1F1F1" height="103.7305" id="org.vorpal.blade.services.crud.CrudSettingsManager" rx="2.5" ry="2.5" style="stroke:#181818;stroke-width:0.5;" width="526" x="7" y="108.27"/><ellipse cx="191.25" cy="127.4028" fill="#ADD1B2" rx="11" ry="11" style="stroke:#181818;stroke-width:1.0;"/><path d="M193.7231,133.5459 Q193.1421,133.8447 192.5029,133.9941 Q191.8638,134.1435 191.1582,134.1435 Q188.6514,134.1435 187.3315,132.4917 Q186.0117,130.8398 186.0117,127.7187 Q186.0117,124.5893 187.3315,122.9375 Q188.6514,121.2856 191.1582,121.2856 Q191.8638,121.2856 192.5112,121.435 Q193.1587,121.5845 193.7231,121.8833 L193.7231,124.6059 Q193.0923,124.0249 192.4988,123.7551 Q191.9053,123.4853 191.2744,123.4853 Q189.9297,123.4853 189.2449,124.552 Q188.5601,125.6186 188.5601,127.7187 Q188.5601,129.8105 189.2449,130.8772 Q189.9297,131.9438 191.2744,131.9438 Q191.9053,131.9438 192.4988,131.6741 Q193.0923,131.4043 193.7231,130.8232 Z " fill="#000000"/><text fill="#000000" font-family="sans-serif" font-size="14" lengthAdjust="spacing" textLength="149" x="211.75" y="126.8052">CrudSettingsManager</text><text fill="#000000" font-family="sans-serif" font-size="10" lengthAdjust="spacing" textLength="145" x="213.75" y="139.4262">org.vorpal.blade.services.crud</text><line style="stroke:#181818;stroke-width:0.5;" x1="8" x2="532" y1="146.5356" y2="146.5356"/><ellipse cx="18" cy="160.2798" fill="none" rx="3" ry="3" style="stroke:#038048;stroke-width:1.0;"/><text fill="#000000" font-family="sans-serif" font-size="14" lengthAdjust="spacing" textLength="93" x="27" y="164.0708">rules: RuleSet</text><line style="stroke:#181818;stroke-width:0.5;" x1="8" x2="532" y1="171.0239" y2="171.0239"/><ellipse cx="18" cy="184.768" fill="#84BE84" rx="3" ry="3" style="stroke:#038048;stroke-width:1.0;"/><text fill="#000000" font-family="sans-serif" font-size="14" lengthAdjust="spacing" textLength="500" x="27" y="188.5591">CrudSettingsManager(SipServletContextEvent, Class, CrudConfiguration)</text><ellipse cx="18" cy="201.2563" fill="#84BE84" rx="3" ry="3" style="stroke:#038048;stroke-width:1.0;"/><text fill="#000000" font-family="sans-serif" font-size="14" lengthAdjust="spacing" textLength="235" x="27" y="205.0473">initialize(CrudConfiguration): void</text></g></a><!--class org.vorpal.blade.framework.config.SettingsManager--><a href="https://vorpalnet.github.io/blade/vorpal-blade-library-framework/org/vorpal/blade/framework/config/SettingsManager.html?is-external=true" target="_top" title="https://vorpalnet.github.io/blade/vorpal-blade-library-framework/org/vorpal/blade/framework/config/SettingsManager.html?is-external=true" xlink:actuate="onRequest" xlink:href="https://vorpalnet.github.io/blade/vorpal-blade-library-framework/org/vorpal/blade/framework/config/SettingsManager.html?is-external=true" xlink:show="new" xlink:title="https://vorpalnet.github.io/blade/vorpal-blade-library-framework/org/vorpal/blade/framework/config/SettingsManager.html?is-external=true" xlink:type="simple"><g id="elem_org.vorpal.blade.framework.config.SettingsManager"><rect codeLine="11" fill="#F1F1F1" height="38.2656" id="org.vorpal.blade.framework.config.SettingsManager" rx="2.5" ry="2.5" style="stroke:#181818;stroke-width:0.5;" width="212" x="164" y="10"/><ellipse cx="179" cy="29.1328" fill="#ADD1B2" rx="11" ry="11" style="stroke:#181818;stroke-width:1.0;"/><path d="M181.4731,35.2759 Q180.8921,35.5747 180.2529,35.7241 Q179.6138,35.8735 178.9082,35.8735 Q176.4014,35.8735 175.0815,34.2217 Q173.7617,32.5698 173.7617,29.4487 Q173.7617,26.3193 175.0815,24.6675 Q176.4014,23.0156 178.9082,23.0156 Q179.6138,23.0156 180.2612,23.165 Q180.9087,23.3145 181.4731,23.6133 L181.4731,26.3359 Q180.8423,25.7549 180.2488,25.4851 Q179.6553,25.2153 179.0244,25.2153 Q177.6797,25.2153 176.9949,26.282 Q176.3101,27.3486 176.3101,29.4487 Q176.3101,31.5405 176.9949,32.6072 Q177.6797,33.6738 179.0244,33.6738 Q179.6553,33.6738 180.2488,33.4041 Q180.8423,33.1343 181.4731,32.5532 Z " fill="#000000"/><text fill="#000000" font-family="sans-serif" font-size="14" lengthAdjust="spacing" textLength="115" x="219.5" y="28.5352">SettingsManager</text><text fill="#000000" font-family="sans-serif" font-size="10" lengthAdjust="spacing" textLength="168" x="193" y="41.1563">org.vorpal.blade.framework.config</text><rect fill="#FFFFFF" height="16.1328" style="stroke:#181818;stroke-width:1.0;stroke-dasharray:2.0,2.0;" width="10" x="369" y="7"/><text fill="#000000" font-family="sans-serif" font-size="12" font-style="italic" lengthAdjust="spacing" textLength="8" x="370" y="19.6016">T</text></g></a><!--reverse link org.vorpal.blade.framework.config.SettingsManager to org.vorpal.blade.services.crud.CrudSettingsManager--><g id="link_org.vorpal.blade.framework.config.SettingsManager_org.vorpal.blade.services.crud.CrudSettingsManager"><path codeLine="13" d="M270,66.62 C270,82.08 270,86.92 270,107.82 " fill="none" id="org.vorpal.blade.framework.config.SettingsManager-backto-org.vorpal.blade.services.crud.CrudSettingsManager" style="stroke:#181818;stroke-width:1.0;"/><polygon fill="none" points="270,48.62,264,66.62,276,66.62,270,48.62" style="stroke:#181818;stroke-width:1.0;"/></g><text fill="#888888" font-family="sans-serif" font-size="10" lengthAdjust="spacing" textLength="176" x="175" y="227.6684">UMLDoclet 2.1.2, PlantUML 1.2024.3</text><!--SRC=[dL9DJuD04BtxAoPDJDfO5jju8hKUgZUR6Akdoc4B0snSTidkWDQF_-uK6fjKOg9S9hnvyuPv3m00ZmH6bkWhcU0AA-aaMGV66ZpXDXGgHS2oeYra2dNgZz4IgR0CjtYYfVSmc7drXj7aOhvmTRf28cLolvH6vkYUpBvxFhSk5urrbTHYesMAmgDhL89U93mt0EdXTuheqOVrkWSL1PKwZk6z_SpTS-PgZJw2UovCFk0zqyELgbQyM2Cjh25yfPi63OrXiRkN2uzm8rDvpVOfQqO7EMKKAQdvvE5FMWIDLMbB_knty0_kPOvpVB7kMIJjadu3ZrdYQCFiOSuM5aILZyAm6pL88bTKr1kXRDZgx3j1-n9ejN7IRODlyP3txYbx_g7LxGtx4hfIFc1tqHcfBydL6CUTBNy-0sOVGV2FtwSBWSDbYSpQNNbStbxRXBE7gPY8wHZkj3J4A9msw3pdE1nz0G00]--></g></svg>