<?xml version="1.0" encoding="us-ascii" standalone="no"?><svg xmlns="http://www.w3.org/2000/svg" xmlns:xlink="http://www.w3.org/1999/xlink" contentStyleType="text/css" height="399px" preserveAspectRatio="none" style="width:336px;height:399px;background:#FFFFFF;" version="1.1" viewBox="0 0 336 399" width="336px" zoomAndPan="magnify"><defs/><g><!--class org.vorpal.blade.library.fsmar2.Transition--><a href="Transition.html" target="_top" title="Transition.html" xlink:actuate="onRequest" xlink:href="Transition.html" xlink:show="new" xlink:title="Transition.html" xlink:type="simple"><g id="elem_org.vorpal.blade.library.fsmar2.Transition"><rect codeLine="5" fill="#F1F1F1" height="268.6133" id="org.vorpal.blade.library.fsmar2.Transition" rx="2.5" ry="2.5" style="stroke:#181818;stroke-width:0.5;" width="322" x="7" y="105.27"/><ellipse cx="88.75" cy="124.4028" fill="#ADD1B2" rx="11" ry="11" style="stroke:#181818;stroke-width:1.0;"/><path d="M91.2231,130.5459 Q90.6421,130.8447 90.0029,130.9941 Q89.3638,131.1435 88.6582,131.1435 Q86.1514,131.1435 84.8315,129.4917 Q83.5117,127.8398 83.5117,124.7187 Q83.5117,121.5893 84.8315,119.9375 Q86.1514,118.2856 88.6582,118.2856 Q89.3638,118.2856 90.0112,118.435 Q90.6587,118.5845 91.2231,118.8833 L91.2231,121.6059 Q90.5923,121.0249 89.9988,120.7551 Q89.4053,120.4853 88.7744,120.4853 Q87.4297,120.4853 86.7449,121.552 Q86.0601,122.6186 86.0601,124.7187 Q86.0601,126.8105 86.7449,127.8772 Q87.4297,128.9438 88.7744,128.9438 Q89.4053,128.9438 89.9988,128.6741 Q90.5923,128.4043 91.2231,127.8232 Z " fill="#000000"/><text fill="#000000" font-family="sans-serif" font-size="14" lengthAdjust="spacing" textLength="70" x="149.25" y="123.8052">Transition</text><text fill="#000000" font-family="sans-serif" font-size="10" lengthAdjust="spacing" textLength="150" x="109.25" y="136.4262">org.vorpal.blade.library.fsmar2</text><line style="stroke:#181818;stroke-width:0.5;" x1="8" x2="328" y1="143.5356" y2="143.5356"/><rect fill="none" height="6" style="stroke:#C82930;stroke-width:1.0;" width="6" x="15" y="154.2798"/><text fill="#000000" font-family="sans-serif" font-size="14" lengthAdjust="spacing" text-decoration="underline" textLength="152" x="27" y="161.0708">serialVersionUID: long</text><ellipse cx="18" cy="173.768" fill="none" rx="3" ry="3" style="stroke:#038048;stroke-width:1.0;"/><text fill="#000000" font-family="sans-serif" font-size="14" lengthAdjust="spacing" textLength="62" x="27" y="177.5591">id: String</text><ellipse cx="18" cy="190.2563" fill="none" rx="3" ry="3" style="stroke:#038048;stroke-width:1.0;"/><text fill="#000000" font-family="sans-serif" font-size="14" lengthAdjust="spacing" textLength="80" x="27" y="194.0473">next: String</text><ellipse cx="18" cy="206.7446" fill="none" rx="3" ry="3" style="stroke:#038048;stroke-width:1.0;"/><text fill="#000000" font-family="sans-serif" font-size="14" lengthAdjust="spacing" textLength="141" x="27" y="210.5356">condition: Condition</text><ellipse cx="18" cy="223.2329" fill="none" rx="3" ry="3" style="stroke:#038048;stroke-width:1.0;"/><text fill="#000000" font-family="sans-serif" font-size="14" lengthAdjust="spacing" textLength="94" x="27" y="227.0239">action: Action</text><line style="stroke:#181818;stroke-width:0.5;" x1="8" x2="328" y1="233.977" y2="233.977"/><ellipse cx="18" cy="247.7212" fill="#84BE84" rx="3" ry="3" style="stroke:#038048;stroke-width:1.0;"/><text fill="#000000" font-family="sans-serif" font-size="14" lengthAdjust="spacing" textLength="296" x="27" y="251.5122">addComparison(String, String, String): void</text><ellipse cx="18" cy="264.2095" fill="#84BE84" rx="3" ry="3" style="stroke:#038048;stroke-width:1.0;"/><text fill="#000000" font-family="sans-serif" font-size="14" lengthAdjust="spacing" textLength="227" x="27" y="268.0005">setOriginating(String): Transition</text><ellipse cx="18" cy="280.6977" fill="#84BE84" rx="3" ry="3" style="stroke:#038048;stroke-width:1.0;"/><text fill="#000000" font-family="sans-serif" font-size="14" lengthAdjust="spacing" textLength="233" x="27" y="284.4888">setTerminating(String): Transition</text><ellipse cx="18" cy="297.186" fill="#84BE84" rx="3" ry="3" style="stroke:#038048;stroke-width:1.0;"/><text fill="#000000" font-family="sans-serif" font-size="14" lengthAdjust="spacing" textLength="199" x="27" y="300.977">setRoute(String[]): Transition</text><ellipse cx="18" cy="313.6743" fill="#84BE84" rx="3" ry="3" style="stroke:#038048;stroke-width:1.0;"/><text fill="#000000" font-family="sans-serif" font-size="14" lengthAdjust="spacing" textLength="230" x="27" y="317.4653">setRouteBack(String[]): Transition</text><ellipse cx="18" cy="330.1626" fill="#84BE84" rx="3" ry="3" style="stroke:#038048;stroke-width:1.0;"/><text fill="#000000" font-family="sans-serif" font-size="14" lengthAdjust="spacing" textLength="232" x="27" y="333.9536">setRouteFinal(String[]): Transition</text><ellipse cx="18" cy="346.6509" fill="#84BE84" rx="3" ry="3" style="stroke:#038048;stroke-width:1.0;"/><text fill="#000000" font-family="sans-serif" font-size="14" lengthAdjust="spacing" textLength="94" x="27" y="350.4419">getId(): String</text><ellipse cx="18" cy="363.1391" fill="#84BE84" rx="3" ry="3" style="stroke:#038048;stroke-width:1.0;"/><text fill="#000000" font-family="sans-serif" font-size="14" lengthAdjust="spacing" textLength="162" x="27" y="366.9302">setId(String): Transition</text></g></a><!--class java.io.Serializable--><a href="https://docs.oracle.com/en/java/javase/11/docs/api/java.base/java/io/Serializable.html?is-external=true" target="_top" title="https://docs.oracle.com/en/java/javase/11/docs/api/java.base/java/io/Serializable.html?is-external=true" xlink:actuate="onRequest" xlink:href="https://docs.oracle.com/en/java/javase/11/docs/api/java.base/java/io/Serializable.html?is-external=true" xlink:show="new" xlink:title="https://docs.oracle.com/en/java/javase/11/docs/api/java.base/java/io/Serializable.html?is-external=true" xlink:type="simple"><g id="elem_java.io.Serializable"><rect codeLine="21" fill="#F1F1F1" height="38.2656" id="java.io.Serializable" rx="2.5" ry="2.5" style="stroke:#181818;stroke-width:0.5;" width="111" x="112.5" y="7"/><ellipse cx="127.5" cy="26.1328" fill="#B4A7E5" rx="11" ry="11" style="stroke:#181818;stroke-width:1.0;"/><path d="M123.9277,22.3979 L123.9277,20.2397 L131.3071,20.2397 L131.3071,22.3979 L128.8418,22.3979 L128.8418,30.4746 L131.3071,30.4746 L131.3071,32.6328 L123.9277,32.6328 L123.9277,30.4746 L126.3931,30.4746 L126.3931,22.3979 Z " fill="#000000"/><text fill="#000000" font-family="sans-serif" font-size="14" font-style="italic" lengthAdjust="spacing" textLength="79" x="141.5" y="25.5352">Serializable</text><text fill="#000000" font-family="sans-serif" font-size="10" font-style="italic" lengthAdjust="spacing" textLength="32" x="165" y="38.1563">java.io</text></g></a><!--reverse link java.io.Serializable to org.vorpal.blade.library.fsmar2.Transition--><g id="link_java.io.Serializable_org.vorpal.blade.library.fsmar2.Transition"><path codeLine="23" d="M168,63.53 C168,78 168,81.6 168,105.17 " fill="none" id="java.io.Serializable-backto-org.vorpal.blade.library.fsmar2.Transition" style="stroke:#181818;stroke-width:1.0;stroke-dasharray:7.0,7.0;"/><polygon fill="none" points="168,45.53,162,63.53,174,63.53,168,45.53" style="stroke:#181818;stroke-width:1.0;"/></g><text fill="#888888" font-family="sans-serif" font-size="10" lengthAdjust="spacing" textLength="176" x="73" y="389.5513">UMLDoclet 2.1.2, PlantUML 1.2024.3</text><!--SRC=[bPDHRzCm4CVV-HIdIKYjs1nQyHHjGx09QH88H3TUkZnSxMjwuFWYswlOnhuxhbEMR0Drv25s_lVpvNp-6m0WK0I73OKMDSseHOzHF3Xnz2A5OSM6W9esNiEIoPhmM6qehYJ9MTSMGu2zmy0tL4xU79zxT84ZYxjqM_7riVXQhSMtQDN2eY5bUU7HNwjbQD1Fzm03x61KdnZcy_v3hM9ZgmfkSpMRvpP4ZAplu22GPxJVo8S4NfoTbc35rVVWApObpABdeURePtogQd4c_ww4ap_JFegw2xtJZtHZJgH93UOWRjJbt8U7uxY4jR3f5wNZ-UovPfSsuUhHFTLl-G5xJhvvBljLhY9jgNcrWtkF-iTpsG-f0hiBhYcUcT7uQND33loh-BlEP-mY-MLoxC1hito-V8CBImEtVSSrAfRigkrS3T7adrMCRIYBmeWEIZngIqfBKv0hDYloAr0ncMIYm9Qpf1ORDHCinJ1djk5R3WV9FkHJDuwYlwAgweh_QnM7lvJw3zTtjuqsRO2bo6Qu-FJnL5Bf4QPgegRxyCMYYqc5b-lEzAFnRm00]--></g></svg>