<?xml version="1.0" encoding="us-ascii" standalone="no"?><svg xmlns="http://www.w3.org/2000/svg" xmlns:xlink="http://www.w3.org/1999/xlink" contentStyleType="text/css" height="300px" preserveAspectRatio="none" style="width:694px;height:300px;background:#FFFFFF;" version="1.1" viewBox="0 0 694 300" width="694px" zoomAndPan="magnify"><defs/><g><!--class org.vorpal.blade.library.fsmar2.Action--><a href="Action.html" target="_top" title="Action.html" xlink:actuate="onRequest" xlink:href="Action.html" xlink:show="new" xlink:title="Action.html" xlink:type="simple"><g id="elem_org.vorpal.blade.library.fsmar2.Action"><rect codeLine="5" fill="#F1F1F1" height="169.6836" id="org.vorpal.blade.library.fsmar2.Action" rx="2.5" ry="2.5" style="stroke:#181818;stroke-width:0.5;" width="680" x="7" y="105.27"/><ellipse cx="267.75" cy="124.4028" fill="#ADD1B2" rx="11" ry="11" style="stroke:#181818;stroke-width:1.0;"/><path d="M270.2231,130.5459 Q269.6421,130.8447 269.0029,130.9941 Q268.3638,131.1435 267.6582,131.1435 Q265.1514,131.1435 263.8315,129.4917 Q262.5117,127.8398 262.5117,124.7187 Q262.5117,121.5893 263.8315,119.9375 Q265.1514,118.2856 267.6582,118.2856 Q268.3638,118.2856 269.0112,118.435 Q269.6587,118.5845 270.2231,118.8833 L270.2231,121.6059 Q269.5923,121.0249 268.9988,120.7551 Q268.4053,120.4853 267.7744,120.4853 Q266.4297,120.4853 265.7449,121.552 Q265.0601,122.6186 265.0601,124.7187 Q265.0601,126.8105 265.7449,127.8772 Q266.4297,128.9438 267.7744,128.9438 Q268.4053,128.9438 268.9988,128.6741 Q269.5923,128.4043 270.2231,127.8232 Z " fill="#000000"/><text fill="#000000" font-family="sans-serif" font-size="14" lengthAdjust="spacing" textLength="44" x="341.25" y="123.8052">Action</text><text fill="#000000" font-family="sans-serif" font-size="10" lengthAdjust="spacing" textLength="150" x="288.25" y="136.4262">org.vorpal.blade.library.fsmar2</text><line style="stroke:#181818;stroke-width:0.5;" x1="8" x2="686" y1="143.5356" y2="143.5356"/><rect fill="none" height="6" style="stroke:#C82930;stroke-width:1.0;" width="6" x="15" y="154.2798"/><text fill="#000000" font-family="sans-serif" font-size="14" lengthAdjust="spacing" text-decoration="underline" textLength="152" x="27" y="161.0708">serialVersionUID: long</text><ellipse cx="18" cy="173.768" fill="none" rx="3" ry="3" style="stroke:#038048;stroke-width:1.0;"/><text fill="#000000" font-family="sans-serif" font-size="14" lengthAdjust="spacing" textLength="129" x="27" y="177.5591">terminating: String</text><ellipse cx="18" cy="190.2563" fill="none" rx="3" ry="3" style="stroke:#038048;stroke-width:1.0;"/><text fill="#000000" font-family="sans-serif" font-size="14" lengthAdjust="spacing" textLength="125" x="27" y="194.0473">originating: String</text><ellipse cx="18" cy="206.7446" fill="none" rx="3" ry="3" style="stroke:#038048;stroke-width:1.0;"/><text fill="#000000" font-family="sans-serif" font-size="14" lengthAdjust="spacing" textLength="96" x="27" y="210.5356">route: String[]</text><ellipse cx="18" cy="223.2329" fill="none" rx="3" ry="3" style="stroke:#038048;stroke-width:1.0;"/><text fill="#000000" font-family="sans-serif" font-size="14" lengthAdjust="spacing" textLength="135" x="27" y="227.0239">route_back: String[]</text><ellipse cx="18" cy="239.7212" fill="none" rx="3" ry="3" style="stroke:#038048;stroke-width:1.0;"/><text fill="#000000" font-family="sans-serif" font-size="14" lengthAdjust="spacing" textLength="133" x="27" y="243.5122">route_final: String[]</text><line style="stroke:#181818;stroke-width:0.5;" x1="8" x2="686" y1="250.4653" y2="250.4653"/><ellipse cx="18" cy="264.2095" fill="#84BE84" rx="3" ry="3" style="stroke:#038048;stroke-width:1.0;"/><text fill="#000000" font-family="sans-serif" font-size="14" lengthAdjust="spacing" textLength="654" x="27" y="268.0005">createRouterInfo(String, AppRouterConfiguration, SipServletRequest): SipApplicationRouterInfo</text></g></a><!--class java.io.Serializable--><a href="https://docs.oracle.com/en/java/javase/11/docs/api/java.base/java/io/Serializable.html?is-external=true" target="_top" title="https://docs.oracle.com/en/java/javase/11/docs/api/java.base/java/io/Serializable.html?is-external=true" xlink:actuate="onRequest" xlink:href="https://docs.oracle.com/en/java/javase/11/docs/api/java.base/java/io/Serializable.html?is-external=true" xlink:show="new" xlink:title="https://docs.oracle.com/en/java/javase/11/docs/api/java.base/java/io/Serializable.html?is-external=true" xlink:type="simple"><g id="elem_java.io.Serializable"><rect codeLine="15" fill="#F1F1F1" height="38.2656" id="java.io.Serializable" rx="2.5" ry="2.5" style="stroke:#181818;stroke-width:0.5;" width="111" x="291.5" y="7"/><ellipse cx="306.5" cy="26.1328" fill="#B4A7E5" rx="11" ry="11" style="stroke:#181818;stroke-width:1.0;"/><path d="M302.9277,22.3979 L302.9277,20.2397 L310.3071,20.2397 L310.3071,22.3979 L307.8418,22.3979 L307.8418,30.4746 L310.3071,30.4746 L310.3071,32.6328 L302.9277,32.6328 L302.9277,30.4746 L305.3931,30.4746 L305.3931,22.3979 Z " fill="#000000"/><text fill="#000000" font-family="sans-serif" font-size="14" font-style="italic" lengthAdjust="spacing" textLength="79" x="320.5" y="25.5352">Serializable</text><text fill="#000000" font-family="sans-serif" font-size="10" font-style="italic" lengthAdjust="spacing" textLength="32" x="344" y="38.1563">java.io</text></g></a><!--reverse link java.io.Serializable to org.vorpal.blade.library.fsmar2.Action--><g id="link_java.io.Serializable_org.vorpal.blade.library.fsmar2.Action"><path codeLine="17" d="M347,63.71 C347,78.59 347,82.59 347,104.91 " fill="none" id="java.io.Serializable-backto-org.vorpal.blade.library.fsmar2.Action" style="stroke:#181818;stroke-width:1.0;stroke-dasharray:7.0,7.0;"/><polygon fill="none" points="347,45.71,341,63.71,353,63.71,347,45.71" style="stroke:#181818;stroke-width:1.0;"/></g><text fill="#888888" font-family="sans-serif" font-size="10" lengthAdjust="spacing" textLength="176" x="252" y="290.6216">UMLDoclet 2.1.2, PlantUML 1.2024.3</text><!--SRC=[ZPBHQzH04CRV_Ik6Wj3YTUCTFeLQAVQbe20DzUKCCjcRv4OtEt5txh2j_T-xsLGDfKNpa2pVzyjaCjy004HIyDXJ7D1IHGC6L0dWnTEBPCEMDmJK3teDBPFRnCTgJxgL96VTEemH3auYtr2vV7DwPfN5V_4FmkjJ2PtPInZGcSRXXepZ9c2uDctiCQmE02FyWp5JKLYlfuFPQk_g6cvp1-Dr6nMLxHqSHmgCxZE5cC2hY_CIdFZk3_XAAVJi4-ox4YeDF3SbSFUi6MIdz5jUru-ChmtQxy-xRIhhdh9j85Iw7A5muLivd905d0t3fBuNttAtIocbFrf0nKD5OUz8B-d7Zg8UbQEMSCSsCt-BvS_SJK6nJsAR8f-5LULXyGqsZcQHVSCz6fOSpSFPpD4Kn5PrY6LHRCH68m6j8sEbByWNunlv5gbOBZDHuC1PCisePeAbcDVCcRxZU4m_KvzfM6yrxAYkf-QVxEBabp7_kJhJgj8u0cX5niVLnm_dajfMM9cbMItWaqElIOMN-sbx3e_k0G00]--></g></svg>