<?xml version="1.0" encoding="us-ascii" standalone="no"?><svg xmlns="http://www.w3.org/2000/svg" xmlns:xlink="http://www.w3.org/1999/xlink" contentStyleType="text/css" height="473px" preserveAspectRatio="none" style="width:1175px;height:473px;background:#FFFFFF;" version="1.1" viewBox="0 0 1175 473" width="1175px" zoomAndPan="magnify"><defs/><g><!--class org.vorpal.blade.library.fsmar2.AppRouter--><a href="AppRouter.html" target="_top" title="AppRouter.html" xlink:actuate="onRequest" xlink:href="AppRouter.html" xlink:show="new" xlink:title="AppRouter.html" xlink:type="simple"><g id="elem_org.vorpal.blade.library.fsmar2.AppRouter"><rect codeLine="5" fill="#F1F1F1" height="235.6367" id="org.vorpal.blade.library.fsmar2.AppRouter" rx="2.5" ry="2.5" style="stroke:#181818;stroke-width:0.5;" width="1159" x="9" y="212.19"/><ellipse cx="509.25" cy="231.3228" fill="#ADD1B2" rx="11" ry="11" style="stroke:#181818;stroke-width:1.0;"/><path d="M511.7231,237.4659 Q511.1421,237.7647 510.5029,237.9141 Q509.8638,238.0635 509.1582,238.0635 Q506.6514,238.0635 505.3315,236.4117 Q504.0117,234.7598 504.0117,231.6387 Q504.0117,228.5093 505.3315,226.8575 Q506.6514,225.2056 509.1582,225.2056 Q509.8638,225.2056 510.5112,225.355 Q511.1587,225.5045 511.7231,225.8033 L511.7231,228.5259 Q511.0923,227.9449 510.4988,227.6751 Q509.9053,227.4053 509.2744,227.4053 Q507.9297,227.4053 507.2449,228.472 Q506.5601,229.5386 506.5601,231.6387 Q506.5601,233.7305 507.2449,234.7972 Q507.9297,235.8638 509.2744,235.8638 Q509.9053,235.8638 510.4988,235.5941 Q511.0923,235.3243 511.7231,234.7432 Z " fill="#000000"/><text fill="#000000" font-family="sans-serif" font-size="14" lengthAdjust="spacing" textLength="74" x="567.75" y="230.7252">AppRouter</text><text fill="#000000" font-family="sans-serif" font-size="10" lengthAdjust="spacing" textLength="150" x="529.75" y="243.3463">org.vorpal.blade.library.fsmar2</text><line style="stroke:#181818;stroke-width:0.5;" x1="10" x2="1167" y1="250.4556" y2="250.4556"/><polygon fill="none" points="20,259.1998,24,263.1998,20,267.1998,16,263.1998" style="stroke:#B38D22;stroke-width:1.0;"/><text fill="#000000" font-family="sans-serif" font-size="14" lengthAdjust="spacing" text-decoration="underline" textLength="96" x="29" y="267.9908">FSMAR: String</text><ellipse cx="20" cy="280.688" fill="none" rx="3" ry="3" style="stroke:#038048;stroke-width:1.0;"/><text fill="#000000" font-family="sans-serif" font-size="14" lengthAdjust="spacing" text-decoration="underline" textLength="124" x="29" y="284.4791">sipLogger: Logger</text><rect fill="none" height="6" style="stroke:#C82930;stroke-width:1.0;" width="6" x="17" y="294.1763"/><text fill="#000000" font-family="sans-serif" font-size="14" lengthAdjust="spacing" text-decoration="underline" textLength="429" x="29" y="300.9673">settingsManager: SettingsManager&lt;AppRouterConfiguration&gt;</text><polygon fill="none" points="20,308.6646,24,312.6646,20,316.6646,16,312.6646" style="stroke:#B38D22;stroke-width:1.0;"/><text fill="#000000" font-family="sans-serif" font-size="14" lengthAdjust="spacing" text-decoration="underline" textLength="246" x="29" y="317.4556">deployed: HashMap&lt;String, String&gt;</text><line style="stroke:#181818;stroke-width:0.5;" x1="10" x2="1167" y1="324.4088" y2="324.4088"/><ellipse cx="20" cy="338.1529" fill="#84BE84" rx="3" ry="3" style="stroke:#038048;stroke-width:1.0;"/><text fill="#000000" font-family="sans-serif" font-size="14" lengthAdjust="spacing" textLength="69" x="29" y="341.9439">init(): void</text><ellipse cx="20" cy="354.6412" fill="#84BE84" rx="3" ry="3" style="stroke:#038048;stroke-width:1.0;"/><text fill="#000000" font-family="sans-serif" font-size="14" lengthAdjust="spacing" textLength="139" x="29" y="358.4322">init(Properties): void</text><ellipse cx="20" cy="371.1295" fill="#84BE84" rx="3" ry="3" style="stroke:#038048;stroke-width:1.0;"/><text fill="#000000" font-family="sans-serif" font-size="14" lengthAdjust="spacing" textLength="1133" x="29" y="374.9205">getNextApplication(SipServletRequest, SipApplicationRoutingRegion, SipApplicationRoutingDirective, SipTargetedRequestInfo, Serializable): SipApplicationRouterInfo</text><ellipse cx="20" cy="387.6177" fill="#84BE84" rx="3" ry="3" style="stroke:#038048;stroke-width:1.0;"/><text fill="#000000" font-family="sans-serif" font-size="14" lengthAdjust="spacing" textLength="273" x="29" y="391.4088">applicationDeployed(List&lt;String&gt;): void</text><ellipse cx="20" cy="404.106" fill="#84BE84" rx="3" ry="3" style="stroke:#038048;stroke-width:1.0;"/><text fill="#000000" font-family="sans-serif" font-size="14" lengthAdjust="spacing" textLength="291" x="29" y="407.897">applicationUndeployed(List&lt;String&gt;): void</text><ellipse cx="20" cy="420.5943" fill="#84BE84" rx="3" ry="3" style="stroke:#038048;stroke-width:1.0;"/><text fill="#000000" font-family="sans-serif" font-size="14" lengthAdjust="spacing" textLength="98" x="29" y="424.3853">destroy(): void</text><ellipse cx="20" cy="437.0826" fill="#84BE84" rx="3" ry="3" style="stroke:#038048;stroke-width:1.0;"/><text fill="#000000" font-family="sans-serif" font-size="14" lengthAdjust="spacing" text-decoration="underline" textLength="214" x="29" y="440.8736">getDeployedApp(String): String</text></g></a><!--class javax.servlet.sip.ar.SipApplicationRouter--><g id="elem_javax.servlet.sip.ar.SipApplicationRouter"><rect codeLine="19" fill="#F1F1F1" height="145.1953" id="javax.servlet.sip.ar.SipApplicationRouter" rx="2.5" ry="2.5" style="stroke:#181818;stroke-width:0.5;" width="1159" x="9" y="7"/><ellipse cx="511.75" cy="26.1328" fill="#B4A7E5" rx="11" ry="11" style="stroke:#181818;stroke-width:1.0;"/><path d="M508.1777,22.3979 L508.1777,20.2397 L515.5571,20.2397 L515.5571,22.3979 L513.0918,22.3979 L513.0918,30.4746 L515.5571,30.4746 L515.5571,32.6328 L508.1777,32.6328 L508.1777,30.4746 L510.6431,30.4746 L510.6431,22.3979 Z " fill="#000000"/><text fill="#000000" font-family="sans-serif" font-size="14" font-style="italic" lengthAdjust="spacing" textLength="145" x="532.25" y="25.5352">SipApplicationRouter</text><text fill="#000000" font-family="sans-serif" font-size="10" font-style="italic" lengthAdjust="spacing" textLength="92" x="558.75" y="38.1563">javax.servlet.sip.ar</text><line style="stroke:#181818;stroke-width:0.5;" x1="10" x2="1167" y1="45.2656" y2="45.2656"/><ellipse cx="20" cy="59.0098" fill="#84BE84" rx="3" ry="3" style="stroke:#038048;stroke-width:1.0;"/><text fill="#000000" font-family="sans-serif" font-size="14" font-style="italic" lengthAdjust="spacing" textLength="69" x="29" y="62.8008">init(): void</text><ellipse cx="20" cy="75.498" fill="#84BE84" rx="3" ry="3" style="stroke:#038048;stroke-width:1.0;"/><text fill="#000000" font-family="sans-serif" font-size="14" font-style="italic" lengthAdjust="spacing" textLength="139" x="29" y="79.2891">init(Properties): void</text><ellipse cx="20" cy="91.9863" fill="#84BE84" rx="3" ry="3" style="stroke:#038048;stroke-width:1.0;"/><text fill="#000000" font-family="sans-serif" font-size="14" font-style="italic" lengthAdjust="spacing" textLength="98" x="29" y="95.7773">destroy(): void</text><ellipse cx="20" cy="108.4746" fill="#84BE84" rx="3" ry="3" style="stroke:#038048;stroke-width:1.0;"/><text fill="#000000" font-family="sans-serif" font-size="14" font-style="italic" lengthAdjust="spacing" textLength="273" x="29" y="112.2656">applicationDeployed(List&lt;String&gt;): void</text><ellipse cx="20" cy="124.9629" fill="#84BE84" rx="3" ry="3" style="stroke:#038048;stroke-width:1.0;"/><text fill="#000000" font-family="sans-serif" font-size="14" font-style="italic" lengthAdjust="spacing" textLength="291" x="29" y="128.7539">applicationUndeployed(List&lt;String&gt;): void</text><ellipse cx="20" cy="141.4512" fill="#84BE84" rx="3" ry="3" style="stroke:#038048;stroke-width:1.0;"/><text fill="#000000" font-family="sans-serif" font-size="14" font-style="italic" lengthAdjust="spacing" textLength="1133" x="29" y="145.2422">getNextApplication(SipServletRequest, SipApplicationRoutingRegion, SipApplicationRoutingDirective, SipTargetedRequestInfo, Serializable): SipApplicationRouterInfo</text></g><!--reverse link javax.servlet.sip.ar.SipApplicationRouter to org.vorpal.blade.library.fsmar2.AppRouter--><g id="link_javax.servlet.sip.ar.SipApplicationRouter_org.vorpal.blade.library.fsmar2.AppRouter"><path codeLine="28" d="M588.5,170.45 C588.5,189.08 588.5,191.63 588.5,211.92 " fill="none" id="javax.servlet.sip.ar.SipApplicationRouter-backto-org.vorpal.blade.library.fsmar2.AppRouter" style="stroke:#181818;stroke-width:1.0;stroke-dasharray:7.0,7.0;"/><polygon fill="none" points="588.5,152.45,582.5,170.45,594.5,170.45,588.5,152.45" style="stroke:#181818;stroke-width:1.0;"/></g><text fill="#888888" font-family="sans-serif" font-size="10" lengthAdjust="spacing" textLength="176" x="492.5" y="463.4947">UMLDoclet 2.1.2, PlantUML 1.2024.3</text><!--SRC=[rLHDQzj04BttLmm91PkaIsDw4iOGQaeBTWbMSqfp64iZUSfgTxkx5d5I__UkFc8haKtTOtIHzERDp9lP9m40EFAWi21dCA6O35hqseBIYjw5CAmu9Q32-0raJ39rhz62_4e7kCOJYSx1sTZn8qLNdoRNnYpqsfFzgLhiuqJRN9JQ6fHYAJ4b8NbfqMv4vWgqepD01__WY5rTkBlRFOkLB-JzFJpLKghhoNdqd6pX_4iylrv447lBAk_7BnoRcSvpiX4qzpxdGrYL3zbkZWfhPlmI6E-KVDOgutmTLibQJGx8ISb8lQ4qWg_eLdCquqRPPQjmdtF1YlrW646fENs5tbXjo7ecruldvB_JWm-A92UrZ47C9YPRIl8B-hqcvqCpDXr6fJtqNb0UNeu4fsmfyLnI7V-1DZIYj2tuJMKwu6GP9J_YKbBGrIz3jYBkjU8-F6ttCfYny-rE9htXEWctAZqf9GtohDxq5hbtG1ZakNlGEsWA3LzOPjkOd5KO8GkVIyVeXwRiUFuNblWWNBD-4SmcqDP6FnGGXufrNOtBC0mcVdl47Jt2SQDqgKTtrE7yxraToJtnsBhPRyJHhKTEFzVn7o5E_zyrVrcg70YPrjNjTZwRwYIqWP6u4gDBk96eV43XVKdMLOiQ_WK0]--></g></svg>