<?xml version="1.0" encoding="us-ascii" standalone="no"?><svg xmlns="http://www.w3.org/2000/svg" xmlns:xlink="http://www.w3.org/1999/xlink" contentStyleType="text/css" height="300px" preserveAspectRatio="none" style="width:360px;height:300px;background:#FFFFFF;" version="1.1" viewBox="0 0 360 300" width="360px" zoomAndPan="magnify"><defs/><g><!--class org.vorpal.blade.library.fsmar2.AppRouterConfiguration--><a href="AppRouterConfiguration.html" target="_top" title="AppRouterConfiguration.html" xlink:actuate="onRequest" xlink:href="AppRouterConfiguration.html" xlink:show="new" xlink:title="AppRouterConfiguration.html" xlink:type="simple"><g id="elem_org.vorpal.blade.library.fsmar2.AppRouterConfiguration"><rect codeLine="5" fill="#F1F1F1" height="169.6836" id="org.vorpal.blade.library.fsmar2.AppRouterConfiguration" rx="2.5" ry="2.5" style="stroke:#181818;stroke-width:0.5;" width="261" x="71.5" y="105.27"/><ellipse cx="113.05" cy="124.4028" fill="#ADD1B2" rx="11" ry="11" style="stroke:#181818;stroke-width:1.0;"/><path d="M115.5231,130.5459 Q114.9421,130.8447 114.3029,130.9941 Q113.6638,131.1435 112.9582,131.1435 Q110.4514,131.1435 109.1315,129.4917 Q107.8117,127.8398 107.8117,124.7187 Q107.8117,121.5893 109.1315,119.9375 Q110.4514,118.2856 112.9582,118.2856 Q113.6638,118.2856 114.3112,118.435 Q114.9587,118.5845 115.5231,118.8833 L115.5231,121.6059 Q114.8923,121.0249 114.2988,120.7551 Q113.7053,120.4853 113.0744,120.4853 Q111.7297,120.4853 111.0449,121.552 Q110.3601,122.6186 110.3601,124.7187 Q110.3601,126.8105 111.0449,127.8772 Q111.7297,128.9438 113.0744,128.9438 Q113.7053,128.9438 114.2988,128.6741 Q114.8923,128.4043 115.5231,127.8232 Z " fill="#000000"/><text fill="#000000" font-family="sans-serif" font-size="14" lengthAdjust="spacing" textLength="170" x="132.95" y="123.8052">AppRouterConfiguration</text><text fill="#000000" font-family="sans-serif" font-size="10" lengthAdjust="spacing" textLength="150" x="142.95" y="136.4262">org.vorpal.blade.library.fsmar2</text><line style="stroke:#181818;stroke-width:0.5;" x1="72.5" x2="331.5" y1="143.5356" y2="143.5356"/><rect fill="none" height="6" style="stroke:#C82930;stroke-width:1.0;" width="6" x="79.5" y="154.2798"/><text fill="#000000" font-family="sans-serif" font-size="14" lengthAdjust="spacing" text-decoration="underline" textLength="152" x="91.5" y="161.0708">serialVersionUID: long</text><ellipse cx="82.5" cy="173.768" fill="none" rx="3" ry="3" style="stroke:#038048;stroke-width:1.0;"/><text fill="#000000" font-family="sans-serif" font-size="14" lengthAdjust="spacing" textLength="175" x="91.5" y="177.5591">defaultApplication: String</text><ellipse cx="82.5" cy="190.2563" fill="none" rx="3" ry="3" style="stroke:#038048;stroke-width:1.0;"/><text fill="#000000" font-family="sans-serif" font-size="14" lengthAdjust="spacing" textLength="235" x="91.5" y="194.0473">previous: HashMap&lt;String, State&gt;</text><line style="stroke:#181818;stroke-width:0.5;" x1="72.5" x2="331.5" y1="201.0005" y2="201.0005"/><ellipse cx="82.5" cy="214.7446" fill="#84BE84" rx="3" ry="3" style="stroke:#038048;stroke-width:1.0;"/><text fill="#000000" font-family="sans-serif" font-size="14" lengthAdjust="spacing" textLength="173" x="91.5" y="218.5356">getPrevious(String): State</text><ellipse cx="82.5" cy="231.2329" fill="#84BE84" rx="3" ry="3" style="stroke:#038048;stroke-width:1.0;"/><text fill="#000000" font-family="sans-serif" font-size="14" lengthAdjust="spacing" textLength="208" x="91.5" y="235.0239">getDefaultApplication(): String</text><ellipse cx="82.5" cy="247.7212" fill="#84BE84" rx="3" ry="3" style="stroke:#038048;stroke-width:1.0;"/><text fill="#000000" font-family="sans-serif" font-size="14" lengthAdjust="spacing" textLength="235" x="91.5" y="251.5122">setDefaultApplication(String): void</text><ellipse cx="82.5" cy="264.2095" fill="#84BE84" rx="3" ry="3" style="stroke:#038048;stroke-width:1.0;"/><text fill="#000000" font-family="sans-serif" font-size="14" lengthAdjust="spacing" text-decoration="underline" textLength="132" x="91.5" y="268.0005">main(String[]): void</text></g></a><!--class org.vorpal.blade.framework.config.Configuration--><a href="https://vorpalnet.github.io/blade/vorpal-blade-library-framework/org/vorpal/blade/framework/config/Configuration.html?is-external=true" target="_top" title="https://vorpalnet.github.io/blade/vorpal-blade-library-framework/org/vorpal/blade/framework/config/Configuration.html?is-external=true" xlink:actuate="onRequest" xlink:href="https://vorpalnet.github.io/blade/vorpal-blade-library-framework/org/vorpal/blade/framework/config/Configuration.html?is-external=true" xlink:show="new" xlink:title="https://vorpalnet.github.io/blade/vorpal-blade-library-framework/org/vorpal/blade/framework/config/Configuration.html?is-external=true" xlink:type="simple"><g id="elem_org.vorpal.blade.framework.config.Configuration"><rect codeLine="15" fill="#F1F1F1" height="38.2656" id="org.vorpal.blade.framework.config.Configuration" rx="2.5" ry="2.5" style="stroke:#181818;stroke-width:0.5;" width="200" x="7" y="7"/><ellipse cx="22" cy="26.1328" fill="#ADD1B2" rx="11" ry="11" style="stroke:#181818;stroke-width:1.0;"/><path d="M24.4731,32.2759 Q23.8921,32.5747 23.2529,32.7241 Q22.6138,32.8735 21.9082,32.8735 Q19.4014,32.8735 18.0815,31.2217 Q16.7617,29.5698 16.7617,26.4487 Q16.7617,23.3193 18.0815,21.6675 Q19.4014,20.0156 21.9082,20.0156 Q22.6138,20.0156 23.2612,20.165 Q23.9087,20.3145 24.4731,20.6133 L24.4731,23.3359 Q23.8423,22.7549 23.2488,22.4851 Q22.6553,22.2153 22.0244,22.2153 Q20.6797,22.2153 19.9949,23.282 Q19.3101,24.3486 19.3101,26.4487 Q19.3101,28.5405 19.9949,29.6072 Q20.6797,30.6738 22.0244,30.6738 Q22.6553,30.6738 23.2488,30.4041 Q23.8423,30.1343 24.4731,29.5532 Z " fill="#000000"/><text fill="#000000" font-family="sans-serif" font-size="14" lengthAdjust="spacing" textLength="96" x="72" y="25.5352">Configuration</text><text fill="#000000" font-family="sans-serif" font-size="10" lengthAdjust="spacing" textLength="168" x="36" y="38.1563">org.vorpal.blade.framework.config</text></g></a><!--class java.io.Serializable--><a href="https://docs.oracle.com/en/java/javase/11/docs/api/java.base/java/io/Serializable.html?is-external=true" target="_top" title="https://docs.oracle.com/en/java/javase/11/docs/api/java.base/java/io/Serializable.html?is-external=true" xlink:actuate="onRequest" xlink:href="https://docs.oracle.com/en/java/javase/11/docs/api/java.base/java/io/Serializable.html?is-external=true" xlink:show="new" xlink:title="https://docs.oracle.com/en/java/javase/11/docs/api/java.base/java/io/Serializable.html?is-external=true" xlink:type="simple"><g id="elem_java.io.Serializable"><rect codeLine="16" fill="#F1F1F1" height="38.2656" id="java.io.Serializable" rx="2.5" ry="2.5" style="stroke:#181818;stroke-width:0.5;" width="111" x="242.5" y="7"/><ellipse cx="257.5" cy="26.1328" fill="#B4A7E5" rx="11" ry="11" style="stroke:#181818;stroke-width:1.0;"/><path d="M253.9277,22.3979 L253.9277,20.2397 L261.3071,20.2397 L261.3071,22.3979 L258.8418,22.3979 L258.8418,30.4746 L261.3071,30.4746 L261.3071,32.6328 L253.9277,32.6328 L253.9277,30.4746 L256.3931,30.4746 L256.3931,22.3979 Z " fill="#000000"/><text fill="#000000" font-family="sans-serif" font-size="14" font-style="italic" lengthAdjust="spacing" textLength="79" x="271.5" y="25.5352">Serializable</text><text fill="#000000" font-family="sans-serif" font-size="10" font-style="italic" lengthAdjust="spacing" textLength="32" x="295" y="38.1563">java.io</text></g></a><!--reverse link org.vorpal.blade.framework.config.Configuration to org.vorpal.blade.library.fsmar2.AppRouterConfiguration--><g id="link_org.vorpal.blade.framework.config.Configuration_org.vorpal.blade.library.fsmar2.AppRouterConfiguration"><path codeLine="18" d="M127.0008,61.2398 C135.7208,76.1198 139.53,82.59 152.62,104.91 " fill="none" id="org.vorpal.blade.framework.config.Configuration-backto-org.vorpal.blade.library.fsmar2.AppRouterConfiguration" style="stroke:#181818;stroke-width:1.0;"/><polygon fill="none" points="117.9,45.71,121.8242,64.2734,132.1774,58.2062,117.9,45.71" style="stroke:#181818;stroke-width:1.0;"/></g><!--reverse link java.io.Serializable to org.vorpal.blade.library.fsmar2.AppRouterConfiguration--><g id="link_java.io.Serializable_org.vorpal.blade.library.fsmar2.AppRouterConfiguration"><path codeLine="19" d="M277.8118,61.1942 C268.9918,76.0742 265.13,82.59 251.9,104.91 " fill="none" id="java.io.Serializable-backto-org.vorpal.blade.library.fsmar2.AppRouterConfiguration" style="stroke:#181818;stroke-width:1.0;stroke-dasharray:7.0,7.0;"/><polygon fill="none" points="286.99,45.71,272.6504,58.1348,282.9733,64.2536,286.99,45.71" style="stroke:#181818;stroke-width:1.0;"/></g><text fill="#888888" font-family="sans-serif" font-size="10" lengthAdjust="spacing" textLength="176" x="85.25" y="290.6216">UMLDoclet 2.1.2, PlantUML 1.2024.3</text><!--SRC=[fPDBZzCm4CVlV8hHIaYjTkFGYbDKYX0zWCHAAwhbKdgO99F4uDYMxGJszTtNSK8tj46yScZIcP__ypG0W2K74cko6ZFQaaQ3JXcGIj8pxuQAvmHKQtS31IUHssDhJQvItXpicK1huMnb-IqbYvVhDrf_L8qZyrR9WfUD5-TAVfO3y6AjJCbQPJGAbWhCYGcU6ZGthB0rckKPe8NVC6mw2EnsqmvMkLhizt0NCkwUE-ky9tk0o9BXA3wHiHwyVhz9G2XP7i3pd0fiXFF2WcT1BO6jCtpCQ4CjLurDu1tQwXBrgYSkF8cErazaIUvgW6SzCqzww2TcSn9qDZyDQoV1WsohU7vQy7cD_0Uqsu-nX-c1_l4S2-ENwfioNraMZanFyfXYnoEidDCsYUF-b2J7Ikwg9cLSnK5Yy4JXJpHiHdJGZNt80Hdu9rSVCZvTZjVSHlJTxur4ySgPXlRxq0mklQtmzsJKa6tO67wBgQ1HFxvWYpx7KFNmpSRegBHSPPOfWvaWtuKw9Xbt9yAFfNYn24ICcWSJIpjh87mFnfg_p3qa_xUzNzr7qJzUlH1likhLFMF_8vfHDm8ebEfUrvSVDigtpS6IBTZo0gu4IkUjyBpjh_1i_WW0]--></g></svg>