<?xml version="1.0" encoding="us-ascii" standalone="no"?><svg xmlns="http://www.w3.org/2000/svg" xmlns:xlink="http://www.w3.org/1999/xlink" contentStyleType="text/css" height="1155px" preserveAspectRatio="none" style="width:3249px;height:1155px;background:#FFFFFF;" version="1.1" viewBox="0 0 3249 1155" width="3249px" zoomAndPan="magnify"><defs/><g><!--cluster org.vorpal.blade.library.fsmar2--><g id="cluster_org.vorpal.blade.library.fsmar2"><path d="M8.5,352.34 L227.5,352.34 A3.75,3.75 0 0 1 230,354.84 L237,374.8283 L1837.5,374.8283 A2.5,2.5 0 0 1 1840,377.3283 L1840,1127.54 A2.5,2.5 0 0 1 1837.5,1130.04 L8.5,1130.04 A2.5,2.5 0 0 1 6,1127.54 L6,354.84 A2.5,2.5 0 0 1 8.5,352.34 " fill="none" style="stroke:#000000;stroke-width:1.5;"/><line style="stroke:#000000;stroke-width:1.5;" x1="6" x2="237" y1="374.8283" y2="374.8283"/><text fill="#000000" font-family="sans-serif" font-size="14" font-weight="bold" lengthAdjust="spacing" textLength="218" x="10" y="367.8752">org.vorpal.blade.library.fsmar2</text></g><!--cluster javax.servlet.sip.ar--><g id="cluster_javax.servlet.sip.ar"><path d="M1866.5,360.59 L1998.5,360.59 A3.75,3.75 0 0 1 2001,363.09 L2008,383.0783 L3051.5,383.0783 A2.5,2.5 0 0 1 3054,385.5783 L3054,556.02 A2.5,2.5 0 0 1 3051.5,558.52 L1866.5,558.52 A2.5,2.5 0 0 1 1864,556.02 L1864,363.09 A2.5,2.5 0 0 1 1866.5,360.59 " fill="none" style="stroke:#000000;stroke-width:1.5;"/><line style="stroke:#000000;stroke-width:1.5;" x1="1864" x2="2008" y1="383.0783" y2="383.0783"/><text fill="#000000" font-family="sans-serif" font-size="14" font-weight="bold" lengthAdjust="spacing" textLength="131" x="1868" y="376.1252">javax.servlet.sip.ar</text></g><!--cluster java.io--><g id="cluster_java.io"><path d="M2967.5,113.17 L3014.5,113.17 A3.75,3.75 0 0 1 3017,115.67 L3024,135.6583 L3106.5,135.6583 A2.5,2.5 0 0 1 3109,138.1583 L3109,209.67 A2.5,2.5 0 0 1 3106.5,212.17 L2967.5,212.17 A2.5,2.5 0 0 1 2965,209.67 L2965,115.67 A2.5,2.5 0 0 1 2967.5,113.17 " fill="none" style="stroke:#000000;stroke-width:1.5;"/><line style="stroke:#000000;stroke-width:1.5;" x1="2965" x2="3024" y1="135.6583" y2="135.6583"/><text fill="#000000" font-family="sans-serif" font-size="14" font-weight="bold" lengthAdjust="spacing" textLength="46" x="2969" y="128.7052">java.io</text></g><!--cluster javax.servlet.sip.ar.spi--><g id="cluster_javax.servlet.sip.ar.spi"><path d="M409.5,104.93 L566.5,104.93 A3.75,3.75 0 0 1 569,107.43 L576,127.4183 L792.5,127.4183 A2.5,2.5 0 0 1 795,129.9183 L795,217.92 A2.5,2.5 0 0 1 792.5,220.42 L409.5,220.42 A2.5,2.5 0 0 1 407,217.92 L407,107.43 A2.5,2.5 0 0 1 409.5,104.93 " fill="none" style="stroke:#000000;stroke-width:1.5;"/><line style="stroke:#000000;stroke-width:1.5;" x1="407" x2="576" y1="127.4183" y2="127.4183"/><text fill="#000000" font-family="sans-serif" font-size="14" font-weight="bold" lengthAdjust="spacing" textLength="156" x="411" y="120.4652">javax.servlet.sip.ar.spi</text></g><!--cluster org.vorpal.blade.framework.config--><g id="cluster_org.vorpal.blade.framework.config"><path d="M955.5,6 L1199.5,6 A3.75,3.75 0 0 1 1202,8.5 L1209,28.4883 L1209.5,28.4883 A2.5,2.5 0 0 1 1212,30.9883 L1212,316.84 A2.5,2.5 0 0 1 1209.5,319.34 L955.5,319.34 A2.5,2.5 0 0 1 953,316.84 L953,8.5 A2.5,2.5 0 0 1 955.5,6 " fill="none" style="stroke:#000000;stroke-width:1.5;"/><line style="stroke:#000000;stroke-width:1.5;" x1="953" x2="1209" y1="28.4883" y2="28.4883"/><text fill="#000000" font-family="sans-serif" font-size="14" font-weight="bold" lengthAdjust="spacing" textLength="243" x="957" y="21.5352">org.vorpal.blade.framework.config</text></g><!--class AppRouter--><a href="AppRouter.html" target="_top" title="AppRouter.html" xlink:actuate="onRequest" xlink:href="AppRouter.html" xlink:show="new" xlink:title="AppRouter.html" xlink:type="simple"><g id="elem_AppRouter"><rect codeLine="5" fill="#F1F1F1" height="229.3711" id="AppRouter" rx="2.5" ry="2.5" style="stroke:#181818;stroke-width:0.5;" width="1159" x="21.5" y="636.01"/><ellipse cx="559.75" cy="652.01" fill="#ADD1B2" rx="11" ry="11" style="stroke:#181818;stroke-width:1.0;"/><path d="M562.2231,658.1531 Q561.6421,658.4519 561.0029,658.6013 Q560.3638,658.7507 559.6582,658.7507 Q557.1514,658.7507 555.8315,657.0989 Q554.5117,655.447 554.5117,652.3259 Q554.5117,649.1965 555.8315,647.5447 Q557.1514,645.8928 559.6582,645.8928 Q560.3638,645.8928 561.0112,646.0422 Q561.6587,646.1916 562.2231,646.4905 L562.2231,649.2131 Q561.5923,648.6321 560.9988,648.3623 Q560.4053,648.0925 559.7744,648.0925 Q558.4297,648.0925 557.7449,649.1592 Q557.0601,650.2258 557.0601,652.3259 Q557.0601,654.4177 557.7449,655.4844 Q558.4297,656.551 559.7744,656.551 Q560.4053,656.551 560.9988,656.2812 Q561.5923,656.0115 562.2231,655.4304 Z " fill="#000000"/><text fill="#000000" font-family="sans-serif" font-size="14" lengthAdjust="spacing" textLength="74" x="580.25" y="657.301">AppRouter</text><line style="stroke:#181818;stroke-width:0.5;" x1="22.5" x2="1179.5" y1="668.01" y2="668.01"/><polygon fill="none" points="32.5,676.7541,36.5,680.7541,32.5,684.7541,28.5,680.7541" style="stroke:#B38D22;stroke-width:1.0;"/><text fill="#000000" font-family="sans-serif" font-size="14" lengthAdjust="spacing" text-decoration="underline" textLength="96" x="41.5" y="685.5452">FSMAR: String</text><ellipse cx="32.5" cy="698.2424" fill="none" rx="3" ry="3" style="stroke:#038048;stroke-width:1.0;"/><text fill="#000000" font-family="sans-serif" font-size="14" lengthAdjust="spacing" text-decoration="underline" textLength="124" x="41.5" y="702.0334">sipLogger: Logger</text><rect fill="none" height="6" style="stroke:#C82930;stroke-width:1.0;" width="6" x="29.5" y="711.7307"/><text fill="#000000" font-family="sans-serif" font-size="14" lengthAdjust="spacing" text-decoration="underline" textLength="429" x="41.5" y="718.5217">settingsManager: SettingsManager&lt;AppRouterConfiguration&gt;</text><polygon fill="none" points="32.5,726.219,36.5,730.219,32.5,734.219,28.5,730.219" style="stroke:#B38D22;stroke-width:1.0;"/><text fill="#000000" font-family="sans-serif" font-size="14" lengthAdjust="spacing" text-decoration="underline" textLength="246" x="41.5" y="735.01">deployed: HashMap&lt;String, String&gt;</text><line style="stroke:#181818;stroke-width:0.5;" x1="22.5" x2="1179.5" y1="741.9631" y2="741.9631"/><ellipse cx="32.5" cy="755.7073" fill="#84BE84" rx="3" ry="3" style="stroke:#038048;stroke-width:1.0;"/><text fill="#000000" font-family="sans-serif" font-size="14" lengthAdjust="spacing" textLength="69" x="41.5" y="759.4983">init(): void</text><ellipse cx="32.5" cy="772.1955" fill="#84BE84" rx="3" ry="3" style="stroke:#038048;stroke-width:1.0;"/><text fill="#000000" font-family="sans-serif" font-size="14" lengthAdjust="spacing" textLength="139" x="41.5" y="775.9866">init(Properties): void</text><ellipse cx="32.5" cy="788.6838" fill="#84BE84" rx="3" ry="3" style="stroke:#038048;stroke-width:1.0;"/><text fill="#000000" font-family="sans-serif" font-size="14" lengthAdjust="spacing" textLength="1133" x="41.5" y="792.4748">getNextApplication(SipServletRequest, SipApplicationRoutingRegion, SipApplicationRoutingDirective, SipTargetedRequestInfo, Serializable): SipApplicationRouterInfo</text><ellipse cx="32.5" cy="805.1721" fill="#84BE84" rx="3" ry="3" style="stroke:#038048;stroke-width:1.0;"/><text fill="#000000" font-family="sans-serif" font-size="14" lengthAdjust="spacing" textLength="273" x="41.5" y="808.9631">applicationDeployed(List&lt;String&gt;): void</text><ellipse cx="32.5" cy="821.6604" fill="#84BE84" rx="3" ry="3" style="stroke:#038048;stroke-width:1.0;"/><text fill="#000000" font-family="sans-serif" font-size="14" lengthAdjust="spacing" textLength="291" x="41.5" y="825.4514">applicationUndeployed(List&lt;String&gt;): void</text><ellipse cx="32.5" cy="838.1487" fill="#84BE84" rx="3" ry="3" style="stroke:#038048;stroke-width:1.0;"/><text fill="#000000" font-family="sans-serif" font-size="14" lengthAdjust="spacing" textLength="98" x="41.5" y="841.9397">destroy(): void</text><ellipse cx="32.5" cy="854.637" fill="#84BE84" rx="3" ry="3" style="stroke:#038048;stroke-width:1.0;"/><text fill="#000000" font-family="sans-serif" font-size="14" lengthAdjust="spacing" text-decoration="underline" textLength="214" x="41.5" y="858.428">getDeployedApp(String): String</text></g></a><!--class Trigger--><a href="Trigger.html" target="_top" title="Trigger.html" xlink:actuate="onRequest" xlink:href="Trigger.html" xlink:show="new" xlink:title="Trigger.html" xlink:type="simple"><g id="elem_Trigger"><rect codeLine="19" fill="#F1F1F1" height="80.9766" id="Trigger" rx="2.5" ry="2.5" style="stroke:#181818;stroke-width:0.5;" width="267" x="1248.5" y="428.57"/><ellipse cx="1352.25" cy="444.57" fill="#ADD1B2" rx="11" ry="11" style="stroke:#181818;stroke-width:1.0;"/><path d="M1354.7231,450.7131 Q1354.1421,451.0119 1353.5029,451.1613 Q1352.8638,451.3107 1352.1582,451.3107 Q1349.6514,451.3107 1348.3315,449.6589 Q1347.0117,448.007 1347.0117,444.8859 Q1347.0117,441.7565 1348.3315,440.1047 Q1349.6514,438.4528 1352.1582,438.4528 Q1352.8638,438.4528 1353.5112,438.6022 Q1354.1587,438.7516 1354.7231,439.0505 L1354.7231,441.7731 Q1354.0923,441.1921 1353.4988,440.9223 Q1352.9053,440.6525 1352.2744,440.6525 Q1350.9297,440.6525 1350.2449,441.7192 Q1349.5601,442.7858 1349.5601,444.8859 Q1349.5601,446.9777 1350.2449,448.0444 Q1350.9297,449.111 1352.2744,449.111 Q1352.9053,449.111 1353.4988,448.8412 Q1354.0923,448.5715 1354.7231,447.9904 Z " fill="#000000"/><text fill="#000000" font-family="sans-serif" font-size="14" lengthAdjust="spacing" textLength="51" x="1372.75" y="449.861">Trigger</text><line style="stroke:#181818;stroke-width:0.5;" x1="1249.5" x2="1514.5" y1="460.57" y2="460.57"/><rect fill="none" height="6" style="stroke:#C82930;stroke-width:1.0;" width="6" x="1256.5" y="471.3141"/><text fill="#000000" font-family="sans-serif" font-size="14" lengthAdjust="spacing" text-decoration="underline" textLength="152" x="1268.5" y="478.1052">serialVersionUID: long</text><line style="stroke:#181818;stroke-width:0.5;" x1="1249.5" x2="1514.5" y1="485.0583" y2="485.0583"/><ellipse cx="1259.5" cy="498.8024" fill="#84BE84" rx="3" ry="3" style="stroke:#038048;stroke-width:1.0;"/><text fill="#000000" font-family="sans-serif" font-size="14" lengthAdjust="spacing" textLength="241" x="1268.5" y="502.5934">createTransition(String): Transition</text></g></a><!--class State--><a href="State.html" target="_top" title="State.html" xlink:actuate="onRequest" xlink:href="State.html" xlink:show="new" xlink:title="State.html" xlink:type="simple"><g id="elem_State"><rect codeLine="24" fill="#F1F1F1" height="97.4648" id="State" rx="2.5" ry="2.5" style="stroke:#181818;stroke-width:0.5;" width="273" x="1550.5" y="420.32"/><ellipse cx="1665.75" cy="436.32" fill="#ADD1B2" rx="11" ry="11" style="stroke:#181818;stroke-width:1.0;"/><path d="M1668.2231,442.4631 Q1667.6421,442.7619 1667.0029,442.9113 Q1666.3638,443.0607 1665.6582,443.0607 Q1663.1514,443.0607 1661.8315,441.4089 Q1660.5117,439.757 1660.5117,436.6359 Q1660.5117,433.5065 1661.8315,431.8547 Q1663.1514,430.2028 1665.6582,430.2028 Q1666.3638,430.2028 1667.0112,430.3522 Q1667.6587,430.5016 1668.2231,430.8005 L1668.2231,433.5231 Q1667.5923,432.9421 1666.9988,432.6723 Q1666.4053,432.4025 1665.7744,432.4025 Q1664.4297,432.4025 1663.7449,433.4692 Q1663.0601,434.5358 1663.0601,436.6359 Q1663.0601,438.7277 1663.7449,439.7944 Q1664.4297,440.861 1665.7744,440.861 Q1666.4053,440.861 1666.9988,440.5912 Q1667.5923,440.3215 1668.2231,439.7404 Z " fill="#000000"/><text fill="#000000" font-family="sans-serif" font-size="14" lengthAdjust="spacing" textLength="34" x="1686.25" y="441.611">State</text><line style="stroke:#181818;stroke-width:0.5;" x1="1551.5" x2="1822.5" y1="452.32" y2="452.32"/><rect fill="none" height="6" style="stroke:#C82930;stroke-width:1.0;" width="6" x="1558.5" y="463.0641"/><text fill="#000000" font-family="sans-serif" font-size="14" lengthAdjust="spacing" text-decoration="underline" textLength="152" x="1570.5" y="469.8552">serialVersionUID: long</text><ellipse cx="1561.5" cy="482.5524" fill="none" rx="3" ry="3" style="stroke:#038048;stroke-width:1.0;"/><text fill="#000000" font-family="sans-serif" font-size="14" lengthAdjust="spacing" textLength="247" x="1570.5" y="486.3434">triggers: HashMap&lt;String, Trigger&gt;</text><line style="stroke:#181818;stroke-width:0.5;" x1="1551.5" x2="1822.5" y1="493.2966" y2="493.2966"/><ellipse cx="1561.5" cy="507.0407" fill="#84BE84" rx="3" ry="3" style="stroke:#038048;stroke-width:1.0;"/><text fill="#000000" font-family="sans-serif" font-size="14" lengthAdjust="spacing" textLength="183" x="1570.5" y="510.8317">getTrigger(String): Trigger</text></g></a><!--class AppRouterConfigurationSample--><a href="AppRouterConfigurationSample.html" target="_top" title="AppRouterConfigurationSample.html" xlink:actuate="onRequest" xlink:href="AppRouterConfigurationSample.html" xlink:show="new" xlink:title="AppRouterConfigurationSample.html" xlink:type="simple"><g id="elem_AppRouterConfigurationSample"><rect codeLine="30" fill="#F1F1F1" height="80.9766" id="AppRouterConfigurationSample" rx="2.5" ry="2.5" style="stroke:#181818;stroke-width:0.5;" width="252" x="1215" y="710.2"/><ellipse cx="1230" cy="726.2" fill="#ADD1B2" rx="11" ry="11" style="stroke:#181818;stroke-width:1.0;"/><path d="M1232.4731,732.3431 Q1231.8921,732.6419 1231.2529,732.7913 Q1230.6138,732.9407 1229.9082,732.9407 Q1227.4014,732.9407 1226.0815,731.2889 Q1224.7617,729.637 1224.7617,726.5159 Q1224.7617,723.3865 1226.0815,721.7347 Q1227.4014,720.0828 1229.9082,720.0828 Q1230.6138,720.0828 1231.2612,720.2322 Q1231.9087,720.3816 1232.4731,720.6805 L1232.4731,723.4031 Q1231.8423,722.8221 1231.2488,722.5523 Q1230.6553,722.2825 1230.0244,722.2825 Q1228.6797,722.2825 1227.9949,723.3492 Q1227.3101,724.4158 1227.3101,726.5159 Q1227.3101,728.6077 1227.9949,729.6744 Q1228.6797,730.741 1230.0244,730.741 Q1230.6553,730.741 1231.2488,730.4712 Q1231.8423,730.2015 1232.4731,729.6204 Z " fill="#000000"/><text fill="#000000" font-family="sans-serif" font-size="14" lengthAdjust="spacing" textLength="220" x="1244" y="731.491">AppRouterConfigurationSample</text><line style="stroke:#181818;stroke-width:0.5;" x1="1216" x2="1466" y1="742.2" y2="742.2"/><rect fill="none" height="6" style="stroke:#C82930;stroke-width:1.0;" width="6" x="1223" y="752.9441"/><text fill="#000000" font-family="sans-serif" font-size="14" lengthAdjust="spacing" text-decoration="underline" textLength="152" x="1235" y="759.7352">serialVersionUID: long</text><line style="stroke:#181818;stroke-width:0.5;" x1="1216" x2="1466" y1="766.6883" y2="766.6883"/><ellipse cx="1226" cy="780.4324" fill="#84BE84" rx="3" ry="3" style="stroke:#038048;stroke-width:1.0;"/><text fill="#000000" font-family="sans-serif" font-size="14" lengthAdjust="spacing" text-decoration="underline" textLength="132" x="1235" y="784.2234">main(String[]): void</text></g></a><!--class Transition--><a href="Transition.html" target="_top" title="Transition.html" xlink:actuate="onRequest" xlink:href="Transition.html" xlink:show="new" xlink:title="Transition.html" xlink:type="simple"><g id="elem_Transition"><rect codeLine="35" fill="#F1F1F1" height="245.8594" id="Transition" rx="2.5" ry="2.5" style="stroke:#181818;stroke-width:0.5;" width="322" x="1502" y="627.76"/><ellipse cx="1623.75" cy="643.76" fill="#ADD1B2" rx="11" ry="11" style="stroke:#181818;stroke-width:1.0;"/><path d="M1626.2231,649.9031 Q1625.6421,650.2019 1625.0029,650.3513 Q1624.3638,650.5007 1623.6582,650.5007 Q1621.1514,650.5007 1619.8315,648.8489 Q1618.5117,647.197 1618.5117,644.0759 Q1618.5117,640.9465 1619.8315,639.2947 Q1621.1514,637.6428 1623.6582,637.6428 Q1624.3638,637.6428 1625.0112,637.7922 Q1625.6587,637.9416 1626.2231,638.2405 L1626.2231,640.9631 Q1625.5923,640.3821 1624.9988,640.1123 Q1624.4053,639.8425 1623.7744,639.8425 Q1622.4297,639.8425 1621.7449,640.9092 Q1621.0601,641.9758 1621.0601,644.0759 Q1621.0601,646.1677 1621.7449,647.2344 Q1622.4297,648.301 1623.7744,648.301 Q1624.4053,648.301 1624.9988,648.0312 Q1625.5923,647.7615 1626.2231,647.1804 Z " fill="#000000"/><text fill="#000000" font-family="sans-serif" font-size="14" lengthAdjust="spacing" textLength="70" x="1644.25" y="649.051">Transition</text><line style="stroke:#181818;stroke-width:0.5;" x1="1503" x2="1823" y1="659.76" y2="659.76"/><rect fill="none" height="6" style="stroke:#C82930;stroke-width:1.0;" width="6" x="1510" y="670.5041"/><text fill="#000000" font-family="sans-serif" font-size="14" lengthAdjust="spacing" text-decoration="underline" textLength="152" x="1522" y="677.2952">serialVersionUID: long</text><ellipse cx="1513" cy="689.9924" fill="none" rx="3" ry="3" style="stroke:#038048;stroke-width:1.0;"/><text fill="#000000" font-family="sans-serif" font-size="14" lengthAdjust="spacing" textLength="62" x="1522" y="693.7834">id: String</text><ellipse cx="1513" cy="706.4807" fill="none" rx="3" ry="3" style="stroke:#038048;stroke-width:1.0;"/><text fill="#000000" font-family="sans-serif" font-size="14" lengthAdjust="spacing" textLength="80" x="1522" y="710.2717">next: String</text><ellipse cx="1513" cy="722.969" fill="none" rx="3" ry="3" style="stroke:#038048;stroke-width:1.0;"/><text fill="#000000" font-family="sans-serif" font-size="14" lengthAdjust="spacing" textLength="141" x="1522" y="726.76">condition: Condition</text><line style="stroke:#181818;stroke-width:0.5;" x1="1503" x2="1823" y1="733.7131" y2="733.7131"/><ellipse cx="1513" cy="747.4573" fill="#84BE84" rx="3" ry="3" style="stroke:#038048;stroke-width:1.0;"/><text fill="#000000" font-family="sans-serif" font-size="14" lengthAdjust="spacing" textLength="296" x="1522" y="751.2483">addComparison(String, String, String): void</text><ellipse cx="1513" cy="763.9455" fill="#84BE84" rx="3" ry="3" style="stroke:#038048;stroke-width:1.0;"/><text fill="#000000" font-family="sans-serif" font-size="14" lengthAdjust="spacing" textLength="227" x="1522" y="767.7366">setOriginating(String): Transition</text><ellipse cx="1513" cy="780.4338" fill="#84BE84" rx="3" ry="3" style="stroke:#038048;stroke-width:1.0;"/><text fill="#000000" font-family="sans-serif" font-size="14" lengthAdjust="spacing" textLength="233" x="1522" y="784.2248">setTerminating(String): Transition</text><ellipse cx="1513" cy="796.9221" fill="#84BE84" rx="3" ry="3" style="stroke:#038048;stroke-width:1.0;"/><text fill="#000000" font-family="sans-serif" font-size="14" lengthAdjust="spacing" textLength="199" x="1522" y="800.7131">setRoute(String[]): Transition</text><ellipse cx="1513" cy="813.4104" fill="#84BE84" rx="3" ry="3" style="stroke:#038048;stroke-width:1.0;"/><text fill="#000000" font-family="sans-serif" font-size="14" lengthAdjust="spacing" textLength="230" x="1522" y="817.2014">setRouteBack(String[]): Transition</text><ellipse cx="1513" cy="829.8987" fill="#84BE84" rx="3" ry="3" style="stroke:#038048;stroke-width:1.0;"/><text fill="#000000" font-family="sans-serif" font-size="14" lengthAdjust="spacing" textLength="232" x="1522" y="833.6897">setRouteFinal(String[]): Transition</text><ellipse cx="1513" cy="846.387" fill="#84BE84" rx="3" ry="3" style="stroke:#038048;stroke-width:1.0;"/><text fill="#000000" font-family="sans-serif" font-size="14" lengthAdjust="spacing" textLength="94" x="1522" y="850.178">getId(): String</text><ellipse cx="1513" cy="862.8752" fill="#84BE84" rx="3" ry="3" style="stroke:#038048;stroke-width:1.0;"/><text fill="#000000" font-family="sans-serif" font-size="14" lengthAdjust="spacing" textLength="162" x="1522" y="866.6663">setId(String): Transition</text></g></a><!--class AppRouterProvider--><a href="AppRouterProvider.html" target="_top" title="AppRouterProvider.html" xlink:actuate="onRequest" xlink:href="AppRouterProvider.html" xlink:show="new" xlink:title="AppRouterProvider.html" xlink:type="simple"><g id="elem_AppRouterProvider"><rect codeLine="50" fill="#F1F1F1" height="64.4883" id="AppRouterProvider" rx="2.5" ry="2.5" style="stroke:#181818;stroke-width:0.5;" width="356" x="423" y="436.81"/><ellipse cx="531.25" cy="452.81" fill="#ADD1B2" rx="11" ry="11" style="stroke:#181818;stroke-width:1.0;"/><path d="M533.7231,458.9531 Q533.1421,459.2519 532.5029,459.4013 Q531.8638,459.5507 531.1582,459.5507 Q528.6514,459.5507 527.3315,457.8989 Q526.0117,456.247 526.0117,453.1259 Q526.0117,449.9965 527.3315,448.3447 Q528.6514,446.6928 531.1582,446.6928 Q531.8638,446.6928 532.5112,446.8422 Q533.1587,446.9916 533.7231,447.2905 L533.7231,450.0131 Q533.0923,449.4321 532.4988,449.1623 Q531.9053,448.8925 531.2744,448.8925 Q529.9297,448.8925 529.2449,449.9592 Q528.5601,451.0258 528.5601,453.1259 Q528.5601,455.2177 529.2449,456.2844 Q529.9297,457.351 531.2744,457.351 Q531.9053,457.351 532.4988,457.0812 Q533.0923,456.8115 533.7231,456.2304 Z " fill="#000000"/><text fill="#000000" font-family="sans-serif" font-size="14" lengthAdjust="spacing" textLength="131" x="551.75" y="458.101">AppRouterProvider</text><line style="stroke:#181818;stroke-width:0.5;" x1="424" x2="778" y1="468.81" y2="468.81"/><line style="stroke:#181818;stroke-width:0.5;" x1="424" x2="778" y1="476.81" y2="476.81"/><ellipse cx="434" cy="490.5541" fill="#84BE84" rx="3" ry="3" style="stroke:#038048;stroke-width:1.0;"/><text fill="#000000" font-family="sans-serif" font-size="14" lengthAdjust="spacing" textLength="330" x="443" y="494.3452">getSipApplicationRouter(): SipApplicationRouter</text></g></a><!--class AppRouterConfiguration--><a href="AppRouterConfiguration.html" target="_top" title="AppRouterConfiguration.html" xlink:actuate="onRequest" xlink:href="AppRouterConfiguration.html" xlink:show="new" xlink:title="AppRouterConfiguration.html" xlink:type="simple"><g id="elem_AppRouterConfiguration"><rect codeLine="54" fill="#F1F1F1" height="163.418" id="AppRouterConfiguration" rx="2.5" ry="2.5" style="stroke:#181818;stroke-width:0.5;" width="261" x="952.5" y="387.34"/><ellipse cx="994.05" cy="403.34" fill="#ADD1B2" rx="11" ry="11" style="stroke:#181818;stroke-width:1.0;"/><path d="M996.5231,409.4831 Q995.9421,409.7819 995.3029,409.9313 Q994.6638,410.0807 993.9582,410.0807 Q991.4514,410.0807 990.1315,408.4289 Q988.8117,406.777 988.8117,403.6559 Q988.8117,400.5265 990.1315,398.8747 Q991.4514,397.2228 993.9582,397.2228 Q994.6638,397.2228 995.3112,397.3722 Q995.9587,397.5216 996.5231,397.8205 L996.5231,400.5431 Q995.8923,399.9621 995.2988,399.6923 Q994.7053,399.4225 994.0744,399.4225 Q992.7297,399.4225 992.0449,400.4892 Q991.3601,401.5558 991.3601,403.6559 Q991.3601,405.7477 992.0449,406.8144 Q992.7297,407.881 994.0744,407.881 Q994.7053,407.881 995.2988,407.6112 Q995.8923,407.3415 996.5231,406.7604 Z " fill="#000000"/><text fill="#000000" font-family="sans-serif" font-size="14" lengthAdjust="spacing" textLength="170" x="1013.95" y="408.631">AppRouterConfiguration</text><line style="stroke:#181818;stroke-width:0.5;" x1="953.5" x2="1212.5" y1="419.34" y2="419.34"/><rect fill="none" height="6" style="stroke:#C82930;stroke-width:1.0;" width="6" x="960.5" y="430.0841"/><text fill="#000000" font-family="sans-serif" font-size="14" lengthAdjust="spacing" text-decoration="underline" textLength="152" x="972.5" y="436.8752">serialVersionUID: long</text><ellipse cx="963.5" cy="449.5724" fill="none" rx="3" ry="3" style="stroke:#038048;stroke-width:1.0;"/><text fill="#000000" font-family="sans-serif" font-size="14" lengthAdjust="spacing" textLength="175" x="972.5" y="453.3634">defaultApplication: String</text><ellipse cx="963.5" cy="466.0607" fill="none" rx="3" ry="3" style="stroke:#038048;stroke-width:1.0;"/><text fill="#000000" font-family="sans-serif" font-size="14" lengthAdjust="spacing" textLength="235" x="972.5" y="469.8517">previous: HashMap&lt;String, State&gt;</text><line style="stroke:#181818;stroke-width:0.5;" x1="953.5" x2="1212.5" y1="476.8048" y2="476.8048"/><ellipse cx="963.5" cy="490.549" fill="#84BE84" rx="3" ry="3" style="stroke:#038048;stroke-width:1.0;"/><text fill="#000000" font-family="sans-serif" font-size="14" lengthAdjust="spacing" textLength="173" x="972.5" y="494.34">getPrevious(String): State</text><ellipse cx="963.5" cy="507.0373" fill="#84BE84" rx="3" ry="3" style="stroke:#038048;stroke-width:1.0;"/><text fill="#000000" font-family="sans-serif" font-size="14" lengthAdjust="spacing" textLength="208" x="972.5" y="510.8283">getDefaultApplication(): String</text><ellipse cx="963.5" cy="523.5255" fill="#84BE84" rx="3" ry="3" style="stroke:#038048;stroke-width:1.0;"/><text fill="#000000" font-family="sans-serif" font-size="14" lengthAdjust="spacing" textLength="235" x="972.5" y="527.3166">setDefaultApplication(String): void</text><ellipse cx="963.5" cy="540.0138" fill="#84BE84" rx="3" ry="3" style="stroke:#038048;stroke-width:1.0;"/><text fill="#000000" font-family="sans-serif" font-size="14" lengthAdjust="spacing" text-decoration="underline" textLength="132" x="972.5" y="543.8048">main(String[]): void</text></g></a><!--class Action--><a href="Action.html" target="_top" title="Action.html" xlink:actuate="onRequest" xlink:href="Action.html" xlink:show="new" xlink:title="Action.html" xlink:type="simple"><g id="elem_Action"><rect codeLine="64" fill="#F1F1F1" height="163.418" id="Action" rx="2.5" ry="2.5" style="stroke:#181818;stroke-width:0.5;" width="680" x="1144" y="950.62"/><ellipse cx="1457.75" cy="966.62" fill="#ADD1B2" rx="11" ry="11" style="stroke:#181818;stroke-width:1.0;"/><path d="M1460.2231,972.7631 Q1459.6421,973.0619 1459.0029,973.2113 Q1458.3638,973.3607 1457.6582,973.3607 Q1455.1514,973.3607 1453.8315,971.7089 Q1452.5117,970.057 1452.5117,966.9359 Q1452.5117,963.8065 1453.8315,962.1547 Q1455.1514,960.5028 1457.6582,960.5028 Q1458.3638,960.5028 1459.0112,960.6522 Q1459.6587,960.8016 1460.2231,961.1005 L1460.2231,963.8231 Q1459.5923,963.2421 1458.9988,962.9723 Q1458.4053,962.7025 1457.7744,962.7025 Q1456.4297,962.7025 1455.7449,963.7692 Q1455.0601,964.8358 1455.0601,966.9359 Q1455.0601,969.0277 1455.7449,970.0944 Q1456.4297,971.161 1457.7744,971.161 Q1458.4053,971.161 1458.9988,970.8912 Q1459.5923,970.6215 1460.2231,970.0404 Z " fill="#000000"/><text fill="#000000" font-family="sans-serif" font-size="14" lengthAdjust="spacing" textLength="44" x="1478.25" y="971.911">Action</text><line style="stroke:#181818;stroke-width:0.5;" x1="1145" x2="1823" y1="982.62" y2="982.62"/><rect fill="none" height="6" style="stroke:#C82930;stroke-width:1.0;" width="6" x="1152" y="993.3641"/><text fill="#000000" font-family="sans-serif" font-size="14" lengthAdjust="spacing" text-decoration="underline" textLength="152" x="1164" y="1000.1552">serialVersionUID: long</text><ellipse cx="1155" cy="1012.8524" fill="none" rx="3" ry="3" style="stroke:#038048;stroke-width:1.0;"/><text fill="#000000" font-family="sans-serif" font-size="14" lengthAdjust="spacing" textLength="129" x="1164" y="1016.6434">terminating: String</text><ellipse cx="1155" cy="1029.3407" fill="none" rx="3" ry="3" style="stroke:#038048;stroke-width:1.0;"/><text fill="#000000" font-family="sans-serif" font-size="14" lengthAdjust="spacing" textLength="125" x="1164" y="1033.1317">originating: String</text><ellipse cx="1155" cy="1045.829" fill="none" rx="3" ry="3" style="stroke:#038048;stroke-width:1.0;"/><text fill="#000000" font-family="sans-serif" font-size="14" lengthAdjust="spacing" textLength="96" x="1164" y="1049.62">route: String[]</text><ellipse cx="1155" cy="1062.3173" fill="none" rx="3" ry="3" style="stroke:#038048;stroke-width:1.0;"/><text fill="#000000" font-family="sans-serif" font-size="14" lengthAdjust="spacing" textLength="135" x="1164" y="1066.1083">route_back: String[]</text><ellipse cx="1155" cy="1078.8055" fill="none" rx="3" ry="3" style="stroke:#038048;stroke-width:1.0;"/><text fill="#000000" font-family="sans-serif" font-size="14" lengthAdjust="spacing" textLength="133" x="1164" y="1082.5966">route_final: String[]</text><line style="stroke:#181818;stroke-width:0.5;" x1="1145" x2="1823" y1="1089.5497" y2="1089.5497"/><ellipse cx="1155" cy="1103.2938" fill="#84BE84" rx="3" ry="3" style="stroke:#038048;stroke-width:1.0;"/><text fill="#000000" font-family="sans-serif" font-size="14" lengthAdjust="spacing" textLength="654" x="1164" y="1107.0848">createRouterInfo(String, AppRouterConfiguration, SipServletRequest): SipApplicationRouterInfo</text></g></a><!--class SipApplicationRouter--><g id="elem_SipApplicationRouter"><rect codeLine="77" fill="#F1F1F1" height="146.9297" id="SipApplicationRouter" rx="2.5" ry="2.5" style="stroke:#181818;stroke-width:0.5;" width="1159" x="1879.5" y="395.59"/><ellipse cx="2382.25" cy="411.59" fill="#B4A7E5" rx="11" ry="11" style="stroke:#181818;stroke-width:1.0;"/><path d="M2378.6777,407.8551 L2378.6777,405.6969 L2386.0571,405.6969 L2386.0571,407.8551 L2383.5918,407.8551 L2383.5918,415.9318 L2386.0571,415.9318 L2386.0571,418.09 L2378.6777,418.09 L2378.6777,415.9318 L2381.1431,415.9318 L2381.1431,407.8551 Z " fill="#000000"/><text fill="#000000" font-family="sans-serif" font-size="14" font-style="italic" lengthAdjust="spacing" textLength="145" x="2402.75" y="416.881">SipApplicationRouter</text><line style="stroke:#181818;stroke-width:0.5;" x1="1880.5" x2="3037.5" y1="427.59" y2="427.59"/><line style="stroke:#181818;stroke-width:0.5;" x1="1880.5" x2="3037.5" y1="435.59" y2="435.59"/><ellipse cx="1890.5" cy="449.3341" fill="#84BE84" rx="3" ry="3" style="stroke:#038048;stroke-width:1.0;"/><text fill="#000000" font-family="sans-serif" font-size="14" font-style="italic" lengthAdjust="spacing" textLength="69" x="1899.5" y="453.1252">init(): void</text><ellipse cx="1890.5" cy="465.8224" fill="#84BE84" rx="3" ry="3" style="stroke:#038048;stroke-width:1.0;"/><text fill="#000000" font-family="sans-serif" font-size="14" font-style="italic" lengthAdjust="spacing" textLength="139" x="1899.5" y="469.6134">init(Properties): void</text><ellipse cx="1890.5" cy="482.3107" fill="#84BE84" rx="3" ry="3" style="stroke:#038048;stroke-width:1.0;"/><text fill="#000000" font-family="sans-serif" font-size="14" font-style="italic" lengthAdjust="spacing" textLength="98" x="1899.5" y="486.1017">destroy(): void</text><ellipse cx="1890.5" cy="498.799" fill="#84BE84" rx="3" ry="3" style="stroke:#038048;stroke-width:1.0;"/><text fill="#000000" font-family="sans-serif" font-size="14" font-style="italic" lengthAdjust="spacing" textLength="273" x="1899.5" y="502.59">applicationDeployed(List&lt;String&gt;): void</text><ellipse cx="1890.5" cy="515.2873" fill="#84BE84" rx="3" ry="3" style="stroke:#038048;stroke-width:1.0;"/><text fill="#000000" font-family="sans-serif" font-size="14" font-style="italic" lengthAdjust="spacing" textLength="291" x="1899.5" y="519.0783">applicationUndeployed(List&lt;String&gt;): void</text><ellipse cx="1890.5" cy="531.7755" fill="#84BE84" rx="3" ry="3" style="stroke:#038048;stroke-width:1.0;"/><text fill="#000000" font-family="sans-serif" font-size="14" font-style="italic" lengthAdjust="spacing" textLength="1133" x="1899.5" y="535.5666">getNextApplication(SipServletRequest, SipApplicationRoutingRegion, SipApplicationRoutingDirective, SipTargetedRequestInfo, Serializable): SipApplicationRouterInfo</text></g><!--class Serializable--><a href="https://docs.oracle.com/en/java/javase/11/docs/api/java.base/java/io/Serializable.html?is-external=true" target="_top" title="https://docs.oracle.com/en/java/javase/11/docs/api/java.base/java/io/Serializable.html?is-external=true" xlink:actuate="onRequest" xlink:href="https://docs.oracle.com/en/java/javase/11/docs/api/java.base/java/io/Serializable.html?is-external=true" xlink:show="new" xlink:title="https://docs.oracle.com/en/java/javase/11/docs/api/java.base/java/io/Serializable.html?is-external=true" xlink:type="simple"><g id="elem_Serializable"><rect codeLine="88" fill="#F1F1F1" height="48" id="Serializable" rx="2.5" ry="2.5" style="stroke:#181818;stroke-width:0.5;" width="111" x="2981.5" y="148.17"/><ellipse cx="2996.5" cy="164.17" fill="#B4A7E5" rx="11" ry="11" style="stroke:#181818;stroke-width:1.0;"/><path d="M2992.9277,160.4351 L2992.9277,158.2769 L3000.3071,158.2769 L3000.3071,160.4351 L2997.8418,160.4351 L2997.8418,168.5118 L3000.3071,168.5118 L3000.3071,170.67 L2992.9277,170.67 L2992.9277,168.5118 L2995.3931,168.5118 L2995.3931,160.4351 Z " fill="#000000"/><text fill="#000000" font-family="sans-serif" font-size="14" font-style="italic" lengthAdjust="spacing" textLength="79" x="3010.5" y="169.461">Serializable</text><line style="stroke:#181818;stroke-width:0.5;" x1="2982.5" x2="3091.5" y1="180.17" y2="180.17"/><line style="stroke:#181818;stroke-width:0.5;" x1="2982.5" x2="3091.5" y1="188.17" y2="188.17"/></g></a><!--class SipApplicationRouterProvider--><g id="elem_SipApplicationRouterProvider"><rect codeLine="92" fill="#F1F1F1" height="64.4883" id="SipApplicationRouterProvider" rx="2.5" ry="2.5" style="stroke:#181818;stroke-width:0.5;" width="356" x="423" y="139.93"/><ellipse cx="495.75" cy="155.93" fill="#A9DCDF" rx="11" ry="11" style="stroke:#181818;stroke-width:1.0;"/><path d="M495.6133,151.2781 L494.4595,156.3499 L496.7754,156.3499 Z M494.1191,149.0369 L497.1157,149.0369 L500.4609,161.43 L498.0122,161.43 L497.2485,158.367 L493.9697,158.367 L493.2227,161.43 L490.7739,161.43 Z " fill="#000000"/><text fill="#000000" font-family="sans-serif" font-size="14" font-style="italic" lengthAdjust="spacing" textLength="202" x="516.25" y="161.221">SipApplicationRouterProvider</text><line style="stroke:#181818;stroke-width:0.5;" x1="424" x2="778" y1="171.93" y2="171.93"/><line style="stroke:#181818;stroke-width:0.5;" x1="424" x2="778" y1="179.93" y2="179.93"/><ellipse cx="434" cy="193.6741" fill="#84BE84" rx="3" ry="3" style="stroke:#038048;stroke-width:1.0;"/><text fill="#000000" font-family="sans-serif" font-size="14" font-style="italic" lengthAdjust="spacing" textLength="330" x="443" y="197.4652">getSipApplicationRouter(): SipApplicationRouter</text></g><!--class Configuration--><a href="https://vorpalnet.github.io/blade/vorpal-blade-library-framework/org/vorpal/blade/framework/config/Configuration.html?is-external=true" target="_top" title="https://vorpalnet.github.io/blade/vorpal-blade-library-framework/org/vorpal/blade/framework/config/Configuration.html?is-external=true" xlink:actuate="onRequest" xlink:href="https://vorpalnet.github.io/blade/vorpal-blade-library-framework/org/vorpal/blade/framework/config/Configuration.html?is-external=true" xlink:show="new" xlink:title="https://vorpalnet.github.io/blade/vorpal-blade-library-framework/org/vorpal/blade/framework/config/Configuration.html?is-external=true" xlink:type="simple"><g id="elem_Configuration"><rect codeLine="98" fill="#F1F1F1" height="262.3477" id="Configuration" rx="2.5" ry="2.5" style="stroke:#181818;stroke-width:0.5;" width="214" x="976" y="41"/><ellipse cx="1030.75" cy="57" fill="#ADD1B2" rx="11" ry="11" style="stroke:#181818;stroke-width:1.0;"/><path d="M1033.2231,63.1431 Q1032.6421,63.4419 1032.0029,63.5913 Q1031.3638,63.7407 1030.6582,63.7407 Q1028.1514,63.7407 1026.8315,62.0889 Q1025.5117,60.437 1025.5117,57.3159 Q1025.5117,54.1865 1026.8315,52.5347 Q1028.1514,50.8828 1030.6582,50.8828 Q1031.3638,50.8828 1032.0112,51.0322 Q1032.6587,51.1816 1033.2231,51.4805 L1033.2231,54.2031 Q1032.5923,53.6221 1031.9988,53.3523 Q1031.4053,53.0825 1030.7744,53.0825 Q1029.4297,53.0825 1028.7449,54.1492 Q1028.0601,55.2158 1028.0601,57.3159 Q1028.0601,59.4077 1028.7449,60.4744 Q1029.4297,61.541 1030.7744,61.541 Q1031.4053,61.541 1031.9988,61.2712 Q1032.5923,61.0015 1033.2231,60.4204 Z " fill="#000000"/><text fill="#000000" font-family="sans-serif" font-size="14" lengthAdjust="spacing" textLength="96" x="1051.25" y="62.291">Configuration</text><line style="stroke:#181818;stroke-width:0.5;" x1="977" x2="1189" y1="73" y2="73"/><rect fill="none" height="6" style="stroke:#C82930;stroke-width:1.0;" width="6" x="984" y="83.7441"/><text fill="#000000" font-family="sans-serif" font-size="14" lengthAdjust="spacing" text-decoration="underline" textLength="152" x="996" y="90.5352">serialVersionUID: long</text><polygon fill="none" points="987,98.2324,991,102.2324,987,106.2324,983,102.2324" style="stroke:#B38D22;stroke-width:1.0;"/><text fill="#000000" font-family="sans-serif" font-size="14" lengthAdjust="spacing" textLength="163" x="996" y="107.0234">logging: LogParameters</text><polygon fill="none" points="987,114.7207,991,118.7207,987,122.7207,983,118.7207" style="stroke:#B38D22;stroke-width:1.0;"/><text fill="#000000" font-family="sans-serif" font-size="14" lengthAdjust="spacing" textLength="188" x="996" y="123.5117">session: SessionParameters</text><rect fill="none" height="6" style="stroke:#C82930;stroke-width:1.0;" width="6" x="984" y="133.209"/><text fill="#000000" font-family="sans-serif" font-size="14" lengthAdjust="spacing" text-decoration="underline" textLength="168" x="996" y="140">SECONDS_FACTOR: long</text><rect fill="none" height="6" style="stroke:#C82930;stroke-width:1.0;" width="6" x="984" y="149.6973"/><text fill="#000000" font-family="sans-serif" font-size="14" lengthAdjust="spacing" text-decoration="underline" textLength="164" x="996" y="156.4883">MINUTES_FACTOR: long</text><rect fill="none" height="6" style="stroke:#C82930;stroke-width:1.0;" width="6" x="984" y="166.1855"/><text fill="#000000" font-family="sans-serif" font-size="14" lengthAdjust="spacing" text-decoration="underline" textLength="151" x="996" y="172.9766">HOURS_FACTOR: long</text><rect fill="none" height="6" style="stroke:#C82930;stroke-width:1.0;" width="6" x="984" y="182.6738"/><text fill="#000000" font-family="sans-serif" font-size="14" lengthAdjust="spacing" text-decoration="underline" textLength="140" x="996" y="189.4648">DAYS_FACTOR: long</text><rect fill="none" height="6" style="stroke:#C82930;stroke-width:1.0;" width="6" x="984" y="199.1621"/><text fill="#000000" font-family="sans-serif" font-size="14" lengthAdjust="spacing" text-decoration="underline" textLength="120" x="996" y="205.9531">KB_FACTOR: long</text><rect fill="none" height="6" style="stroke:#C82930;stroke-width:1.0;" width="6" x="984" y="215.6504"/><text fill="#000000" font-family="sans-serif" font-size="14" lengthAdjust="spacing" text-decoration="underline" textLength="124" x="996" y="222.4414">KIB_FACTOR: long</text><rect fill="none" height="6" style="stroke:#C82930;stroke-width:1.0;" width="6" x="984" y="232.1387"/><text fill="#000000" font-family="sans-serif" font-size="14" lengthAdjust="spacing" text-decoration="underline" textLength="123" x="996" y="238.9297">MB_FACTOR: long</text><rect fill="none" height="6" style="stroke:#C82930;stroke-width:1.0;" width="6" x="984" y="248.627"/><text fill="#000000" font-family="sans-serif" font-size="14" lengthAdjust="spacing" text-decoration="underline" textLength="127" x="996" y="255.418">MIB_FACTOR: long</text><rect fill="none" height="6" style="stroke:#C82930;stroke-width:1.0;" width="6" x="984" y="265.1152"/><text fill="#000000" font-family="sans-serif" font-size="14" lengthAdjust="spacing" text-decoration="underline" textLength="121" x="996" y="271.9063">GB_FACTOR: long</text><rect fill="none" height="6" style="stroke:#C82930;stroke-width:1.0;" width="6" x="984" y="281.6035"/><text fill="#000000" font-family="sans-serif" font-size="14" lengthAdjust="spacing" text-decoration="underline" textLength="125" x="996" y="288.3945">GIB_FACTOR: long</text><line style="stroke:#181818;stroke-width:0.5;" x1="977" x2="1189" y1="295.3477" y2="295.3477"/></g></a><!--reverse link SipApplicationRouter to AppRouter--><g id="link_SipApplicationRouter_AppRouter"><path codeLine="115" d="M1984.2498,545.6848 C1929.6798,553.8848 1892.52,559.22 1840,566.52 C1726.47,582.29 1698.06,586.38 1584,597.76 C1412.78,614.86 1368.4,603.83 1198,627.76 C1180.85,630.17 1163.44,632.77 1145.9,635.53 " fill="none" id="SipApplicationRouter-backto-AppRouter" style="stroke:#181818;stroke-width:1.0;stroke-dasharray:7.0,7.0;"/><polygon fill="none" points="2002.05,543.01,1983.3583,539.7514,1985.1414,551.6181,2002.05,543.01" style="stroke:#181818;stroke-width:1.0;"/></g><!--reverse link Serializable to Trigger--><g id="link_Serializable_Trigger"><path codeLine="116" d="M2963.1352,176.0585 C2723.7352,185.8885 1802.6,230.41 1533,344.34 C1488.2,363.28 1446.18,399.85 1417.9,428.35 " fill="none" id="Serializable-backto-Trigger" style="stroke:#181818;stroke-width:1.0;stroke-dasharray:7.0,7.0;"/><polygon fill="none" points="2981.12,175.32,2962.889,170.0635,2963.3813,182.0534,2981.12,175.32" style="stroke:#181818;stroke-width:1.0;"/></g><!--link Trigger to Transition--><g id="link_Trigger_Transition"><path codeLine="117" d="M1421.96,509.82 C1452.95,540.66 1493.3769,580.8979 1535.8769,623.1879 " fill="none" id="Trigger-to-Transition" style="stroke:#181818;stroke-width:1.0;"/><polygon fill="#181818" points="1540.13,627.42,1536.5717,618.2364,1536.5857,623.8932,1530.9289,623.9072,1540.13,627.42" style="stroke:#181818;stroke-width:1.0;"/><text fill="#000000" font-family="sans-serif" font-size="13" lengthAdjust="spacing" textLength="68" x="1506.68" y="594.3284">transitions</text><text fill="#000000" font-family="sans-serif" font-size="13" lengthAdjust="spacing" textLength="6" x="1526.4598" y="617.029">*</text></g><!--reverse link Serializable to State--><g id="link_Serializable_State"><path codeLine="118" d="M2963.2101,172.2791 C2790.4901,171.5991 2269.83,183.45 1864,344.34 C1819.04,362.17 1774.45,393.44 1741.27,420.08 " fill="none" id="Serializable-backto-State" style="stroke:#181818;stroke-width:1.0;stroke-dasharray:7.0,7.0;"/><polygon fill="none" points="2981.21,172.35,2963.2338,166.2792,2963.1865,178.2791,2981.21,172.35" style="stroke:#181818;stroke-width:1.0;"/></g><!--reverse link AppRouterConfiguration to AppRouterConfigurationSample--><g id="link_AppRouterConfiguration_AppRouterConfigurationSample"><path codeLine="119" d="M1169.826,564.1693 C1217.896,616.2693 1266.09,668.5 1304.14,709.74 " fill="none" id="AppRouterConfiguration-backto-AppRouterConfigurationSample" style="stroke:#181818;stroke-width:1.0;"/><polygon fill="none" points="1157.62,550.94,1165.4162,568.2379,1174.2357,560.1006,1157.62,550.94" style="stroke:#181818;stroke-width:1.0;"/></g><!--reverse link Serializable to AppRouterConfigurationSample--><g id="link_Serializable_AppRouterConfigurationSample"><path codeLine="120" d="M3055.1988,212.6405 C3085.2888,280.1405 3153.74,462.81 3054,566.52 C2933.06,692.27 1647.61,564.54 1485,627.76 C1441.03,644.86 1400.97,681.3 1374.32,709.91 " fill="none" id="Serializable-backto-AppRouterConfigurationSample" style="stroke:#181818;stroke-width:1.0;stroke-dasharray:7.0,7.0;"/><polygon fill="none" points="3047.87,196.2,3049.7186,215.0834,3060.6789,210.1975,3047.87,196.2" style="stroke:#181818;stroke-width:1.0;"/></g><!--reverse link Serializable to Transition--><g id="link_Serializable_Transition"><path codeLine="121" d="M3062.9194,211.5565 C3109.1894,282.0265 3223.19,479.9 3117,597.76 C3031.69,692.46 2185.02,732.09 1824.35,744.76 " fill="none" id="Serializable-backto-Transition" style="stroke:#181818;stroke-width:1.0;stroke-dasharray:7.0,7.0;"/><polygon fill="none" points="3053.04,196.51,3057.9039,214.8496,3067.9349,208.2634,3053.04,196.51" style="stroke:#181818;stroke-width:1.0;"/></g><!--link Transition to Action--><g id="link_Transition_Action"><path codeLine="122" d="M1584.75,873.94 C1568.19,899.81 1554.3438,921.4361 1539.0638,945.3161 " fill="none" id="Transition-to-Action" style="stroke:#181818;stroke-width:1.0;"/><polygon fill="#181818" points="1535.83,950.37,1544.0501,944.945,1538.5249,946.1584,1537.3115,940.6332,1535.83,950.37" style="stroke:#181818;stroke-width:1.0;"/><text fill="#000000" font-family="sans-serif" font-size="13" lengthAdjust="spacing" textLength="39" x="1563.78" y="917.1884">action</text></g><!--reverse link SipApplicationRouterProvider to AppRouterProvider--><g id="link_SipApplicationRouterProvider_AppRouterProvider"><path codeLine="123" d="M601,222.73 C601,279.49 601,380.13 601,436.72 " fill="none" id="SipApplicationRouterProvider-backto-AppRouterProvider" style="stroke:#181818;stroke-width:1.0;"/><polygon fill="none" points="601,204.73,595,222.73,607,222.73,601,204.73" style="stroke:#181818;stroke-width:1.0;"/></g><!--link AppRouterProvider to AppRouter--><g id="link_AppRouterProvider_AppRouter"><path codeLine="124" d="M601,501.59 C601,534.23 601,581.15 601,629.75 " fill="none" id="AppRouterProvider-to-AppRouter" style="stroke:#181818;stroke-width:1.0;"/><polygon fill="#181818" points="601,635.75,605,626.75,601,630.75,597,626.75,601,635.75" style="stroke:#181818;stroke-width:1.0;"/><text fill="#000000" font-family="sans-serif" font-size="13" lengthAdjust="spacing" textLength="64" x="602" y="594.3284">appRouter</text></g><!--reverse link Configuration to AppRouterConfiguration--><g id="link_Configuration_AppRouterConfiguration"><path codeLine="125" d="M1083,321.8 C1083,350.14 1083,361.33 1083,387.09 " fill="none" id="Configuration-backto-AppRouterConfiguration" style="stroke:#181818;stroke-width:1.0;"/><polygon fill="none" points="1083,303.8,1077,321.8,1089,321.8,1083,303.8" style="stroke:#181818;stroke-width:1.0;"/></g><!--reverse link Serializable to AppRouterConfiguration--><g id="link_Serializable_AppRouterConfiguration"><path codeLine="126" d="M2963.0529,174.3649 C2694.9429,179.2049 1559.07,207.43 1231,344.34 C1206.59,354.53 1183.14,370.22 1162.4,387.03 " fill="none" id="Serializable-backto-AppRouterConfiguration" style="stroke:#181818;stroke-width:1.0;stroke-dasharray:7.0,7.0;"/><polygon fill="none" points="2981.05,174.04,2962.9446,168.3659,2963.1612,180.3639,2981.05,174.04" style="stroke:#181818;stroke-width:1.0;"/></g><!--reverse link Serializable to Action--><g id="link_Serializable_Action"><path codeLine="127" d="M3077.1801,208.7776 C3109.8201,239.0376 3149.84,282.98 3171,344.34 C3207.85,451.19 3242.19,532.39 3150,597.76 C2751.85,880.09 2183.68,978.65 1824.46,1013.01 " fill="none" id="Serializable-backto-Action" style="stroke:#181818;stroke-width:1.0;stroke-dasharray:7.0,7.0;"/><polygon fill="none" points="3063.98,196.54,3073.1009,213.1776,3081.2593,204.3775,3063.98,196.54" style="stroke:#181818;stroke-width:1.0;"/></g><text fill="#888888" font-family="sans-serif" font-size="10" lengthAdjust="spacing" textLength="176" x="1529.595" y="1145.708">UMLDoclet 2.1.2, PlantUML 1.2024.3</text><!--SRC=[rLXRRzis57xlho1Q372MIaBoAAGPNBjPZSL9O3a5Xi0eQEbOuIgB6abxpLB_zntT9OkovSHzM834Cldny3lten12Y0I5ln4LL751RFlD6rma4NM_KHy85xwvvYAYWJaFg0TcmEQ2YYTp8PTKd9Fd51x_k06LalIZQC9N2WHvU2YUpKUr36OpH9FApxDKL35tGzvTEUF-n2QE4YpqzPXJoQ9hxliWR99-wd46wgDGYXpJa2PefxvmKR0Qy731_1KgpdXusKBDWoZWJ-3Pv3ELZsCQNQGitsTiw-TEMSXKxyGcQyuypSwTu148nK1gCJwe6_Yka670t8HMps6H0s8TW9h0tokG2YzcKGKHwu8y9k3ZbvRD8HFWAhQ6P7zA1Lu4NYPm52uuheDWD63_qda0oAqf1aGChFEb9MIOsQbtpQJAR7IfLR9ow3xqEX_paAhWJrhZbb62YkLCa7yl5NZI2AtDTjXE1OjZ2eCsUzeJiXXciRs-W92n7gEXJGA-5RkdhW2gO2feA5dgp9nEkTPEoS6h00abdyUWerBDP3EKCvql6z6ORLI9irhkRLhplvPT3br60LHBWcRx23gMWR2aBBVtmsmxPZJkp_sHH43-vHXMPvwsi9s6cEZw7PU7NdAzJGRvurOAUTw0Bx5cCrb4LLwGyazj4c5nl4KFif36PM5dFERuAOZb8VZ4lLNBxyD-n5Pp2FuAsGHT3c3yZhpUYTx8CjayA26BsCKglcPUlSNbQ_gGYRdeIcglfTGUcb-jcNMC2FPWGLT1jIlfJHe9M3E-ahfMYIMiMLtkiWFLCet01cxO8B33gnfmUqAyj5xqtTpgxh6ihCeyq-l6oyJL0qJi_dphOQRP_3h7NDkDMCJPrGP96rev3HIbHnzyoRHHdrwwZ1QPjJVrIVGlkgRVJPbACt4QDAce69o5A6P1NT3At_OCdUCmGLsrsJ6nDK2xXxSgVEUiKi6zP7vgEN_0A5MLy3-QE3TjKM4ohW-4oWMOgezAHTAsB8-xqkIeFquSBbzQ45gnbEIF1EliB45OD6B9aZcFLnC4urPLPfBrlp5fe051ODfyK685irdNw3Lbn2h4Sw_auv_67aNZUTxbq1Ss6WthnjlVGj0b_CF5DxHSdEWL8YdhxQwK6psL4gBkFbEFgpdwp4f4PZj6yiN8tYwDuXuBAMIG35zkfHIiPh_J-EGrfVbTWE-RITN55yyx6j-FicKT8q7Aj3Ec3osuycBdq-3sPkXylUeFfhUJNREiCHxTt4y_TO9-lhsVT08E-tzsmltniHDgr0asxeRg9kptRgWsORM0rwMdRMixoSKFqzptRn7RBXfY8HuZ7YLMIr8tITKthgvWOXYNvEslRxiSoETUcwZYMRwQTJd8TJTLlNPS_32CbnvEtoTVhSHF5Rxrnd40Fl7kVl9kwbNg5dUqDI5zf1VDva1FvESEz7vnNJVjycEeO2tLzhOispvUdFsa27kzsDBdBiJp45bm7d_SZw-770SVHSxDC_FyFRaBQAXmbVooJbjWx-G_]--></g></svg>