<?xml version="1.0" encoding="us-ascii" standalone="no"?><svg xmlns="http://www.w3.org/2000/svg" xmlns:xlink="http://www.w3.org/1999/xlink" contentStyleType="text/css" height="1037px" preserveAspectRatio="none" style="width:1312px;height:1037px;background:#FFFFFF;" version="1.1" viewBox="0 0 1312 1037" width="1312px" zoomAndPan="magnify"><defs/><g><!--cluster org.vorpal.blade.services.queue.config--><g id="cluster_org.vorpal.blade.services.queue.config"><path d="M8.5,508.23 L278.5,508.23 A3.75,3.75 0 0 1 281,510.73 L288,530.7183 L1302.5,530.7183 A2.5,2.5 0 0 1 1305,533.2183 L1305,1009.52 A2.5,2.5 0 0 1 1302.5,1012.02 L8.5,1012.02 A2.5,2.5 0 0 1 6,1009.52 L6,510.73 A2.5,2.5 0 0 1 8.5,508.23 " fill="none" style="stroke:#000000;stroke-width:1.5;"/><line style="stroke:#000000;stroke-width:1.5;" x1="6" x2="288" y1="530.7183" y2="530.7183"/><text fill="#000000" font-family="sans-serif" font-size="14" font-weight="bold" lengthAdjust="spacing" textLength="269" x="10" y="523.7652">org.vorpal.blade.services.queue.config</text></g><!--cluster org.vorpal.blade.framework.config--><g id="cluster_org.vorpal.blade.framework.config"><path d="M177.5,6 L421.5,6 A3.75,3.75 0 0 1 424,8.5 L431,28.4883 L727.5,28.4883 A2.5,2.5 0 0 1 730,30.9883 L730,481.73 A2.5,2.5 0 0 1 727.5,484.23 L177.5,484.23 A2.5,2.5 0 0 1 175,481.73 L175,8.5 A2.5,2.5 0 0 1 177.5,6 " fill="none" style="stroke:#000000;stroke-width:1.5;"/><line style="stroke:#000000;stroke-width:1.5;" x1="175" x2="431" y1="28.4883" y2="28.4883"/><text fill="#000000" font-family="sans-serif" font-size="14" font-weight="bold" lengthAdjust="spacing" textLength="243" x="179" y="21.5352">org.vorpal.blade.framework.config</text></g><!--cluster java.io--><g id="cluster_java.io"><path d="M1058.5,195.62 L1105.5,195.62 A3.75,3.75 0 0 1 1108,198.12 L1115,218.1083 L1197.5,218.1083 A2.5,2.5 0 0 1 1200,220.6083 L1200,292.12 A2.5,2.5 0 0 1 1197.5,294.62 L1058.5,294.62 A2.5,2.5 0 0 1 1056,292.12 L1056,198.12 A2.5,2.5 0 0 1 1058.5,195.62 " fill="none" style="stroke:#000000;stroke-width:1.5;"/><line style="stroke:#000000;stroke-width:1.5;" x1="1056" x2="1115" y1="218.1083" y2="218.1083"/><text fill="#000000" font-family="sans-serif" font-size="14" font-weight="bold" lengthAdjust="spacing" textLength="46" x="1060" y="211.1552">java.io</text></g><!--class QueueConfig--><a href="QueueConfig.html" target="_top" title="QueueConfig.html" xlink:actuate="onRequest" xlink:href="QueueConfig.html" xlink:show="new" xlink:title="QueueConfig.html" xlink:type="simple"><g id="elem_QueueConfig"><rect codeLine="5" fill="#F1F1F1" height="130.4414" id="QueueConfig" rx="2.5" ry="2.5" style="stroke:#181818;stroke-width:0.5;" width="420" x="22" y="650.4"/><ellipse cx="182.25" cy="666.4" fill="#ADD1B2" rx="11" ry="11" style="stroke:#181818;stroke-width:1.0;"/><path d="M184.7231,672.5431 Q184.1421,672.8419 183.5029,672.9913 Q182.8638,673.1407 182.1582,673.1407 Q179.6514,673.1407 178.3315,671.4889 Q177.0117,669.837 177.0117,666.7159 Q177.0117,663.5865 178.3315,661.9347 Q179.6514,660.2828 182.1582,660.2828 Q182.8638,660.2828 183.5112,660.4322 Q184.1587,660.5816 184.7231,660.8805 L184.7231,663.6031 Q184.0923,663.0221 183.4988,662.7523 Q182.9053,662.4825 182.2744,662.4825 Q180.9297,662.4825 180.2449,663.5492 Q179.5601,664.6158 179.5601,666.7159 Q179.5601,668.8077 180.2449,669.8744 Q180.9297,670.941 182.2744,670.941 Q182.9053,670.941 183.4988,670.6712 Q184.0923,670.4015 184.7231,669.8204 Z " fill="#000000"/><text fill="#000000" font-family="sans-serif" font-size="14" lengthAdjust="spacing" textLength="91" x="202.75" y="671.691">QueueConfig</text><line style="stroke:#181818;stroke-width:0.5;" x1="23" x2="441" y1="682.4" y2="682.4"/><rect fill="none" height="6" style="stroke:#C82930;stroke-width:1.0;" width="6" x="30" y="693.1441"/><text fill="#000000" font-family="sans-serif" font-size="14" lengthAdjust="spacing" text-decoration="underline" textLength="152" x="42" y="699.9352">serialVersionUID: long</text><ellipse cx="33" cy="712.6324" fill="none" rx="3" ry="3" style="stroke:#038048;stroke-width:1.0;"/><text fill="#000000" font-family="sans-serif" font-size="14" lengthAdjust="spacing" textLength="271" x="42" y="716.4234">queues: Map&lt;String, QueueAttributes&gt;</text><line style="stroke:#181818;stroke-width:0.5;" x1="23" x2="441" y1="723.3766" y2="723.3766"/><ellipse cx="33" cy="737.1207" fill="#84BE84" rx="3" ry="3" style="stroke:#038048;stroke-width:1.0;"/><text fill="#000000" font-family="sans-serif" font-size="14" lengthAdjust="spacing" textLength="305" x="42" y="740.9117">getQueues(): Map&lt;String, QueueAttributes&gt;</text><ellipse cx="33" cy="753.609" fill="#84BE84" rx="3" ry="3" style="stroke:#038048;stroke-width:1.0;"/><text fill="#000000" font-family="sans-serif" font-size="14" lengthAdjust="spacing" textLength="394" x="42" y="757.4">setQueues(Map&lt;String, QueueAttributes&gt;): QueueConfig</text><ellipse cx="33" cy="770.0973" fill="#84BE84" rx="3" ry="3" style="stroke:#038048;stroke-width:1.0;"/><text fill="#000000" font-family="sans-serif" font-size="14" lengthAdjust="spacing" textLength="342" x="42" y="773.8883">addQueue(String, QueueAttributes): QueueConfig</text></g></a><!--class QueueSettingsManager--><a href="QueueSettingsManager.html" target="_top" title="QueueSettingsManager.html" xlink:actuate="onRequest" xlink:href="QueueSettingsManager.html" xlink:show="new" xlink:title="QueueSettingsManager.html" xlink:type="simple"><g id="elem_QueueSettingsManager"><rect codeLine="13" fill="#F1F1F1" height="80.9766" id="QueueSettingsManager" rx="2.5" ry="2.5" style="stroke:#181818;stroke-width:0.5;" width="454" x="477" y="675.14"/><ellipse cx="619.75" cy="691.14" fill="#ADD1B2" rx="11" ry="11" style="stroke:#181818;stroke-width:1.0;"/><path d="M622.2231,697.2831 Q621.6421,697.5819 621.0029,697.7313 Q620.3638,697.8807 619.6582,697.8807 Q617.1514,697.8807 615.8315,696.2289 Q614.5117,694.577 614.5117,691.4559 Q614.5117,688.3265 615.8315,686.6747 Q617.1514,685.0228 619.6582,685.0228 Q620.3638,685.0228 621.0112,685.1722 Q621.6587,685.3216 622.2231,685.6205 L622.2231,688.3431 Q621.5923,687.7621 620.9988,687.4923 Q620.4053,687.2225 619.7744,687.2225 Q618.4297,687.2225 617.7449,688.2892 Q617.0601,689.3558 617.0601,691.4559 Q617.0601,693.5477 617.7449,694.6144 Q618.4297,695.681 619.7744,695.681 Q620.4053,695.681 620.9988,695.4112 Q621.5923,695.1415 622.2231,694.5604 Z " fill="#000000"/><text fill="#000000" font-family="sans-serif" font-size="14" lengthAdjust="spacing" textLength="160" x="640.25" y="696.431">QueueSettingsManager</text><line style="stroke:#181818;stroke-width:0.5;" x1="478" x2="930" y1="707.14" y2="707.14"/><line style="stroke:#181818;stroke-width:0.5;" x1="478" x2="930" y1="715.14" y2="715.14"/><ellipse cx="488" cy="728.8841" fill="#84BE84" rx="3" ry="3" style="stroke:#038048;stroke-width:1.0;"/><text fill="#000000" font-family="sans-serif" font-size="14" lengthAdjust="spacing" textLength="428" x="497" y="732.6752">QueueSettingsManager(SipServletContextEvent, QueueConfig)</text><ellipse cx="488" cy="745.3724" fill="#84BE84" rx="3" ry="3" style="stroke:#038048;stroke-width:1.0;"/><text fill="#000000" font-family="sans-serif" font-size="14" lengthAdjust="spacing" textLength="196" x="497" y="749.1634">initialize(QueueConfig): void</text></g></a><!--class QueueConfigSample--><a href="QueueConfigSample.html" target="_top" title="QueueConfigSample.html" xlink:actuate="onRequest" xlink:href="QueueConfigSample.html" xlink:show="new" xlink:title="QueueConfigSample.html" xlink:type="simple"><g id="elem_QueueConfigSample"><rect codeLine="18" fill="#F1F1F1" height="48" id="QueueConfigSample" rx="2.5" ry="2.5" style="stroke:#181818;stroke-width:0.5;" width="173" x="145.5" y="948.02"/><ellipse cx="160.5" cy="964.02" fill="#ADD1B2" rx="11" ry="11" style="stroke:#181818;stroke-width:1.0;"/><path d="M162.9731,970.1631 Q162.3921,970.4619 161.7529,970.6113 Q161.1138,970.7607 160.4082,970.7607 Q157.9014,970.7607 156.5815,969.1089 Q155.2617,967.457 155.2617,964.3359 Q155.2617,961.2065 156.5815,959.5547 Q157.9014,957.9028 160.4082,957.9028 Q161.1138,957.9028 161.7612,958.0522 Q162.4087,958.2016 162.9731,958.5005 L162.9731,961.2231 Q162.3423,960.6421 161.7488,960.3723 Q161.1553,960.1025 160.5244,960.1025 Q159.1797,960.1025 158.4949,961.1692 Q157.8101,962.2358 157.8101,964.3359 Q157.8101,966.4277 158.4949,967.4944 Q159.1797,968.561 160.5244,968.561 Q161.1553,968.561 161.7488,968.2912 Q162.3423,968.0215 162.9731,967.4404 Z " fill="#000000"/><text fill="#000000" font-family="sans-serif" font-size="14" lengthAdjust="spacing" textLength="141" x="174.5" y="969.311">QueueConfigSample</text><line style="stroke:#181818;stroke-width:0.5;" x1="146.5" x2="317.5" y1="980.02" y2="980.02"/><line style="stroke:#181818;stroke-width:0.5;" x1="146.5" x2="317.5" y1="988.02" y2="988.02"/></g></a><!--class QueueAttributes--><a href="QueueAttributes.html" target="_top" title="QueueAttributes.html" xlink:actuate="onRequest" xlink:href="QueueAttributes.html" xlink:show="new" xlink:title="QueueAttributes.html" xlink:type="simple"><g id="elem_QueueAttributes"><rect codeLine="20" fill="#F1F1F1" height="344.7891" id="QueueAttributes" rx="2.5" ry="2.5" style="stroke:#181818;stroke-width:0.5;" width="323" x="966.5" y="543.23"/><ellipse cx="1067.25" cy="559.23" fill="#ADD1B2" rx="11" ry="11" style="stroke:#181818;stroke-width:1.0;"/><path d="M1069.7231,565.3731 Q1069.1421,565.6719 1068.5029,565.8213 Q1067.8638,565.9707 1067.1582,565.9707 Q1064.6514,565.9707 1063.3315,564.3189 Q1062.0117,562.667 1062.0117,559.5459 Q1062.0117,556.4165 1063.3315,554.7647 Q1064.6514,553.1128 1067.1582,553.1128 Q1067.8638,553.1128 1068.5112,553.2622 Q1069.1587,553.4116 1069.7231,553.7105 L1069.7231,556.4331 Q1069.0923,555.8521 1068.4988,555.5823 Q1067.9053,555.3125 1067.2744,555.3125 Q1065.9297,555.3125 1065.2449,556.3792 Q1064.5601,557.4458 1064.5601,559.5459 Q1064.5601,561.6377 1065.2449,562.7044 Q1065.9297,563.771 1067.2744,563.771 Q1067.9053,563.771 1068.4988,563.5012 Q1069.0923,563.2315 1069.7231,562.6504 Z " fill="#000000"/><text fill="#000000" font-family="sans-serif" font-size="14" lengthAdjust="spacing" textLength="113" x="1087.75" y="564.521">QueueAttributes</text><line style="stroke:#181818;stroke-width:0.5;" x1="967.5" x2="1288.5" y1="575.23" y2="575.23"/><rect fill="none" height="6" style="stroke:#C82930;stroke-width:1.0;" width="6" x="974.5" y="585.9741"/><text fill="#000000" font-family="sans-serif" font-size="14" lengthAdjust="spacing" text-decoration="underline" textLength="152" x="986.5" y="592.7652">serialVersionUID: long</text><ellipse cx="977.5" cy="605.4624" fill="none" rx="3" ry="3" style="stroke:#038048;stroke-width:1.0;"/><text fill="#000000" font-family="sans-serif" font-size="14" lengthAdjust="spacing" textLength="102" x="986.5" y="609.2534">period: Integer</text><ellipse cx="977.5" cy="621.9507" fill="none" rx="3" ry="3" style="stroke:#038048;stroke-width:1.0;"/><text fill="#000000" font-family="sans-serif" font-size="14" lengthAdjust="spacing" textLength="84" x="986.5" y="625.7417">rate: Integer</text><ellipse cx="977.5" cy="638.439" fill="none" rx="3" ry="3" style="stroke:#038048;stroke-width:1.0;"/><text fill="#000000" font-family="sans-serif" font-size="14" lengthAdjust="spacing" textLength="145" x="986.5" y="642.23">ringDuration: Integer</text><ellipse cx="977.5" cy="654.9273" fill="none" rx="3" ry="3" style="stroke:#038048;stroke-width:1.0;"/><text fill="#000000" font-family="sans-serif" font-size="14" lengthAdjust="spacing" textLength="129" x="986.5" y="658.7183">ringPeriod: Integer</text><ellipse cx="977.5" cy="671.4155" fill="none" rx="3" ry="3" style="stroke:#038048;stroke-width:1.0;"/><text fill="#000000" font-family="sans-serif" font-size="14" lengthAdjust="spacing" textLength="152" x="986.5" y="675.2066">announcement: String</text><line style="stroke:#181818;stroke-width:0.5;" x1="967.5" x2="1288.5" y1="682.1597" y2="682.1597"/><ellipse cx="977.5" cy="695.9038" fill="#84BE84" rx="3" ry="3" style="stroke:#038048;stroke-width:1.0;"/><text fill="#000000" font-family="sans-serif" font-size="14" lengthAdjust="spacing" textLength="123" x="986.5" y="699.6948">QueueAttributes()</text><ellipse cx="977.5" cy="712.3921" fill="#84BE84" rx="3" ry="3" style="stroke:#038048;stroke-width:1.0;"/><text fill="#000000" font-family="sans-serif" font-size="14" lengthAdjust="spacing" textLength="236" x="986.5" y="716.1831">QueueAttributes(QueueAttributes)</text><ellipse cx="977.5" cy="728.8804" fill="#84BE84" rx="3" ry="3" style="stroke:#038048;stroke-width:1.0;"/><text fill="#000000" font-family="sans-serif" font-size="14" lengthAdjust="spacing" textLength="133" x="986.5" y="732.6714">getPeriod(): Integer</text><ellipse cx="977.5" cy="745.3687" fill="#84BE84" rx="3" ry="3" style="stroke:#038048;stroke-width:1.0;"/><text fill="#000000" font-family="sans-serif" font-size="14" lengthAdjust="spacing" textLength="244" x="986.5" y="749.1597">setPeriod(Integer): QueueAttributes</text><ellipse cx="977.5" cy="761.857" fill="#84BE84" rx="3" ry="3" style="stroke:#038048;stroke-width:1.0;"/><text fill="#000000" font-family="sans-serif" font-size="14" lengthAdjust="spacing" textLength="119" x="986.5" y="765.648">getRate(): Integer</text><ellipse cx="977.5" cy="778.3452" fill="#84BE84" rx="3" ry="3" style="stroke:#038048;stroke-width:1.0;"/><text fill="#000000" font-family="sans-serif" font-size="14" lengthAdjust="spacing" textLength="230" x="986.5" y="782.1363">setRate(Integer): QueueAttributes</text><ellipse cx="977.5" cy="794.8335" fill="#84BE84" rx="3" ry="3" style="stroke:#038048;stroke-width:1.0;"/><text fill="#000000" font-family="sans-serif" font-size="14" lengthAdjust="spacing" textLength="164" x="986.5" y="798.6245">getRingPeriod(): Integer</text><ellipse cx="977.5" cy="811.3218" fill="#84BE84" rx="3" ry="3" style="stroke:#038048;stroke-width:1.0;"/><text fill="#000000" font-family="sans-serif" font-size="14" lengthAdjust="spacing" textLength="275" x="986.5" y="815.1128">setRingPeriod(Integer): QueueAttributes</text><ellipse cx="977.5" cy="827.8101" fill="#84BE84" rx="3" ry="3" style="stroke:#038048;stroke-width:1.0;"/><text fill="#000000" font-family="sans-serif" font-size="14" lengthAdjust="spacing" textLength="180" x="986.5" y="831.6011">getRingDuration(): Integer</text><ellipse cx="977.5" cy="844.2984" fill="#84BE84" rx="3" ry="3" style="stroke:#038048;stroke-width:1.0;"/><text fill="#000000" font-family="sans-serif" font-size="14" lengthAdjust="spacing" textLength="291" x="986.5" y="848.0894">setRingDuration(Integer): QueueAttributes</text><ellipse cx="977.5" cy="860.7866" fill="#84BE84" rx="3" ry="3" style="stroke:#038048;stroke-width:1.0;"/><text fill="#000000" font-family="sans-serif" font-size="14" lengthAdjust="spacing" textLength="186" x="986.5" y="864.5777">getAnnouncement(): String</text><ellipse cx="977.5" cy="877.2749" fill="#84BE84" rx="3" ry="3" style="stroke:#038048;stroke-width:1.0;"/><text fill="#000000" font-family="sans-serif" font-size="14" lengthAdjust="spacing" textLength="297" x="986.5" y="881.0659">setAnnouncement(String): QueueAttributes</text></g></a><!--class RouterConfig--><a href="https://vorpalnet.github.io/blade/vorpal-blade-library-framework/org/vorpal/blade/framework/config/RouterConfig.html?is-external=true" target="_top" title="https://vorpalnet.github.io/blade/vorpal-blade-library-framework/org/vorpal/blade/framework/config/RouterConfig.html?is-external=true" xlink:actuate="onRequest" xlink:href="https://vorpalnet.github.io/blade/vorpal-blade-library-framework/org/vorpal/blade/framework/config/RouterConfig.html?is-external=true" xlink:show="new" xlink:title="https://vorpalnet.github.io/blade/vorpal-blade-library-framework/org/vorpal/blade/framework/config/RouterConfig.html?is-external=true" xlink:type="simple"><g id="elem_RouterConfig"><rect codeLine="44" fill="#F1F1F1" height="130.4414" id="RouterConfig" rx="2.5" ry="2.5" style="stroke:#181818;stroke-width:0.5;" width="275" x="190.5" y="189.39"/><ellipse cx="277.75" cy="205.39" fill="#ADD1B2" rx="11" ry="11" style="stroke:#181818;stroke-width:1.0;"/><path d="M280.2231,211.5331 Q279.6421,211.8319 279.0029,211.9813 Q278.3638,212.1307 277.6582,212.1307 Q275.1514,212.1307 273.8315,210.4789 Q272.5117,208.827 272.5117,205.7059 Q272.5117,202.5765 273.8315,200.9247 Q275.1514,199.2728 277.6582,199.2728 Q278.3638,199.2728 279.0112,199.4222 Q279.6587,199.5716 280.2231,199.8705 L280.2231,202.5931 Q279.5923,202.0121 278.9988,201.7423 Q278.4053,201.4725 277.7744,201.4725 Q276.4297,201.4725 275.7449,202.5392 Q275.0601,203.6058 275.0601,205.7059 Q275.0601,207.7977 275.7449,208.8644 Q276.4297,209.931 277.7744,209.931 Q278.4053,209.931 278.9988,209.6612 Q279.5923,209.3915 280.2231,208.8104 Z " fill="#000000"/><text fill="#000000" font-family="sans-serif" font-size="14" lengthAdjust="spacing" textLength="92" x="298.25" y="210.681">RouterConfig</text><line style="stroke:#181818;stroke-width:0.5;" x1="191.5" x2="464.5" y1="221.39" y2="221.39"/><rect fill="none" height="6" style="stroke:#C82930;stroke-width:1.0;" width="6" x="198.5" y="232.1341"/><text fill="#000000" font-family="sans-serif" font-size="14" lengthAdjust="spacing" text-decoration="underline" textLength="152" x="210.5" y="238.9252">serialVersionUID: long</text><ellipse cx="201.5" cy="251.6224" fill="none" rx="3" ry="3" style="stroke:#038048;stroke-width:1.0;"/><text fill="#000000" font-family="sans-serif" font-size="14" lengthAdjust="spacing" textLength="214" x="210.5" y="255.4134">selectors: LinkedList&lt;Selector&gt;</text><ellipse cx="201.5" cy="268.1107" fill="none" rx="3" ry="3" style="stroke:#038048;stroke-width:1.0;"/><text fill="#000000" font-family="sans-serif" font-size="14" lengthAdjust="spacing" textLength="249" x="210.5" y="271.9017">maps: LinkedList&lt;TranslationsMap&gt;</text><ellipse cx="201.5" cy="284.599" fill="none" rx="3" ry="3" style="stroke:#038048;stroke-width:1.0;"/><text fill="#000000" font-family="sans-serif" font-size="14" lengthAdjust="spacing" textLength="242" x="210.5" y="288.39">plan: LinkedList&lt;TranslationsMap&gt;</text><ellipse cx="201.5" cy="301.0873" fill="none" rx="3" ry="3" style="stroke:#038048;stroke-width:1.0;"/><text fill="#000000" font-family="sans-serif" font-size="14" lengthAdjust="spacing" textLength="174" x="210.5" y="304.8783">defaultRoute: Translation</text><line style="stroke:#181818;stroke-width:0.5;" x1="191.5" x2="464.5" y1="311.8314" y2="311.8314"/></g></a><!--class SettingsManager--><a href="https://vorpalnet.github.io/blade/vorpal-blade-library-framework/org/vorpal/blade/framework/config/SettingsManager.html?is-external=true" target="_top" title="https://vorpalnet.github.io/blade/vorpal-blade-library-framework/org/vorpal/blade/framework/config/SettingsManager.html?is-external=true" xlink:actuate="onRequest" xlink:href="https://vorpalnet.github.io/blade/vorpal-blade-library-framework/org/vorpal/blade/framework/config/SettingsManager.html?is-external=true" xlink:show="new" xlink:title="https://vorpalnet.github.io/blade/vorpal-blade-library-framework/org/vorpal/blade/framework/config/SettingsManager.html?is-external=true" xlink:type="simple"><g id="elem_SettingsManager"><rect codeLine="51" fill="#F1F1F1" height="427.2305" id="SettingsManager" rx="2.5" ry="2.5" style="stroke:#181818;stroke-width:0.5;" width="214" x="500" y="41"/><ellipse cx="539.75" cy="57" fill="#ADD1B2" rx="11" ry="11" style="stroke:#181818;stroke-width:1.0;"/><path d="M542.2231,63.1431 Q541.6421,63.4419 541.0029,63.5913 Q540.3638,63.7407 539.6582,63.7407 Q537.1514,63.7407 535.8315,62.0889 Q534.5117,60.437 534.5117,57.3159 Q534.5117,54.1865 535.8315,52.5347 Q537.1514,50.8828 539.6582,50.8828 Q540.3638,50.8828 541.0112,51.0322 Q541.6587,51.1816 542.2231,51.4805 L542.2231,54.2031 Q541.5923,53.6221 540.9988,53.3523 Q540.4053,53.0825 539.7744,53.0825 Q538.4297,53.0825 537.7449,54.1492 Q537.0601,55.2158 537.0601,57.3159 Q537.0601,59.4077 537.7449,60.4744 Q538.4297,61.541 539.7744,61.541 Q540.4053,61.541 540.9988,61.2712 Q541.5923,61.0015 542.2231,60.4204 Z " fill="#000000"/><text fill="#000000" font-family="sans-serif" font-size="14" lengthAdjust="spacing" textLength="115" x="559.25" y="62.291">SettingsManager</text><rect fill="#FFFFFF" height="16.1328" style="stroke:#181818;stroke-width:1.0;stroke-dasharray:2.0,2.0;" width="10" x="707" y="38"/><text fill="#000000" font-family="sans-serif" font-size="12" font-style="italic" lengthAdjust="spacing" textLength="8" x="708" y="50.6016">T</text><line style="stroke:#181818;stroke-width:0.5;" x1="501" x2="713" y1="73" y2="73"/><polygon fill="none" points="511,81.7441,515,85.7441,511,89.7441,507,85.7441" style="stroke:#B38D22;stroke-width:1.0;"/><text fill="#000000" font-family="sans-serif" font-size="14" lengthAdjust="spacing" textLength="66" x="520" y="90.5352">sample: T</text><polygon fill="none" points="511,98.2324,515,102.2324,511,106.2324,507,102.2324" style="stroke:#B38D22;stroke-width:1.0;"/><text fill="#000000" font-family="sans-serif" font-size="14" lengthAdjust="spacing" textLength="67" x="520" y="107.0234">current: T</text><polygon fill="none" points="511,114.7207,515,118.7207,511,122.7207,507,118.7207" style="stroke:#B38D22;stroke-width:1.0;"/><text fill="#000000" font-family="sans-serif" font-size="14" lengthAdjust="spacing" textLength="172" x="520" y="123.5117">objectName: ObjectName</text><polygon fill="none" points="511,131.209,515,135.209,511,139.209,507,135.209" style="stroke:#B38D22;stroke-width:1.0;"/><text fill="#000000" font-family="sans-serif" font-size="14" lengthAdjust="spacing" textLength="138" x="520" y="140">server: MBeanServer</text><polygon fill="none" points="511,147.6973,515,151.6973,511,155.6973,507,151.6973" style="stroke:#B38D22;stroke-width:1.0;"/><text fill="#000000" font-family="sans-serif" font-size="14" lengthAdjust="spacing" textLength="157" x="520" y="156.4883">mapper: ObjectMapper</text><polygon fill="none" points="511,164.1855,515,168.1855,511,172.1855,507,168.1855" style="stroke:#B38D22;stroke-width:1.0;"/><text fill="#000000" font-family="sans-serif" font-size="14" lengthAdjust="spacing" textLength="110" x="520" y="172.9766">clazz: Class&lt;T&gt;</text><polygon fill="none" points="511,180.6738,515,184.6738,511,188.6738,507,184.6738" style="stroke:#B38D22;stroke-width:1.0;"/><text fill="#000000" font-family="sans-serif" font-size="14" lengthAdjust="spacing" textLength="122" x="520" y="189.4648">oi: ObjectInstance</text><polygon fill="none" points="511,197.1621,515,201.1621,511,205.1621,507,201.1621" style="stroke:#B38D22;stroke-width:1.0;"/><text fill="#000000" font-family="sans-serif" font-size="14" lengthAdjust="spacing" textLength="148" x="520" y="205.9531">settings: Settings&lt;T&gt;</text><polygon fill="none" points="511,213.6504,515,217.6504,511,221.6504,507,217.6504" style="stroke:#B38D22;stroke-width:1.0;"/><text fill="#000000" font-family="sans-serif" font-size="14" lengthAdjust="spacing" text-decoration="underline" textLength="130" x="520" y="222.4414">serverName: String</text><polygon fill="none" points="511,230.1387,515,234.1387,511,238.1387,507,234.1387" style="stroke:#B38D22;stroke-width:1.0;"/><text fill="#000000" font-family="sans-serif" font-size="14" lengthAdjust="spacing" text-decoration="underline" textLength="134" x="520" y="238.9297">clusterName: String</text><polygon fill="none" points="511,246.627,515,250.627,511,254.627,507,250.627" style="stroke:#B38D22;stroke-width:1.0;"/><text fill="#000000" font-family="sans-serif" font-size="14" lengthAdjust="spacing" textLength="188" x="520" y="255.418">servletContextName: String</text><polygon fill="none" points="511,263.1152,515,267.1152,511,271.1152,507,267.1152" style="stroke:#B38D22;stroke-width:1.0;"/><text fill="#000000" font-family="sans-serif" font-size="14" lengthAdjust="spacing" textLength="120" x="520" y="271.9063">domainPath: Path</text><polygon fill="none" points="511,279.6035,515,283.6035,511,287.6035,507,283.6035" style="stroke:#B38D22;stroke-width:1.0;"/><text fill="#000000" font-family="sans-serif" font-size="14" lengthAdjust="spacing" textLength="114" x="520" y="288.3945">clusterPath: Path</text><polygon fill="none" points="511,296.0918,515,300.0918,511,304.0918,507,300.0918" style="stroke:#B38D22;stroke-width:1.0;"/><text fill="#000000" font-family="sans-serif" font-size="14" lengthAdjust="spacing" textLength="110" x="520" y="304.8828">serverPath: Path</text><polygon fill="none" points="511,312.5801,515,316.5801,511,320.5801,507,316.5801" style="stroke:#B38D22;stroke-width:1.0;"/><text fill="#000000" font-family="sans-serif" font-size="14" lengthAdjust="spacing" textLength="120" x="520" y="321.3711">schemaPath: Path</text><polygon fill="none" points="511,329.0684,515,333.0684,511,337.0684,507,333.0684" style="stroke:#B38D22;stroke-width:1.0;"/><text fill="#000000" font-family="sans-serif" font-size="14" lengthAdjust="spacing" textLength="117" x="520" y="337.8594">samplePath: Path</text><ellipse cx="511" cy="350.5566" fill="none" rx="3" ry="3" style="stroke:#038048;stroke-width:1.0;"/><text fill="#000000" font-family="sans-serif" font-size="14" lengthAdjust="spacing" text-decoration="underline" textLength="149" x="520" y="354.3477">sipFactory: SipFactory</text><ellipse cx="511" cy="367.0449" fill="none" rx="3" ry="3" style="stroke:#038048;stroke-width:1.0;"/><text fill="#000000" font-family="sans-serif" font-size="14" lengthAdjust="spacing" text-decoration="underline" textLength="154" x="520" y="370.8359">sipUtil: SipSessionsUtil</text><ellipse cx="511" cy="383.5332" fill="none" rx="3" ry="3" style="stroke:#038048;stroke-width:1.0;"/><text fill="#000000" font-family="sans-serif" font-size="14" lengthAdjust="spacing" text-decoration="underline" textLength="124" x="520" y="387.3242">sipLogger: Logger</text><polygon fill="none" points="511,395.0215,515,399.0215,511,403.0215,507,399.0215" style="stroke:#B38D22;stroke-width:1.0;"/><text fill="#000000" font-family="sans-serif" font-size="14" lengthAdjust="spacing" textLength="161" x="520" y="403.8125">domainNode: JsonNode</text><polygon fill="none" points="511,411.5098,515,415.5098,511,419.5098,507,415.5098" style="stroke:#B38D22;stroke-width:1.0;"/><text fill="#000000" font-family="sans-serif" font-size="14" lengthAdjust="spacing" textLength="155" x="520" y="420.3008">clusterNode: JsonNode</text><polygon fill="none" points="511,427.998,515,431.998,511,435.998,507,431.998" style="stroke:#B38D22;stroke-width:1.0;"/><text fill="#000000" font-family="sans-serif" font-size="14" lengthAdjust="spacing" textLength="151" x="520" y="436.7891">serverNode: JsonNode</text><polygon fill="none" points="511,444.4863,515,448.4863,511,452.4863,507,448.4863" style="stroke:#B38D22;stroke-width:1.0;"/><text fill="#000000" font-family="sans-serif" font-size="14" lengthAdjust="spacing" textLength="162" x="520" y="453.2773">mergedNode: JsonNode</text><line style="stroke:#181818;stroke-width:0.5;" x1="501" x2="713" y1="460.2305" y2="460.2305"/></g></a><!--class Serializable--><a href="https://docs.oracle.com/en/java/javase/11/docs/api/java.base/java/io/Serializable.html?is-external=true" target="_top" title="https://docs.oracle.com/en/java/javase/11/docs/api/java.base/java/io/Serializable.html?is-external=true" xlink:actuate="onRequest" xlink:href="https://docs.oracle.com/en/java/javase/11/docs/api/java.base/java/io/Serializable.html?is-external=true" xlink:show="new" xlink:title="https://docs.oracle.com/en/java/javase/11/docs/api/java.base/java/io/Serializable.html?is-external=true" xlink:type="simple"><g id="elem_Serializable"><rect codeLine="79" fill="#F1F1F1" height="48" id="Serializable" rx="2.5" ry="2.5" style="stroke:#181818;stroke-width:0.5;" width="111" x="1072.5" y="230.62"/><ellipse cx="1087.5" cy="246.62" fill="#B4A7E5" rx="11" ry="11" style="stroke:#181818;stroke-width:1.0;"/><path d="M1083.9277,242.8851 L1083.9277,240.7269 L1091.3071,240.7269 L1091.3071,242.8851 L1088.8418,242.8851 L1088.8418,250.9618 L1091.3071,250.9618 L1091.3071,253.12 L1083.9277,253.12 L1083.9277,250.9618 L1086.3931,250.9618 L1086.3931,242.8851 Z " fill="#000000"/><text fill="#000000" font-family="sans-serif" font-size="14" font-style="italic" lengthAdjust="spacing" textLength="79" x="1101.5" y="251.911">Serializable</text><line style="stroke:#181818;stroke-width:0.5;" x1="1073.5" x2="1182.5" y1="262.62" y2="262.62"/><line style="stroke:#181818;stroke-width:0.5;" x1="1073.5" x2="1182.5" y1="270.62" y2="270.62"/></g></a><!--reverse link RouterConfig to QueueConfig--><g id="link_RouterConfig_QueueConfig"><path codeLine="82" d="M310.8645,337.5387 C292.5945,424.8787 263.81,562.51 245.51,650.01 " fill="none" id="RouterConfig-backto-QueueConfig" style="stroke:#181818;stroke-width:1.0;"/><polygon fill="none" points="314.55,319.92,304.9916,336.3101,316.7374,338.7672,314.55,319.92" style="stroke:#181818;stroke-width:1.0;"/></g><!--reverse link SettingsManager to QueueSettingsManager--><g id="link_SettingsManager_QueueSettingsManager"><path codeLine="83" d="M655.7423,486.2709 C672.3323,564.7609 685.74,628.23 695.61,674.91 " fill="none" id="SettingsManager-backto-QueueSettingsManager" style="stroke:#181818;stroke-width:1.0;"/><polygon fill="none" points="652.02,468.66,649.872,487.5117,661.6126,485.0301,652.02,468.66" style="stroke:#181818;stroke-width:1.0;"/></g><!--reverse link QueueConfig to QueueConfigSample--><g id="link_QueueConfig_QueueConfigSample"><path codeLine="84" d="M232,799.15 C232,853.47 232,910.11 232,947.57 " fill="none" id="QueueConfig-backto-QueueConfigSample" style="stroke:#181818;stroke-width:1.0;"/><polygon fill="none" points="232,781.15,226,799.15,238,799.15,232,781.15" style="stroke:#181818;stroke-width:1.0;"/></g><!--reverse link Serializable to QueueAttributes--><g id="link_Serializable_QueueAttributes"><path codeLine="85" d="M1128,297.01 C1128,345.56 1128,443.07 1128,542.95 " fill="none" id="Serializable-backto-QueueAttributes" style="stroke:#181818;stroke-width:1.0;stroke-dasharray:7.0,7.0;"/><polygon fill="none" points="1128,279.01,1122,297.01,1134,297.01,1128,279.01" style="stroke:#181818;stroke-width:1.0;"/></g><text fill="#888888" font-family="sans-serif" font-size="10" lengthAdjust="spacing" textLength="176" x="561" y="1027.688">UMLDoclet 2.1.2, PlantUML 1.2024.3</text><!--SRC=[lLVlRzCy4FxENs7f5LAdhOd6nwY0W86qLniColY2-E0crzJCiVFQJdaPx7_dRAVvOP9q1KIbjSdTSy-TxtndZn12D1ZyAwcYHYgI90yUe92KDBsXEH2fycWhLKbvjE8qWqY3sh8KTFHV1HL4gHHhbfDltif-Kawr9c-jzeLNVlpOUOisfk2VFg45wNo-QKCDI-_87FaPvHz0QIR5zVbPGhWKUGzyx5phX5pISh4qYedyn3jyPl1jLHdGJ_eMEHW7qBEZGynqOpPbWvIT1VOPQ9OvtMp4UCJsRZ2VIp06IVGb5LWRjKji81xEyF4GTBPavH8Boi5W00R-Do-t8Cn9DwQZFWqJp621s2tCkg24R2NBziJliKjQb1pwkyBBwiW7RTkKxInRoP_OKoLYP9QGSqm3PgQlnDw0CHMcywn2059FGAwcwAaGiX8f59ZxXFYTCb2yTi6pesbrkCb-QWOVZcs6mO1qWwZLkstQSlv4-GvpD4Nez0VGDKcR96rHXr7lIhQFlC7Td_vPfvgMVgYUEe1vp0HvtL1tUwRpMj42laXrqmxcVY-zaqYhci6yCQRKIHnx4W4cofdPLAk8oTWnrfgvUvbpjb9KVPqtRcACe8RK-5Rb8uYx7bsZFcLwZfC6bA3yiL4L_6RdQk2Gujc51y854pUGNJ1j5ijQ6apqWfPzt7j5XUQknZWLom1USYeEW6UmfXKtRia9wM0xTUpN8nZ8Y_TF_avLXiwC_ONvHxivZKlhYzDAAJUx0hbSVSOYl4RV2NdJF0UKUFw0mbFvEL2nT2zz09Qij01FSEdU0lUStjucv8NDA6OmY87jJCy5xYlikD2_pqJIr2AaQBPZ7QjVpq1Rjy2KLzfC81rJU-gEup9PK2QkgDaan7w72tTknjG-t55jke62ZcfTfKUqpKAFDIjVKTjdNp7-vdaSV6qOTyWbQDlJsWh6uHSopstj_UzGQbxB35FthvRkQJ0zKv2weXE80bGEsGZYRcWgVwPRYgtQwHs6LLPhcWBkCULkJtJbha2xJizagYEfQChjbRg8GSIMnNrfY4zF7IAc9NEYQ6Mb3e4ZeSivriZTEFUU6adIEoOMt-VpU_uZa2JXRVOUpi9hxU7-0ePXn_i3_kML-kkhSriNtwwgK-d5zoWwZ3Yu0wHWjn1PIsb_hYylpYJk5KCUHQVHenDoXUUKGIbvkFLdvUpe1m00]--></g></svg>