<?xml version="1.0" encoding="us-ascii" standalone="no"?><svg xmlns="http://www.w3.org/2000/svg" xmlns:xlink="http://www.w3.org/1999/xlink" contentStyleType="text/css" height="168px" preserveAspectRatio="none" style="width:233px;height:168px;background:#FFFFFF;" version="1.1" viewBox="0 0 233 168" width="233px" zoomAndPan="magnify"><defs/><g><!--class org.vorpal.blade.services.queue.config.QueueConfigSample--><a href="QueueConfigSample.html" target="_top" title="QueueConfigSample.html" xlink:actuate="onRequest" xlink:href="QueueConfigSample.html" xlink:show="new" xlink:title="QueueConfigSample.html" xlink:type="simple"><g id="elem_org.vorpal.blade.services.queue.config.QueueConfigSample"><rect codeLine="5" fill="#F1F1F1" height="38.2656" id="org.vorpal.blade.services.queue.config.QueueConfigSample" rx="2.5" ry="2.5" style="stroke:#181818;stroke-width:0.5;" width="219" x="7" y="105.26"/><ellipse cx="22" cy="124.3928" fill="#ADD1B2" rx="11" ry="11" style="stroke:#181818;stroke-width:1.0;"/><path d="M24.4731,130.5359 Q23.8921,130.8347 23.2529,130.9841 Q22.6138,131.1335 21.9082,131.1335 Q19.4014,131.1335 18.0815,129.4817 Q16.7617,127.8298 16.7617,124.7087 Q16.7617,121.5793 18.0815,119.9275 Q19.4014,118.2756 21.9082,118.2756 Q22.6138,118.2756 23.2612,118.425 Q23.9087,118.5745 24.4731,118.8733 L24.4731,121.5959 Q23.8423,121.0149 23.2488,120.7451 Q22.6553,120.4753 22.0244,120.4753 Q20.6797,120.4753 19.9949,121.542 Q19.3101,122.6086 19.3101,124.7087 Q19.3101,126.8005 19.9949,127.8672 Q20.6797,128.9338 22.0244,128.9338 Q22.6553,128.9338 23.2488,128.6641 Q23.8423,128.3943 24.4731,127.8132 Z " fill="#000000"/><text fill="#000000" font-family="sans-serif" font-size="14" lengthAdjust="spacing" textLength="141" x="59" y="123.7952">QueueConfigSample</text><text fill="#000000" font-family="sans-serif" font-size="10" lengthAdjust="spacing" textLength="187" x="36" y="136.4163">org.vorpal.blade.services.queue.config</text></g></a><!--class org.vorpal.blade.services.queue.config.QueueConfig--><a href="QueueConfig.html" target="_top" title="QueueConfig.html" xlink:actuate="onRequest" xlink:href="QueueConfig.html" xlink:show="new" xlink:title="QueueConfig.html" xlink:type="simple"><g id="elem_org.vorpal.blade.services.queue.config.QueueConfig"><rect codeLine="7" fill="#F1F1F1" height="38.2656" id="org.vorpal.blade.services.queue.config.QueueConfig" rx="2.5" ry="2.5" style="stroke:#181818;stroke-width:0.5;" width="219" x="7" y="7"/><ellipse cx="22" cy="26.1328" fill="#ADD1B2" rx="11" ry="11" style="stroke:#181818;stroke-width:1.0;"/><path d="M24.4731,32.2759 Q23.8921,32.5747 23.2529,32.7241 Q22.6138,32.8735 21.9082,32.8735 Q19.4014,32.8735 18.0815,31.2217 Q16.7617,29.5698 16.7617,26.4487 Q16.7617,23.3193 18.0815,21.6675 Q19.4014,20.0156 21.9082,20.0156 Q22.6138,20.0156 23.2612,20.165 Q23.9087,20.3145 24.4731,20.6133 L24.4731,23.3359 Q23.8423,22.7549 23.2488,22.4851 Q22.6553,22.2153 22.0244,22.2153 Q20.6797,22.2153 19.9949,23.282 Q19.3101,24.3486 19.3101,26.4487 Q19.3101,28.5405 19.9949,29.6072 Q20.6797,30.6738 22.0244,30.6738 Q22.6553,30.6738 23.2488,30.4041 Q23.8423,30.1343 24.4731,29.5532 Z " fill="#000000"/><text fill="#000000" font-family="sans-serif" font-size="14" lengthAdjust="spacing" textLength="91" x="84" y="25.5352">QueueConfig</text><text fill="#000000" font-family="sans-serif" font-size="10" lengthAdjust="spacing" textLength="187" x="36" y="38.1563">org.vorpal.blade.services.queue.config</text></g></a><!--reverse link org.vorpal.blade.services.queue.config.QueueConfig to org.vorpal.blade.services.queue.config.QueueConfigSample--><g id="link_org.vorpal.blade.services.queue.config.QueueConfig_org.vorpal.blade.services.queue.config.QueueConfigSample"><path codeLine="9" d="M116.5,63.69 C116.5,80.74 116.5,87.86 116.5,104.89 " fill="none" id="org.vorpal.blade.services.queue.config.QueueConfig-backto-org.vorpal.blade.services.queue.config.QueueConfigSample" style="stroke:#181818;stroke-width:1.0;"/><polygon fill="none" points="116.5,45.69,110.5,63.69,122.5,63.69,116.5,45.69" style="stroke:#181818;stroke-width:1.0;"/></g><text fill="#888888" font-family="sans-serif" font-size="10" lengthAdjust="spacing" textLength="176" x="21.5" y="158.1936">UMLDoclet 2.1.2, PlantUML 1.2024.3</text><!--SRC=[lP91ImD138Nl_efG41HiiCMJb5xqgA0KJxM7EFksEp0p6IVJ1SKVxxPwgJqeFNWAVCbB7eyG4Hag9OcmB0uBP2bIjL3IX9EXJPrlG8Yvlb7h4HhxIIDgfmFUSHV4Z4Opy- -udbpD7pVOu4PJwzSBYJdWENttBkTQrjnhoHBu9KW3DfJUEnY_RbNiTh8HYT7VHldW6YsN1uox6iDgzQlV_tAwxt7FtH7BPX_ZyT5nVKM2L56eLTsMf_kxMtLXU98fJtXwGGz1KXqedVOevZMTdNy2]--></g></svg>