<?xml version="1.0" encoding="us-ascii" standalone="no"?><svg xmlns="http://www.w3.org/2000/svg" xmlns:xlink="http://www.w3.org/1999/xlink" contentStyleType="text/css" height="482px" preserveAspectRatio="none" style="width:337px;height:482px;background:#FFFFFF;" version="1.1" viewBox="0 0 337 482" width="337px" zoomAndPan="magnify"><defs/><g><!--class org.vorpal.blade.services.queue.config.QueueAttributes--><a href="QueueAttributes.html" target="_top" title="QueueAttributes.html" xlink:actuate="onRequest" xlink:href="QueueAttributes.html" xlink:show="new" xlink:title="QueueAttributes.html" xlink:type="simple"><g id="elem_org.vorpal.blade.services.queue.config.QueueAttributes"><rect codeLine="5" fill="#F1F1F1" height="351.0547" id="org.vorpal.blade.services.queue.config.QueueAttributes" rx="2.5" ry="2.5" style="stroke:#181818;stroke-width:0.5;" width="323" x="7" y="105.27"/><ellipse cx="70.75" cy="124.4028" fill="#ADD1B2" rx="11" ry="11" style="stroke:#181818;stroke-width:1.0;"/><path d="M73.2231,130.5459 Q72.6421,130.8447 72.0029,130.9941 Q71.3638,131.1435 70.6582,131.1435 Q68.1514,131.1435 66.8315,129.4917 Q65.5117,127.8398 65.5117,124.7187 Q65.5117,121.5893 66.8315,119.9375 Q68.1514,118.2856 70.6582,118.2856 Q71.3638,118.2856 72.0112,118.435 Q72.6587,118.5845 73.2231,118.8833 L73.2231,121.6059 Q72.5923,121.0249 71.9988,120.7551 Q71.4053,120.4853 70.7744,120.4853 Q69.4297,120.4853 68.7449,121.552 Q68.0601,122.6186 68.0601,124.7187 Q68.0601,126.8105 68.7449,127.8772 Q69.4297,128.9438 70.7744,128.9438 Q71.4053,128.9438 71.9988,128.6741 Q72.5923,128.4043 73.2231,127.8232 Z " fill="#000000"/><text fill="#000000" font-family="sans-serif" font-size="14" lengthAdjust="spacing" textLength="113" x="128.25" y="123.8052">QueueAttributes</text><text fill="#000000" font-family="sans-serif" font-size="10" lengthAdjust="spacing" textLength="187" x="91.25" y="136.4262">org.vorpal.blade.services.queue.config</text><line style="stroke:#181818;stroke-width:0.5;" x1="8" x2="329" y1="143.5356" y2="143.5356"/><rect fill="none" height="6" style="stroke:#C82930;stroke-width:1.0;" width="6" x="15" y="154.2798"/><text fill="#000000" font-family="sans-serif" font-size="14" lengthAdjust="spacing" text-decoration="underline" textLength="152" x="27" y="161.0708">serialVersionUID: long</text><ellipse cx="18" cy="173.768" fill="none" rx="3" ry="3" style="stroke:#038048;stroke-width:1.0;"/><text fill="#000000" font-family="sans-serif" font-size="14" lengthAdjust="spacing" textLength="102" x="27" y="177.5591">period: Integer</text><ellipse cx="18" cy="190.2563" fill="none" rx="3" ry="3" style="stroke:#038048;stroke-width:1.0;"/><text fill="#000000" font-family="sans-serif" font-size="14" lengthAdjust="spacing" textLength="84" x="27" y="194.0473">rate: Integer</text><ellipse cx="18" cy="206.7446" fill="none" rx="3" ry="3" style="stroke:#038048;stroke-width:1.0;"/><text fill="#000000" font-family="sans-serif" font-size="14" lengthAdjust="spacing" textLength="145" x="27" y="210.5356">ringDuration: Integer</text><ellipse cx="18" cy="223.2329" fill="none" rx="3" ry="3" style="stroke:#038048;stroke-width:1.0;"/><text fill="#000000" font-family="sans-serif" font-size="14" lengthAdjust="spacing" textLength="129" x="27" y="227.0239">ringPeriod: Integer</text><ellipse cx="18" cy="239.7212" fill="none" rx="3" ry="3" style="stroke:#038048;stroke-width:1.0;"/><text fill="#000000" font-family="sans-serif" font-size="14" lengthAdjust="spacing" textLength="152" x="27" y="243.5122">announcement: String</text><line style="stroke:#181818;stroke-width:0.5;" x1="8" x2="329" y1="250.4653" y2="250.4653"/><ellipse cx="18" cy="264.2095" fill="#84BE84" rx="3" ry="3" style="stroke:#038048;stroke-width:1.0;"/><text fill="#000000" font-family="sans-serif" font-size="14" lengthAdjust="spacing" textLength="123" x="27" y="268.0005">QueueAttributes()</text><ellipse cx="18" cy="280.6977" fill="#84BE84" rx="3" ry="3" style="stroke:#038048;stroke-width:1.0;"/><text fill="#000000" font-family="sans-serif" font-size="14" lengthAdjust="spacing" textLength="236" x="27" y="284.4888">QueueAttributes(QueueAttributes)</text><ellipse cx="18" cy="297.186" fill="#84BE84" rx="3" ry="3" style="stroke:#038048;stroke-width:1.0;"/><text fill="#000000" font-family="sans-serif" font-size="14" lengthAdjust="spacing" textLength="133" x="27" y="300.977">getPeriod(): Integer</text><ellipse cx="18" cy="313.6743" fill="#84BE84" rx="3" ry="3" style="stroke:#038048;stroke-width:1.0;"/><text fill="#000000" font-family="sans-serif" font-size="14" lengthAdjust="spacing" textLength="244" x="27" y="317.4653">setPeriod(Integer): QueueAttributes</text><ellipse cx="18" cy="330.1626" fill="#84BE84" rx="3" ry="3" style="stroke:#038048;stroke-width:1.0;"/><text fill="#000000" font-family="sans-serif" font-size="14" lengthAdjust="spacing" textLength="119" x="27" y="333.9536">getRate(): Integer</text><ellipse cx="18" cy="346.6509" fill="#84BE84" rx="3" ry="3" style="stroke:#038048;stroke-width:1.0;"/><text fill="#000000" font-family="sans-serif" font-size="14" lengthAdjust="spacing" textLength="230" x="27" y="350.4419">setRate(Integer): QueueAttributes</text><ellipse cx="18" cy="363.1391" fill="#84BE84" rx="3" ry="3" style="stroke:#038048;stroke-width:1.0;"/><text fill="#000000" font-family="sans-serif" font-size="14" lengthAdjust="spacing" textLength="164" x="27" y="366.9302">getRingPeriod(): Integer</text><ellipse cx="18" cy="379.6274" fill="#84BE84" rx="3" ry="3" style="stroke:#038048;stroke-width:1.0;"/><text fill="#000000" font-family="sans-serif" font-size="14" lengthAdjust="spacing" textLength="275" x="27" y="383.4184">setRingPeriod(Integer): QueueAttributes</text><ellipse cx="18" cy="396.1157" fill="#84BE84" rx="3" ry="3" style="stroke:#038048;stroke-width:1.0;"/><text fill="#000000" font-family="sans-serif" font-size="14" lengthAdjust="spacing" textLength="180" x="27" y="399.9067">getRingDuration(): Integer</text><ellipse cx="18" cy="412.604" fill="#84BE84" rx="3" ry="3" style="stroke:#038048;stroke-width:1.0;"/><text fill="#000000" font-family="sans-serif" font-size="14" lengthAdjust="spacing" textLength="291" x="27" y="416.395">setRingDuration(Integer): QueueAttributes</text><ellipse cx="18" cy="429.0923" fill="#84BE84" rx="3" ry="3" style="stroke:#038048;stroke-width:1.0;"/><text fill="#000000" font-family="sans-serif" font-size="14" lengthAdjust="spacing" textLength="186" x="27" y="432.8833">getAnnouncement(): String</text><ellipse cx="18" cy="445.5805" fill="#84BE84" rx="3" ry="3" style="stroke:#038048;stroke-width:1.0;"/><text fill="#000000" font-family="sans-serif" font-size="14" lengthAdjust="spacing" textLength="297" x="27" y="449.3716">setAnnouncement(String): QueueAttributes</text></g></a><!--class java.io.Serializable--><a href="https://docs.oracle.com/en/java/javase/11/docs/api/java.base/java/io/Serializable.html?is-external=true" target="_top" title="https://docs.oracle.com/en/java/javase/11/docs/api/java.base/java/io/Serializable.html?is-external=true" xlink:actuate="onRequest" xlink:href="https://docs.oracle.com/en/java/javase/11/docs/api/java.base/java/io/Serializable.html?is-external=true" xlink:show="new" xlink:title="https://docs.oracle.com/en/java/javase/11/docs/api/java.base/java/io/Serializable.html?is-external=true" xlink:type="simple"><g id="elem_java.io.Serializable"><rect codeLine="26" fill="#F1F1F1" height="38.2656" id="java.io.Serializable" rx="2.5" ry="2.5" style="stroke:#181818;stroke-width:0.5;" width="111" x="113" y="7"/><ellipse cx="128" cy="26.1328" fill="#B4A7E5" rx="11" ry="11" style="stroke:#181818;stroke-width:1.0;"/><path d="M124.4277,22.3979 L124.4277,20.2397 L131.8071,20.2397 L131.8071,22.3979 L129.3418,22.3979 L129.3418,30.4746 L131.8071,30.4746 L131.8071,32.6328 L124.4277,32.6328 L124.4277,30.4746 L126.8931,30.4746 L126.8931,22.3979 Z " fill="#000000"/><text fill="#000000" font-family="sans-serif" font-size="14" font-style="italic" lengthAdjust="spacing" textLength="79" x="142" y="25.5352">Serializable</text><text fill="#000000" font-family="sans-serif" font-size="10" font-style="italic" lengthAdjust="spacing" textLength="32" x="165.5" y="38.1563">java.io</text></g></a><!--reverse link java.io.Serializable to org.vorpal.blade.services.queue.config.QueueAttributes--><g id="link_java.io.Serializable_org.vorpal.blade.services.queue.config.QueueAttributes"><path codeLine="28" d="M168.5,63.71 C168.5,77.9 168.5,81.03 168.5,104.88 " fill="none" id="java.io.Serializable-backto-org.vorpal.blade.services.queue.config.QueueAttributes" style="stroke:#181818;stroke-width:1.0;stroke-dasharray:7.0,7.0;"/><polygon fill="none" points="168.5,45.71,162.5,63.71,174.5,63.71,168.5,45.71" style="stroke:#181818;stroke-width:1.0;"/></g><text fill="#888888" font-family="sans-serif" font-size="10" lengthAdjust="spacing" textLength="176" x="73.5" y="471.9927">UMLDoclet 2.1.2, PlantUML 1.2024.3</text><!--SRC=[dLHTRzCm57tdLrnDGce5S-Z4KxGDJUhB9906rNWPVRXDRbCZnmw-DnLixBzZEwKDKJDLv24VvnmVNr_x1020IS1YJTnWGGjgqACu3zPPUXLesEYIWEf6Vi5QaobvYDOa6nVWX1S6cU7ialKZvRFtrvzRQkb6nEjLAyJVx8vvT-ryfRREDsZKoc19YiblTK6iViGngd1shQipG8RJf6em5pmy312raTeib_2KIetN4mkABfxXF5XgD5_9itRs_dQUWt6ssWlVD85tPGwtLgWYVo12k-WOh6qrRmCPx4Rekp5BjDQrjg2QhEIma2W-i8D5JQRZrE2xfwn8kkadqoC5y9xTKK4qyFh7walemPXHuawqsJTbrEoWEDtoxpQyPBhNd6PxqzkXQ3lS8nv8Edx4zBcBZWup-tK8OIy-YtGgzIEk3FMoynstgBHBuTYzgxuq7FsDICDvbfMkOEKy5YRcfCx8Pd54kZ5birbIPDZe1AbLH9D2kwplcSBpGVCv_GnrMZHNubjQBhlYZrPn-Lkf_mnlzpEXs19OEnSVzvy-pbrOXi25cgcBjt1dq4f0uVMsY-ra-WS0]--></g></svg>