<?xml version="1.0" encoding="us-ascii" standalone="no"?><svg xmlns="http://www.w3.org/2000/svg" xmlns:xlink="http://www.w3.org/1999/xlink" contentStyleType="text/css" height="292px" preserveAspectRatio="none" style="width:221px;height:292px;background:#FFFFFF;" version="1.1" viewBox="0 0 221 292" width="221px" zoomAndPan="magnify"><defs/><g><!--class org.vorpal.blade.framework.logging.LogFormatter--><a href="LogFormatter.html" target="_top" title="LogFormatter.html" xlink:actuate="onRequest" xlink:href="LogFormatter.html" xlink:show="new" xlink:title="LogFormatter.html" xlink:type="simple"><g id="elem_org.vorpal.blade.framework.logging.LogFormatter"><rect codeLine="5" fill="#F1F1F1" height="136.707" id="org.vorpal.blade.framework.logging.LogFormatter" rx="2.5" ry="2.5" style="stroke:#181818;stroke-width:0.5;" width="207" x="7" y="129.75"/><ellipse cx="22.45" cy="148.8828" fill="#ADD1B2" rx="11" ry="11" style="stroke:#181818;stroke-width:1.0;"/><path d="M24.9231,155.0259 Q24.3421,155.3247 23.7029,155.4741 Q23.0638,155.6235 22.3582,155.6235 Q19.8514,155.6235 18.5315,153.9717 Q17.2117,152.3198 17.2117,149.1987 Q17.2117,146.0693 18.5315,144.4175 Q19.8514,142.7656 22.3582,142.7656 Q23.0638,142.7656 23.7112,142.915 Q24.3587,143.0645 24.9231,143.3633 L24.9231,146.0859 Q24.2923,145.5049 23.6988,145.2351 Q23.1053,144.9653 22.4744,144.9653 Q21.1297,144.9653 20.4449,146.032 Q19.7601,147.0986 19.7601,149.1987 Q19.7601,151.2905 20.4449,152.3572 Q21.1297,153.4238 22.4744,153.4238 Q23.1053,153.4238 23.6988,153.1541 Q24.2923,152.8843 24.9231,152.3032 Z " fill="#000000"/><text fill="#000000" font-family="sans-serif" font-size="14" lengthAdjust="spacing" textLength="93" x="77.05" y="148.2852">LogFormatter</text><text fill="#000000" font-family="sans-serif" font-size="10" lengthAdjust="spacing" textLength="174" x="36.55" y="160.9062">org.vorpal.blade.framework.logging</text><line style="stroke:#181818;stroke-width:0.5;" x1="8" x2="213" y1="168.0156" y2="168.0156"/><rect fill="none" height="6" style="stroke:#C82930;stroke-width:1.0;" width="6" x="15" y="178.7598"/><text fill="#000000" font-family="sans-serif" font-size="14" lengthAdjust="spacing" text-decoration="underline" textLength="167" x="27" y="185.5508">LINE_SEPARATOR: String</text><rect fill="none" height="6" style="stroke:#C82930;stroke-width:1.0;" width="6" x="15" y="195.248"/><text fill="#000000" font-family="sans-serif" font-size="14" lengthAdjust="spacing" text-decoration="underline" textLength="102" x="27" y="202.0391">df: DateFormat</text><line style="stroke:#181818;stroke-width:0.5;" x1="8" x2="213" y1="208.9922" y2="208.9922"/><ellipse cx="18" cy="222.7363" fill="#84BE84" rx="3" ry="3" style="stroke:#038048;stroke-width:1.0;"/><text fill="#000000" font-family="sans-serif" font-size="14" lengthAdjust="spacing" textLength="178" x="27" y="226.5273">format(LogRecord): String</text><rect fill="#F24D5C" height="6" style="stroke:#C82930;stroke-width:1.0;" width="6" x="15" y="236.2246"/><text fill="#000000" font-family="sans-serif" font-size="14" lengthAdjust="spacing" text-decoration="underline" textLength="170" x="27" y="243.0156">padLeft(Level, int): String</text><rect fill="#F24D5C" height="6" style="stroke:#C82930;stroke-width:1.0;" width="6" x="15" y="252.7129"/><text fill="#000000" font-family="sans-serif" font-size="14" lengthAdjust="spacing" text-decoration="underline" textLength="181" x="27" y="259.5039">padRight(Level, int): String</text></g></a><!--class java.util.logging.Formatter--><a href="https://docs.oracle.com/en/java/javase/11/docs/api/java.logging/java/util/logging/Formatter.html?is-external=true" target="_top" title="https://docs.oracle.com/en/java/javase/11/docs/api/java.logging/java/util/logging/Formatter.html?is-external=true" xlink:actuate="onRequest" xlink:href="https://docs.oracle.com/en/java/javase/11/docs/api/java.logging/java/util/logging/Formatter.html?is-external=true" xlink:show="new" xlink:title="https://docs.oracle.com/en/java/javase/11/docs/api/java.logging/java/util/logging/Formatter.html?is-external=true" xlink:type="simple"><g id="elem_java.util.logging.Formatter"><rect codeLine="13" fill="#F1F1F1" height="62.7539" id="java.util.logging.Formatter" rx="2.5" ry="2.5" style="stroke:#181818;stroke-width:0.5;" width="204" x="8.5" y="7"/><ellipse cx="67.25" cy="26.1328" fill="#A9DCDF" rx="11" ry="11" style="stroke:#181818;stroke-width:1.0;"/><path d="M67.1133,21.481 L65.9595,26.5527 L68.2754,26.5527 Z M65.6191,19.2397 L68.6157,19.2397 L71.9609,31.6328 L69.5122,31.6328 L68.7485,28.5698 L65.4697,28.5698 L64.7227,31.6328 L62.2739,31.6328 Z " fill="#000000"/><text fill="#000000" font-family="sans-serif" font-size="14" font-style="italic" lengthAdjust="spacing" textLength="68" x="92.75" y="25.5352">Formatter</text><text fill="#000000" font-family="sans-serif" font-size="10" font-style="italic" lengthAdjust="spacing" textLength="78" x="87.75" y="38.1563">java.util.logging</text><line style="stroke:#181818;stroke-width:0.5;" x1="9.5" x2="211.5" y1="45.2656" y2="45.2656"/><ellipse cx="19.5" cy="59.0098" fill="#84BE84" rx="3" ry="3" style="stroke:#038048;stroke-width:1.0;"/><text fill="#000000" font-family="sans-serif" font-size="14" font-style="italic" lengthAdjust="spacing" textLength="178" x="28.5" y="62.8008">format(LogRecord): String</text></g></a><!--reverse link java.util.logging.Formatter to org.vorpal.blade.framework.logging.LogFormatter--><g id="link_java.util.logging.Formatter_org.vorpal.blade.framework.logging.LogFormatter"><path codeLine="17" d="M110.5,88.16 C110.5,105.11 110.5,108.84 110.5,129.52 " fill="none" id="java.util.logging.Formatter-backto-org.vorpal.blade.framework.logging.LogFormatter" style="stroke:#181818;stroke-width:1.0;"/><polygon fill="none" points="110.5,70.16,104.5,88.16,116.5,88.16,110.5,70.16" style="stroke:#181818;stroke-width:1.0;"/></g><text fill="#888888" font-family="sans-serif" font-size="10" lengthAdjust="spacing" textLength="176" x="15.5" y="282.125">UMLDoclet 2.1.2, PlantUML 1.2024.3</text><!--SRC=[bLBRIWCn47ttAmP1g6YpLdmgNX2i8DGBhJvfaN5tTZUQpIp9MA_zTxFRLbghBUOXOKxEd9av2G209m6B1VaIO-fJYGw57LYsj1Qk8TS90HMbl46goIJ-9rgGv1pW6eyDUW_h-rw_KxkrTzZbx9HTWIBaxkm4tZbabwaXknADUZ2Oa4fTQE65tPCod6NQPkk07bRJr6m1kBsT3LKkXHaCuAFkh5eVNb1qF89cz-oYSz_lN1ttZgylUsteYmjgln2Jj0qdA3HM_IPifNNS2FLw5BDBDfTeb9XqAGra6fBP1crb1Rkdi_nl-cXiDJvuSHZBWkU_6Vw8GrJFeisSlmkeclKo5obzEueIZhtYKCgGYhc8o4PLOhrvYbgjcX5XgMjegZKcLUhH59b_cYFjc_GQ8elcGDmppR_LTBxHAhCdVYmRPl-psVplRnh_Px9LVifS7JVdtHCEDWZigfRQtOOhWrO22Xj3SbwpRMn-0G00]--></g></svg>