<?xml version="1.0" encoding="us-ascii" standalone="no"?><svg xmlns="http://www.w3.org/2000/svg" xmlns:xlink="http://www.w3.org/1999/xlink" contentStyleType="text/css" height="1189px" preserveAspectRatio="none" style="width:665px;height:1189px;background:#FFFFFF;" version="1.1" viewBox="0 0 665 1189" width="665px" zoomAndPan="magnify"><defs/><g><!--class org.vorpal.blade.framework.logging.Logger--><a href="Logger.html" target="_top" title="Logger.html" xlink:actuate="onRequest" xlink:href="Logger.html" xlink:show="new" xlink:title="Logger.html" xlink:type="simple"><g id="elem_org.vorpal.blade.framework.logging.Logger"><rect codeLine="5" fill="#F1F1F1" height="961.1211" id="org.vorpal.blade.framework.logging.Logger" rx="2.5" ry="2.5" style="stroke:#181818;stroke-width:0.5;" width="649" x="9" y="105.26"/><ellipse cx="242.25" cy="124.3928" fill="#ADD1B2" rx="11" ry="11" style="stroke:#181818;stroke-width:1.0;"/><path d="M244.7231,130.5359 Q244.1421,130.8347 243.5029,130.9841 Q242.8638,131.1335 242.1582,131.1335 Q239.6514,131.1335 238.3315,129.4817 Q237.0117,127.8298 237.0117,124.7087 Q237.0117,121.5793 238.3315,119.9275 Q239.6514,118.2756 242.1582,118.2756 Q242.8638,118.2756 243.5112,118.425 Q244.1587,118.5745 244.7231,118.8733 L244.7231,121.5959 Q244.0923,121.0149 243.4988,120.7451 Q242.9053,120.4753 242.2744,120.4753 Q240.9297,120.4753 240.2449,121.542 Q239.5601,122.6086 239.5601,124.7087 Q239.5601,126.8005 240.2449,127.8672 Q240.9297,128.9338 242.2744,128.9338 Q242.9053,128.9338 243.4988,128.6641 Q244.0923,128.3943 244.7231,127.8132 Z " fill="#000000"/><text fill="#000000" font-family="sans-serif" font-size="14" lengthAdjust="spacing" textLength="48" x="325.75" y="123.7952">Logger</text><text fill="#000000" font-family="sans-serif" font-size="10" lengthAdjust="spacing" textLength="174" x="262.75" y="136.4163">org.vorpal.blade.framework.logging</text><line style="stroke:#181818;stroke-width:0.5;" x1="10" x2="657" y1="143.5256" y2="143.5256"/><rect fill="none" height="6" style="stroke:#C82930;stroke-width:1.0;" width="6" x="17" y="154.2698"/><text fill="#000000" font-family="sans-serif" font-size="14" lengthAdjust="spacing" text-decoration="underline" textLength="152" x="29" y="161.0608">serialVersionUID: long</text><rect fill="none" height="6" style="stroke:#C82930;stroke-width:1.0;" width="6" x="17" y="170.758"/><text fill="#000000" font-family="sans-serif" font-size="14" lengthAdjust="spacing" textLength="255" x="29" y="177.5491">sequenceDiagramLoggingLevel: Level</text><rect fill="none" height="6" style="stroke:#C82930;stroke-width:1.0;" width="6" x="17" y="187.2463"/><text fill="#000000" font-family="sans-serif" font-size="14" lengthAdjust="spacing" textLength="225" x="29" y="194.0373">configurationLoggingLevel: Level</text><rect fill="none" height="6" style="stroke:#C82930;stroke-width:1.0;" width="6" x="17" y="203.7346"/><text fill="#000000" font-family="sans-serif" font-size="14" lengthAdjust="spacing" text-decoration="underline" textLength="102" x="29" y="210.5256">NOSESS: String</text><line style="stroke:#181818;stroke-width:0.5;" x1="10" x2="657" y1="217.4788" y2="217.4788"/><polygon fill="#FFFF44" points="20,226.2229,24,230.2229,20,234.2229,16,230.2229" style="stroke:#B38D22;stroke-width:1.0;"/><text fill="#000000" font-family="sans-serif" font-size="14" lengthAdjust="spacing" textLength="148" x="29" y="235.0139">Logger(String, String)</text><ellipse cx="20" cy="247.7112" fill="#84BE84" rx="3" ry="3" style="stroke:#038048;stroke-width:1.0;"/><text fill="#000000" font-family="sans-serif" font-size="14" lengthAdjust="spacing" textLength="108" x="29" y="251.5022">getLevel(): Level</text><ellipse cx="20" cy="264.1995" fill="#84BE84" rx="3" ry="3" style="stroke:#038048;stroke-width:1.0;"/><text fill="#000000" font-family="sans-serif" font-size="14" lengthAdjust="spacing" textLength="288" x="29" y="267.9905">getSequenceDiagramLoggingLevel(): Level</text><ellipse cx="20" cy="280.6877" fill="#84BE84" rx="3" ry="3" style="stroke:#038048;stroke-width:1.0;"/><text fill="#000000" font-family="sans-serif" font-size="14" lengthAdjust="spacing" textLength="315" x="29" y="284.4788">setSequenceDiagramLoggingLevel(Level): void</text><ellipse cx="20" cy="297.176" fill="#84BE84" rx="3" ry="3" style="stroke:#038048;stroke-width:1.0;"/><text fill="#000000" font-family="sans-serif" font-size="14" lengthAdjust="spacing" textLength="260" x="29" y="300.967">getConfigurationLoggingLevel(): Level</text><ellipse cx="20" cy="313.6643" fill="#84BE84" rx="3" ry="3" style="stroke:#038048;stroke-width:1.0;"/><text fill="#000000" font-family="sans-serif" font-size="14" lengthAdjust="spacing" textLength="287" x="29" y="317.4553">setConfigurationLoggingLevel(Level): void</text><ellipse cx="20" cy="330.1526" fill="#84BE84" rx="3" ry="3" style="stroke:#038048;stroke-width:1.0;"/><text fill="#000000" font-family="sans-serif" font-size="14" lengthAdjust="spacing" textLength="132" x="29" y="333.9436">severe(String): void</text><ellipse cx="20" cy="346.6409" fill="#84BE84" rx="3" ry="3" style="stroke:#038048;stroke-width:1.0;"/><text fill="#000000" font-family="sans-serif" font-size="14" lengthAdjust="spacing" textLength="144" x="29" y="350.4319">warning(String): void</text><ellipse cx="20" cy="363.1291" fill="#84BE84" rx="3" ry="3" style="stroke:#038048;stroke-width:1.0;"/><text fill="#000000" font-family="sans-serif" font-size="14" lengthAdjust="spacing" textLength="114" x="29" y="366.9202">fine(String): void</text><ellipse cx="20" cy="379.6174" fill="#84BE84" rx="3" ry="3" style="stroke:#038048;stroke-width:1.0;"/><text fill="#000000" font-family="sans-serif" font-size="14" lengthAdjust="spacing" textLength="120" x="29" y="383.4084">finer(String): void</text><ellipse cx="20" cy="396.1057" fill="#84BE84" rx="3" ry="3" style="stroke:#038048;stroke-width:1.0;"/><text fill="#000000" font-family="sans-serif" font-size="14" lengthAdjust="spacing" textLength="126" x="29" y="399.8967">finest(String): void</text><ellipse cx="20" cy="412.594" fill="#84BE84" rx="3" ry="3" style="stroke:#038048;stroke-width:1.0;"/><text fill="#000000" font-family="sans-serif" font-size="14" lengthAdjust="spacing" textLength="115" x="29" y="416.385">info(String): void</text><ellipse cx="20" cy="429.0823" fill="#84BE84" rx="3" ry="3" style="stroke:#038048;stroke-width:1.0;"/><text fill="#000000" font-family="sans-serif" font-size="14" lengthAdjust="spacing" textLength="370" x="29" y="432.8733">logStackTrace(SipApplicationSession, Exception): void</text><ellipse cx="20" cy="445.5705" fill="#84BE84" rx="3" ry="3" style="stroke:#038048;stroke-width:1.0;"/><text fill="#000000" font-family="sans-serif" font-size="14" lengthAdjust="spacing" textLength="292" x="29" y="449.3616">logStackTrace(SipSession, Exception): void</text><ellipse cx="20" cy="462.0588" fill="#84BE84" rx="3" ry="3" style="stroke:#038048;stroke-width:1.0;"/><text fill="#000000" font-family="sans-serif" font-size="14" lengthAdjust="spacing" textLength="345" x="29" y="465.8498">logStackTrace(SipServletMessage, Exception): void</text><ellipse cx="20" cy="478.5471" fill="#84BE84" rx="3" ry="3" style="stroke:#038048;stroke-width:1.0;"/><text fill="#000000" font-family="sans-serif" font-size="14" lengthAdjust="spacing" textLength="211" x="29" y="482.3381">logStackTrace(Exception): void</text><ellipse cx="20" cy="495.0354" fill="#84BE84" rx="3" ry="3" style="stroke:#038048;stroke-width:1.0;"/><text fill="#000000" font-family="sans-serif" font-size="14" lengthAdjust="spacing" textLength="209" x="29" y="498.8264">logConfiguration(Object): void</text><ellipse cx="20" cy="511.5237" fill="#84BE84" rx="3" ry="3" style="stroke:#038048;stroke-width:1.0;"/><text fill="#000000" font-family="sans-serif" font-size="14" lengthAdjust="spacing" textLength="379" x="29" y="515.3147">logObjectAsJson(SipServletMessage, Level, Object): void</text><ellipse cx="20" cy="528.012" fill="#84BE84" rx="3" ry="3" style="stroke:#038048;stroke-width:1.0;"/><text fill="#000000" font-family="sans-serif" font-size="14" lengthAdjust="spacing" textLength="159" x="29" y="531.803">severe(Exception): void</text><ellipse cx="20" cy="544.5002" fill="#84BE84" rx="3" ry="3" style="stroke:#038048;stroke-width:1.0;"/><text fill="#000000" font-family="sans-serif" font-size="14" lengthAdjust="spacing" textLength="293" x="29" y="548.2913">severe(SipServletMessage, Exception): void</text><ellipse cx="20" cy="560.9885" fill="#84BE84" rx="3" ry="3" style="stroke:#038048;stroke-width:1.0;"/><text fill="#000000" font-family="sans-serif" font-size="14" lengthAdjust="spacing" textLength="197" x="29" y="564.7795">log(Level, ServletTimer): void</text><ellipse cx="20" cy="577.4768" fill="#84BE84" rx="3" ry="3" style="stroke:#038048;stroke-width:1.0;"/><text fill="#000000" font-family="sans-serif" font-size="14" lengthAdjust="spacing" textLength="246" x="29" y="581.2678">log(Level, ServletTimer, String): void</text><ellipse cx="20" cy="593.9651" fill="#84BE84" rx="3" ry="3" style="stroke:#038048;stroke-width:1.0;"/><text fill="#000000" font-family="sans-serif" font-size="14" lengthAdjust="spacing" textLength="286" x="29" y="597.7561">log(Level, SipServletMessage, String): void</text><ellipse cx="20" cy="610.4534" fill="#84BE84" rx="3" ry="3" style="stroke:#038048;stroke-width:1.0;"/><text fill="#000000" font-family="sans-serif" font-size="14" lengthAdjust="spacing" textLength="248" x="29" y="614.2444">fine(SipServletMessage, String): void</text><ellipse cx="20" cy="626.9416" fill="#84BE84" rx="3" ry="3" style="stroke:#038048;stroke-width:1.0;"/><text fill="#000000" font-family="sans-serif" font-size="14" lengthAdjust="spacing" textLength="254" x="29" y="630.7327">finer(SipServletMessage, String): void</text><ellipse cx="20" cy="643.4299" fill="#84BE84" rx="3" ry="3" style="stroke:#038048;stroke-width:1.0;"/><text fill="#000000" font-family="sans-serif" font-size="14" lengthAdjust="spacing" textLength="260" x="29" y="647.2209">finest(SipServletMessage, String): void</text><ellipse cx="20" cy="659.9182" fill="#84BE84" rx="3" ry="3" style="stroke:#038048;stroke-width:1.0;"/><text fill="#000000" font-family="sans-serif" font-size="14" lengthAdjust="spacing" textLength="249" x="29" y="663.7092">info(SipServletMessage, String): void</text><ellipse cx="20" cy="676.4065" fill="#84BE84" rx="3" ry="3" style="stroke:#038048;stroke-width:1.0;"/><text fill="#000000" font-family="sans-serif" font-size="14" lengthAdjust="spacing" textLength="266" x="29" y="680.1975">severe(SipServletMessage, String): void</text><ellipse cx="20" cy="692.8948" fill="#84BE84" rx="3" ry="3" style="stroke:#038048;stroke-width:1.0;"/><text fill="#000000" font-family="sans-serif" font-size="14" lengthAdjust="spacing" textLength="278" x="29" y="696.6858">warning(SipServletMessage, String): void</text><ellipse cx="20" cy="709.383" fill="#84BE84" rx="3" ry="3" style="stroke:#038048;stroke-width:1.0;"/><text fill="#000000" font-family="sans-serif" font-size="14" lengthAdjust="spacing" textLength="311" x="29" y="713.1741">log(Level, SipApplicationSession, String): void</text><ellipse cx="20" cy="725.8713" fill="#84BE84" rx="3" ry="3" style="stroke:#038048;stroke-width:1.0;"/><text fill="#000000" font-family="sans-serif" font-size="14" lengthAdjust="spacing" textLength="233" x="29" y="729.6623">log(Level, SipSession, String): void</text><ellipse cx="20" cy="742.3596" fill="#84BE84" rx="3" ry="3" style="stroke:#038048;stroke-width:1.0;"/><text fill="#000000" font-family="sans-serif" font-size="14" lengthAdjust="spacing" textLength="195" x="29" y="746.1506">fine(SipSession, String): void</text><ellipse cx="20" cy="758.8479" fill="#84BE84" rx="3" ry="3" style="stroke:#038048;stroke-width:1.0;"/><text fill="#000000" font-family="sans-serif" font-size="14" lengthAdjust="spacing" textLength="273" x="29" y="762.6389">fine(SipApplicationSession, String): void</text><ellipse cx="20" cy="775.3362" fill="#84BE84" rx="3" ry="3" style="stroke:#038048;stroke-width:1.0;"/><text fill="#000000" font-family="sans-serif" font-size="14" lengthAdjust="spacing" textLength="201" x="29" y="779.1272">finer(SipSession, String): void</text><ellipse cx="20" cy="791.8245" fill="#84BE84" rx="3" ry="3" style="stroke:#038048;stroke-width:1.0;"/><text fill="#000000" font-family="sans-serif" font-size="14" lengthAdjust="spacing" textLength="279" x="29" y="795.6155">finer(SipApplicationSession, String): void</text><ellipse cx="20" cy="808.3127" fill="#84BE84" rx="3" ry="3" style="stroke:#038048;stroke-width:1.0;"/><text fill="#000000" font-family="sans-serif" font-size="14" lengthAdjust="spacing" textLength="207" x="29" y="812.1038">finest(SipSession, String): void</text><ellipse cx="20" cy="824.801" fill="#84BE84" rx="3" ry="3" style="stroke:#038048;stroke-width:1.0;"/><text fill="#000000" font-family="sans-serif" font-size="14" lengthAdjust="spacing" textLength="285" x="29" y="828.592">finest(SipApplicationSession, String): void</text><ellipse cx="20" cy="841.2893" fill="#84BE84" rx="3" ry="3" style="stroke:#038048;stroke-width:1.0;"/><text fill="#000000" font-family="sans-serif" font-size="14" lengthAdjust="spacing" textLength="196" x="29" y="845.0803">info(SipSession, String): void</text><ellipse cx="20" cy="857.7776" fill="#84BE84" rx="3" ry="3" style="stroke:#038048;stroke-width:1.0;"/><text fill="#000000" font-family="sans-serif" font-size="14" lengthAdjust="spacing" textLength="274" x="29" y="861.5686">info(SipApplicationSession, String): void</text><ellipse cx="20" cy="874.2659" fill="#84BE84" rx="3" ry="3" style="stroke:#038048;stroke-width:1.0;"/><text fill="#000000" font-family="sans-serif" font-size="14" lengthAdjust="spacing" textLength="213" x="29" y="878.0569">severe(SipSession, String): void</text><ellipse cx="20" cy="890.7541" fill="#84BE84" rx="3" ry="3" style="stroke:#038048;stroke-width:1.0;"/><text fill="#000000" font-family="sans-serif" font-size="14" lengthAdjust="spacing" textLength="291" x="29" y="894.5452">severe(SipApplicationSession, String): void</text><ellipse cx="20" cy="907.2424" fill="#84BE84" rx="3" ry="3" style="stroke:#038048;stroke-width:1.0;"/><text fill="#000000" font-family="sans-serif" font-size="14" lengthAdjust="spacing" textLength="225" x="29" y="911.0334">warning(SipSession, String): void</text><ellipse cx="20" cy="923.7307" fill="#84BE84" rx="3" ry="3" style="stroke:#038048;stroke-width:1.0;"/><text fill="#000000" font-family="sans-serif" font-size="14" lengthAdjust="spacing" textLength="303" x="29" y="927.5217">warning(SipApplicationSession, String): void</text><ellipse cx="20" cy="940.219" fill="#84BE84" rx="3" ry="3" style="stroke:#038048;stroke-width:1.0;"/><text fill="#000000" font-family="sans-serif" font-size="14" lengthAdjust="spacing" text-decoration="underline" textLength="198" x="29" y="944.01">timeout(ServletTimer): String</text><ellipse cx="20" cy="956.7073" fill="#84BE84" rx="3" ry="3" style="stroke:#038048;stroke-width:1.0;"/><text fill="#000000" font-family="sans-serif" font-size="14" lengthAdjust="spacing" text-decoration="underline" textLength="218" x="29" y="960.4983">from(SipServletMessage): String</text><ellipse cx="20" cy="973.1955" fill="#84BE84" rx="3" ry="3" style="stroke:#038048;stroke-width:1.0;"/><text fill="#000000" font-family="sans-serif" font-size="14" lengthAdjust="spacing" text-decoration="underline" textLength="199" x="29" y="976.9866">to(SipServletMessage): String</text><ellipse cx="20" cy="989.6838" fill="#84BE84" rx="3" ry="3" style="stroke:#038048;stroke-width:1.0;"/><text fill="#000000" font-family="sans-serif" font-size="14" lengthAdjust="spacing" text-decoration="underline" textLength="270" x="29" y="993.4748">hexHash(SipApplicationSession): String</text><ellipse cx="20" cy="1006.1721" fill="#84BE84" rx="3" ry="3" style="stroke:#038048;stroke-width:1.0;"/><text fill="#000000" font-family="sans-serif" font-size="14" lengthAdjust="spacing" text-decoration="underline" textLength="192" x="29" y="1009.9631">hexHash(SipSession): String</text><ellipse cx="20" cy="1022.6604" fill="#84BE84" rx="3" ry="3" style="stroke:#038048;stroke-width:1.0;"/><text fill="#000000" font-family="sans-serif" font-size="14" lengthAdjust="spacing" textLength="179" x="29" y="1026.4514">shorten(String, int): String</text><ellipse cx="20" cy="1039.1487" fill="#84BE84" rx="3" ry="3" style="stroke:#038048;stroke-width:1.0;"/><text fill="#000000" font-family="sans-serif" font-size="14" lengthAdjust="spacing" textLength="510" x="29" y="1042.9397">superArrow(Direction, SipServletRequest, SipServletResponse, String): void</text><ellipse cx="20" cy="1055.637" fill="#84BE84" rx="3" ry="3" style="stroke:#038048;stroke-width:1.0;"/><text fill="#000000" font-family="sans-serif" font-size="14" lengthAdjust="spacing" textLength="623" x="29" y="1059.428">superArrow(Direction, boolean, SipServletRequest, SipServletResponse, String, String): void</text></g></a><!--class java.util.logging.Logger--><a href="https://docs.oracle.com/en/java/javase/11/docs/api/java.logging/java/util/logging/Logger.html?is-external=true" target="_top" title="https://docs.oracle.com/en/java/javase/11/docs/api/java.logging/java/util/logging/Logger.html?is-external=true" xlink:actuate="onRequest" xlink:href="https://docs.oracle.com/en/java/javase/11/docs/api/java.logging/java/util/logging/Logger.html?is-external=true" xlink:show="new" xlink:title="https://docs.oracle.com/en/java/javase/11/docs/api/java.logging/java/util/logging/Logger.html?is-external=true" xlink:type="simple"><g id="elem_java.util.logging.Logger"><rect codeLine="63" fill="#F1F1F1" height="38.2656" id="java.util.logging.Logger" rx="2.5" ry="2.5" style="stroke:#181818;stroke-width:0.5;" width="110" x="205.5" y="7"/><ellipse cx="220.5" cy="26.1328" fill="#ADD1B2" rx="11" ry="11" style="stroke:#181818;stroke-width:1.0;"/><path d="M222.9731,32.2759 Q222.3921,32.5747 221.7529,32.7241 Q221.1138,32.8735 220.4082,32.8735 Q217.9014,32.8735 216.5815,31.2217 Q215.2617,29.5698 215.2617,26.4487 Q215.2617,23.3193 216.5815,21.6675 Q217.9014,20.0156 220.4082,20.0156 Q221.1138,20.0156 221.7612,20.165 Q222.4087,20.3145 222.9731,20.6133 L222.9731,23.3359 Q222.3423,22.7549 221.7488,22.4851 Q221.1553,22.2153 220.5244,22.2153 Q219.1797,22.2153 218.4949,23.282 Q217.8101,24.3486 217.8101,26.4487 Q217.8101,28.5405 218.4949,29.6072 Q219.1797,30.6738 220.5244,30.6738 Q221.1553,30.6738 221.7488,30.4041 Q222.3423,30.1343 222.9731,29.5532 Z " fill="#000000"/><text fill="#000000" font-family="sans-serif" font-size="14" lengthAdjust="spacing" textLength="48" x="249.5" y="25.5352">Logger</text><text fill="#000000" font-family="sans-serif" font-size="10" lengthAdjust="spacing" textLength="78" x="234.5" y="38.1563">java.util.logging</text></g></a><!--class java.io.Serializable--><a href="https://docs.oracle.com/en/java/javase/11/docs/api/java.base/java/io/Serializable.html?is-external=true" target="_top" title="https://docs.oracle.com/en/java/javase/11/docs/api/java.base/java/io/Serializable.html?is-external=true" xlink:actuate="onRequest" xlink:href="https://docs.oracle.com/en/java/javase/11/docs/api/java.base/java/io/Serializable.html?is-external=true" xlink:show="new" xlink:title="https://docs.oracle.com/en/java/javase/11/docs/api/java.base/java/io/Serializable.html?is-external=true" xlink:type="simple"><g id="elem_java.io.Serializable"><rect codeLine="64" fill="#F1F1F1" height="38.2656" id="java.io.Serializable" rx="2.5" ry="2.5" style="stroke:#181818;stroke-width:0.5;" width="111" x="351" y="7"/><ellipse cx="366" cy="26.1328" fill="#B4A7E5" rx="11" ry="11" style="stroke:#181818;stroke-width:1.0;"/><path d="M362.4277,22.3979 L362.4277,20.2397 L369.8071,20.2397 L369.8071,22.3979 L367.3418,22.3979 L367.3418,30.4746 L369.8071,30.4746 L369.8071,32.6328 L362.4277,32.6328 L362.4277,30.4746 L364.8931,30.4746 L364.8931,22.3979 Z " fill="#000000"/><text fill="#000000" font-family="sans-serif" font-size="14" font-style="italic" lengthAdjust="spacing" textLength="79" x="380" y="25.5352">Serializable</text><text fill="#000000" font-family="sans-serif" font-size="10" font-style="italic" lengthAdjust="spacing" textLength="32" x="403.5" y="38.1563">java.io</text></g></a><!--class org.vorpal.blade.framework.logging.Logger.Direction--><a href="Logger.Direction.html" target="_top" title="Logger.Direction.html" xlink:actuate="onRequest" xlink:href="Logger.Direction.html" xlink:show="new" xlink:title="Logger.Direction.html" xlink:type="simple"><g id="elem_org.vorpal.blade.framework.logging.Logger.Direction"><rect codeLine="65" fill="#F1F1F1" height="38.2656" id="org.vorpal.blade.framework.logging.Logger.Direction" rx="2.5" ry="2.5" style="stroke:#181818;stroke-width:0.5;" width="206" x="230.5" y="1126.38"/><ellipse cx="245.5" cy="1145.5128" fill="#EB937F" rx="11" ry="11" style="stroke:#181818;stroke-width:1.0;"/><path d="M249.1143,1152.0128 L241.3945,1152.0128 L241.3945,1139.6197 L249.1143,1139.6197 L249.1143,1141.7779 L243.8433,1141.7779 L243.8433,1144.4508 L248.6162,1144.4508 L248.6162,1146.609 L243.8433,1146.609 L243.8433,1149.8546 L249.1143,1149.8546 Z " fill="#000000"/><text fill="#000000" font-family="sans-serif" font-size="14" lengthAdjust="spacing" textLength="114" x="289.5" y="1144.9152">Logger.Direction</text><text fill="#000000" font-family="sans-serif" font-size="10" lengthAdjust="spacing" textLength="174" x="259.5" y="1157.5363">org.vorpal.blade.framework.logging</text></g></a><!--reverse link java.util.logging.Logger to org.vorpal.blade.framework.logging.Logger--><g id="link_java.util.logging.Logger_org.vorpal.blade.framework.logging.Logger"><path codeLine="67" d="M265.266,63.5378 C267.046,77.1378 267.39,79.74 270.67,104.82 " fill="none" id="java.util.logging.Logger-backto-org.vorpal.blade.framework.logging.Logger" style="stroke:#181818;stroke-width:1.0;"/><polygon fill="none" points="262.93,45.69,259.3167,64.3164,271.2152,62.7591,262.93,45.69" style="stroke:#181818;stroke-width:1.0;"/></g><!--reverse link java.io.Serializable to org.vorpal.blade.framework.logging.Logger--><g id="link_java.io.Serializable_org.vorpal.blade.framework.logging.Logger"><path codeLine="68" d="M401.734,63.5378 C399.954,77.1378 399.61,79.74 396.33,104.82 " fill="none" id="java.io.Serializable-backto-org.vorpal.blade.framework.logging.Logger" style="stroke:#181818;stroke-width:1.0;stroke-dasharray:7.0,7.0;"/><polygon fill="none" points="404.07,45.69,395.7848,62.7591,407.6833,64.3164,404.07,45.69" style="stroke:#181818;stroke-width:1.0;"/></g><!--reverse link org.vorpal.blade.framework.logging.Logger to org.vorpal.blade.framework.logging.Logger.Direction--><g id="link_org.vorpal.blade.framework.logging.Logger_org.vorpal.blade.framework.logging.Logger.Direction"><path codeLine="69" d="M333.5,1082.68 C333.5,1107.87 333.5,1112.39 333.5,1126.03 " fill="none" id="org.vorpal.blade.framework.logging.Logger-backto-org.vorpal.blade.framework.logging.Logger.Direction" style="stroke:#181818;stroke-width:1.0;"/><ellipse cx="333.5" cy="1074.68" fill="#FFFFFF" rx="8" ry="8" style="stroke:#181818;stroke-width:1.0;"/><line style="stroke:#181818;stroke-width:1.0;" x1="333.5" x2="333.5" y1="1082.68" y2="1066.68"/><line style="stroke:#181818;stroke-width:1.0;" x1="325.5" x2="341.5" y1="1074.68" y2="1074.68"/></g><text fill="#888888" font-family="sans-serif" font-size="10" lengthAdjust="spacing" textLength="176" x="237.5" y="1179.3136">UMLDoclet 2.1.2, PlantUML 1.2024.3</text><!--SRC=[jLTRRzCm57xdLrX3I9tQEdJYgHf34vq4g6E8RBoCFhZfIUhDyGcssurT_ZjEqYQz99a3eWz9TSvtldErOnD2Y0P398j19om07nAcc45594fuPTLapcT084xCRn9o43EzAut1pD6ACtaWcDRau5Zp1nWEtfsCCOf0_PGhmTiJL15TeagOe5F1Pa13PPtVeRgbmcAvZ0u8q-Hb6CsfoVLr_eVEJImc4_AOnP7-7hLXXWVFfAz1SIP-WD8SvTNdqP08b541jFfV2v01Z3YBh9znxc4CIn13ahrAR80ovD72LiboDI5Bzryl_3FV7nBVABxXzdKUU2SNzrRgmqBVZS1ab9t3NUvKvTS7NM6WcmsofxLQ8fzjUVbObswrZtfujGTjfGfM9TZJtZ4bhRnE7N89JJhLfDIcJijbY7KwEto-OS7jfRAhfUFpv3H910-oT7tGwNproDbz04agUTdyxspKKe0vjwOi0dVJHjnMupeNqni8J1KkrvpgBzh2AeB9sjmZDGIhTjT7ifw7bbbsLcvNHfSy1kMAAnPU4tu_diQPR0LNBV7fv3eRvCFi3A-l_qjBrDbYkwnLwyUn7yteiX5kk1Q1R3JD4TYIVDrXLsGB-d8Ut70jg3TdnnNPWdvhqfoXxWwAxtNNs6q15xQosxl9pkUxn8SAu_q5q6HXi1r-3lUVc9vN9-HeM8lkwZag0x8uY71fgb2B1DIfKdZN6N5bT_UybaKQtzFZXJRR8fsWr0tRJINd5540QqjUvUJPyLHwmvQCBWmNMuVGFMbvvfmRa-YXvyqmq1JjvrK03J3sG7gfLVRGu0q66S9Z2Sz4Qw8Sb59xQyd6AVO3rtsuDw0a4- -DMi1aagLX-m8gj9_oZLJyx6ZB7zXKm6v27CiqED9Dw3-aC4sb6OAZjydP63l8HRpN0Leq_J_U44edvLsX4Ark3VcOrFRx-AdVTtTOSkqM_VY9qfOyxXUXRfiOomha2mJIqI8XOlgwEX-Fq8w38KTqG8zwv9jWqbWfURFCxr2Tmpy0]--></g></svg>