<?xml version="1.0" encoding="us-ascii" standalone="no"?><svg xmlns="http://www.w3.org/2000/svg" xmlns:xlink="http://www.w3.org/1999/xlink" contentStyleType="text/css" height="193px" preserveAspectRatio="none" style="width:366px;height:193px;background:#FFFFFF;" version="1.1" viewBox="0 0 366 193" width="366px" zoomAndPan="magnify"><defs/><g><!--class org.vorpal.blade.framework.logging.LogParametersDefault--><a href="LogParametersDefault.html" target="_top" title="LogParametersDefault.html" xlink:actuate="onRequest" xlink:href="LogParametersDefault.html" xlink:show="new" xlink:title="LogParametersDefault.html" xlink:type="simple"><g id="elem_org.vorpal.blade.framework.logging.LogParametersDefault"><rect codeLine="5" fill="#F1F1F1" height="62.7539" id="org.vorpal.blade.framework.logging.LogParametersDefault" rx="2.5" ry="2.5" style="stroke:#181818;stroke-width:0.5;" width="206" x="104" y="105.27"/><ellipse cx="119" cy="124.4028" fill="#ADD1B2" rx="11" ry="11" style="stroke:#181818;stroke-width:1.0;"/><path d="M121.4731,130.5459 Q120.8921,130.8447 120.2529,130.9941 Q119.6138,131.1435 118.9082,131.1435 Q116.4014,131.1435 115.0815,129.4917 Q113.7617,127.8398 113.7617,124.7187 Q113.7617,121.5893 115.0815,119.9375 Q116.4014,118.2856 118.9082,118.2856 Q119.6138,118.2856 120.2612,118.435 Q120.9087,118.5845 121.4731,118.8833 L121.4731,121.6059 Q120.8423,121.0249 120.2488,120.7551 Q119.6553,120.4853 119.0244,120.4853 Q117.6797,120.4853 116.9949,121.552 Q116.3101,122.6186 116.3101,124.7187 Q116.3101,126.8105 116.9949,127.8772 Q117.6797,128.9438 119.0244,128.9438 Q119.6553,128.9438 120.2488,128.6741 Q120.8423,128.4043 121.4731,127.8232 Z " fill="#000000"/><text fill="#000000" font-family="sans-serif" font-size="14" lengthAdjust="spacing" textLength="151" x="144.5" y="123.8052">LogParametersDefault</text><text fill="#000000" font-family="sans-serif" font-size="10" lengthAdjust="spacing" textLength="174" x="133" y="136.4263">org.vorpal.blade.framework.logging</text><line style="stroke:#181818;stroke-width:0.5;" x1="105" x2="309" y1="143.5356" y2="143.5356"/><rect fill="none" height="6" style="stroke:#C82930;stroke-width:1.0;" width="6" x="112" y="154.2798"/><text fill="#000000" font-family="sans-serif" font-size="14" lengthAdjust="spacing" text-decoration="underline" textLength="152" x="124" y="161.0708">serialVersionUID: long</text></g></a><!--class org.vorpal.blade.framework.logging.LogParameters--><a href="LogParameters.html" target="_top" title="LogParameters.html" xlink:actuate="onRequest" xlink:href="LogParameters.html" xlink:show="new" xlink:title="LogParameters.html" xlink:type="simple"><g id="elem_org.vorpal.blade.framework.logging.LogParameters"><rect codeLine="9" fill="#F1F1F1" height="38.2656" id="org.vorpal.blade.framework.logging.LogParameters" rx="2.5" ry="2.5" style="stroke:#181818;stroke-width:0.5;" width="206" x="7" y="7"/><ellipse cx="22" cy="26.1328" fill="#ADD1B2" rx="11" ry="11" style="stroke:#181818;stroke-width:1.0;"/><path d="M24.4731,32.2759 Q23.8921,32.5747 23.2529,32.7241 Q22.6138,32.8735 21.9082,32.8735 Q19.4014,32.8735 18.0815,31.2217 Q16.7617,29.5698 16.7617,26.4487 Q16.7617,23.3193 18.0815,21.6675 Q19.4014,20.0156 21.9082,20.0156 Q22.6138,20.0156 23.2612,20.165 Q23.9087,20.3145 24.4731,20.6133 L24.4731,23.3359 Q23.8423,22.7549 23.2488,22.4851 Q22.6553,22.2153 22.0244,22.2153 Q20.6797,22.2153 19.9949,23.282 Q19.3101,24.3486 19.3101,26.4487 Q19.3101,28.5405 19.9949,29.6072 Q20.6797,30.6738 22.0244,30.6738 Q22.6553,30.6738 23.2488,30.4041 Q23.8423,30.1343 24.4731,29.5532 Z " fill="#000000"/><text fill="#000000" font-family="sans-serif" font-size="14" lengthAdjust="spacing" textLength="102" x="72" y="25.5352">LogParameters</text><text fill="#000000" font-family="sans-serif" font-size="10" lengthAdjust="spacing" textLength="174" x="36" y="38.1563">org.vorpal.blade.framework.logging</text></g></a><!--class java.io.Serializable--><a href="https://docs.oracle.com/en/java/javase/11/docs/api/java.base/java/io/Serializable.html?is-external=true" target="_top" title="https://docs.oracle.com/en/java/javase/11/docs/api/java.base/java/io/Serializable.html?is-external=true" xlink:actuate="onRequest" xlink:href="https://docs.oracle.com/en/java/javase/11/docs/api/java.base/java/io/Serializable.html?is-external=true" xlink:show="new" xlink:title="https://docs.oracle.com/en/java/javase/11/docs/api/java.base/java/io/Serializable.html?is-external=true" xlink:type="simple"><g id="elem_java.io.Serializable"><rect codeLine="10" fill="#F1F1F1" height="38.2656" id="java.io.Serializable" rx="2.5" ry="2.5" style="stroke:#181818;stroke-width:0.5;" width="111" x="248.5" y="7"/><ellipse cx="263.5" cy="26.1328" fill="#B4A7E5" rx="11" ry="11" style="stroke:#181818;stroke-width:1.0;"/><path d="M259.9277,22.3979 L259.9277,20.2397 L267.3071,20.2397 L267.3071,22.3979 L264.8418,22.3979 L264.8418,30.4746 L267.3071,30.4746 L267.3071,32.6328 L259.9277,32.6328 L259.9277,30.4746 L262.3931,30.4746 L262.3931,22.3979 Z " fill="#000000"/><text fill="#000000" font-family="sans-serif" font-size="14" font-style="italic" lengthAdjust="spacing" textLength="79" x="277.5" y="25.5352">Serializable</text><text fill="#000000" font-family="sans-serif" font-size="10" font-style="italic" lengthAdjust="spacing" textLength="32" x="301" y="38.1563">java.io</text></g></a><!--reverse link org.vorpal.blade.framework.logging.LogParameters to org.vorpal.blade.framework.logging.LogParametersDefault--><g id="link_org.vorpal.blade.framework.logging.LogParameters_org.vorpal.blade.framework.logging.LogParametersDefault"><path codeLine="12" d="M138.446,58.96 C152.936,75.17 162.33,85.67 179.43,104.8 " fill="none" id="org.vorpal.blade.framework.logging.LogParameters-backto-org.vorpal.blade.framework.logging.LogParametersDefault" style="stroke:#181818;stroke-width:1.0;"/><polygon fill="none" points="126.45,45.54,133.9727,62.9586,142.9193,54.9613,126.45,45.54" style="stroke:#181818;stroke-width:1.0;"/></g><!--reverse link java.io.Serializable to org.vorpal.blade.framework.logging.LogParametersDefault--><g id="link_java.io.Serializable_org.vorpal.blade.framework.logging.LogParametersDefault"><path codeLine="13" d="M275.554,58.96 C261.064,75.17 251.67,85.67 234.57,104.8 " fill="none" id="java.io.Serializable-backto-org.vorpal.blade.framework.logging.LogParametersDefault" style="stroke:#181818;stroke-width:1.0;stroke-dasharray:7.0,7.0;"/><polygon fill="none" points="287.55,45.54,271.0807,54.9613,280.0273,62.9586,287.55,45.54" style="stroke:#181818;stroke-width:1.0;"/></g><text fill="#888888" font-family="sans-serif" font-size="10" lengthAdjust="spacing" textLength="176" x="88.25" y="183.6919">UMLDoclet 2.1.2, PlantUML 1.2024.3</text><!--SRC=[jPBBQiCm44Nt_OeXK6YXbklGLKZJJJQ5508XtQHPZEsnhLRM64b9spp-lRAQXGc1lgWMbhcwcZbN4W209GSQQx8DPZIZ1WqwDg1PqvbVXahc15GtxXqAIIgtnsfDhc8l1prJQ2tqXbPkQ93SZ2PSJdr5xo5ZnrJWIhadVLY-7h4fnPfDWqga2dCIHUjzPVCY59Ubr6KFqCBNDd6g4ImMfsHHkLejbx0DnEtOMeTEPdk8B1c9wj6R9Ulv_NW0YdKPZFjl9Fp_QCUP3c42cjHUAVmrTl1c8P3SOAgeG_UCQnII0yBXNtIjlatbN6C7SPnpPWKRp1I9ZEkOTDpk21zBSP84HuoD3998MpKu9CVTcW7rJjg8tZodHdNhp8eyUu3_yK4CTr7qsvSHEfxCFTm9yQUg6RMt00LpEyqV9cFs9-UWBnBHluAfGksy2kVhpqTsSVa1]--></g></svg>