<?xml version="1.0" encoding="us-ascii" standalone="no"?><svg xmlns="http://www.w3.org/2000/svg" xmlns:xlink="http://www.w3.org/1999/xlink" contentStyleType="text/css" height="803px" preserveAspectRatio="none" style="width:973px;height:803px;background:#FFFFFF;" version="1.1" viewBox="0 0 973 803" width="973px" zoomAndPan="magnify"><defs/><g><!--class org.vorpal.blade.framework.AsyncSipServlet--><a href="AsyncSipServlet.html" target="_top" title="AsyncSipServlet.html" xlink:actuate="onRequest" xlink:href="AsyncSipServlet.html" xlink:show="new" xlink:title="AsyncSipServlet.html" xlink:type="simple"><g id="elem_org.vorpal.blade.framework.AsyncSipServlet"><rect codeLine="5" fill="#F1F1F1" height="647.8438" id="org.vorpal.blade.framework.AsyncSipServlet" rx="2.5" ry="2.5" style="stroke:#181818;stroke-width:0.5;" width="351" x="300" y="129.76"/><ellipse cx="403.75" cy="148.8928" fill="#A9DCDF" rx="11" ry="11" style="stroke:#181818;stroke-width:1.0;"/><path d="M403.6133,144.241 L402.4595,149.3127 L404.7754,149.3127 Z M402.1191,141.9997 L405.1157,141.9997 L408.4609,154.3928 L406.0122,154.3928 L405.2485,151.3298 L401.9697,151.3298 L401.2227,154.3928 L398.7739,154.3928 Z " fill="#000000"/><text fill="#000000" font-family="sans-serif" font-size="14" font-style="italic" lengthAdjust="spacing" textLength="107" x="438.25" y="148.2952">AsyncSipServlet</text><text fill="#000000" font-family="sans-serif" font-size="10" font-style="italic" lengthAdjust="spacing" textLength="135" x="424.25" y="160.9163">org.vorpal.blade.framework</text><line style="stroke:#181818;stroke-width:0.5;" x1="301" x2="650" y1="168.0256" y2="168.0256"/><rect fill="none" height="6" style="stroke:#C82930;stroke-width:1.0;" width="6" x="308" y="178.7698"/><text fill="#000000" font-family="sans-serif" font-size="14" lengthAdjust="spacing" text-decoration="underline" textLength="152" x="320" y="185.5608">serialVersionUID: long</text><rect fill="none" height="6" style="stroke:#C82930;stroke-width:1.0;" width="6" x="308" y="195.258"/><text fill="#000000" font-family="sans-serif" font-size="14" lengthAdjust="spacing" textLength="204" x="320" y="202.0491">event: SipServletContextEvent</text><polygon fill="none" points="311,209.7463,315,213.7463,311,217.7463,307,213.7463" style="stroke:#B38D22;stroke-width:1.0;"/><text fill="#000000" font-family="sans-serif" font-size="14" lengthAdjust="spacing" text-decoration="underline" textLength="124" x="320" y="218.5373">sipLogger: Logger</text><polygon fill="none" points="311,226.2346,315,230.2346,311,234.2346,307,230.2346" style="stroke:#B38D22;stroke-width:1.0;"/><text fill="#000000" font-family="sans-serif" font-size="14" lengthAdjust="spacing" text-decoration="underline" textLength="149" x="320" y="235.0256">sipFactory: SipFactory</text><polygon fill="none" points="311,242.7229,315,246.7229,311,250.7229,307,246.7229" style="stroke:#B38D22;stroke-width:1.0;"/><text fill="#000000" font-family="sans-serif" font-size="14" lengthAdjust="spacing" text-decoration="underline" textLength="154" x="320" y="251.5139">sipUtil: SipSessionsUtil</text><polygon fill="none" points="311,259.2112,315,263.2112,311,267.2112,307,263.2112" style="stroke:#B38D22;stroke-width:1.0;"/><text fill="#000000" font-family="sans-serif" font-size="14" lengthAdjust="spacing" text-decoration="underline" textLength="180" x="320" y="268.0022">timerService: TimerService</text><polygon fill="none" points="311,275.6995,315,279.6995,311,283.6995,307,279.6995" style="stroke:#B38D22;stroke-width:1.0;"/><text fill="#000000" font-family="sans-serif" font-size="14" lengthAdjust="spacing" text-decoration="underline" textLength="265" x="320" y="284.4905">sessionParameters: SessionParameters</text><rect fill="none" height="6" style="stroke:#C82930;stroke-width:1.0;" width="6" x="308" y="294.1877"/><text fill="#000000" font-family="sans-serif" font-size="14" lengthAdjust="spacing" text-decoration="underline" textLength="248" x="320" y="300.9788">RESPONSE_CALLBACK_INVITE: String</text><line style="stroke:#181818;stroke-width:0.5;" x1="301" x2="650" y1="307.9319" y2="307.9319"/><polygon fill="#FFFF44" points="311,316.676,315,320.676,311,324.676,307,320.676" style="stroke:#B38D22;stroke-width:1.0;"/><text fill="#000000" font-family="sans-serif" font-size="14" font-style="italic" lengthAdjust="spacing" textLength="305" x="320" y="325.467">servletCreated(SipServletContextEvent): void</text><polygon fill="#FFFF44" points="311,333.1643,315,337.1643,311,341.1643,307,337.1643" style="stroke:#B38D22;stroke-width:1.0;"/><text fill="#000000" font-family="sans-serif" font-size="14" font-style="italic" lengthAdjust="spacing" textLength="320" x="320" y="341.9553">servletDestroyed(SipServletContextEvent): void</text><polygon fill="#FFFF44" points="311,349.6526,315,353.6526,311,357.6526,307,353.6526" style="stroke:#B38D22;stroke-width:1.0;"/><text fill="#000000" font-family="sans-serif" font-size="14" font-style="italic" lengthAdjust="spacing" textLength="299" x="320" y="358.4436">chooseCallflow(SipServletRequest): Callflow</text><ellipse cx="311" cy="371.1409" fill="#84BE84" rx="3" ry="3" style="stroke:#038048;stroke-width:1.0;"/><text fill="#000000" font-family="sans-serif" font-size="14" lengthAdjust="spacing" textLength="318" x="320" y="374.9319">servletInitialized(SipServletContextEvent): void</text><ellipse cx="311" cy="387.6291" fill="#84BE84" rx="3" ry="3" style="stroke:#038048;stroke-width:1.0;"/><text fill="#000000" font-family="sans-serif" font-size="14" lengthAdjust="spacing" textLength="258" x="320" y="391.4202">requestEvent(SipServletRequest): void</text><ellipse cx="311" cy="404.1174" fill="#84BE84" rx="3" ry="3" style="stroke:#038048;stroke-width:1.0;"/><text fill="#000000" font-family="sans-serif" font-size="14" lengthAdjust="spacing" textLength="280" x="320" y="407.9084">responseEvent(SipServletResponse): void</text><ellipse cx="311" cy="420.6057" fill="#84BE84" rx="3" ry="3" style="stroke:#038048;stroke-width:1.0;"/><text fill="#000000" font-family="sans-serif" font-size="14" lengthAdjust="spacing" textLength="304" x="320" y="424.3967">contextInitialized(ServletContextEvent): void</text><ellipse cx="311" cy="437.094" fill="#84BE84" rx="3" ry="3" style="stroke:#038048;stroke-width:1.0;"/><text fill="#000000" font-family="sans-serif" font-size="14" lengthAdjust="spacing" textLength="306" x="320" y="440.885">contextDestroyed(ServletContextEvent): void</text><ellipse cx="311" cy="453.5823" fill="#84BE84" rx="3" ry="3" style="stroke:#038048;stroke-width:1.0;"/><text fill="#000000" font-family="sans-serif" font-size="14" lengthAdjust="spacing" text-decoration="underline" textLength="305" x="320" y="457.3733">generateIndexKey(SipServletRequest): String</text><polygon fill="#FFFF44" points="311,465.0705,315,469.0705,311,473.0705,307,469.0705" style="stroke:#B38D22;stroke-width:1.0;"/><text fill="#000000" font-family="sans-serif" font-size="14" lengthAdjust="spacing" textLength="242" x="320" y="473.8616">doRequest(SipServletRequest): void</text><polygon fill="#FFFF44" points="311,481.5588,315,485.5588,311,489.5588,307,485.5588" style="stroke:#B38D22;stroke-width:1.0;"/><text fill="#000000" font-family="sans-serif" font-size="14" lengthAdjust="spacing" textLength="264" x="320" y="490.3498">doResponse(SipServletResponse): void</text><ellipse cx="311" cy="503.0471" fill="#84BE84" rx="3" ry="3" style="stroke:#038048;stroke-width:1.0;"/><text fill="#000000" font-family="sans-serif" font-size="14" lengthAdjust="spacing" textLength="186" x="320" y="506.8381">timeout(ServletTimer): void</text><ellipse cx="311" cy="519.5354" fill="#84BE84" rx="3" ry="3" style="stroke:#038048;stroke-width:1.0;"/><text fill="#000000" font-family="sans-serif" font-size="14" lengthAdjust="spacing" text-decoration="underline" textLength="157" x="320" y="523.3264">getSipLogger(): Logger</text><ellipse cx="311" cy="536.0237" fill="#84BE84" rx="3" ry="3" style="stroke:#038048;stroke-width:1.0;"/><text fill="#000000" font-family="sans-serif" font-size="14" lengthAdjust="spacing" text-decoration="underline" textLength="184" x="320" y="539.8147">setSipLogger(Logger): void</text><ellipse cx="311" cy="552.512" fill="#84BE84" rx="3" ry="3" style="stroke:#038048;stroke-width:1.0;"/><text fill="#000000" font-family="sans-serif" font-size="14" lengthAdjust="spacing" text-decoration="underline" textLength="182" x="320" y="556.303">getSipFactory(): SipFactory</text><ellipse cx="311" cy="569.0002" fill="#84BE84" rx="3" ry="3" style="stroke:#038048;stroke-width:1.0;"/><text fill="#000000" font-family="sans-serif" font-size="14" lengthAdjust="spacing" text-decoration="underline" textLength="209" x="320" y="572.7913">setSipFactory(SipFactory): void</text><ellipse cx="311" cy="585.4885" fill="#84BE84" rx="3" ry="3" style="stroke:#038048;stroke-width:1.0;"/><text fill="#000000" font-family="sans-serif" font-size="14" lengthAdjust="spacing" text-decoration="underline" textLength="187" x="320" y="589.2795">getSipUtil(): SipSessionsUtil</text><ellipse cx="311" cy="601.9768" fill="#84BE84" rx="3" ry="3" style="stroke:#038048;stroke-width:1.0;"/><text fill="#000000" font-family="sans-serif" font-size="14" lengthAdjust="spacing" text-decoration="underline" textLength="214" x="320" y="605.7678">setSipUtil(SipSessionsUtil): void</text><ellipse cx="311" cy="618.4651" fill="#84BE84" rx="3" ry="3" style="stroke:#038048;stroke-width:1.0;"/><text fill="#000000" font-family="sans-serif" font-size="14" lengthAdjust="spacing" text-decoration="underline" textLength="216" x="320" y="622.2561">getTimerService(): TimerService</text><rect fill="#F24D5C" height="6" style="stroke:#C82930;stroke-width:1.0;" width="6" x="308" y="631.9534"/><text fill="#000000" font-family="sans-serif" font-size="14" lengthAdjust="spacing" text-decoration="underline" textLength="204" x="320" y="638.7444">byteArray2Text(byte[]): String</text><rect fill="#F24D5C" height="6" style="stroke:#C82930;stroke-width:1.0;" width="6" x="308" y="648.4416"/><text fill="#000000" font-family="sans-serif" font-size="14" lengthAdjust="spacing" text-decoration="underline" textLength="174" x="320" y="655.2327">hexEncode(byte[]): String</text><ellipse cx="311" cy="667.9299" fill="#84BE84" rx="3" ry="3" style="stroke:#038048;stroke-width:1.0;"/><text fill="#000000" font-family="sans-serif" font-size="14" lengthAdjust="spacing" text-decoration="underline" textLength="133" x="320" y="671.7209">hash(String): String</text><ellipse cx="311" cy="684.4182" fill="#84BE84" rx="3" ry="3" style="stroke:#038048;stroke-width:1.0;"/><text fill="#000000" font-family="sans-serif" font-size="14" lengthAdjust="spacing" text-decoration="underline" textLength="260" x="320" y="688.2092">getAppSessionHashKey(String): String</text><ellipse cx="311" cy="700.9065" fill="#84BE84" rx="3" ry="3" style="stroke:#038048;stroke-width:1.0;"/><text fill="#000000" font-family="sans-serif" font-size="14" lengthAdjust="spacing" text-decoration="underline" textLength="232" x="320" y="704.6975">getAccountName(Address): String</text><ellipse cx="311" cy="717.3948" fill="#84BE84" rx="3" ry="3" style="stroke:#038048;stroke-width:1.0;"/><text fill="#000000" font-family="sans-serif" font-size="14" lengthAdjust="spacing" text-decoration="underline" textLength="199" x="320" y="721.1858">getAccountName(URI): String</text><ellipse cx="311" cy="733.883" fill="#84BE84" rx="3" ry="3" style="stroke:#038048;stroke-width:1.0;"/><text fill="#000000" font-family="sans-serif" font-size="14" lengthAdjust="spacing" textLength="279" x="320" y="737.6741">sendResponse(SipServletResponse): void</text><ellipse cx="311" cy="750.3713" fill="#84BE84" rx="3" ry="3" style="stroke:#038048;stroke-width:1.0;"/><text fill="#000000" font-family="sans-serif" font-size="14" lengthAdjust="spacing" text-decoration="underline" textLength="298" x="320" y="754.1623">getSessionParameters(): SessionParameters</text><ellipse cx="311" cy="766.8596" fill="#84BE84" rx="3" ry="3" style="stroke:#038048;stroke-width:1.0;"/><text fill="#000000" font-family="sans-serif" font-size="14" lengthAdjust="spacing" text-decoration="underline" textLength="325" x="320" y="770.6506">setSessionParameters(SessionParameters): void</text></g></a><!--class javax.servlet.sip.SipServlet--><g id="elem_javax.servlet.sip.SipServlet"><rect codeLine="44" fill="#F1F1F1" height="38.2656" id="javax.servlet.sip.SipServlet" rx="2.5" ry="2.5" style="stroke:#181818;stroke-width:0.5;" width="111" x="7" y="19.25"/><ellipse cx="22" cy="38.3828" fill="#A9DCDF" rx="11" ry="11" style="stroke:#181818;stroke-width:1.0;"/><path d="M21.8633,33.731 L20.7095,38.8027 L23.0254,38.8027 Z M20.3691,31.4897 L23.3657,31.4897 L26.7109,43.8828 L24.2622,43.8828 L23.4985,40.8198 L20.2197,40.8198 L19.4727,43.8828 L17.0239,43.8828 Z " fill="#000000"/><text fill="#000000" font-family="sans-serif" font-size="14" font-style="italic" lengthAdjust="spacing" textLength="67" x="42" y="37.7852">SipServlet</text><text fill="#000000" font-family="sans-serif" font-size="10" font-style="italic" lengthAdjust="spacing" textLength="79" x="36" y="50.4063">javax.servlet.sip</text></g><!--class javax.servlet.sip.SipServletListener--><g id="elem_javax.servlet.sip.SipServletListener"><rect codeLine="45" fill="#F1F1F1" height="62.7539" id="javax.servlet.sip.SipServletListener" rx="2.5" ry="2.5" style="stroke:#181818;stroke-width:0.5;" width="344" x="153.5" y="7"/><ellipse cx="260.75" cy="26.1328" fill="#B4A7E5" rx="11" ry="11" style="stroke:#181818;stroke-width:1.0;"/><path d="M257.1777,22.3979 L257.1777,20.2397 L264.5571,20.2397 L264.5571,22.3979 L262.0918,22.3979 L262.0918,30.4746 L264.5571,30.4746 L264.5571,32.6328 L257.1777,32.6328 L257.1777,30.4746 L259.6431,30.4746 L259.6431,22.3979 Z " fill="#000000"/><text fill="#000000" font-family="sans-serif" font-size="14" font-style="italic" lengthAdjust="spacing" textLength="121" x="281.25" y="25.5352">SipServletListener</text><text fill="#000000" font-family="sans-serif" font-size="10" font-style="italic" lengthAdjust="spacing" textLength="79" x="302.25" y="38.1563">javax.servlet.sip</text><line style="stroke:#181818;stroke-width:0.5;" x1="154.5" x2="496.5" y1="45.2656" y2="45.2656"/><ellipse cx="164.5" cy="59.0098" fill="#84BE84" rx="3" ry="3" style="stroke:#038048;stroke-width:1.0;"/><text fill="#000000" font-family="sans-serif" font-size="14" font-style="italic" lengthAdjust="spacing" textLength="318" x="173.5" y="62.8008">servletInitialized(SipServletContextEvent): void</text></g><!--class javax.servlet.ServletContextListener--><a href="https://javaee.github.io/javaee-spec/javadocs/javax/servlet/ServletContextListener.html?is-external=true" target="_top" title="https://javaee.github.io/javaee-spec/javadocs/javax/servlet/ServletContextListener.html?is-external=true" xlink:actuate="onRequest" xlink:href="https://javaee.github.io/javaee-spec/javadocs/javax/servlet/ServletContextListener.html?is-external=true" xlink:show="new" xlink:title="https://javaee.github.io/javaee-spec/javadocs/javax/servlet/ServletContextListener.html?is-external=true" xlink:type="simple"><g id="elem_javax.servlet.ServletContextListener"><rect codeLine="48" fill="#F1F1F1" height="38.2656" id="javax.servlet.ServletContextListener" rx="2.5" ry="2.5" style="stroke:#181818;stroke-width:0.5;" width="187" x="533" y="19.25"/><ellipse cx="548" cy="38.3828" fill="#B4A7E5" rx="11" ry="11" style="stroke:#181818;stroke-width:1.0;"/><path d="M544.4277,34.6479 L544.4277,32.4897 L551.8071,32.4897 L551.8071,34.6479 L549.3418,34.6479 L549.3418,42.7246 L551.8071,42.7246 L551.8071,44.8828 L544.4277,44.8828 L544.4277,42.7246 L546.8931,42.7246 L546.8931,34.6479 Z " fill="#000000"/><text fill="#000000" font-family="sans-serif" font-size="14" font-style="italic" lengthAdjust="spacing" textLength="155" x="562" y="37.7852">ServletContextListener</text><text fill="#000000" font-family="sans-serif" font-size="10" font-style="italic" lengthAdjust="spacing" textLength="62" x="608.5" y="50.4063">javax.servlet</text></g></a><!--class javax.servlet.sip.TimerListener--><g id="elem_javax.servlet.sip.TimerListener"><rect codeLine="49" fill="#F1F1F1" height="62.7539" id="javax.servlet.sip.TimerListener" rx="2.5" ry="2.5" style="stroke:#181818;stroke-width:0.5;" width="212" x="754.5" y="7"/><ellipse cx="809.25" cy="26.1328" fill="#B4A7E5" rx="11" ry="11" style="stroke:#181818;stroke-width:1.0;"/><path d="M805.6777,22.3979 L805.6777,20.2397 L813.0571,20.2397 L813.0571,22.3979 L810.5918,22.3979 L810.5918,30.4746 L813.0571,30.4746 L813.0571,32.6328 L805.6777,32.6328 L805.6777,30.4746 L808.1431,30.4746 L808.1431,22.3979 Z " fill="#000000"/><text fill="#000000" font-family="sans-serif" font-size="14" font-style="italic" lengthAdjust="spacing" textLength="94" x="829.75" y="25.5352">TimerListener</text><text fill="#000000" font-family="sans-serif" font-size="10" font-style="italic" lengthAdjust="spacing" textLength="79" x="837.25" y="38.1563">javax.servlet.sip</text><line style="stroke:#181818;stroke-width:0.5;" x1="755.5" x2="965.5" y1="45.2656" y2="45.2656"/><ellipse cx="765.5" cy="59.0098" fill="#84BE84" rx="3" ry="3" style="stroke:#038048;stroke-width:1.0;"/><text fill="#000000" font-family="sans-serif" font-size="14" font-style="italic" lengthAdjust="spacing" textLength="186" x="774.5" y="62.8008">timeout(ServletTimer): void</text></g><!--reverse link javax.servlet.sip.SipServlet to org.vorpal.blade.framework.AsyncSipServlet--><g id="link_javax.servlet.sip.SipServlet_org.vorpal.blade.framework.AsyncSipServlet"><path codeLine="53" d="M93.773,70.6728 C132.623,109.5528 213.36,190.35 299.56,276.61 " fill="none" id="javax.servlet.sip.SipServlet-backto-org.vorpal.blade.framework.AsyncSipServlet" style="stroke:#181818;stroke-width:1.0;"/><polygon fill="none" points="81.05,57.94,89.5287,74.9138,98.0173,66.4318,81.05,57.94" style="stroke:#181818;stroke-width:1.0;"/></g><!--reverse link javax.servlet.sip.SipServletListener to org.vorpal.blade.framework.AsyncSipServlet--><g id="link_javax.servlet.sip.SipServletListener_org.vorpal.blade.framework.AsyncSipServlet"><path codeLine="54" d="M342.7908,87.0301 C348.3908,102.4601 349.65,105.93 358.13,129.29 " fill="none" id="javax.servlet.sip.SipServletListener-backto-org.vorpal.blade.framework.AsyncSipServlet" style="stroke:#181818;stroke-width:1.0;stroke-dasharray:7.0,7.0;"/><polygon fill="none" points="336.65,70.11,337.1508,89.0771,348.4308,84.9832,336.65,70.11" style="stroke:#181818;stroke-width:1.0;"/></g><!--reverse link javax.servlet.ServletContextListener to org.vorpal.blade.framework.AsyncSipServlet--><g id="link_javax.servlet.ServletContextListener_org.vorpal.blade.framework.AsyncSipServlet"><path codeLine="55" d="M613.5458,74.8479 C607.6958,90.8679 604.62,99.27 593.57,129.52 " fill="none" id="javax.servlet.ServletContextListener-backto-org.vorpal.blade.framework.AsyncSipServlet" style="stroke:#181818;stroke-width:1.0;stroke-dasharray:7.0,7.0;"/><polygon fill="none" points="619.72,57.94,607.9098,72.7899,619.1817,76.906,619.72,57.94" style="stroke:#181818;stroke-width:1.0;"/></g><!--reverse link javax.servlet.sip.TimerListener to org.vorpal.blade.framework.AsyncSipServlet--><g id="link_javax.servlet.sip.TimerListener_org.vorpal.blade.framework.AsyncSipServlet"><path codeLine="56" d="M819.6093,83.2793 C780.8293,124.8993 720.73,189.43 651.28,263.98 " fill="none" id="javax.servlet.sip.TimerListener-backto-org.vorpal.blade.framework.AsyncSipServlet" style="stroke:#181818;stroke-width:1.0;stroke-dasharray:7.0,7.0;"/><polygon fill="none" points="831.88,70.11,815.2196,79.1891,823.9991,87.3695,831.88,70.11" style="stroke:#181818;stroke-width:1.0;"/></g><text fill="#888888" font-family="sans-serif" font-size="10" lengthAdjust="spacing" textLength="176" x="391.75" y="793.2717">UMLDoclet 2.1.2, PlantUML 1.2024.3</text><!--SRC=[fLRVRzem47xVNs6rcaJ54jPgJr7NYL6ceRAkAgKl7QgCSn1lmSviGs5j__VPJb924X9QU8avV_VT-NxP224aGI66Po0ZJ6004HPOSO4OP_1ERwE0-e1W5gaLcb08VPcNpa05N8kj78-b4fWeH48i9JeubVGVUCUVpjfonSY0HWCGYn3KBvRiV3pZOkekk8Xmw8v3x8Cx4TgT1ox-720iqVPjDyU9xkvo4ZTGit0qGe_MD_Dxb0ehIfwH8q5G7Dw2a9IpOU_SGo5dqnUW0mjWoaDhiWvd2fQgQ-H5laD9epwVJa5uAFwMOxxfu72niiJ9kXmuL3HCp4lZeZI24gYYCn36HKh0GpUPVsMyCTSLDZ5K-kpQGbvK4glhxk3gv-MWUzzfz_jVsvsB-zxbRU-cgxMLe9ceFQRvjxRYi0d02ln6UI2FFBJWrAyYE0SjuQitKP20SmaT78QJa3za2AxXxrppQjrqyqM_cTZjCQfqXUWgtTLoKyIiThFKM1uk8vrOAE9ZUK61nCOtFDl1hKGj4yWTefWclpa51decG8_viBo0LUd1SdLmwFDahpuC5XiVU9SOc7hdSvMUmHPybVDga3PcusXxQ-gaPu3nfuurQLz3MzNC2NMANY_h-4t39-JLCo2nOF4vSAMDxB0mXgg7XpDUAMWBWLSdDxfg6kRltQYO-xL20Cik8zo7Ucmpm39enBjLCErrEqfF-5ths8BSIOqGFcVgKa-vHjltTU_9LsWChtj5j8uxyrzHkvi9pizTc-hwOMoJNT0jIBAsdslkvj9h-JTUuAMRp49NNqZsDYv8tRMoDKBrI14J_PGevUzJgSmusSjEIfAzrjSp_stZ-tcxynkATGSeSRwSG3zM0gKYwRLQ1WxWJgaAvcENyaJWo0Y8NVkSIBjOjXBILZcfVUzyeTBHCX0CXv-LcCDejFLmjkFtICg6_fPyr0tif3ghCevEdnpd5I_1Mi8Nbq-VN7S_uYtftP-u6D-tS18mQKSJpird-AD_pec9w8bxx9vyG5SXPafBqVj5_19k7Fq7]--></g></svg>