<?xml version="1.0" encoding="us-ascii" standalone="no"?><svg xmlns="http://www.w3.org/2000/svg" xmlns:xlink="http://www.w3.org/1999/xlink" contentStyleType="text/css" height="1169px" preserveAspectRatio="none" style="width:1369px;height:1169px;background:#FFFFFF;" version="1.1" viewBox="0 0 1369 1169" width="1369px" zoomAndPan="magnify"><defs/><g><!--cluster org.vorpal.blade.framework--><g id="cluster_org.vorpal.blade.framework"><path d="M505.5,335.86 L701.5,335.86 A3.75,3.75 0 0 1 704,338.36 L711,358.3483 L884.5,358.3483 A2.5,2.5 0 0 1 887,360.8483 L887,992.96 A2.5,2.5 0 0 1 884.5,995.46 L505.5,995.46 A2.5,2.5 0 0 1 503,992.96 L503,338.36 A2.5,2.5 0 0 1 505.5,335.86 " fill="none" style="stroke:#000000;stroke-width:1.5;"/><line style="stroke:#000000;stroke-width:1.5;" x1="503" x2="711" y1="358.3483" y2="358.3483"/><text fill="#000000" font-family="sans-serif" font-size="14" font-weight="bold" lengthAdjust="spacing" textLength="195" x="507" y="351.3952">org.vorpal.blade.framework</text></g><!--cluster javax.servlet.sip--><g id="cluster_javax.servlet.sip"><path d="M8.5,6 L123.5,6 A3.75,3.75 0 0 1 126,8.5 L133,28.4883 L971.5,28.4883 A2.5,2.5 0 0 1 974,30.9883 L974,300.36 A2.5,2.5 0 0 1 971.5,302.86 L8.5,302.86 A2.5,2.5 0 0 1 6,300.36 L6,8.5 A2.5,2.5 0 0 1 8.5,6 " fill="none" style="stroke:#000000;stroke-width:1.5;"/><line style="stroke:#000000;stroke-width:1.5;" x1="6" x2="133" y1="28.4883" y2="28.4883"/><text fill="#000000" font-family="sans-serif" font-size="14" font-weight="bold" lengthAdjust="spacing" textLength="114" x="10" y="21.5352">javax.servlet.sip</text></g><!--cluster javax.servlet--><g id="cluster_javax.servlet"><path d="M1000.5,88.44 L1090.5,88.44 A3.75,3.75 0 0 1 1093,90.94 L1100,110.9283 L1359.5,110.9283 A2.5,2.5 0 0 1 1362,113.4283 L1362,217.92 A2.5,2.5 0 0 1 1359.5,220.42 L1000.5,220.42 A2.5,2.5 0 0 1 998,217.92 L998,90.94 A2.5,2.5 0 0 1 1000.5,88.44 " fill="none" style="stroke:#000000;stroke-width:1.5;"/><line style="stroke:#000000;stroke-width:1.5;" x1="998" x2="1100" y1="110.9283" y2="110.9283"/><text fill="#000000" font-family="sans-serif" font-size="14" font-weight="bold" lengthAdjust="spacing" textLength="89" x="1002" y="103.9752">javax.servlet</text></g><!--cluster org.vorpal.blade.framework.logging--><g id="cluster_org.vorpal.blade.framework.logging"><path d="M387.5,1044.46 L641.5,1044.46 A3.75,3.75 0 0 1 644,1046.96 L651,1066.9483 L651.5,1066.9483 A2.5,2.5 0 0 1 654,1069.4483 L654,1140.96 A2.5,2.5 0 0 1 651.5,1143.46 L387.5,1143.46 A2.5,2.5 0 0 1 385,1140.96 L385,1046.96 A2.5,2.5 0 0 1 387.5,1044.46 " fill="none" style="stroke:#000000;stroke-width:1.5;"/><line style="stroke:#000000;stroke-width:1.5;" x1="385" x2="651" y1="1066.9483" y2="1066.9483"/><text fill="#000000" font-family="sans-serif" font-size="14" font-weight="bold" lengthAdjust="spacing" textLength="253" x="389" y="1059.9952">org.vorpal.blade.framework.logging</text></g><!--cluster org.vorpal.blade.framework.config--><g id="cluster_org.vorpal.blade.framework.config"><path d="M680.5,1044.46 L924.5,1044.46 A3.75,3.75 0 0 1 927,1046.96 L934,1066.9483 L934.5,1066.9483 A2.5,2.5 0 0 1 937,1069.4483 L937,1140.96 A2.5,2.5 0 0 1 934.5,1143.46 L680.5,1143.46 A2.5,2.5 0 0 1 678,1140.96 L678,1046.96 A2.5,2.5 0 0 1 680.5,1044.46 " fill="none" style="stroke:#000000;stroke-width:1.5;"/><line style="stroke:#000000;stroke-width:1.5;" x1="678" x2="934" y1="1066.9483" y2="1066.9483"/><text fill="#000000" font-family="sans-serif" font-size="14" font-weight="bold" lengthAdjust="spacing" textLength="243" x="682" y="1059.9952">org.vorpal.blade.framework.config</text></g><!--class AsyncSipServlet--><a href="AsyncSipServlet.html" target="_top" title="AsyncSipServlet.html" xlink:actuate="onRequest" xlink:href="AsyncSipServlet.html" xlink:show="new" xlink:title="AsyncSipServlet.html" xlink:type="simple"><g id="elem_AsyncSipServlet"><rect codeLine="5" fill="#F1F1F1" height="608.6016" id="AsyncSipServlet" rx="2.5" ry="2.5" style="stroke:#181818;stroke-width:0.5;" width="351" x="519.5" y="370.86"/><ellipse cx="637.25" cy="386.86" fill="#A9DCDF" rx="11" ry="11" style="stroke:#181818;stroke-width:1.0;"/><path d="M637.1133,382.2081 L635.9595,387.2799 L638.2754,387.2799 Z M635.6191,379.9669 L638.6157,379.9669 L641.9609,392.36 L639.5122,392.36 L638.7485,389.297 L635.4697,389.297 L634.7227,392.36 L632.2739,392.36 Z " fill="#000000"/><text fill="#000000" font-family="sans-serif" font-size="14" font-style="italic" lengthAdjust="spacing" textLength="107" x="657.75" y="392.151">AsyncSipServlet</text><line style="stroke:#181818;stroke-width:0.5;" x1="520.5" x2="869.5" y1="402.86" y2="402.86"/><rect fill="none" height="6" style="stroke:#C82930;stroke-width:1.0;" width="6" x="527.5" y="413.6041"/><text fill="#000000" font-family="sans-serif" font-size="14" lengthAdjust="spacing" text-decoration="underline" textLength="152" x="539.5" y="420.3952">serialVersionUID: long</text><rect fill="none" height="6" style="stroke:#C82930;stroke-width:1.0;" width="6" x="527.5" y="430.0924"/><text fill="#000000" font-family="sans-serif" font-size="14" lengthAdjust="spacing" textLength="204" x="539.5" y="436.8834">event: SipServletContextEvent</text><polygon fill="none" points="530.5,444.5807,534.5,448.5807,530.5,452.5807,526.5,448.5807" style="stroke:#B38D22;stroke-width:1.0;"/><text fill="#000000" font-family="sans-serif" font-size="14" lengthAdjust="spacing" text-decoration="underline" textLength="149" x="539.5" y="453.3717">sipFactory: SipFactory</text><polygon fill="none" points="530.5,461.069,534.5,465.069,530.5,469.069,526.5,465.069" style="stroke:#B38D22;stroke-width:1.0;"/><text fill="#000000" font-family="sans-serif" font-size="14" lengthAdjust="spacing" text-decoration="underline" textLength="154" x="539.5" y="469.86">sipUtil: SipSessionsUtil</text><polygon fill="none" points="530.5,477.5573,534.5,481.5573,530.5,485.5573,526.5,481.5573" style="stroke:#B38D22;stroke-width:1.0;"/><text fill="#000000" font-family="sans-serif" font-size="14" lengthAdjust="spacing" text-decoration="underline" textLength="180" x="539.5" y="486.3483">timerService: TimerService</text><rect fill="none" height="6" style="stroke:#C82930;stroke-width:1.0;" width="6" x="527.5" y="496.0455"/><text fill="#000000" font-family="sans-serif" font-size="14" lengthAdjust="spacing" text-decoration="underline" textLength="248" x="539.5" y="502.8366">RESPONSE_CALLBACK_INVITE: String</text><line style="stroke:#181818;stroke-width:0.5;" x1="520.5" x2="869.5" y1="509.7897" y2="509.7897"/><polygon fill="#FFFF44" points="530.5,518.5338,534.5,522.5338,530.5,526.5338,526.5,522.5338" style="stroke:#B38D22;stroke-width:1.0;"/><text fill="#000000" font-family="sans-serif" font-size="14" font-style="italic" lengthAdjust="spacing" textLength="305" x="539.5" y="527.3248">servletCreated(SipServletContextEvent): void</text><polygon fill="#FFFF44" points="530.5,535.0221,534.5,539.0221,530.5,543.0221,526.5,539.0221" style="stroke:#B38D22;stroke-width:1.0;"/><text fill="#000000" font-family="sans-serif" font-size="14" font-style="italic" lengthAdjust="spacing" textLength="320" x="539.5" y="543.8131">servletDestroyed(SipServletContextEvent): void</text><polygon fill="#FFFF44" points="530.5,551.5104,534.5,555.5104,530.5,559.5104,526.5,555.5104" style="stroke:#B38D22;stroke-width:1.0;"/><text fill="#000000" font-family="sans-serif" font-size="14" font-style="italic" lengthAdjust="spacing" textLength="299" x="539.5" y="560.3014">chooseCallflow(SipServletRequest): Callflow</text><ellipse cx="530.5" cy="572.9987" fill="#84BE84" rx="3" ry="3" style="stroke:#038048;stroke-width:1.0;"/><text fill="#000000" font-family="sans-serif" font-size="14" lengthAdjust="spacing" textLength="318" x="539.5" y="576.7897">servletInitialized(SipServletContextEvent): void</text><ellipse cx="530.5" cy="589.487" fill="#84BE84" rx="3" ry="3" style="stroke:#038048;stroke-width:1.0;"/><text fill="#000000" font-family="sans-serif" font-size="14" lengthAdjust="spacing" textLength="258" x="539.5" y="593.278">requestEvent(SipServletRequest): void</text><ellipse cx="530.5" cy="605.9752" fill="#84BE84" rx="3" ry="3" style="stroke:#038048;stroke-width:1.0;"/><text fill="#000000" font-family="sans-serif" font-size="14" lengthAdjust="spacing" textLength="280" x="539.5" y="609.7663">responseEvent(SipServletResponse): void</text><ellipse cx="530.5" cy="622.4635" fill="#84BE84" rx="3" ry="3" style="stroke:#038048;stroke-width:1.0;"/><text fill="#000000" font-family="sans-serif" font-size="14" lengthAdjust="spacing" textLength="304" x="539.5" y="626.2545">contextInitialized(ServletContextEvent): void</text><ellipse cx="530.5" cy="638.9518" fill="#84BE84" rx="3" ry="3" style="stroke:#038048;stroke-width:1.0;"/><text fill="#000000" font-family="sans-serif" font-size="14" lengthAdjust="spacing" textLength="306" x="539.5" y="642.7428">contextDestroyed(ServletContextEvent): void</text><ellipse cx="530.5" cy="655.4401" fill="#84BE84" rx="3" ry="3" style="stroke:#038048;stroke-width:1.0;"/><text fill="#000000" font-family="sans-serif" font-size="14" lengthAdjust="spacing" text-decoration="underline" textLength="305" x="539.5" y="659.2311">generateIndexKey(SipServletRequest): String</text><polygon fill="#FFFF44" points="530.5,666.9284,534.5,670.9284,530.5,674.9284,526.5,670.9284" style="stroke:#B38D22;stroke-width:1.0;"/><text fill="#000000" font-family="sans-serif" font-size="14" lengthAdjust="spacing" textLength="242" x="539.5" y="675.7194">doRequest(SipServletRequest): void</text><polygon fill="#FFFF44" points="530.5,683.4166,534.5,687.4166,530.5,691.4166,526.5,687.4166" style="stroke:#B38D22;stroke-width:1.0;"/><text fill="#000000" font-family="sans-serif" font-size="14" lengthAdjust="spacing" textLength="264" x="539.5" y="692.2077">doResponse(SipServletResponse): void</text><ellipse cx="530.5" cy="704.9049" fill="#84BE84" rx="3" ry="3" style="stroke:#038048;stroke-width:1.0;"/><text fill="#000000" font-family="sans-serif" font-size="14" lengthAdjust="spacing" textLength="186" x="539.5" y="708.6959">timeout(ServletTimer): void</text><ellipse cx="530.5" cy="721.3932" fill="#84BE84" rx="3" ry="3" style="stroke:#038048;stroke-width:1.0;"/><text fill="#000000" font-family="sans-serif" font-size="14" lengthAdjust="spacing" text-decoration="underline" textLength="157" x="539.5" y="725.1842">getSipLogger(): Logger</text><ellipse cx="530.5" cy="737.8815" fill="#84BE84" rx="3" ry="3" style="stroke:#038048;stroke-width:1.0;"/><text fill="#000000" font-family="sans-serif" font-size="14" lengthAdjust="spacing" text-decoration="underline" textLength="184" x="539.5" y="741.6725">setSipLogger(Logger): void</text><ellipse cx="530.5" cy="754.3698" fill="#84BE84" rx="3" ry="3" style="stroke:#038048;stroke-width:1.0;"/><text fill="#000000" font-family="sans-serif" font-size="14" lengthAdjust="spacing" text-decoration="underline" textLength="182" x="539.5" y="758.1608">getSipFactory(): SipFactory</text><ellipse cx="530.5" cy="770.858" fill="#84BE84" rx="3" ry="3" style="stroke:#038048;stroke-width:1.0;"/><text fill="#000000" font-family="sans-serif" font-size="14" lengthAdjust="spacing" text-decoration="underline" textLength="209" x="539.5" y="774.6491">setSipFactory(SipFactory): void</text><ellipse cx="530.5" cy="787.3463" fill="#84BE84" rx="3" ry="3" style="stroke:#038048;stroke-width:1.0;"/><text fill="#000000" font-family="sans-serif" font-size="14" lengthAdjust="spacing" text-decoration="underline" textLength="187" x="539.5" y="791.1373">getSipUtil(): SipSessionsUtil</text><ellipse cx="530.5" cy="803.8346" fill="#84BE84" rx="3" ry="3" style="stroke:#038048;stroke-width:1.0;"/><text fill="#000000" font-family="sans-serif" font-size="14" lengthAdjust="spacing" text-decoration="underline" textLength="214" x="539.5" y="807.6256">setSipUtil(SipSessionsUtil): void</text><ellipse cx="530.5" cy="820.3229" fill="#84BE84" rx="3" ry="3" style="stroke:#038048;stroke-width:1.0;"/><text fill="#000000" font-family="sans-serif" font-size="14" lengthAdjust="spacing" text-decoration="underline" textLength="216" x="539.5" y="824.1139">getTimerService(): TimerService</text><rect fill="#F24D5C" height="6" style="stroke:#C82930;stroke-width:1.0;" width="6" x="527.5" y="833.8112"/><text fill="#000000" font-family="sans-serif" font-size="14" lengthAdjust="spacing" text-decoration="underline" textLength="204" x="539.5" y="840.6022">byteArray2Text(byte[]): String</text><rect fill="#F24D5C" height="6" style="stroke:#C82930;stroke-width:1.0;" width="6" x="527.5" y="850.2995"/><text fill="#000000" font-family="sans-serif" font-size="14" lengthAdjust="spacing" text-decoration="underline" textLength="174" x="539.5" y="857.0905">hexEncode(byte[]): String</text><ellipse cx="530.5" cy="869.7877" fill="#84BE84" rx="3" ry="3" style="stroke:#038048;stroke-width:1.0;"/><text fill="#000000" font-family="sans-serif" font-size="14" lengthAdjust="spacing" text-decoration="underline" textLength="133" x="539.5" y="873.5788">hash(String): String</text><ellipse cx="530.5" cy="886.276" fill="#84BE84" rx="3" ry="3" style="stroke:#038048;stroke-width:1.0;"/><text fill="#000000" font-family="sans-serif" font-size="14" lengthAdjust="spacing" text-decoration="underline" textLength="260" x="539.5" y="890.067">getAppSessionHashKey(String): String</text><ellipse cx="530.5" cy="902.7643" fill="#84BE84" rx="3" ry="3" style="stroke:#038048;stroke-width:1.0;"/><text fill="#000000" font-family="sans-serif" font-size="14" lengthAdjust="spacing" text-decoration="underline" textLength="232" x="539.5" y="906.5553">getAccountName(Address): String</text><ellipse cx="530.5" cy="919.2526" fill="#84BE84" rx="3" ry="3" style="stroke:#038048;stroke-width:1.0;"/><text fill="#000000" font-family="sans-serif" font-size="14" lengthAdjust="spacing" text-decoration="underline" textLength="199" x="539.5" y="923.0436">getAccountName(URI): String</text><ellipse cx="530.5" cy="935.7409" fill="#84BE84" rx="3" ry="3" style="stroke:#038048;stroke-width:1.0;"/><text fill="#000000" font-family="sans-serif" font-size="14" lengthAdjust="spacing" textLength="279" x="539.5" y="939.5319">sendResponse(SipServletResponse): void</text><ellipse cx="530.5" cy="952.2291" fill="#84BE84" rx="3" ry="3" style="stroke:#038048;stroke-width:1.0;"/><text fill="#000000" font-family="sans-serif" font-size="14" lengthAdjust="spacing" text-decoration="underline" textLength="298" x="539.5" y="956.0202">getSessionParameters(): SessionParameters</text><ellipse cx="530.5" cy="968.7174" fill="#84BE84" rx="3" ry="3" style="stroke:#038048;stroke-width:1.0;"/><text fill="#000000" font-family="sans-serif" font-size="14" lengthAdjust="spacing" text-decoration="underline" textLength="325" x="539.5" y="972.5084">setSessionParameters(SessionParameters): void</text></g></a><!--class SipServlet--><g id="elem_SipServlet"><rect codeLine="45" fill="#F1F1F1" height="245.8594" id="SipServlet" rx="2.5" ry="2.5" style="stroke:#181818;stroke-width:0.5;" width="311" x="21.5" y="41"/><ellipse cx="139.25" cy="57" fill="#A9DCDF" rx="11" ry="11" style="stroke:#181818;stroke-width:1.0;"/><path d="M139.1133,52.3481 L137.9595,57.4199 L140.2754,57.4199 Z M137.6191,50.1069 L140.6157,50.1069 L143.9609,62.5 L141.5122,62.5 L140.7485,59.437 L137.4697,59.437 L136.7227,62.5 L134.2739,62.5 Z " fill="#000000"/><text fill="#000000" font-family="sans-serif" font-size="14" font-style="italic" lengthAdjust="spacing" textLength="67" x="159.75" y="62.291">SipServlet</text><line style="stroke:#181818;stroke-width:0.5;" x1="22.5" x2="331.5" y1="73" y2="73"/><ellipse cx="32.5" cy="86.7441" fill="none" rx="3" ry="3" style="stroke:#038048;stroke-width:1.0;"/><text fill="#000000" font-family="sans-serif" font-size="14" lengthAdjust="spacing" text-decoration="underline" textLength="142" x="41.5" y="90.5352">SIP_FACTORY: String</text><ellipse cx="32.5" cy="103.2324" fill="none" rx="3" ry="3" style="stroke:#038048;stroke-width:1.0;"/><text fill="#000000" font-family="sans-serif" font-size="14" lengthAdjust="spacing" text-decoration="underline" textLength="154" x="41.5" y="107.0234">TIMER_SERVICE: String</text><ellipse cx="32.5" cy="119.7207" fill="none" rx="3" ry="3" style="stroke:#038048;stroke-width:1.0;"/><text fill="#000000" font-family="sans-serif" font-size="14" lengthAdjust="spacing" text-decoration="underline" textLength="153" x="41.5" y="123.5117">DNS_RESOLVER: String</text><ellipse cx="32.5" cy="136.209" fill="none" rx="3" ry="3" style="stroke:#038048;stroke-width:1.0;"/><text fill="#000000" font-family="sans-serif" font-size="14" lengthAdjust="spacing" text-decoration="underline" textLength="130" x="41.5" y="140">SUPPORTED: String</text><ellipse cx="32.5" cy="152.6973" fill="none" rx="3" ry="3" style="stroke:#038048;stroke-width:1.0;"/><text fill="#000000" font-family="sans-serif" font-size="14" lengthAdjust="spacing" text-decoration="underline" textLength="171" x="41.5" y="156.4883">SUPPORTED_RFCs: String</text><ellipse cx="32.5" cy="169.1855" fill="none" rx="3" ry="3" style="stroke:#038048;stroke-width:1.0;"/><text fill="#000000" font-family="sans-serif" font-size="14" lengthAdjust="spacing" text-decoration="underline" textLength="219" x="41.5" y="172.9766">OUTBOUND_INTERFACES: String</text><ellipse cx="32.5" cy="185.6738" fill="none" rx="3" ry="3" style="stroke:#038048;stroke-width:1.0;"/><text fill="#000000" font-family="sans-serif" font-size="14" lengthAdjust="spacing" text-decoration="underline" textLength="214" x="41.5" y="189.4648">OUTBOUND_ADDRESSES: String</text><ellipse cx="32.5" cy="202.1621" fill="none" rx="3" ry="3" style="stroke:#038048;stroke-width:1.0;"/><text fill="#000000" font-family="sans-serif" font-size="14" lengthAdjust="spacing" text-decoration="underline" textLength="178" x="41.5" y="205.9531">SIP_SESSIONS_UTIL: String</text><ellipse cx="32.5" cy="218.6504" fill="none" rx="3" ry="3" style="stroke:#038048;stroke-width:1.0;"/><text fill="#000000" font-family="sans-serif" font-size="14" lengthAdjust="spacing" text-decoration="underline" textLength="134" x="41.5" y="222.4414">PRACK_SUPPORTED</text><text fill="#000000" font-family="sans-serif" font-size="14" lengthAdjust="spacing" text-decoration="underline" textLength="49" x="175.5" y="222.4414">: String</text><ellipse cx="32.5" cy="235.1387" fill="none" rx="3" ry="3" style="stroke:#038048;stroke-width:1.0;"/><text fill="#000000" font-family="sans-serif" font-size="14" lengthAdjust="spacing" text-decoration="underline" textLength="257" x="41.5" y="238.9297">SIP_APPLICATIONSESSION_KEY: String</text><ellipse cx="32.5" cy="251.627" fill="none" rx="3" ry="3" style="stroke:#038048;stroke-width:1.0;"/><text fill="#000000" font-family="sans-serif" font-size="14" lengthAdjust="spacing" text-decoration="underline" textLength="245" x="41.5" y="255.418">SIP_APPLICATIONSESSION_ID: String</text><ellipse cx="32.5" cy="268.1152" fill="none" rx="3" ry="3" style="stroke:#038048;stroke-width:1.0;"/><text fill="#000000" font-family="sans-serif" font-size="14" lengthAdjust="spacing" text-decoration="underline" textLength="285" x="41.5" y="271.9063">SIP_APPLICATIONSESSION_CREATE: String</text><line style="stroke:#181818;stroke-width:0.5;" x1="22.5" x2="331.5" y1="278.8594" y2="278.8594"/></g><!--class SipServletListener--><g id="elem_SipServletListener"><rect codeLine="59" fill="#F1F1F1" height="64.4883" id="SipServletListener" rx="2.5" ry="2.5" style="stroke:#181818;stroke-width:0.5;" width="344" x="367" y="131.68"/><ellipse cx="474.25" cy="147.68" fill="#B4A7E5" rx="11" ry="11" style="stroke:#181818;stroke-width:1.0;"/><path d="M470.6777,143.9451 L470.6777,141.7869 L478.0571,141.7869 L478.0571,143.9451 L475.5918,143.9451 L475.5918,152.0218 L478.0571,152.0218 L478.0571,154.18 L470.6777,154.18 L470.6777,152.0218 L473.1431,152.0218 L473.1431,143.9451 Z " fill="#000000"/><text fill="#000000" font-family="sans-serif" font-size="14" font-style="italic" lengthAdjust="spacing" textLength="121" x="494.75" y="152.971">SipServletListener</text><line style="stroke:#181818;stroke-width:0.5;" x1="368" x2="710" y1="163.68" y2="163.68"/><line style="stroke:#181818;stroke-width:0.5;" x1="368" x2="710" y1="171.68" y2="171.68"/><ellipse cx="378" cy="185.4241" fill="#84BE84" rx="3" ry="3" style="stroke:#038048;stroke-width:1.0;"/><text fill="#000000" font-family="sans-serif" font-size="14" font-style="italic" lengthAdjust="spacing" textLength="318" x="387" y="189.2152">servletInitialized(SipServletContextEvent): void</text></g><!--class TimerListener--><g id="elem_TimerListener"><rect codeLine="62" fill="#F1F1F1" height="64.4883" id="TimerListener" rx="2.5" ry="2.5" style="stroke:#181818;stroke-width:0.5;" width="212" x="746" y="131.68"/><ellipse cx="800.75" cy="147.68" fill="#B4A7E5" rx="11" ry="11" style="stroke:#181818;stroke-width:1.0;"/><path d="M797.1777,143.9451 L797.1777,141.7869 L804.5571,141.7869 L804.5571,143.9451 L802.0918,143.9451 L802.0918,152.0218 L804.5571,152.0218 L804.5571,154.18 L797.1777,154.18 L797.1777,152.0218 L799.6431,152.0218 L799.6431,143.9451 Z " fill="#000000"/><text fill="#000000" font-family="sans-serif" font-size="14" font-style="italic" lengthAdjust="spacing" textLength="94" x="821.25" y="152.971">TimerListener</text><line style="stroke:#181818;stroke-width:0.5;" x1="747" x2="957" y1="163.68" y2="163.68"/><line style="stroke:#181818;stroke-width:0.5;" x1="747" x2="957" y1="171.68" y2="171.68"/><ellipse cx="757" cy="185.4241" fill="#84BE84" rx="3" ry="3" style="stroke:#038048;stroke-width:1.0;"/><text fill="#000000" font-family="sans-serif" font-size="14" font-style="italic" lengthAdjust="spacing" textLength="186" x="766" y="189.2152">timeout(ServletTimer): void</text></g><!--class ServletContextListener--><a href="https://javaee.github.io/javaee-spec/javadocs/javax/servlet/ServletContextListener.html?is-external=true" target="_top" title="https://javaee.github.io/javaee-spec/javadocs/javax/servlet/ServletContextListener.html?is-external=true" xlink:actuate="onRequest" xlink:href="https://javaee.github.io/javaee-spec/javadocs/javax/servlet/ServletContextListener.html?is-external=true" xlink:show="new" xlink:title="https://javaee.github.io/javaee-spec/javadocs/javax/servlet/ServletContextListener.html?is-external=true" xlink:type="simple"><g id="elem_ServletContextListener"><rect codeLine="68" fill="#F1F1F1" height="80.9766" id="ServletContextListener" rx="2.5" ry="2.5" style="stroke:#181818;stroke-width:0.5;" width="332" x="1014" y="123.44"/><ellipse cx="1098.25" cy="139.44" fill="#B4A7E5" rx="11" ry="11" style="stroke:#181818;stroke-width:1.0;"/><path d="M1094.6777,135.7051 L1094.6777,133.5469 L1102.0571,133.5469 L1102.0571,135.7051 L1099.5918,135.7051 L1099.5918,143.7818 L1102.0571,143.7818 L1102.0571,145.94 L1094.6777,145.94 L1094.6777,143.7818 L1097.1431,143.7818 L1097.1431,135.7051 Z " fill="#000000"/><text fill="#000000" font-family="sans-serif" font-size="14" font-style="italic" lengthAdjust="spacing" textLength="155" x="1118.75" y="144.731">ServletContextListener</text><line style="stroke:#181818;stroke-width:0.5;" x1="1015" x2="1345" y1="155.44" y2="155.44"/><line style="stroke:#181818;stroke-width:0.5;" x1="1015" x2="1345" y1="163.44" y2="163.44"/><ellipse cx="1025" cy="177.1841" fill="#84BE84" rx="3" ry="3" style="stroke:#038048;stroke-width:1.0;"/><text fill="#000000" font-family="sans-serif" font-size="14" lengthAdjust="spacing" textLength="304" x="1034" y="180.9752">contextInitialized(ServletContextEvent): void</text><ellipse cx="1025" cy="193.6724" fill="#84BE84" rx="3" ry="3" style="stroke:#038048;stroke-width:1.0;"/><text fill="#000000" font-family="sans-serif" font-size="14" lengthAdjust="spacing" textLength="306" x="1034" y="197.4634">contextDestroyed(ServletContextEvent): void</text></g></a><!--class Logger--><g id="elem_Logger"><rect fill="#F1F1F1" height="48" id="Logger" rx="2.5" ry="2.5" style="stroke:#181818;stroke-width:0.5;" width="80" x="558" y="1079.46"/><ellipse cx="573" cy="1095.46" fill="#ADD1B2" rx="11" ry="11" style="stroke:#181818;stroke-width:1.0;"/><path d="M575.4731,1101.6031 Q574.8921,1101.9019 574.2529,1102.0513 Q573.6138,1102.2007 572.9082,1102.2007 Q570.4014,1102.2007 569.0815,1100.5489 Q567.7617,1098.897 567.7617,1095.7759 Q567.7617,1092.6465 569.0815,1090.9947 Q570.4014,1089.3428 572.9082,1089.3428 Q573.6138,1089.3428 574.2612,1089.4922 Q574.9087,1089.6416 575.4731,1089.9405 L575.4731,1092.6631 Q574.8423,1092.0821 574.2488,1091.8123 Q573.6553,1091.5425 573.0244,1091.5425 Q571.6797,1091.5425 570.9949,1092.6092 Q570.3101,1093.6758 570.3101,1095.7759 Q570.3101,1097.8677 570.9949,1098.9344 Q571.6797,1100.001 573.0244,1100.001 Q573.6553,1100.001 574.2488,1099.7312 Q574.8423,1099.4615 575.4731,1098.8804 Z " fill="#000000"/><text fill="#000000" font-family="sans-serif" font-size="14" lengthAdjust="spacing" textLength="48" x="587" y="1100.751">Logger</text><line style="stroke:#181818;stroke-width:0.5;" x1="559" x2="637" y1="1111.46" y2="1111.46"/><line style="stroke:#181818;stroke-width:0.5;" x1="559" x2="637" y1="1119.46" y2="1119.46"/></g><!--class SessionParameters--><g id="elem_SessionParameters"><rect fill="#F1F1F1" height="48" id="SessionParameters" rx="2.5" ry="2.5" style="stroke:#181818;stroke-width:0.5;" width="161" x="693.5" y="1079.46"/><ellipse cx="708.5" cy="1095.46" fill="#ADD1B2" rx="11" ry="11" style="stroke:#181818;stroke-width:1.0;"/><path d="M710.9731,1101.6031 Q710.3921,1101.9019 709.7529,1102.0513 Q709.1138,1102.2007 708.4082,1102.2007 Q705.9014,1102.2007 704.5815,1100.5489 Q703.2617,1098.897 703.2617,1095.7759 Q703.2617,1092.6465 704.5815,1090.9947 Q705.9014,1089.3428 708.4082,1089.3428 Q709.1138,1089.3428 709.7612,1089.4922 Q710.4087,1089.6416 710.9731,1089.9405 L710.9731,1092.6631 Q710.3423,1092.0821 709.7488,1091.8123 Q709.1553,1091.5425 708.5244,1091.5425 Q707.1797,1091.5425 706.4949,1092.6092 Q705.8101,1093.6758 705.8101,1095.7759 Q705.8101,1097.8677 706.4949,1098.9344 Q707.1797,1100.001 708.5244,1100.001 Q709.1553,1100.001 709.7488,1099.7312 Q710.3423,1099.4615 710.9731,1098.8804 Z " fill="#000000"/><text fill="#000000" font-family="sans-serif" font-size="14" lengthAdjust="spacing" textLength="129" x="722.5" y="1100.751">SessionParameters</text><line style="stroke:#181818;stroke-width:0.5;" x1="694.5" x2="853.5" y1="1111.46" y2="1111.46"/><line style="stroke:#181818;stroke-width:0.5;" x1="694.5" x2="853.5" y1="1119.46" y2="1119.46"/></g><!--reverse link SipServlet to AsyncSipServlet--><g id="link_SipServlet_AsyncSipServlet"><path codeLine="74" d="M314.2366,299.8483 C379.4966,363.9983 447.7,431.05 519.25,501.39 " fill="none" id="SipServlet-backto-AsyncSipServlet" style="stroke:#181818;stroke-width:1.0;"/><polygon fill="none" points="301.4,287.23,310.0305,304.1272,318.4427,295.5694,301.4,287.23" style="stroke:#181818;stroke-width:1.0;"/></g><!--reverse link SipServletListener to AsyncSipServlet--><g id="link_SipServletListener_AsyncSipServlet"><path codeLine="75" d="M553.9111,213.6109 C565.3011,250.8009 580.22,299.47 602.02,370.64 " fill="none" id="SipServletListener-backto-AsyncSipServlet" style="stroke:#181818;stroke-width:1.0;stroke-dasharray:7.0,7.0;"/><polygon fill="none" points="548.64,196.4,548.1741,215.3679,559.6481,211.8539,548.64,196.4" style="stroke:#181818;stroke-width:1.0;"/></g><!--reverse link ServletContextListener to AsyncSipServlet--><g id="link_ServletContextListener_AsyncSipServlet"><path codeLine="76" d="M1129.5267,217.9249 C1071.4167,278.9449 969.32,386.14 870.76,489.62 " fill="none" id="ServletContextListener-backto-AsyncSipServlet" style="stroke:#181818;stroke-width:1.0;stroke-dasharray:7.0,7.0;"/><polygon fill="none" points="1141.94,204.89,1125.1817,213.7872,1133.8717,222.0627,1141.94,204.89" style="stroke:#181818;stroke-width:1.0;"/></g><!--reverse link TimerListener to AsyncSipServlet--><g id="link_TimerListener_AsyncSipServlet"><path codeLine="77" d="M836.9951,213.6005 C825.5251,250.7905 810.52,299.47 788.58,370.64 " fill="none" id="TimerListener-backto-AsyncSipServlet" style="stroke:#181818;stroke-width:1.0;stroke-dasharray:7.0,7.0;"/><polygon fill="none" points="842.3,196.4,831.2616,211.8322,842.7286,215.3688,842.3,196.4" style="stroke:#181818;stroke-width:1.0;"/></g><!--link AsyncSipServlet to Logger--><g id="link_AsyncSipServlet_Logger"><path codeLine="78" d="M625.93,979.73 C616.46,1021.33 609.6119,1051.4497 604.5919,1073.4997 " fill="none" id="AsyncSipServlet-to-Logger" style="stroke:#181818;stroke-width:1.0;"/><polygon fill="#181818" points="603.26,1079.35,609.1581,1071.4625,604.3699,1074.4747,601.3577,1069.6866,603.26,1079.35" style="stroke:#181818;stroke-width:1.0;"/><text fill="#000000" font-family="sans-serif" font-size="13" lengthAdjust="spacing" textLength="62" x="617" y="1025.0284">sipLogger</text></g><!--link AsyncSipServlet to SessionParameters--><g id="link_AsyncSipServlet_SessionParameters"><path codeLine="79" d="M751.26,979.73 C758.97,1021.33 764.5357,1051.4006 768.6257,1073.4506 " fill="none" id="AsyncSipServlet-to-SessionParameters" style="stroke:#181818;stroke-width:1.0;"/><polygon fill="#181818" points="769.72,1079.35,772.0115,1069.7714,768.8081,1074.4339,764.1457,1071.2304,769.72,1079.35" style="stroke:#181818;stroke-width:1.0;"/><text fill="#000000" font-family="sans-serif" font-size="13" lengthAdjust="spacing" textLength="117" x="759" y="1025.0284">sessionParameters</text></g><text fill="#888888" font-family="sans-serif" font-size="10" lengthAdjust="spacing" textLength="176" x="589.5" y="1159.128">UMLDoclet 2.1.2, PlantUML 1.2024.3</text><!--SRC=[lLTjRzem4Fw-Ns5fcaJ5achz6Er5MP9gKHb4IQWqeGgvYG5lQPpPXi4w_llEIMX324rAfo4XpF7SyznTpZw344A2I7Xdc6F9E3ACLw_0Y38S_S1pWXYVwol6CvpejmcEYJxZ-8xyOlm7kY-GweLlXUGuaYXAi13859iq2cWM4BvAW7uogLdqXRnBRcw00bLUzq9YIQCjqWJX52VNX0lAqh5h6oXXwNmFh94LIQM17aajbagobewoD_E-5ZIxX30Pt-IEvVeuU2nfKae85OfGXYDmIUy8Lw7GY1Weh7mxagJl1Dve63XJonmCFflMrTGTNhkX0uAIqrgwzxiIgy3AV3d1aiIzvWgS6MZ5QDn6OXEmiCt9DD62CK4id2IpXFsgaFZavnAumN_tunv7lzHtKohXKTFVpugWpmls7D0eskGYCdY2vD2di3SwHKKWUr5s3B5qhHIuOtLt3TAVavJ0hYHk6fFr5Taq9jhGAwzZLlxUhJGvlYX2rxgePcTBkSifx_QsP2Hm3zXyJdWFeCNg25XKmSL75_PoFolwjjrTIkmy7fTTTDGfK8gq7mobKkvJSsZLgfuYIh33gNAxaSJa76ykGkYodlewkMdkaqUd1LaxQSHYqWtVNs2nw1M8DYXaOMQxhB-0Nzx8dLsZY2rJEOIPqpFZ6FQmUARNs7URFU2vfF4p-tw_4OgSFAmceeHPbRT4tVX4Knpu7rZgCMoBaRlTdz7VyGglzV90rM5iLUPgRJ9NXlAHsTiFN6zwQLhXoF_MKkdG_Uhuqy3nhrtBQS7Qms0A0syqk7Ry5cWmzhoH7pfsLzpKlxH42tWq3Z-FnaCRPcpe-92V4tJrC6qR8WzQ7LJX01MuCDIduz0TjE0rpVFLr7_8GzCwA9YUDt0jCrGgXTZqolbscgDhd-Pd-OxPS4_PFgmeZ3W-mn6fDDo02ga6Mhtn7YyJfzy9cfJpixA3Q9THjctTTXM1Il9xaJ_4CfaifCo4SNwkA0ZHvrGkbhSwPQL14nc9ydNC8f4lrkUbq7apQNwZ_aI51ZR2Kvnya7n93gxO__j2irUuWtFAC2hdqVi_clR4tmt3gFs7QATyAFZxFxh-CcgWRNwMBwSkejxlrfDOdu57clRn2RoUm9KBThPX57Sl0udTRUnVAq5JpUXSbRSs-a2pSPH6H6qlD6DCVOo_3cmMAPqB_Pr-yHPv2KubMD6RLV7liNVs5m00]--></g></svg>