<?xml version="1.0" encoding="us-ascii" standalone="no"?><svg xmlns="http://www.w3.org/2000/svg" xmlns:xlink="http://www.w3.org/1999/xlink" contentStyleType="text/css" height="649px" preserveAspectRatio="none" style="width:1896px;height:649px;background:#FFFFFF;" version="1.1" viewBox="0 0 1896 649" width="1896px" zoomAndPan="magnify"><defs/><g><!--cluster org.vorpal.blade.applications.console.mxgraph--><g id="cluster_org.vorpal.blade.applications.console.mxgraph"><path d="M8.5,310.37 L338.5,310.37 A3.75,3.75 0 0 1 341,312.87 L348,332.8583 L1886.5,332.8583 A2.5,2.5 0 0 1 1889,335.3583 L1889,621.22 A2.5,2.5 0 0 1 1886.5,623.72 L8.5,623.72 A2.5,2.5 0 0 1 6,621.22 L6,312.87 A2.5,2.5 0 0 1 8.5,310.37 " fill="none" style="stroke:#000000;stroke-width:1.5;"/><line style="stroke:#000000;stroke-width:1.5;" x1="6" x2="348" y1="332.8583" y2="332.8583"/><text fill="#000000" font-family="sans-serif" font-size="14" font-weight="bold" lengthAdjust="spacing" textLength="329" x="10" y="325.9052">org.vorpal.blade.applications.console.mxgraph</text></g><!--cluster javax.servlet.http--><g id="cluster_javax.servlet.http"><path d="M885.5,6 L1008.5,6 A3.75,3.75 0 0 1 1011,8.5 L1018,28.4883 L1134.5,28.4883 A2.5,2.5 0 0 1 1137,30.9883 L1137,283.87 A2.5,2.5 0 0 1 1134.5,286.37 L885.5,286.37 A2.5,2.5 0 0 1 883,283.87 L883,8.5 A2.5,2.5 0 0 1 885.5,6 " fill="none" style="stroke:#000000;stroke-width:1.5;"/><line style="stroke:#000000;stroke-width:1.5;" x1="883" x2="1018" y1="28.4883" y2="28.4883"/><text fill="#000000" font-family="sans-serif" font-size="14" font-weight="bold" lengthAdjust="spacing" textLength="122" x="887" y="21.5352">javax.servlet.http</text></g><!--class SaveServlet--><a href="SaveServlet.html" target="_top" title="SaveServlet.html" xlink:actuate="onRequest" xlink:href="SaveServlet.html" xlink:show="new" xlink:title="SaveServlet.html" xlink:type="simple"><g id="elem_SaveServlet"><rect codeLine="5" fill="#F1F1F1" height="130.4414" id="SaveServlet" rx="2.5" ry="2.5" style="stroke:#181818;stroke-width:0.5;" width="428" x="22" y="411.33"/><ellipse cx="193.25" cy="427.33" fill="#ADD1B2" rx="11" ry="11" style="stroke:#181818;stroke-width:1.0;"/><path d="M195.7231,433.4731 Q195.1421,433.7719 194.5029,433.9213 Q193.8638,434.0707 193.1582,434.0707 Q190.6514,434.0707 189.3315,432.4189 Q188.0117,430.767 188.0117,427.6459 Q188.0117,424.5165 189.3315,422.8647 Q190.6514,421.2128 193.1582,421.2128 Q193.8638,421.2128 194.5112,421.3622 Q195.1587,421.5116 195.7231,421.8105 L195.7231,424.5331 Q195.0923,423.9521 194.4988,423.6823 Q193.9053,423.4125 193.2744,423.4125 Q191.9297,423.4125 191.2449,424.4792 Q190.5601,425.5458 190.5601,427.6459 Q190.5601,429.7377 191.2449,430.8044 Q191.9297,431.871 193.2744,431.871 Q193.9053,431.871 194.4988,431.6012 Q195.0923,431.3315 195.7231,430.7504 Z " fill="#000000"/><text fill="#000000" font-family="sans-serif" font-size="14" lengthAdjust="spacing" textLength="77" x="213.75" y="432.621">SaveServlet</text><line style="stroke:#181818;stroke-width:0.5;" x1="23" x2="449" y1="443.33" y2="443.33"/><rect fill="none" height="6" style="stroke:#C82930;stroke-width:1.0;" width="6" x="30" y="454.0741"/><text fill="#000000" font-family="sans-serif" font-size="14" lengthAdjust="spacing" text-decoration="underline" textLength="152" x="42" y="460.8652">serialVersionUID: long</text><rect fill="none" height="6" style="stroke:#C82930;stroke-width:1.0;" width="6" x="30" y="470.5624"/><text fill="#000000" font-family="sans-serif" font-size="14" lengthAdjust="spacing" text-decoration="underline" textLength="78" x="42" y="477.3534">log: Logger</text><line style="stroke:#181818;stroke-width:0.5;" x1="23" x2="449" y1="484.3066" y2="484.3066"/><polygon fill="#FFFF44" points="33,493.0507,37,497.0507,33,501.0507,29,497.0507" style="stroke:#B38D22;stroke-width:1.0;"/><text fill="#000000" font-family="sans-serif" font-size="14" lengthAdjust="spacing" textLength="373" x="42" y="501.8417">doPost(HttpServletRequest, HttpServletResponse): void</text><polygon fill="#FFFF44" points="33,509.539,37,513.539,33,517.539,29,513.539" style="stroke:#B38D22;stroke-width:1.0;"/><text fill="#000000" font-family="sans-serif" font-size="14" lengthAdjust="spacing" text-decoration="underline" textLength="215" x="42" y="518.33">validateFilename(String): String</text><ellipse cx="33" cy="531.0273" fill="#84BE84" rx="3" ry="3" style="stroke:#038048;stroke-width:1.0;"/><text fill="#000000" font-family="sans-serif" font-size="14" lengthAdjust="spacing" text-decoration="underline" textLength="402" x="42" y="534.8183">handlePost(HttpServletRequest, HttpServletResponse): void</text></g></a><!--class Formatter--><a href="Formatter.html" target="_top" title="Formatter.html" xlink:actuate="onRequest" xlink:href="Formatter.html" xlink:show="new" xlink:title="Formatter.html" xlink:type="simple"><g id="elem_Formatter"><rect codeLine="13" fill="#F1F1F1" height="130.4414" id="Formatter" rx="2.5" ry="2.5" style="stroke:#181818;stroke-width:0.5;" width="291" x="484.5" y="411.33"/><ellipse cx="591.75" cy="427.33" fill="#ADD1B2" rx="11" ry="11" style="stroke:#181818;stroke-width:1.0;"/><path d="M594.2231,433.4731 Q593.6421,433.7719 593.0029,433.9213 Q592.3638,434.0707 591.6582,434.0707 Q589.1514,434.0707 587.8315,432.4189 Q586.5117,430.767 586.5117,427.6459 Q586.5117,424.5165 587.8315,422.8647 Q589.1514,421.2128 591.6582,421.2128 Q592.3638,421.2128 593.0112,421.3622 Q593.6587,421.5116 594.2231,421.8105 L594.2231,424.5331 Q593.5923,423.9521 592.9988,423.6823 Q592.4053,423.4125 591.7744,423.4125 Q590.4297,423.4125 589.7449,424.4792 Q589.0601,425.5458 589.0601,427.6459 Q589.0601,429.7377 589.7449,430.8044 Q590.4297,431.871 591.7744,431.871 Q592.4053,431.871 592.9988,431.6012 Q593.5923,431.3315 594.2231,430.7504 Z " fill="#000000"/><text fill="#000000" font-family="sans-serif" font-size="14" lengthAdjust="spacing" textLength="68" x="612.25" y="432.621">Formatter</text><line style="stroke:#181818;stroke-width:0.5;" x1="485.5" x2="774.5" y1="443.33" y2="443.33"/><line style="stroke:#181818;stroke-width:0.5;" x1="485.5" x2="774.5" y1="451.33" y2="451.33"/><ellipse cx="495.5" cy="465.0741" fill="#84BE84" rx="3" ry="3" style="stroke:#038048;stroke-width:1.0;"/><text fill="#000000" font-family="sans-serif" font-size="14" lengthAdjust="spacing" text-decoration="underline" textLength="225" x="504.5" y="468.8652">xmlDocument(String): Document</text><ellipse cx="495.5" cy="481.5624" fill="#84BE84" rx="3" ry="3" style="stroke:#038048;stroke-width:1.0;"/><text fill="#000000" font-family="sans-serif" font-size="14" lengthAdjust="spacing" text-decoration="underline" textLength="226" x="504.5" y="485.3534">xmlPrettyPrint(Document): String</text><ellipse cx="495.5" cy="498.0507" fill="#84BE84" rx="3" ry="3" style="stroke:#038048;stroke-width:1.0;"/><text fill="#000000" font-family="sans-serif" font-size="14" lengthAdjust="spacing" text-decoration="underline" textLength="197" x="504.5" y="501.8417">xmlPrettyPrint(String): String</text><ellipse cx="495.5" cy="514.539" fill="#84BE84" rx="3" ry="3" style="stroke:#038048;stroke-width:1.0;"/><text fill="#000000" font-family="sans-serif" font-size="14" lengthAdjust="spacing" text-decoration="underline" textLength="265" x="504.5" y="518.33">xmlSaveToFile(String, Document): void</text><ellipse cx="495.5" cy="531.0273" fill="#84BE84" rx="3" ry="3" style="stroke:#038048;stroke-width:1.0;"/><text fill="#000000" font-family="sans-serif" font-size="14" lengthAdjust="spacing" text-decoration="underline" textLength="236" x="504.5" y="534.8183">xmlSaveToFile(String, String): void</text></g></a><!--class Roundtrip--><a href="Roundtrip.html" target="_top" title="Roundtrip.html" xlink:actuate="onRequest" xlink:href="Roundtrip.html" xlink:show="new" xlink:title="Roundtrip.html" xlink:type="simple"><g id="elem_Roundtrip"><rect codeLine="21" fill="#F1F1F1" height="146.9297" id="Roundtrip" rx="2.5" ry="2.5" style="stroke:#181818;stroke-width:0.5;" width="399" x="810.5" y="403.08"/><ellipse cx="971.25" cy="419.08" fill="#ADD1B2" rx="11" ry="11" style="stroke:#181818;stroke-width:1.0;"/><path d="M973.7231,425.2231 Q973.1421,425.5219 972.5029,425.6713 Q971.8638,425.8207 971.1582,425.8207 Q968.6514,425.8207 967.3315,424.1689 Q966.0117,422.517 966.0117,419.3959 Q966.0117,416.2665 967.3315,414.6147 Q968.6514,412.9628 971.1582,412.9628 Q971.8638,412.9628 972.5112,413.1122 Q973.1587,413.2616 973.7231,413.5605 L973.7231,416.2831 Q973.0923,415.7021 972.4988,415.4323 Q971.9053,415.1625 971.2744,415.1625 Q969.9297,415.1625 969.2449,416.2292 Q968.5601,417.2958 968.5601,419.3959 Q968.5601,421.4877 969.2449,422.5544 Q969.9297,423.621 971.2744,423.621 Q971.9053,423.621 972.4988,423.3512 Q973.0923,423.0815 973.7231,422.5004 Z " fill="#000000"/><text fill="#000000" font-family="sans-serif" font-size="14" lengthAdjust="spacing" textLength="69" x="991.75" y="424.371">Roundtrip</text><line style="stroke:#181818;stroke-width:0.5;" x1="811.5" x2="1208.5" y1="435.08" y2="435.08"/><rect fill="none" height="6" style="stroke:#C82930;stroke-width:1.0;" width="6" x="818.5" y="445.8241"/><text fill="#000000" font-family="sans-serif" font-size="14" lengthAdjust="spacing" text-decoration="underline" textLength="152" x="830.5" y="452.6152">serialVersionUID: long</text><rect fill="none" height="6" style="stroke:#C82930;stroke-width:1.0;" width="6" x="818.5" y="462.3124"/><text fill="#000000" font-family="sans-serif" font-size="14" lengthAdjust="spacing" text-decoration="underline" textLength="79" x="830.5" y="469.1034">counter: int</text><polygon fill="none" points="821.5,476.8007,825.5,480.8007,821.5,484.8007,817.5,480.8007" style="stroke:#B38D22;stroke-width:1.0;"/><text fill="#000000" font-family="sans-serif" font-size="14" lengthAdjust="spacing" text-decoration="underline" textLength="149" x="830.5" y="485.5917">emptyDiagram: String</text><polygon fill="none" points="821.5,493.289,825.5,497.289,821.5,501.289,817.5,497.289" style="stroke:#B38D22;stroke-width:1.0;"/><text fill="#000000" font-family="sans-serif" font-size="14" lengthAdjust="spacing" text-decoration="underline" textLength="242" x="830.5" y="502.08">diagrams: Map&lt;String, Document&gt;</text><line style="stroke:#181818;stroke-width:0.5;" x1="811.5" x2="1208.5" y1="509.0331" y2="509.0331"/><polygon fill="#FFFF44" points="821.5,517.7773,825.5,521.7773,821.5,525.7773,817.5,521.7773" style="stroke:#B38D22;stroke-width:1.0;"/><text fill="#000000" font-family="sans-serif" font-size="14" lengthAdjust="spacing" textLength="373" x="830.5" y="526.5683">doPost(HttpServletRequest, HttpServletResponse): void</text><polygon fill="#FFFF44" points="821.5,534.2655,825.5,538.2655,821.5,542.2655,817.5,538.2655" style="stroke:#B38D22;stroke-width:1.0;"/><text fill="#000000" font-family="sans-serif" font-size="14" lengthAdjust="spacing" textLength="367" x="830.5" y="543.0566">doGet(HttpServletRequest, HttpServletResponse): void</text></g></a><!--class FindProblemJars--><a href="FindProblemJars.html" target="_top" title="FindProblemJars.html" xlink:actuate="onRequest" xlink:href="FindProblemJars.html" xlink:show="new" xlink:title="FindProblemJars.html" xlink:type="simple"><g id="elem_FindProblemJars"><rect codeLine="30" fill="#F1F1F1" height="64.4883" id="FindProblemJars" rx="2.5" ry="2.5" style="stroke:#181818;stroke-width:0.5;" width="158" x="1244" y="444.3"/><ellipse cx="1265.3" cy="460.3" fill="#ADD1B2" rx="11" ry="11" style="stroke:#181818;stroke-width:1.0;"/><path d="M1267.7731,466.4431 Q1267.1921,466.7419 1266.5529,466.8913 Q1265.9138,467.0407 1265.2082,467.0407 Q1262.7014,467.0407 1261.3815,465.3889 Q1260.0617,463.737 1260.0617,460.6159 Q1260.0617,457.4865 1261.3815,455.8347 Q1262.7014,454.1828 1265.2082,454.1828 Q1265.9138,454.1828 1266.5612,454.3322 Q1267.2087,454.4816 1267.7731,454.7805 L1267.7731,457.5031 Q1267.1423,456.9221 1266.5488,456.6523 Q1265.9553,456.3825 1265.3244,456.3825 Q1263.9797,456.3825 1263.2949,457.4492 Q1262.6101,458.5158 1262.6101,460.6159 Q1262.6101,462.7077 1263.2949,463.7744 Q1263.9797,464.841 1265.3244,464.841 Q1265.9553,464.841 1266.5488,464.5712 Q1267.1423,464.3015 1267.7731,463.7204 Z " fill="#000000"/><text fill="#000000" font-family="sans-serif" font-size="14" lengthAdjust="spacing" textLength="112" x="1280.7" y="465.591">FindProblemJars</text><line style="stroke:#181818;stroke-width:0.5;" x1="1245" x2="1401" y1="476.3" y2="476.3"/><line style="stroke:#181818;stroke-width:0.5;" x1="1245" x2="1401" y1="484.3" y2="484.3"/><ellipse cx="1255" cy="498.0441" fill="#84BE84" rx="3" ry="3" style="stroke:#038048;stroke-width:1.0;"/><text fill="#000000" font-family="sans-serif" font-size="14" lengthAdjust="spacing" text-decoration="underline" textLength="132" x="1264" y="501.8352">main(String[]): void</text></g></a><!--class OpenServlet--><a href="OpenServlet.html" target="_top" title="OpenServlet.html" xlink:actuate="onRequest" xlink:href="OpenServlet.html" xlink:show="new" xlink:title="OpenServlet.html" xlink:type="simple"><g id="elem_OpenServlet"><rect codeLine="34" fill="#F1F1F1" height="262.3477" id="OpenServlet" rx="2.5" ry="2.5" style="stroke:#181818;stroke-width:0.5;" width="436" x="1437" y="345.37"/><ellipse cx="1609.25" cy="361.37" fill="#ADD1B2" rx="11" ry="11" style="stroke:#181818;stroke-width:1.0;"/><path d="M1611.7231,367.5131 Q1611.1421,367.8119 1610.5029,367.9613 Q1609.8638,368.1107 1609.1582,368.1107 Q1606.6514,368.1107 1605.3315,366.4589 Q1604.0117,364.807 1604.0117,361.6859 Q1604.0117,358.5565 1605.3315,356.9047 Q1606.6514,355.2528 1609.1582,355.2528 Q1609.8638,355.2528 1610.5112,355.4022 Q1611.1587,355.5516 1611.7231,355.8505 L1611.7231,358.5731 Q1611.0923,357.9921 1610.4988,357.7223 Q1609.9053,357.4525 1609.2744,357.4525 Q1607.9297,357.4525 1607.2449,358.5192 Q1606.5601,359.5858 1606.5601,361.6859 Q1606.5601,363.7777 1607.2449,364.8444 Q1607.9297,365.911 1609.2744,365.911 Q1609.9053,365.911 1610.4988,365.6412 Q1611.0923,365.3715 1611.7231,364.7904 Z " fill="#000000"/><text fill="#000000" font-family="sans-serif" font-size="14" lengthAdjust="spacing" textLength="83" x="1629.75" y="366.661">OpenServlet</text><line style="stroke:#181818;stroke-width:0.5;" x1="1438" x2="1872" y1="377.37" y2="377.37"/><rect fill="none" height="6" style="stroke:#C82930;stroke-width:1.0;" width="6" x="1445" y="388.1141"/><text fill="#000000" font-family="sans-serif" font-size="14" lengthAdjust="spacing" text-decoration="underline" textLength="152" x="1457" y="394.9052">serialVersionUID: long</text><rect fill="none" height="6" style="stroke:#C82930;stroke-width:1.0;" width="6" x="1445" y="404.6024"/><text fill="#000000" font-family="sans-serif" font-size="14" lengthAdjust="spacing" text-decoration="underline" textLength="78" x="1457" y="411.3934">log: Logger</text><ellipse cx="1448" cy="424.0907" fill="none" rx="3" ry="3" style="stroke:#038048;stroke-width:1.0;"/><text fill="#000000" font-family="sans-serif" font-size="14" lengthAdjust="spacing" text-decoration="underline" textLength="238" x="1457" y="427.8817">ENABLE_GLIFFY_SUPPORT: boolean</text><ellipse cx="1448" cy="440.579" fill="none" rx="3" ry="3" style="stroke:#038048;stroke-width:1.0;"/><text fill="#000000" font-family="sans-serif" font-size="14" lengthAdjust="spacing" text-decoration="underline" textLength="258" x="1457" y="444.37">ENABLE_GRAPHML_SUPPORT: boolean</text><ellipse cx="1448" cy="457.0673" fill="none" rx="3" ry="3" style="stroke:#038048;stroke-width:1.0;"/><text fill="#000000" font-family="sans-serif" font-size="14" lengthAdjust="spacing" text-decoration="underline" textLength="152" x="1457" y="460.8583">PNG_CHUNK_ZTXT: int</text><ellipse cx="1448" cy="473.5555" fill="none" rx="3" ry="3" style="stroke:#038048;stroke-width:1.0;"/><text fill="#000000" font-family="sans-serif" font-size="14" lengthAdjust="spacing" text-decoration="underline" textLength="149" x="1457" y="477.3466">PNG_CHUNK_IEND: int</text><polygon fill="none" points="1448,485.0438,1452,489.0438,1448,493.0438,1444,489.0438" style="stroke:#B38D22;stroke-width:1.0;"/><text fill="#000000" font-family="sans-serif" font-size="14" lengthAdjust="spacing" text-decoration="underline" textLength="126" x="1457" y="493.8348">gliffyRegex: String</text><polygon fill="none" points="1448,501.5321,1452,505.5321,1448,509.5321,1444,505.5321" style="stroke:#B38D22;stroke-width:1.0;"/><text fill="#000000" font-family="sans-serif" font-size="14" lengthAdjust="spacing" text-decoration="underline" textLength="149" x="1457" y="510.3231">graphMlRegex: String</text><line style="stroke:#181818;stroke-width:0.5;" x1="1438" x2="1872" y1="517.2763" y2="517.2763"/><polygon fill="#FFFF44" points="1448,526.0204,1452,530.0204,1448,534.0204,1444,530.0204" style="stroke:#B38D22;stroke-width:1.0;"/><text fill="#000000" font-family="sans-serif" font-size="14" lengthAdjust="spacing" textLength="373" x="1457" y="534.8114">doPost(HttpServletRequest, HttpServletResponse): void</text><polygon fill="#FFFF44" points="1448,542.5087,1452,546.5087,1448,550.5087,1444,546.5087" style="stroke:#B38D22;stroke-width:1.0;"/><text fill="#000000" font-family="sans-serif" font-size="14" lengthAdjust="spacing" textLength="191" x="1457" y="551.2997">encodeString(String): String</text><polygon fill="#FFFF44" points="1448,558.997,1452,562.997,1448,566.997,1444,562.997" style="stroke:#B38D22;stroke-width:1.0;"/><text fill="#000000" font-family="sans-serif" font-size="14" lengthAdjust="spacing" textLength="242" x="1457" y="567.788">writeScript(PrintWriter, String): void</text><polygon fill="#FFFF44" points="1448,575.4852,1452,579.4852,1448,583.4852,1444,579.4852" style="stroke:#B38D22;stroke-width:1.0;"/><text fill="#000000" font-family="sans-serif" font-size="14" lengthAdjust="spacing" textLength="234" x="1457" y="584.2763">extractXmlFromPng(byte[]): String</text><ellipse cx="1448" cy="596.9735" fill="#84BE84" rx="3" ry="3" style="stroke:#038048;stroke-width:1.0;"/><text fill="#000000" font-family="sans-serif" font-size="14" lengthAdjust="spacing" text-decoration="underline" textLength="410" x="1457" y="600.7645">decodeCompressedText(InputStream): Map&lt;String, String&gt;</text></g></a><!--class HttpServlet--><a href="https://javaee.github.io/javaee-spec/javadocs/javax/servlet/http/HttpServlet.html?is-external=true" target="_top" title="https://javaee.github.io/javaee-spec/javadocs/javax/servlet/http/HttpServlet.html?is-external=true" xlink:actuate="onRequest" xlink:href="https://javaee.github.io/javaee-spec/javadocs/javax/servlet/http/HttpServlet.html?is-external=true" xlink:show="new" xlink:title="https://javaee.github.io/javaee-spec/javadocs/javax/servlet/http/HttpServlet.html?is-external=true" xlink:type="simple"><g id="elem_HttpServlet"><rect codeLine="53" fill="#F1F1F1" height="229.3711" id="HttpServlet" rx="2.5" ry="2.5" style="stroke:#181818;stroke-width:0.5;" width="222" x="899" y="41"/><ellipse cx="968.25" cy="57" fill="#A9DCDF" rx="11" ry="11" style="stroke:#181818;stroke-width:1.0;"/><path d="M968.1133,52.3481 L966.9595,57.4199 L969.2754,57.4199 Z M966.6191,50.1069 L969.6157,50.1069 L972.9609,62.5 L970.5122,62.5 L969.7485,59.437 L966.4697,59.437 L965.7227,62.5 L963.2739,62.5 Z " fill="#000000"/><text fill="#000000" font-family="sans-serif" font-size="14" font-style="italic" lengthAdjust="spacing" textLength="75" x="988.75" y="62.291">HttpServlet</text><line style="stroke:#181818;stroke-width:0.5;" x1="900" x2="1120" y1="73" y2="73"/><rect fill="none" height="6" style="stroke:#C82930;stroke-width:1.0;" width="6" x="907" y="83.7441"/><text fill="#000000" font-family="sans-serif" font-size="14" lengthAdjust="spacing" text-decoration="underline" textLength="166" x="919" y="90.5352">METHOD_DELETE: String</text><rect fill="none" height="6" style="stroke:#C82930;stroke-width:1.0;" width="6" x="907" y="100.2324"/><text fill="#000000" font-family="sans-serif" font-size="14" lengthAdjust="spacing" text-decoration="underline" textLength="154" x="919" y="107.0234">METHOD_HEAD: String</text><rect fill="none" height="6" style="stroke:#C82930;stroke-width:1.0;" width="6" x="907" y="116.7207"/><text fill="#000000" font-family="sans-serif" font-size="14" lengthAdjust="spacing" text-decoration="underline" textLength="143" x="919" y="123.5117">METHOD_GET: String</text><rect fill="none" height="6" style="stroke:#C82930;stroke-width:1.0;" width="6" x="907" y="133.209"/><text fill="#000000" font-family="sans-serif" font-size="14" lengthAdjust="spacing" text-decoration="underline" textLength="177" x="919" y="140">METHOD_OPTIONS: String</text><rect fill="none" height="6" style="stroke:#C82930;stroke-width:1.0;" width="6" x="907" y="149.6973"/><text fill="#000000" font-family="sans-serif" font-size="14" lengthAdjust="spacing" text-decoration="underline" textLength="152" x="919" y="156.4883">METHOD_POST: String</text><rect fill="none" height="6" style="stroke:#C82930;stroke-width:1.0;" width="6" x="907" y="166.1855"/><text fill="#000000" font-family="sans-serif" font-size="14" lengthAdjust="spacing" text-decoration="underline" textLength="143" x="919" y="172.9766">METHOD_PUT: String</text><rect fill="none" height="6" style="stroke:#C82930;stroke-width:1.0;" width="6" x="907" y="182.6738"/><text fill="#000000" font-family="sans-serif" font-size="14" lengthAdjust="spacing" text-decoration="underline" textLength="162" x="919" y="189.4648">METHOD_TRACE: String</text><rect fill="none" height="6" style="stroke:#C82930;stroke-width:1.0;" width="6" x="907" y="199.1621"/><text fill="#000000" font-family="sans-serif" font-size="14" lengthAdjust="spacing" text-decoration="underline" textLength="196" x="919" y="205.9531">HEADER_IFMODSINCE: String</text><rect fill="none" height="6" style="stroke:#C82930;stroke-width:1.0;" width="6" x="907" y="215.6504"/><text fill="#000000" font-family="sans-serif" font-size="14" lengthAdjust="spacing" text-decoration="underline" textLength="178" x="919" y="222.4414">HEADER_LASTMOD: String</text><rect fill="none" height="6" style="stroke:#C82930;stroke-width:1.0;" width="6" x="907" y="232.1387"/><text fill="#000000" font-family="sans-serif" font-size="14" lengthAdjust="spacing" text-decoration="underline" textLength="140" x="919" y="238.9297">LSTRING_FILE: String</text><rect fill="none" height="6" style="stroke:#C82930;stroke-width:1.0;" width="6" x="907" y="248.627"/><text fill="#000000" font-family="sans-serif" font-size="14" lengthAdjust="spacing" text-decoration="underline" textLength="170" x="919" y="255.418">lStrings: ResourceBundle</text><line style="stroke:#181818;stroke-width:0.5;" x1="900" x2="1120" y1="262.3711" y2="262.3711"/></g></a><!--reverse link HttpServlet to SaveServlet--><g id="link_HttpServlet_SaveServlet"><path codeLine="68" d="M881.0409,176.8976 C768.1009,197.0876 607.98,233.8 467,302.37 C408.86,330.65 350.65,374.41 307.22,410.85 " fill="none" id="HttpServlet-backto-SaveServlet" style="stroke:#181818;stroke-width:1.0;"/><polygon fill="none" points="898.76,173.73,879.985,170.9912,882.0968,182.804,898.76,173.73" style="stroke:#181818;stroke-width:1.0;"/></g><!--reverse link HttpServlet to Roundtrip--><g id="link_HttpServlet_Roundtrip"><path codeLine="69" d="M1010,288.45 C1010,332.45 1010,363.51 1010,402.62 " fill="none" id="HttpServlet-backto-Roundtrip" style="stroke:#181818;stroke-width:1.0;"/><polygon fill="none" points="1010,270.45,1004,288.45,1016,288.45,1010,270.45" style="stroke:#181818;stroke-width:1.0;"/></g><!--reverse link HttpServlet to OpenServlet--><g id="link_HttpServlet_OpenServlet"><path codeLine="70" d="M1138.5464,191.8603 C1222.9364,216.9003 1323.11,251.52 1419,302.37 C1442.57,314.87 1466.4,329.53 1489.39,344.93 " fill="none" id="HttpServlet-backto-OpenServlet" style="stroke:#181818;stroke-width:1.0;"/><polygon fill="none" points="1121.29,186.74,1136.8396,197.6124,1140.2531,186.1081,1121.29,186.74" style="stroke:#181818;stroke-width:1.0;"/></g><text fill="#888888" font-family="sans-serif" font-size="10" lengthAdjust="spacing" textLength="176" x="853" y="639.388">UMLDoclet 2.1.2, PlantUML 1.2024.3</text><!--SRC=[lLRnRvf05FwzVyKbPebDAsRzaNHTR45bGoM0MxUcCIUyKhQ3OtU7qtJzttU0jUWgiCpEH3cUt_VUtUDxxu4GGXo4_2QOOK4PKjMZ8sb42VQ-um0GPO6oe2p1H9aJx8E2auI47XOXZRdYoHzAG8cM0SF9FNeeoDd78vXpvE05EC0MH0QvkIdTAVSY8hUtae5AdmSkf6Vl4NKui12JJy2u33GrD1KH6WTxm8G6AZ9f403RGhHyQb4ksaCXadLS6twamCKfshBnH1u4ZbMqeA7_Sf3M0fFGnmBw8O4OHz1s10lZG9AAnSkqatiS-mJ-PHkFkqdjKnPX8O39b6xMDGazMKP4eruQGIoUT_vasS-n60YniYHUj9_GTKVUeJNBaoHbyd1fbjyrvnILGkv_D7kucxZLsRHf6liIciXiRjO7bQSdlSedfA9mNwPR42LYfOLObb5KdQYMNw2uYaOuETzDrCMX2q2w6C01jHl6liNed43q0JEUANZRKgVZ28Vn-X7VtDQ6coGGF_UVqjr_wJ_FkzR7lKjJdmrCez__CdEcbZMnNHNDgUoUEAuXsJrhE3ARigpnO7Ord8u_phwwrsw5w4f8GnzhLV8CI7Xtjx8XW6MDElCvC2BxeOUG9CGUzQ5mNjbUMZzPAC3nP4MBTjwDFcS6jgyv5DwNWc5FN4UapsXaoH3pbO1SR9KTp8TiLrSqIXXm3huh7RMDE4c5f06EZhShjhXUx6htSNl-ViCBl5JuHhGYAKaMptc-rRNOI-cJOi-mNErsCmy0IX2A-tIkX7HjwF04l7pjKu_dYsLt7QURSRibTtcrl0zvHnu9M8p9Ey5Ig2YVaUuE9zfCqqtTrQlpzeGTwZsj6NAWkys04yir9cEd6TYQE0tTMjE6GDVkNTMTFZksRi-C_cYYESQuATxiEQvar81DnxKDMULzmwppIuf_vLYHfKTJvi5bchsvbFHPakUVibJLilpEVtKwV_VkgAgbjyDNYx4PyAyMeJHZyXWUPBCVtL6QNQOZKqxgpFUPybOvEqKMmR6GLlHcKSoQzl5l]--></g></svg>