<?xml version="1.0" encoding="us-ascii" standalone="no"?><svg xmlns="http://www.w3.org/2000/svg" xmlns:xlink="http://www.w3.org/1999/xlink" contentStyleType="text/css" height="267px" preserveAspectRatio="none" style="width:444px;height:267px;background:#FFFFFF;" version="1.1" viewBox="0 0 444 267" width="444px" zoomAndPan="magnify"><defs/><g><!--class org.vorpal.blade.applications.console.mxgraph.SaveServlet--><a href="SaveServlet.html" target="_top" title="SaveServlet.html" xlink:actuate="onRequest" xlink:href="SaveServlet.html" xlink:show="new" xlink:title="SaveServlet.html" xlink:type="simple"><g id="elem_org.vorpal.blade.applications.console.mxgraph.SaveServlet"><rect codeLine="5" fill="#F1F1F1" height="136.707" id="org.vorpal.blade.applications.console.mxgraph.SaveServlet" rx="2.5" ry="2.5" style="stroke:#181818;stroke-width:0.5;" width="428" x="9" y="105.26"/><ellipse cx="105.25" cy="124.3928" fill="#ADD1B2" rx="11" ry="11" style="stroke:#181818;stroke-width:1.0;"/><path d="M107.7231,130.5359 Q107.1421,130.8347 106.5029,130.9841 Q105.8638,131.1335 105.1582,131.1335 Q102.6514,131.1335 101.3315,129.4817 Q100.0117,127.8298 100.0117,124.7087 Q100.0117,121.5793 101.3315,119.9275 Q102.6514,118.2756 105.1582,118.2756 Q105.8638,118.2756 106.5112,118.425 Q107.1587,118.5745 107.7231,118.8733 L107.7231,121.5959 Q107.0923,121.0149 106.4988,120.7451 Q105.9053,120.4753 105.2744,120.4753 Q103.9297,120.4753 103.2449,121.542 Q102.5601,122.6086 102.5601,124.7087 Q102.5601,126.8005 103.2449,127.8672 Q103.9297,128.9338 105.2744,128.9338 Q105.9053,128.9338 106.4988,128.6641 Q107.0923,128.3943 107.7231,127.8132 Z " fill="#000000"/><text fill="#000000" font-family="sans-serif" font-size="14" lengthAdjust="spacing" textLength="77" x="200.75" y="123.7952">SaveServlet</text><text fill="#000000" font-family="sans-serif" font-size="10" lengthAdjust="spacing" textLength="227" x="125.75" y="136.4163">org.vorpal.blade.applications.console.mxgraph</text><line style="stroke:#181818;stroke-width:0.5;" x1="10" x2="436" y1="143.5256" y2="143.5256"/><rect fill="none" height="6" style="stroke:#C82930;stroke-width:1.0;" width="6" x="17" y="154.2698"/><text fill="#000000" font-family="sans-serif" font-size="14" lengthAdjust="spacing" text-decoration="underline" textLength="152" x="29" y="161.0608">serialVersionUID: long</text><rect fill="none" height="6" style="stroke:#C82930;stroke-width:1.0;" width="6" x="17" y="170.758"/><text fill="#000000" font-family="sans-serif" font-size="14" lengthAdjust="spacing" text-decoration="underline" textLength="78" x="29" y="177.5491">log: Logger</text><line style="stroke:#181818;stroke-width:0.5;" x1="10" x2="436" y1="184.5022" y2="184.5022"/><polygon fill="#FFFF44" points="20,193.2463,24,197.2463,20,201.2463,16,197.2463" style="stroke:#B38D22;stroke-width:1.0;"/><text fill="#000000" font-family="sans-serif" font-size="14" lengthAdjust="spacing" textLength="373" x="29" y="202.0373">doPost(HttpServletRequest, HttpServletResponse): void</text><polygon fill="#FFFF44" points="20,209.7346,24,213.7346,20,217.7346,16,213.7346" style="stroke:#B38D22;stroke-width:1.0;"/><text fill="#000000" font-family="sans-serif" font-size="14" lengthAdjust="spacing" text-decoration="underline" textLength="215" x="29" y="218.5256">validateFilename(String): String</text><ellipse cx="20" cy="231.2229" fill="#84BE84" rx="3" ry="3" style="stroke:#038048;stroke-width:1.0;"/><text fill="#000000" font-family="sans-serif" font-size="14" lengthAdjust="spacing" text-decoration="underline" textLength="402" x="29" y="235.0139">handlePost(HttpServletRequest, HttpServletResponse): void</text></g></a><!--class javax.servlet.http.HttpServlet--><a href="https://javaee.github.io/javaee-spec/javadocs/javax/servlet/http/HttpServlet.html?is-external=true" target="_top" title="https://javaee.github.io/javaee-spec/javadocs/javax/servlet/http/HttpServlet.html?is-external=true" xlink:actuate="onRequest" xlink:href="https://javaee.github.io/javaee-spec/javadocs/javax/servlet/http/HttpServlet.html?is-external=true" xlink:show="new" xlink:title="https://javaee.github.io/javaee-spec/javadocs/javax/servlet/http/HttpServlet.html?is-external=true" xlink:type="simple"><g id="elem_javax.servlet.http.HttpServlet"><rect codeLine="13" fill="#F1F1F1" height="38.2656" id="javax.servlet.http.HttpServlet" rx="2.5" ry="2.5" style="stroke:#181818;stroke-width:0.5;" width="117" x="164.5" y="7"/><ellipse cx="179.5" cy="26.1328" fill="#A9DCDF" rx="11" ry="11" style="stroke:#181818;stroke-width:1.0;"/><path d="M179.3633,21.481 L178.2095,26.5527 L180.5254,26.5527 Z M177.8691,19.2397 L180.8657,19.2397 L184.2109,31.6328 L181.7622,31.6328 L180.9985,28.5698 L177.7197,28.5698 L176.9727,31.6328 L174.5239,31.6328 Z " fill="#000000"/><text fill="#000000" font-family="sans-serif" font-size="14" font-style="italic" lengthAdjust="spacing" textLength="75" x="198.5" y="25.5352">HttpServlet</text><text fill="#000000" font-family="sans-serif" font-size="10" font-style="italic" lengthAdjust="spacing" textLength="85" x="193.5" y="38.1563">javax.servlet.http</text></g></a><!--reverse link javax.servlet.http.HttpServlet to org.vorpal.blade.applications.console.mxgraph.SaveServlet--><g id="link_javax.servlet.http.HttpServlet_org.vorpal.blade.applications.console.mxgraph.SaveServlet"><path codeLine="15" d="M223,63.56 C223,78.7 223,83.13 223,104.95 " fill="none" id="javax.servlet.http.HttpServlet-backto-org.vorpal.blade.applications.console.mxgraph.SaveServlet" style="stroke:#181818;stroke-width:1.0;"/><polygon fill="none" points="223,45.56,217,63.56,229,63.56,223,45.56" style="stroke:#181818;stroke-width:1.0;"/></g><text fill="#888888" font-family="sans-serif" font-size="10" lengthAdjust="spacing" textLength="176" x="127" y="257.635">UMLDoclet 2.1.2, PlantUML 1.2024.3</text><!--SRC=[dLB1RjGm4Btp5QDMI5lHEBJY59LogH18HQfOjPUoXrbdcXWv7kEPZHPA_nqdMLMXMmbH7-pniz-RiTy000Wf1En88bfQKiI4oWa21tgLZw5rDG5rKN_2dIDVorEq8sqvmoDkFOh0mPcuNrITl3jVOfz5K-z9luKT-lQSKsDwJX6zMNkioM2CtbbKnq6CpHDxCjssIHZR0q21_sAOMLQulPtjJAkTNwtWVYns6FUYMSG-G26K7FeRIf8rhpzVLE0vDCzSzDnKSCbDG-dnzB3cAnPTV5ADkrnVwSU6H8_XBqnYhfMEAkZPrVlYXprwLwFIH-Tfi6MnrEH2ambJi4zvqsAeFRqq_SDa7Av54rhTSt16dpdu7NlS6ddyLOsZJVkmcV6p5mCaLLaE5ubCuxJTh8tZ7L1893l6DLiPWssvaoi7RZcJ6ytyuAIWhL8AwDzhsj1gDJte7wMS_IwAbtVLrEiKSbwuOnwMwo-N5sm7wLDpOawFuSfZq8p2wtxggSNH7m00]--></g></svg>